<svg xmlns="http://www.w3.org/2000/svg" width="24" height="24" viewBox="0 0 24 24">
  <g id="work" transform="translate(-46 -174)">
    <rect id="Rectangle_453" data-name="Rectangle 453" width="24" height="24" transform="translate(46 174)" fill="none"/>
    <g id="Icon_feather-briefcase" data-name="Icon feather-briefcase" transform="translate(47.222 174.5)">
      <path id="Path_12225" data-name="Path 12225" d="M4.556,10.5H17a1.556,1.556,0,0,1,1.556,1.556v7.778A1.556,1.556,0,0,1,17,21.389H4.556A1.556,1.556,0,0,1,3,19.833V12.056A1.556,1.556,0,0,1,4.556,10.5Z" transform="translate(0 -2.889)" fill="none" stroke="#000" stroke-linecap="round" stroke-linejoin="round" stroke-width="1"/>
      <path id="Path_12226" data-name="Path 12226" d="M18.222,18.5V6.056A1.556,1.556,0,0,0,16.667,4.5H13.556A1.556,1.556,0,0,0,12,6.056V18.5" transform="translate(-4.333)" fill="none" stroke="#000" stroke-linecap="round" stroke-linejoin="round" stroke-width="1"/>
    </g>
  </g>
</svg>
