<svg xmlns="http://www.w3.org/2000/svg" width="24" height="24" viewBox="0 0 24 24">
  <g id="coffee" transform="translate(-46 -174)">
    <rect id="Rectangle_453" data-name="Rectangle 453" width="24" height="24" transform="translate(46 174)" fill="none"/>
    <g id="Icon_feather-home" data-name="Icon feather-home" transform="translate(49.163 177.25)">
      <path id="Path_12224" data-name="Path 12224" d="M13.5,23.3V18h3.178v5.3" transform="translate(-6.252 -9.25)" fill="none" stroke="#000" stroke-linecap="round" stroke-linejoin="round" stroke-width="1"/>
      <g id="Icon_feather-coffee" data-name="Icon feather-coffee" transform="translate(1.488 1.75)">
        <path id="Path_12227" data-name="Path 12227" d="M27,12h.7a2.8,2.8,0,1,1,0,5.6H27" transform="translate(-15.8 -7.1)" fill="none" stroke="#000" stroke-linecap="round" stroke-linejoin="round" stroke-width="1"/>
        <path id="Path_12228" data-name="Path 12228" d="M3,12H14.2v6.3a2.8,2.8,0,0,1-2.8,2.8H5.8A2.8,2.8,0,0,1,3,18.3Z" transform="translate(-3 -7.1)" fill="none" stroke="#000" stroke-linecap="round" stroke-linejoin="round" stroke-width="1"/>
        <path id="Path_12229" data-name="Path 12229" d="M9,1.5V3.6" transform="translate(-6.2 -1.5)" fill="none" stroke="#000" stroke-linecap="round" stroke-linejoin="round" stroke-width="1"/>
        <path id="Path_12230" data-name="Path 12230" d="M15,1.5V3.6" transform="translate(-9.4 -1.5)" fill="none" stroke="#000" stroke-linecap="round" stroke-linejoin="round" stroke-width="1"/>
        <path id="Path_12231" data-name="Path 12231" d="M21,1.5V3.6" transform="translate(-12.6 -1.5)" fill="none" stroke="#000" stroke-linecap="round" stroke-linejoin="round" stroke-width="1"/>
      </g>
    </g>
  </g>
</svg>
