<svg id="logo" xmlns="http://www.w3.org/2000/svg" width="96.461" height="96.461" viewBox="0 0 96.461 96.461">
  <rect id="Rectangle_468" data-name="Rectangle 468" width="96.461" height="96.461" rx="10" transform="translate(0 0)" fill="#f4c914"/>
  <g id="Group_3227" data-name="Group 3227" transform="translate(24.69 18.792)">
    <path id="Path_12245" data-name="Path 12245" d="M540.657,351.789c-1.65-11.441-11.587-19.894-23.866-20.034a22.236,22.236,0,0,0-10.083,2.545,23.3,23.3,0,0,0-12.567,24.434,21.964,21.964,0,0,0,7.581,13.976A60.8,60.8,0,0,1,515.7,389.456a1.951,1.951,0,0,0,1.818,1.128A2.012,2.012,0,0,0,519.3,389.4a59.146,59.146,0,0,1,13.174-16C539.077,367.7,541.9,360.427,540.657,351.789Zm-15.814,11.47a8.6,8.6,0,0,1-6.075,2.292A10.406,10.406,0,0,1,510.814,362a12.335,12.335,0,0,1-3.269-8.661,11.707,11.707,0,0,1,3.328-8.527,11.157,11.157,0,0,1,8.317-3.4,12.062,12.062,0,0,1,3.775.691v6.842a7.038,7.038,0,0,0-2.949-.758,5.374,5.374,0,0,0-3.936,1.5,5.218,5.218,0,0,0-1.525,3.892,5.274,5.274,0,0,0,1.416,3.876,5.133,5.133,0,0,0,3.825,1.432q1.534,0,1.534-.893,0-.674-1.011-.674h-1.634v-5.223h6.521a8.649,8.649,0,0,1,2.107,5.51A7.418,7.418,0,0,1,524.843,363.259Z" transform="translate(-493.887 -331.755)"/>
  </g>
</svg>
