<svg xmlns="http://www.w3.org/2000/svg" width="24" height="24" viewBox="0 0 24 24">
  <g id="delete_icon" transform="translate(-168.75 -253)">
    <g id="Icon_material-delete" data-name="Icon material-delete" transform="translate(168 253.75)" fill="none">
      <path d="M8.25,16.5A1.5,1.5,0,0,0,9.75,18h6a1.5,1.5,0,0,0,1.5-1.5v-9h-9ZM18,5.25H15.375l-.75-.75h-3.75l-.75.75H7.5v1.5H18Z" stroke="none"/>
      <path d="M 15.74993801116943 17.9998836517334 C 16.57492828369141 17.9998836517334 17.24991798400879 17.32489395141602 17.24991798400879 16.49990463256836 L 17.24991798400879 7.499973773956299 L 8.249998092651367 7.499973773956299 L 8.249998092651367 16.49990463256836 C 8.249998092651367 17.32489395141602 8.92498779296875 17.9998836517334 9.749978065490723 17.9998836517334 L 15.74993801116943 17.9998836517334 M 17.99991798400879 6.749983787536621 L 17.99991798400879 5.249993801116943 L 15.37493801116943 5.249993801116943 L 14.62493801116943 4.500003814697266 L 10.87497806549072 4.500003814697266 L 10.12497806549072 5.249993801116943 L 7.499998092651367 5.249993801116943 L 7.499998092651367 6.749983787536621 L 17.99991798400879 6.749983787536621 M 15.74993801116943 18.89988327026367 L 9.749978065490723 18.89988327026367 C 8.426628112792969 18.89988327026367 7.349997997283936 17.8232536315918 7.349997997283936 16.49990463256836 L 7.349997997283936 7.649983882904053 L 6.599997997283936 7.649983882904053 L 6.599997997283936 4.349993705749512 L 9.752191543579102 4.349993705749512 L 10.50218772888184 3.600003719329834 L 14.99772834777832 3.600003719329834 L 15.74772453308105 4.349993705749512 L 18.89991760253906 4.349993705749512 L 18.89991760253906 7.649983882904053 L 18.14991760253906 7.649983882904053 L 18.14991760253906 16.49990463256836 C 18.14991760253906 17.8232536315918 17.07328796386719 18.89988327026367 15.74993801116943 18.89988327026367 Z" stroke="none" fill="#fff"/>
    </g>
    <rect id="Rectangle_451" data-name="Rectangle 451" width="24" height="24" transform="translate(168.75 253)" fill="none"/>
  </g>
</svg>
