<svg xmlns="http://www.w3.org/2000/svg" width="236.774" height="157.353" viewBox="0 0 236.774 157.353">
  <g id="forgot_password_and_reset_code_screen_vector" transform="translate(0 0)">
    <path id="Path_3078" data-name="Path 3078" d="M438.14,427.755c9.466-16.652,27.524-29.439,46.639-28.207a88.255,88.255,0,0,0-23.211,55.971c-.314,8.027.173,16.988-5.157,23-3.316,3.74-8.385,5.551-13.369,5.932s-9.967-.521-14.885-1.417l-1.193.366C426.509,464.249,428.674,444.408,438.14,427.755Z" transform="translate(-350.3 -341.058)" fill="#f2822f"/>
    <path id="Path_3079" data-name="Path 3079" d="M484.786,399.073A75.436,75.436,0,0,0,451.2,431.1a32.483,32.483,0,0,0-3.556,9.537,18.632,18.632,0,0,0,.969,9.758c1.05,2.92,2.462,5.785,2.784,8.909a11.408,11.408,0,0,1-3.053,8.816c-2.669,2.99-6.252,4.843-9.82,6.533-3.961,1.877-8.105,3.763-10.911,7.265-.34.424-.979-.128-.639-.552,4.881-6.093,13.237-7.239,19.031-12.147,2.7-2.29,4.733-5.409,4.605-9.064-.112-3.2-1.566-6.151-2.654-9.1a19.88,19.88,0,0,1-1.3-9.505,30.03,30.03,0,0,1,3.176-9.638,73.184,73.184,0,0,1,13.458-18.5,76.774,76.774,0,0,1,21.227-15.145c.488-.235.758.565.273.8Z" transform="translate(-350.278 -340.182)" fill="#fff"/>
    <path id="Path_3080" data-name="Path 3080" d="M506.762,460.093a11.318,11.318,0,0,1-3.415-14.251c.247-.484,1.011-.122.763.362a10.48,10.48,0,0,0,3.2,13.25C507.754,459.773,507.2,460.41,506.762,460.093Z" transform="translate(-403.674 -373.805)" fill="#fff"/>
    <path id="Path_3081" data-name="Path 3081" d="M498.31,553.408a21.813,21.813,0,0,0,13.811-7.872c.341-.423.98.129.639.552a22.689,22.689,0,0,1-14.388,8.163c-.539.077-.6-.765-.062-.842Z" transform="translate(-400.703 -444.603)" fill="#fff"/>
    <path id="Path_3082" data-name="Path 3082" d="M573.215,432.436a6.406,6.406,0,0,0,5.726,2.041c.538-.084.6.759.062.842a7.179,7.179,0,0,1-6.339-2.244.436.436,0,0,1-.044-.6A.424.424,0,0,1,573.215,432.436Z" transform="translate(-453.63 -364.382)" fill="#fff"/>
    <path id="Path_3083" data-name="Path 3083" d="M521.011,555.015c-.334.062-.668.124-1.006.192a84.356,84.356,0,0,0-13.191,3.646c-.334.116-.67.239-1,.365a88.938,88.938,0,0,0-27.973,17.023,86.36,86.36,0,0,0-9.06,9.494c-3.832,4.682-7.614,10.063-12.622,13.116a14.834,14.834,0,0,1-1.612.874L425.7,587.76c-.052-.06-.107-.114-.159-.174l-1.174-.425c.131-.185.271-.374.4-.559.076-.107.157-.212.233-.32.052-.071.1-.141.148-.208.017-.024.035-.047.05-.064.043-.067.09-.125.131-.185q1.167-1.587,2.361-3.163c0-.007,0-.007.012-.01a127,127,0,0,1,20.623-21.823c.233-.189.468-.384.714-.568a82.423,82.423,0,0,1,11.141-7.536,72.881,72.881,0,0,1,6.609-3.268,60.593,60.593,0,0,1,18.357-4.682c12.612-1.171,25.458,1.7,35.131,9.627C520.525,554.605,520.767,554.805,521.011,555.015Z" transform="translate(-348.498 -443.993)" fill="#f2822f"/>
    <path id="Path_3084" data-name="Path 3084" d="M521.775,576.23a75.433,75.433,0,0,0-46.1,5.352,32.485,32.485,0,0,0-8.581,5.474,18.631,18.631,0,0,0-5.1,8.375c-.92,2.963-1.517,6.1-3.141,8.79a11.408,11.408,0,0,1-7.746,5.2c-3.931.781-7.908.1-11.774-.7-4.293-.887-8.737-1.875-13.086-.768-.527.134-.7-.691-.178-.825,7.566-1.926,14.927,2.19,22.508,1.759,3.538-.2,7.036-1.469,9.134-4.464,1.835-2.619,2.453-5.854,3.359-8.863a19.882,19.882,0,0,1,4.682-8.374,30.035,30.035,0,0,1,8.339-5.783,73.183,73.183,0,0,1,21.881-6.665,76.771,76.771,0,0,1,26.067.687c.531.106.265.908-.263.8Z" transform="translate(-349.479 -464.869)" fill="#fff"/>
    <path id="Path_3085" data-name="Path 3085" d="M612.046,559.065a11.318,11.318,0,0,1,5.854-13.435c.489-.237.88.511.391.748a10.48,10.48,0,0,0-5.419,12.509C613.03,559.406,612.2,559.581,612.046,559.065Z" transform="translate(-481.332 -444.745)" fill="#fff"/>
    <path id="Path_3086" data-name="Path 3086" d="M549.869,642.415a21.814,21.814,0,0,0,15.767,2.03c.528-.132.7.693.178.825a22.689,22.689,0,0,1-16.4-2.145C548.935,642.862,549.395,642.153,549.869,642.415Z" transform="translate(-437.087 -513.417)" fill="#fff"/>
    <path id="Path_3087" data-name="Path 3087" d="M694.362,575.262a6.406,6.406,0,0,0,3.343,5.077c.48.257.019.964-.458.709a7.179,7.179,0,0,1-3.71-5.609.436.436,0,0,1,.323-.5A.424.424,0,0,1,694.362,575.262Z" transform="translate(-539.498 -465.569)" fill="#fff"/>
    <path id="Path_3088" data-name="Path 3088" d="M234.79,518.823C231.327,502.08,227,496.5,227,496.5l-1.654-1.282-1.989-1.545.01-.2-.472-.16-.111-.086-.182-.139-.029.031-.062.064-9-3.059L202.1,486.245l-5.286-6.872a9.143,9.143,0,0,0-7.315-3.568l-16.883.125a9.144,9.144,0,0,0-6.151,2.44l-11.1,10.294-17.292,8.258-.029-.029-.182.13-2.672,1.277.11.574-1.654,1.193s-4.329,5.194-7.791,20.774c-.881,3.964-1.315,12.468-1.471,22.947a4,4,0,0,0,4,4.059H232.267a4,4,0,0,0,4-4.055C236.112,532.389,235.679,523.122,234.79,518.823Z" transform="translate(-124.382 -390.494)" fill="#212121"/>
    <path id="Path_3089" data-name="Path 3089" d="M574.666,191.732a13.548,13.548,0,0,0,0,27.1H675.635a13.548,13.548,0,0,0,0-27.1Z" transform="translate(-452.408 -177.13)" fill="#e5e5e5"/>
    <path id="Path_3090" data-name="Path 3090" d="M582.939,202.747a10.806,10.806,0,1,0,0,21.613H683.909a10.806,10.806,0,0,0,0-21.613Z" transform="translate(-460.682 -185.404)" fill="#fff"/>
    <path id="ab6171fa-7d69-4734-b81c-8dff60f9761b" d="M22.119,0A22.119,22.119,0,1,1,0,22.119,22.119,22.119,0,0,1,22.119,0Z" transform="translate(37.203 34.73)" fill="#efb7b9"/>
    <path id="Path_3091" data-name="Path 3091" d="M339.119,444.083q-.142-.312-.283-.626c.036,0,.072.006.108.007Z" transform="translate(-285.456 -366.198)" fill="#2f2e41"/>
    <path id="Path_3092" data-name="Path 3092" d="M245.216,245a6.156,6.156,0,0,1,3.857-1.667c1.43.046,2.881,1.338,2.584,2.738a22.73,22.73,0,0,1,27.354-10.257c3.555,1.254,7.041,3.763,7.858,7.444a6.7,6.7,0,0,0,.844,2.748,3.137,3.137,0,0,0,3.338.846l.035-.01a1.045,1.045,0,0,1,1.263,1.475l-1.006,1.876a8.061,8.061,0,0,0,3.84-.082,1.044,1.044,0,0,1,1.109,1.625,18.2,18.2,0,0,1-14.512,7.46c-4.019-.024-8.079-1.41-11.991-.485a10.415,10.415,0,0,0-7.005,14.621c-1.2-1.314-3.524-1-4.754.286a6.519,6.519,0,0,0-1.423,4.988,23.145,23.145,0,0,0,2.376,7.769A23.226,23.226,0,0,1,245.216,245Z" transform="translate(-208.628 -209.267)" fill="#212121"/>
    <path id="Path_3093" data-name="Path 3093" d="M87.464,495.253l6.2,33.754,3.722.324Z" transform="translate(-65.693 -371.979)" fill="#a1a1a1" opacity="0.2"/>
    <path id="Path_3094" data-name="Path 3094" d="M332.054,485.026l-6.2,36.275-3.722.348Z" transform="translate(-241.946 -364.298)" fill="#a1a1a1" opacity="0.2"/>
    <path id="Path_3095" data-name="Path 3095" d="M255.006,157.445a2.205,2.205,0,0,1-2.951-1.294,2.239,2.239,0,0,1,1.174-3.055,2.352,2.352,0,0,1,1.778,4.349Zm-2.279-6.841-.946.395a1.02,1.02,0,0,1-1.3-.475l-.047-.092a8.273,8.273,0,0,1-.345-6.626c.732-2.3,1.035-3.912.424-5.376-.706-1.692-2.215-2.222-4.139-1.454a3.516,3.516,0,0,0-1.571.889,1.348,1.348,0,0,1-.976.4,1.3,1.3,0,0,1-.933-.409,1.331,1.331,0,0,1-.009-1.816,10.338,10.338,0,0,1,3.5-2.4c4.134-1.726,6.214.822,7.167,3.1.931,2.23.407,4.3-.434,6.98a6.929,6.929,0,0,0,.137,5.518,1.016,1.016,0,0,1-.529,1.367Z" transform="translate(-213.127 -133.069)" fill="#f2822f"/>
    <path id="Path_3096" data-name="Path 3096" d="M643.071,269.2H622.982a.484.484,0,0,1,0-.968h20.089a.484.484,0,1,1,0,.968Z" transform="translate(-498.511 -234.59)" fill="#f2822f"/>
    <path id="Path_3097" data-name="Path 3097" d="M745.452,269.85H725.363a.484.484,0,1,1,0-.968h20.089a.484.484,0,1,1,0,.968Z" transform="translate(-575.408 -235.077)" fill="#f2822f"/>
    <path id="Path_3098" data-name="Path 3098" d="M847.834,270.5H827.745a.484.484,0,1,1,0-.968h20.089a.484.484,0,1,1,0,.968Z" transform="translate(-652.306 -235.564)" fill="#f2822f"/>
    <path id="Path_3099" data-name="Path 3099" d="M950.212,271.146H930.123a.484.484,0,1,1,0-.968h20.089a.484.484,0,1,1,0,.968Z" transform="translate(-729.201 -236.05)" fill="#f2822f"/>
    <circle id="Ellipse_21" data-name="Ellipse 21" cx="3.734" cy="3.734" r="3.734" transform="translate(130.738 22.691)" fill="#f2822f"/>
    <circle id="Ellipse_22" data-name="Ellipse 22" cx="3.734" cy="3.734" r="3.734" transform="translate(156.375 22.691)" fill="#f2822f"/>
    <circle id="Ellipse_23" data-name="Ellipse 23" cx="3.734" cy="3.734" r="3.734" transform="translate(182.013 22.691)" fill="#f2822f"/>
    <circle id="Ellipse_24" data-name="Ellipse 24" cx="3.734" cy="3.734" r="3.734" transform="translate(207.651 22.691)" fill="#f2822f"/>
  </g>
</svg>
