<svg xmlns="http://www.w3.org/2000/svg" width="277.962" height="131.487" viewBox="0 0 277.962 131.487">
  <defs>
    <clipPath id="clip-path">
      <path id="Path_3002" data-name="Path 3002" d="M539.662,416.253s-3.648,2.124-5.436-1.149l-13.04,6.921L541.6,421.9Z" transform="translate(-521.186 -415.104)" fill="#101010"/>
    </clipPath>
    <clipPath id="clip-path-2">
      <path id="Path_3012" data-name="Path 3012" d="M594.063,416.449s-3.769,2.224-5.557-1.049l-12.92,6.821L596,422.1Z" transform="translate(-575.587 -415.4)" fill="#101010"/>
    </clipPath>
  </defs>
  <g id="login_and_registration_vector" transform="translate(-3.281 -43.354)">
    <g id="Group_300" data-name="Group 300" transform="translate(53.766 43.354)">
      <g id="Group_299" data-name="Group 299" transform="translate(135 0)">
        <g id="Group_294" data-name="Group 294" transform="translate(31.959 7.209)">
          <g id="Group_264" data-name="Group 264" transform="translate(8.494 0)">
            <path id="Path_2977" data-name="Path 2977" d="M554.987,97.975s-6.4,10.214-2.732,17.536l18.3.269s2.4-8.9-7.488-18.763Z" transform="translate(-549.509 -89.326)"/>
            <g id="Group_263" data-name="Group 263" transform="translate(0 0)">
              <g id="Group_261" data-name="Group 261">
                <path id="Path_2978" data-name="Path 2978" d="M550.394,81.194a3.563,3.563,0,0,0-4.049,3.838c.028,4.055,4.391,6.344,4.391,6.344Z" transform="translate(-546.344 -78.837)"/>
                <ellipse id="Ellipse_14" data-name="Ellipse 14" cx="7.101" cy="7.101" rx="7.101" ry="7.101" transform="translate(0.342 14.168) rotate(-86.016)"/>
                <path id="Path_2979" data-name="Path 2979" d="M552.056,105.334a5.142,5.142,0,0,0-.647-1.838c-.464-.786-1.15-1.526-2.093-1.017-1.605.867.165,3.463,1.866,3.589.5.037.937-.331.874-.734Z" transform="translate(-547.896 -92.833)" fill="#995348"/>
                <path id="Path_2980" data-name="Path 2980" d="M566.39,113.439l1.641,10.538h-5.57l-.2-9.316Z" transform="translate(-556.889 -100.204)" fill="#b07361"/>
                <path id="Path_2981" data-name="Path 2981" d="M566.684,120.284l-4.236,4.029-.07-3.295Z" transform="translate(-556.964 -104.737)" fill="#995348"/>
                <path id="Path_2982" data-name="Path 2982" d="M554.555,84.914s-4.177.528-3.8,4.534c.466,4.894.88,7.821,3.767,8.725a4.908,4.908,0,0,0,5.539-2.461c.506-.827.451-3.009.512-3.969l.81-2.047S562.237,84.417,554.555,84.914Z" transform="translate(-549.253 -81.288)" fill="#b07361"/>
                <path id="Path_2983" data-name="Path 2983" d="M579.217,95.382l-.061,4.269,2.677-3.686Z" transform="translate(-568.078 -88.243)"/>
                <g id="Group_260" data-name="Group 260" transform="translate(10.773 9.424)">
                  <path id="Path_2984" data-name="Path 2984" d="M578.255,105.276a5.142,5.142,0,0,1,.554-1.868c.424-.808,1.072-1.582,2.039-1.121,1.647.786.01,3.466-1.683,3.679-.5.062-.952-.283-.91-.69Z" transform="translate(-578.252 -102.149)" fill="#b07361"/>
                  <path id="Path_2985" data-name="Path 2985" d="M582.394,106.4c-.769,0-1.429,1-1.429,1" transform="translate(-580.049 -104.965)" fill="none" stroke="#000" stroke-linecap="round" stroke-linejoin="round" stroke-width="0.361"/>
                </g>
                <path id="Path_2986" data-name="Path 2986" d="M551.883,81.072s1.36,6.423,10.9,4.888c0,0,2.674-.6.038-3.781S554.351,79.849,551.883,81.072Z" transform="translate(-550.013 -78.037)"/>
              </g>
              <g id="Group_262" data-name="Group 262" transform="translate(1.711 7.382)">
                <path id="Path_2987" data-name="Path 2987" d="M558.109,109.042l-.4,1.108.707.326" transform="translate(-555.581 -104.674)" fill="none" stroke="#000" stroke-linecap="round" stroke-linejoin="round" stroke-width="0.361"/>
                <path id="Path_2988" data-name="Path 2988" d="M565.843,105.72a.48.48,0,1,1-.481-.48A.481.481,0,0,1,565.843,105.72Z" transform="translate(-560.334 -102.155)"/>
                <path id="Path_2989" data-name="Path 2989" d="M554.577,105.568a.446.446,0,1,1-.446-.446A.445.445,0,0,1,554.577,105.568Z" transform="translate(-552.918 -102.077)"/>
                <path id="Path_2990" data-name="Path 2990" d="M553.534,96.548a.6.6,0,0,1-.493.77,4.27,4.27,0,0,0-1.121.3.334.334,0,0,1-.448-.159h0a.489.489,0,0,1,0-.464,1.681,1.681,0,0,1,1.117-.861C553.383,95.966,553.534,96.548,553.534,96.548Z" transform="translate(-551.413 -96.104)"/>
                <path id="Path_2991" data-name="Path 2991" d="M563.716,96.567s-.206.644.661.757a9.075,9.075,0,0,1,1.818.518.483.483,0,0,0,.569-.171h0a.4.4,0,0,0-.014-.464,3.427,3.427,0,0,0-1.834-1.079C563.889,95.981,563.716,96.567,563.716,96.567Z" transform="translate(-559.548 -96.104)"/>
                <path id="Path_2992" data-name="Path 2992" d="M558.686,114.37a5.6,5.6,0,0,0,2.665-.578A1.636,1.636,0,0,1,558.686,114.37Z" transform="translate(-556.23 -107.82)" fill="#fff"/>
              </g>
            </g>
          </g>
          <g id="Group_266" data-name="Group 266" transform="translate(0.921 23.896)">
            <g id="Group_265" data-name="Group 265" transform="translate(0 29.721)">
              <path id="Path_2993" data-name="Path 2993" d="M527.83,251.6l-1.33.764a5.108,5.108,0,0,0-1.724,1.624L524,255.162a.541.541,0,0,0,.234.793h0a.693.693,0,0,0,.763-.139l1.07-1.045-1.619,5.629a.42.42,0,0,0,.328.537l.167.029a.419.419,0,0,0,.463-.26l1.063-3.3-.7,3.963a.42.42,0,0,0,.36.515l.124.014a.419.419,0,0,0,.455-.318l.847-4.1-.073,3.4a.419.419,0,0,0,.491.432l.053-.009a.419.419,0,0,0,.344-.359l.285-3.435.175,2.068a.419.419,0,0,0,.6.378h0a.419.419,0,0,0,.236-.339l.741-7.917Z" transform="translate(-523.914 -245.332)" fill="#b07361"/>
              <path id="Path_2994" data-name="Path 2994" d="M530.3,259.074a2.755,2.755,0,0,0,2.127-.981" transform="translate(-528.145 -249.635)" fill="none" stroke="#000" stroke-linecap="round" stroke-linejoin="round" stroke-width="0.336"/>
              <path id="Path_2995" data-name="Path 2995" d="M535.514,239.307l.4-6.1,4.135-.164-1.954,6.363Z" transform="translate(-531.598 -233.043)" fill="#b07361"/>
            </g>
            <path id="Path_2996" data-name="Path 2996" d="M534.747,145.015s-2.118.694-2.924,7.7c-.946,8.232-1.522,26.23-1.522,26.23l5.505.407,3.261-26.637Z" transform="translate(-528.145 -145.015)" fill="#fff"/>
          </g>
          <g id="Group_285" data-name="Group 285" transform="translate(0 42.595)">
            <g id="Group_275" data-name="Group 275">
              <g id="Group_267" data-name="Group 267" transform="translate(6.653)">
                <path id="Path_2997" data-name="Path 2997" d="M544.807,200.4s-3.225,5.97-3.783,17.544a185.248,185.248,0,0,0,.472,21.081,4.451,4.451,0,0,0,4.443,4.125h0a4.454,4.454,0,0,0,4.45-4.259l1.687-38.49Z" transform="translate(-540.891 -200.396)" fill="#4a85e6"/>
                <path id="Path_2998" data-name="Path 2998" d="M564.6,236.225l1.622,23.433.552-12.6Z" transform="translate(-556.595 -224.128)"/>
              </g>
              <g id="Group_274" data-name="Group 274" transform="translate(0 38.49)">
                <g id="Group_272" data-name="Group 272" transform="translate(0 22.686)">
                  <path id="Path_2999" data-name="Path 2999" d="M560.755,383.6l1.187,11.691-5.168.162-2.14-13.866Z" transform="translate(-543.341 -381.586)" fill="#b07361"/>
                  <g id="Group_271" data-name="Group 271" transform="translate(0 11.317)">
                    <g id="Group_270" data-name="Group 270">
                      <g id="Group_269" data-name="Group 269">
                        <path id="Path_3000" data-name="Path 3000" d="M539.662,416.253s-3.648,2.124-5.436-1.149l-13.04,6.921L541.6,421.9Z" transform="translate(-521.186 -415.104)" fill="#101010"/>
                        <g id="Group_268" data-name="Group 268" clip-path="url(#clip-path)">
                          <path id="Path_3001" data-name="Path 3001" d="M520.117,423.324s5.039.754,4.651,7.02l-8.721-2.39Z" transform="translate(-517.782 -420.549)" fill="#fff"/>
                        </g>
                      </g>
                      <rect id="Rectangle_177" data-name="Rectangle 177" width="20.414" height="1.785" transform="translate(0.001 6.921) rotate(-0.351)" fill="#fff"/>
                      <path id="Path_3003" data-name="Path 3003" d="M551.695,420.644a.342.342,0,0,1-.142-.107,7.079,7.079,0,0,0-1.6-1.558.316.316,0,0,1-.095-.452.357.357,0,0,1,.474-.091,7.592,7.592,0,0,1,1.773,1.717.316.316,0,0,1-.076.456A.358.358,0,0,1,551.695,420.644Z" transform="translate(-540.141 -417.276)" fill="#fff"/>
                      <path id="Path_3004" data-name="Path 3004" d="M546.754,423.114a.339.339,0,0,1-.141-.108,7.067,7.067,0,0,0-1.6-1.558.316.316,0,0,1-.094-.452.356.356,0,0,1,.474-.091,7.6,7.6,0,0,1,1.773,1.717.316.316,0,0,1-.076.456A.358.358,0,0,1,546.754,423.114Z" transform="translate(-536.869 -418.912)" fill="#fff"/>
                      <path id="Path_3005" data-name="Path 3005" d="M541.814,425.586a.343.343,0,0,1-.141-.108,7.078,7.078,0,0,0-1.6-1.557.316.316,0,0,1-.094-.452.355.355,0,0,1,.474-.091,7.6,7.6,0,0,1,1.773,1.717.316.316,0,0,1-.076.455A.359.359,0,0,1,541.814,425.586Z" transform="translate(-533.596 -420.549)" fill="#fff"/>
                    </g>
                  </g>
                </g>
                <g id="Group_273" data-name="Group 273" transform="translate(7.257)">
                  <path id="Path_3006" data-name="Path 3006" d="M542.681,314.531l3.654,31.183h8.207L551.573,314.4Z" transform="translate(-542.681 -314.396)" fill="#4a85e6"/>
                  <line id="Line_3" data-name="Line 3" x1="8.281" transform="translate(3.269 28.039)" fill="none" stroke="#000" stroke-linecap="round" stroke-linejoin="round" stroke-width="0.336"/>
                </g>
              </g>
            </g>
            <g id="Group_284" data-name="Group 284" transform="translate(11.044)">
              <g id="Group_276" data-name="Group 276">
                <path id="Path_3007" data-name="Path 3007" d="M569.881,200.4s4.421,6.58,5.283,20.213c.541,8.561.919,13.97,1.172,17.336a4.839,4.839,0,0,1-4.834,5.2h0a4.847,4.847,0,0,1-4.732-3.8l-3.563-16.027L559.215,200.4Z" transform="translate(-557.42 -200.396)" fill="#4a85e6"/>
                <path id="Path_3008" data-name="Path 3008" d="M559.685,241.1l-2.174-10.829-3.614-3.036" transform="translate(-553.898 -218.173)" fill="none" stroke="#000" stroke-linecap="round" stroke-linejoin="round" stroke-width="0.336"/>
              </g>
              <g id="Group_283" data-name="Group 283" transform="translate(7.323 37.549)">
                <g id="Group_281" data-name="Group 281" transform="translate(0 23.627)">
                  <path id="Path_3009" data-name="Path 3009" d="M611.28,383.6l2.577,11.555-5.168.162-3.53-13.73Z" transform="translate(-595.175 -381.586)" fill="#b07361"/>
                  <g id="Group_280" data-name="Group 280" transform="translate(0 11.417)">
                    <g id="Group_279" data-name="Group 279">
                      <g id="Group_278" data-name="Group 278">
                        <path id="Path_3010" data-name="Path 3010" d="M594.063,416.449s-3.769,2.224-5.557-1.049l-12.92,6.821L596,422.1Z" transform="translate(-575.587 -415.4)" fill="#101010"/>
                        <g id="Group_277" data-name="Group 277" clip-path="url(#clip-path-2)">
                          <path id="Path_3011" data-name="Path 3011" d="M574.518,423.324s5.039.754,4.651,7.02l-8.721-2.39Z" transform="translate(-572.183 -420.649)" fill="#fff"/>
                        </g>
                      </g>
                      <rect id="Rectangle_178" data-name="Rectangle 178" width="20.414" height="1.785" transform="translate(0.001 6.821) rotate(-0.351)" fill="#fff"/>
                      <path id="Path_3013" data-name="Path 3013" d="M606.1,420.644a.343.343,0,0,1-.141-.107,7.076,7.076,0,0,0-1.6-1.558.316.316,0,0,1-.095-.452.357.357,0,0,1,.474-.091,7.594,7.594,0,0,1,1.773,1.717.316.316,0,0,1-.076.456A.358.358,0,0,1,606.1,420.644Z" transform="translate(-594.543 -417.376)" fill="#fff"/>
                      <path id="Path_3014" data-name="Path 3014" d="M601.156,423.114a.338.338,0,0,1-.142-.108,7.066,7.066,0,0,0-1.6-1.558.316.316,0,0,1-.095-.452.356.356,0,0,1,.474-.091,7.6,7.6,0,0,1,1.773,1.717.316.316,0,0,1-.076.456A.358.358,0,0,1,601.156,423.114Z" transform="translate(-591.27 -419.012)" fill="#fff"/>
                      <path id="Path_3015" data-name="Path 3015" d="M596.216,425.586a.343.343,0,0,1-.142-.108,7.07,7.07,0,0,0-1.6-1.557.316.316,0,0,1-.094-.452.355.355,0,0,1,.474-.091,7.587,7.587,0,0,1,1.773,1.717.316.316,0,0,1-.076.455A.358.358,0,0,1,596.216,425.586Z" transform="translate(-587.998 -420.649)" fill="#fff"/>
                    </g>
                  </g>
                </g>
                <g id="Group_282" data-name="Group 282" transform="translate(2.027)">
                  <path id="Path_3016" data-name="Path 3016" d="M581.592,313.013l8.208,30.854h8.68l-7.322-32.259Z" transform="translate(-581.592 -311.608)" fill="#4a85e6"/>
                  <line id="Line_4" data-name="Line 4" x2="8.808" transform="translate(7.335 28.98)" fill="none" stroke="#000" stroke-linecap="round" stroke-linejoin="round" stroke-width="0.336"/>
                </g>
              </g>
            </g>
          </g>
          <g id="Group_293" data-name="Group 293" transform="translate(0.979 21.02)">
            <g id="Group_286" data-name="Group 286" transform="translate(6.544)">
              <path id="Path_3017" data-name="Path 3017" d="M547.6,140.384l-4.133,1.3,1.14,9.387s-1.512,5.927,1.75,9.311h13a9.076,9.076,0,0,0,2-4.081l4.454-13.425c.286-1.162-1.637-2.319-2.819-2.5l-2.446-.384Z" transform="translate(-543.468 -138.81)" fill="#fff"/>
              <path id="Path_3018" data-name="Path 3018" d="M544.7,155.136l.725,5.97s-1.39,6.668,1.8,9.332" transform="translate(-544.282 -148.842)" fill="none" stroke="#000" stroke-linecap="round" stroke-linejoin="round" stroke-width="0.336"/>
              <path id="Path_3019" data-name="Path 3019" d="M557.983,136.495l-6.768,2.03s2.277,1.788,6.843,1.788a15.115,15.115,0,0,0,8.081-2.568Z" transform="translate(-548.599 -136.495)" fill="#b07361"/>
            </g>
            <g id="Group_292" data-name="Group 292" transform="translate(0 1.575)">
              <g id="Group_287" data-name="Group 287" transform="translate(21.496)">
                <path id="Path_3020" data-name="Path 3020" d="M587.858,146.106l4.268,15.566a3.754,3.754,0,0,0,3.7,2.905h0a3.754,3.754,0,0,0,3.658-4.4L595.76,144.5a4.033,4.033,0,0,0-5.569-3.009h0A4.033,4.033,0,0,0,587.858,146.106Z" transform="translate(-587.753 -141.159)" fill="#fff"/>
                <line id="Line_5" data-name="Line 5" x1="2.038" y1="7.449" transform="translate(0.885 7.793)" fill="none" stroke="#000" stroke-linecap="round" stroke-linejoin="round" stroke-width="0.336"/>
                <path id="Path_3021" data-name="Path 3021" d="M590.925,170.193l-.55,5.228,2.038.212Z" transform="translate(-589.49 -160.39)"/>
              </g>
              <g id="Group_291" data-name="Group 291" transform="translate(0 5.015)">
                <g id="Group_289" data-name="Group 289">
                  <path id="Path_3022" data-name="Path 3022" d="M529.189,156.012h-4.812a.291.291,0,0,0-.272.394l3.777,9.972a.291.291,0,0,0,.272.188h4.8a.291.291,0,0,0,.272-.394l-3.766-9.972A.291.291,0,0,0,529.189,156.012Z" transform="translate(-524.086 -156.012)"/>
                  <g id="Group_288" data-name="Group 288" transform="translate(3.277 6.132)">
                    <path id="Path_3023" data-name="Path 3023" d="M538.134,174.174l1.358.9a4.512,4.512,0,0,1,1.417,1.5l.953,1.648-1.416,2.534s-5.549.87-6.588-2.953a2.163,2.163,0,0,1,.3-1.718h0a2.229,2.229,0,0,1,2.586-.91l2.012.676Z" transform="translate(-533.79 -174.174)" fill="#b07361"/>
                    <path id="Path_3024" data-name="Path 3024" d="M553.5,188.231l4.68.871,1.518-3.037-5.494-.609Z" transform="translate(-546.847 -181.648)" fill="#b07361"/>
                  </g>
                </g>
                <g id="Group_290" data-name="Group 290" transform="translate(12.702 8.759)">
                  <path id="Path_3025" data-name="Path 3025" d="M577.852,191.518l-15.964-3.333v-6.224l15.649,2.012Z" transform="translate(-561.827 -181.959)" fill="#fff"/>
                  <path id="Path_3026" data-name="Path 3026" d="M561.71,183.324v-1.37l15.07,1.989" transform="translate(-561.709 -181.954)" fill="none" stroke="#000" stroke-linecap="round" stroke-linejoin="round" stroke-width="0.336"/>
                  <line id="Line_6" data-name="Line 6" x2="0.031" y2="1.622" transform="translate(0 4.541)" fill="none" stroke="#000" stroke-linecap="round" stroke-linejoin="round" stroke-width="0.336"/>
                </g>
              </g>
            </g>
          </g>
        </g>
        <g id="Group_298" data-name="Group 298" transform="translate(0 0)">
          <g id="Group_296" data-name="Group 296">
            <g id="Group_295" data-name="Group 295">
              <ellipse id="Ellipse_15" data-name="Ellipse 15" cx="11.437" cy="11.437" rx="11.437" ry="11.437" transform="matrix(0.616, -0.788, 0.788, 0.616, 0, 18.016)" fill="#fff"/>
              <path id="Path_3027" data-name="Path 3027" d="M491.086,111.677l2.341,6.271-6.451-2.411Z" transform="translate(-466.568 -91.828)" fill="#fff"/>
            </g>
          </g>
          <g id="Group_297" data-name="Group 297" transform="translate(8.765 12.639)">
            <path id="Path_3028" data-name="Path 3028" d="M452.491,93.526v2.333a.291.291,0,0,0,.291.292h2.333a.292.292,0,0,0,.291-.292V93.526a.292.292,0,0,1,.292-.292h2.334a.292.292,0,0,1,.292.291l.009,2.335a.292.292,0,0,0,.292.291h2.323a.292.292,0,0,0,.292-.292V93.526a.292.292,0,0,1,.292-.292h2.333a.291.291,0,0,1,.291.292h0v2.333a.292.292,0,0,0,.292.292h2.333a.292.292,0,0,0,.292-.292V93.544a.292.292,0,0,0-.29-.292l-2.337-.015a.292.292,0,0,1-.29-.292V90.611a.291.291,0,0,0-.291-.292H461.53a.292.292,0,0,0-.292.292v2.333a.291.291,0,0,1-.292.291h-2.331a.292.292,0,0,1-.292-.291h0l.009-2.33a.291.291,0,0,0-.29-.293H455.7a.292.292,0,0,0-.292.292v2.333a.291.291,0,0,1-.291.291h-2.333A.291.291,0,0,0,452.491,93.526Z" transform="translate(-452.491 -90.319)" fill-rule="evenodd"/>
          </g>
        </g>
      </g>
      <path id="Path_3073" data-name="Path 3073" d="M-50,0H226.992" transform="translate(0 131.002)" fill="none" stroke="#000" stroke-linecap="round" stroke-width="0.97"/>
    </g>
    <g id="Group_317" data-name="Group 317" transform="translate(57.986 49.874)">
      <g id="Group_316" data-name="Group 316" transform="translate(-43.895 47.321)">
        <g id="Group_312" data-name="Group 312" transform="translate(0.995 0.994)">
          <rect id="Rectangle_179" data-name="Rectangle 179" width="169.964" height="27.356" transform="translate(17.243 39.792)" fill="#5b5b5b"/>
          <path id="Path_3049" data-name="Path 3049" d="M139.623,379a15.6,15.6,0,1,1-15.6,15.6A15.6,15.6,0,0,1,139.623,379Zm0,25.45a9.847,9.847,0,1,0-9.847-9.847A9.847,9.847,0,0,0,139.623,404.45Z" transform="translate(27.213 -335.975)" fill="#1d1e24"/>
          <ellipse id="Ellipse_19" data-name="Ellipse 19" cx="9.847" cy="9.847" rx="9.847" ry="9.847" transform="translate(159.516 70.475) rotate(-103.283)" fill="#fff"/>
          <path id="Path_3050" data-name="Path 3050" d="M102.445,362.025c8.652,0,10.484-5.67,10.484-8.041a2.39,2.39,0,0,0-1.879-2.629H104.8c.093-.378.186-.724.272-1.036,1.208-4.422,7.237-5.949,15.364-7.8s27.1-12.47,43.265-14.475c7.231-.9,14.959-2.138,22.993-2.643a94.76,94.76,0,0,1,15.324.179,67.894,67.894,0,0,1,15.557,3.346c19.142,6.593,25.815,14.953,27.907,17.21,0,0,13.187,1.282,25.092,2.815,11.686,1.5,21.433,2.3,25.052,8.725h-7.709s-1.74.093-1.74,1.613.77,7.1,12.264,7.1a30.079,30.079,0,0,1,.173,7.948H286.174a18.256,18.256,0,0,0-36.253,0H154.707a18.256,18.256,0,0,0-36.253,0h-17.23a2.349,2.349,0,0,1-.013-.305A71.469,71.469,0,0,1,102.445,362.025Zm91.907-14.182,48.218.033c-2.443-2.709-8.937-9.9-26.081-15.8a68.619,68.619,0,0,0-22.137-3.566c-.259-.007-.525-.007-.783-.007a140.33,140.33,0,0,0-23.7,2.085c-11.381,1.945-18.518,7.6-28.8,17.217Z" transform="translate(-101.21 -317.89)" fill="#ffcc4d"/>
          <path id="Path_3051" data-name="Path 3051" d="M101.49,409.92h5.836c3.937,0,6.029-1.587,7.715-6.653a19.97,19.97,0,0,0,.863-4.037H103.469a18.157,18.157,0,0,1-1.979,10.69Z" transform="translate(81.495 -342.772)" fill="#a8a8a8"/>
          <path id="Path_3052" data-name="Path 3052" d="M271.011,409.92a18.158,18.158,0,0,1-1.979-10.69H173.819a18.156,18.156,0,0,1-1.979,10.69Z" transform="translate(-120.322 -342.772)" fill="#a8a8a8"/>
          <path id="Path_3053" data-name="Path 3053" d="M185.89,349.482l53.284.04,48.218.033c-2.443-2.709-8.937-9.9-26.081-15.8a68.619,68.619,0,0,0-22.137-3.566c-.259-.007-.525-.007-.783-.007a140.317,140.317,0,0,0-23.7,2.085C203.313,334.21,196.175,339.867,185.89,349.482Z" transform="translate(-146.032 -319.57)" fill="#ffcc4d"/>
          <path id="Path_3054" data-name="Path 3054" d="M381.14,375.27c8.652,0,10.484-5.67,10.484-8.041a2.391,2.391,0,0,0-1.879-2.629H383.49C382.82,367.143,381.884,371.027,381.14,375.27Z" transform="translate(-379.905 -331.136)" fill="#ffcc4d"/>
          <path id="Path_3055" data-name="Path 3055" d="M369.84,399.23c.451,8.2,19.209,10.69,19.209,10.69a18.16,18.16,0,0,1-1.979-10.69Z" transform="translate(-369.827 -342.772)" fill="#a8a8a8"/>
          <path id="Path_3056" data-name="Path 3056" d="M185.89,349.482l18.306.013,3.924.007h6.387l3.559.007h.206l13.24.007,5.79.007h1.872l9.833.007,9.276.007h2.2l13.133.013,13.771.007c-2.443-2.709-8.937-9.9-26.081-15.8q-1.494-.518-3.028-.956c-.644-.186-1.288-.359-1.939-.525a65.478,65.478,0,0,0-7.337-1.408,73.659,73.659,0,0,0-7.828-.637c-.664-.02-1.328-.033-2.005-.04-.259-.007-.525-.007-.783-.007-2.311,0-4.608.066-6.879.186-4.137.219-8.2.624-12.184,1.182-.418.053-.843.12-1.261.179-1.129.166-2.258.345-3.373.538-.06.013-.126.02-.186.033a39.742,39.742,0,0,0-6.387,1.653,37.294,37.294,0,0,0-3.824,1.58c-1.109.538-2.191,1.122-3.267,1.766a52.759,52.759,0,0,0-5.358,3.672C192.583,343.347,189.422,346.175,185.89,349.482Z" transform="translate(-146.032 -319.57)" fill="#8cdbf2"/>
          <g id="Group_311" data-name="Group 311" transform="translate(49.639 11.978)">
            <path id="Path_3057" data-name="Path 3057" d="M261.33,336.224,275.307,350.2l13.24.007,5.79.007L276.362,332.24c-.418.053-.843.12-1.262.179-1.129.166-2.258.345-3.373.538-.06.013-.126.02-.186.033a39.749,39.749,0,0,0-6.387,1.653A37.284,37.284,0,0,0,261.33,336.224Z" transform="translate(-252.705 -332.24)" fill="#fff"/>
            <path id="Path_3058" data-name="Path 3058" d="M297.58,344.572l8.525,8.525,3.924.007h5.113l-12.2-12.2A52.78,52.78,0,0,0,297.58,344.572Z" transform="translate(-297.58 -335.15)" fill="#fff"/>
          </g>
          <path id="Path_3059" data-name="Path 3059" d="M206.63,330.25l19.308,19.308,13.133.013L221.8,332.3a65.467,65.467,0,0,0-7.337-1.408A73.656,73.656,0,0,0,206.63,330.25Z" transform="translate(-111.483 -319.593)" fill="#fff"/>
          <line id="Line_8" data-name="Line 8" x2="12.43" transform="translate(184.966 56.458)" fill="#ffcc4d"/>
          <path id="Path_3060" data-name="Path 3060" d="M101.75,375.743c0,1.521.77,7.1,12.264,7.1v-.007a27.656,27.656,0,0,0-2.616-8.353,3.67,3.67,0,0,0-.2-.352v-.007H103.49S101.75,374.223,101.75,375.743Z" transform="translate(83.213 -334.338)" fill="#fff"/>
          <path id="Path_3061" data-name="Path 3061" d="M381.14,375.27c8.652,0,10.484-5.67,10.484-8.041a2.391,2.391,0,0,0-1.879-2.629H383.49Z" transform="translate(-379.905 -331.136)" fill="#ff652b"/>
          <path id="Path_3062" data-name="Path 3062" d="M246.97,316.418v5.3a94.743,94.743,0,0,1,15.325.179s-1.082-7.7-6.016-7.7h-7.091A2.242,2.242,0,0,0,246.97,316.418Z" transform="translate(-161.49 -314.2)" fill="#fff"/>
          <line id="Line_9" data-name="Line 9" y2="7.288" transform="translate(89.815 0.002)" fill="#ffcc4d"/>
          <line id="Line_10" data-name="Line 10" y2="19.368" transform="translate(93.142 10.617)" fill="#ffcc4d"/>
          <path id="Path_3063" data-name="Path 3063" d="M337.623,379a15.6,15.6,0,1,1-15.6,15.6A15.6,15.6,0,0,1,337.623,379Zm0,25.45a9.847,9.847,0,1,0-9.847-9.847A9.847,9.847,0,0,0,337.623,404.45Z" transform="translate(-302.253 -335.975)" fill="#1d1e24"/>
          <ellipse id="Ellipse_20" data-name="Ellipse 20" cx="9.847" cy="9.847" rx="9.847" ry="9.847" transform="translate(28.049 70.475) rotate(-103.283)" fill="#fff"/>
        </g>
        <g id="Group_313" data-name="Group 313" transform="translate(0 0)">
          <path id="Path_3064" data-name="Path 3064" d="M139.115,377.5a16.6,16.6,0,1,1-16.6,16.6A16.618,16.618,0,0,1,139.115,377.5Zm0,31.207A14.607,14.607,0,1,0,124.508,394.1,14.624,14.624,0,0,0,139.115,408.707Z" transform="translate(28.719 -334.476)"/>
          <path id="Path_3065" data-name="Path 3065" d="M142.028,386.169a10.843,10.843,0,1,1-10.843,10.843A10.856,10.856,0,0,1,142.028,386.169Zm0,19.695a8.851,8.851,0,1,0-8.851-8.851A8.862,8.862,0,0,0,142.028,405.864Z" transform="translate(25.806 -337.389)"/>
          <path id="Path_3066" data-name="Path 3066" d="M214.029,330.779a142.2,142.2,0,0,1,23.865-2.1c.242,0,.475.011.716.013.023,0,.044-.007.067-.007a.914.914,0,0,1,.1.01A69.825,69.825,0,0,1,261.14,332.3c17.382,5.988,24,13.319,26.491,16.079a1,1,0,0,1-.739,1.663h0l-47.967-.035a.9.9,0,0,1-.5,0l-53.039-.039a1,1,0,0,1-.679-1.724C194.568,339.038,201.934,332.847,214.029,330.779Zm46.463,3.408a67.3,67.3,0,0,0-20.82-3.483V348.02l44.924.033C281.345,344.749,274.576,339.04,260.491,334.187ZM237.68,348.019V330.675a140.4,140.4,0,0,0-23.315,2.068c-10.006,1.711-16.527,6.148-26.437,15.24Z" transform="translate(-144.538 -318.072)"/>
          <path id="Path_3067" data-name="Path 3067" d="M99.716,370.125c0-.092-.018-.181-.018-.274a73.138,73.138,0,0,1,1.247-12.171c0-.025.007-.05.013-.075.928-5.252,2.115-9.834,2.635-11.739,1.408-5.163,8.216-6.714,16.1-8.509,2.866-.652,7.251-2.481,12.327-4.6,9.181-3.829,20.606-8.6,31.035-9.893,1.878-.234,3.788-.49,5.727-.75,5.323-.714,10.774-1.437,16.393-1.827v-4.371a3.2,3.2,0,0,1,3.213-3.214h7.1c4.774,0,6.417,5.676,6.863,7.782a68.774,68.774,0,0,1,15.035,3.311c18.191,6.267,25.225,14.06,27.874,16.994l.183.2c2.254.223,14.081,1.412,24.74,2.781l2.295.291c10.561,1.328,19.705,2.5,23.4,8.8a.988.988,0,0,1,.163.272c.049.09.109.171.156.262,3.755,7.338,3.663,16.089,1.988,21.114-1.781,5.345-4.13,7.332-8.665,7.332h-5.831a1,1,0,0,1-.88-1.462,17.263,17.263,0,1,0-30.536,0,1,1,0,0,1-.88,1.462H152.2a1,1,0,0,1-.8-1.588,17.264,17.264,0,1,0-30.6.126,1,1,0,0,1-.88,1.462.957.957,0,0,1-.131-.009c-.807-.107-19.444-2.688-20.06-11.535a.992.992,0,0,1-.015-.142C99.713,370.145,99.715,370.135,99.716,370.125Zm5.332-21.965c-.531,2.074-1.269,5.163-1.918,8.629,6.513-.467,8.286-4.7,8.286-7,0-1.276-.707-1.568-.975-1.631Zm82.119-32.243v4.243q1.168-.063,2.346-.1v-5.363h-1.09A1.206,1.206,0,0,0,187.167,315.917Zm8.316-1.222H191.5v5.32c.517-.007,1.029-.023,1.548-.023,2.475,0,4.867.1,7.2.3C199.752,318.32,198.429,314.695,195.483,314.695Zm99.02,39.792-7.046,0c-.241.018-.8.114-.8.616,0,1.376.754,5.741,10.073,6.086A26.043,26.043,0,0,0,294.5,354.487Zm-4.992,25.362c3.174,0,5.093-.924,6.776-5.97a18.036,18.036,0,0,0,.653-2.728H286.749c.023.389.039.78.039,1.175a19.3,19.3,0,0,1-1.531,7.523Zm-39.7,0a19.285,19.285,0,0,1-1.531-7.523c0-.4.016-.786.039-1.175H155.281c.024.389.039.78.039,1.175a19.3,19.3,0,0,1-1.53,7.523ZM136.065,353.071a19.283,19.283,0,0,1,18.99,16.088h4.538c-10.323-11.6-12.16-20.427-12.236-20.814a1,1,0,0,1,1.955-.386c.019.093,1.985,9.392,12.974,21.2h32.108c3.431-12.957.507-22.778.477-22.878a1,1,0,0,1,1.9-.587c.131.422,3.064,10.192-.318,23.465h44.907a36.553,36.553,0,0,0,2.279-19.127,1,1,0,1,1,1.965-.329,38.29,38.29,0,0,1-2.115,19.456h5.05a19.252,19.252,0,0,1,37.981,0h10.659a29.521,29.521,0,0,0-.136-5.97c-11.467-.29-12.383-6.234-12.383-8.088a2.7,2.7,0,0,1,2.732-2.606h5.785c-3.72-4.278-11.448-5.259-20.955-6.454l-2.3-.291c-11.75-1.509-24.928-2.8-25.06-2.812a1,1,0,0,1-.633-.313c-.133-.143-.284-.31-.455-.5-2.554-2.83-9.339-10.345-27.044-16.446a71.649,71.649,0,0,0-23.679-3.7,178.643,178.643,0,0,0-24.006,2.1c-1.946.26-3.862.518-5.746.752-10.159,1.264-21.446,5.972-30.514,9.756-5.162,2.153-9.618,4.012-12.652,4.7-8,1.823-13.366,3.3-14.54,6.869h4.936a.988.988,0,0,1,.134.009,3.378,3.378,0,0,1,2.743,3.614c0,3.026-2.25,8.664-10.638,9.019a71.431,71.431,0,0,0-1.072,10.349h15.378A19.283,19.283,0,0,1,136.065,353.071Zm-17.841,26.5a19.31,19.31,0,0,1-1.414-7.241c0-.4.016-.786.039-1.175H101.9C103.389,375.9,112.816,378.585,118.224,379.567Z" transform="translate(-99.698 -312.703)"/>
          <path id="Path_3068" data-name="Path 3068" d="M238.628,365.529a1,1,0,0,1,1,1V368h5.071a1,1,0,1,1,0,1.992h-6.067a1,1,0,0,1-1-1v-2.471A1,1,0,0,1,238.628,365.529Z" transform="translate(-137.691 -330.454)"/>
          <path id="Path_3069" data-name="Path 3069" d="M309.24,363.95a1,1,0,0,1,1,1v1.288h5a1,1,0,0,1,0,1.992H309.24a1,1,0,0,1-1-1v-2.284A1,1,0,0,1,309.24,363.95Z" transform="translate(-255.112 -329.923)"/>
          <path id="Path_3070" data-name="Path 3070" d="M337.116,377.5a16.6,16.6,0,1,1-16.6,16.6A16.618,16.618,0,0,1,337.116,377.5Zm0,31.207A14.607,14.607,0,1,0,322.509,394.1,14.624,14.624,0,0,0,337.116,408.707Z" transform="translate(-300.749 -334.476)"/>
          <path id="Path_3071" data-name="Path 3071" d="M340.029,386.169a10.843,10.843,0,1,1-10.843,10.843A10.856,10.856,0,0,1,340.029,386.169Zm0,19.695a8.851,8.851,0,1,0-8.851-8.851A8.861,8.861,0,0,0,340.029,405.864Z" transform="translate(-303.662 -337.389)"/>
        </g>
        <g id="Group_315" data-name="Group 315" transform="translate(126.297 22.089)">
          <g id="Group_314" data-name="Group 314" transform="translate(0.996 0.995)">
            <rect id="Rectangle_180" data-name="Rectangle 180" width="12.189" height="10.201" rx="5.1" fill="#a8a8a8"/>
            <line id="Line_11" data-name="Line 11" y2="10.201" transform="translate(7.11)" fill="#ffcc4d"/>
          </g>
          <path id="Path_3072" data-name="Path 3072" d="M193.7,345.971h4.221a4.985,4.985,0,0,1,4.98,4.98v2.232a4.985,4.985,0,0,1-4.98,4.98H193.7a4.985,4.985,0,0,1-4.98-4.98v-2.232A4.985,4.985,0,0,1,193.7,345.971Zm7.209,7.212v-2.232a2.991,2.991,0,0,0-2.988-2.988h-.1v8.208h.1A2.991,2.991,0,0,0,200.906,353.183Zm-10.2,0a2.991,2.991,0,0,0,2.988,2.988h2.131v-8.208H193.7a2.991,2.991,0,0,0-2.988,2.988Z" transform="translate(-188.717 -345.971)"/>
        </g>
      </g>
    </g>
  </g>
</svg>
