<svg xmlns="http://www.w3.org/2000/svg" width="24" height="24" viewBox="0 0 24 24">
  <g id="book_later" transform="translate(-34 -197)">
    <rect id="Rectangle_445" data-name="Rectangle 445" width="24" height="24" transform="translate(34 197)" fill="none"/>
    <path id="Icon_ionic-md-calendar" data-name="Icon ionic-md-calendar" d="M17.958,13.708h-4.25v4.25h4.25ZM16.541,4.5V5.917H9.458V4.5H7.333V5.917H6.27A1.776,1.776,0,0,0,4.5,7.687V19.728A1.776,1.776,0,0,0,6.27,21.5H19.729A1.776,1.776,0,0,0,21.5,19.728V7.687a1.776,1.776,0,0,0-1.771-1.771H18.666V4.5Zm3.187,15.228H6.27V10.343H19.729Z" transform="translate(33 196)" fill="none" stroke="#000" stroke-width="1"/>
  </g>
</svg>
