<svg xmlns="http://www.w3.org/2000/svg" xmlns:xlink="http://www.w3.org/1999/xlink" width="232.449" height="168.926" viewBox="0 0 232.449 168.926">
  <defs>
    <linearGradient id="linear-gradient" x1="0.5" y1="1" x2="0.5" gradientUnits="objectBoundingBox">
      <stop offset="0" stop-color="gray" stop-opacity="0.251"/>
      <stop offset="0.54" stop-color="gray" stop-opacity="0.122"/>
      <stop offset="1" stop-color="gray" stop-opacity="0.102"/>
    </linearGradient>
    <linearGradient id="linear-gradient-2" x1="0.5" y1="1" x2="0.5" xlink:href="#linear-gradient"/>
  </defs>
  <g id="new_credentials_screen_vector" transform="translate(0.033 -0.003)">
    <path id="Path_3100" data-name="Path 3100" d="M313.747,151.706c-5.382,11.1-16.311,18.528-27.637,23.424a105.063,105.063,0,0,1-48.6,8.1q-4.353-.29-8.68-.926a109.48,109.48,0,0,1-29.023-8.451q-4-1.8-7.836-3.932a100.241,100.241,0,0,1-12.248-8.01q-1.465-1.118-2.889-2.293c-.658-.543-1.311-1.1-1.973-1.637a24.9,24.9,0,0,0-4.44-3.024,15.853,15.853,0,0,0-1.487-.656c-5.081-1.933-10.939-1.2-16.228.3-4.023,1.147-7.945,2.717-11.964,3.837a39.7,39.7,0,0,1-5.451,1.159,29.011,29.011,0,0,1-12.248-1.076l-.338-.105q-.851-.267-1.687-.585l-.338-.13q-.81-.312-1.586-.671l-.338-.154q-.81-.377-1.586-.8c-.186-.1-.371-.2-.553-.3a33.156,33.156,0,0,1-7.933-6.177c-.067-.067-.13-.136-.2-.2-.322-.348-.638-.7-.944-1.066-.113-.134-.227-.267-.338-.405q-.545-.664-1.051-1.359c-.051-.067-.1-.136-.148-.2a29.29,29.29,0,0,1-3.415-6.176c-.028-.067-.055-.136-.079-.2q-.405-1.043-.739-2.121c-.091-.3-.178-.608-.255-.908-.026-.089-.051-.18-.073-.269a54.8,54.8,0,0,1-1.246-13.528v-1.59a154.685,154.685,0,0,1,1.232-22.1.922.922,0,0,1,.022-.15,69.028,69.028,0,0,1,1.481-7.256,53.53,53.53,0,0,1,2.494-7.354,68.315,68.315,0,0,1,10.163-16.176C125.741,56.07,139.064,45.6,154.658,41.685A57.506,57.506,0,0,1,203.692,52.3c4.133,3.29,7.846,7.185,12.487,9.707,4.052,2.2,8.794,3.105,13.133,1.378,3.586-1.428,5.919-2.137,9.946-1.92a83.372,83.372,0,0,1,24.382,5.107c.316.115.632.235.946.355,20.4,7.805,37.938,23.312,47.054,43.24q.363.79.7,1.592C317.778,124.454,319.743,139.333,313.747,151.706Z" transform="translate(-85.007 -40.04)" fill="#6c63ff" opacity="0.1"/>
    <ellipse id="Ellipse_25" data-name="Ellipse 25" cx="23.305" cy="3.743" rx="23.305" ry="3.743" transform="translate(8.777 161.443)" fill="#6c63ff" opacity="0.1"/>
    <ellipse id="Ellipse_26" data-name="Ellipse 26" cx="31.709" cy="3.079" rx="31.709" ry="3.079" transform="translate(153.443 159.938)" fill="#6c63ff" opacity="0.1"/>
    <rect id="Rectangle_189" data-name="Rectangle 189" width="192.513" height="109.052" rx="12.49" transform="translate(23.878 21.83)" fill="url(#linear-gradient)"/>
    <rect id="Rectangle_190" data-name="Rectangle 190" width="191.924" height="107.156" rx="12.49" transform="translate(24.184 23.363)" fill="#fff"/>
    <rect id="Rectangle_191" data-name="Rectangle 191" width="191.924" height="107.156" rx="12.49" transform="translate(24.184 23.363)" fill="#fff"/>
    <rect id="Rectangle_192" data-name="Rectangle 192" width="191.924" height="107.156" rx="12.49" transform="translate(24.184 23.363)" fill="#fff" opacity="0.04"/>
    <path id="Path_3101" data-name="Path 3101" d="M335.57,149.29H145.594a.974.974,0,0,0-.974.974v4.118H336.536v-4.118A.974.974,0,0,0,335.57,149.29Z" transform="translate(-120.436 -127.156)" fill="#5a5773"/>
    <g id="buttons" transform="translate(26.7 23.363)">
      <circle id="Ellipse_27" data-name="Ellipse 27" cx="1.317" cy="1.317" r="1.317" fill="#fff"/>
      <circle id="Ellipse_28" data-name="Ellipse 28" cx="1.317" cy="1.317" r="1.317" transform="translate(3.545)" fill="#fff"/>
      <circle id="Ellipse_29" data-name="Ellipse 29" cx="1.317" cy="1.317" r="1.317" transform="translate(7.09)" fill="#fff"/>
    </g>
    <rect id="Rectangle_193" data-name="Rectangle 193" width="51.505" height="4.372" transform="translate(39.991 36.804)" fill="#f2822f" opacity="0.2"/>
    <rect id="Rectangle_194" data-name="Rectangle 194" width="160.31" height="67.247" transform="translate(39.991 54.333)" fill="#5a5773" opacity="0.1"/>
    <path id="Path_3102" data-name="Path 3102" d="M560.127,265.169h-2.745v-5.332a10.963,10.963,0,1,0-21.925-.148v5.48h-2.739a4.582,4.582,0,0,0-4.568,4.568v21.923a4.582,4.582,0,0,0,4.568,4.568h27.408a4.58,4.58,0,0,0,4.566-4.568V269.737a4.58,4.58,0,0,0-4.566-4.568Zm-12.1,14.251v7.852a1.639,1.639,0,0,1-1.519,1.645,1.6,1.6,0,0,1-1.677-1.6v-7.9a3.646,3.646,0,1,1,3.2,0Zm6.166-14.251H538.654v-5.48a7.765,7.765,0,1,1,15.529,0Z" transform="translate(-426.272 -206.45)" opacity="0.1"/>
    <path id="Path_3103" data-name="Path 3103" d="M560.127,263.169h-2.745v-5.332a10.963,10.963,0,1,0-21.925-.148v5.48h-2.739a4.582,4.582,0,0,0-4.568,4.568v21.923a4.582,4.582,0,0,0,4.568,4.568h27.408a4.58,4.58,0,0,0,4.566-4.568V267.737a4.58,4.58,0,0,0-4.566-4.568Zm-12.1,14.251v7.852a1.639,1.639,0,0,1-1.519,1.645,1.6,1.6,0,0,1-1.677-1.6v-7.9a3.646,3.646,0,1,1,3.2,0Zm6.166-14.251H538.654v-5.48a7.765,7.765,0,0,1,15.529,0Z" transform="translate(-426.272 -204.855)" fill="#f2822f"/>
    <rect id="Rectangle_195" data-name="Rectangle 195" width="16.226" height="3.831" transform="translate(184.075 47.861)" fill="#5a5773" opacity="0.1"/>
    <path id="Path_3104" data-name="Path 3104" d="M886.621,402.732a5.763,5.763,0,0,0-.543-1.542l-2.431-3.63h.014a6.122,6.122,0,0,1,0-2.719c.383-.9-1.365-3.1-1.365-3.1a1.306,1.306,0,0,1,.342-1.234c.555-.681-.342-2.674-.342-2.674s-.425-4.163-.468-4.8-.385-4.161-.385-4.161l-.81-7.473L879.191,351.6l-.026-.371c.178-.087.273-.142.273-.142l-.288-10.951.249-.225c2.176-1.969,7.193-6.527,7.143-6.626s-.608-7.611-.673-9.491a11.31,11.31,0,0,0-.863-3.885c-.125-.249-.488-1.892-.638-2.587-.041-.19-.067-.31-.067-.31s-1.471-2.8-1.343-4.078.383-2.228-2.753-2.674a12.152,12.152,0,0,1-4.2-1.465,11.95,11.95,0,0,0-3.01-1.507s-.879-1.621-1.491-1.072a8.5,8.5,0,0,1-.577-1.8l-.018-.113a5.97,5.97,0,0,0,2.358-3.375c.02-.077.036-.156.055-.233a.66.66,0,0,0,.188.034c.533,0,.861-.594,1.359-.782.2-.079.452-.091.608-.251a.594.594,0,0,0,.134-.448.921.921,0,0,0,0-.166c0-.02,0-.039,0-.059v.02c-.136-.737-.707-1.392-.644-2.141.061-.7.681-1.325.63-2.012a1.109,1.109,0,0,0-.014-.162v.024a1.732,1.732,0,0,0-.405-.717,2.3,2.3,0,0,0-.835-.7c-.281-.124-.608-.152-.871-.3-.774-.421-.772-1.519-1.232-2.269a2.008,2.008,0,0,0-1.878-.93c-.575.057-1.1.363-1.665.462a4.354,4.354,0,0,1-2.307-.405,6.352,6.352,0,0,0-2.277-.608,1.934,1.934,0,0,0-1.888,1.153c-.128.405-.065.841-.162,1.252a2.726,2.726,0,0,1-1.469,1.6c-.405.225-.887.482-1.013.908v-.032a.623.623,0,0,0-.02.239,2.555,2.555,0,0,0,.257.847,2.336,2.336,0,0,1-.012,1.633c-.15.385-.405.723-.551,1.106a2.178,2.178,0,0,0-.134.555v-.032a2.241,2.241,0,0,0,0,.259,1.823,1.823,0,0,0,.2.851,1.527,1.527,0,0,0,.91.764c.405.093.658-.3,1.086-.2a1.7,1.7,0,0,1,.225.071c.014.091.028.182.045.271A5.953,5.953,0,0,0,863.641,304a1.3,1.3,0,0,0,.022.148h0a13.6,13.6,0,0,1,.168,2.443s-.638-.934-1.513.869a18.388,18.388,0,0,1-3.071,1.467c-.788.15-3.586,1.124-3.586,1.124a2.467,2.467,0,0,1-1.45.468c-.873,0-1.6,1.91-1.493,2.95s-.063,1.8-.875,1.847-.369,1.689-.363,1.718l-.075.355c-.158.725-.5,2.281-.624,2.524a11.341,11.341,0,0,0-.865,3.885c-.063,1.88-.608,9.363-.671,9.491-.042.083,3.4,3.225,5.812,5.421l.35.316L854.3,349.417a2.773,2.773,0,0,0,1.143,2.026c0,.122,0,.245-.012.373a12.986,12.986,0,0,1-.34,3.071c-.34.681-.255,4.331-.255,4.331s-.342,7.43-.768,8.239a5.622,5.622,0,0,0-.385,2.836c.128.332-.427,9.256-.427,9.256l-.425,3.993s.128,3.821-.257,3.906-.6,2.719-.6,2.719-1.363,1.868-.768,2.546-.087.978-.15,1.147-1.3.81-.405,3.184a.7.7,0,0,0,.028.069c-.839,1.165-3.5,4.923-3.334,5.494a1.5,1.5,0,0,0,.709.851,4.145,4.145,0,0,0,3.407,0c2.836-.914,2.634-1.572,2.634-1.572a1.2,1.2,0,0,1,1.2-1.147,3.357,3.357,0,0,0,2.048-1.167l-.138-.513-.188-.709c.022-.2.166-.557.81-.754.982-.3.725-2.166.725-2.166s-.085-1.953.34-2.208.257-3.482.257-3.482a23.929,23.929,0,0,1,1.151-3.908c.681-1.572,1.495-10.911,1.495-10.911a43.061,43.061,0,0,1,1.066-5.9,33.42,33.42,0,0,0,.982-5.01s3.158-6.116,3.2-7.475c0,0,.405-1.274.81.128s1.544,4.757,1.544,4.757l1.108,4.118,1.323,6.156.855,5.182a8.055,8.055,0,0,0,.2,2.633c.332.681.81,2.249.555,2.546s.51,1.7.725,2,0,6.582,0,6.582.98,5.35,2.388,6.28a1.724,1.724,0,0,0,.312.162c-.02.579-.041,1.355-.014,1.76a.677.677,0,0,0,.045.265,7.4,7.4,0,0,0,1.878,1.317c.3,0,1.363.743,1.408,1.1s3.118,1.888,3.553,1.933,2.546.423,2.836-.17A.983.983,0,0,0,886.621,402.732Zm-7.55-76.517.219.188s.225,1.752.385,2.277a4.4,4.4,0,0,1-.032,1.546,3.555,3.555,0,0,0,.225,1.114c.19.383-.385,1.215-.385,1.215h-.513L878.81,326Zm-15.24-19.585v-.038a.128.128,0,0,0-.006.038Zm-7.87,25.251a.74.74,0,0,1-.032-.541,1.623,1.623,0,0,0,.107-.3,4.642,4.642,0,0,0,.118-.81.07.07,0,0,0,0-.01,4.284,4.284,0,0,1-.031-1.536c.152-.5.383-2.277.383-2.277l.146-.124.338-.294a2.407,2.407,0,0,1,.024-.29,22.553,22.553,0,0,1,.036,3.326,4.931,4.931,0,0,0-.64,1.888,7.747,7.747,0,0,1-.132,1.576A3.233,3.233,0,0,1,855.962,331.882Z" transform="translate(-680.798 -238.788)" fill="url(#linear-gradient-2)"/>
    <path id="Path_3105" data-name="Path 3105" d="M934.156,357.331v2.52l-5.17,2.6s-5.133-3.105-3.867-4.341c.81-.782.654-2.929.436-4.406h0c-.128-.859-.276-1.489-.276-1.489s9.221-2.633,7.828-.634a3.144,3.144,0,0,0-.346,2.39A10.857,10.857,0,0,0,934.156,357.331Z" transform="translate(-742.665 -287.869)" fill="#efb7b9"/>
    <path id="Path_3106" data-name="Path 3106" d="M866.3,441.916l-.667,8.208s-1-.906-2.291-2.085c-2.4-2.186-5.8-5.311-5.759-5.395.063-.128.608-7.574.666-9.446a11.3,11.3,0,0,1,.855-3.865,24.019,24.019,0,0,0,.608-2.514c.049-.225.079-.371.079-.371L860.9,426s4.659,5.2,4.659,5.293-.318,4.088-.318,4.088l-.33.288-.144.124s-.223,1.744-.381,2.267a4.07,4.07,0,0,0,.03,1.527h0a4.706,4.706,0,0,1-.115.81,1.7,1.7,0,0,1-.107.3.744.744,0,0,0,.032.539,3.259,3.259,0,0,0,.348.666Z" transform="translate(-688.967 -347.812)" fill="#212121"/>
    <path id="Path_3107" data-name="Path 3107" d="M1005.711,442.67c.049.1-4.921,4.635-7.074,6.594l-.976.885L997,441.94h1.712s.571-.824.381-1.205a3.526,3.526,0,0,1-.221-1.108,4.415,4.415,0,0,0,.03-1.538c-.158-.525-.381-2.267-.381-2.267l-.217-.186-.257-.225s-.318-3.993-.318-4.088,4.659-5.293,4.659-5.293l1.11.444s.024.12.065.31c.15.691.508,2.326.632,2.575a11.3,11.3,0,0,1,.855,3.865C1005.1,435.1,1005.646,442.542,1005.711,442.67Z" transform="translate(-800.145 -347.835)" fill="#212121"/>
    <path id="Path_3108" data-name="Path 3108" d="M1002.117,824.91c-.3.591-2.388.2-2.82.17s-3.478-1.566-3.521-1.924-1.1-1.1-1.394-1.1a7.408,7.408,0,0,1-1.86-1.311.645.645,0,0,1-.042-.263c-.045-.695.042-2.484.042-2.484l6.128.338,2.978,4.479a5.778,5.778,0,0,1,.539,1.534A1.013,1.013,0,0,1,1002.117,824.91Z" transform="translate(-796.53 -660.402)" fill="#3f3d56"/>
    <path id="Path_3109" data-name="Path 3109" d="M1002.117,824.91c-.3.591-2.388.2-2.82.17s-3.478-1.566-3.521-1.924-1.1-1.1-1.394-1.1a7.408,7.408,0,0,1-1.86-1.311.645.645,0,0,1-.042-.263c-.045-.695.042-2.484.042-2.484l6.128.338,2.978,4.479a5.778,5.778,0,0,1,.539,1.534A1.013,1.013,0,0,1,1002.117,824.91Z" transform="translate(-796.53 -660.402)" opacity="0.1"/>
    <path id="Path_3110" data-name="Path 3110" d="M1002.164,834.686c-.3.592-2.388.2-2.82.17s-3.478-1.566-3.521-1.924-1.1-1.1-1.394-1.1a7.409,7.409,0,0,1-1.86-1.311.646.646,0,0,1-.042-.263l1.985,1.256a8.379,8.379,0,0,1,1.606,1.29,11.5,11.5,0,0,0,3.225,1.5,15.18,15.18,0,0,1,2.87-.178A1.013,1.013,0,0,1,1002.164,834.686Z" transform="translate(-796.578 -670.178)" opacity="0.1"/>
    <path id="Path_3111" data-name="Path 3111" d="M858.158,822.082a3.316,3.316,0,0,1-2.026,1.161,1.193,1.193,0,0,0-1.183,1.141s.2.656-2.6,1.566a4.094,4.094,0,0,1-3.375,0,1.507,1.507,0,0,1-.7-.847c-.19-.675,3.549-5.81,3.549-5.81l3.4-.2,2.431,1.1.373,1.392Z" transform="translate(-681.54 -661.271)" fill="#3f3d56"/>
    <path id="Path_3112" data-name="Path 3112" d="M858.158,822.082a3.316,3.316,0,0,1-2.026,1.161,1.193,1.193,0,0,0-1.183,1.141s.2.656-2.6,1.566a4.094,4.094,0,0,1-3.375,0,1.507,1.507,0,0,1-.7-.847c-.19-.675,3.549-5.81,3.549-5.81l3.4-.2,2.431,1.1.373,1.392Z" transform="translate(-681.54 -661.271)" opacity="0.1"/>
    <path id="Path_3113" data-name="Path 3113" d="M860.953,831.85a3.315,3.315,0,0,1-2.026,1.161,1.193,1.193,0,0,0-1.183,1.141s.2.656-2.6,1.566a4.094,4.094,0,0,1-3.375,0,20.744,20.744,0,0,0,5.47-1.521c.423-.423.952-1.586,1.311-1.606a14.115,14.115,0,0,0,2.275-1.25Z" transform="translate(-684.335 -671.04)" fill="none"/>
    <path id="Path_3114" data-name="Path 3114" d="M860.953,831.85a3.315,3.315,0,0,1-2.026,1.161,1.193,1.193,0,0,0-1.183,1.141s.2.656-2.6,1.566a4.094,4.094,0,0,1-3.375,0,20.744,20.744,0,0,0,5.47-1.521c.423-.423.952-1.586,1.311-1.606a14.115,14.115,0,0,0,2.275-1.25Z" transform="translate(-684.335 -671.04)" opacity="0.1"/>
    <path id="Path_3115" data-name="Path 3115" d="M895.83,620.773a6.093,6.093,0,0,0,0,2.7s-5.672.3-7.058-.634-2.366-6.255-2.366-6.255.2-6.254,0-6.549-.972-1.69-.719-1.985-.2-1.86-.549-2.536a7.59,7.59,0,0,1-.2-2.619l-.847-5.158-1.309-6.126-1.112-4.1s-1.141-3.338-1.527-4.732-.8-.128-.8-.128c-.041,1.353-3.168,7.439-3.168,7.439a33.481,33.481,0,0,1-.972,4.985,43.272,43.272,0,0,0-1.057,5.875s-.81,9.3-1.479,10.86a23.957,23.957,0,0,0-1.128,3.887s.17,3.213-.253,3.466-.354,2.2-.354,2.2.253,1.858-.719,2.155-.81.93-.81.93-5.409.887-6.3-1.481.338-3,.405-3.168.741-.464.15-1.142.76-2.534.76-2.534.213-2.619.591-2.7.255-3.887.255-3.887l.421-3.972s.551-8.875.423-9.213a5.629,5.629,0,0,1,.381-2.836c.423-.81.76-8.2.76-8.2s-.085-3.632.253-4.309a12.555,12.555,0,0,0,.336-3.057c.036-.918.044-1.677.044-1.677l4.732-1.775,6.077-1.943L883.809,575l7.481,1.436.093,1.29,1.428,19.713.81,7.436s.338,3.507.381,4.141.464,4.777.464,4.777.887,1.985.338,2.662a1.283,1.283,0,0,0-.338,1.215S896.211,619.886,895.83,620.773Z" transform="translate(-693.118 -464.674)" fill="#212121"/>
    <path id="Path_3116" data-name="Path 3116" d="M934.547,351.581a3.145,3.145,0,0,0-.346,2.39A5.944,5.944,0,0,1,927,353.7h0c-.128-.859-.276-1.489-.276-1.489S935.941,349.584,934.547,351.581Z" transform="translate(-744.102 -287.871)" opacity="0.1"/>
    <path id="Path_3117" data-name="Path 3117" d="M929.271,318.405a5.907,5.907,0,1,1-1.73-4.205A5.935,5.935,0,0,1,929.271,318.405Z" transform="translate(-736.67 -257.28)" fill="#efb7b9"/>
    <path id="Path_3118" data-name="Path 3118" d="M897.652,350l-1.945,34.63-10.564-2.218-2.093-13.882,2.072-18.637,1.56.2,2.751.35,2.725.168,2.954-.328Z" transform="translate(-703.815 -279.009)" opacity="0.1"/>
    <path id="Path_3119" data-name="Path 3119" d="M897.652,351.255l-1.945,34.63-10.564-2.218-2.093-13.883,2.072-18.635,1.56.2,2.751.35,2.725.168,2.954-.328Z" transform="translate(-703.815 -280.013)" fill="#f2822f"/>
    <path id="Path_3120" data-name="Path 3120" d="M939.23,396.3l3.8.128-1.07,1.5s.075,3.024.583,3.891.359,14.261.359,14.261L941.894,418l-1.732-2.155.022-17.685Z" transform="translate(-754.078 -324.128)" fill="#3f3d56"/>
    <path id="Path_3121" data-name="Path 3121" d="M939.23,396.3l3.8.128-1.07,1.5s.075,3.024.583,3.891.359,14.261.359,14.261L941.894,418l-1.732-2.155.022-17.685Z" transform="translate(-754.078 -324.128)" opacity="0.1"/>
    <path id="Path_3122" data-name="Path 3122" d="M927.7,336.86l-3.549,3.93,2.028,2.113,3.361-3.276Z" transform="translate(-736.589 -268.618)" opacity="0.1"/>
    <path id="Path_3123" data-name="Path 3123" d="M927.7,335.61l-3.549,3.93,2.028,2.113,3.361-3.276Z" transform="translate(-736.589 -267.621)" fill="#f2822f"/>
    <path id="Path_3124" data-name="Path 3124" d="M901.272,341.182l-3.594-3.592-.338,1.88,1.649,4.12Z" transform="translate(-715.21 -269.2)" opacity="0.1"/>
    <path id="Path_3125" data-name="Path 3125" d="M901.9,339.932l-3.592-3.592-.338,1.88,1.649,4.12Z" transform="translate(-715.712 -268.203)" fill="#f2822f"/>
    <path id="Path_3126" data-name="Path 3126" d="M911.318,577.758a17.537,17.537,0,0,1-5.47,1.582c-3.486.444-5.767-3.993-5.767-3.993l-1.331,1.732c-.423,1.839-6.867,2.3-9.487,1.606a4.191,4.191,0,0,1-1.5-.711c.036-.918.045-1.677.045-1.677l4.732-1.775,6.077-1.943,5.113,2.451,7.481,1.436Z" transform="translate(-713.034 -464.698)" opacity="0.1"/>
    <path id="Path_3127" data-name="Path 3127" d="M924.606,391.3l-1.943,34.628L912.1,423.707l-2.1-13.88,2.07-18.637,1.56.2a18.919,18.919,0,0,1-.229,2.026c-.253,1.185,1.311,9.594,1.311,9.594s2.972,9.43,4.309,8.071,3.241-8.536,3.241-8.536c1.29-2.662.022-10.129-.073-10.279a3.026,3.026,0,0,1-.121-.679Z" transform="translate(-730.769 -320.053)" opacity="0.1"/>
    <path id="Path_3128" data-name="Path 3128" d="M998.546,508.506l.089,3.393-.976.885L997,504.57h1.459Z" transform="translate(-800.145 -410.465)" opacity="0.1"/>
    <path id="Path_3129" data-name="Path 3129" d="M890.766,493.1h0a4.7,4.7,0,0,1-.115.81c0-.075,0-.117-.016-.124C890.573,493.771,890.646,493.461,890.766,493.1Z" transform="translate(-715.309 -401.319)" opacity="0.1"/>
    <path id="Path_3130" data-name="Path 3130" d="M888.968,501.947l-.666,8.208s-1-.906-2.291-2.085l.154-1.455s.545-3.573.743-5.336a3.255,3.255,0,0,0,.349.667Z" transform="translate(-711.639 -407.842)" opacity="0.1"/>
    <path id="Path_3131" data-name="Path 3131" d="M880.3,375.125s-.632-.93-1.5.865a18.127,18.127,0,0,1-3.039,1.459c-.778.148-3.545,1.12-3.545,1.12a2.447,2.447,0,0,1-1.436.464c-.867,0-1.586,1.9-1.481,2.937s-.063,1.8-.865,1.839-.361,1.71-.361,1.71l5.346,6.128s.338,5.642.17,5.812a5,5,0,0,0-.634,1.88c.148.057-.81,6.3-.81,6.3l-1.288,12.108s0,2.026,2.621,2.725,9.069.237,9.485-1.6l1.331-1.734s2.281,4.438,5.767,3.995a16.766,16.766,0,0,0,5.707-1.712l-.381-14.51-.253-10.459,5.443-8.944s-1.459-2.789-1.331-4.052.379-2.218-2.727-2.662a11.925,11.925,0,0,1-4.163-1.459,11.9,11.9,0,0,0-2.978-1.5s-.871-1.621-1.477-1.066a19.917,19.917,0,0,1,.557,2.633,8.717,8.717,0,0,0,.19,2.05c.1.16,1.363,7.617.073,10.279,0,0-1.894,7.177-3.241,8.537s-4.309-8.071-4.309-8.071-1.564-8.411-1.311-9.594S880.3,375.125,880.3,375.125Z" transform="translate(-697.238 -306.863)" fill="#212121"/>
    <circle id="Ellipse_30" data-name="Ellipse 30" cx="0.93" cy="0.93" r="0.93" transform="translate(186.651 94.105)" fill="#3f3d56"/>
    <circle id="Ellipse_31" data-name="Ellipse 31" cx="0.93" cy="0.93" r="0.93" transform="translate(186.651 98.489)" fill="#3f3d56"/>
    <circle id="Ellipse_32" data-name="Ellipse 32" cx="0.93" cy="0.93" r="0.93" transform="translate(186.651 94.105)" opacity="0.1"/>
    <circle id="Ellipse_33" data-name="Ellipse 33" cx="0.93" cy="0.93" r="0.93" transform="translate(186.651 98.489)" opacity="0.1"/>
    <path id="Path_3132" data-name="Path 3132" d="M992.47,804.34a24.842,24.842,0,0,1,4.2.592C997.044,805.227,992.47,804.34,992.47,804.34Z" transform="translate(-796.533 -649.509)" stroke="#6c63ff" stroke-miterlimit="10" stroke-width="1" opacity="0.1"/>
    <path id="Path_3133" data-name="Path 3133" d="M880.3,789.53s.81,1.013.466,1.479S880.3,789.53,880.3,789.53Z" transform="translate(-707.085 -637.699)" stroke="#6c63ff" stroke-miterlimit="10" stroke-width="1" opacity="0.1"/>
    <path id="Path_3134" data-name="Path 3134" d="M885.1,805.4s1.479-.972,2.07-.326S885.1,805.4,885.1,805.4Z" transform="translate(-710.913 -649.921)" stroke="#6c63ff" stroke-miterlimit="10" stroke-width="1" opacity="0.1"/>
    <path id="Path_3135" data-name="Path 3135" d="M929.286,318.413a5.9,5.9,0,0,1-.19,1.5.675.675,0,0,1-.393-.66c.026-.241.186-.462.152-.7-.051-.369-.5-.519-.731-.81a1.885,1.885,0,0,1-.2-1.321c.024-.456-.091-1.013-.519-1.169-.128-.047-.267-.051-.391-.1-.336-.142-.44-.559-.665-.847a1.751,1.751,0,0,0-2.026-.292,9.594,9.594,0,0,1-.912.381,1.191,1.191,0,0,1-.954-.071c-.134-.085-.241-.2-.379-.288a1.308,1.308,0,0,0-1.454.354,5.029,5.029,0,0,1-1.215,1.047c-.225.1-.5.162-.608.381a.8.8,0,0,0-.065.379,11.329,11.329,0,0,1-.071,2.36c-.105.5-.454,1.059-.958,1a.942.942,0,0,1-.184-.047,5.935,5.935,0,1,1,11.77-1.1Z" transform="translate(-736.685 -257.288)" opacity="0.1"/>
    <path id="Path_3136" data-name="Path 3136" d="M907.939,302.856c.152.034.3.113.452.134.5.061.853-.5.958-1a10.918,10.918,0,0,0,.073-2.36.772.772,0,0,1,.063-.379c.115-.219.393-.28.608-.381a5.248,5.248,0,0,0,1.215-1.047,1.294,1.294,0,0,1,1.452-.355c.136.081.245.2.379.288a1.216,1.216,0,0,0,.956.071c.314-.093.608-.257.909-.381a1.76,1.76,0,0,1,2.026.29c.225.29.328.7.664.847.124.053.263.059.391.105.427.16.537.713.519,1.169a1.964,1.964,0,0,0,.2,1.321c.235.288.681.438.731.81.032.239-.126.462-.152.7a.673.673,0,0,0,.634.717c.527,0,.853-.589,1.345-.778a1.6,1.6,0,0,0,.608-.251.67.67,0,0,0,.126-.549c-.1-.776-.721-1.45-.654-2.228.063-.746.754-1.4.608-2.129a1.726,1.726,0,0,0-.405-.723,2.342,2.342,0,0,0-.826-.7,8.5,8.5,0,0,1-.865-.3c-.766-.419-.764-1.513-1.215-2.259a1.983,1.983,0,0,0-1.847-.92c-.569.057-1.086.359-1.649.46a4.275,4.275,0,0,1-2.285-.405,6.249,6.249,0,0,0-2.255-.608,1.923,1.923,0,0,0-1.872,1.147c-.126.405-.063.839-.16,1.246a2.719,2.719,0,0,1-1.455,1.6c-.444.247-.976.531-1.029,1.035a2.134,2.134,0,0,0,.253.918,2.335,2.335,0,0,1-.012,1.621c-.148.383-.395.719-.545,1.1a1.975,1.975,0,0,0,.053,1.621,1.511,1.511,0,0,0,.926.76C907.262,303.158,907.513,302.763,907.939,302.856Z" transform="translate(-727.369 -240.973)" fill="#212121"/>
    <g id="Group_332" data-name="Group 332" transform="translate(178.367 55.85)" opacity="0.1">
      <path id="Path_3137" data-name="Path 3137" d="M909.346,335.32c-.105.5-.456,1.059-.96,1-.156-.02-.3-.1-.452-.134-.423-.093-.675.3-1.074.2a1.515,1.515,0,0,1-.928-.76,1.756,1.756,0,0,1-.188-.662,1.849,1.849,0,0,0,.188,1.043,1.515,1.515,0,0,0,.928.76c.405.093.65-.3,1.074-.2a4.568,4.568,0,0,0,.452.132c.5.063.855-.5.96-1a5.859,5.859,0,0,0,.1-1.331A5,5,0,0,1,909.346,335.32Z" transform="translate(-905.733 -330.593)"/>
      <path id="Path_3138" data-name="Path 3138" d="M908.33,317.629a2.331,2.331,0,0,0-.134-.978,5.181,5.181,0,0,1-.233-.64.959.959,0,0,0-.02.1,2.173,2.173,0,0,0,.253.918A2.323,2.323,0,0,1,908.33,317.629Z" transform="translate(-907.492 -315.953)"/>
      <path id="Path_3139" data-name="Path 3139" d="M983.845,318.73c-.1.575-.561,1.116-.608,1.722a1.456,1.456,0,0,0,0,.312C983.338,320.057,983.964,319.431,983.845,318.73Z" transform="translate(-967.53 -318.122)"/>
      <path id="Path_3140" data-name="Path 3140" d="M975.789,339.83a.476.476,0,0,1-.115.227c-.15.16-.405.172-.608.251-.492.188-.81.784-1.345.778a.679.679,0,0,1-.608-.47,1.041,1.041,0,0,0-.028.134.673.673,0,0,0,.634.715c.529,0,.853-.59,1.345-.776.2-.079.45-.091.608-.251a.671.671,0,0,0,.126-.549C975.795,339.864,975.791,339.848,975.789,339.83Z" transform="translate(-959.44 -334.947)"/>
      <path id="Path_3141" data-name="Path 3141" d="M970.123,333.195c-.051-.369-.5-.519-.731-.81a1.11,1.11,0,0,1-.223-.664,1.5,1.5,0,0,0,.223,1.045c.233.284.587.405.7.7A.65.65,0,0,0,970.123,333.195Z" transform="translate(-956.314 -328.48)"/>
      <path id="Path_3142" data-name="Path 3142" d="M933.045,318.321c.016-.456-.093-1.013-.521-1.169-.126-.047-.265-.053-.389-.1-.336-.142-.442-.559-.664-.847a1.755,1.755,0,0,0-2.026-.292c-.3.124-.593.288-.909.381a1.191,1.191,0,0,1-.954-.071c-.134-.085-.243-.2-.379-.288a1.307,1.307,0,0,0-1.455.355,5.034,5.034,0,0,1-1.215,1.047c-.227.1-.5.162-.62.381a.8.8,0,0,0-.063.379v.237a.576.576,0,0,1,.059-.235c.118-.219.393-.28.62-.381a5.247,5.247,0,0,0,1.215-1.047,1.3,1.3,0,0,1,1.455-.354c.136.081.245.2.379.286a1.183,1.183,0,0,0,.954.071,9.343,9.343,0,0,0,.91-.379,1.756,1.756,0,0,1,2.026.29c.223.288.328.7.664.847.124.053.263.059.389.105a.972.972,0,0,1,.515.9Z" transform="translate(-920.178 -315.727)"/>
    </g>
    <g id="Group_333" data-name="Group 333" transform="translate(181.256 58.973)" opacity="0.1">
      <path id="Path_3143" data-name="Path 3143" d="M920,332.735a1.554,1.554,0,0,1,1.171-1.453,4.862,4.862,0,0,1,2.731.124c1.922.636-.243,2.925-.243,2.925s-1.44,1.418-2.783.427a2.1,2.1,0,0,1-.784-1.215A3.1,3.1,0,0,1,920,332.735Z" transform="translate(-919.997 -331.144)"/>
      <path id="Path_3144" data-name="Path 3144" d="M953.68,332.736a1.554,1.554,0,0,0-1.173-1.453,4.862,4.862,0,0,0-2.729.124c-1.922.636.243,2.925.243,2.925s1.438,1.418,2.783.427a2.105,2.105,0,0,0,.784-1.215A3.1,3.1,0,0,0,953.68,332.736Z" transform="translate(-943.111 -331.145)"/>
      <path id="Path_3145" data-name="Path 3145" d="M910.5,291.408v.1h3.511v-.113Z" transform="translate(-906.96 -291.332)"/>
      <path id="Path_3146" data-name="Path 3146" d="M942.617,334.334h.112v-.322a.922.922,0,0,1,.948,0v.288h.2v-.188h-.1s.041-.391-.62-.328c0,0-.531-.051-.519.286h-.121Z" transform="translate(-937.958 -333.243)"/>
    </g>
    <path id="Path_3147" data-name="Path 3147" d="M920,332.089a1.554,1.554,0,0,1,1.171-1.453,4.888,4.888,0,0,1,2.731.124c1.922.638-.243,2.925-.243,2.925s-1.44,1.418-2.783.427a2.093,2.093,0,0,1-.784-1.215A3.075,3.075,0,0,1,920,332.089Z" transform="translate(-738.741 -271.657)" fill="#484848"/>
    <path id="Path_3148" data-name="Path 3148" d="M953.68,332.089a1.554,1.554,0,0,0-1.173-1.452,4.881,4.881,0,0,0-2.729.124c-1.922.638.243,2.925.243,2.925s1.438,1.418,2.783.427a2.093,2.093,0,0,0,.784-1.215A3.082,3.082,0,0,0,953.68,332.089Z" transform="translate(-761.854 -271.656)" fill="#484848"/>
    <path id="Path_3149" data-name="Path 3149" d="M910.5,290.778v.1h3.511v-.115Z" transform="translate(-725.704 -231.857)" fill="#6c63ff"/>
    <path id="Path_3150" data-name="Path 3150" d="M942.617,333.706h.112v-.322a.928.928,0,0,1,.948,0v.29h.2v-.19h-.1s.041-.389-.62-.328c0,0-.531-.049-.519.286h-.121Z" transform="translate(-756.701 -273.769)" fill="#6c63ff"/>
    <rect id="Rectangle_196" data-name="Rectangle 196" width="1.499" height="33.764" transform="translate(31.332 93.481)" fill="#535461"/>
    <path id="Path_3151" data-name="Path 3151" d="M129.067,618.388l-.1,1.521-.132,2.146-.055.9-.132,2.149-.058.9-.132,2.146-1.513,24.411a4.134,4.134,0,0,1-4.126,3.881h-7.862a4.131,4.131,0,0,1-4.123-3.88l-1.521-24.411-.132-2.146-.055-.9L109,622.945l-.055-.895-.132-2.146-.1-1.521a2.141,2.141,0,0,1,2.138-2.273h16.074a2.138,2.138,0,0,1,2.136,2.278Z" transform="translate(-86.811 -491.246)" fill="#212121"/>
    <path id="Path_3152" data-name="Path 3152" d="M102.271,590.46l-.132,2.146h-19.9l-.132-2.146Z" transform="translate(-60.11 -461.797)" fill="#9d9cb5"/>
    <path id="Path_3153" data-name="Path 3153" d="M102.606,601.98l-.132,2.149H82.955l-.135-2.149Z" transform="translate(-60.633 -470.276)" fill="#9d9cb5"/>
    <path id="Path_3154" data-name="Path 3154" d="M102.946,613.51l-.132,2.146H83.675l-.135-2.146Z" transform="translate(-61.162 -478.762)" fill="#9d9cb5"/>
    <path id="Path_3155" data-name="Path 3155" d="M46.681,526.549c8.733,6.317,12.371,16.2,12.371,16.2s-10.525-.362-19.271-6.679-12.371-16.2-12.371-16.2S37.946,520.232,46.681,526.549Z" transform="translate(-26.97 -420.413)" fill="#f2822f"/>
    <path id="Path_3156" data-name="Path 3156" d="M27.46,519.87s10.924,6.072,14.427,11.088,17.2,11.8,17.2,11.8" transform="translate(-27.007 -420.413)" fill="none" stroke="#535461" stroke-miterlimit="10" stroke-width="2"/>
    <path id="Path_3157" data-name="Path 3157" d="M92.54,486.865a21.168,21.168,0,0,1,6.734,8.817A19.24,19.24,0,0,1,82.06,483.23,21.007,21.007,0,0,1,92.54,486.865Z" transform="translate(-67.193 -393.445)" fill="#f2822f"/>
    <path id="Path_3158" data-name="Path 3158" d="M82.06,483.18s5.945,3.3,7.851,6.032,9.364,6.42,9.364,6.42" transform="translate(-67.193 -393.408)" fill="none" stroke="#535461" stroke-miterlimit="10" stroke-width="2"/>
    <path id="Path_3159" data-name="Path 3159" d="M155,507.321a29.268,29.268,0,0,0-6.616,13.841,26.606,26.606,0,0,0,19.773-21.732A29.271,29.271,0,0,0,155,507.321Z" transform="translate(-116.005 -405.368)" fill="#f2822f"/>
    <path id="Path_3160" data-name="Path 3160" d="M168.153,499.43s-7.112,6.151-8.92,10.391-10.853,11.352-10.853,11.352" transform="translate(-116.005 -405.368)" fill="none" stroke="#535461" stroke-miterlimit="10" stroke-width="2"/>
  </g>
</svg>
