<svg xmlns="http://www.w3.org/2000/svg" width="24" height="24" viewBox="0 0 24 24">
  <g id="phone" transform="translate(-34.503 -469.5)">
    <circle id="Ellipse_202" data-name="Ellipse 202" cx="6.5" cy="6.5" r="6.5" transform="translate(45.503 480.5)" fill="#f4c914"/>
    <rect id="Rectangle_184" data-name="Rectangle 184" width="24" height="24" transform="translate(34.503 469.5)" fill="none"/>
    <path id="Icon_feather-phone" data-name="Icon feather-phone" d="M17.082,13.23v2.258a1.505,1.505,0,0,1-1.641,1.505,14.9,14.9,0,0,1-6.5-2.311,14.678,14.678,0,0,1-4.516-4.516A14.9,14.9,0,0,1,2.118,3.641,1.505,1.505,0,0,1,3.616,2H5.874A1.505,1.505,0,0,1,7.379,3.295,9.665,9.665,0,0,0,7.906,5.41,1.505,1.505,0,0,1,7.568,7l-.956.956a12.043,12.043,0,0,0,4.516,4.516l.956-.956a1.505,1.505,0,0,1,1.588-.339,9.665,9.665,0,0,0,2.115.527,1.505,1.505,0,0,1,1.295,1.528Z" transform="translate(36.906 472)" fill="none" stroke="#000" stroke-linecap="round" stroke-linejoin="round" stroke-width="1"/>
  </g>
</svg>
