<svg xmlns="http://www.w3.org/2000/svg" width="24" height="24" viewBox="0 0 24 24">
  <g id="right_arrow" transform="translate(-309 -550)">
    <rect id="Rectangle_447" data-name="Rectangle 447" width="24" height="24" transform="translate(309 550)" fill="none"/>
    <g id="Icon_ionic-ios-arrow-forward" data-name="Icon ionic-ios-arrow-forward" transform="translate(305.465 548.304)" fill="none">
      <path d="M17.238,13.693,11.561,8.022a1.067,1.067,0,0,1,0-1.514,1.081,1.081,0,0,1,1.518,0l6.431,6.426a1.07,1.07,0,0,1,.031,1.478l-6.458,6.471a1.072,1.072,0,1,1-1.518-1.514Z" stroke="none"/>
      <path d="M 12.32501411437988 21.19629287719727 C 12.59743404388428 21.19629287719727 12.87432479858398 21.09357261657715 13.08422470092773 20.8836727142334 L 19.54198455810547 14.41251277923584 C 19.92605400085449 13.99271297454834 19.91712379455566 13.34068298339844 19.5107250213623 12.93428325653076 L 13.07975482940674 6.507792949676514 C 12.65995502471924 6.092453956604004 11.98113632202148 6.092452049255371 11.56133460998535 6.507792949676514 C 11.14153480529785 6.923122882843018 11.14153480529785 7.601943016052246 11.56133460998535 8.021742820739746 L 17.2375545501709 13.69350337982178 L 11.56580448150635 19.36972236633301 C 11.14600467681885 19.78505325317383 11.14600467681885 20.4638729095459 11.56580448150635 20.8836727142334 C 11.7757043838501 21.09357261657715 12.05258464813232 21.19629287719727 12.32501411437988 21.19629287719727 M 12.32501411437988 22.09629249572754 C 11.79662418365479 22.09629249572754 11.30099487304688 21.89165306091309 10.92940425872803 21.52007293701172 C 10.55497455596924 21.14563369750977 10.34954452514648 20.64832305908203 10.35096454620361 20.11974334716797 C 10.35236930847168 19.59506797790527 10.5576753616333 19.10299682617188 10.92915534973145 18.73357391357422 L 10.92915439605713 18.73357200622559 L 15.96475505828857 13.69400405883789 L 10.92518424987793 8.658392906188965 C 10.55050468444824 8.283702850341797 10.34507465362549 7.786393165588379 10.34649467468262 7.257812976837158 C 10.34790420532227 6.73140287399292 10.55454444885254 6.237833023071289 10.92835426330566 5.868002891540527 C 11.30098438262939 5.499332904815674 11.7954044342041 5.296292781829834 12.32054424285889 5.296292781829834 C 12.84568405151367 5.296292781829834 13.34010410308838 5.499332904815674 13.71274471282959 5.868002891540527 L 20.14689445495605 12.29766273498535 C 20.89365386962891 13.04442310333252 20.91952514648438 14.24013328552246 20.20601463317871 15.02002334594727 L 20.17904472351074 15.04825305938721 L 13.72128486633301 21.51941299438477 C 13.34903430938721 21.89165306091309 12.85340404510498 22.09629249572754 12.32501411437988 22.09629249572754 Z" stroke="none" fill="#888"/>
    </g>
  </g>
</svg>
