<svg xmlns="http://www.w3.org/2000/svg" width="24" height="24" viewBox="0 0 24 24">
  <g id="gender" transform="translate(-37 -550)">
    <circle id="Ellipse_203" data-name="Ellipse 203" cx="6.5" cy="6.5" r="6.5" transform="translate(47 560)" fill="#f4c914"/>
    <rect id="Rectangle_181" data-name="Rectangle 181" width="24" height="24" transform="translate(37 550)" fill="none"/>
    <g id="gender-male" transform="translate(37.563 550.5)" fill="none">
      <path d="M13.2,4.5V5.747h4.106l-4.794,4.794a5.006,5.006,0,1,0,.882.882l4.794-4.794v4.106h1.247V4.5ZM9.46,18.217A3.741,3.741,0,1,1,13.2,14.476,3.741,3.741,0,0,1,9.46,18.217Z" stroke="none"/>
      <path d="M 13.20093250274658 4.500003814697266 L 13.20093250274658 5.74702262878418 L 17.30725288391113 5.74702262878418 L 12.51368236541748 10.54115390777588 C 10.42629241943359 8.91938304901123 7.437692642211914 9.200121879577637 5.688833236694336 11.18225383758545 C 3.939971923828125 13.16438388824463 4.033672332763672 16.1646728515625 5.902812957763672 18.03380393981934 C 7.77194881439209 19.9029426574707 10.77224159240723 19.99664306640625 12.75437259674072 18.24779319763184 C 14.7365026473999 16.49893379211426 15.01723289489746 13.51033306121826 13.39547252655029 11.42293357849121 L 18.18904304504395 6.628812789916992 L 18.18904304504395 10.73513317108154 L 19.43607330322266 10.73513317108154 L 19.43607330322266 4.500003814697266 L 13.20093250274658 4.500003814697266 M 9.45985221862793 18.21729278564453 C 7.393712997436523 18.21729278564453 5.718772888183594 16.54235458374023 5.718772888183594 14.4762134552002 C 5.718772888183594 12.41007328033447 7.393712997436523 10.73513317108154 9.45985221862793 10.73513317108154 C 11.52600288391113 10.73513317108154 13.20093250274658 12.41007328033447 13.20093250274658 14.4762134552002 C 13.19849300384521 16.54134368896484 11.52498245239258 18.21485328674316 9.45985221862793 18.21729278564453 M 12.20093250274658 3.500003814697266 L 20.43607330322266 3.500003814697266 L 20.43607330322266 11.73513317108154 L 17.18904304504395 11.73513317108154 L 17.18904304504395 9.043229103088379 L 14.67928791046143 11.55327224731445 C 16.04316902160645 13.98130130767822 15.56173324584961 17.10441207885742 13.41597270965576 18.99764251708984 C 12.31795215606689 19.96645355224609 10.90710258483887 20.49999237060547 9.443312644958496 20.49999237060547 C 7.838562965393066 20.49999237060547 6.330072402954102 19.87527275085449 5.195703506469727 18.74091339111328 C 2.958572387695312 16.50379371643066 2.845802307128906 12.89302349090576 4.938982009887695 10.52065372467041 C 6.078632354736328 9.228983879089355 7.720942497253418 8.488183975219727 9.444802284240723 8.488183975219727 C 10.48951148986816 8.488183975219727 11.49077129364014 8.751582145690918 12.38422298431396 9.256324768066406 L 14.89323234558105 6.74702262878418 L 12.20093250274658 6.74702262878418 L 12.20093250274658 3.500003814697266 Z M 9.459012031555176 17.21729278564453 C 10.9691858291626 17.21536254882812 12.19915294647217 15.9852409362793 12.20093250274658 14.4750337600708 C 12.20093250274658 12.96477317810059 10.97129249572754 11.73513317108154 9.45985221862793 11.73513317108154 C 7.948412895202637 11.73513317108154 6.718772888183594 12.96477317810059 6.718772888183594 14.4762134552002 C 6.718772888183594 15.98737621307373 7.947952270507812 17.21684265136719 9.459012031555176 17.21729278564453 Z" stroke="none" fill="#212121"/>
    </g>
  </g>
</svg>
