<svg xmlns="http://www.w3.org/2000/svg" width="24" height="24" viewBox="0 0 24 24">
  <g id="password" transform="translate(-37 -550)">
    <circle id="Ellipse_203" data-name="Ellipse 203" cx="6" cy="6" r="6" transform="translate(49 562)" fill="#f4c914"/>
    <rect id="Rectangle_181" data-name="Rectangle 181" width="24" height="23" transform="translate(37 550)" fill="none"/>
    <g id="Icon_feather-lock" data-name="Icon feather-lock" transform="translate(42.542 554.32)">
      <path id="Path_2478" data-name="Path 2478" d="M5.94,16.5H16.02a1.437,1.437,0,0,1,1.44,1.434v5.018a1.437,1.437,0,0,1-1.44,1.434H5.94A1.437,1.437,0,0,1,4.5,22.952V17.934A1.437,1.437,0,0,1,5.94,16.5Z" transform="translate(-4.5 -9.985)" fill="none" stroke="#212121" stroke-linecap="round" stroke-linejoin="round" stroke-width="1"/>
      <path id="Path_2479" data-name="Path 2479" d="M10.5,9.452V6.584a3.613,3.613,0,0,1,7.225,0V9.452" transform="translate(-7.633 -3)" fill="none" stroke="#212121" stroke-linecap="round" stroke-linejoin="round" stroke-width="1"/>
    </g>
  </g>
</svg>
