<svg xmlns="http://www.w3.org/2000/svg" width="24.001" height="35.878" viewBox="0 0 24.001 35.878">
  <g id="Group_334" data-name="Group 334" transform="matrix(-0.259, -0.966, 0.966, -0.259, -293.027, 138.349)">
    <path id="Path_3164" data-name="Path 3164" d="M50.655,349.13H22.76s-1.147.272-1.885-1.821a9.828,9.828,0,0,1-.424-1.853v0a21.686,21.686,0,0,1-.182-3,20.786,20.786,0,0,1,.218-3.238A8.362,8.362,0,0,1,21,337.271c.735-1.727,1.755-1.481,1.755-1.481h27.9s2.924-.334,2.99,3.2v5S54.27,349.13,50.655,349.13Z" transform="translate(0 -15.499)" fill="#c6c6c6"/>
    <path id="Path_3165" data-name="Path 3165" d="M56.538,331.307h-27.9s-1.147.272-1.885-1.821a9.821,9.821,0,0,1-.424-1.853v0a21.684,21.684,0,0,1-.182-3,20.782,20.782,0,0,1,.218-3.238,8.344,8.344,0,0,1,.519-1.947c.734-1.727,1.755-1.481,1.755-1.481h27.9s2.924-.334,2.99,3.2v5S60.153,331.307,56.538,331.307Z" transform="translate(-5.116)" fill="#de8312"/>
    <path id="Path_3166" data-name="Path 3166" d="M65.268,334.692H39.863s-1.044.248-1.717-1.659a8.975,8.975,0,0,1-.386-1.688v0a19.726,19.726,0,0,1-.166-2.73,18.928,18.928,0,0,1,.2-2.949,7.59,7.59,0,0,1,.472-1.773c.669-1.573,1.6-1.349,1.6-1.349H65.268s2.663-.3,2.723,2.916v4.557S68.56,334.692,65.268,334.692Z" transform="translate(-15.067 -3.98)" fill="#f3a922"/>
    <path id="Path_3167" data-name="Path 3167" d="M81.616,327.83a14.038,14.038,0,0,1-1.417,5.761H63.055a11.981,11.981,0,0,1-1.245-5.761,19.742,19.742,0,0,1,1.245-6.712H80.2A14.388,14.388,0,0,1,81.616,327.83Z" transform="translate(-36.126 -2.751)" fill="#93d8ff"/>
    <path id="Path_3168" data-name="Path 3168" d="M81.616,327.83H61.81a19.742,19.742,0,0,1,1.245-6.712H80.2A14.388,14.388,0,0,1,81.616,327.83Z" transform="translate(-36.126 -2.751)" fill="#cef1ff"/>
    <path id="Path_3169" data-name="Path 3169" d="M82.881,330.8H94.2a13.682,13.682,0,0,1,0,9.947H82.881S81.031,337.029,82.881,330.8Z" transform="translate(-53.735 -11.175)" fill="#f3a922"/>
    <rect id="Rectangle_200" data-name="Rectangle 200" width="1.67" height="5.67" transform="translate(34.865 321.831)" fill="#de8312"/>
    <path id="Path_3170" data-name="Path 3170" d="M130.908,322.375h.536l.3-1.264H130.71Z" transform="translate(-96.043 -2.745)" fill="#f3a922"/>
    <path id="Path_3171" data-name="Path 3171" d="M131.545,407.1h-.536l-.3,1.264h1.033Z" transform="translate(-96.043 -77.524)" fill="#f3a922"/>
    <path id="Path_3172" data-name="Path 3172" d="M175.2,322.375l2.906-1.264h.7l.151.308-3.58,1.412Z" transform="translate(-134.728 -2.745)" fill="#f3a922"/>
    <path id="Path_3173" data-name="Path 3173" d="M175.2,404.057l2.906,1.264h.7l.151-.308-3.58-1.412Z" transform="translate(-134.728 -74.48)" fill="#f3a922"/>
    <path id="Path_3174" data-name="Path 3174" d="M72.668,322.375l-1.5-1.264h-.7l-.151.308,2.176,1.412Z" transform="translate(-43.522 -2.745)" fill="#f3a922"/>
    <path id="Path_3175" data-name="Path 3175" d="M72.668,404.057l-1.5,1.264h-.7l-.151-.308L72.49,403.6Z" transform="translate(-43.522 -74.48)" fill="#f3a922"/>
    <path id="Path_3176" data-name="Path 3176" d="M209.253,337.761l7.671,1.132-7.495-.462Z" transform="translate(-164.346 -17.224)" fill="#de8312"/>
    <path id="Path_3177" data-name="Path 3177" d="M209.253,393.482l7.671-1.132-7.495.462Z" transform="translate(-164.346 -64.696)" fill="#de8312"/>
    <path id="Path_3178" data-name="Path 3178" d="M28.763,329.729l-.4,2.3a1.3,1.3,0,0,1-.539-.674,8.345,8.345,0,0,1,.519-1.947A.659.659,0,0,1,28.763,329.729Z" transform="translate(-6.571 -9.961)" fill="#df313d"/>
    <path id="Path_3179" data-name="Path 3179" d="M31.822,332.031a22.492,22.492,0,0,0-.02-2.622.659.659,0,0,1,.42.32Z" transform="translate(-10.03 -9.961)" fill="#fff" opacity="0.7"/>
    <path id="Path_3180" data-name="Path 3180" d="M28.524,388.472a.658.658,0,0,1-.55.336,9.821,9.821,0,0,1-.424-1.853v0a1.318,1.318,0,0,1,.574-.783Z" transform="translate(-6.332 -59.323)" fill="#df313d"/>
    <path id="Path_3181" data-name="Path 3181" d="M31.822,386.233a22.488,22.488,0,0,1-.02,2.621.659.659,0,0,0,.42-.32Z" transform="translate(-10.03 -59.377)" fill="#fff" opacity="0.7"/>
    <path id="Path_3182" data-name="Path 3182" d="M261.482,326.189l-.935-.468-1.311-2.545-.012-.022c1.813-.05,2.173,1.739,2.243,2.594C261.488,326.013,261.482,326.189,261.482,326.189Z" transform="translate(-207.803 -4.52)" fill="#89b5d8"/>
    <path id="Path_3183" data-name="Path 3183" d="M261.561,326.343l-.935-.468-1.311-2.545a8.171,8.171,0,0,0,2.232,2.572C261.567,326.167,261.561,326.343,261.561,326.343Z" transform="translate(-207.882 -4.674)" fill="#fff" opacity="0.6"/>
    <path id="Path_3184" data-name="Path 3184" d="M259.227,393.032l1.323-2.568.934-.467S261.607,393.1,259.227,393.032Z" transform="translate(-207.804 -62.65)" fill="#89b5d8"/>
    <path id="Path_3185" data-name="Path 3185" d="M261.723,390.081l-.935.468-1.311,2.545a8.172,8.172,0,0,1,2.231-2.571A4.417,4.417,0,0,0,261.723,390.081Z" transform="translate(-208.023 -62.723)" fill="#fff" opacity="0.6"/>
    <path id="Rectangle_201" data-name="Rectangle 201" d="M.016,0H.429A.014.014,0,0,1,.443.014V9.271a.016.016,0,0,1-.016.016H.016A.016.016,0,0,1,0,9.271V.016A.016.016,0,0,1,.016,0Z" transform="translate(54.254 320.193)" fill="#dadee0"/>
    <path id="Path_3186" data-name="Path 3186" d="M142.7,332.4h3.733s1.912,5.156,0,9.027C146.435,341.427,146.966,332.974,142.7,332.4Z" transform="translate(-106.471 -12.562)" fill="#ffd899"/>
    <path id="Path_3187" data-name="Path 3187" d="M89.737,341.281l-3.732-.078s-1.8-5.195.188-9.025C86.193,332.178,85.486,340.619,89.737,341.281Z" transform="translate(-56.515 -12.369)" fill="#ffd899"/>
    <path id="Path_3188" data-name="Path 3188" d="M215.667,345l6.808.515.006,5.352-4.728.155s4.017-1.378,3.593-3.5S215.667,345,215.667,345Z" transform="translate(-169.924 -23.519)" fill="#ffd899"/>
    <path id="Path_3189" data-name="Path 3189" d="M45.36,325.947H43.5s-1.3-.161-1.478,2.725a23.8,23.8,0,0,0,.182,6.2q.037.132.079.241C42.671,336.122,41.617,326.42,45.36,325.947Z" transform="translate(-18.831 -6.949)" fill="#ffd899"/>
  </g>
</svg>
