<svg xmlns="http://www.w3.org/2000/svg" width="237.592" height="157.067" viewBox="0 0 237.592 157.067">
  <g id="vector_image" data-name="vector image" transform="translate(-197.462 -489.578)">
    <path id="Path_79" data-name="Path 79" d="M410.755,932.163a6.353,6.353,0,0,1-5.809,3.578l-162.8-2.081a5.174,5.174,0,0,1-5.108-5.173V912.917a7.943,7.943,0,0,1,.776-3.434l3.605-7.574s3.841-20.413,7.136-26.944c9.677-19.188,35.268-24.141,54.6-22.8a177.383,177.383,0,0,1,28.169,4.52c14.042,3.284,31.8,11.95,51.406,32.272a1.4,1.4,0,0,0,.8.407l9.115,1.268c7.018,1.07,14.229,6.4,18.642,16.7a46.4,46.4,0,0,1,2.616,8.147C415.216,922.572,412.493,928.6,410.755,932.163Z" transform="translate(-33.714 -308.736)" fill="#ffd07f"/>
    <g id="Group_80" data-name="Group 80" transform="translate(322.928 494.462)">
      <path id="Path_80" data-name="Path 80" d="M1115.063,522.572h-65.437a4.82,4.82,0,0,0-4.563,5.039v59.222c1.032.636,2.075,1.31,3.129,2.011a126.769,126.769,0,0,1,12.33,9.409c3.472,2.99,7.013,6.334,10.624,10.073a1.4,1.4,0,0,0,.8.406l8.971,1.246.289.209.144-.139a19.75,19.75,0,0,1,6.713,2.487,26.4,26.4,0,0,1,8.7,8.623,36.925,36.925,0,0,1,2.937,5.542,42.172,42.172,0,0,1,1.744,4.83c.321,1.065.61,2.166.872,3.317,1.316,7.1-1.407,13.122-3.146,16.69a6.37,6.37,0,0,1-5.809,3.579l-6.772-.086c-.043.348-.1.7-.177,1.032a15.426,15.426,0,0,1-13.18,12.18h41.826a4.816,4.816,0,0,0,4.563-5.039V527.611A4.82,4.82,0,0,0,1115.063,522.572Zm-56.055,139.663a15.293,15.293,0,0,1-3.022-7.6l-7.794-.1-3.129-.037v8.7a4.816,4.816,0,0,0,4.563,5.039H1069.4A15.391,15.391,0,0,1,1059.008,662.235Z" transform="translate(-1045.063 -522.572)" fill="#092135"/>
      <path id="Path_81" data-name="Path 81" d="M1074,1414.182a15.29,15.29,0,0,0,3.022,7.6h-9.153a1.661,1.661,0,0,1-1.664-1.658v-6.039Z" transform="translate(-1063.074 -1282.114)" fill="#ffb685"/>
      <path id="Path_82" data-name="Path 82" d="M1134.507,572.8V701.957a1.66,1.66,0,0,1-1.658,1.658h-31.218a15.241,15.241,0,0,0,2.8-6.173c.075-.337.134-.685.177-1.032l6.772.086a6.37,6.37,0,0,0,5.809-3.579c1.739-3.568,4.461-9.591,3.145-16.69-.262-1.15-.551-2.252-.872-3.317a42.154,42.154,0,0,0-1.744-4.83,36.924,36.924,0,0,0-2.937-5.542,26.4,26.4,0,0,0-8.7-8.623,19.748,19.748,0,0,0-6.713-2.487l-.145.139-.289-.209-8.971-1.246a1.4,1.4,0,0,1-.8-.406c-3.611-3.739-7.152-7.082-10.624-10.073a126.8,126.8,0,0,0-12.33-9.409V572.8a1.661,1.661,0,0,1,1.664-1.658h64.983A1.66,1.66,0,0,1,1134.507,572.8Z" transform="translate(-1063.074 -563.952)" fill="#ffb685"/>
      <path id="Path_83" data-name="Path 83" d="M1242.673,547.614h-19.16a.4.4,0,1,1,0-.8h19.16a.4.4,0,1,1,0,.8Z" transform="translate(-1196.756 -543.224)" fill="#2b2150"/>
      <path id="Path_84" data-name="Path 84" d="M1134.507,660.843l-11.362,6.515-8.366-5.1a36.921,36.921,0,0,1,2.937,5.542,42.154,42.154,0,0,1,1.744,4.83l1.947,1.182a3.255,3.255,0,0,0,3.242.059l9.859-5.52.193-.107ZM1123.114,639l-13.951-3.675-.273-9.538,25.618-24.954.193-.187-.193-8.917-6.563,6.424L1112.608,585.7l11.576-14.839h-8.441l-24.863,32.143-7.724-8.7-.342-23.44v-.048l-3.4.048-3.022.043.359,24.681a3.217,3.217,0,0,0,.808,2.086l9.324,10.506-5.638,7.286L1066.2,602.916v8.211l12.33,10.426v17.8c3.472,2.99,7.013,6.333,10.624,10.073a1.4,1.4,0,0,0,.8.406l8.971,1.246L1084.952,641V621.162l6.291-8.067,11.217,12.635.642,21.889-3.739,3.53a19.749,19.749,0,0,1,6.713,2.487l2.477-2.338a3.209,3.209,0,0,0,1.006-2.428l-.2-6.863,14.17,3.734a3.043,3.043,0,0,0,.818.107,3.213,3.213,0,0,0,2.536-1.241l7.623-9.837.193-.246V624.447l-.193.241ZM1105.8,619.82l-10.543-11.875,13.4-17.182,14.668,11.907Zm9.805,74.862a6.337,6.337,0,0,1-4.231,1.535l-6.772-.086c-.043.348-.1.7-.177,1.032l5.841,2.156v4.017h6.419v-6.253A3.212,3.212,0,0,0,1115.609,694.682Z" transform="translate(-1063.074 -563.674)" fill="#eee"/>
    </g>
    <g id="Group_81" data-name="Group 81" transform="translate(341.303 517.035)">
      <path id="Path_85" data-name="Path 85" d="M1340.685,677.072a.268.268,0,0,1-.21-.432l1.153-1.475a.267.267,0,0,1,.421.33l-1.153,1.475A.267.267,0,0,1,1340.685,677.072Z" transform="translate(-1315.072 -675.062)" fill="#212121"/>
      <path id="Path_86" data-name="Path 86" d="M1174.354,731.021a.267.267,0,0,1-.21-.432l2.209-2.828a.268.268,0,1,1,.422.33l-2.21,2.828A.267.267,0,0,1,1174.354,731.021Zm4.1-5.252a.267.267,0,0,1-.211-.432l2.209-2.828a.267.267,0,1,1,.421.329l-2.209,2.828A.265.265,0,0,1,1178.458,725.77Zm4.1-5.251a.264.264,0,0,1-.164-.057.267.267,0,0,1-.046-.375l2.21-2.828a.267.267,0,1,1,.421.329l-2.21,2.828A.267.267,0,0,1,1182.561,720.518Zm4.1-5.252a.267.267,0,0,1-.211-.432l2.21-2.828a.267.267,0,1,1,.421.329l-2.21,2.828A.266.266,0,0,1,1186.665,715.267Zm4.1-5.252a.267.267,0,0,1-.211-.432l2.21-2.828a.267.267,0,1,1,.421.329l-2.21,2.828A.266.266,0,0,1,1190.768,710.015Zm4.1-5.252a.267.267,0,0,1-.211-.432l2.21-2.828a.267.267,0,1,1,.421.33l-2.21,2.828A.266.266,0,0,1,1194.872,704.763Z" transform="translate(-1173.362 -697.502)" fill="#212121"/>
      <path id="Path_87" data-name="Path 87" d="M1169.463,919.4a.267.267,0,0,1-.268-.268v-1.872a.268.268,0,0,1,.535,0v1.872A.267.267,0,0,1,1169.463,919.4Z" transform="translate(-1169.195 -881.177)" fill="#212121"/>
    </g>
    <path id="Path_88" data-name="Path 88" d="M1330.7,600.177a4.483,4.483,0,0,1-.735,3.558l-2.71,4.873a.5.5,0,0,1-.871,0l-2.568-4.618c-.829-1.49-1.493-2.835-.7-4.505a4.058,4.058,0,0,1,7.583.691Z" transform="translate(-958.726 -91.667)" fill="#f2822f"/>
    <path id="Path_89" data-name="Path 89" d="M1324.482,607.091a.9.9,0,0,1-.786-.462l-2.568-4.616c-.926-1.665-1.565-3.079-.711-4.875a4.516,4.516,0,0,1,6.717-1.645,4.43,4.43,0,0,1,1.617,2.407,4.882,4.882,0,0,1-.773,3.854l-2.711,4.874A.9.9,0,0,1,1324.482,607.091Zm-.041-11.652a3.582,3.582,0,0,0-2.712,1.171,3.625,3.625,0,0,0-.586.874c-.691,1.453-.151,2.631.687,4.138l2.568,4.617a.09.09,0,0,0,.17,0l2.711-4.874a4.039,4.039,0,0,0,.7-3.262A3.624,3.624,0,0,0,1324.441,595.438Z" transform="translate(-956.388 -89.491)" fill="#212121"/>
    <path id="Path_90" data-name="Path 90" d="M1339.2,610.318a2.275,2.275,0,1,1-2.274-2.274A2.275,2.275,0,0,1,1339.2,610.318Z" transform="translate(-968.853 -100.93)" fill="#fff"/>
    <path id="Path_91" data-name="Path 91" d="M1334.613,610.685a2.676,2.676,0,1,1,2.676-2.676A2.679,2.679,0,0,1,1334.613,610.685Zm0-4.549a1.873,1.873,0,1,0,1.873,1.873A1.876,1.876,0,0,0,1334.613,606.136Z" transform="translate(-966.544 -98.621)" fill="#212121"/>
    <path id="Path_92" data-name="Path 92" d="M1152.289,934.444a4.483,4.483,0,0,1-.735,3.558l-2.71,4.873a.5.5,0,0,1-.871,0l-2.569-4.618c-.828-1.49-1.493-2.835-.7-4.506a4.058,4.058,0,0,1,7.583.692Z" transform="translate(-806.723 -376.453)" fill="#f2822f"/>
    <path id="Path_93" data-name="Path 93" d="M1146.069,941.249a.9.9,0,0,1-.786-.463l-2.568-4.617c-.925-1.663-1.564-3.078-.71-4.873a4.524,4.524,0,0,1,4.994-2.438,4.47,4.47,0,0,1,3.34,3.2,4.883,4.883,0,0,1-.772,3.854l-2.71,4.873A.9.9,0,0,1,1146.069,941.249Zm-.041-11.686a3.481,3.481,0,0,0-1.06.153,3.7,3.7,0,0,0-2.239,1.925c-.692,1.453-.152,2.632.686,4.138l2.568,4.617a.089.089,0,0,0,.17,0l2.711-4.874a4.04,4.04,0,0,0,.7-3.262A3.712,3.712,0,0,0,1146.029,929.563Z" transform="translate(-804.384 -374.169)" fill="#212121"/>
    <path id="Path_94" data-name="Path 94" d="M1160.783,944.585a2.275,2.275,0,1,1-2.275-2.275A2.274,2.274,0,0,1,1160.783,944.585Z" transform="translate(-816.849 -385.716)" fill="#fff"/>
    <path id="Path_95" data-name="Path 95" d="M1156.2,944.952a2.676,2.676,0,1,1,2.676-2.676A2.679,2.679,0,0,1,1156.2,944.952Zm0-4.549a1.873,1.873,0,1,0,1.873,1.873A1.875,1.875,0,0,0,1156.2,940.4Z" transform="translate(-814.541 -383.408)" fill="#212121"/>
    <path id="Path_96" data-name="Path 96" d="M576.675,931.174a1.371,1.371,0,0,0-1.1,1.343v3.557c-.214-.016-.433-.037-.653-.059-21.461-1.974-62.795-5.735-83.2-7.585,0,0,3.4-8.842,5.349-11.5,4.21-5.708,6.58-9.591,22.488-10.415,9.324-.481,21.5,1.118,30.491,4.718A65.247,65.247,0,0,1,576.675,931.174Z" transform="translate(-250.708 -355.152)" fill="#ccc"/>
    <path id="Path_97" data-name="Path 97" d="M274.063,994.728a43.072,43.072,0,0,1-8.175,28.53q-.193-4.318-.385-8.637a21.418,21.418,0,0,1,.014-3.152,16.579,16.579,0,0,1,.79-3.407A36.713,36.713,0,0,1,274.063,994.728Z" transform="translate(-57.925 -430.375)" fill="#f2822f"/>
    <path id="Path_98" data-name="Path 98" d="M431.231,1106.211h-4.936a3.974,3.974,0,0,1-3.97-3.969v-.411a.267.267,0,0,1,.267-.267h12.34a.267.267,0,0,1,.267.267v.411A3.974,3.974,0,0,1,431.231,1106.211Zm-8.371-4.113v.144a3.439,3.439,0,0,0,3.435,3.434h4.936a3.438,3.438,0,0,0,3.434-3.434v-.144Z" transform="translate(-191.578 -521.395)" fill="#2b2150"/>
    <path id="Path_99" data-name="Path 99" d="M774.88,1134h-4.936a3.974,3.974,0,0,1-3.969-3.97v-.411a.267.267,0,0,1,.267-.268h12.34a.268.268,0,0,1,.268.268v.411A3.974,3.974,0,0,1,774.88,1134Zm-8.371-4.113v.144a3.439,3.439,0,0,0,3.435,3.435h4.936a3.439,3.439,0,0,0,3.435-3.435v-.144Z" transform="translate(-484.358 -545.074)" fill="#2b2150"/>
    <path id="Path_100" data-name="Path 100" d="M523.043,916.485a56.318,56.318,0,0,1-7.569-.364c.1.008.124-1.142.119-1.273a4.388,4.388,0,0,0-4.389-4.226h-3.284a1.571,1.571,0,0,0-.273.027,65.248,65.248,0,0,0-26.618-19.937c-8.992-3.6-21.167-5.2-30.491-4.718-15.909.824-18.278,4.707-22.488,10.415-1.952,2.653-4.4,8.794-5.349,11.308l-11.993-1.086a18,18,0,0,0,.61-1.851.032.032,0,0,1,.005-.021c1.348-3.985,4.8-13.293,8.639-16.642a19.765,19.765,0,0,1,10.693-4.729c.4-.059.8-.114,1.2-.16q1.552-.179,3.108-.31c3.5-.273,7.8-.417,13.175-.556,2.114-.055,4.228.027,6.339.128,3.482.168,6.96.449,10.431.776a82.036,82.036,0,0,1,20.144,4.529q2.054.744,4.066,1.6,2.993,1.268,5.884,2.771a131.923,131.923,0,0,1,19.953,12.528c.738.571,1.456,1.165,2.166,1.771q1.332,1.135,2.594,2.348a36.026,36.026,0,0,1,4.247,4.857c.42.585,1.28,1.346.955,2.159C524.636,916.528,523.66,916.451,523.043,916.485Z" transform="translate(-181.681 -334.627)" fill="#474747"/>
    <path id="Path_101" data-name="Path 101" d="M1267.856,1148.316a18.388,18.388,0,0,1-5.879,1.107c-3.081-2.744-7.457-7.414-7.462-7.414C1256.238,1141.826,1264.446,1143.89,1267.856,1148.316Z" transform="translate(-900.582 -555.845)" fill="#ccc" stroke="#000" stroke-miterlimit="10" stroke-width="1"/>
    <path id="Path_102" data-name="Path 102" d="M1304.9,1185.776a12.819,12.819,0,0,0,5.885-1.11,18.692,18.692,0,0,1,5.111,10c.29,1.341-.551,1.358-1.185.943C1310.623,1192.934,1305.538,1186.037,1304.9,1185.776Z" transform="translate(-943.507 -592.197)" fill="#f2822f"/>
    <path id="Path_103" data-name="Path 103" d="M1391.075,1301.506h-7.319v5.429h6.777a7.99,7.99,0,0,0,.517-2.51A24.227,24.227,0,0,0,1391.075,1301.506Z" transform="translate(-1010.692 -691.742)" fill="#ccc" stroke="#000" stroke-miterlimit="10" stroke-width="1"/>
    <circle id="Ellipse_2" data-name="Ellipse 2" cx="15.425" cy="15.425" r="15.425" transform="translate(327.367 624.831) rotate(-45)" fill="#212121"/>
    <path id="Path_104" data-name="Path 104" d="M1172.514,1342.889a10.494,10.494,0,1,1-10.494-10.494A10.494,10.494,0,0,1,1172.514,1342.889Z" transform="translate(-812.838 -718.058)" fill="#c1a772"/>
    <path id="Path_105" data-name="Path 105" d="M1159.71,1351.476a10.9,10.9,0,1,1,10.895-10.9A10.908,10.908,0,0,1,1159.71,1351.476Zm0-20.988a10.093,10.093,0,1,0,10.093,10.093A10.1,10.1,0,0,0,1159.71,1330.488Z" transform="translate(-810.529 -715.75)"/>
    <circle id="Ellipse_3" data-name="Ellipse 3" cx="15.425" cy="15.425" r="15.425" transform="translate(207.212 624.831) rotate(-45)" fill="#212121"/>
    <path id="Path_106" data-name="Path 106" d="M360.8,1342.889A10.494,10.494,0,1,1,350.3,1332.4,10.494,10.494,0,0,1,360.8,1342.889Z" transform="translate(-121.275 -718.058)" fill="#c1a772"/>
    <path id="Path_107" data-name="Path 107" d="M347.994,1351.476a10.9,10.9,0,1,1,10.9-10.9A10.907,10.907,0,0,1,347.994,1351.476Zm0-20.988a10.093,10.093,0,1,0,10.093,10.093A10.1,10.1,0,0,0,347.994,1330.488Z" transform="translate(-118.967 -715.75)"/>
    <path id="Path_108" data-name="Path 108" d="M1473.145,852.177s-3.68,2.584-5,3.3c-.209.112-.417.219-.637.321a17.23,17.23,0,0,1-2.509.936c-6.114,1.8-14,1.059-17.064.621-.679-.1-1.241-.2-1.712-.31a4.867,4.867,0,0,1-2.279-.995c-.776-.679-.808-1.439-3.044-2.086-1.343-.391-5.188.278-6.023-2.113a28.589,28.589,0,0,0,4.836-6.81c.4-.744.8-1.546,1.187-2.407.182-.39.359-.8.53-1.214.9-2.183,2.268-5.863,3.37-8.965.332-.925.636-1.8.9-2.573s.492-1.444.658-1.942h-.4l-.075-1.787-.048-1.214-.118-.005V823.8a5.306,5.306,0,0,0-1.7-1.728c-.31-.139-1.733-.861-2.022-1.615-.155-.412-.353-.449-.915.016a1.429,1.429,0,0,0-.316.642l-.113-.947,5.43-.642c-.208-1.9-.4-3.4-.4-3.4-2.675-2.332-2.354-5.964-.61-8.687a8.505,8.505,0,0,1,.856-1.145l.61-.77,1.027-1.3.5-.674a5.069,5.069,0,0,1,3.343-2.006l-.38,2.118c-.283,2.434,1.92,4.055,5.836.819,1.369-1.129,2.509-2.14,2.509-2.14s3.782.733,5.424,1.92a1.381,1.381,0,0,1,.145.118,3.571,3.571,0,0,1,.519.546,2.5,2.5,0,0,1,.476,1.048l.016.091c.005.005.005.011.005.021l.043.251.192,1.123.637,3.712v.005l.358,2.081,1.61,9.388a4.389,4.389,0,0,1-2.386,5.044,2.68,2.68,0,0,1-1.124.236h-3.305a43.49,43.49,0,0,1,5.905,8.484,42.813,42.813,0,0,1,3.739,9.693Z" transform="translate(-1054.245 -265.794)" fill="#e5b570"/>
    <path id="Path_109" data-name="Path 109" d="M1427.689,901.672c-1.578.032-5.606.54-5.959,1.61-.022.075-.037.144-.054.219l-.342-4.408a1.108,1.108,0,0,0-1.027-1.139l-.658.048-.385-3.22a.789.789,0,0,1,.765-.9h6.045a.784.784,0,0,1,.765.7l.625,5.2.086.717Z" transform="translate(-1040.939 -344.457)" fill="#ccc"/>
    <path id="Path_110" data-name="Path 110" d="M1434.956,970.437h-6.045a.779.779,0,0,1-.765-.7l-.353-2.926.348-.027a.918.918,0,0,0,.743-.631c.123,1.476,1.07,2.921,2.546,2.856,0,0,2.1.005,4.21-.128l.08.658A.787.787,0,0,1,1434.956,970.437Z" transform="translate(-1048.211 -406.034)" fill="#ccc"/>
    <path id="Path_111" data-name="Path 111" d="M1419.659,928.634l-.978.075a.367.367,0,0,1-.342-.379l-.5-6.452a.367.367,0,0,1,.28-.427l.978-.075a1.1,1.1,0,0,1,1.026,1.138l.373,4.839A1.1,1.1,0,0,1,1419.659,928.634Z" transform="translate(-1039.731 -367.878)" fill="#f5ae9e"/>
    <path id="Path_112" data-name="Path 112" d="M1694.942,1371.79a.705.705,0,0,1-1.045.133l-3.242-2.61a5.743,5.743,0,0,0,.139,2.332c.385,1.321,1.364,2.573,1.295,3.9a3.922,3.922,0,0,1-.589,1.69,18.685,18.685,0,0,1-3.386,4.429,1.181,1.181,0,0,1-.653.39,1.548,1.548,0,0,1-.813-.225c-1.011-.487-2.15-1.118-2.471-2.2-.38-1.273.594-2.359.786-3.6.331-2.086-2.429-7.548-2.546-8.056,3,5.258,4.258-1.947,4.017-3.258-.053-.1-.235-.513-.513-1.166a5.7,5.7,0,0,1,4.809,2.937,3.756,3.756,0,0,1,.326.535c.021.075,3.829,3.669,3.841,3.68A.8.8,0,0,1,1694.942,1371.79Z" transform="translate(-1265.144 -744.602)" fill="#212121"/>
    <path id="Path_113" data-name="Path 113" d="M1519.622,1405.624c-.038.069.053,5.424.053,5.424a.779.779,0,0,1-.733.792h-.011a.778.778,0,0,1-.8-.722l-.385-4.237a5.279,5.279,0,0,0-1.546,1.69c-.663,1.187-.872,2.787-1.845,3.632a3.723,3.723,0,0,1-1.594.706,17.536,17.536,0,0,1-5.435.433,1.127,1.127,0,0,1-.717-.23,1.66,1.66,0,0,1-.4-.771c-.353-1.1-.69-2.4-.155-3.375.631-1.15,2.065-1.15,3.07-1.846,1.69-1.171,1.813-3.9,2.241-6.157.005-.037.016-.075.021-.113l.038.589c.128,1.979,2.033,2.728,4.274.679a6.282,6.282,0,0,0,1.738-4.028v-.31a4.346,4.346,0,0,1,1.8,2,10.011,10.011,0,0,1,.54,5.237A1.633,1.633,0,0,1,1519.622,1405.624Z" transform="translate(-1114.646 -773.767)" fill="#212121"/>
    <path id="Path_114" data-name="Path 114" d="M1551.322,1210.01c-.005,0-13.5-16.615-13.5-16.62-.139-.177-.267-.337-.406-.514a96.371,96.371,0,0,1-.546,9.949l-.032,8.136a6.281,6.281,0,0,1-1.739,4.028c-2.241,2.049-4.146,1.3-4.274-.679l-2.145-33.112-.134-2.9c.952.118,2.177.241,3.568.321,1.5.091,3.194.134,4.953.069a36.118,36.118,0,0,0,5.344-.551c-.241,1.979-.428,3.274-.449,3.445l-.032.4-.07.754-.032.4c4.387.84,13.068,22.825,13.512,23.617C1555.58,1208.063,1554.323,1215.268,1551.322,1210.01Z" transform="translate(-1134.049 -586.636)" fill="#f5ae9e"/>
    <path id="Path_115" data-name="Path 115" d="M1445.879,934.916c-1.176.86-8.26.84-8.26.84-1.919.088-2.947-2.382-2.429-4.156.4-1.2,5.413-1.69,6.412-1.6a14.876,14.876,0,0,1-.705-1.452,1.505,1.505,0,0,1,.346-1.081c.558-.468.756-.431.914-.019.289.755,1.71,1.48,2.018,1.618a5.207,5.207,0,0,1,1.7,1.724Z" transform="translate(-1054.399 -372.776)" fill="#f5ae9e"/>
    <path id="Path_116" data-name="Path 116" d="M669.928,502.983a15.628,15.628,0,0,0-29.207-2.664c-3.06,6.435-.5,11.613,2.691,17.353l9.891,17.781a1.918,1.918,0,0,0,3.354,0l10.436-18.771C669.6,512.179,671.3,508.242,669.928,502.983Zm-15.047,14.491a11.108,11.108,0,1,1,11.1-11.11A11.111,11.111,0,0,1,654.881,517.474Z" transform="translate(-376.474 -1.556)" fill="#f2822f"/>
    <g id="Group_100" data-name="Group 100" transform="translate(382.248 538.943)">
      <g id="Group_99" data-name="Group 99" transform="translate(0 0)">
        <g id="Group_82" data-name="Group 82" transform="translate(10.747 3.833)">
          <path id="Path_117" data-name="Path 117" d="M1519.07,848.966a.669.669,0,1,0,.669.669A.669.669,0,0,0,1519.07,848.966Z" transform="translate(-1518.401 -848.966)" fill="#ffd07f"/>
          <path id="Path_118" data-name="Path 118" d="M1554.344,848.966a.669.669,0,1,0,.668.669A.669.669,0,0,0,1554.344,848.966Z" transform="translate(-1548.454 -848.966)" fill="#ffd07f"/>
          <path id="Path_119" data-name="Path 119" d="M1589.618,848.966a.669.669,0,1,0,.668.669A.669.669,0,0,0,1589.618,848.966Z" transform="translate(-1578.506 -848.966)" fill="#ffd07f"/>
          <path id="Path_120" data-name="Path 120" d="M1624.893,848.966a.669.669,0,1,0,.669.669A.669.669,0,0,0,1624.893,848.966Z" transform="translate(-1608.559 -848.966)" fill="#ffd07f"/>
        </g>
        <g id="Group_83" data-name="Group 83" transform="translate(10.747 22.642)">
          <path id="Path_121" data-name="Path 121" d="M1519.07,976.049a.669.669,0,1,0,.669.669A.669.669,0,0,0,1519.07,976.049Z" transform="translate(-1518.401 -976.046)" fill="#ffd07f"/>
          <path id="Path_122" data-name="Path 122" d="M1554.344,976.049a.669.669,0,1,0,.668.669A.669.669,0,0,0,1554.344,976.049Z" transform="translate(-1548.454 -976.046)" fill="#ffd07f"/>
          <path id="Path_123" data-name="Path 123" d="M1589.618,976.049a.669.669,0,1,0,.668.669A.669.669,0,0,0,1589.618,976.049Z" transform="translate(-1578.506 -976.046)" fill="#ffd07f"/>
          <path id="Path_124" data-name="Path 124" d="M1625.649,976.588h-1.305a.661.661,0,0,1,1.305,0Z" transform="translate(-1608.662 -976.031)" fill="#ffd07f"/>
        </g>
        <g id="Group_84" data-name="Group 84" transform="translate(10.747 16.374)">
          <path id="Path_125" data-name="Path 125" d="M1519.07,933.688a.669.669,0,1,0,.669.669A.669.669,0,0,0,1519.07,933.688Z" transform="translate(-1518.401 -933.688)" fill="#ffd07f"/>
          <path id="Path_126" data-name="Path 126" d="M1554.344,933.688a.669.669,0,1,0,.668.669A.669.669,0,0,0,1554.344,933.688Z" transform="translate(-1548.454 -933.688)" fill="#ffd07f"/>
          <path id="Path_127" data-name="Path 127" d="M1589.618,933.688a.669.669,0,1,0,.668.669A.669.669,0,0,0,1589.618,933.688Z" transform="translate(-1578.506 -933.688)" fill="#ffd07f"/>
          <path id="Path_128" data-name="Path 128" d="M1624.893,933.688a.669.669,0,1,0,.669.669A.669.669,0,0,0,1624.893,933.688Z" transform="translate(-1608.559 -933.688)" fill="#ffd07f"/>
        </g>
        <g id="Group_85" data-name="Group 85" transform="translate(5.882 35.186)">
          <path id="Path_129" data-name="Path 129" d="M1486.2,1060.772a.669.669,0,1,0,.668.669A.669.669,0,0,0,1486.2,1060.772Z" transform="translate(-1485.536 -1060.772)" fill="#ffd07f"/>
          <path id="Path_130" data-name="Path 130" d="M1519.07,1060.772a.669.669,0,1,0,.669.669A.669.669,0,0,0,1519.07,1060.772Z" transform="translate(-1513.536 -1060.772)" fill="#ffd07f"/>
          <path id="Path_131" data-name="Path 131" d="M1554.344,1060.772a.669.669,0,1,0,.668.669A.669.669,0,0,0,1554.344,1060.772Z" transform="translate(-1543.589 -1060.772)" fill="#ffd07f"/>
          <path id="Path_132" data-name="Path 132" d="M1589.618,1060.772a.669.669,0,1,0,.668.669A.669.669,0,0,0,1589.618,1060.772Z" transform="translate(-1573.641 -1060.772)" fill="#ffd07f"/>
          <path id="Path_133" data-name="Path 133" d="M1624.893,1060.772a.669.669,0,1,0,.669.669A.669.669,0,0,0,1624.893,1060.772Z" transform="translate(-1603.695 -1060.772)" fill="#ffd07f"/>
          <path id="Path_134" data-name="Path 134" d="M1658.058,1060.772a.669.669,0,1,0,.669.669A.669.669,0,0,0,1658.058,1060.772Z" transform="translate(-1631.951 -1060.772)" fill="#ffd07f"/>
        </g>
        <g id="Group_86" data-name="Group 86" transform="translate(10.747 10.104)">
          <path id="Path_135" data-name="Path 135" d="M1519.07,891.327a.669.669,0,1,0,.669.669A.669.669,0,0,0,1519.07,891.327Z" transform="translate(-1518.401 -891.327)" fill="#ffd07f"/>
          <path id="Path_136" data-name="Path 136" d="M1554.344,891.327a.669.669,0,1,0,.668.669A.669.669,0,0,0,1554.344,891.327Z" transform="translate(-1548.454 -891.327)" fill="#ffd07f"/>
          <path id="Path_137" data-name="Path 137" d="M1589.618,891.327a.669.669,0,1,0,.668.669A.669.669,0,0,0,1589.618,891.327Z" transform="translate(-1578.506 -891.327)" fill="#ffd07f"/>
          <path id="Path_138" data-name="Path 138" d="M1624.893,891.327a.669.669,0,1,0,.669.669A.669.669,0,0,0,1624.893,891.327Z" transform="translate(-1608.559 -891.327)" fill="#ffd07f"/>
        </g>
        <g id="Group_87" data-name="Group 87" transform="translate(10.747 28.916)">
          <path id="Path_139" data-name="Path 139" d="M1519.07,1018.411a.669.669,0,1,0,.669.669A.669.669,0,0,0,1519.07,1018.411Z" transform="translate(-1518.401 -1018.411)" fill="#ffd07f"/>
          <path id="Path_140" data-name="Path 140" d="M1554.344,1018.411a.669.669,0,1,0,.668.669A.669.669,0,0,0,1554.344,1018.411Z" transform="translate(-1548.454 -1018.411)" fill="#ffd07f"/>
          <path id="Path_141" data-name="Path 141" d="M1589.618,1018.411a.669.669,0,1,0,.668.669A.669.669,0,0,0,1589.618,1018.411Z" transform="translate(-1578.506 -1018.411)" fill="#ffd07f"/>
          <path id="Path_142" data-name="Path 142" d="M1624.893,1018.411a.669.669,0,1,0,.669.669A.669.669,0,0,0,1624.893,1018.411Z" transform="translate(-1608.559 -1018.411)" fill="#ffd07f"/>
        </g>
        <g id="Group_88" data-name="Group 88" transform="translate(8.584)">
          <path id="Path_143" data-name="Path 143" d="M1505.384,829.019a1.366,1.366,0,0,1-1.364,1.364,1.087,1.087,0,0,1-.23-.021,8.488,8.488,0,0,1,.856-1.145l.61-.77A1.281,1.281,0,0,1,1505.384,829.019Z" transform="translate(-1503.79 -827.651)" fill="#ffd07f"/>
          <path id="Path_144" data-name="Path 144" d="M1532.73,823.069a1.367,1.367,0,1,0,1.364,1.369A1.368,1.368,0,0,0,1532.73,823.069Z" transform="translate(-1527.284 -823.069)" fill="#ffd07f"/>
          <path id="Path_145" data-name="Path 145" d="M1567.952,823.069a1.367,1.367,0,1,0,1.364,1.369A1.368,1.368,0,0,0,1567.952,823.069Z" transform="translate(-1557.292 -823.069)" fill="#ffd07f"/>
          <path id="Path_146" data-name="Path 146" d="M1603.174,823.069a1.367,1.367,0,1,0,1.364,1.369A1.368,1.368,0,0,0,1603.174,823.069Z" transform="translate(-1587.301 -823.069)" fill="#ffd07f"/>
          <path id="Path_147" data-name="Path 147" d="M1638.424,826.935h-.032a1.365,1.365,0,0,1-.7-2.536,2.5,2.5,0,0,1,.476,1.048Z" transform="translate(-1617.305 -824.202)" fill="#ffd07f"/>
        </g>
        <g id="Group_89" data-name="Group 89" transform="translate(7.452 6.268)">
          <path id="Path_148" data-name="Path 148" d="M1497.508,865.43a1.367,1.367,0,1,0,1.364,1.37A1.367,1.367,0,0,0,1497.508,865.43Z" transform="translate(-1496.144 -865.428)" fill="#ffd07f"/>
          <path id="Path_149" data-name="Path 149" d="M1532.73,865.43a1.367,1.367,0,1,0,1.364,1.37A1.368,1.368,0,0,0,1532.73,865.43Z" transform="translate(-1526.152 -865.428)" fill="#ffd07f"/>
          <path id="Path_150" data-name="Path 150" d="M1567.952,865.43a1.367,1.367,0,1,0,1.364,1.37A1.368,1.368,0,0,0,1567.952,865.43Z" transform="translate(-1556.16 -865.428)" fill="#ffd07f"/>
          <path id="Path_151" data-name="Path 151" d="M1603.174,865.43a1.367,1.367,0,1,0,1.364,1.37A1.368,1.368,0,0,0,1603.174,865.43Z" transform="translate(-1586.169 -865.428)" fill="#ffd07f"/>
          <path id="Path_152" data-name="Path 152" d="M1639.419,867.678a1.345,1.345,0,0,1-1.027.471,1.311,1.311,0,0,1-.813-.278,1.365,1.365,0,0,1,.813-2.455,1.357,1.357,0,0,1,.669.176v.005Z" transform="translate(-1616.174 -865.415)" fill="#ffd07f"/>
        </g>
        <g id="Group_90" data-name="Group 90" transform="translate(7.452 31.353)">
          <path id="Path_153" data-name="Path 153" d="M1497.508,1034.875a1.367,1.367,0,1,0,1.364,1.369A1.367,1.367,0,0,0,1497.508,1034.875Z" transform="translate(-1496.144 -1034.875)" fill="#ffd07f"/>
          <path id="Path_154" data-name="Path 154" d="M1532.73,1034.875a1.367,1.367,0,1,0,1.364,1.369A1.368,1.368,0,0,0,1532.73,1034.875Z" transform="translate(-1526.152 -1034.875)" fill="#ffd07f"/>
          <path id="Path_155" data-name="Path 155" d="M1567.952,1034.875a1.367,1.367,0,1,0,1.364,1.369A1.368,1.368,0,0,0,1567.952,1034.875Z" transform="translate(-1556.16 -1034.875)" fill="#ffd07f"/>
          <path id="Path_156" data-name="Path 156" d="M1603.174,1034.875a1.367,1.367,0,1,0,1.364,1.369A1.368,1.368,0,0,0,1603.174,1034.875Z" transform="translate(-1586.169 -1034.875)" fill="#ffd07f"/>
          <path id="Path_157" data-name="Path 157" d="M1638.4,1034.875a1.367,1.367,0,1,0,1.364,1.369A1.367,1.367,0,0,0,1638.4,1034.875Z" transform="translate(-1616.177 -1034.875)" fill="#ffd07f"/>
        </g>
        <g id="Group_91" data-name="Group 91" transform="translate(8.806 25.082)">
          <path id="Path_158" data-name="Path 158" d="M1507.162,994.219a1.367,1.367,0,0,1-1.364,1.364,1.322,1.322,0,0,1-.508-.1c.332-.925.636-1.8.9-2.573A1.371,1.371,0,0,1,1507.162,994.219Z" transform="translate(-1505.29 -992.85)" fill="#ffd07f"/>
          <path id="Path_159" data-name="Path 159" d="M1532.73,992.514a1.367,1.367,0,1,0,1.364,1.37A1.368,1.368,0,0,0,1532.73,992.514Z" transform="translate(-1527.506 -992.514)" fill="#ffd07f"/>
          <path id="Path_160" data-name="Path 160" d="M1567.952,992.514a1.367,1.367,0,1,0,1.364,1.37A1.368,1.368,0,0,0,1567.952,992.514Z" transform="translate(-1557.514 -992.514)" fill="#ffd07f"/>
          <path id="Path_161" data-name="Path 161" d="M1603.174,992.514a1.367,1.367,0,1,0,1.364,1.37A1.368,1.368,0,0,0,1603.174,992.514Z" transform="translate(-1587.523 -992.514)" fill="#ffd07f"/>
        </g>
        <g id="Group_92" data-name="Group 92" transform="translate(9.306 18.812)">
          <path id="Path_162" data-name="Path 162" d="M1509.541,953.4a1.526,1.526,0,0,1-.053.385v.005a1.366,1.366,0,0,1-.728.84l-.091-2.236.385-.037a1.354,1.354,0,0,1,.375.5A1.306,1.306,0,0,1,1509.541,953.4Z" transform="translate(-1508.669 -952.034)" fill="#ffd07f"/>
          <path id="Path_163" data-name="Path 163" d="M1532.73,950.153a1.367,1.367,0,1,0,1.364,1.369A1.368,1.368,0,0,0,1532.73,950.153Z" transform="translate(-1528.006 -950.153)" fill="#ffd07f"/>
          <path id="Path_164" data-name="Path 164" d="M1567.952,950.153a1.367,1.367,0,1,0,1.364,1.369A1.368,1.368,0,0,0,1567.952,950.153Z" transform="translate(-1558.014 -950.153)" fill="#ffd07f"/>
          <path id="Path_165" data-name="Path 165" d="M1603.174,950.153a1.367,1.367,0,1,0,1.364,1.369A1.368,1.368,0,0,0,1603.174,950.153Z" transform="translate(-1588.023 -950.153)" fill="#ffd07f"/>
          <path id="Path_166" data-name="Path 166" d="M1638.4,950.153a1.367,1.367,0,1,0,1.364,1.369A1.367,1.367,0,0,0,1638.4,950.153Z" transform="translate(-1618.031 -950.153)" fill="#ffd07f"/>
        </g>
        <g id="Group_93" data-name="Group 93" transform="translate(12.666 12.541)">
          <path id="Path_167" data-name="Path 167" d="M1532.73,907.792a1.367,1.367,0,1,0,1.364,1.369A1.368,1.368,0,0,0,1532.73,907.792Z" transform="translate(-1531.366 -907.792)" fill="#ffd07f"/>
          <path id="Path_168" data-name="Path 168" d="M1567.952,907.792a1.367,1.367,0,1,0,1.364,1.369A1.367,1.367,0,0,0,1567.952,907.792Z" transform="translate(-1561.374 -907.792)" fill="#ffd07f"/>
          <path id="Path_169" data-name="Path 169" d="M1603.174,907.792a1.367,1.367,0,1,0,1.364,1.369A1.367,1.367,0,0,0,1603.174,907.792Z" transform="translate(-1591.383 -907.792)" fill="#ffd07f"/>
          <path id="Path_170" data-name="Path 170" d="M1638.4,907.792a1.367,1.367,0,1,0,1.364,1.369A1.367,1.367,0,0,0,1638.4,907.792Z" transform="translate(-1621.391 -907.792)" fill="#ffd07f"/>
        </g>
        <g id="Group_94" data-name="Group 94" transform="translate(3.603 37.623)">
          <path id="Path_171" data-name="Path 171" d="M1471.887,1081.366a1.366,1.366,0,0,1-1.364,1.364,1.317,1.317,0,0,1-.385-.059c.4-.744.8-1.546,1.187-2.407A1.35,1.35,0,0,1,1471.887,1081.366Z" transform="translate(-1470.138 -1079.816)" fill="#ffd07f"/>
          <path id="Path_172" data-name="Path 172" d="M1497.508,1077.236a1.367,1.367,0,1,0,1.364,1.369A1.367,1.367,0,0,0,1497.508,1077.236Z" transform="translate(-1492.295 -1077.236)" fill="#ffd07f"/>
          <path id="Path_173" data-name="Path 173" d="M1532.73,1077.236a1.367,1.367,0,1,0,1.364,1.369A1.368,1.368,0,0,0,1532.73,1077.236Z" transform="translate(-1522.303 -1077.236)" fill="#ffd07f"/>
          <path id="Path_174" data-name="Path 174" d="M1567.952,1077.236a1.367,1.367,0,1,0,1.364,1.369A1.368,1.368,0,0,0,1567.952,1077.236Z" transform="translate(-1552.311 -1077.236)" fill="#ffd07f"/>
          <path id="Path_175" data-name="Path 175" d="M1603.174,1077.236a1.367,1.367,0,1,0,1.364,1.369A1.368,1.368,0,0,0,1603.174,1077.236Z" transform="translate(-1582.319 -1077.236)" fill="#ffd07f"/>
          <path id="Path_176" data-name="Path 176" d="M1638.4,1077.236a1.367,1.367,0,1,0,1.364,1.369A1.367,1.367,0,0,0,1638.4,1077.236Z" transform="translate(-1612.327 -1077.236)" fill="#ffd07f"/>
        </g>
        <g id="Group_95" data-name="Group 95" transform="translate(0 46.823)">
          <path id="Path_177" data-name="Path 177" d="M1483.8,1143.906a.669.669,0,1,0,.669.669A.669.669,0,0,0,1483.8,1143.906Z" transform="translate(-1477.602 -1143.237)" fill="#ffd07f"/>
          <path id="Path_178" data-name="Path 178" d="M1446.469,1139.389a.669.669,0,1,0,.669.669A.669.669,0,0,0,1446.469,1139.389Z" transform="translate(-1445.8 -1139.389)" fill="#ffd07f"/>
          <path id="Path_179" data-name="Path 179" d="M1519.07,1143.906a.669.669,0,1,0,.669.669A.669.669,0,0,0,1519.07,1143.906Z" transform="translate(-1507.654 -1143.237)" fill="#ffd07f"/>
          <path id="Path_180" data-name="Path 180" d="M1554.344,1143.906a.669.669,0,1,0,.668.669A.669.669,0,0,0,1554.344,1143.906Z" transform="translate(-1537.707 -1143.237)" fill="#ffd07f"/>
          <path id="Path_181" data-name="Path 181" d="M1589.618,1143.906a.669.669,0,1,0,.668.669A.669.669,0,0,0,1589.618,1143.906Z" transform="translate(-1567.759 -1143.237)" fill="#ffd07f"/>
          <path id="Path_182" data-name="Path 182" d="M1624.893,1143.906a.669.669,0,1,0,.669.669A.669.669,0,0,0,1624.893,1143.906Z" transform="translate(-1597.813 -1143.237)" fill="#ffd07f"/>
          <path id="Path_183" data-name="Path 183" d="M1660.166,1143.906a.669.669,0,1,0,.668.669A.669.669,0,0,0,1660.166,1143.906Z" transform="translate(-1627.865 -1143.237)" fill="#ffd07f"/>
        </g>
        <g id="Group_96" data-name="Group 96" transform="translate(5.525 41.222)">
          <path id="Path_184" data-name="Path 184" d="M1483.8,1101.545a.669.669,0,1,0,.669.669A.669.669,0,0,0,1483.8,1101.545Z" transform="translate(-1483.127 -1101.545)" fill="#ffd07f"/>
          <path id="Path_185" data-name="Path 185" d="M1519.07,1101.545a.669.669,0,1,0,.669.669A.669.669,0,0,0,1519.07,1101.545Z" transform="translate(-1513.18 -1101.545)" fill="#ffd07f"/>
          <path id="Path_186" data-name="Path 186" d="M1554.344,1101.545a.669.669,0,1,0,.668.669A.669.669,0,0,0,1554.344,1101.545Z" transform="translate(-1543.232 -1101.545)" fill="#ffd07f"/>
          <path id="Path_187" data-name="Path 187" d="M1589.618,1101.545a.669.669,0,1,0,.668.669A.669.669,0,0,0,1589.618,1101.545Z" transform="translate(-1573.284 -1101.545)" fill="#ffd07f"/>
          <path id="Path_188" data-name="Path 188" d="M1624.893,1101.545a.669.669,0,1,0,.669.669A.669.669,0,0,0,1624.893,1101.545Z" transform="translate(-1603.338 -1101.545)" fill="#ffd07f"/>
          <path id="Path_189" data-name="Path 189" d="M1660.166,1101.545a.669.669,0,1,0,.668.669A.669.669,0,0,0,1660.166,1101.545Z" transform="translate(-1633.39 -1101.545)" fill="#ffd07f"/>
        </g>
        <g id="Group_97" data-name="Group 97" transform="translate(2.239 43.659)">
          <path id="Path_190" data-name="Path 190" d="M1462.287,1118.01a1.367,1.367,0,1,0,1.364,1.369A1.367,1.367,0,0,0,1462.287,1118.01Z" transform="translate(-1460.923 -1118.01)" fill="#ffd07f"/>
          <path id="Path_191" data-name="Path 191" d="M1497.508,1118.01a1.367,1.367,0,1,0,1.364,1.369A1.367,1.367,0,0,0,1497.508,1118.01Z" transform="translate(-1490.931 -1118.01)" fill="#ffd07f"/>
          <path id="Path_192" data-name="Path 192" d="M1532.73,1118.01a1.367,1.367,0,1,0,1.364,1.369A1.368,1.368,0,0,0,1532.73,1118.01Z" transform="translate(-1520.939 -1118.01)" fill="#ffd07f"/>
          <path id="Path_193" data-name="Path 193" d="M1567.952,1118.01a1.367,1.367,0,1,0,1.364,1.369A1.367,1.367,0,0,0,1567.952,1118.01Z" transform="translate(-1550.947 -1118.01)" fill="#ffd07f"/>
          <path id="Path_194" data-name="Path 194" d="M1603.174,1118.01a1.367,1.367,0,1,0,1.364,1.369A1.367,1.367,0,0,0,1603.174,1118.01Z" transform="translate(-1580.955 -1118.01)" fill="#ffd07f"/>
          <path id="Path_195" data-name="Path 195" d="M1639.367,1118.354a1.413,1.413,0,0,0-1.972,2.021A1.413,1.413,0,0,0,1639.367,1118.354Z" transform="translate(-1610.964 -1118.009)" fill="#ffd07f"/>
          <path id="Path_196" data-name="Path 196" d="M1668.758,1118.354a1.413,1.413,0,0,0-1.972,2.021A1.413,1.413,0,0,0,1668.758,1118.354Z" transform="translate(-1636.004 -1118.009)" fill="#ffd07f"/>
        </g>
        <g id="Group_98" data-name="Group 98" transform="translate(7.869 49.57)">
          <path id="Path_197" data-name="Path 197" d="M1501.686,1160.526a1.343,1.343,0,0,1-.449,1.006,4.867,4.867,0,0,1-2.279-.995v-.011a1.364,1.364,0,1,1,2.728,0Z" transform="translate(-1498.958 -1158.978)" fill="#ffd07f"/>
          <path id="Path_198" data-name="Path 198" d="M1532.73,1157.946a1.367,1.367,0,1,0,1.364,1.369A1.368,1.368,0,0,0,1532.73,1157.946Z" transform="translate(-1526.569 -1157.946)" fill="#ffd07f"/>
          <path id="Path_199" data-name="Path 199" d="M1567.952,1160.371a1.367,1.367,0,1,0,1.364,1.369A1.367,1.367,0,0,0,1567.952,1160.371Z" transform="translate(-1556.577 -1160.012)" fill="#ffd07f"/>
          <path id="Path_200" data-name="Path 200" d="M1603.706,1158.048a1.389,1.389,0,0,0-1.649,2.094.881.881,0,0,0,.285.287,1.387,1.387,0,0,0,2.038-1.772A1.223,1.223,0,0,0,1603.706,1158.048Z" transform="translate(-1586.585 -1157.947)" fill="#ffd07f"/>
          <path id="Path_201" data-name="Path 201" d="M1637.628,1159.389a17.21,17.21,0,0,1-2.509.936,1.3,1.3,0,0,1-.2-.7,1.363,1.363,0,0,1,2.707-.241Z" transform="translate(-1614.795 -1158.214)" fill="#ffd07f"/>
        </g>
      </g>
    </g>
    <path id="Path_202" data-name="Path 202" d="M1520.893,703.868c-.305,1.1-.92,2.065-1.236,3.156a18.3,18.3,0,0,1-1.535,3.7,11.2,11.2,0,0,1-1.027,1.161c.834,2.439,1.722,4.146,1.7,4.638,0,0-1.139,1.011-2.509,2.14-3.916,3.236-6.12,1.615-5.836-.819l.588-3.3c-2.268-.273-4.007-2.07-5.178-4.542a15.2,15.2,0,0,1-.872-2.343,8.6,8.6,0,0,1-.369-2.38c.016-1.648.032-3.054.128-4.247a7.184,7.184,0,0,0,1.343.6c1.589.6,3.728-.439,5.4-.733,3.83-.679,6.125,2.723,6.125,2.723C1518.213,701.183,1521.524,701.563,1520.893,703.868Z" transform="translate(-1113.666 -179.964)" fill="#f5ae9e"/>
    <path id="Path_203" data-name="Path 203" d="M1530.574,729.8c-.395-.024-.733-.172-.821-.542a1.371,1.371,0,0,1,0-.473q.2-1.706.4-3.411a.787.787,0,0,1,.079-.308.394.394,0,0,1,.711.084.788.788,0,0,1,.007.314l-.4,3.515a2.665,2.665,0,0,0,.964-.184,1.1,1.1,0,0,1,.3-.118.411.411,0,0,1,.423.52.624.624,0,0,1-.29.3A2.761,2.761,0,0,1,1530.574,729.8Z" transform="translate(-1135.06 -200.472)" fill="#212121"/>
    <path id="Path_204" data-name="Path 204" d="M1532.371,667.864l-4.766,2.413-5.962,1.881c-.219-.358-.371-2.566-.569-2.93a4.5,4.5,0,0,1-.2-1.168,3.7,3.7,0,0,0-1.2-2.03c-1.644-1.188-5.424-1.921-5.424-1.921a43.425,43.425,0,0,1-1.583-4.327,18.061,18.061,0,0,0,2.444-5.167c.316-1.091.931-2.054,1.236-3.156.631-2.306-2.68-2.685-3.274-.246,0,0-2.295-3.4-6.125-2.723-1.674.294-3.814,1.337-5.4.733a4.08,4.08,0,0,1-1.888-1.1c-1.209-1.776.776-4.2,2.4-4.991a9.575,9.575,0,0,1,4.959-3.343,8.956,8.956,0,0,1,7.377.631,11.875,11.875,0,0,1,4.461,5.36c.979,2.188,1.022,4.627,2.311,6.671.54.851,1.888,1.113,2.685,1.674a5.217,5.217,0,0,1,2.386,3.242,24.969,24.969,0,0,0,.107,2.691c.546,2.07,3.054,2.578,4.386,3.98A7.246,7.246,0,0,1,1532.371,667.864Z" transform="translate(-1109.123 -127.554)" fill="#f7af4d"/>
    <path id="Path_205" data-name="Path 205" d="M1599.187,720.264a.269.269,0,0,1-.215-.425,2.464,2.464,0,0,0,.542-1.252.267.267,0,0,1,.532-.055,2.854,2.854,0,0,1-.643,1.624A.267.267,0,0,1,1599.187,720.264Z" transform="translate(-1194.007 -194.865)" fill="#212121"/>
    <path id="Path_206" data-name="Path 206" d="M1516.017,728.848a.375.375,0,0,1-.4-.348s-.06-.572-.06-.574a.4.4,0,0,1,.8-.082l.06.574A.385.385,0,0,1,1516.017,728.848Z" transform="translate(-1122.983 -202.7)" fill="#212121"/>
    <path id="Path_207" data-name="Path 207" d="M1555.565,728.172a.371.371,0,0,1-.4-.345l-.055-.529a.4.4,0,0,1,.8-.083s.055.528.055.529A.387.387,0,0,1,1555.565,728.172Z" transform="translate(-1156.681 -202.164)" fill="#212121"/>
    <path id="Path_208" data-name="Path 208" d="M1626.19,731.98a.266.266,0,0,1-.167-.058,7.246,7.246,0,0,1-1.455-1.461,7.544,7.544,0,0,1-1.056-2.73.267.267,0,1,1,.522-.115,7.074,7.074,0,0,0,.972,2.538,6.671,6.671,0,0,0,1.35,1.349.267.267,0,0,1-.167.476Z" transform="translate(-1214.953 -202.623)" fill="#212121"/>
    <path id="Path_209" data-name="Path 209" d="M1533.851,765.689a2.716,2.716,0,0,1-.711,1.589,2.766,2.766,0,0,1-1.621.556,1.711,1.711,0,0,1-.738-.155.4.4,0,0,1,.337-.728,1.719,1.719,0,0,0,1.525-.3.85.85,0,0,0,.214-.332,3.291,3.291,0,0,1-1.294.262,2.732,2.732,0,0,1-.669-.08,2.252,2.252,0,0,1-.866-.417.4.4,0,0,1,.5-.626,1.482,1.482,0,0,0,.562.267,2.275,2.275,0,0,0,1.808-.353C1533.186,765.12,1533.929,765.164,1533.851,765.689Z" transform="translate(-1135.182 -234.841)" fill="#212121"/>
    <path id="Path_210" data-name="Path 210" d="M1510.39,716.192a.4.4,0,0,1-.081-.794l1.616-.338a.4.4,0,1,1,.164.785S1510.417,716.192,1510.39,716.192Z" transform="translate(-1118.24 -192.097)" fill="#212121"/>
    <path id="Path_211" data-name="Path 211" d="M1549.983,713.157c-.021,0-1.673-.268-1.673-.268a.4.4,0,1,1,.13-.792l1.608.263a.4.4,0,0,1-.064.8Z" transform="translate(-1150.602 -189.576)" fill="#212121"/>
    <path id="Path_212" data-name="Path 212" d="M1548,902.208a11.6,11.6,0,0,1-4.79-1.05.268.268,0,0,1,.224-.486,10.941,10.941,0,0,0,5.573.951.271.271,0,0,1,.292.239.267.267,0,0,1-.239.293A10.61,10.61,0,0,1,1548,902.208Z" transform="translate(-1146.411 -350.22)" fill="#2b2150"/>
    <path id="Path_213" data-name="Path 213" d="M1527.192,679.607c-.972,0-1.945-.048-2.907-.145s-1.55-.473-1.654-1.061a.267.267,0,0,1,.527-.093c.079.446.774.581,1.181.622a28.682,28.682,0,0,0,4.268.107.264.264,0,0,1,.28.254.267.267,0,0,1-.254.281Q1527.914,679.608,1527.192,679.607Z" transform="translate(-1129.007 -160.605)" fill="#212121"/>
    <path id="Path_214" data-name="Path 214" d="M522.9,911.543c-6.077-9.035-21.017-17.685-29.383-22.039a82.092,82.092,0,0,0-30.239-8.939c-6.162-.583-11.816-.92-15.513-.92-.46,0-.9.005-1.305.016a161.415,161.415,0,0,0-17.529,1.032,20.119,20.119,0,0,0-10.9,4.825c-3.926,3.424-9.281,18.557-9.281,18.557l.021,13.694a9.931,9.931,0,0,0,2.867,6.965c14.63,14.689,18.294,24.425,18.332,24.521a.264.264,0,0,0,.246.177l27.763.342c.171.005.235-.161.262-.316.005-.064.011-.123.011-.171V909.1l46.228,4.092v2.643a1.773,1.773,0,0,0,1.771,1.771h1.76c.16,1.332.246,3.579.342,6.1.091,2.327.193,4.959.374,7.382.385,5.221-.53,12.458-2.038,16.123a12.419,12.419,0,0,1-1.68,3.332s-45.137-.9-45.217-.9a.268.268,0,0,0-.011.535l45.3.9c.144,0,.588,0,2.1-3.664,1.541-3.729,2.471-11.073,2.081-16.369-.182-2.407-.284-5.039-.374-7.361-.1-2.493-.182-4.713-.337-6.082h.984a4.791,4.791,0,0,0,4.568-3.349c1.348.128,2.167.209,2.685.262a29.665,29.665,0,0,0,3.087.1c2.252,0,3.322-.118,3.691-.813C523.9,913.179,523.45,912.345,522.9,911.543Zm-65.18,37.691-27.313-.332c-.562-1.38-4.729-10.832-18.385-24.542a9.415,9.415,0,0,1-2.712-6.59V904.754l48.411,4.3Zm0-64.956v23.97l-36.118-3.194c2.257-5.857,4.772-11.79,9.613-16.037a13.152,13.152,0,0,1,1.578-1.2c3.536-2.289,7.922-3,12.036-3.418,1.353-.139,2.707-.235,4.066-.3,1.075-.053,2.2-.08,3.354-.08,1.8,0,3.632.069,5.478.2A.2.2,0,0,0,457.724,884.278Zm46.763,25.414v2.7L458.259,908.3V884.262a74.2,74.2,0,0,1,20.958,4.525,65.064,65.064,0,0,1,26.131,19.386A1.768,1.768,0,0,0,504.487,909.692Zm9.046,3.113a4.091,4.091,0,0,1-3.991,4h-3.284a.968.968,0,0,1-.968-.968v-6.141a.968.968,0,0,1,.968-.968h3.284a4.15,4.15,0,0,1,3.991,4.028Zm9.329.626c-.2.385-2.076.385-2.974.385a55.817,55.817,0,0,1-5.6-.353c.166.016-.091-1.894-.139-2.054a4.851,4.851,0,0,0-4.611-3.488s-3.349,0-3.381.005a65.762,65.762,0,0,0-26.65-19.883c-7.43-2.979-17.877-4.83-27.26-4.83-1.166,0-2.305.027-3.391.086-4.868.262-10.046.7-14.534,2.782a18.067,18.067,0,0,0-6.676,5.665,51.3,51.3,0,0,0-6.879,13.245l-11.244-.968c.1-.284,5.253-14.6,9.035-17.9a19.371,19.371,0,0,1,10.49-4.638,159.556,159.556,0,0,1,17.433-1.022q.6-.016,1.284-.016c3.67,0,9.3.332,15.438.92a81.3,81.3,0,0,1,29.945,8.848c8.3,4.317,23.109,12.892,29.089,21.771C522.915,912.992,522.921,913.324,522.862,913.431Z" transform="translate(-180.018 -332.327)"/>
    <path id="Path_215" data-name="Path 215" d="M1271.043,1155.979a20.044,20.044,0,0,0-3.67-8.441,11.62,11.62,0,0,0-.845-1.155c-5.431-6.41-13.935-7-14.3-7.024a.4.4,0,0,0-.311.679l.07.08c2.995,3.161,6.391,6.02,9.222,9.308,1.958,2.273,5.236,6.081,8.039,7.916C1270.429,1158.118,1271.31,1157.214,1271.043,1155.979Zm-17.786-15.689a21.753,21.753,0,0,1,11.715,5.6,12.672,12.672,0,0,1-5.167.883C1257.611,1144.8,1254.776,1141.879,1253.257,1140.29Zm16.949,16.466c-.092.09-.258.084-.522-.087-2.707-1.771-5.938-5.52-7.874-7.767-.508-.588-.888-1.027-1.177-1.343a12.406,12.406,0,0,0,4.825-1.011,18.368,18.368,0,0,1,4.8,9.6A.716.716,0,0,1,1270.206,1156.756Z" transform="translate(-898.265 -553.596)" fill="#2b2150"/>
    <path id="Path_216" data-name="Path 216" d="M388,1427.042a7.7,7.7,0,0,1-3.478-.816.882.882,0,0,1-.363-1.2l2.145-3.713a.4.4,0,0,1,.515-.164,2.912,2.912,0,0,0,2.355,0,.4.4,0,0,1,.515.164l2.139,3.7a.872.872,0,0,1-.344,1.207A7.766,7.766,0,0,1,388,1427.042Zm-1.175-5.026s-1.974,3.44-1.968,3.462a6.712,6.712,0,0,0,3.142.762,6.966,6.966,0,0,0,3.121-.731c.023-.038-1.954-3.492-1.954-3.492A3.752,3.752,0,0,1,386.825,1422.016Z" transform="translate(-158.972 -793.646)"/>
    <path id="Path_217" data-name="Path 217" d="M386.653,1351.342a.411.411,0,0,1-.348-.2l-2.139-3.7a.887.887,0,0,1,.352-1.207,7.823,7.823,0,0,1,6.96,0,.873.873,0,0,1,.351,1.208l-2.14,3.7a.4.4,0,0,1-.515.164,2.578,2.578,0,0,0-1.524-.158A4.446,4.446,0,0,1,386.653,1351.342ZM388,1346.22a6.913,6.913,0,0,0-3.119.731c-.029.053,1.945,3.493,1.945,3.493a3.75,3.75,0,0,1,2.341,0l1.966-3.4a.079.079,0,0,0,.008-.062A6.775,6.775,0,0,0,388,1346.22Z" transform="translate(-158.973 -729.154)"/>
    <path id="Path_218" data-name="Path 218" d="M432.854,1384.57a.859.859,0,0,1-.437-.119l-3.706-2.137a.4.4,0,0,1-.164-.515,2.786,2.786,0,0,0,.251-1.173,2.848,2.848,0,0,0-.251-1.182.4.4,0,0,1,.164-.515l3.71-2.139a.9.9,0,0,1,1.2.349,7.843,7.843,0,0,1,0,6.963A.862.862,0,0,1,432.854,1384.57Zm-3.442-2.778,3.442,1.975a.06.06,0,0,0,.051-.022,7.041,7.041,0,0,0,0-6.249c0-.01-3.492,1.955-3.492,1.955a3.722,3.722,0,0,1,.189,1.174A3.627,3.627,0,0,1,429.412,1381.792Z" transform="translate(-196.847 -755.791)"/>
    <path id="Path_219" data-name="Path 219" d="M354.452,1384.549a.848.848,0,0,1-.765-.466,7.844,7.844,0,0,1,0-6.964.882.882,0,0,1,1.2-.351l3.712,2.14a.4.4,0,0,1,.164.515,2.849,2.849,0,0,0-.251,1.181,2.784,2.784,0,0,0,.251,1.173.4.4,0,0,1-.164.515l-3.71,2.139A.878.878,0,0,1,354.452,1384.549Zm-.046-7.073a7.041,7.041,0,0,0,0,6.25l.046.021c.013,0,3.445-1.975,3.445-1.975a3.624,3.624,0,0,1-.188-1.167,3.712,3.712,0,0,1,.189-1.174Z" transform="translate(-132.405 -755.77)"/>
    <path id="Path_220" data-name="Path 220" d="M652.669,535.264a2.294,2.294,0,0,1-2.028-1.173l-9.891-17.782c-3.4-6.111-5.757-11.3-2.7-17.719,4.8-10.072,18.773-12.145,26.3-3.958A15.834,15.834,0,0,1,668,501.324c1.452,5.557-.44,9.628-2.868,14L654.7,534.091A2.292,2.292,0,0,1,652.669,535.264Zm-.158-44.868a14.892,14.892,0,0,0-10.384,3.979,15.155,15.155,0,0,0-3.352,4.56c-2.9,6.089-.72,10.88,2.675,16.984l9.891,17.781a1.535,1.535,0,0,0,2.655,0l10.437-18.767c2.343-4.217,4.17-8.136,2.794-13.406A15.165,15.165,0,0,0,652.511,490.4Z" transform="translate(-374.165)" fill="#2b2150"/>
    <path id="Path_221" data-name="Path 221" d="M1244.57,1384.57a.861.861,0,0,1-.437-.119l-3.706-2.137a.4.4,0,0,1-.164-.516,2.782,2.782,0,0,0,.251-1.173,2.839,2.839,0,0,0-.251-1.182.4.4,0,0,1,.164-.515l3.711-2.139a.9.9,0,0,1,1.2.349,7.839,7.839,0,0,1,0,6.963A.861.861,0,0,1,1244.57,1384.57Zm-3.442-2.778,3.442,1.975a.061.061,0,0,0,.051-.022,7.037,7.037,0,0,0,0-6.249.061.061,0,0,0-.05-.021l-3.442,1.976a3.723,3.723,0,0,1,.189,1.174A3.626,3.626,0,0,1,1241.129,1381.792Z" transform="translate(-888.409 -755.791)"/>
    <path id="Path_222" data-name="Path 222" d="M1199.72,1427.044a7.7,7.7,0,0,1-3.478-.815.882.882,0,0,1-.364-1.2l2.145-3.713a.4.4,0,0,1,.515-.164,2.915,2.915,0,0,0,2.355,0,.4.4,0,0,1,.515.164l2.139,3.7a.886.886,0,0,1-.345,1.207A7.76,7.76,0,0,1,1199.72,1427.044Zm-1.175-5.026s-1.974,3.44-1.967,3.462a6.712,6.712,0,0,0,3.142.762,6.964,6.964,0,0,0,3.121-.731c.022-.038-1.954-3.492-1.954-3.492A3.751,3.751,0,0,1,1198.545,1422.017Z" transform="translate(-850.536 -793.647)"/>
    <path id="Path_223" data-name="Path 223" d="M1198.359,1351.336a.4.4,0,0,1-.348-.191l-2.139-3.7a.88.88,0,0,1,.353-1.207,7.822,7.822,0,0,1,6.959,0,.873.873,0,0,1,.352,1.208l-2.14,3.7a.4.4,0,0,1-.516.164,2.624,2.624,0,0,0-1.484-.185A5.341,5.341,0,0,1,1198.359,1351.336Zm1.349-5.115a6.917,6.917,0,0,0-3.12.731c-.029.053,1.945,3.493,1.945,3.493a3.758,3.758,0,0,1,2.342,0s1.976-3.454,1.974-3.464A6.773,6.773,0,0,0,1199.708,1346.22Z" transform="translate(-850.524 -729.154)"/>
    <path id="Path_224" data-name="Path 224" d="M1166.169,1384.549a.847.847,0,0,1-.765-.466,7.841,7.841,0,0,1,0-6.964.882.882,0,0,1,1.2-.351l3.712,2.14a.4.4,0,0,1,.164.515,2.841,2.841,0,0,0-.251,1.181,2.788,2.788,0,0,0,.251,1.173.4.4,0,0,1-.164.515l-3.71,2.139A.877.877,0,0,1,1166.169,1384.549Zm-.047-7.073a7.04,7.04,0,0,0,0,6.25l.047.021c.013,0,3.446-1.975,3.446-1.975a3.62,3.62,0,0,1-.189-1.167,3.71,3.71,0,0,1,.189-1.174Z" transform="translate(-823.967 -755.77)"/>
    <path id="Path_225" data-name="Path 225" d="M434.653,665.688H396.245a17.709,17.709,0,0,0,1.974-.353,4.1,4.1,0,0,0,1.76-.792,5.512,5.512,0,0,0,1.364-2.407,8.039,8.039,0,0,1,.69-1.53c.123-.2.743-.674.743-.888,0,0,.316,3.461.316,3.472a1.177,1.177,0,0,0,2.348-.107s-.016-5.344-.032-5.387a2.537,2.537,0,0,0,.128-.6,10.231,10.231,0,0,0-.578-5.446,4.721,4.721,0,0,0-1.76-2.049l.032-7.564c.31-2.926.492-5.89.535-8.848,1.273,1.594,12.517,15.47,13.127,16.117a10.2,10.2,0,0,0,.422,1.027c.7,1.6,2.343,5.333,2.108,6.836a5.848,5.848,0,0,1-.4,1.252,3.647,3.647,0,0,0-.375,2.525,4.531,4.531,0,0,0,2.685,2.45,1.5,1.5,0,0,0,1.915-.241,19,19,0,0,0,3.461-4.525,4.3,4.3,0,0,0,.637-1.862,5.673,5.673,0,0,0-.749-2.653,10.726,10.726,0,0,1-.562-1.38,4.908,4.908,0,0,1-.182-1.428s2.637,2.129,2.648,2.134c1.145.92,2.567-.824,1.53-1.824a47.064,47.064,0,0,1-4.087-4.108,6.182,6.182,0,0,0-4.9-3.156c-.011-.027-8.57-19.375-12.533-22.135a3.114,3.114,0,0,0-.7-.316.4.4,0,0,0-.107.8c2.664.877,13.111,23.162,13.2,23.344.139,1.006-.471,4.237-1.471,4.6-.455.166-1.118-.439-1.813-1.664,0,0-17.139-20.873-18.252-22.847a4.762,4.762,0,0,1-.578-2.14l-.3-5.777c.877.048,1.835.075,2.835.075a40.372,40.372,0,0,0,6.569-.492c-.112.968-.246,1.931-.375,2.9a.4.4,0,0,0,.8.1q.225-1.573.407-3.156a18.828,18.828,0,0,0,5.371-1.808c1.327-.711,4.889-3.215,5.039-3.316a.416.416,0,0,0,.16-.428l-1.514-6.066A43.3,43.3,0,0,0,414,596.238a43.868,43.868,0,0,0-5.387-7.9h2.434a3.071,3.071,0,0,0,1.294-.273,4.787,4.787,0,0,0,2.61-5.472l-2.043-11.9s4.108-1.289,4.13-1.294a.4.4,0,0,0-.241-.765l-4.023,1.262-.685-3.991a2.937,2.937,0,0,0-.551-1.214,6.194,6.194,0,0,0-3-1.915c-.107-.037-.23-.08-.358-.123-.406-.123-2.38-.589-2.7-.653-.08-.332-1.284-3.391-1.589-4.178a11.506,11.506,0,0,0,.909-1.075,18.741,18.741,0,0,0,1.573-3.787c.144-.5,1.075-2.562,1.236-3.156a1.839,1.839,0,0,0-2.332-2.332,2.347,2.347,0,0,0-1.45,1.182,6.6,6.6,0,0,0-6.071-2.321c-.508.091-1.038.241-1.6.4-1.658.465-3.06.733-4.648-.091a1.722,1.722,0,0,1-.861-2.086,4.3,4.3,0,0,1,1.049-1.749,4.975,4.975,0,0,1,1.412-1.07c.278-.134.471-.476.669-.7a8.288,8.288,0,0,1,3.311-2.305c.3-.118.6-.225.915-.316a8.5,8.5,0,0,1,7.056.588,11.507,11.507,0,0,1,4.3,5.178c.979,2.177,1.054,4.67,2.343,6.724.631,1.006,1.926,1.193,2.846,1.829a4.734,4.734,0,0,1,2.166,2.931c.1.669-.059,1.332-.011,2a3.626,3.626,0,0,0,.738,1.958c.968,1.252,2.653,1.744,3.771,2.867a6.487,6.487,0,0,1,1.621,3.37c-1.423.717-2.841,1.439-4.263,2.156a4.711,4.711,0,0,0-1.969-2.9,10.1,10.1,0,0,1-1.706-1.182,3.884,3.884,0,0,1-.877-2.2c-.1-.8-.08-1.61-.225-2.4a3.263,3.263,0,0,0-1.118-2.07.333.333,0,0,0-.193-.086c-.155-.005-.246.2-.2.358a1.009,1.009,0,0,0,.289.369,2.832,2.832,0,0,1,.7,1.487,13.163,13.163,0,0,1,.134,1.658,5.1,5.1,0,0,0,1.065,3.183,27.626,27.626,0,0,0,2.327,1.733,3.928,3.928,0,0,1,1.263,2.332c.043.267.128.615.4.631a.514.514,0,0,0,.273-.086q2.295-1.163,4.6-2.327a.5.5,0,0,0,.316-.551,7.416,7.416,0,0,0-2.1-4.285c-1.129-1.016-2.771-1.466-3.594-2.739-.658-1.027-.284-2.257-.449-3.386a5.31,5.31,0,0,0-2.2-3.252c-.877-.674-2.311-.856-2.926-1.819-1.273-2-1.327-4.488-2.289-6.622-1.787-3.969-5.274-7.077-9.843-6.687v-.16a1.924,1.924,0,0,0-1.856-1.979h-.5V525.3a5.223,5.223,0,0,0-4.964-5.44H327.492a5.226,5.226,0,0,0-4.964,5.44v58.5A84.876,84.876,0,0,0,297.7,573.354a175.125,175.125,0,0,0-28.233-4.531c-1.969-.139-3.98-.2-5.975-.2-7.173,0-17.866.877-28.084,5.055-9.4,3.846-16.251,9.607-20.375,17.134A37.294,37.294,0,0,0,208,603.364a17.115,17.115,0,0,0-.808,3.493,21.461,21.461,0,0,0-.016,3.209l.342,7.735c-.1.535-.171.893-.2,1.043l-3.589,7.532a8.4,8.4,0,0,0-.813,3.605v15.572a5.591,5.591,0,0,0,5.5,5.574l4.793.059a15.831,15.831,0,0,0,10.95,14.5h-26.3a.4.4,0,1,0,0,.8h45.65a.4.4,0,0,0,0-.8H233.9a15.837,15.837,0,0,0,10.923-14.1l77.708,1v8.307a5.53,5.53,0,0,0,2.621,4.793H246.9a.4.4,0,0,0,0,.8H434.653a.4.4,0,0,0,0-.8Zm-8.409-16.641,3.231,3.145c.318.309-.082.926-.471.621l-3.06-2.471C426,649.961,426.238,649.078,426.244,649.046Zm.3,7.676a3.661,3.661,0,0,1-.535,1.519,18.284,18.284,0,0,1-3.317,4.333c-.345.332-.58.3-1.011.1-.166-.08-.337-.166-.5-.251a7.41,7.41,0,0,0,1.214-.813,13.9,13.9,0,0,0,3.039-3.975,12.216,12.216,0,0,0,.957-1.931A2.837,2.837,0,0,1,426.543,656.722Zm-6.836-5.328c1.048-.385,1.471-1.8,1.707-2.771a11.025,11.025,0,0,0,.337-1.771,4.339,4.339,0,0,0-.348-1.658,5.427,5.427,0,0,1,3.825,2.675c.219.444.369.524.219,1.048a7.347,7.347,0,0,0-.182,4.039,10.628,10.628,0,0,0,.6,1.492c.07.15.139.294.2.439a8.813,8.813,0,0,1-1.1,2.477,13.6,13.6,0,0,1-2.915,3.83,7.336,7.336,0,0,1-1.4.888c-.011.005-1.081-.8-1.246-1.364a2.994,2.994,0,0,1,.342-2,5.973,5.973,0,0,0,.455-1.423c.219-1.4-.765-4.017-1.6-6A1.334,1.334,0,0,0,419.707,651.394Zm-86.294.524-4.14-.053c-.011-.219-.011-.439-.011-.658a19.921,19.921,0,1,1,39.841,0c0,.39-.01.781-.037,1.172l-4.151-.054a16.157,16.157,0,0,0,.091-1.7,15.826,15.826,0,0,0-31.651,0A12.809,12.809,0,0,0,333.413,651.919Zm15.769-16.31a15.021,15.021,0,0,1,1.888,29.924,14.551,14.551,0,0,1-3.777,0,15.021,15.021,0,0,1,1.888-29.924Zm55.092,27.864-.016.005a.382.382,0,0,1-.364-.364l-.364-4.012c.3-.209,1.075-.626,1.1-.636l.005,4.616A.381.381,0,0,1,404.274,663.473Zm-.048-11.5a9.508,9.508,0,0,1,.513,5.028.84.84,0,0,1-.556.786,6.858,6.858,0,0,0-2.969,2.616,10.572,10.572,0,0,0-.637,1.476,4.817,4.817,0,0,1-1.129,2.049,3.316,3.316,0,0,1-1.423.62,17.029,17.029,0,0,1-5.306.423.878.878,0,0,1-.487-.128,1.228,1.228,0,0,1-.257-.508,4.594,4.594,0,0,0,.963.08,25.757,25.757,0,0,0,5.922-.92.269.269,0,0,0,.118-.364.265.265,0,0,0-.358-.112c-.679.342-6.162,1.225-6.831.706a3.479,3.479,0,0,1-.021-2.536,2.714,2.714,0,0,1,1.626-1.081,5.912,5.912,0,0,0,1.316-.626c1.391-.963,1.8-2.776,2.108-4.622a1.99,1.99,0,0,0,1.733.909,4.31,4.31,0,0,0,2.776-1.321,2.764,2.764,0,0,0,.246-.251,6.381,6.381,0,0,1,.974,3.038.268.268,0,0,0,.53-.08,6.637,6.637,0,0,0-1.161-3.386,7.106,7.106,0,0,0,1.257-3.2A4.07,4.07,0,0,1,404.226,651.978Zm-5.558-25.452c.326.578,1.771,2.477,4.306,5.665a96.779,96.779,0,0,1-.546,9.795l-.032,8.142a5.906,5.906,0,0,1-1.61,3.734,3.6,3.6,0,0,1-2.236,1.113c-.792,0-1.3-.572-1.364-1.525l-2.263-35.529c.738.086,1.674.176,2.755.246l.31,5.868A5.649,5.649,0,0,0,398.668,626.526Zm14.625-29.908a42.143,42.143,0,0,1,3.7,9.6l1.45,5.8c-.818.572-3.637,2.525-4.739,3.113a16.175,16.175,0,0,1-3.065,1.225,22.692,22.692,0,0,1-2.231.535,37.761,37.761,0,0,1-7.088.6c-1.171,0-2.284-.043-3.279-.1-2.006-.118-3.557-.316-4.3-.423-.669-.1-1.22-.193-1.68-.3a4.412,4.412,0,0,1-2.108-.9c-.428-.385-.727-.883-1.188-1.241a5.882,5.882,0,0,0-2.006-.931,8.182,8.182,0,0,0-1.616-.182c-1.53-.075-3.407-.177-4.044-1.45a30.451,30.451,0,0,0,4.713-6.719c.439-.824.834-1.615,1.2-2.423.182-.4.364-.808.535-1.23.968-2.327,4.7-12.774,4.852-13.234h15.155A43.04,43.04,0,0,1,413.293,596.618ZM379.427,579.7c.246,0,.53.31.567.77l.374,4.836c.022.289-.1.829-.471.85,0,0-.888.07-.888.064l-.492-6.451Zm-.706-3.621a.4.4,0,0,1,.364-.449h6.05a.38.38,0,0,1,.364.348l.62,5.141.1.84c.086.2.209.449.321.669-.075.005-.155.005-.241.016-1.428.075-4.012.38-5.248,1.156L380.8,580.4a1.5,1.5,0,0,0-1.46-1.509l-.273.021S378.721,576.083,378.721,576.077Zm1.706,10.731a3.918,3.918,0,0,0,.663,1.337,2.563,2.563,0,0,0,2.017,1.038s2.279-.011,3.969-.1l.032.278a.39.39,0,0,1-.364.449H380.7a.385.385,0,0,1-.369-.348l-.3-2.514A1.061,1.061,0,0,0,380.427,586.808Zm2.776,1.573c-1.289.048-2.006-1.295-2.124-2.407-.08-.685-.053-1.311.594-1.626a7.151,7.151,0,0,1,1.755-.53,13.162,13.162,0,0,1,3.739-.4.409.409,0,0,0,.39-.594,13.1,13.1,0,0,1-.674-1.375.83.83,0,0,1,.15-.556,3.258,3.258,0,0,1,.348-.284c.385,1,2.156,1.8,2.231,1.84a5,5,0,0,1,1.492,1.5c.011.032.16,3.643.139,3.659C390.463,588.188,385.905,588.386,383.2,588.38Zm6.735-6.66a4.576,4.576,0,0,1-1.781-1.343l3.338-.4c.118,1.123.246,2.359.342,3.509l-.064.005A5.9,5.9,0,0,0,389.938,581.721Zm15.93-18.808c-.893.8-1.813,1.562-2.749,2.311a7.382,7.382,0,0,1-3.028,1.792,4.2,4.2,0,0,1-3.049-.246,2.35,2.35,0,0,1-1.1-1.583.267.267,0,0,0-.524.1,2.913,2.913,0,0,0,1.348,1.942,5.1,5.1,0,0,0,5.226-.482,47.828,47.828,0,0,0,3.9-3.151c.075-.064.53-.556.61-.54.048.011,1.706.46,1.76.481a5.5,5.5,0,0,1,2.627,1.648,2.082,2.082,0,0,1,.4.872l2.867,16.706A3.986,3.986,0,0,1,412,587.343a2.256,2.256,0,0,1-.957.2H392.1l-.134-3.258,15.967-1.5c.465.567.92,1.145,1.348,1.717.3.406.963-.059.642-.481-.449-.6-.915-1.188-1.4-1.776l-2.958-13.464a.4.4,0,0,0-.781.171L407.655,582l-15.021,1.417c-.278-3.247-.792-7.28-.8-7.323a.379.379,0,0,0-.134-.251c-2.557-2.231-2.108-5.708-.53-8.174.23-.374,2.969-3.862,2.969-3.862a4.229,4.229,0,0,1,2.487-1.508l-.241,1.337a2.913,2.913,0,0,0,.61,2.322,2.323,2.323,0,0,0,1.8.749,6.912,6.912,0,0,0,4.081-1.9c1.075-.888,2.022-1.717,2.375-2.022C405.414,562.816,405.622,562.859,405.868,562.913Zm-1.161-.717c-.358.315-1.289,1.123-2.343,1.99-1.717,1.423-2.888,1.717-3.568,1.717-1.2,0-1.744-1.059-1.616-2.15.118-.99.38-1.963.524-2.948,0,.021.834-.016.893-.021a8.366,8.366,0,0,0,4.632-2.311S404.692,562.137,404.708,562.2Zm-13.261-14.684a6.608,6.608,0,0,0,4.932,0c.54-.155,1.054-.3,1.519-.385,3.525-.621,5.633,2.428,5.724,2.557a.4.4,0,0,0,.722-.128,1.688,1.688,0,0,1,1.155-1.305,1.039,1.039,0,0,1,1.337,1.353c-.3,1.091-.915,2.059-1.23,3.145a10.609,10.609,0,0,1-2.835,5.071,7.177,7.177,0,0,1-4.777,2.193c-2.8,0-4.5-2.364-5.435-4.349a10.915,10.915,0,0,1-1.2-4.547C391.367,549.738,391.388,548.545,391.447,547.512ZM398.4,535.84a1.121,1.121,0,0,1,1.054,1.177v.257a13.4,13.4,0,0,0-1.557.348M323.33,525.3a4.424,4.424,0,0,1,4.162-4.638h65.437a4.424,4.424,0,0,1,4.162,4.638v12.581a9.091,9.091,0,0,0-4.162,2.926c-.091.112-.155.2-.166.214a5.78,5.78,0,0,0-2.889,3.333,2.652,2.652,0,0,0,.332,2.241,1.928,1.928,0,0,0,.449.46c-.075,1.171-.086,2.514-.1,4.049a9,9,0,0,0,.385,2.493,14.863,14.863,0,0,0,.9,2.4c1.241,2.648,3.017,4.285,5.076,4.7l-.128.717a6.914,6.914,0,0,0-3.284,1.91s-2.76,3.509-3.006,3.91c-1.739,2.712-2.22,6.558.567,9.1.048.385.187,1.482.342,2.851l-4.648.546-.46-3.857a1.182,1.182,0,0,0-1.161-1.054h-6.05a1.148,1.148,0,0,0-.861.4,1.206,1.206,0,0,0-.294.952l.337,2.814a.776.776,0,0,0-.556.845l.5,6.451a.761.761,0,0,0,.722.749l.3-.021.3,2.546a1.188,1.188,0,0,0,1.166,1.054h6.045a1.151,1.151,0,0,0,.867-.4,1.205,1.205,0,0,0,.294-.952l-.027-.235a11.786,11.786,0,0,0,3.675-.669c-.134.4-3.782,10.6-4.739,12.913-.171.412-.342.813-.524,1.2-.364.8-.749,1.578-1.177,2.386a28.737,28.737,0,0,1-4.755,6.708.392.392,0,0,0-.107.423c.7,2,3.1,2.124,4.857,2.215a6.46,6.46,0,0,1,2.37.519,8.537,8.537,0,0,1,1.952,1.632,5.286,5.286,0,0,0,2.455,1.086c.481.118,1.054.219,1.744.316.139.021.3.043.492.07,0,0,2.215,35.08,2.209,35.1-.075.4-.139.808-.209,1.225-.3,1.872-.61,3.809-1.867,4.675a5.128,5.128,0,0,1-1.145.535,3.467,3.467,0,0,0-2.049,1.45,4.8,4.8,0,0,0,.123,3.691,2,2,0,0,0,.519.952.5.5,0,0,0,.107.08h-37.3a15.869,15.869,0,0,0,10.3-12.4l6.51.08a6.8,6.8,0,0,0,6.087-3.8c1.482-3.054,4.574-9.409,3.172-16.957a47.491,47.491,0,0,0-2.637-8.211c-4.092-9.554-11-15.727-18.958-16.941l-9.115-1.268a1.015,1.015,0,0,1-.567-.289,136.772,136.772,0,0,0-25.971-21.445Zm56.231,115.292h-6.1v-4.627H380a24.4,24.4,0,0,1-.043,2.487A8.8,8.8,0,0,1,379.561,640.594ZM207.989,606.937a16.485,16.485,0,0,1,.776-3.327,36.418,36.418,0,0,1,7.034-12.469,42.946,42.946,0,0,1-7.489,26.366l-.332-7.478A21.273,21.273,0,0,1,207.989,606.937Zm21.039,58.719a15.023,15.023,0,1,1,15.021-15.026A15.042,15.042,0,0,1,229.028,665.656Zm15.818-14.866a1.6,1.6,0,0,0,.005-.16,15.824,15.824,0,0,0-31.646-.246l-4.092-.048a19.921,19.921,0,0,1,39.836.508Zm4.638.059a20.456,20.456,0,0,0-40.906-.524h-.144a4.788,4.788,0,0,1-4.713-4.772V629.981a7.559,7.559,0,0,1,.738-3.263l3.605-7.575c.016-.027.171-.155.219-.219a43.64,43.64,0,0,0,8.254-28.8,35.409,35.409,0,0,1,2.627-4c12.619-15.384,36.6-16.7,44.324-16.7,1.979,0,3.969.064,5.922.2a174.867,174.867,0,0,1,28.105,4.515c17.283,4.039,34.513,14.86,51.208,32.16a1.794,1.794,0,0,0,1.032.524l9.11,1.268c7.676,1.172,14.357,7.173,18.337,16.465a46.323,46.323,0,0,1,2.589,8.056,20.67,20.67,0,0,1,.3,2.557h-7.034a.4.4,0,0,0-.4.4V641a.4.4,0,0,0,.4.4h6.483a34.654,34.654,0,0,1-2.862,7.655,5.918,5.918,0,0,1-5.365,3.354l-1.717-.021c.027-.391.037-.786.037-1.177a20.455,20.455,0,1,0-40.911,0c0,.219,0,.439.011.653Zm73.846,10.046v-8.3l10.169.128a15.842,15.842,0,0,0,10.356,12.806H327.492A4.424,4.424,0,0,1,323.33,660.895Z" transform="translate(0 -25.801)" fill="#212121"/>
  </g>
</svg>
