<svg id="work_address" xmlns="http://www.w3.org/2000/svg" width="24" height="24" viewBox="0 0 24 24">
  <path id="Path_3195" data-name="Path 3195" d="M0,0H24V24H0Z" fill="none"/>
  <path id="Path_3197" data-name="Path 3197" d="M15.681,20.281V4.92A1.92,1.92,0,0,0,13.76,3H9.92A1.92,1.92,0,0,0,8,4.92V20.281" transform="translate(0.16 0.359)" fill="none" stroke="#f4c914" stroke-linecap="round" stroke-linejoin="round" stroke-width="1"/>
  <path id="Path_3196" data-name="Path 3196" d="M3.92,7H19.281A1.92,1.92,0,0,1,21.2,8.92v9.6a1.92,1.92,0,0,1-1.92,1.92H3.92A1.92,1.92,0,0,1,2,18.521V8.92A1.92,1.92,0,0,1,3.92,7Z" transform="translate(0.399 0.2)" fill="none" stroke="#000" stroke-linecap="round" stroke-linejoin="round" stroke-width="1"/>
</svg>
