<svg xmlns="http://www.w3.org/2000/svg" width="18" height="18" viewBox="0 0 18 18">
  <g id="backword" transform="translate(-6333.291 147)">
    <path id="arrow" d="M14.353,15.191l6.811-6.805a1.286,1.286,0,1,0-1.822-1.817L11.625,14.28a1.284,1.284,0,0,0-.038,1.774l7.748,7.765A1.286,1.286,0,0,0,21.158,22Z" transform="translate(6329.749 -153.194)" fill="#c5c2ce"/>
    <path id="arrow-2" data-name="arrow" d="M13.575,12.935l5.1-5.1a.964.964,0,1,0-1.365-1.361l-5.781,5.777a.962.962,0,0,0-.028,1.329L17.308,19.4a.964.964,0,0,0,1.365-1.361Z" transform="translate(6322.04 -150.936)" fill="#c5c2ce"/>
  </g>
</svg>
