<svg xmlns="http://www.w3.org/2000/svg" width="18" height="18" viewBox="0 0 18 18">
  <g id="forward" transform="translate(-6366.291 147)">
    <path id="arrow" d="M18.439,15.191,11.628,8.386A1.286,1.286,0,1,1,13.45,6.569l7.716,7.711a1.284,1.284,0,0,1,.038,1.774l-7.748,7.764A1.286,1.286,0,0,1,11.634,22Z" transform="translate(6355.04 -153.194)" fill="#c5c2ce"/>
    <path id="arrow-2" d="M16.636,12.935l-5.1-5.1A.964.964,0,1,1,12.9,6.475l5.781,5.777a.962.962,0,0,1,.028,1.329L12.9,19.4a.964.964,0,0,1-1.365-1.361Z" transform="translate(6365.33 -150.936)" fill="#c5c2ce"/>
  </g>
</svg>
