<svg xmlns="http://www.w3.org/2000/svg" width="24" height="24" viewBox="0 0 24 24">
  <g id="bag_icon_02" transform="translate(-3623 -3970)">
    <rect id="Rectangle_114" data-name="Rectangle 114" width="24" height="24" transform="translate(3623 3970)" fill="none"/>
    <path id="Path_127" data-name="Path 127" d="M2330.705,790.938c-.071-.584-.131-1.17-.193-1.756q-.333-3.181-.663-6.362-.415-3.94-.836-7.878c-.045-.422-.165-.534-.6-.534-1.009,0-2.018-.007-3.027.006-.208,0-.249-.058-.245-.252a7.617,7.617,0,0,0-.037-1.2,4.287,4.287,0,0,0-8.149-1.182,4.491,4.491,0,0,0-.386,1.978c0,.211.1.5-.041.612s-.406.039-.619.039c-.893,0-1.786,0-2.679,0-.346,0-.486.128-.521.469q-.406,3.845-.81,7.692-.416,3.939-.835,7.878a3.732,3.732,0,0,0-.043,1.094,2.144,2.144,0,0,0,2.177,1.727q3.817.006,7.634,0h1.474c2.09,0,4.179.008,6.268,0A2.072,2.072,0,0,0,2330.705,790.938ZM2317.7,772.208a3.433,3.433,0,0,1,6.55.806,12.176,12.176,0,0,1,.046,1.255c.009.188-.119.137-.213.137q-1.62,0-3.238,0c-1.061,0-2.123-.005-3.184,0-.19,0-.232-.049-.232-.235A4.887,4.887,0,0,1,2317.7,772.208Zm10.88,20.2c-.071,0-.142.008-.213.008h-15.108a1.3,1.3,0,0,1-1.366-.933,1.139,1.139,0,0,1-.026-.425q.22-2.116.445-4.231.23-2.169.461-4.337.259-2.448.518-4.9c.075-.71.157-1.419.219-2.13.015-.173.081-.2.23-.2.875.006,1.75.009,2.625,0,.188,0,.217.067.215.231-.008.607-.005,1.214,0,1.821,0,.314.165.512.42.518s.436-.2.437-.529c0-.607.008-1.214,0-1.822,0-.181.056-.218.226-.218q3.2.009,6.4,0c.182,0,.245.039.24.233-.013.607-.006,1.214,0,1.821,0,.343.156.529.431.528s.425-.186.426-.532c0-.616,0-1.232,0-1.848,0-.145.03-.2.19-.2.669.011,1.338.01,2.008.013.268,0,.6-.1.785.027s.112.489.14.75q.292,2.767.584,5.535.308,2.913.622,5.826c.129,1.215.26,2.43.382,3.646A1.21,1.21,0,0,1,2328.577,792.4Z" transform="translate(1314.006 3200.728)"/>
    <path id="Path_128" data-name="Path 128" d="M2339.747,869.752c-.071,0-.142.008-.213.008h-15.108a1.3,1.3,0,0,1-1.366-.933,1.154,1.154,0,0,1-.026-.425q.22-2.116.445-4.231.23-2.169.46-4.337.259-2.448.518-4.9c.075-.71.158-1.418.22-2.13.015-.173.081-.2.23-.2.875.006,1.75.009,2.625,0,.188,0,.217.067.215.23-.008.607-.005,1.214,0,1.821,0,.314.165.512.42.518s.436-.2.437-.528c0-.607.008-1.214,0-1.822,0-.181.057-.219.226-.219q3.2.009,6.4,0c.182,0,.245.039.24.233-.013.606-.007,1.214,0,1.821,0,.343.156.529.431.528s.425-.186.426-.532c0-.616,0-1.232,0-1.848,0-.145.03-.2.19-.2.669.011,1.338.01,2.008.013.268,0,.6-.1.785.026s.112.489.14.75q.292,2.767.584,5.535.308,2.913.622,5.826c.129,1.215.26,2.43.382,3.646A1.21,1.21,0,0,1,2339.747,869.752Z" transform="translate(1302.836 3123.38)" fill="none"/>
  </g>
</svg>
