<svg width="24" height="24" viewBox="0 0 24 24" fill="none" xmlns="http://www.w3.org/2000/svg">
<path d="M22.7026 7.55952C22.7026 6.88511 22.4424 6.63462 21.7584 6.62499C20.4481 6.62499 19.1379 6.61535 17.8276 6.63462C17.5867 6.63462 17.5289 6.56718 17.5289 6.33596C17.5386 5.85424 17.5482 5.37252 17.4904 4.90044C17.2014 2.46295 15.313 0.449368 12.9333 0.0736279C10.4091 -0.331015 7.99092 0.959988 6.95041 3.2626C6.50723 4.22603 6.42052 5.24727 6.46869 6.28778C6.47832 6.57681 6.39161 6.63462 6.11222 6.63462C4.84048 6.61535 3.56875 6.62499 2.29702 6.62499C1.5359 6.63462 1.29504 6.87548 1.29504 7.61732C1.29504 11.6156 1.29504 15.6138 1.29504 19.6217C1.29504 19.93 1.30468 20.248 1.36248 20.5563C1.74786 22.5987 3.43387 23.9861 5.55343 23.9957C7.69225 24.0054 9.83108 23.9957 11.9699 23.9957C14.1184 23.9957 16.2668 24.0054 18.4249 23.9957C20.872 23.9861 22.6833 22.1941 22.6929 19.747C22.7122 15.6813 22.7026 11.6252 22.7026 7.55952ZM8.54971 3.38784C9.49388 1.88489 11.334 1.15267 13.049 1.61512C14.7831 2.08721 15.9971 3.60943 16.0452 5.39179C16.0549 5.71936 16.0356 6.03729 16.0549 6.36486C16.0741 6.59608 15.9971 6.64425 15.7755 6.63462C14.5134 6.62499 13.2609 6.63462 11.9988 6.63462C10.7463 6.63462 9.50351 6.62499 8.26068 6.64425C8.01019 6.64425 7.94275 6.58645 7.94275 6.33596C7.91384 5.29545 7.98128 4.29347 8.54971 3.38784ZM21.2285 18.6583C21.2285 19.0051 21.2285 19.352 21.2285 19.6988C21.2189 21.3559 20.082 22.4928 18.4153 22.5024C16.2668 22.5024 14.1184 22.5024 11.9603 22.5024C9.85035 22.5024 7.73079 22.5024 5.62087 22.5024C3.90595 22.5024 2.77873 21.3752 2.77873 19.6699C2.77873 15.9318 2.77873 12.1936 2.7691 8.46515C2.7691 8.17612 2.85581 8.11831 3.12557 8.11831C4.14681 8.13758 5.16805 8.12794 6.18929 8.11831C6.41088 8.11831 6.47832 8.16648 6.46869 8.39771C6.44942 8.88906 6.45906 9.38041 6.46869 9.87176C6.47832 10.3631 6.75772 10.681 7.19127 10.6907C7.63445 10.7003 7.94274 10.3824 7.95238 9.87176C7.96201 9.37078 7.96201 8.86016 7.95238 8.35917C7.95238 8.17612 8.00055 8.11831 8.19324 8.11831C10.7367 8.12794 13.2898 8.12794 15.8333 8.11831C16.026 8.11831 16.0741 8.17612 16.0741 8.35917C16.0645 8.85052 16.0645 9.34187 16.0741 9.83322C16.0838 10.3535 16.3632 10.681 16.8063 10.6907C17.2592 10.7003 17.5578 10.3631 17.5675 9.83322C17.5675 9.34187 17.5771 8.85052 17.5675 8.35917C17.5578 8.16648 17.6253 8.11831 17.8083 8.11831C18.8777 8.12794 19.9471 8.13758 21.0166 8.11831C21.3249 8.11831 21.2574 8.30136 21.2574 8.46515C21.2285 11.8564 21.2285 15.2574 21.2285 18.6583Z" fill="black"/>
</svg>
