<svg xmlns="http://www.w3.org/2000/svg" width="24" height="24" viewBox="0 0 24 24">
  <g id="back_arrow" transform="translate(-331 -67)">
    <rect id="Rectangle_437" data-name="Rectangle 437" width="24" height="24" rx="5" transform="translate(331 67)" fill="#fff"/>
    <g id="Icon_ionic-ios-arrow-back" data-name="Icon ionic-ios-arrow-back" transform="translate(327.462 65.306)" fill="none">
      <path d="M13.836,13.692l5.676-5.671a1.072,1.072,0,0,0-1.518-1.514l-6.43,6.426a1.07,1.07,0,0,0-.031,1.478l6.457,6.47a1.072,1.072,0,1,0,1.518-1.514Z" stroke="none"/>
      <path d="M 18.74770355224609 21.19364547729492 C 18.47530364990234 21.19364547729492 18.19844436645508 21.09094429016113 17.98857498168945 20.88106536865234 L 11.53153419494629 14.41063499450684 C 11.14750385284424 13.99088478088379 11.15643405914307 13.33892440795898 11.56279468536377 12.93257427215576 L 17.99303436279297 6.506794452667236 C 18.41279411315918 6.091506004333496 19.09153366088867 6.087033748626709 19.51129341125488 6.506794452667236 C 19.93104362487793 6.922074794769287 19.93104362487793 7.60082483291626 19.51129341125488 8.020574569702148 L 13.83570384979248 13.69169425964355 L 19.5068244934082 19.36728477478027 C 19.92657470703125 19.78257369995117 19.92657470703125 20.4613151550293 19.5068244934082 20.88106536865234 C 19.29695510864258 21.09094429016113 19.02009391784668 21.19364547729492 18.74770355224609 21.19364547729492 Z" stroke="none" fill="#000"/>
    </g>
  </g>
</svg>
