<svg id="cat.home" xmlns="http://www.w3.org/2000/svg" width="24" height="24" viewBox="0 0 24 24">
  <g id="Group_3566" data-name="Group 3566" transform="translate(-2202.178 -306.241)">
    <path id="Path_2198" data-name="Path 2198" d="M2213.689,311.981c-.429.353-.86.7-1.287,1.061q-2.442,2.035-4.883,4.073a.491.491,0,0,1-.859-.172v-.235a.508.508,0,0,1,.213-.333q2.8-2.328,5.6-4.661c.244-.2.491-.4.731-.61a1.476,1.476,0,0,1,1.935,0c.539.459,1.087.909,1.631,1.362.42.35.845.7,1.262,1.049a.132.132,0,0,0,.084.044c.013-.228,0-.456.005-.684a.507.507,0,1,1,1.014-.032c.009.449.01.9,0,1.348a.466.466,0,0,0,.194.41q1.069.881,2.134,1.766a.564.564,0,0,1,.236.491.456.456,0,0,1-.25.416.494.494,0,0,1-.516-.023c-.044-.027-.074-.079-.135-.082a.331.331,0,0,0-.016.172c0,2.326,0,4.651,0,6.977a1.409,1.409,0,0,1-.835,1.325.775.775,0,0,1-.367.085c-.051.007-.105-.016-.155.015h-10.5c-.046-.035-.1,0-.151-.026a1.389,1.389,0,0,1-1.167-1.358c-.006-1.227,0-2.453,0-3.68q0-.96,0-1.921a.472.472,0,1,1,.938,0q0,2.749,0,5.5a.481.481,0,0,0,.546.548c.7,0,1.408,0,2.111,0,.142,0,.161-.045.161-.17q-.006-2.463,0-4.926a1.411,1.411,0,0,1,1.483-1.477h2.683a1.409,1.409,0,0,1,1.465,1.465q0,2.478,0,4.956c0,.121.026.153.149.151.577-.009,1.132,0,1.195,0,.1,0,.893.008,1,0a.5.5,0,0,0,.434-.441,1.77,1.77,0,0,0,0-.19q0-3.826,0-7.653a.466.466,0,0,0-.189-.4q-2.072-1.715-4.135-3.441-.461-.385-.923-.769a.468.468,0,0,0-.686-.008A.291.291,0,0,1,2213.689,311.981Z" transform="translate(0 0)" fill="#0e111f"/>
    <path id="Path_2199" data-name="Path 2199" d="M2260.421,692.653a.169.169,0,0,1,.151.026h-.146A.034.034,0,0,0,2260.421,692.653Z" transform="translate(-51.653 -366.938)" fill="#474672"/>
    <path id="Path_2200" data-name="Path 2200" d="M2532.3,692.653a.035.035,0,0,0,0,.026h-.146A.169.169,0,0,1,2532.3,692.653Z" transform="translate(-312.732 -366.938)" fill="#474672"/>
    <path id="Path_2201" data-name="Path 2201" d="M2353.116,531.481c-.9,0-1.808,0-2.712.007-.1,0-.1-.048-.1-.124,0-.5,0-1,0-1.5q0-1.737,0-3.475a.48.48,0,0,1,.542-.539l2.155,0a.338.338,0,0,1,.127.207,1.244,1.244,0,0,1,.038.333q0,2.422,0,4.843A.315.315,0,0,1,2353.116,531.481Z" transform="translate(-138.009 -206.683)" fill="#e93941"/>
    <path id="Path_2202" data-name="Path 2202" d="M2419.266,531.481q0-2.58,0-5.159a1.184,1.184,0,0,0-.119-.462c.191,0,.381-.006.572,0a.47.47,0,0,1,.484.48c0,.279,0,.557,0,.836,0,1.388,0,2.776,0,4.164,0,.12-.026.159-.151.154C2419.794,531.477,2419.53,531.483,2419.266,531.481Z" transform="translate(-204.16 -206.683)" fill="#aa1725"/>
    <path id="Path_2203" data-name="Path 2203" d="M2374.273,586.186a.469.469,0,1,1,.466.466A.467.467,0,0,1,2374.273,586.186Z" transform="translate(-161.043 -264.195)" fill="#fff"/>
  </g>
  <rect id="Rectangle_1184" data-name="Rectangle 1184" width="24" height="24" fill="none"/>
</svg>
