<svg id="cat.commercial" xmlns="http://www.w3.org/2000/svg" width="24" height="24" viewBox="0 0 24 24">
  <path id="Path_2247" data-name="Path 2247" d="M0,0H24V24H0Z" fill="none"/>
  <g id="Group_3573" data-name="Group 3573" transform="translate(-3358.11 -437.53)">
    <path id="Path_2229" data-name="Path 2229" d="M3377.469,447.141c-.558-.97-1.118-1.939-1.664-2.916a.663.663,0,0,0-.7-.395c-.034,0-.068,0-.1,0-.115.009-.155-.047-.153-.157,0-.219,0-.438,0-.658a.9.9,0,0,0-.823-1h-7.873a1.256,1.256,0,0,0-.347.1.959.959,0,0,0-.447.78c-.009.195,0,.39,0,.585,0,.369.01.347-.344.341a.571.571,0,0,0-.506.239,2.151,2.151,0,0,0-.123.2q-.809,1.424-1.626,2.843a1.017,1.017,0,0,0-.163.522c0,.429,0,.858,0,1.288a1.225,1.225,0,0,0,.394.94,1.5,1.5,0,0,0,.568.348.2.2,0,0,1,.16.226c0,.058,0,.117,0,.176q0,2.707,0,5.414a.906.906,0,0,0,1,1h10.873a.835.835,0,0,0,.753-.418,1.046,1.046,0,0,0,.153-.584q0-2.766,0-5.531c0-.219,0-.219.2-.3a1.466,1.466,0,0,0,.81-.722,2.732,2.732,0,0,0,.093-.4v-1.522A1.23,1.23,0,0,0,3377.469,447.141Zm-3.117-2.307a1.666,1.666,0,0,1,.605.015c.17.072.219.317.317.488.323.555.637,1.113.955,1.671.026.046.05.092.086.158h-.62c-.545,0-1.091,0-1.636.007a.108.108,0,0,1-.122-.092q-.328-1.074-.663-2.146c-.027-.086,0-.107.083-.106C3373.689,444.834,3374.021,444.832,3374.352,444.834Zm-7.994-1.731c-.007-.124.032-.15.152-.149q3.028.006,6.056,0c.2,0,.39,0,.585,0s.409,0,.613-.006c.069,0,.093.019.091.09q-.005.38,0,.759c0,.071-.022.092-.091.09-.2-.005-.408,0-.613-.006-.059,0-.116,0-.175,0q-3.225,0-6.451,0c-.131,0-.175-.028-.167-.164A5.454,5.454,0,0,0,3366.358,443.1Zm6.792,5.717a.462.462,0,0,1-.454.457c-.121,0-.242,0-.364,0-.438,0-.875.007-1.313,0a.455.455,0,0,1-.44-.44c-.007-.214,0-.428,0-.642,0-.074.028-.087.094-.087.594,0,1.187,0,1.781.006.2,0,.408,0,.611-.007.083,0,.094.033.093.1C3373.15,448.413,3373.156,448.617,3373.15,448.82Zm-2.575-3.9c0-.069.019-.092.09-.091.282.005.565,0,.847.006.224,0,.448,0,.672-.007a.1.1,0,0,1,.111.085q.329,1.081.662,2.16c.025.079.014.1-.07.1-.224-.005-.448,0-.672-.006-.516,0-1.032,0-1.549.006-.07,0-.091-.02-.091-.09Q3370.579,446,3370.575,444.919Zm-.934,2.142c0,.079-.018.114-.1.111-.2-.007-.4,0-.6-.006-.537,0-1.073,0-1.609.005-.071,0-.094-.013-.07-.091q.337-1.088.668-2.178a.092.092,0,0,1,.1-.075c.3,0,.6,0,.907.006.2,0,.4,0,.6-.006.087,0,.105.033.1.111Q3369.637,446,3369.641,447.061Zm0,1.754a.465.465,0,0,1-.469.462c-.117,0-.234,0-.35,0-.434,0-.867.008-1.3,0a.458.458,0,0,1-.453-.447c-.007-.209,0-.419,0-.629,0-.083.036-.094.1-.094.59,0,1.179,0,1.769.005.2,0,.4,0,.6-.006.085,0,.108.03.106.11C3369.636,448.416,3369.644,448.616,3369.638,448.815Zm-5.623-1.862q.573-1.006,1.146-2.014a.185.185,0,0,1,.192-.113c.316.009.633.006.949.008h.667c-.109.357-.214.7-.321,1.052-.122.394-.247.788-.365,1.183-.021.071-.046.106-.126.1-.195-.007-.389,0-.584-.006H3363.9Zm-.021,2.323a.456.456,0,0,1-.441-.44c-.006-.214,0-.428,0-.642,0-.074.028-.087.094-.087.594,0,1.187,0,1.78.006.2,0,.408,0,.612-.007.083,0,.094.033.093.1,0,.2,0,.408,0,.611a.462.462,0,0,1-.454.457c-.121,0-.242,0-.364,0C3364.87,449.275,3364.432,449.281,3363.994,449.276Zm5.646,6.683c0,.079-.018.115-.1.112-.2-.007-.4,0-.6-.006-.745,0-1.49,0-2.235.006-.083,0-.107-.025-.107-.107q0-1.885,0-3.769c0-.083.024-.108.107-.107.745,0,1.49,0,2.235.006.2,0,.4,0,.6-.006.087,0,.1.033.1.111Q3369.638,454.078,3369.641,455.958Zm5.7.113c-.184-.013-.37-.006-.555-.008l-2.75.005c-.444,0-.887,0-1.331,0-.111,0-.135-.028-.135-.137,0-1.4,0-2.809,0-4.214,0-.4-.174-.57-.569-.57h-3.774c-.4,0-.573.171-.573.566,0,1.4,0,2.8,0,4.2,0,.135-.039.161-.162.155-.209-.01-.419-.01-.629,0-.119.006-.153-.023-.153-.148q.007-2.692,0-5.384c0-.324,0-.32.322-.325a6.43,6.43,0,0,0,.818-.019,1.351,1.351,0,0,0,.65-.277c.058-.045.094-.059.159-.007a1.4,1.4,0,0,0,.909.3q.768,0,1.536,0a1.421,1.421,0,0,0,.911-.3.105.105,0,0,1,.159,0,1.4,1.4,0,0,0,.9.3c.512,0,1.025,0,1.537,0a1.462,1.462,0,0,0,.926-.3c.037-.028.065-.072.123-.023a1.581,1.581,0,0,0,1.122.328c.2,0,.409,0,.614-.006.071,0,.1.022.09.091a.392.392,0,0,0,0,.059q0,2.778,0,5.557C3375.5,456.041,3375.469,456.08,3375.345,456.071Zm1.317-7.256a.465.465,0,0,1-.469.462c-.117,0-.233,0-.35,0-.434,0-.867.008-1.3,0a.458.458,0,0,1-.453-.447c-.007-.209,0-.419,0-.629,0-.083.036-.094.105-.094.59,0,1.179,0,1.769.005.2,0,.4,0,.6-.006.085,0,.108.03.106.11C3376.661,448.416,3376.668,448.616,3376.662,448.815Z" transform="translate(0 0)" fill="#0f121f"/>
    <path id="Path_2230" data-name="Path 2230" d="M3467.771,699.487q0,1.882,0,3.765c0,.079-.018.115-.1.112-.2-.007-.4,0-.6-.006-.746,0-1.492,0-2.238.006-.083,0-.107-.025-.107-.107q0-1.887,0-3.774c0-.083.024-.108.107-.107.746,0,1.492,0,2.238.006.2,0,.4,0,.6-.006C3467.752,699.372,3467.771,699.408,3467.771,699.487Z" transform="translate(-98.127 -247.295)" fill="#3d3d3d"/>
    <path id="Path_2231" data-name="Path 2231" d="M3483.831,513.918q0,1.062,0,2.124c0,.079-.018.114-.1.112-.2-.007-.4,0-.6-.006-.537,0-1.074,0-1.611.005-.071,0-.094-.013-.07-.091q.338-1.09.669-2.181a.091.091,0,0,1,.1-.075c.3,0,.606,0,.908.006.2,0,.4,0,.6-.006C3483.813,513.8,3483.832,513.839,3483.831,513.918Z" transform="translate(-114.188 -68.979)" fill="#3d3d3d"/>
    <path id="Path_2232" data-name="Path 2232" d="M3479.27,597.717c0,.2,0,.4,0,.6a.465.465,0,0,1-.469.463c-.116,0-.234,0-.351,0-.434,0-.868.008-1.3,0a.458.458,0,0,1-.453-.447c-.007-.21,0-.42,0-.629,0-.083.036-.094.105-.094.591,0,1.181,0,1.771.005.2,0,.4,0,.6-.006C3479.249,597.6,3479.272,597.636,3479.27,597.717Z" transform="translate(-109.627 -149.501)" fill="#3d3d3d"/>
    <path id="Path_2233" data-name="Path 2233" d="M3635.345,513.422c.332.005.663,0,.995.006a1.669,1.669,0,0,1,.606.015c.17.072.219.318.317.488.323.555.639,1.115.957,1.673.026.046.05.092.086.158h-.621c-.546,0-1.092,0-1.639.007a.108.108,0,0,1-.122-.092q-.328-1.076-.664-2.149C3635.234,513.441,3635.258,513.42,3635.345,513.422Z" transform="translate(-261.992 -68.594)" fill="#3d3d3d"/>
    <path id="Path_2234" data-name="Path 2234" d="M3658.847,598.316a.465.465,0,0,1-.469.463c-.117,0-.234,0-.351,0-.434,0-.868.008-1.3,0a.459.459,0,0,1-.454-.447c-.007-.21,0-.42,0-.629,0-.083.036-.094.106-.094.59,0,1.18,0,1.771.005.2,0,.4,0,.6-.006.085,0,.108.03.107.11C3658.846,597.916,3658.853,598.116,3658.847,598.316Z" transform="translate(-282.186 -149.501)" fill="#3d3d3d"/>
    <path id="Path_2235" data-name="Path 2235" d="M3467.131,703.134c0,.081.014.169-.065.228-.746,0-1.492,0-2.238.006-.083,0-.107-.025-.107-.107q0-1.887,0-3.774c0-.083.024-.108.107-.107.746,0,1.492,0,2.238.006.08.059.065.147.065.228,0,.589,0,1.178,0,1.767S3467.133,702.55,3467.131,703.134Z" transform="translate(-98.127 -247.299)" fill="#e01f31"/>
    <path id="Path_2236" data-name="Path 2236" d="M3637.686,516.149c-.546,0-1.092,0-1.639.007a.108.108,0,0,1-.122-.092q-.328-1.076-.664-2.149c-.027-.087,0-.107.083-.106.332.005.663,0,.995.006a.3.3,0,0,1,.167.153q.561.984,1.122,1.966C3637.666,516,3637.724,516.062,3637.686,516.149Z" transform="translate(-261.992 -68.981)" fill="#e01f31"/>
    <path id="Path_2237" data-name="Path 2237" d="M3483.19,515.991a.186.186,0,0,1-.065.17c-.537,0-1.074,0-1.611.005-.071,0-.094-.013-.07-.091q.338-1.09.669-2.181a.091.091,0,0,1,.1-.075c.3,0,.606,0,.908.006a.186.186,0,0,1,.065.169Q3483.2,514.993,3483.19,515.991Z" transform="translate(-114.188 -68.992)" fill="#e01f31"/>
    <path id="Path_2238" data-name="Path 2238" d="M3525.305,703.252c0,.079-.018.115-.1.112-.2-.007-.4,0-.6-.006v-3.976c.2,0,.4,0,.6-.006.087,0,.1.033.1.112Q3525.3,701.369,3525.305,703.252Z" transform="translate(-155.664 -247.295)" fill="#ab1725"/>
    <path id="Path_2239" data-name="Path 2239" d="M3478.6,598.564a.31.31,0,0,1-.155.234c-.434,0-.868.008-1.3,0a.458.458,0,0,1-.453-.447c-.007-.21,0-.42,0-.629,0-.083.036-.094.105-.094.591,0,1.181,0,1.771.005a.14.14,0,0,1,.061.112A4.481,4.481,0,0,1,3478.6,598.564Z" transform="translate(-109.627 -149.524)" fill="#e01f31"/>
    <path id="Path_2240" data-name="Path 2240" d="M3658.183,598.564a.31.31,0,0,1-.155.234c-.434,0-.868.008-1.3,0a.459.459,0,0,1-.454-.447c-.007-.21,0-.42,0-.629,0-.083.036-.094.106-.094.59,0,1.18,0,1.771.005a.14.14,0,0,1,.061.112A4.5,4.5,0,0,1,3658.183,598.564Z" transform="translate(-282.186 -149.524)" fill="#e01f31"/>
    <path id="Path_2241" data-name="Path 2241" d="M3525.305,516.042c0,.079-.018.114-.1.112-.2-.007-.4,0-.6-.006v-2.335c.2,0,.4,0,.6-.006.087,0,.105.033.1.112Q3525.3,514.98,3525.305,516.042Z" transform="translate(-155.664 -68.979)" fill="#ab1725"/>
    <path id="Path_2242" data-name="Path 2242" d="M3665.017,515.762h-.621q-.4-.689-.792-1.377-.276-.479-.554-.958a1.669,1.669,0,0,1,.606.015c.17.072.219.318.318.488.323.555.638,1.115.957,1.673C3664.957,515.65,3664.981,515.7,3665.017,515.762Z" transform="translate(-288.702 -68.594)" fill="#ab1725"/>
    <path id="Path_2243" data-name="Path 2243" d="M3522.43,598.316a.465.465,0,0,1-.469.463c-.116,0-.234,0-.351,0a2.713,2.713,0,0,0,.117-1.163c.2,0,.4,0,.6-.006.085,0,.108.03.106.11C3522.428,597.916,3522.436,598.116,3522.43,598.316Z" transform="translate(-152.791 -149.501)" fill="#ab1725"/>
    <path id="Path_2244" data-name="Path 2244" d="M3702.01,598.316a.465.465,0,0,1-.469.463c-.117,0-.234,0-.351,0a2.721,2.721,0,0,0,.117-1.163c.2,0,.4,0,.6-.006.085,0,.108.03.106.11C3702.008,597.916,3702.016,598.116,3702.01,598.316Z" transform="translate(-325.349 -149.501)" fill="#ab1725"/>
    <path id="Path_2245" data-name="Path 2245" d="M3609.608,700.334c-.219,0-.439,0-.659,0a.47.47,0,1,1-.008-.937q.666,0,1.332,0a.47.47,0,1,1-.007.937C3610.047,700.335,3609.828,700.334,3609.608,700.334Z" transform="translate(-236.223 -247.309)" fill="#ab1725"/>
    <path id="Path_2246" data-name="Path 2246" d="M3644.826,747.319a.468.468,0,1,1-.465.467A.475.475,0,0,1,3644.826,747.319Z" transform="translate(-270.741 -293.361)" fill="#e01f31"/>
  </g>
</svg>
