<svg id="cat.apartment" xmlns="http://www.w3.org/2000/svg" width="24" height="24" viewBox="0 0 24 24">
  <rect id="Rectangle_1184" data-name="Rectangle 1184" width="24" height="24" fill="none"/>
  <g id="Group_3570" data-name="Group 3570" transform="translate(-2721.96 -364.282)">
    <path id="Path_2204" data-name="Path 2204" d="M2739.283,382.151a2.509,2.509,0,0,0,1.866-2.443,6.028,6.028,0,0,0-.409-1.962,5.058,5.058,0,0,0-1.013-1.812.334.334,0,0,1-.1-.251q0-2.915,0-5.83a.511.511,0,0,0-.563-.572h-7.23a.509.509,0,0,0-.562.572c0,1.027,0,2.055,0,3.082,0,.133-.033.163-.164.163-1.519-.005-3.037,0-4.556,0-.414,0-.6.185-.6.6v9.992c0,.41.188.6.6.6h12.687c.058,0,.116,0,.174,0a.51.51,0,1,0-.139-1.011c-.133,0-.169-.032-.163-.164a7.457,7.457,0,0,0,0-.746C2739.114,382.225,2739.161,382.183,2739.283,382.151Zm-.663-6.927c0,.11-.012.158-.144.173a1.677,1.677,0,0,0-1.107.7,7.278,7.278,0,0,0-1.275,3.431,2.539,2.539,0,0,0,1.842,2.62c.148.04.187.1.18.242-.012.254-.007.508,0,.762,0,.09-.023.121-.114.116-.132-.009-.264-.005-.4-.007l-2.23.005c-.981,0-1.962,0-2.943,0-.119,0-.146-.03-.146-.148q0-6.338,0-12.676c0-.078-.021-.148.112-.148q2.84.008,5.679,0a.193.193,0,0,1,.031,0c.163,0,.369-.058.475.021s.03.3.03.452C2738.62,372.261,2738.618,373.743,2738.621,375.225Z" transform="translate(0 0)" fill="#0f121f"/>
    <path id="Path_2205" data-name="Path 2205" d="M2753.625,492.061q-1.85,0-3.7.006c-.076,0-.107-.025-.1-.1a.71.71,0,0,0,0-.079q0-4.38,0-8.761c0-.144.035-.182.18-.181,1.207.008,2.414.007,3.621.009.074.086.051.191.051.288q0,3.228,0,6.456,0,1.052,0,2.1A.342.342,0,0,1,2753.625,492.061Z" transform="translate(-22.855 -108.798)" fill="#e93941"/>
    <path id="Path_2206" data-name="Path 2206" d="M2990.573,544.375a1.505,1.505,0,0,1-1.261-1.18,2.757,2.757,0,0,1,.1-1.214,5.877,5.877,0,0,1,.858-1.983.792.792,0,0,1,.27-.281c.083-.019.124.046.17.093a2.7,2.7,0,0,1,.5.744,6.994,6.994,0,0,1,.593,1.8,1.8,1.8,0,0,1-.163,1.318,1.433,1.433,0,0,1-.975.717A.125.125,0,0,1,2990.573,544.375Z" transform="translate(-252.181 -163.179)" fill="#e93941"/>
    <path id="Path_2207" data-name="Path 2207" d="M2839.68,491.667v-9.105c.162,0,.368-.069.474.021s.031.3.031.453q0,4.228,0,8.456c0,.14-.029.2-.178.182A3.045,3.045,0,0,0,2839.68,491.667Z" transform="translate(-108.91 -108.404)" fill="#ab1725"/>
    <path id="Path_2208" data-name="Path 2208" d="M3019.087,541.671a1.556,1.556,0,0,0,1.224-1.768,7.194,7.194,0,0,0-.6-1.982,2.285,2.285,0,0,0-.66-.91.342.342,0,0,1,.53.005,2.312,2.312,0,0,1,.56.757,5.6,5.6,0,0,1,.687,2.47,1.514,1.514,0,0,1-1.683,1.449A.273.273,0,0,1,3019.087,541.671Z" transform="translate(-280.695 -160.476)" fill="#ab1725"/>
    <path id="Path_2209" data-name="Path 2209" d="M2904.947,477.435a.509.509,0,0,1,.722.28.48.48,0,0,1-.127.521.46.46,0,0,1-.507.116l-.088-.032a.473.473,0,0,1-.292-.434A.479.479,0,0,1,2904.947,477.435Z" transform="translate(-171.137 -103.51)" fill="#0f121f"/>
    <path id="Path_2210" data-name="Path 2210" d="M2904.947,621.111a.509.509,0,0,1,.722.28.48.48,0,0,1-.127.521.461.461,0,0,1-.507.116l-.088-.032a.473.473,0,0,1-.292-.434A.479.479,0,0,1,2904.947,621.111Z" transform="translate(-171.137 -241.083)" fill="#0f121f"/>
    <path id="Path_2211" data-name="Path 2211" d="M2904.947,429.542a.509.509,0,0,1,.716.265.478.478,0,0,1-.11.525.462.462,0,0,1-.518.127l-.088-.032a.478.478,0,0,1-.292-.45A.473.473,0,0,1,2904.947,429.542Z" transform="translate(-171.137 -57.652)" fill="#0f121f"/>
    <path id="Path_2212" data-name="Path 2212" d="M2904.947,525.326a.509.509,0,0,1,.716.265.478.478,0,0,1-.11.525.462.462,0,0,1-.518.127l-.088-.032a.478.478,0,0,1-.292-.45A.474.474,0,0,1,2904.947,525.326Z" transform="translate(-171.137 -149.368)" fill="#0f121f"/>
    <path id="Path_2213" data-name="Path 2213" d="M2904.947,573.218a.509.509,0,0,1,.716.265.478.478,0,0,1-.11.525.462.462,0,0,1-.518.127l-.088-.032a.479.479,0,0,1-.292-.45A.474.474,0,0,1,2904.947,573.218Z" transform="translate(-171.137 -195.225)" fill="#0f121f"/>
    <path id="Path_2214" data-name="Path 2214" d="M2970.79,429.569a.512.512,0,0,1,.722.28.48.48,0,0,1-.127.521.461.461,0,0,1-.507.116l-.088-.032a.475.475,0,0,1-.292-.435A.481.481,0,0,1,2970.79,429.569Z" transform="translate(-234.196 -57.679)" fill="#0f121f"/>
    <path id="Path_2215" data-name="Path 2215" d="M2970.79,477.461a.512.512,0,0,1,.722.28.48.48,0,0,1-.127.521.461.461,0,0,1-.507.116l-.088-.032a.475.475,0,0,1-.292-.435A.481.481,0,0,1,2970.79,477.461Z" transform="translate(-234.196 -103.537)" fill="#0f121f"/>
    <path id="Path_2216" data-name="Path 2216" d="M2894.581,429.462a.515.515,0,0,0,0,.884.608.608,0,0,1-.413.032.509.509,0,0,1-.306-.65.5.5,0,0,1,.629-.293Z" transform="translate(-160.77 -57.572)" fill="#fff"/>
    <path id="Path_2217" data-name="Path 2217" d="M2960.424,429.46a.518.518,0,0,0,0,.885.608.608,0,0,1-.413.032.509.509,0,0,1-.306-.65.5.5,0,0,1,.628-.294Z" transform="translate(-223.829 -57.57)" fill="#fff"/>
    <path id="Path_2218" data-name="Path 2218" d="M2894.581,477.354a.515.515,0,0,0,0,.884.608.608,0,0,1-.413.032.509.509,0,0,1-.306-.65.5.5,0,0,1,.629-.293Z" transform="translate(-160.771 -103.43)" fill="#fff"/>
    <path id="Path_2219" data-name="Path 2219" d="M2960.424,477.352a.518.518,0,0,0,0,.885.607.607,0,0,1-.413.032.509.509,0,0,1-.306-.65.5.5,0,0,1,.628-.294Z" transform="translate(-223.829 -103.428)" fill="#fff"/>
    <path id="Path_2220" data-name="Path 2220" d="M2894.581,525.246a.515.515,0,0,0,0,.884.608.608,0,0,1-.413.032.509.509,0,0,1-.306-.65.5.5,0,0,1,.629-.293Z" transform="translate(-160.77 -149.288)" fill="#fff"/>
    <path id="Path_2221" data-name="Path 2221" d="M2894.581,573.138a.515.515,0,0,0,0,.884.609.609,0,0,1-.413.032.509.509,0,0,1-.306-.65.5.5,0,0,1,.629-.293Z" transform="translate(-160.77 -195.145)" fill="#fff"/>
    <path id="Path_2222" data-name="Path 2222" d="M2894.581,621.03a.515.515,0,0,0,0,.884.609.609,0,0,1-.413.032.509.509,0,0,1-.306-.65.5.5,0,0,1,.629-.293Z" transform="translate(-160.771 -241.003)" fill="#fff"/>
    <path id="Path_2223" data-name="Path 2223" d="M2785.231,519.426a.511.511,0,0,1,.725.3.479.479,0,0,1-.131.5.457.457,0,0,1-.506.115l-.088-.031a.474.474,0,0,1-.292-.435A.48.48,0,0,1,2785.231,519.426Z" transform="translate(-56.485 -143.722)" fill="#0f121f"/>
    <path id="Path_2224" data-name="Path 2224" d="M2785.232,567.317a.511.511,0,0,1,.725.3.478.478,0,0,1-.131.5.457.457,0,0,1-.506.115l-.088-.031a.475.475,0,0,1-.292-.435A.48.48,0,0,1,2785.232,567.317Z" transform="translate(-56.485 -189.579)" fill="#0f121f"/>
    <path id="Path_2225" data-name="Path 2225" d="M2785.232,615.209a.511.511,0,0,1,.725.3.478.478,0,0,1-.131.5.457.457,0,0,1-.506.115l-.088-.03a.474.474,0,0,1-.292-.435A.48.48,0,0,1,2785.232,615.209Z" transform="translate(-56.485 -235.436)" fill="#0f121f"/>
    <path id="Path_2226" data-name="Path 2226" d="M2774.755,519.165a.517.517,0,0,0,0,.885.516.516,0,0,1-.452.016.487.487,0,0,1-.251-.669.474.474,0,0,1,.656-.241A.254.254,0,0,0,2774.755,519.165Z" transform="translate(-46.009 -143.461)" fill="#fff"/>
    <path id="Path_2227" data-name="Path 2227" d="M2774.755,567.058a.517.517,0,0,0,0,.885.515.515,0,0,1-.452.016.487.487,0,0,1-.251-.669.474.474,0,0,1,.656-.241A.249.249,0,0,0,2774.755,567.058Z" transform="translate(-46.009 -189.32)" fill="#fff"/>
    <path id="Path_2228" data-name="Path 2228" d="M2774.755,614.95a.517.517,0,0,0,0,.885.515.515,0,0,1-.452.016.487.487,0,0,1-.251-.669.474.474,0,0,1,.656-.241A.259.259,0,0,0,2774.755,614.95Z" transform="translate(-46.009 -235.177)" fill="#fff"/>
  </g>
</svg>
