<svg xmlns="http://www.w3.org/2000/svg" width="45" height="45" viewBox="0 0 45 45">
  <g id="chat.attached" transform="translate(1945.995 -1197.499)">
    <circle id="Ellipse_201" data-name="Ellipse 201" cx="22.5" cy="22.5" r="22.5" transform="translate(-1945.995 1197.499)" fill="#fef5ed"/>
    <g id="Component_1833_2" data-name="Component 1833 – 2" transform="translate(-1935.495 1207.999)">
      <rect id="Rectangle_1261" data-name="Rectangle 1261" width="24" height="24" fill="none"/>
      <g id="Icon_ionic-md-attach" data-name="Icon ionic-md-attach" transform="translate(-2.542 0.6)" fill="none">
        <path d="M18.028,6.171v9.586a3.486,3.486,0,1,1-6.971,0V5.736a2.179,2.179,0,1,1,4.357,0V15.757a.871.871,0,0,1-1.743,0V7.479H12.364v8.278a2.179,2.179,0,0,0,4.357,0V5.736a3.486,3.486,0,1,0-6.971,0V15.757a4.793,4.793,0,0,0,9.586,0V6.171Z" stroke="none"/>
        <path d="M 13.23565769195557 2.250001907348633 C 15.15296745300293 2.250001907348633 16.72136688232422 3.818592071533203 16.72136688232422 5.735702514648438 L 16.72136688232422 15.75701236724854 C 16.72136688232422 16.97689247131348 15.76270771026611 17.93554306030273 14.54278755187988 17.93554306030273 C 13.32286739349365 17.93554306030273 12.3642578125 16.97689247131348 12.36420822143555 15.75701236724854 L 12.36420822143555 7.478512763977051 L 13.67133712768555 7.478512763977051 L 13.67133712768555 15.75701236724854 C 13.67133712768555 16.23611259460449 14.06363773345947 16.62842178344727 14.54274749755859 16.62842178344727 C 15.02184772491455 16.62842178344727 15.41419792175293 16.23611259460449 15.41419792175293 15.75701236724854 L 15.41419792175293 5.735702514648438 C 15.41419792175293 4.515781402587891 14.45553779602051 3.557132720947266 13.23565769195557 3.557132720947266 C 12.01573753356934 3.557132720947266 11.05712699890137 4.515781402587891 11.05712699890137 5.735702514648438 L 11.05712699890137 15.75697231292725 C 11.05712699890137 17.67428207397461 12.62551689147949 19.24267196655273 14.54278755187988 19.24267196655273 C 16.46009826660156 19.24267196655273 18.02848815917969 17.67428207397461 18.02848815917969 15.75697231292725 L 18.02848815917969 6.171382904052734 L 19.33561706542969 6.171382904052734 L 19.33561706542969 15.75697231292725 C 19.33561706542969 18.41465187072754 17.2004280090332 20.54980278015137 14.54278755187988 20.54980278015137 C 11.88514709472656 20.54980278015137 9.749998092651367 18.41465187072754 9.749958038330078 15.75697231292725 L 9.749958038330078 5.735702514648438 C 9.749958038330078 3.818592071533203 11.3183479309082 2.250001907348633 13.23565769195557 2.250001907348633 Z" stroke="none" fill="#000"/>
      </g>
    </g>
  </g>
</svg>
