<svg id="ho.beds" xmlns="http://www.w3.org/2000/svg" width="24" height="24" viewBox="0 0 24 24">
  <rect id="Rectangle_1186" data-name="Rectangle 1186" width="24" height="24" rx="3" fill="#fff"/>
  <g id="Group_3576" data-name="Group 3576" transform="translate(4 6.998)">
    <g id="Group_3582" data-name="Group 3582" transform="translate(0 0)">
      <path id="Path_2308" data-name="Path 2308" d="M629.442,619.133c-.22-.152-.177-.366-.178-.573,0-.178,0-.357,0-.535a1.134,1.134,0,0,0-.865-1.1,2.425,2.425,0,0,0-.656-.029c-.147,0-.2-.022-.2-.187.009-1.06,0-2.119,0-3.178a.57.57,0,0,0-.634-.637H616.152a.561.561,0,0,0-.6.6v.3c0,.976,0,1.951,0,2.927,0,.143-.041.181-.176.169s-.273,0-.41,0a1.115,1.115,0,0,0-1.1.869,5.424,5.424,0,0,0-.032,1.066.228.228,0,0,1-.086.2.539.539,0,0,0-.2.452c0,.315,0,.631,0,.947q0,1.07,0,2.141c0,.238.182.387.379.311a.288.288,0,0,0,.19-.344c-.029-.181.039-.217.217-.217q7.193.007,14.386,0c.249,0,.249,0,.252.246,0,.209.112.328.293.324a.282.282,0,0,0,.279-.321q0-1.553,0-3.106A.388.388,0,0,0,629.442,619.133Zm-13.153-5.673q2.562,0,5.123,0h.143c1.743,0,3.487,0,5.23,0,.171,0,.2.051.2.206q-.011,1.516,0,3.033c0,.171-.051.2-.206.2-.273-.012-.547-.007-.82,0-.089,0-.12-.017-.124-.115a.7.7,0,0,0-.783-.744h-2.463a.7.7,0,0,0-.747.725c0,.114-.035.139-.142.134-.209-.009-.417,0-.626,0-.066,0-.083-.012-.083-.088a.7.7,0,0,0-.756-.77h-2.5a.7.7,0,0,0-.751.739c0,.089-.016.124-.115.12-.207-.007-.416-.009-.624,0-.108,0-.123-.036-.123-.131,0-1.053.006-2.107,0-3.16C616.118,613.453,616.185,613.46,616.289,613.46ZM614.4,618.7c.017-.2,0-.4,0-.607a.584.584,0,0,1,.63-.634c.518,0,1.035,0,1.552,0h11.384c.506,0,.716.21.716.712,0,.172-.01.346,0,.516s-.029.206-.2.2q-3.48-.009-6.959,0t-6.94,0C614.445,618.893,614.391,618.865,614.4,618.7Z" transform="translate(-613.55 -612.89)" fill="#040505"/>
      <path id="Path_2309" data-name="Path 2309" d="M624.879,657.92q3.6,0,7.206,0c.148,0,.184.036.182.191-.009.683-.007,1.367,0,2.05,0,.123-.031.152-.146.152q-7.259,0-14.519,0c-.116,0-.146-.031-.145-.152.006-.689.007-1.379,0-2.069,0-.141.033-.171.165-.171Q621.249,657.923,624.879,657.92Z" transform="translate(-616.86 -651.501)" fill="#e93941"/>
      <path id="Path_2310" data-name="Path 2310" d="M642.516,638.65c-.416,0-.832,0-1.248,0-.113,0-.232-.009-.235-.147s.113-.153.228-.153q1.258,0,2.515,0c.115,0,.227.014.224.156s-.108.145-.217.144C643.361,638.649,642.939,638.65,642.516,638.65Z" transform="translate(-637.064 -634.643)" fill="#aa1725"/>
      <path id="Path_2311" data-name="Path 2311" d="M675.834,638.352c.41,0,.82,0,1.23,0,.112,0,.23,0,.235.145s-.11.155-.225.155q-1.258,0-2.515,0c-.115,0-.231-.015-.227-.154s.123-.146.236-.146C674.989,638.353,675.412,638.352,675.834,638.352Z" transform="translate(-665.551 -634.643)" fill="#aa1725"/>
    </g>
  </g>
</svg>
