<svg id="ho.baths" xmlns="http://www.w3.org/2000/svg" width="24" height="24" viewBox="0 0 24 24">
  <rect id="Rectangle_1186" data-name="Rectangle 1186" width="24" height="24" rx="3" fill="#fff"/>
  <g id="Group_3578" data-name="Group 3578" transform="translate(3.709 5.032)">
    <path id="Path_2278" data-name="Path 2278" d="M611.841,812.375a1.275,1.275,0,0,1-1.183-1.772,5.949,5.949,0,0,1,.938-1.363.31.31,0,0,1,.5-.006,5.9,5.9,0,0,1,.941,1.362A1.275,1.275,0,0,1,611.841,812.375Z" transform="translate(-610.545 -801.276)" fill="#050605"/>
    <path id="Path_2279" data-name="Path 2279" d="M628.85,690.234a.325.325,0,1,1,.319-.321A.316.316,0,0,1,628.85,690.234Z" transform="translate(-627.542 -687.509)" fill="#080808"/>
    <path id="Path_2280" data-name="Path 2280" d="M653.117,689.913a.325.325,0,1,1-.305-.334A.319.319,0,0,1,653.117,689.913Z" transform="translate(-650.189 -687.503)" fill="#080808"/>
    <path id="Path_2281" data-name="Path 2281" d="M677.062,689.91a.325.325,0,1,1-.308-.331A.318.318,0,0,1,677.062,689.91Z" transform="translate(-673.136 -687.504)" fill="#080808"/>
    <path id="Path_2282" data-name="Path 2282" d="M754.554,708.193a.325.325,0,1,1,.325-.314A.317.317,0,0,1,754.554,708.193Z" transform="translate(-747.082 -704.576)" fill="#080808"/>
    <path id="Path_2283" data-name="Path 2283" d="M778.825,707.858a.325.325,0,1,1-.324-.315A.318.318,0,0,1,778.825,707.858Z" transform="translate(-769.836 -704.576)" fill="#080808"/>
    <path id="Path_2284" data-name="Path 2284" d="M629.173,713.846a.325.325,0,1,1-.323-.317A.317.317,0,0,1,629.173,713.846Z" transform="translate(-627.547 -710.264)" fill="#080808"/>
    <path id="Path_2285" data-name="Path 2285" d="M754.556,726.151a.325.325,0,1,1,.322-.318A.316.316,0,0,1,754.556,726.151Z" transform="translate(-747.081 -721.641)" fill="#080808"/>
    <path id="Path_2286" data-name="Path 2286" d="M778.172,725.809a.325.325,0,1,1,.319.341A.316.316,0,0,1,778.172,725.809Z" transform="translate(-769.833 -721.641)" fill="#080808"/>
    <path id="Path_2287" data-name="Path 2287" d="M629.169,737.8a.325.325,0,1,1-.3-.34A.317.317,0,0,1,629.169,737.8Z" transform="translate(-627.542 -733.01)" fill="#080808"/>
    <path id="Path_2288" data-name="Path 2288" d="M629.173,761.734a.325.325,0,1,1-.324-.315A.317.317,0,0,1,629.173,761.734Z" transform="translate(-627.546 -755.774)" fill="#080808"/>
    <path id="Path_2289" data-name="Path 2289" d="M628.845,786.012a.325.325,0,1,1,.327-.313A.317.317,0,0,1,628.845,786.012Z" transform="translate(-627.545 -778.528)" fill="#080808"/>
    <path id="Path_2290" data-name="Path 2290" d="M673.143,655.72a.887.887,0,0,0-.876-.728q-3.864,0-7.728,0a.426.426,0,0,1-.311-.119c-.637-.574-1.28-1.142-1.919-1.714a.938.938,0,0,0-.684-.263c-.239.009-.479,0-.718,0-.089,0-.127-.014-.127-.119.005-.97-.008-1.941.008-2.912a1.464,1.464,0,0,1,2.856-.439c.027.083.087.171-.066.226a.259.259,0,0,0-.138.331.274.274,0,0,0,.281.222c.2,0,.4,0,.607,0a.3.3,0,0,0,.079-.579.162.162,0,0,1-.138-.153,2.059,2.059,0,0,0-4.076.487c0,.915,0,1.829,0,2.744,0,.147-.021.207-.184.2-.238-.017-.478-.006-.717,0a.9.9,0,0,0-.115,1.782c.12.015.132.055.131.156,0,.647,0,1.294,0,1.941,0,.591,0,1.182,0,1.773a2.068,2.068,0,0,0,1.951,2.11c.069,0,.1.015.123.092a.286.286,0,0,0,.308.211q.561-.005,1.122,0a.287.287,0,0,0,.309-.21c.023-.076.052-.092.123-.091q2.539,0,5.079,0c.066,0,.1.005.126.087a.283.283,0,0,0,.306.214c.374,0,.748,0,1.122,0a.283.283,0,0,0,.31-.207c.025-.091.07-.092.14-.1a2.071,2.071,0,0,0,1.936-2.051c0-.516.01-1.033,0-1.549-.005-.19.012-.32.237-.314a.235.235,0,0,0,.088-.025A.909.909,0,0,0,673.143,655.72Zm-1.469,2.932a1.47,1.47,0,0,1-1.47,1.415c-1.472.005-2.944,0-4.417,0h-4.306a1.491,1.491,0,0,1-1.581-1.609c0-1.195,0-2.389,0-3.584,0-.161.044-.193.192-.188.368.012.736.006,1.1,0a.333.333,0,0,1,.248.09c.641.578,1.288,1.151,1.93,1.728a1.017,1.017,0,0,0,.717.276c1.006-.006,2.012,0,3.018-.006.128,0,.163.031.161.162-.008.522,0,1.045,0,1.568,0,.256.1.364.354.364q1.418,0,2.834,0c.237,0,.344-.11.345-.354,0-.529,0-1.058,0-1.586,0-.123.032-.158.152-.153.208.01.417.007.626,0,.091,0,.112.029.111.116C671.677,657.483,671.691,658.068,671.674,658.652Z" transform="translate(-655.825 -647.829)" fill="#040505"/>
    <path id="Path_2291" data-name="Path 2291" d="M852.56,804.732c0,.44,0,.88,0,1.319,0,.114-.029.149-.146.148q-1.157-.008-2.313,0c-.114,0-.148-.03-.148-.146q.007-1.319,0-2.638c0-.114.029-.149.146-.148q1.156.008,2.313,0c.114,0,.15.03.148.146C852.556,803.853,852.56,804.292,852.56,804.732Z" transform="translate(-838.179 -795.688)" fill="#aa1725"/>
    <path id="Path_2292" data-name="Path 2292" d="M677.534,764.233c-.511,0-1.022-.006-1.533,0a.661.661,0,0,1-.474-.19c-.729-.643-1.465-1.279-2.2-1.919a.41.41,0,0,0-.291-.09c-.714,0-1.428,0-2.142,0a.356.356,0,0,1-.346-.176.271.271,0,0,1,.023-.311.33.33,0,0,1,.288-.139H673.3a.474.474,0,0,1,.316.139q1.115.972,2.227,1.945a.455.455,0,0,0,.322.113c.976,0,1.952,0,2.928-.005.172,0,.24.032.233.222-.015.408,0,.409-.414.409Z" transform="translate(-667.472 -755.767)" fill="#e93941"/>
    <path id="Path_2293" data-name="Path 2293" d="M910.593,803.954c-.237,0-.474,0-.71,0-.117,0-.147-.042-.15-.153-.016-.5-.02-.5.472-.5.359,0,.717,0,1.076,0,.248,0,.411.139.4.333s-.162.313-.4.316S910.823,803.954,910.593,803.954Z" transform="translate(-895.011 -795.578)" fill="#e93941"/>
    <path id="Path_2294" data-name="Path 2294" d="M623.3,827.037a.631.631,0,0,1-.595-.873,6.091,6.091,0,0,1,.512-.8c.057-.078.093-.075.149,0a6.885,6.885,0,0,1,.5.784A.629.629,0,0,1,623.3,827.037Z" transform="translate(-621.988 -816.557)" fill="#e93941"/>
  </g>
</svg>
