<svg id="ho.sqft" xmlns="http://www.w3.org/2000/svg" width="24" height="24" viewBox="0 0 24 24">
  <path id="Path_2307" data-name="Path 2307" d="M4,0H20a4,4,0,0,1,4,4V20a4,4,0,0,1-4,4H4a4,4,0,0,1-4-4V4A4,4,0,0,1,4,0Z" fill="#fff"/>
  <g id="Group_3581" data-name="Group 3581" transform="translate(4 3.996)">
    <g id="Group_3580" data-name="Group 3580">
      <path id="Path_2295" data-name="Path 2295" d="M422.821,368.17a.805.805,0,0,0-.878-.882h-4.1a.808.808,0,0,0-.891.885c0,1.222,0,2.445,0,3.667a.405.405,0,0,1-.13.319q-3.994,3.985-7.982,7.977-.872.872-1.745,1.744a.809.809,0,0,0,.6,1.414h14.218a.808.808,0,0,0,.9-.907Q422.822,375.279,422.821,368.17Zm-3.163,14.365a.244.244,0,0,1-.231.222,1.075,1.075,0,0,1-.133,0H407.712c-.272,0-.39-.11-.357-.331,0-.015.017-.027.027-.04.01-.067.065-.1.107-.144l11.536-11.537c.019-.019.042-.035.063-.053h0c.045-.048.087-.1.137-.143a.256.256,0,0,1,.281-.043.246.246,0,0,1,.157.235c0,.05,0,.1,0,.15q0,5.749,0,11.5A1.249,1.249,0,0,1,419.658,382.535Zm1.8-12.576c.244,0,.488,0,.731-.005.081,0,.1.026.1.1q0,.7,0,1.4c0,.08-.024.106-.1.1-.144-.007-.288-.005-.432-.008-.066,0-.131.005-.2.006-.193,0-.314.08-.331.227a.27.27,0,0,0,.23.31c.244,0,.488,0,.731-.005.081,0,.1.026.1.1q0,.7,0,1.4c0,.08-.024.106-.1.1-.144-.007-.288-.005-.432-.008-.066,0-.131.005-.2.006-.193,0-.314.08-.332.227a.27.27,0,0,0,.23.31c.244,0,.488,0,.731-.005.081,0,.1.026.1.1q0,.7,0,1.4c0,.08-.024.106-.1.1-.144-.007-.288-.005-.432-.007l-.2.006c-.193,0-.314.08-.332.227a.27.27,0,0,0,.23.31c.244,0,.488,0,.731-.005.081,0,.1.026.1.1q0,.7,0,1.4c0,.08-.024.106-.1.1-.144-.007-.288-.005-.432-.008l-.2.006c-.193,0-.314.08-.331.227a.27.27,0,0,0,.23.31c.244,0,.488,0,.731-.005.081,0,.1.026.1.1q0,.7,0,1.4c0,.08-.024.106-.1.1-.144-.007-.288-.006-.432-.008-.066,0-.131.005-.2.006-.193,0-.314.08-.332.227a.27.27,0,0,0,.23.31c.239,0,.478,0,.716,0,.08,0,.119.012.118.107,0,.583,0,1.167,0,1.75a.249.249,0,0,1-.251.275c-.621.005-1.243,0-1.842,0V370.588a.81.81,0,0,0-1.106-.606.967.967,0,0,0-.3.21q-.582.583-1.164,1.166c-.038.038-.07.082-.112.131a.291.291,0,0,1-.029-.185q0-1.573,0-3.145c0-.141.019-.268.184-.309h0c.053-.045.117-.027.176-.027h4.093c.258,0,.348.091.349.351,0,.377,0,.754,0,1.131,0,.094-.026.126-.12.12-.138-.009-.277-.006-.415-.008-.066,0-.131.005-.2.006-.193,0-.314.08-.332.227A.27.27,0,0,0,421.455,369.959Z" transform="translate(-406.822 -367.288)" fill="#141529"/>
      <path id="Path_2297" data-name="Path 2297" d="M431.036,438.547c0-.05,0-.1,0-.151a.246.246,0,0,0-.158-.236.257.257,0,0,0-.282.043c-.05.044-.092.1-.137.144h0c.077.01.073.074.081.126a1.169,1.169,0,0,1,.006.184q0,5.441,0,10.883a.654.654,0,0,1-.162.526.631.631,0,0,1-.4.185c-.061,0-.123,0-.184,0H419.015a.93.93,0,0,1-.217-.01c-.056-.013-.133-.018-.1-.114-.009.013-.024.026-.027.041-.033.222.085.333.358.333h11.631a1.083,1.083,0,0,0,.134,0,.245.245,0,0,0,.232-.224,1.251,1.251,0,0,0,.007-.184Q431.036,444.321,431.036,438.547Z" transform="translate(-418.138 -435.034)" fill="#e93941"/>
      <path id="Path_2299" data-name="Path 2299" d="M708.246,451.436c.248,0,.253.007.255.25,0,.329,0,.659,0,.988a.594.594,0,0,1-.639.639c-.251.005-.5,0-.753,0-.2,0-.216-.022-.216-.223q0-5.39,0-10.78c0-.323.015-.647-.01-.969v12.223c.6,0,1.226,0,1.85,0a.25.25,0,0,0,.252-.276c0-.586,0-1.172,0-1.758,0-.1-.038-.109-.119-.107-.24.005-.48,0-.719,0A.233.233,0,0,0,708.246,451.436Z" transform="translate(-693.52 -438.094)" fill="#e93941"/>
      <path id="Path_2300" data-name="Path 2300" d="M650.433,379.206H654.2c.206,0,.224.013.226.211,0,.4,0,.791,0,1.187a.247.247,0,0,1-.053.188c.139,0,.279,0,.417.008.095.006.122-.026.121-.121-.005-.379,0-.757,0-1.136,0-.261-.091-.352-.35-.352h-4.111c-.059,0-.123-.018-.176.027A.471.471,0,0,1,650.433,379.206Z" transform="translate(-639.44 -378.655)" fill="#e93941"/>
      <path id="Path_2301" data-name="Path 2301" d="M735.3,427.134c.249,0,.253.006.254.248q0,.559,0,1.117a.293.293,0,0,1-.053.221c.145,0,.289,0,.434.008.08,0,.1-.023.1-.1q0-.7,0-1.4c0-.079-.022-.107-.1-.1-.245.006-.49,0-.734.005A.231.231,0,0,0,735.3,427.134Z" transform="translate(-720.57 -424.452)" fill="#aa1725"/>
      <path id="Path_2302" data-name="Path 2302" d="M735.3,475.022c.249,0,.253.006.254.248q0,.559,0,1.117a.292.292,0,0,1-.053.221c.145,0,.289,0,.434.008.08,0,.1-.022.1-.1q-.005-.7,0-1.4c0-.079-.022-.107-.1-.1-.245.006-.49,0-.734.005A.231.231,0,0,0,735.3,475.022Z" transform="translate(-720.571 -470.207)" fill="#e93941"/>
      <path id="Path_2303" data-name="Path 2303" d="M735.3,522.911c.249,0,.253.006.254.248q0,.559,0,1.117a.292.292,0,0,1-.053.221c.145,0,.289,0,.434.008.08,0,.1-.023.1-.1q-.005-.7,0-1.4c0-.079-.022-.107-.1-.1-.245.006-.49,0-.734.005A.23.23,0,0,0,735.3,522.911Z" transform="translate(-720.571 -515.963)" fill="#aa1725"/>
      <path id="Path_2304" data-name="Path 2304" d="M735.3,570.8c.249,0,.253.006.254.248q0,.559,0,1.117a.292.292,0,0,1-.053.221c.145,0,.289,0,.434.008.08,0,.1-.023.1-.1q-.005-.7,0-1.4c0-.079-.022-.107-.1-.1-.245.006-.49,0-.734.005A.231.231,0,0,0,735.3,570.8Z" transform="translate(-720.571 -561.719)" fill="#e93941"/>
      <path id="Path_2305" data-name="Path 2305" d="M735.3,618.689c.249,0,.253.006.254.248q0,.559,0,1.117a.292.292,0,0,1-.053.221c.145,0,.289,0,.434.008.08,0,.1-.023.1-.1q-.005-.7,0-1.4c0-.079-.022-.107-.1-.1-.245.006-.49,0-.734.005A.232.232,0,0,0,735.3,618.689Z" transform="translate(-720.571 -607.475)" fill="#aa1725"/>
      <path id="Path_2306" data-name="Path 2306" d="M534.746,558.835c.72,0,1.439,0,2.159,0H539.1c.258,0,.344-.083.344-.336q0-2.184,0-4.368c0-.135-.015-.258-.158-.32s-.253.011-.353.112q-2.2,2.2-4.4,4.4a.3.3,0,0,0-.105.357C534.484,558.816,534.608,558.836,534.746,558.835Zm4.118-4h0v.065q0,1.624,0,3.248c0,.071.033.153-.1.152-1.132,0-2.265,0-3.359,0Z" transform="translate(-528.725 -545.49)" fill="#141529"/>
    </g>
  </g>
</svg>
