<svg id="logo" xmlns="http://www.w3.org/2000/svg" width="261.055" height="243.578" viewBox="0 0 261.055 243.578">
  <g id="Group_19" data-name="Group 19" transform="translate(48.499)">
    <g id="Group_18" data-name="Group 18">
      <path id="Path_1" data-name="Path 1" d="M392.892,194.184l-64.263-37.1a19.294,19.294,0,0,0-19.3,0l-64.259,37.1a19.287,19.287,0,0,0-9.649,16.711v74.2a19.311,19.311,0,0,0,9.649,16.711l1.756,1.013,62.5,36.088a19.308,19.308,0,0,0,19.3,0l62.532-36.1h0l1.727-1A19.279,19.279,0,0,0,402.54,285.1v-74.2A19.287,19.287,0,0,0,392.892,194.184Zm-8.192,102.9-1.952,1.126-54.118,31.248a19.294,19.294,0,0,1-19.3,0l-54.089-31.232-1.978-1.142a19.289,19.289,0,0,1-9.649-16.711V215.623a19.3,19.3,0,0,1,9.649-16.711l56.068-32.371a19.294,19.294,0,0,1,19.3,0L384.7,198.911a19.3,19.3,0,0,1,9.649,16.711v64.744a19.312,19.312,0,0,1-9.649,16.711Z" transform="translate(-235.424 -154.496)" fill="#141529"/>
      <path id="Path_2" data-name="Path 2" d="M401.271,399.081l-45.84,26.466a19.7,19.7,0,0,1-19.7,0l-45.384-26.2,55.7-30.467Z" transform="translate(-262.464 -260.033)" fill="#e93941"/>
      <path id="Path_3" data-name="Path 3" d="M401.18,238.788v54.96a19.683,19.683,0,0,1-5.016,13.13l-8.814-4.823-7.631-4.173-2.9-1.584-7.631-4.173-2.584-1.411-7.636-4.178-1.432-.782-1.361-.746-1.554-.848-1.361-.746-1.625-.889-1.366-.746-15.881-8.687-.036-.02-15.831,8.662-1.361.741-1.625.889-1.366.746-1.549.848-1.366.746-1.432.787-7.636,4.173-2.579,1.411-7.636,4.178-2.894,1.584-7.636,4.173-9.52,5.209a19.678,19.678,0,0,1-5.326-13.47v-54.96a19.7,19.7,0,0,1,9.845-17.059l47.6-27.478a19.692,19.692,0,0,1,19.694,0l47.6,27.478A19.7,19.7,0,0,1,401.18,238.788Z" transform="translate(-250.771 -172.768)" fill="#141529"/>
      <g id="Group_1" data-name="Group 1" transform="translate(76.052 132.01)">
        <rect id="Rectangle_1" data-name="Rectangle 1" width="6.054" height="6.054" rx="2" transform="translate(8.389)" fill="#fff"/>
        <rect id="Rectangle_2" data-name="Rectangle 2" width="6.054" height="6.054" rx="2" transform="translate(8.389 8.437)" fill="#fff"/>
        <rect id="Rectangle_3" data-name="Rectangle 3" width="6.054" height="6.054" rx="2" fill="#fff"/>
        <rect id="Rectangle_4" data-name="Rectangle 4" width="6.054" height="6.054" rx="2" transform="translate(0 8.437)" fill="#fff"/>
      </g>
      <g id="Group_3" data-name="Group 3" transform="translate(30.674 61.817)">
        <g id="Group_2" data-name="Group 2">
          <path id="Path_4" data-name="Path 4" d="M303.476,330.3v36.317l-7.636,4.173V336.316Z" transform="translate(-295.84 -302.858)" fill="#fff" fill-rule="evenodd"/>
          <path id="Path_5" data-name="Path 5" d="M324.216,302.51v44.664l-7.636,4.178V309.689Z" transform="translate(-306.05 -289.177)" fill="#fff" fill-rule="evenodd"/>
          <path id="Path_6" data-name="Path 6" d="M344.336,276.25v52.411l-7.636,4.173v-48.02Z" transform="translate(-315.955 -276.25)" fill="#fff" fill-rule="evenodd"/>
          <path id="Path_7" data-name="Path 7" d="M355.926,277.443v49.685l-1.366.746V276.25Z" transform="translate(-324.747 -276.25)" fill="#fff" fill-rule="evenodd"/>
          <path id="Path_8" data-name="Path 8" d="M361.666,283.676v44.979l-1.366.746V282.59Z" transform="translate(-327.573 -279.371)" fill="#fff" fill-rule="evenodd"/>
          <path id="Path_9" data-name="Path 9" d="M367.551,290.137v40.069l-1.361.741v-41.9Z" transform="translate(-330.472 -282.551)" fill="#fff" fill-rule="evenodd"/>
        </g>
        <path id="Path_10" data-name="Path 10" d="M344.332,278.62l-7.223,8.162v1.046l7.223-7.869Z" transform="translate(-316.156 -277.417)" fill="#141529" fill-rule="evenodd"/>
        <path id="Path_11" data-name="Path 11" d="M344.332,283.539l-7.223,8.162v1.046l7.223-7.869Z" transform="translate(-316.156 -279.838)" fill="#141529" fill-rule="evenodd"/>
        <path id="Path_12" data-name="Path 12" d="M344.332,289.052l-7.223,8.162v1.046l7.223-7.869Z" transform="translate(-316.156 -282.552)" fill="#141529" fill-rule="evenodd"/>
        <path id="Path_13" data-name="Path 13" d="M344.332,294.79l-7.223,8.162V304l7.223-7.869Z" transform="translate(-316.156 -285.377)" fill="#141529" fill-rule="evenodd"/>
        <path id="Path_14" data-name="Path 14" d="M344.332,300.454l-7.223,8.162v1.046l7.223-7.869Z" transform="translate(-316.156 -288.165)" fill="#141529" fill-rule="evenodd"/>
        <path id="Path_15" data-name="Path 15" d="M344.332,305.895l-7.223,8.162V315.1l7.223-7.869Z" transform="translate(-316.156 -290.844)" fill="#141529" fill-rule="evenodd"/>
        <path id="Path_16" data-name="Path 16" d="M344.332,311.186l-7.223,8.162v1.046l7.223-7.869Z" transform="translate(-316.156 -293.448)" fill="#141529" fill-rule="evenodd"/>
        <path id="Path_17" data-name="Path 17" d="M344.332,316.657l-7.223,8.162v1.046L344.332,318Z" transform="translate(-316.156 -296.142)" fill="#141529" fill-rule="evenodd"/>
        <path id="Path_18" data-name="Path 18" d="M344.332,322.694l-7.223,8.162V331.9l7.223-7.869Z" transform="translate(-316.156 -299.114)" fill="#141529" fill-rule="evenodd"/>
        <path id="Path_19" data-name="Path 19" d="M344.332,328.318l-7.223,8.162v1.046l7.223-7.869Z" transform="translate(-316.156 -301.882)" fill="#141529" fill-rule="evenodd"/>
        <path id="Path_20" data-name="Path 20" d="M344.332,333.981l-7.223,8.162v1.046l7.223-7.869Z" transform="translate(-316.156 -304.67)" fill="#141529" fill-rule="evenodd"/>
        <path id="Path_21" data-name="Path 21" d="M344.332,339.571l-7.223,8.162v1.046l7.223-7.869Z" transform="translate(-316.156 -307.422)" fill="#141529" fill-rule="evenodd"/>
        <path id="Path_22" data-name="Path 22" d="M344.332,345.011l-7.223,8.162v1.046l7.223-7.869Z" transform="translate(-316.156 -310.1)" fill="#141529" fill-rule="evenodd"/>
        <path id="Path_23" data-name="Path 23" d="M344.332,350.767l-7.223,8.162v1.046l7.223-7.869Z" transform="translate(-316.156 -312.934)" fill="#141529" fill-rule="evenodd"/>
        <path id="Path_24" data-name="Path 24" d="M344.332,356.655l-7.223,8.162v1.046l7.223-7.869Z" transform="translate(-316.156 -315.832)" fill="#141529" fill-rule="evenodd"/>
        <path id="Path_25" data-name="Path 25" d="M344.332,362.468l-7.223,8.162v1.046l7.223-7.869Z" transform="translate(-316.156 -318.694)" fill="#141529" fill-rule="evenodd"/>
        <path id="Path_26" data-name="Path 26" d="M344.332,367.908l-7.223,8.162v1.046l7.223-7.869Z" transform="translate(-316.156 -321.372)" fill="#141529" fill-rule="evenodd"/>
      </g>
      <g id="Group_5" data-name="Group 5" transform="translate(99.5 61.817)">
        <g id="Group_4" data-name="Group 4">
          <path id="Path_27" data-name="Path 27" d="M497.031,336.946v34.2l-7.631-4.173V330.93Z" transform="translate(-459.953 -303.168)" fill="#fff" fill-rule="evenodd"/>
          <path id="Path_28" data-name="Path 28" d="M476.291,309.689V351.4l-7.631-4.173V302.51Z" transform="translate(-449.742 -289.177)" fill="#fff" fill-rule="evenodd"/>
          <path id="Path_29" data-name="Path 29" d="M456.166,284.815v48.071l-7.636-4.178V276.25Z" transform="translate(-439.833 -276.25)" fill="#fff" fill-rule="evenodd"/>
          <path id="Path_30" data-name="Path 30" d="M444.391,276.25v51.675l-1.361-.746V277.443Z" transform="translate(-437.125 -276.25)" fill="#fff" fill-rule="evenodd"/>
          <path id="Path_31" data-name="Path 31" d="M438.651,282.59v46.862l-1.361-.746V283.676Z" transform="translate(-434.3 -279.371)" fill="#fff" fill-rule="evenodd"/>
          <path id="Path_32" data-name="Path 32" d="M432.766,289.05V331l-1.366-.746V290.137Z" transform="translate(-431.4 -282.551)" fill="#fff" fill-rule="evenodd"/>
        </g>
        <path id="Path_33" data-name="Path 33" d="M448.94,278.62l7.223,8.162v1.046l-7.223-7.869Z" transform="translate(-440.035 -277.417)" fill="#141529" fill-rule="evenodd"/>
        <path id="Path_34" data-name="Path 34" d="M448.94,283.539l7.223,8.162v1.046l-7.223-7.869Z" transform="translate(-440.035 -279.838)" fill="#141529" fill-rule="evenodd"/>
        <path id="Path_35" data-name="Path 35" d="M448.94,289.052l7.223,8.162v1.046l-7.223-7.869Z" transform="translate(-440.035 -282.552)" fill="#141529" fill-rule="evenodd"/>
        <path id="Path_36" data-name="Path 36" d="M448.94,294.79l7.223,8.162V304l-7.223-7.869Z" transform="translate(-440.035 -285.377)" fill="#141529" fill-rule="evenodd"/>
        <path id="Path_37" data-name="Path 37" d="M448.94,300.454l7.223,8.162v1.046l-7.223-7.869Z" transform="translate(-440.035 -288.165)" fill="#141529" fill-rule="evenodd"/>
        <path id="Path_38" data-name="Path 38" d="M448.94,305.895l7.223,8.162V315.1l-7.223-7.869Z" transform="translate(-440.035 -290.844)" fill="#141529" fill-rule="evenodd"/>
        <path id="Path_39" data-name="Path 39" d="M448.94,311.186l7.223,8.162v1.046l-7.223-7.869Z" transform="translate(-440.035 -293.448)" fill="#141529" fill-rule="evenodd"/>
        <path id="Path_40" data-name="Path 40" d="M448.94,316.657l7.223,8.162v1.046L448.94,318Z" transform="translate(-440.035 -296.142)" fill="#141529" fill-rule="evenodd"/>
        <path id="Path_41" data-name="Path 41" d="M448.94,322.694l7.223,8.162V331.9l-7.223-7.869Z" transform="translate(-440.035 -299.114)" fill="#141529" fill-rule="evenodd"/>
        <path id="Path_42" data-name="Path 42" d="M448.94,328.318l7.223,8.162v1.046l-7.223-7.869Z" transform="translate(-440.035 -301.882)" fill="#141529" fill-rule="evenodd"/>
        <path id="Path_43" data-name="Path 43" d="M448.94,333.981l7.223,8.162v1.046l-7.223-7.869Z" transform="translate(-440.035 -304.67)" fill="#141529" fill-rule="evenodd"/>
        <path id="Path_44" data-name="Path 44" d="M448.94,339.571l7.223,8.162v1.046l-7.223-7.869Z" transform="translate(-440.035 -307.422)" fill="#141529" fill-rule="evenodd"/>
        <path id="Path_45" data-name="Path 45" d="M448.94,345.011l7.223,8.162v1.046l-7.223-7.869Z" transform="translate(-440.035 -310.1)" fill="#141529" fill-rule="evenodd"/>
        <path id="Path_46" data-name="Path 46" d="M448.94,350.767l7.223,8.162v1.046l-7.223-7.869Z" transform="translate(-440.035 -312.934)" fill="#141529" fill-rule="evenodd"/>
        <path id="Path_47" data-name="Path 47" d="M448.94,356.655l7.223,8.162v1.046l-7.223-7.869Z" transform="translate(-440.035 -315.832)" fill="#141529" fill-rule="evenodd"/>
        <path id="Path_48" data-name="Path 48" d="M448.94,362.468l7.223,8.162v1.046l-7.223-7.869Z" transform="translate(-440.035 -318.694)" fill="#141529" fill-rule="evenodd"/>
        <path id="Path_49" data-name="Path 49" d="M448.94,367.908l7.223,8.162v1.046l-7.223-7.869Z" transform="translate(-440.035 -321.372)" fill="#141529" fill-rule="evenodd"/>
      </g>
      <g id="Group_6" data-name="Group 6" transform="translate(70.127 95.462)">
        <path id="Path_50" data-name="Path 50" d="M373.587,351.419l-.04-1.531,13.436-7.37.655,1.194Z" transform="translate(-373.547 -342.518)" fill="#fff" fill-rule="evenodd"/>
        <path id="Path_51" data-name="Path 51" d="M412.75,351.419l.04-1.531-13.436-7.37-.655,1.194Z" transform="translate(-385.929 -342.518)" fill="#fff" fill-rule="evenodd"/>
      </g>
      <g id="Group_7" data-name="Group 7" transform="translate(70.127 90.606)">
        <path id="Path_52" data-name="Path 52" d="M373.587,341.855l-.04-1.531,13.436-7.37.655,1.194Z" transform="translate(-373.547 -332.954)" fill="#fff" fill-rule="evenodd"/>
        <path id="Path_53" data-name="Path 53" d="M412.75,341.855l.04-1.531-13.436-7.37-.655,1.194Z" transform="translate(-385.929 -332.954)" fill="#fff" fill-rule="evenodd"/>
      </g>
      <g id="Group_8" data-name="Group 8" transform="translate(70.127 85.782)">
        <path id="Path_54" data-name="Path 54" d="M373.587,332.354l-.04-1.531,13.436-7.37.655,1.194Z" transform="translate(-373.547 -323.453)" fill="#fff" fill-rule="evenodd"/>
        <path id="Path_55" data-name="Path 55" d="M412.75,332.354l.04-1.531-13.436-7.37-.655,1.194Z" transform="translate(-385.929 -323.453)" fill="#fff" fill-rule="evenodd"/>
      </g>
      <g id="Group_9" data-name="Group 9" transform="translate(70.127 80.636)">
        <path id="Path_56" data-name="Path 56" d="M373.587,322.218l-.04-1.531,13.436-7.37.655,1.194Z" transform="translate(-373.547 -313.317)" fill="#fff" fill-rule="evenodd"/>
        <path id="Path_57" data-name="Path 57" d="M412.75,322.218l.04-1.531-13.436-7.37-.655,1.194Z" transform="translate(-385.929 -313.317)" fill="#fff" fill-rule="evenodd"/>
      </g>
      <g id="Group_10" data-name="Group 10" transform="translate(70.127 75.49)">
        <path id="Path_58" data-name="Path 58" d="M373.587,312.083l-.04-1.531,13.436-7.37.655,1.194Z" transform="translate(-373.547 -303.182)" fill="#fff" fill-rule="evenodd"/>
        <path id="Path_59" data-name="Path 59" d="M412.75,312.083l.04-1.531-13.436-7.37-.655,1.194Z" transform="translate(-385.929 -303.182)" fill="#fff" fill-rule="evenodd"/>
      </g>
      <g id="Group_11" data-name="Group 11" transform="translate(70.127 70.344)">
        <path id="Path_60" data-name="Path 60" d="M373.587,301.947l-.04-1.531,13.436-7.37.655,1.194Z" transform="translate(-373.547 -293.046)" fill="#fff" fill-rule="evenodd"/>
        <path id="Path_61" data-name="Path 61" d="M412.75,301.947l.04-1.531-13.436-7.37-.655,1.194Z" transform="translate(-385.929 -293.046)" fill="#fff" fill-rule="evenodd"/>
      </g>
      <g id="Group_12" data-name="Group 12" transform="translate(70.127 65.52)">
        <path id="Path_62" data-name="Path 62" d="M373.587,292.446l-.04-1.531,13.436-7.37.655,1.194Z" transform="translate(-373.547 -283.545)" fill="#fff" fill-rule="evenodd"/>
        <path id="Path_63" data-name="Path 63" d="M412.75,292.446l.04-1.531-13.436-7.37-.655,1.194Z" transform="translate(-385.929 -283.545)" fill="#fff" fill-rule="evenodd"/>
      </g>
      <g id="Group_13" data-name="Group 13" transform="translate(70.127 60.374)">
        <path id="Path_64" data-name="Path 64" d="M373.587,282.31l-.04-1.531,13.436-7.37.655,1.194Z" transform="translate(-373.547 -273.409)" fill="#fff" fill-rule="evenodd"/>
        <path id="Path_65" data-name="Path 65" d="M412.75,282.31l.04-1.531-13.436-7.37L398.7,274.6Z" transform="translate(-385.929 -273.409)" fill="#fff" fill-rule="evenodd"/>
      </g>
      <g id="Group_14" data-name="Group 14" transform="translate(70.127 55.228)">
        <path id="Path_66" data-name="Path 66" d="M373.587,272.175l-.04-1.531,13.436-7.37.655,1.194Z" transform="translate(-373.547 -263.274)" fill="#fff" fill-rule="evenodd"/>
        <path id="Path_67" data-name="Path 67" d="M412.75,272.175l.04-1.531-13.436-7.37-.655,1.194Z" transform="translate(-385.929 -263.274)" fill="#fff" fill-rule="evenodd"/>
      </g>
      <g id="Group_15" data-name="Group 15" transform="translate(70.127 50.082)">
        <path id="Path_68" data-name="Path 68" d="M373.587,262.039l-.04-1.531,13.436-7.37.655,1.194Z" transform="translate(-373.547 -253.138)" fill="#fff" fill-rule="evenodd"/>
        <path id="Path_69" data-name="Path 69" d="M412.75,262.039l.04-1.531-13.436-7.37-.655,1.194Z" transform="translate(-385.929 -253.138)" fill="#fff" fill-rule="evenodd"/>
      </g>
      <g id="Group_16" data-name="Group 16" transform="translate(70.127 45.258)">
        <path id="Path_70" data-name="Path 70" d="M373.587,252.538l-.04-1.531,13.436-7.37.655,1.194Z" transform="translate(-373.547 -243.637)" fill="#fff" fill-rule="evenodd"/>
        <path id="Path_71" data-name="Path 71" d="M412.75,252.538l.04-1.531-13.436-7.37-.655,1.194Z" transform="translate(-385.929 -243.637)" fill="#fff" fill-rule="evenodd"/>
      </g>
      <g id="Group_17" data-name="Group 17" transform="translate(70.127 44.158)">
        <path id="Path_72" data-name="Path 72" d="M373.587,250.37l-.04-1.531,13.436-7.37.655,1.194Z" transform="translate(-373.547 -241.469)" fill="#fff" fill-rule="evenodd"/>
        <path id="Path_73" data-name="Path 73" d="M412.75,250.37l.04-1.531-13.436-7.37-.655,1.194Z" transform="translate(-385.929 -241.469)" fill="#fff" fill-rule="evenodd"/>
      </g>
    </g>
  </g>
  <path id="Path_12231" data-name="Path 12231" d="M-125.176-25.7h6.758q6.367,0,9.941,3.75a12.376,12.376,0,0,1,3.574,8.828,13.179,13.179,0,0,1-3.613,9.434Q-112.129.117-118.457.117q-.82,0-3.223-.078t-3.457-.078l-5.2.156a1.02,1.02,0,0,1-.117-.625q0-.664.117-.664a6.458,6.458,0,0,0,1.484-.254q.977-.254,1.133-.605a14.151,14.151,0,0,0,.273-3.555V-20.352a12.351,12.351,0,0,0-.273-3.2q-.117-.43-1.094-.7a6.139,6.139,0,0,0-1.562-.273q-.156,0-.156-.586a1.063,1.063,0,0,1,.156-.7Q-127.793-25.7-125.176-25.7Zm2.148,5V-5.391A6.345,6.345,0,0,0-122.6-2.5q.625.625,4.766.625,7.93,0,7.93-11.406a12.633,12.633,0,0,0-2.129-7.422,6.967,6.967,0,0,0-6.074-3.047h-.2q-3.75,0-4.219.625A4.294,4.294,0,0,0-123.027-20.7Zm30.43-3.125a6.374,6.374,0,0,0-2.266.273q-.43.2-.469,4.063V-15a1.1,1.1,0,0,0,.664,1.133,4.957,4.957,0,0,0,1.836.273h1.016a3.357,3.357,0,0,0,2.6-1.367,5.328,5.328,0,0,0,1.152-3.555Q-88.066-23.828-92.6-23.828Zm.625-1.953a11.241,11.241,0,0,1,2.129.215,11.406,11.406,0,0,1,2.3.723,9.253,9.253,0,0,1,2.129,1.25,5.49,5.49,0,0,1,1.523,1.953,6.2,6.2,0,0,1,.586,2.734,6.647,6.647,0,0,1-1.367,3.984,7.557,7.557,0,0,1-3.32,2.656q-.313.117-.156.391A45.867,45.867,0,0,0-83.77-5.234,17,17,0,0,0-80.82-2.363a4.983,4.983,0,0,0,2.91,1.191,1.111,1.111,0,0,1,.156.625,1.551,1.551,0,0,1-.156.7,7.622,7.622,0,0,1-1.211.078,12.99,12.99,0,0,1-3.613-.469,8.359,8.359,0,0,1-2.812-1.387A15.225,15.225,0,0,1-87.52-3.4,17.015,17.015,0,0,1-89.16-5.586q-.547-.781-1.25-1.836t-1.074-1.621q-.371-.566-.84-1.191a7.555,7.555,0,0,0-.8-.937,1.984,1.984,0,0,0-.645-.43,2.438,2.438,0,0,0-.937-.117q-.625,0-.625.664v5.508a12.215,12.215,0,0,0,.313,3.32q.117.469,1.309.762a8.25,8.25,0,0,0,1.738.293q.156,0,.156.664a2.2,2.2,0,0,1-.078.664q-4.3-.234-5.547-.234-1.055,0-2.363.059t-2.09.1l-.781.078a1.345,1.345,0,0,1-.117-.7q0-.625.117-.625a6.7,6.7,0,0,0,1.5-.254q1-.254,1.152-.605a15.458,15.458,0,0,0,.234-3.555V-20.352a15.333,15.333,0,0,0-.234-3.2q-.117-.313-1.152-.645a5.654,5.654,0,0,0-1.5-.332q-.156,0-.156-.586t.156-.7q4.141.117,5.2.117,1.094,0,2.715-.039T-91.973-25.781Zm21.211.117q1.719,0,6.055-.137t6.563-.137q.156,1.172.625,3.262t.508,2.285a1.208,1.208,0,0,1-.82.2q-.43,0-.547-.273a4.906,4.906,0,0,0-5-3.477H-65.41q-2.891,0-2.969.508a16.121,16.121,0,0,0-.234,3.164v6.133q0,.234,1.719.234h2.188a9.941,9.941,0,0,0,2.7-.2q.43-.2.664-1.367.117-.586.234-.977.039-.273.625-.273a1.057,1.057,0,0,1,.742.2v7.383a1.148,1.148,0,0,1-.742.156q-.508,0-.625-.312a12.175,12.175,0,0,0-.488-1.562,2.259,2.259,0,0,0-.273-.547q-.059-.039-.332-.234a10.745,10.745,0,0,0-3.594-.312q-2.812,0-2.812.313v6.055a10.431,10.431,0,0,0,.352,3.164q.2.508,2.656.508h1.445a10.463,10.463,0,0,0,4.648-.82A4.483,4.483,0,0,0-58.105-4.1a8.221,8.221,0,0,0,1.211-2.383q.039-.234.547-.234a1.678,1.678,0,0,1,1.094.234q-.117.352-.566,1.6T-56.5-2.988q-.234.645-.508,1.582A10.832,10.832,0,0,0-57.363.117q-1.563,0-6.465-.117t-6.895-.039l-5.2.156a1.02,1.02,0,0,1-.117-.625q0-.664.117-.664a6.458,6.458,0,0,0,1.484-.254q.977-.254,1.133-.605a14.151,14.151,0,0,0,.273-3.555V-20.352a12.351,12.351,0,0,0-.273-3.2q-.117-.43-1.094-.7a6.139,6.139,0,0,0-1.562-.273q-.156,0-.156-.586a1.063,1.063,0,0,1,.156-.7Q-73.379-25.664-70.762-25.664ZM-39-25.781l8.2,20.469q.586,1.563,1.172,2.852a1.9,1.9,0,0,0,1.25.938,5.2,5.2,0,0,0,1.484.352q.156,0,.156.7a1.313,1.313,0,0,1-.078.586Q-31.5-.117-31.738-.117q-.273,0-5.078.234a1.1,1.1,0,0,1-.156-.723q0-.566.156-.566a5.028,5.028,0,0,0,1.289-.234q.82-.234.977-.547a1.12,1.12,0,0,0,.117-.508,8.977,8.977,0,0,0-.742-2.7l-1.367-3.633a.429.429,0,0,0-.273-.156q-1.25-.078-3.359-.078t-4.453.117q-.234,0-.234.156l-1.484,3.633a11.1,11.1,0,0,0-.742,2.539.873.873,0,0,0,.43.781,3.919,3.919,0,0,0,1.23.43,6.791,6.791,0,0,0,1.191.2q.117.039.117.547A2.552,2.552,0,0,1-44.2.117q-.2,0-1.836-.117t-2.656-.117q-1.016,0-2.4.1t-1.973.137a.832.832,0,0,1-.156-.586q0-.7.078-.7a5.654,5.654,0,0,0,1.5-.332,2.416,2.416,0,0,0,1.309-.762,18.528,18.528,0,0,0,1.484-3.047l7.266-17.578A8.5,8.5,0,0,1-40.137-25.7a1,1,0,0,1,.664-.273A.639.639,0,0,1-39-25.781ZM-43.691-11.25q1.367.117,2.813.117,1.367,0,3.2-.117l.078-.156-2.969-7.812-3.2,7.813Q-43.77-11.25-43.691-11.25Zm25.117-14.375q.2,0,3.828-.234.352,1.094,1.6,4.043t3.066,7.188q1.816,4.238,2.91,6.973,0,.078.117.078A.1.1,0,0,0-6.934-7.7Q-3.5-15.937-1.465-21.25l1.406-4.531q1.172.117,3.2.117,1.523,0,4.648-.2a1.135,1.135,0,0,1,.117.625q0,.664-.156.664H7.676a3.178,3.178,0,0,0-1.914.625q-.586.43-.508,2.109Q5.41-18.359,5.8-5.7a10.329,10.329,0,0,0,.625,3.594q.156.352,1.094.645a5.254,5.254,0,0,0,1.328.293q.156,0,.156.7a1.877,1.877,0,0,1-.078.586q-4.687-.234-4.8-.234-.781,0-1.641.039T.586.02q-1.035.059-1.66.1A.832.832,0,0,1-1.23-.469q0-.7.156-.7a4.641,4.641,0,0,0,1.25-.254A2.453,2.453,0,0,0,1.27-1.992,2.187,2.187,0,0,0,1.66-3.359V-5.547L1.27-17.422Q1.113-19.844.8-19.844q-.117,0-.2.234l-7.461,18.2Q-7.52.078-8.34.078A1.285,1.285,0,0,1-8.73,0l-8.75-21.016q-.273,9.727-.625,17.422a4.308,4.308,0,0,0,.117,1.211q.2.43,1.563.82a8.467,8.467,0,0,0,1.836.391q.156,0,.156.7a1.877,1.877,0,0,1-.078.586Q-19.2-.117-19.434-.117q-1.055,0-2.793.117t-2.129.117a.9.9,0,0,1-.156-.625q0-.664.156-.664A7.825,7.825,0,0,0-22.4-1.562q1.328-.391,1.523-1.016a7.256,7.256,0,0,0,.43-2.617q.078-2.969.215-7.012T-20-19.1q.1-2.852.1-3.555a3.735,3.735,0,0,0-.117-1.094q-.117-.313-1.309-.586a8.8,8.8,0,0,0-1.7-.273q-.156,0-.156-.664a.832.832,0,0,1,.156-.586l2.012.137Q-19.59-25.625-18.574-25.625ZM44.59-1.172q.156,0,.156.742a1.731,1.731,0,0,1-.078.547Q39.98-.117,39.707-.117q-.781,0-1.641.039t-1.895.1q-1.035.059-1.66.1a.762.762,0,0,1-.156-.547q0-.742.156-.742a6.242,6.242,0,0,0,1.465-.273q1-.273,1.113-.586A13.671,13.671,0,0,0,37.4-5.312v-6.719l-.078-.156q-3.672-.078-5.156-.078a46.683,46.683,0,0,0-5.391.2v6.523a14.492,14.492,0,0,0,.352,3.516q.078.273,1.074.566a5.987,5.987,0,0,0,1.348.293q.156,0,.156.742a1.731,1.731,0,0,1-.078.547q-4.687-.234-4.961-.234-.781,0-1.641.039t-1.895.1q-1.035.059-1.66.1a.762.762,0,0,1-.156-.547q0-.742.156-.742a6.242,6.242,0,0,0,1.465-.273q1-.273,1.113-.586a13.671,13.671,0,0,0,.313-3.281V-20.391a11.755,11.755,0,0,0-.312-3.281q-.156-.313-1.094-.605a5.245,5.245,0,0,0-1.406-.293q-.156,0-.156-.586a1.577,1.577,0,0,1,.078-.7q.2,0,2.168.117t3.027.117q.313,0,5-.234a2.007,2.007,0,0,1,.117.625q0,.664-.156.664a6.358,6.358,0,0,0-1.406.313q-1.055.313-1.133.586a14.528,14.528,0,0,0-.312,3.438v5.7l.078.117q3.828.078,5.313.078,1.641,0,5.156-.078a.225.225,0,0,0,.078-.156v-5.82a11.755,11.755,0,0,0-.312-3.281q-.156-.313-1.094-.605a5.245,5.245,0,0,0-1.406-.293q-.156,0-.156-.586a1.577,1.577,0,0,1,.078-.7q.2,0,2.168.117t3.027.117q.312,0,5-.234a2.007,2.007,0,0,1,.117.625q0,.664-.156.664a6.358,6.358,0,0,0-1.406.313q-1.055.313-1.133.586a14.528,14.528,0,0,0-.312,3.438V-5.547a14.492,14.492,0,0,0,.352,3.516q.078.273,1.074.566A5.987,5.987,0,0,0,44.59-1.172ZM58.848-24.141a5.625,5.625,0,0,0-5.137,3.066,14.525,14.525,0,0,0-1.777,7.4,19.249,19.249,0,0,0,.8,5.586A10.887,10.887,0,0,0,55.449-3.5a6.251,6.251,0,0,0,4.609,1.934A5.67,5.67,0,0,0,65.2-4.668a14.408,14.408,0,0,0,1.816-7.4,19.778,19.778,0,0,0-.781-5.645,10.441,10.441,0,0,0-2.7-4.531A6.408,6.408,0,0,0,58.848-24.141ZM50.605-3.477a13.07,13.07,0,0,1-3.672-9.336,13.137,13.137,0,0,1,3.672-9.355,11.714,11.714,0,0,1,8.828-3.887,11.775,11.775,0,0,1,8.848,3.887,13.1,13.1,0,0,1,3.691,9.355,13.033,13.033,0,0,1-3.691,9.336A11.8,11.8,0,0,1,59.434.391,11.741,11.741,0,0,1,50.605-3.477ZM79.98-25.625q.2,0,3.828-.234.352,1.094,1.6,4.043t3.066,7.188q1.816,4.238,2.91,6.973,0,.078.117.078a.1.1,0,0,0,.117-.117q3.437-8.242,5.469-13.555L98.5-25.781q1.172.117,3.2.117,1.523,0,4.648-.2a1.135,1.135,0,0,1,.117.625q0,.664-.156.664h-.078a3.178,3.178,0,0,0-1.914.625q-.586.43-.508,2.109.156,3.477.547,16.133a10.329,10.329,0,0,0,.625,3.594q.156.352,1.094.645a5.254,5.254,0,0,0,1.328.293q.156,0,.156.7a1.877,1.877,0,0,1-.078.586q-4.687-.234-4.8-.234-.781,0-1.641.039t-1.895.1q-1.035.059-1.66.1a.832.832,0,0,1-.156-.586q0-.7.156-.7a4.641,4.641,0,0,0,1.25-.254,2.453,2.453,0,0,0,1.094-.566,2.187,2.187,0,0,0,.391-1.367V-5.547l-.391-11.875q-.156-2.422-.469-2.422-.117,0-.2.234L91.7-1.406Q91.035.078,90.215.078A1.285,1.285,0,0,1,89.824,0l-8.75-21.016q-.273,9.727-.625,17.422a4.308,4.308,0,0,0,.117,1.211q.2.43,1.563.82a8.467,8.467,0,0,0,1.836.391q.156,0,.156.7a1.877,1.877,0,0,1-.078.586q-4.687-.234-4.922-.234-1.055,0-2.793.117T74.2.117a.9.9,0,0,1-.156-.625q0-.664.156-.664a7.825,7.825,0,0,0,1.953-.391q1.328-.391,1.523-1.016a7.256,7.256,0,0,0,.43-2.617q.078-2.969.215-7.012t.234-6.895q.1-2.852.1-3.555a3.735,3.735,0,0,0-.117-1.094q-.117-.313-1.309-.586a8.8,8.8,0,0,0-1.7-.273q-.156,0-.156-.664a.832.832,0,0,1,.156-.586l2.012.137Q78.965-25.625,79.98-25.625Zm35.039-.039q1.719,0,6.055-.137t6.563-.137q.156,1.172.625,3.262t.508,2.285a1.208,1.208,0,0,1-.82.2q-.43,0-.547-.273a4.906,4.906,0,0,0-5-3.477h-2.031q-2.891,0-2.969.508a16.121,16.121,0,0,0-.234,3.164v6.133q0,.234,1.719.234h2.188a9.941,9.941,0,0,0,2.7-.2q.43-.2.664-1.367.117-.586.234-.977.039-.273.625-.273a1.057,1.057,0,0,1,.742.2v7.383a1.148,1.148,0,0,1-.742.156q-.508,0-.625-.312a12.175,12.175,0,0,0-.488-1.562,2.259,2.259,0,0,0-.273-.547q-.059-.039-.332-.234a10.745,10.745,0,0,0-3.594-.312q-2.812,0-2.812.313v6.055a10.431,10.431,0,0,0,.352,3.164q.2.508,2.656.508h1.445a10.463,10.463,0,0,0,4.648-.82A4.483,4.483,0,0,0,127.676-4.1a8.221,8.221,0,0,0,1.211-2.383q.039-.234.547-.234a1.678,1.678,0,0,1,1.094.234q-.117.352-.566,1.6t-.684,1.895q-.234.645-.508,1.582a10.831,10.831,0,0,0-.352,1.523q-1.562,0-6.465-.117t-6.895-.039l-5.2.156a1.02,1.02,0,0,1-.117-.625q0-.664.117-.664a6.458,6.458,0,0,0,1.484-.254q.977-.254,1.133-.605a14.151,14.151,0,0,0,.273-3.555V-20.352a12.351,12.351,0,0,0-.273-3.2q-.117-.43-1.094-.7a6.139,6.139,0,0,0-1.562-.273q-.156,0-.156-.586a1.063,1.063,0,0,1,.156-.7Q112.4-25.664,115.02-25.664Z" transform="translate(130.527 223.364)" fill="#1a1818"/>
  <path id="Path_12232" data-name="Path 12232" d="M-47.629-4.026h-2.338V0h-1.319V-9.953h3.295a3.9,3.9,0,0,1,2.587.766A2.755,2.755,0,0,1-44.5-6.959a2.68,2.68,0,0,1-.5,1.62,3,3,0,0,1-1.4,1.032l2.338,4.225V0h-1.408ZM-49.967-5.1h2.017A2.275,2.275,0,0,0-46.4-5.606a1.714,1.714,0,0,0,.578-1.356,1.8,1.8,0,0,0-.55-1.418,2.33,2.33,0,0,0-1.589-.5h-2.01ZM-36.289.137a3.232,3.232,0,0,1-2.447-.988,3.666,3.666,0,0,1-.943-2.642v-.232a4.438,4.438,0,0,1,.42-1.965,3.28,3.28,0,0,1,1.176-1.354,2.956,2.956,0,0,1,1.637-.489,2.77,2.77,0,0,1,2.242.95,4.114,4.114,0,0,1,.8,2.721v.526h-5.011a2.629,2.629,0,0,0,.639,1.767A2.009,2.009,0,0,0-36.22-.9a2.2,2.2,0,0,0,1.135-.273,2.851,2.851,0,0,0,.813-.725l.772.6A3.106,3.106,0,0,1-36.289.137Zm-.157-6.631a1.687,1.687,0,0,0-1.285.557,2.708,2.708,0,0,0-.643,1.562h3.705v-.1a2.409,2.409,0,0,0-.52-1.494A1.588,1.588,0,0,0-36.446-6.494ZM-23.875,0a2.657,2.657,0,0,1-.178-.779,2.822,2.822,0,0,1-2.105.916,2.611,2.611,0,0,1-1.794-.619,2,2,0,0,1-.7-1.569,2.091,2.091,0,0,1,.878-1.794A4.142,4.142,0,0,1-25.3-4.484h1.23v-.581a1.42,1.42,0,0,0-.4-1.056,1.593,1.593,0,0,0-1.169-.393,1.844,1.844,0,0,0-1.135.342,1.007,1.007,0,0,0-.458.827H-28.5a1.745,1.745,0,0,1,.393-1.07,2.683,2.683,0,0,1,1.066-.817,3.588,3.588,0,0,1,1.48-.3,2.924,2.924,0,0,1,2,.639,2.306,2.306,0,0,1,.752,1.76v3.4a4.162,4.162,0,0,0,.26,1.62V0Zm-2.1-.964a2.223,2.223,0,0,0,1.128-.308,1.861,1.861,0,0,0,.772-.8V-3.589h-.991q-2.324,0-2.324,1.36a1.151,1.151,0,0,0,.4.93A1.524,1.524,0,0,0-25.973-.964ZM-15.952,0h-1.265V-10.5h1.265ZM2.362-4.6H-1.952v3.527H3.059V0H-3.264V-9.953H2.991V-8.88H-1.952v3.206H2.362ZM12.3-1.962a.931.931,0,0,0-.386-.8,3.718,3.718,0,0,0-1.347-.489,6.367,6.367,0,0,1-1.524-.492,2.169,2.169,0,0,1-.834-.684,1.635,1.635,0,0,1-.27-.943A1.919,1.919,0,0,1,8.709-6.9a3,3,0,0,1,1.965-.629,3.091,3.091,0,0,1,2.041.649A2.063,2.063,0,0,1,13.5-5.223H12.226a1.142,1.142,0,0,0-.441-.9,1.652,1.652,0,0,0-1.111-.376,1.729,1.729,0,0,0-1.08.3.947.947,0,0,0-.39.786.767.767,0,0,0,.362.69,4.458,4.458,0,0,0,1.309.444,6.821,6.821,0,0,1,1.535.506,2.239,2.239,0,0,1,.872.708,1.74,1.74,0,0,1,.284,1.008,1.893,1.893,0,0,1-.793,1.589,3.326,3.326,0,0,1-2.058.6A3.725,3.725,0,0,1,9.143-.178a2.557,2.557,0,0,1-1.07-.878,2.117,2.117,0,0,1-.386-1.22H8.952a1.309,1.309,0,0,0,.509,1.008A1.976,1.976,0,0,0,10.715-.9a2.039,2.039,0,0,0,1.152-.291A.893.893,0,0,0,12.3-1.962Zm8.128-7.226V-7.4H21.81v.978H20.429v4.593a1.027,1.027,0,0,0,.185.667.777.777,0,0,0,.629.222,3.062,3.062,0,0,0,.6-.082V0a3.688,3.688,0,0,1-.971.136A1.575,1.575,0,0,1,19.6-.376a2.2,2.2,0,0,1-.431-1.456V-6.419H17.818V-7.4h1.347V-9.187ZM31.353,0a2.657,2.657,0,0,1-.178-.779A2.822,2.822,0,0,1,29.07.137a2.611,2.611,0,0,1-1.794-.619,2,2,0,0,1-.7-1.569,2.091,2.091,0,0,1,.878-1.794,4.142,4.142,0,0,1,2.471-.639h1.23v-.581a1.42,1.42,0,0,0-.4-1.056,1.593,1.593,0,0,0-1.169-.393,1.844,1.844,0,0,0-1.135.342A1.007,1.007,0,0,0,28-5.346H26.725a1.745,1.745,0,0,1,.393-1.07,2.683,2.683,0,0,1,1.066-.817,3.588,3.588,0,0,1,1.48-.3,2.924,2.924,0,0,1,2,.639,2.306,2.306,0,0,1,.752,1.76v3.4a4.162,4.162,0,0,0,.26,1.62V0Zm-2.1-.964a2.223,2.223,0,0,0,1.128-.308,1.861,1.861,0,0,0,.772-.8V-3.589h-.991q-2.324,0-2.324,1.36a1.151,1.151,0,0,0,.4.93A1.524,1.524,0,0,0,29.254-.964ZM39.618-9.187V-7.4H41v.978H39.618v4.593a1.027,1.027,0,0,0,.185.667.777.777,0,0,0,.629.222,3.062,3.062,0,0,0,.6-.082V0a3.688,3.688,0,0,1-.971.136,1.575,1.575,0,0,1-1.278-.513,2.2,2.2,0,0,1-.431-1.456V-6.419H37.006V-7.4h1.347V-9.187ZM49.044.137A3.232,3.232,0,0,1,46.6-.851a3.666,3.666,0,0,1-.943-2.642v-.232a4.438,4.438,0,0,1,.42-1.965A3.28,3.28,0,0,1,47.25-7.044a2.956,2.956,0,0,1,1.637-.489,2.77,2.77,0,0,1,2.242.95,4.114,4.114,0,0,1,.8,2.721v.526H46.918a2.629,2.629,0,0,0,.639,1.767A2.009,2.009,0,0,0,49.113-.9a2.2,2.2,0,0,0,1.135-.273,2.851,2.851,0,0,0,.813-.725l.772.6A3.106,3.106,0,0,1,49.044.137Zm-.157-6.631a1.687,1.687,0,0,0-1.285.557,2.708,2.708,0,0,0-.643,1.562h3.705v-.1a2.409,2.409,0,0,0-.52-1.494A1.588,1.588,0,0,0,48.887-6.494Z" transform="translate(125.288 243.441)" fill="#141529"/>
</svg>
