<svg id="navi.chat" xmlns="http://www.w3.org/2000/svg" width="24" height="24" viewBox="0 0 24 24">
  <g id="Group_3592" data-name="Group 3592" transform="translate(-3984 -1989)">
    <rect id="Rectangle_1189" data-name="Rectangle 1189" width="24" height="24" transform="translate(3984 1989)" fill="none"/>
  </g>
  <path id="Icon_feather-message-circle" data-name="Icon feather-message-circle" d="M18.58,11.149a6.555,6.555,0,0,1-.7,2.972A6.649,6.649,0,0,1,11.931,17.8a6.555,6.555,0,0,1-2.972-.7L4.5,18.58l1.486-4.459a6.555,6.555,0,0,1-.7-2.972A6.649,6.649,0,0,1,8.959,5.2a6.555,6.555,0,0,1,2.972-.7h.391a6.633,6.633,0,0,1,6.258,6.258Z" transform="translate(0.46 0.46)" fill="none" stroke="#fef5ed" stroke-linecap="round" stroke-linejoin="round" stroke-width="1"/>
</svg>
