<svg xmlns="http://www.w3.org/2000/svg" width="24" height="24" viewBox="0 0 24 24">
  <g id="notification" transform="translate(-331 -67)">
    <rect id="Rectangle_437" data-name="Rectangle 437" width="24" height="24" rx="5" transform="translate(331 67)" fill="#fff"/>
    <g id="Icon_ionic-md-notifications-outline" data-name="Icon ionic-md-notifications-outline" transform="translate(331.029 68.125)" fill="none">
      <path d="M12.007,5.988a5.213,5.213,0,0,1,.862.162,3.675,3.675,0,0,1,2.8,3.6v4.6l.336.338.281.282H7.655l.281-.282.336-.338V9.75a3.675,3.675,0,0,1,2.8-3.6,6.383,6.383,0,0,1,.862-.162m.036-2.613A1.1,1.1,0,0,0,10.851,4.5v.525A4.861,4.861,0,0,0,7.118,9.75v4.125l-1.493,1.5v.75H18.317v-.75l-1.493-1.5V9.75a4.861,4.861,0,0,0-3.733-4.725V4.5a1.1,1.1,0,0,0-1.12-1.125Zm1.493,13.5H10.478a1.493,1.493,0,1,0,2.986,0Z" stroke="none"/>
      <path d="M 11.97115325927734 3.375 C 12.60584354400635 3.375 13.09106349945068 3.862430572509766 13.09106349945068 4.5 L 13.09106349945068 5.024959564208984 C 15.21898365020752 5.512569427490234 16.82412338256836 7.462499618530273 16.82412338256836 9.75 L 16.82412338256836 13.875 L 18.31730270385742 15.375 L 18.31730270385742 16.125 L 5.625003814697266 16.125 L 5.625003814697266 15.375 L 7.118183135986328 13.875 L 7.118183135986328 9.75 C 7.118183135986328 7.462499618530273 8.723293304443359 5.512569427490234 10.85123348236084 5.024959564208984 L 10.85123348236084 4.5 C 10.85123348236084 3.862430572509766 11.33646297454834 3.375 11.97115325927734 3.375 Z M 16.28718376159668 14.97111988067627 L 15.67027282714844 14.35138988494873 L 15.67027282714844 9.75 C 15.67027282714844 8.040470123291016 14.51322364807129 6.52632999420166 12.86938285827637 6.149640083312988 C 12.86938285827637 6.149640083312988 12.26261329650879 5.988140106201172 11.93509292602539 5.988140106201172 C 11.72351360321045 5.988140106201172 11.07292366027832 6.149640083312988 11.07292366027832 6.149640083312988 C 9.429082870483398 6.52632999420166 8.27203369140625 8.040499687194824 8.27203369140625 9.75 L 8.27203369140625 14.35138988494873 L 7.655122756958008 14.97111988067627 L 16.28718376159668 14.97111988067627 Z M 10.47793292999268 16.875 L 13.46433353424072 16.875 C 13.46433353424072 17.70002937316895 12.79251289367676 18.375 11.97115325927734 18.375 C 11.14979362487793 18.375 10.47793292999268 17.70002937316895 10.47793292999268 16.875 Z" stroke="none" fill="#000"/>
    </g>
    <g id="Group_3561" data-name="Group 3561" transform="translate(-1 1)">
      <circle id="Ellipse_4" data-name="Ellipse 4" cx="3.5" cy="3.5" r="3.5" transform="translate(344 73)" fill="#e82b2b" opacity="0.5"/>
      <circle id="Ellipse_3" data-name="Ellipse 3" cx="2.5" cy="2.5" r="2.5" transform="translate(345 74)" fill="#e82b2b"/>
    </g>
  </g>
</svg>
