<svg xmlns="http://www.w3.org/2000/svg" width="24" height="24" viewBox="0 0 24 24">
  <g id="pro.chat" transform="translate(1935.495 -1456.874)">
    <rect id="Rectangle_1290" data-name="Rectangle 1290" width="24" height="24" rx="5" transform="translate(-1935.495 1456.874)" fill="#fef5ed"/>
    <path id="Icon_feather-message-circle" data-name="Icon feather-message-circle" d="M15.96,9.912a5.335,5.335,0,0,1-.573,2.419,5.412,5.412,0,0,1-4.839,2.992,5.335,5.335,0,0,1-2.419-.573L4.5,15.96l1.21-3.629a5.335,5.335,0,0,1-.573-2.419A5.412,5.412,0,0,1,8.129,5.073,5.335,5.335,0,0,1,10.548,4.5h.318A5.4,5.4,0,0,1,15.96,9.593Z" transform="translate(-1933.725 1458.644)" fill="none" stroke="#141529" stroke-linecap="round" stroke-linejoin="round" stroke-width="1.5"/>
  </g>
</svg>
