<svg id="set.user" xmlns="http://www.w3.org/2000/svg" width="24" height="24" viewBox="0 0 24 24">
  <rect id="Rectangle_1263" data-name="Rectangle 1263" width="24" height="24" fill="none"/>
  <g id="Group_4618" data-name="Group 4618" transform="translate(-1.5 -5.59)">
    <path id="Path_2568" data-name="Path 2568" d="M21,28V26.167A3.709,3.709,0,0,0,17.25,22.5H9.75A3.709,3.709,0,0,0,6,26.167V28" transform="translate(0 -1.975)" fill="none" stroke="#000" stroke-linecap="round" stroke-linejoin="round" stroke-width="1.5"/>
    <g id="Path_2569" data-name="Path 2569" transform="translate(-2.166 4.65)" fill="none" stroke-linecap="round" stroke-linejoin="round">
      <path d="M19.333,8.167A3.667,3.667,0,1,1,15.667,4.5,3.667,3.667,0,0,1,19.333,8.167Z" stroke="none"/>
      <path d="M 15.66662502288818 4.499996185302734 C 13.64160537719727 4.499996185302734 11.9999942779541 6.141606330871582 11.9999942779541 8.1666259765625 C 11.9999942779541 10.19164657592773 13.64160537719727 11.83325576782227 15.66662502288818 11.83325576782227 C 17.6916446685791 11.83325576782227 19.33324432373047 10.19164657592773 19.33324432373047 8.1666259765625 C 19.33324432373047 6.141606330871582 17.6916446685791 4.499996185302734 15.66662502288818 4.499996185302734 M 15.66662502288818 2.999996185302734 C 18.51550483703613 2.999996185302734 20.83324432373047 5.31773567199707 20.83324432373047 8.1666259765625 C 20.83324432373047 11.01551628112793 18.51550483703613 13.33325576782227 15.66662502288818 13.33325576782227 C 12.81773567199707 13.33325576782227 10.4999942779541 11.01551628112793 10.4999942779541 8.1666259765625 C 10.4999942779541 5.31773567199707 12.81773567199707 2.999996185302734 15.66662502288818 2.999996185302734 Z" stroke="none" fill="#000"/>
    </g>
  </g>
</svg>
