<svg id="set.noti" xmlns="http://www.w3.org/2000/svg" width="24" height="24" viewBox="0 0 24 24">
  <rect id="Rectangle_1263" data-name="Rectangle 1263" width="24" height="24" fill="none"/>
  <g id="Icon_ionic-md-notifications-outline" data-name="Icon ionic-md-notifications-outline" transform="translate(4.4 3)">
    <g id="Icon_ionic-md-notifications-outline-2" data-name="Icon ionic-md-notifications-outline" transform="translate(-5.625 -3.375)" fill="none">
      <path d="M13.284,6.511a6.255,6.255,0,0,1,1.035.194,4.41,4.41,0,0,1,3.361,4.32v5.522l.4.405.337.338H8.061l.337-.338.4-.405V11.025A4.41,4.41,0,0,1,12.163,6.7,7.66,7.66,0,0,1,13.2,6.511m.043-3.136A1.323,1.323,0,0,0,11.9,4.725v.63a5.833,5.833,0,0,0-4.48,5.67v4.95l-1.792,1.8v.9H20.856v-.9l-1.792-1.8v-4.95a5.833,5.833,0,0,0-4.48-5.67v-.63a1.323,1.323,0,0,0-1.344-1.35Zm1.792,16.2H11.449a1.792,1.792,0,1,0,3.584,0Z" stroke="none"/>
      <path d="M 13.24038314819336 3.375001907348633 C 14.0020112991333 3.375001907348633 14.58428287506104 3.959915161132812 14.58428287506104 4.725000381469727 L 14.58428287506104 5.354957580566406 C 17.13776779174805 5.940086364746094 19.0639533996582 8.280000686645508 19.0639533996582 11.02500057220459 L 19.0639533996582 15.97500133514404 L 20.85576820373535 17.77500152587891 L 20.85576820373535 18.67500114440918 L 5.624998092651367 18.67500114440918 L 5.624998092651367 17.77500152587891 L 7.416826248168945 15.97500133514404 L 7.416826248168945 11.02500057220459 C 7.416826248168945 8.280000686645508 9.342954635620117 5.940086364746094 11.89648342132568 5.354957580566406 L 11.89648342132568 4.725000381469727 C 11.89648342132568 3.959915161132812 12.47875499725342 3.375001907348633 13.24038314819336 3.375001907348633 Z M 18.41962623596191 17.29034423828125 L 17.67932510375977 16.54667282104492 L 17.67932510375977 11.02500057220459 C 17.67932510375977 8.97355842590332 16.29086875915527 7.156600952148438 14.31826877593994 6.704572677612305 C 14.31826877593994 6.704572677612305 13.59012603759766 6.510757446289062 13.19711208343506 6.510757446289062 C 12.94321155548096 6.510757446289062 12.16249752044678 6.704572677612305 12.16249752044678 6.704572677612305 C 10.18989753723145 7.156600952148438 8.801441192626953 8.973601341247559 8.801441192626953 11.02500057220459 L 8.801441192626953 16.54667282104492 L 8.061140060424805 17.29034423828125 L 18.41962623596191 17.29034423828125 Z M 11.44851207733154 19.57500076293945 L 15.03221130371094 19.57500076293945 C 15.03221130371094 20.56504440307617 14.22601127624512 21.375 13.24038314819336 21.375 C 12.2547550201416 21.375 11.44851207733154 20.56504440307617 11.44851207733154 19.57500076293945 Z" stroke="none" fill="#000"/>
    </g>
  </g>
</svg>
