<svg xmlns="http://www.w3.org/2000/svg" width="23.525" height="20" viewBox="0 0 23.525 20">
  <path id="twitter" d="M280.538,637.416a8.246,8.246,0,0,1-2.692.8,5.372,5.372,0,0,0,2.022-2.759,7.6,7.6,0,0,1-3.027,1.125h0a4.743,4.743,0,0,0-3.507-1.569,4.97,4.97,0,0,0-4.854,5.077,5.263,5.263,0,0,0,.123,1.133h0a13.242,13.242,0,0,1-10.006-5.27,5.224,5.224,0,0,0,1.472,6.71,3.025,3.025,0,0,1-2.118-.573,4.868,4.868,0,0,0,3.744,4.962,3.692,3.692,0,0,1-2.021.161c.154,1.493,2.153,3.445,4.338,3.445a8.385,8.385,0,0,1-7,2.11,14.108,14.108,0,0,0,7.592,2.245c7.829,0,13.911-6.639,13.583-14.831,0-.01,0-.02,0-.027s0-.043,0-.065,0-.049,0-.075A8.6,8.6,0,0,0,280.538,637.416Z" transform="translate(-257.013 -635.013)" fill="#fff"/>
</svg>
