<svg xmlns="http://www.w3.org/2000/svg" width="54" height="51.502" viewBox="0 0 54 51.502">
    <g data-name="Layer 1">
        <g data-name="2">
            <path data-name="Path 9763" d="M12.284 15.063c-.292.171-.5.286-.7.416-1.862 1.2-3.719 2.4-5.585 3.595-.825.526-1.359.416-1.852-.394-1.312-2.167-2.6-4.334-3.914-6.5a1.193 1.193 0 0 1 .229-1.651c2.69-2.669 5.347-5.368 8.056-8.018C10.809.27 13.625-.278 16.71.118c.928.118 1.862.183 2.8.256 1.066.085 1.379.394 1.428 1.468A7.35 7.35 0 0 0 22.775 6.4a5.381 5.381 0 0 0 8.667-.244 7.4 7.4 0 0 0 1.635-4.414c.018-.7.274-1.255 1.013-1.314C36.1.266 38.115.051 40.124.085A7.725 7.725 0 0 1 45.4 2.429c2.736 2.693 5.433 5.415 8.157 8.118a1.189 1.189 0 0 1 .2 1.651c-1.3 2.141-2.581 4.3-3.879 6.441-.52.859-1.04.971-1.9.422-1.842-1.182-3.678-2.374-5.516-3.56-.221-.142-.451-.266-.808-.477-.439 2.222-.985 4.318-1.243 6.447a106 106 0 0 0-.959 10.923 60.992 60.992 0 0 0 2.494 17.224c.394 1.4.012 1.883-1.436 1.883H13.472c-1.408 0-1.793-.494-1.428-1.832a64.85 64.85 0 0 0 2.533-18.846 73.126 73.126 0 0 0-2.293-15.76zm27.29 34.252c-.045-.23-.081-.394-.11-.561-.609-3.329-1.314-6.642-1.8-9.989a51.33 51.33 0 0 1 0-13.3 81.891 81.891 0 0 1 2.3-12.213c.276-1.014.955-1.282 1.842-.743.609.37 1.2.768 1.8 1.156L48.47 16.8l2.982-4.964c-2.711-2.793-5.3-5.559-8-8.2a5.715 5.715 0 0 0-4.3-1.466c-1.105.033-2.2.2-3.309.256-.473.024-.662.154-.745.658a9.524 9.524 0 0 1-2.318 4.85 7.5 7.5 0 0 1-10.243 1.194 9.308 9.308 0 0 1-3.626-6.04c-.091-.494-.254-.654-.739-.666a20.694 20.694 0 0 1-2.216-.185A7.07 7.07 0 0 0 9.652 4.4C7.4 6.674 5.122 8.921 2.866 11.181c-.152.152-.286.319-.429.483l3.083 5.122c.248-.146.461-.262.664-.394q2.894-1.863 5.774-3.725c1.2-.774 1.858-.534 2.167.857.554 2.464 1.127 4.925 1.576 7.413a61.9 61.9 0 0 1-.483 24.873c-.258 1.156-.522 2.313-.788 3.506z"/>
        </g>
    </g>
</svg>
