<svg xmlns="http://www.w3.org/2000/svg" width="14.762" height="54" viewBox="0 0 14.762 54">
    <g data-name="Layer 1">
        <g data-name="1">
            <path data-name="Path 9762" d="M7.437 0h5.915c1.293 0 1.733.712 1.167 1.877-1.071 2.21-2.169 4.409-3.218 6.629a2.5 2.5 0 0 0-.227 1.262c.4 3.916.858 7.822 1.282 11.724.615 5.671 1.211 11.341 1.82 17.012.17 1.589.337 3.178.538 4.764a2.419 2.419 0 0 1-.414 1.871c-1.984 2.721-3.93 5.471-5.9 8.2a1.115 1.115 0 0 1-2.031.01 494.077 494.077 0 0 1-6.035-8.462 2.321 2.321 0 0 1-.3-1.449q.917-8.873 1.907-17.745c.455-4.152.937-8.3 1.4-12.451.11-.976.183-1.958.329-2.928a3.549 3.549 0 0 0-.406-2.258C2.228 6.025 1.25 3.959.252 1.9-.331.7.108 0 1.457 0zm5.053 43.04c-.215-1.989-.43-3.835-.607-5.682a.989.989 0 0 0-.643-.866c-2.25-1.148-4.488-2.321-6.731-3.482-.341-.177-.688-.349-1.092-.552-.185 1.692-.335 3.3-.554 4.9a.78.78 0 0 0 .5.962c2.646 1.345 5.274 2.719 7.91 4.083zM2.894 2.226a1.445 1.445 0 0 0 .063.3c.8 1.654 1.6 3.314 2.437 4.953a.935.935 0 0 0 .686.367 20.433 20.433 0 0 0 2.577 0 1.1 1.1 0 0 0 .751-.495c.428-.741.777-1.532 1.151-2.3.448-.921.889-1.842 1.364-2.825zm8 26.243c-.215-2.025-.4-3.876-.619-5.718a.879.879 0 0 0-.292-.615c-1.674-.905-3.366-1.775-5.126-2.693-.14 1.195-.276 2.285-.394 3.377-.075.706-.394 1.564-.106 2.082s1.183.769 1.82 1.12c.471.26.954.5 1.433.749zM2.563 40.323c-.089.846-.132 1.577-.258 2.3a.641.641 0 0 0 .444.789c1.1.546 2.181 1.124 3.271 1.688l4.111 2.129 1.546-2.169zm8.969-6.156c-.11-1.011-.2-1.936-.323-2.855a.592.592 0 0 0-.284-.379A1437.307 1437.307 0 0 0 4 27.324c-.095.761-.152 1.439-.268 2.108a.82.82 0 0 0 .53 1.029c2.214 1.11 4.4 2.269 6.6 3.409.175.1.373.174.659.3zm-1.6-14.533c-.12-1.065-.217-1.985-.335-2.9a.519.519 0 0 0-.215-.347C8.1 15.7 6.8 15.032 5.4 14.3c-.095.935-.187 1.755-.252 2.575a.44.44 0 0 0 .183.355c1.483.793 2.98 1.562 4.606 2.404zm-.625-5.742-.426-3.823H5.868c-.063.568-.144 1.1-.166 1.636a.592.592 0 0 0 .268.444c1.075.58 2.163 1.134 3.342 1.743zM7.378 51.067l1.467-2.053-4.355-2.269-.095.142z"/>
        </g>
    </g>
</svg>
