<svg xmlns="http://www.w3.org/2000/svg" width="53.605" height="54" viewBox="0 0 53.605 54">
    <g data-name="Layer 1">
        <g data-name="3">
            <path data-name="Path 9764" d="M26.888 44.459c-.45 1.2-.843 2.259-1.244 3.316a8.862 8.862 0 0 1-8.843 6.013c-5.206-.14-10.409-.367-15.613-.565-.838-.031-1.235-.474-1.187-1.348.2-3.468.434-6.932.646-10.4.276-4.548.535-9.09.82-13.644q.466-7.556.946-15.115.35-5.567.677-11.138C3.168.29 3.453 0 4.766 0h44.066c1.313 0 1.6.3 1.677 1.58q.557 9.218 1.132 18.433.478 7.779.948 15.56.482 7.854.978 15.706c.014.221.038.442.04.666a1.111 1.111 0 0 1-1.185 1.28c-4.412.251-8.822.521-13.231.723a17.862 17.862 0 0 1-4.19-.148 8.354 8.354 0 0 1-6.122-4.876c-.688-1.41-1.284-2.865-1.991-4.465zM25.731 9.748H12.736v.752a19.27 19.27 0 0 1-8.689 17.639 1.288 1.288 0 0 0-.454.835c-.109 1-.138 2.014-.2 3.021L2.301 49.991c-.022.357-.039.715-.059 1.1.225.018.369.038.513.043 4.688.162 9.374.334 14.063.48a6.659 6.659 0 0 0 6.756-4.514c.705-1.839 1.382-3.687 2.06-5.529.2-.551.427-1.064 1.136-1.084s.966.472 1.2 1.015q1.325 3.045 2.658 6.086a6.7 6.7 0 0 0 6.835 4.3c2.962-.117 5.924-.3 8.873-.466 1.669-.093 3.335-.2 5.03-.3-.014-.3-.022-.515-.034-.735l-.537-8.7c-.259-4.235-.508-8.463-.794-12.687a1.335 1.335 0 0 0-.494-.885 19.3 19.3 0 0 1-8.652-17.307c.012-.357 0-.717 0-1.09H27.873v19.241a5.849 5.849 0 0 1-.024.812.987.987 0 0 1-1.072.91.976.976 0 0 1-1.017-.891 5.53 5.53 0 0 1-.028-.81V9.748zm-20.8-2.37h43.751c-.1-1.738-.2-3.422-.312-5.135H5.232c-.1 1.706-.2 3.385-.306 5.129zm-.15 2.33-.974 15.883c4.7-3.16 8.018-11.278 6.582-15.883zm45.02 15.747q-.482-7.858-.97-15.725h-5.73a16.945 16.945 0 0 0 6.689 15.72z"/>
        </g>
    </g>
</svg>
