<svg xmlns="http://www.w3.org/2000/svg" width="41.479" height="54" viewBox="0 0 41.479 54">
    <g data-name="Layer 1">
        <g data-name="4">
            <path data-name="Path 9765" d="M6.166 5.752c.384-1.552.765-3.026 1.108-4.506C7.5.25 7.78 0 8.764 0H32.65c.919 0 1.206.239 1.423 1.131.371 1.526.761 3.046 1.155 4.621h4.751c1.173 0 1.5.319 1.5 1.476v45.3c0 1.114-.347 1.467-1.445 1.467H1.433C.367 54 0 53.643 0 52.595V7.14c0-1.051.355-1.38 1.437-1.38 1.553-.012 3.097-.008 4.729-.008zm33.127 46.022V7.916c-1.2 0-2.365.028-3.509-.014a1.022 1.022 0 0 0-1.084.639c-1.758 3.351-3.548 6.673-5.34 10-.566 1.053-1.364 1.145-2.143.24-.932-1.08-1.841-2.18-2.76-3.272l-3.619-4.3c-2.052 2.49-4.049 4.924-6.054 7.349-.986 1.2-1.691 1.137-2.458-.2q-2.815-4.92-5.634-9.836c-.136-.242-.384-.566-.582-.574-1.3-.051-2.594-.026-3.931-.026v43.852zM9.115 2.886c-.288 1.151-.574 2.21-.8 3.28a1.38 1.38 0 0 0 .116.881c1.683 2.994 3.4 5.975 5.094 8.961a2.616 2.616 0 0 1 .144.436c1.953-2.365 3.728-4.534 5.539-6.732zm18.877 13.387c.089-.083.134-.106.154-.146q2.448-4.565 4.889-9.137a.8.8 0 0 0 .13-.479c-.27-1.183-.568-2.365-.873-3.6L22.472 9.7zm1.364-14.034H12.283c.016.071.014.1.026.108 2.738 1.867 5.474 3.745 8.228 5.581a.8.8 0 0 0 .686-.079c.946-.615 1.869-1.269 2.8-1.914z"/>
            <path data-name="Path 9766" d="M15.244 43.17c.29-2.365.544-4.487.81-6.608.513-4.1 1.037-8.192 1.532-12.291a1.114 1.114 0 0 0-.264-.767c-.467-.536-1.009-1.007-1.5-1.528a1.049 1.049 0 0 1 0-1.681q2.07-2.105 4.181-4.175a1.076 1.076 0 0 1 1.642-.02q2.147 2.084 4.238 4.222a1.069 1.069 0 0 1-.02 1.638.777.777 0 0 1-.156.156c-1.6 1.017-1.676 2.442-1.425 4.181.773 5.322 1.38 10.676 2.06 16.014a2.083 2.083 0 0 1-.666 1.971c-1.3 1.236-2.537 2.547-3.806 3.82-.8.8-1.268.808-2.052.018a364.294 364.294 0 0 1-4.049-4.1 4.14 4.14 0 0 1-.526-.848zm2.8-21.893c.382.337.788.723 1.226 1.08a1.652 1.652 0 0 1 .552 1.65q-1.161 9.109-2.275 18.208a.986.986 0 0 0 .2.718c1.013 1.039 2.06 2.044 3.085 3.05.946-.923 1.894-1.885 2.89-2.8a1.269 1.269 0 0 0 .394-1.24c-.773-6.067-1.54-12.137-2.263-18.21a1.948 1.948 0 0 1 .453-1.236 10.3 10.3 0 0 1 1.277-1.212l-2.779-2.758z"/>
        </g>
    </g>
</svg>
