<svg xmlns="http://www.w3.org/2000/svg" width="52.265" height="54" viewBox="0 0 52.265 54">
    <g data-name="Layer 1">
        <g data-name="5">
            <path data-name="Path 9767" d="M13.245 18.913c0-1.956-.053-3.821.02-5.683a17.2 17.2 0 0 1 .452-3.713 12.837 12.837 0 0 1 25.1 1.439 61.865 61.865 0 0 1 .187 6.85v1.106h1.749a3.809 3.809 0 0 1 3.9 2.958q3.74 13.565 7.44 27.141a3.782 3.782 0 0 1-3.822 4.983q-22.144.016-44.292 0a3.782 3.782 0 0 1-3.786-5.117q2.453-8.952 4.916-17.9 1.219-4.439 2.427-8.873a3.9 3.9 0 0 1 4.115-3.179c.5-.016 1.01-.012 1.594-.012zM7.113 32.008a2.366 2.366 0 0 0-.154.331q-2.366 8.6-4.709 17.2c-.394 1.434.333 2.285 1.895 2.285h43.923c1.684 0 2.313-.832 1.867-2.467q-1.756-6.433-3.519-12.863l-1.23-4.472c-.146.067-.217.091-.28.128a35.618 35.618 0 0 1-14.02 4.9c-.424.053-.513.245-.507.625.018 1.132 0 2.264 0 3.4s-.345 1.467-1.441 1.469q-2.806.012-5.61 0c-1.144 0-1.469-.343-1.473-1.514v-3.89a36.456 36.456 0 0 1-14.742-5.132zm37.465-2.214-1.93-7.079c-.355-1.29-.789-1.621-2.155-1.621H11.338a1.478 1.478 0 0 0-1.545 1.035c-.745 2.54-1.424 5.1-2.134 7.667a34.06 34.06 0 0 0 14.2 5.154v-3.277c0-1.041.381-1.408 1.436-1.414h3.764c3.534-.014 3.352-.268 3.325 3.295v1.4a33.778 33.778 0 0 0 14.194-5.16zm-29.2-10.944h21.478c0-2.1.053-4.141-.01-6.17a10.719 10.719 0 0 0-9.569-10.449 10.594 10.594 0 0 0-11.506 8.031 31.712 31.712 0 0 0-.394 5.565c-.036 1 0 2.003 0 3.025zm8.7 13.62v7.887h4.06v-7.886z"/>
        </g>
    </g>
</svg>
