<svg xmlns="http://www.w3.org/2000/svg" width="45.545" height="54" viewBox="0 0 45.545 54">
    <g data-name="Layer 1">
        <g data-name="6">
            <path data-name="Path 9768" d="M22.769 11.617a409.537 409.537 0 0 0 4.518-4.833 1.3 1.3 0 0 0 .245-.8c.024-1.5 0-3 .014-4.5 0-1.108.365-1.473 1.449-1.477h3.912c1 0 1.38.394 1.38 1.4v13.722a3.185 3.185 0 0 1-.241 1.136c-.919 2.3-1.875 4.593-2.788 6.9a1.225 1.225 0 0 0-.012.881 157.564 157.564 0 0 0 10.3 18.793 45.056 45.056 0 0 0 3.6 4.36c.592.686.53 1.522-.327 1.856-5.5 2.128-11.043 4.1-16.989 4.7a50.187 50.187 0 0 1-23.906-3.5c-1.027-.41-2.082-.741-3.11-1.148a1.053 1.053 0 0 1-.385-1.874A23.282 23.282 0 0 0 4.801 41.7a181.877 181.877 0 0 0 9.5-17.639 1.327 1.327 0 0 0-.03-.949c-.891-2.26-1.832-4.5-2.727-6.764A3.776 3.776 0 0 1 11.269 15c-.02-4.476-.012-8.955-.012-13.431C11.257.323 11.583 0 12.835 0h3.764c1 0 1.38.381 1.392 1.38.012 1.526 0 3.051.012 4.575a1.147 1.147 0 0 0 .2.747c1.48 1.639 3.001 3.243 4.566 4.915zm-19.562 36a47.2 47.2 0 0 0 39.077.024c-1.124-1.611-2.321-3.2-3.39-4.879a169.624 169.624 0 0 1-9.373-17.288 1.035 1.035 0 0 0-1.1-.708q-5.571.053-11.142 0a1.259 1.259 0 0 0-1.327.81c-3.768 7.616-7.489 15.264-12.74 22.039zm26.5-45.391c0 1.514.043 2.942-.026 4.364a2.347 2.347 0 0 1-.538 1.365c-1.731 1.907-3.52 3.78-5.293 5.654-.81.858-1.355.864-2.149.02-1.611-1.714-3.2-3.473-4.869-5.147a3.112 3.112 0 0 1-1.029-2.607c.083-1.213.018-2.437.018-3.634h-2.359c-.016.152-.035.248-.035.345V14.9a2.366 2.366 0 0 0 .2.852c.84 2.1 1.71 4.183 2.538 6.283a.784.784 0 0 0 .874.57q5.719-.028 11.437 0a.833.833 0 0 0 .917-.605c.818-2.078 1.686-4.141 2.506-6.216a3.212 3.212 0 0 0 .2-1.144q.021-5.827 0-11.656c0-.258-.024-.515-.035-.767z"/>
        </g>
    </g>
</svg>
