<svg version="1.2" xmlns="http://www.w3.org/2000/svg" viewBox="0 0 2000 2000" width="500" height="500">
	<title>6636-ai</title>
	<style>
		.s0 { fill: #ffffff } 
	</style>
	<g id="Layer 1">
		<g id="&lt;Group&gt;">
			<path id="&lt;Path&gt;" class="s0" d="m258.6 1750.9h-75.8v-482.4h200.5v68.9h-124.7v145.4h97.8v68.9h-97.8z"/>
			<path id="&lt;Path&gt;" class="s0" d="m419.8 1268.5h75.8v482.4h-75.8z"/>
			<path id="&lt;Path&gt; copy 2" class="s0" d="m258.6 1750.9h-75.8v-482.4h200.5v68.9h-124.7v145.4h97.8v68.9h-97.8z"/>
			<path id="&lt;Path&gt; copy" class="s0" d="m258.6 1750.9h-75.8v-482.4h200.5v68.9h-124.7v145.4h97.8v68.9h-97.8z"/>
			<path id="&lt;Path&gt; copy 3" class="s0" d="m258.6 1750.9h-75.8v-482.4h200.5v68.9h-124.7v145.4h97.8v68.9h-97.8z"/>
			<path id="&lt;Path&gt;" class="s0" d="m1445.3 1756.4c-74.4 0-113-44.1-113-121.3v-29.6h71.7v34.4c0 34.5 15.1 46.9 39.3 46.9 24.1 0 39.3-12.4 39.3-46.9 0-99.2-148.2-117.8-148.2-255.7 0-77.1 37.9-121.3 111.6-121.3 73.8 0 111.7 44.2 111.7 121.3v15.2h-71.7v-20c0-34.4-13.8-47.5-37.9-47.5-24.1 0-37.9 13.1-37.9 47.5 0 99.3 148.2 117.9 148.2 255.7 0 77.2-38.6 121.3-113.1 121.3z"/>
			<path id="&lt;Path&gt;" class="s0" d="m1743.8 1399.4v-20c0-34.4-13.8-47.5-37.9-47.5-24.2 0-38 13.1-38 47.5 0 99.3 148.2 117.9 148.2 255.7 0 77.2-38.6 121.3-113 121.3-74.4 0-113-44.1-113-121.3v-29.6h71.6v34.4c0 34.5 15.2 46.9 39.3 46.9 24.1 0 39.3-12.4 39.3-46.9 0-99.2-148.2-117.8-148.2-255.7 0-77.1 37.9-121.3 111.7-121.3 73.7 0 111.6 44.2 111.6 121.3v15.2z"/>
			<path id="&lt;Path&gt;" class="s0" d="m691.9 874.2c0.3-2 0.5-4 0.8-6q-0.4 2.1-0.8 6z"/>
			<path id="&lt;Path&gt;" class="s0" d="m888.9 1089.1q-109.9-31.1-152.7-110.8 2.6 25.8 32.2 57c-78.5-68.4-78.4-140.3-76.5-161.1q-26.2 204.1 197 214.9z"/>
			<path id="&lt;Path&gt;" class="s0" d="m1263.4 706.4q-1.8-1-3.5-2l48.5-94q0.6 0.7 1.2 1.3z"/>
			<path id="&lt;Path&gt;" class="s0" d="m1263.5 706.5l48-93q1.9 1.8 3.1 2.8l-48 91.9c-1-0.6-2-1.2-3.1-1.7z"/>
			<path id="&lt;Compound Path&gt;" fill-rule="evenodd" class="s0" d="m1179.5 1268.5h117.7v68.9h-131v134.4h104.1v68.9h-104.1v141.3h131v68.9h-206.8v-362.7c-4.3 1.7-9.2 2.9-15.1 3.5-9.2 1.1-23-0.3-39.3-3.6v362.8h-77.9l-94.4-349.4v349.4h-68.3v-467.3c-10.1-4.3-20.9-9.2-32.3-14.8v68.6h-79.3v413.5h-75.8v-413.5h-79.3v-68.9h233.6c-85.5-42-201.1-123.4-249.6-281-12.5 8.9-41.5 25.2-87.7 27.1q60.4-19.4 80.1-55c-7.2-29.7-12.2-62-14.2-96.9q5.7 37.1 25.4 89.7-2.4-21.7-2-36 10 59.2 57.8 122.9-56.4-109.3-44.6-236.9 18.3 353.8 273.9 422c-35.6 1.4-68.3-5.9-98.1-18.9 39.7 28.7 86.5 53.2 141.7 70.6q-6.6-14.2-8.7-25.7c43.5 57.7 102.5 81.8 152.7 102.5 16.3 6.4 32.5 11.1 47.4 12.8 25.9 1.5 43.8-11.9 55-24.9-12.1 4.3-26.5 7.2-37.8 2.5q93.8-14.5 225.3-275.8c54.9-108.9 78.3-176.6 92.3-225.8 3-10.3-4.8-20.6-15.5-20.6-6.3 0-11.9 3.8-14.3 9.6q-54.9 131.9-142.8 262.4c58.8-106.3 98.4-187.9 124.6-247 5.6-12.7-2.5-27.2-16.2-29.1-8.3-1.2-16.4 2.7-20.7 9.8-11.6 19-25.9 39.1-43.3 59.6q19.8-30.8 32.1-66.1c1.9-5.3-1.7-11.2-7.7-11.8-2.7-0.3-5.4 0.9-7.3 2.8-60.7 62-217.5 235-194.2 348.1q-28.3-68.2-11.9-132.1-62.9 47.7-44.7 165.1-50.1-112.2-4.3-219.2 49.4-115.7-70.5-189.3 28 41.9 32.8 65.5-49.6-88.1-152.7-95-9.1-39.2-20.4-60.4 19.3 10.9 32.2 38.3 2.4-129.9-86.6-204.8 18.1 4.8 33.8 19.3-33-63.4-113-107.6-10.2 6-20.2 12.3 51.4 21.5 83.2 55.6c-27.7-25.4-60.8-40.3-94-48.6-179.6 118.6-298.3 322.2-298.3 553.1 0 60.5 8.2 119.2 23.5 175l7.8 26.4h-179.7l142-22c-15.4-57.8-23.4-118-23.4-179.4 0-184.9 72-358.7 202.7-489.4 130.7-130.7 304.5-202.7 489.4-202.7 45.8 0 91 4.5 135 13.1 9.6-11.3 20-21.9 31.2-31.6-25.6 26.4-45.8 58.1-59.1 93.1 49.1-90 144.5-151.1 254.2-151.1 109.8 0 205.2 61.1 254.2 151.1-13.2-35-33.4-66.7-59-93.1 62.3 54.4 101.7 134.4 101.7 223.7 0 59.3-17.4 114.6-47.4 160.9 53 99.1 81.2 210.4 81.2 326 0 61.4-8 121.6-23.4 179.4l142.1 22h-179.8c0.7-2.1 1.3-4.1 1.9-6.2l4.7-15.9c16.1-57 24.8-117.2 24.8-179.3 0-107.5-25.8-209-71.4-298.8-45.8 55.8-111.6 94.7-186.5 105.6-1.6 5.8-3.3 12.7-4.5 18.8-16.4 83.9-101.4 287.5-214 431.3zm417.1-744c0-67.7-27.9-128.9-72.7-172.7 37.1 42.5 59.6 98.1 59.6 159.1 0 133.7-108.5 242.2-242.2 242.2-60.9 0-116.6-22.5-159.1-59.7 43.9 44.9 105 72.8 172.7 72.8 133.5 0 241.7-108.2 241.7-241.7zm-170.8 51.1c-3.4-3-8.9-1.7-10.5 2.7-1.1 2.8-0.1 6 2.4 7.7l103.4 73.9zm82.7-130.6q-32.1 4.8-16.8 40.5c-6.4-34 12.6-39.7 16.8-40.5 0.2 0 0.5-0.1 0.7-0.1q-0.3 0-0.7 0.1zm-98.1 8.2c-50.7-22.7-92.8 0.3-112.6 15.2-3.5 2.6-8.1 3.1-12.1 1.2l-95.4-45.5 100 50.4q-0.8 0.7-1.4 1.2l-101.6-48.4 99.7 50.2q-0.8 0.8-1.3 1.3l-98.4-47.7 101.3 61.5q50-60.4 128.3-21.8l82.1-114.1c2.1-2.9 1.8-6.9-0.7-9.4-5.8 0-13.2 3.8-16.6 8.4zm-176.1 342.6c-103.8-46.2-176.3-150.2-176.3-271.2 0-61.3 18.6-118.2 50.5-165.5-37.4-6.5-75.7-10-114.9-10-118.1 0-229.1 31.2-325.2 85.6 63.6 26.4 170.1 100.2 178.6 299.2q100.4 5.1 157.3 92.7 57.5 88.6 24.8 168.6 58.4-68.3 134.8-129.3c26-20.8 49.6-44.3 70.4-70.1q0 0 0 0zm-46.9-298.6q-30.4 3.5-24.1 30.8l11.8 53.9q-4-23.8-8.2-51.6-4.1-27.8 20.5-33.1zm-55.8 64.9q0-0.2 0-0.4 0 0.2 0 0.4 22.7 110.2 142.6 164.1l54.9-107.9c1.5-3 0.7-6.5-1.8-8.5q-56.2-38.2-51-91.9c-6 38.9 12 68.8 25.3 84.9 2.9 3.6 3.6 8.5 1.5 12.7l-43.3 88.8c-107-61.1-126.8-136.5-128.2-142.2zm0-0.4q0 0 0 0 0 0 0 0zm231.7-82.3c16 0 30.4 6.7 40.7 17.3-10.3-14.3-27-23.6-46-23.6-31.3 0-56.7 25.3-56.7 56.7 0 15.3 6.1 29.2 16 39.4-6.7-9.3-10.7-20.7-10.7-33.1 0-31.3 25.4-56.7 56.7-56.7zm-31.1 87.7c7.9 8 18.9 13 31.1 13 24.3 0 44-19.7 44-44 0-14.4-7-27.1-17.7-35.2 7.8 8 12.7 18.9 12.7 31 0 24.3-19.7 43.9-43.9 43.9-9.9 0-18.9-3.2-26.2-8.7zm-179.4-230.7q88.1-95.5 233.1-86.6-139.6-18.4-233.1 86.6zm-58.1 170.6q41-185.6 193.4-233.5-158 22.9-193.4 233.5zm110.8 4.5c4.2 2.4 7.5 6.2 9.4 10.8l-0.4-2c-2-12.5-13.9-20.8-26.4-18.4-12.1 2.3-19.7 14.4-17.7 26.5l9.9 61c1.6 9.7 8.6 17.9 18.2 20 4.9 1.1 9.2 0.4 12.9-1.2 7-4.8 11-13.3 9.6-22.2l-10.4-63.6c-0.7-4.2-2.5-7.9-5.1-10.9zm307.7-62.6c-12.6 1.7-21.3 13.4-19.3 25.9l10.4 63.6c0.4 2.4 1.1 4.6 2.2 6.6 4.8 9.5 17.9 11.5 25.3 3.9q0.1-0.1 0.3-0.2c6.1-6.5 8.7-15.6 7.3-24.4l-9.7-59c-0.6-4.2-2.5-8-5-11 5.5 3.3 9.5 8.9 10.7 15.7l10.3 63.6c1.2 7.4-1.4 14.5-6.3 19.5 6.8-4.8 10.6-13.2 9.2-21.9l-10.2-62.7c-2-12.1-13.1-21.2-25.2-19.6zm-544.8 919.3c-19.3-7.1-39.1-15.6-57.7-25l57.7 213.9z"/>
			<path id="&lt;Path&gt;" class="s0" d="m1215.3 800.1c-17.8 20.6-37.5 39.6-58.9 56.6-43.8 35-82 72.7-106.8 98.6 2.9-33.6-1.5-82.9-35.3-135-49-75.5-127.4-93.1-156-97-5.4-89.9-31.3-163.6-77-219-28.9-35.1-61.3-57.5-89.3-71.7 89.8-46.6 191.7-73 299.8-73 33.2 0 65.9 2.5 97.8 7.3-28.2 47.3-43.5 101.7-43.5 157.8 0 116.5 65.9 223 169.2 275.4z"/>
			<path id="&lt;Path&gt;" class="s0" d="m1610.7 1213h-376.6c91.6-137.7 157-301.3 171-373.5 0.7-3.5 1.6-7.2 2.4-10.6 66.6-11.5 127.8-44.7 173.9-94.5 39.4 83.9 61.4 177.5 61.4 276.2 0 70.7-11.3 138.7-32.1 202.4z"/>
			<path id="&lt;Path&gt;" class="s0" d="m652.4 1213h-279.5c-18.7-57.5-29.7-118.5-31.7-181.7 87.4 6.3 138.4-9 165.8-23.2 28.3 81.1 77.1 149.8 145.4 204.9z"/>
		</g>
	</g>
</svg>