<svg xmlns="http://www.w3.org/2000/svg" width="152.629" height="200" viewBox="0 0 152.629 200">
    <path data-name="Path 9776" d="M0 200c.344-.785.489-1.221.713-1.611q13.04-22.678 26.094-45.347 14.663-25.464 29.354-50.911a3.592 3.592 0 0 0 .025-4.043q-20.7-35.963-41.327-71.97Q7.837 13.879.811 1.642C.545 1.178.361.667.059 0h152.57c-.315.658-.528 1.2-.815 1.69q-18.724 32.344-37.462 64.68-9.272 16-18.572 31.989a3.084 3.084 0 0 0 0 3.472q19.316 33.12 38.579 66.271 8.454 14.537 16.879 29.09c1.584 2.735 1.57 2.739-1.6 2.739q-21.1 0-42.192.005-49.8.028-99.609.064H.006" transform="translate(0 -.001)" style="fill:#fff"/>
</svg>
