<svg data-name="Captain America" xmlns="http://www.w3.org/2000/svg" width="200.149" height="200" viewBox="0 0 200.149 200">
    <path data-name="Path 9773" d="M100.242 199.987C45.783 200.872-1.879 154.914.057 96.358 1.764 44.744 45.468-1.775 103.565.051c52.175 1.641 98.742 45.449 96.506 104.368-1.989 52.418-45.919 95.956-99.83 95.568m.118-186.82a87.046 87.046 0 0 0-87.179 88.547c.747 46.209 39.019 86.095 88.494 85.234 46.527-.809 85.326-38.44 85.329-86.7a86.593 86.593 0 0 0-86.644-87.087" transform="translate(0 .001)" style="fill:#fff"/>
    <path data-name="Path 9774" d="M96.077 168.575a72.638 72.638 0 0 1 73.366-72.389c40.62.232 72.657 32.937 72.287 73.847a72.831 72.831 0 0 1-145.654-1.458M168.7 227.1a58.143 58.143 0 1 0-57.945-57.2c.58 31.1 26.079 57.19 57.945 57.2" transform="translate(-68.828 -68.906)" style="fill:#fff"/>
    <path data-name="Path 9775" d="M182.014 206.955h1.35c11.248 0 22.5-.031 33.745.025a2.078 2.078 0 0 0 2.3-1.7q5.2-15.123 10.484-30.215a4.7 4.7 0 0 1 .48-.707c.436 1.04.834 1.857 1.13 2.711q3.644 10.493 7.259 21c.865 2.5 1.818 4.962 2.629 7.475a1.824 1.824 0 0 0 2.073 1.425q17.227-.045 34.454-.006c.3 0 .609.051 1.26.11-.752.657-1.24 1.135-1.779 1.547-8.769 6.714-17.522 13.449-26.341 20.1a2.68 2.68 0 0 0-1.068 3.468c2.8 8.815 5.518 17.655 8.271 26.484.533 1.711 1.1 3.412 1.635 5.122a2.074 2.074 0 0 1 0 1.362c-1.89-1.363-3.794-2.707-5.668-4.093q-11.38-8.416-22.733-16.869a1.566 1.566 0 0 0-2.235.041q-13.648 10.356-27.344 20.647a2.346 2.346 0 0 1-1.319.5c.281-1 .539-2.014.845-3.01q4.737-15.426 9.508-30.843a1.81 1.81 0 0 0-.721-2.3q-10.574-8.081-21.1-16.222c-2.424-1.868-4.832-3.755-7.247-5.634z" transform="translate(-130.297 -124.909)" style="fill:#fff"/>
</svg>
