<svg xmlns="http://www.w3.org/2000/svg" width="143.319" height="200" viewBox="0 0 143.319 200">
    <path data-name="Path 9772" d="M1.13 100.75C.764 93.435.419 86.118.011 78.8a3.106 3.106 0 0 1 1.267-2.987c2.1-1.623 4.783-3.053 5.893-5.239 1.1-2.157.524-5.151.721-7.775C8.9 49.429 11.866 36.588 19.7 25.458 31.45 8.761 47.8.479 68.177.043c9.319-.2 18.591.2 27.389 3.6C115.3 11.265 127.392 25.7 132.711 46a83.2 83.2 0 0 1 2.829 22.688 3.016 3.016 0 0 0 1.275 2.815c1.253.916 2.3 2.137 3.609 2.949 2.433 1.511 3.042 3.5 2.868 6.327-.873 14.169-1.5 28.353-2.306 42.528a4.819 4.819 0 0 1-1.275 2.829c-4.288 4.42-8.717 8.7-13 13.123a4.956 4.956 0 0 0-1.268 2.842c-.516 6.526-.859 13.065-1.353 19.593a5.152 5.152 0 0 1-1.035 2.614c-8.9 11.472-17.864 22.9-26.768 34.365A3.1 3.1 0 0 1 93.513 200q-21.883-.064-43.766-.009a3.069 3.069 0 0 1-2.732-1.366c-8.8-11.305-17.669-22.554-26.431-33.888a7.581 7.581 0 0 1-1.384-3.847c-.522-6.46-.834-12.937-1.318-19.4a3.792 3.792 0 0 0-1.126-2.105c-4.357-4.443-8.8-8.8-13.128-13.272a4.873 4.873 0 0 1-1.258-2.837c-.49-7.5-.849-15.016-1.249-22.525h.009m46.351-81.406c-11.115 4.468-20.589 10.7-27.835 20a3.088 3.088 0 0 0-.307 2.362c1.438 5.432 3.454 10.755 4.4 16.264 1.968 11.447 1.314 23 .193 34.506-.142 1.451.139 2.264 1.5 2.866 4.442 1.958 8.761 4.222 13.274 5.99 16.85 6.6 34.081 9.151 51.94 4.5A120.735 120.735 0 0 0 117.781 95.4c.979-.528 1.757-.958 1.646-2.437-.447-5.942-.861-11.9-.994-17.852-.253-11.3 1.01-22.4 5.443-32.921a2.869 2.869 0 0 0-.548-3.427A63.835 63.835 0 0 0 99.6 20.957c-1.21-.54-2.416-1.091-3.71-1.677-.233.712-.382 1.132-.509 1.559Q89.6 40.293 83.853 59.756c-.351 1.2-.813 1.665-2.115 1.654-6.742-.058-13.484-.035-20.226.018a1.755 1.755 0 0 1-2.032-1.515c-2.285-7.963-4.651-15.9-7-23.847-1.634-5.513-3.291-11.02-4.995-16.72M18.388 46.68l-.791.056c-.091.7-.22 1.4-.269 2.106-.571 8.146-1.248 16.287-1.654 24.442-.315 6.315-1.015 12.47-3.663 18.332-1.623 3.591-2.756 7.4-4.2 11.075a2.815 2.815 0 0 0 .413 3.015 201.551 201.551 0 0 0 34.735 37.619 6.8 6.8 0 0 1 1.881 2.8q2.759 7.675 5.278 15.436a1.937 1.937 0 0 0 2.217 1.563q19.353-.05 38.706.023a1.925 1.925 0 0 0 2.181-1.6q2.483-7.667 5.2-15.258a7.249 7.249 0 0 1 1.989-2.956 205.6 205.6 0 0 0 34.725-37.635 2.653 2.653 0 0 0 .389-2.837 610.883 610.883 0 0 1-4.851-12.912c-.839-2.3-2.035-4.607-2.254-6.985-.835-9.1-1.331-18.226-1.969-27.342-.205-2.933-.455-5.862-.684-8.792l-.507-.068c-.74 2.856-1.612 5.685-2.2 8.572-2.316 11.432-2.022 22.985-.861 34.475a70.02 70.02 0 0 1-1.154 21.04 2.587 2.587 0 0 1-2 2.25 84.673 84.673 0 0 1-25.229 4.038c-2.244 0-4-.324-5.15-2.5a14.625 14.625 0 0 0-2.587-3.388 3.067 3.067 0 0 0-2.208-.96 75.874 75.874 0 0 1-24.394-.01 2.95 2.95 0 0 0-2.21.964c-1.331 1.5-2.4 3.22-3.7 4.75a2.993 2.993 0 0 1-1.89 1.047 76.909 76.909 0 0 1-27.891-4.2 2.1 2.1 0 0 1-1.219-1.245c-1.258-5.764-2.446-11.539-1.789-17.51a146.064 146.064 0 0 0 .6-31.052c-.568-5.492-1.966-10.9-2.99-16.343m72.273 139.258 1.9-19.674H50.734l1.934 19.674zm-44.671-9.889c.7-2.879 1.462-5.811 2.089-8.773a5.286 5.286 0 0 0-.123-2.619q-2.77-8.484-5.716-16.909a6.619 6.619 0 0 0-1.669-2.5q-7.482-7.072-15.07-14.032c-1.978-1.822-4.027-3.567-6.044-5.347.551.152.791.659 1.07 1.144a220.908 220.908 0 0 1 19.648 45.532c1.229 4 1.272 3.982 5.815 3.508m77.03-49.672q-10.477 9.727-20.9 19.441a4.1 4.1 0 0 0-.933 1.647q-2.961 8.623-5.842 17.273a4.584 4.584 0 0 0-.19 2.248c.545 2.66 1.207 5.3 1.856 7.934.1.417.336 1.116.56 1.137a15.027 15.027 0 0 0 4.042.013c.44-.081.781-1.207 1-1.907a222.544 222.544 0 0 1 14.426-36.4c1.98-3.827 4-7.63 5.982-11.393M23.84 101.781c.4 2.435.855 4.446 1.031 6.481.137 1.584.953 2.18 2.349 2.577a86.654 86.654 0 0 0 21.018 3.279c2.933.095 4.322-1.189 5.488-3.693-10.345-1.358-20.062-4.533-29.886-8.643m65.915 8.677-.311.737c1.244.944 2.444 2.636 3.738 2.71a66.781 66.781 0 0 0 23.672-3.357c.49-.152 1.179-.571 1.264-.973.518-2.471.889-4.974 1.37-7.825a118.6 118.6 0 0 1-29.732 8.708" style="fill:#fff"/>
</svg>
