<svg xmlns="http://www.w3.org/2000/svg" width="138.189" height="200" viewBox="0 0 138.189 200">
    <path data-name="Path 9771" d="M49.88 200c-2.759-5.336-5.62-10.621-8.254-16.018a173.843 173.843 0 0 1-10.317-26.517c-3.163-10.582-6.037-21.235-7.578-32.195-.744-5.289-1.344-10.6-1.928-15.908a3.723 3.723 0 0 1 .528-2.2q7.614-12.292 15.324-24.525 6.694-10.65 13.457-21.256a3.5 3.5 0 0 1 1.56-1.2c1.568-.65 3.188-1.173 4.787-1.746l-.015-.294a4.311 4.311 0 0 0-.71-.172c-1.752-.128-3.512-.186-5.257-.376a2.807 2.807 0 0 0-2.624 1.1c-3.308 3.821-6.594 7.663-9.983 11.412-6.8 7.526-13.672 14.992-20.5 22.492-2.2 2.412-4.424 4.8-6.512 7.306a4.825 4.825 0 0 0-1.146 2.782c-.045 5.732-.045 11.469.166 17.2a112.319 112.319 0 0 0 2.507 18.845 131.7 131.7 0 0 0 9.625 29.232c.99 2.1 2.109 4.148 3.166 6.222.107.209.193.429.289.644l-.216.156c-.813-1.031-1.634-2.056-2.438-3.094a89.787 89.787 0 0 1-12.774-23.77 173.161 173.161 0 0 1-8.4-31.857C1.6 110.146.907 103.977.023 97.84a2.141 2.141 0 0 1 .935-2.022C5.791 91.434 10.583 87 15.46 82.67q14.951-13.286 29.974-26.489a5.192 5.192 0 0 0 .822-.688c1.567-2.147 3.679-2.085 5.959-1.584 1.222.268 2.478.384 3.72.554a1.258 1.258 0 0 0 .9-.221 5.207 5.207 0 0 0-.7-.489c-2.32-1.128-4.651-2.232-6.968-3.366a1.825 1.825 0 0 0-2.167.232c-6.689 5.352-13.412 10.662-20.1 16.016q-11.122 8.9-22.21 17.849a5.766 5.766 0 0 1-1.1.552 3.751 3.751 0 0 1-.432-1.136c-.111-3.8-.315-7.6-.232-11.39A216.832 216.832 0 0 1 5.371 46.4c1.416-9.85 3.54-19.527 7.514-28.711.6-1.377 1.328-2.7 2.013-4.033a.8.8 0 0 1 .65-.4c-.272.865-.54 1.731-.815 2.6A101.389 101.389 0 0 0 10.92 35.78a202.333 202.333 0 0 0-.99 25.354c.056 3.37.212 6.738.327 10.106a3.876 3.876 0 0 0 .126.553c1.7-1.233 3.3-2.4 4.909-3.569Q30.919 56.9 46.534 45.554a1.866 1.866 0 0 1 2.42-.059c2.545 1.606 5.136 3.139 7.716 4.688a1.544 1.544 0 0 0 1.109.2 3.486 3.486 0 0 0-.368-.58c-2.814-2.964-5.647-5.91-8.445-8.889a1.206 1.206 0 0 0-1.832-.2q-13.32 8.709-26.676 17.362a2.9 2.9 0 0 1-.546.34c-.274.1-.734.278-.823.173a1.341 1.341 0 0 1-.278-.932c.24-2.1.493-4.2.808-6.291 1.063-7.051 2.09-14.128 4.336-20.917 3.208-9.7 6.685-19.3 11.933-28.147.4-.677.859-1.321 1.3-1.973.046-.069.159-.093.577-.323-6.937 15.624-9.909 31.858-11.233 48.558.274-.153.548-.289.8-.452q10.106-6.444 20.2-12.911a1.149 1.149 0 0 1 1.742.191c2.99 3.14 6.012 6.251 9.01 9.384.383.4.692.871 1.035 1.309l.39-.291a16.014 16.014 0 0 1-.546-2.429 3.9 3.9 0 0 1 .279-2.145 19.565 19.565 0 0 1 6.165-6.343c.1-.068.23-.1.5.013-.214.3-.445.594-.639.908-1.218 1.974-2.065 4.026-1.325 6.407.287.923.7 1.419 1.849 1.136a13.824 13.824 0 0 1 6.505.04c.874.2 1.162-.178 1.417-.843.983-2.561.078-4.765-1.292-6.881-.155-.239-.351-.451-.515-.684-.034-.049-.012-.137-.029-.415a8.165 8.165 0 0 1 1.272.814 191.228 191.228 0 0 1 4.59 4.506 4.079 4.079 0 0 1 .96 4.452 3.5 3.5 0 0 0-.173 1.6c.29-.258.6-.5.868-.778 3.106-3.226 6.22-6.444 9.3-9.7a1.265 1.265 0 0 1 1.929-.184c6.653 4.3 13.335 8.547 20.01 12.808.26.166.54.3.986.548-1.014-8.413-1.768-16.668-3.617-24.779a143.886 143.886 0 0 0-7.584-23.65l.316-.147c.485.774.988 1.537 1.453 2.323 3.738 6.317 6.408 13.116 9.075 19.926a119.345 119.345 0 0 1 6.917 27.648c.342 2.52.7 5.038 1.012 7.562a3.749 3.749 0 0 1-.2 1.1 3.941 3.941 0 0 1-1.039-.316Q104.61 49.521 91.1 40.708a1.185 1.185 0 0 0-1.823.186c-2.739 2.936-5.531 5.821-8.3 8.73a1.488 1.488 0 0 0-.421.954 5.817 5.817 0 0 0 .962-.37c2.611-1.566 5.23-3.119 7.8-4.744a1.793 1.793 0 0 1 2.324.052q12.123 8.825 24.285 17.594c3.8 2.755 7.588 5.532 11.382 8.3.14.1.3.176.672.39.715-19.827.849-39.426-5.168-58.508l.295-.125c.716 1.446 1.49 2.867 2.138 4.343a102.661 102.661 0 0 1 6.723 23.6 227.256 227.256 0 0 1 3.217 29.367c.189 4.222.022 8.46.007 12.691a6.044 6.044 0 0 1-.11 1.069c-.166.9-.473 1.03-1.22.448a519.345 519.345 0 0 1-6.84-5.4q-15.748-12.673-31.49-25.363c-1.424-1.146-2.864-2.28-4.363-3.322a2.044 2.044 0 0 0-1.636-.334c-2.625 1.146-5.194 2.419-7.784 3.645a4.323 4.323 0 0 1-.517.172l.231.348a9.363 9.363 0 0 0 1.2-.008c2.025-.263 4.041-.6 6.071-.795a2.389 2.389 0 0 1 1.635.5q17.731 15.581 35.4 31.232c3.862 3.424 7.619 6.965 11.459 10.415a2.588 2.588 0 0 1 .937 2.438 224.94 224.94 0 0 1-5.454 31.968c-3.223 13.123-7.81 25.713-15.088 37.193-1.361 2.146-2.918 4.168-4.4 6.234a4.829 4.829 0 0 1-1.375 1.3 3.309 3.309 0 0 1 .2-.668 128.584 128.584 0 0 0 13.782-40.731 138.651 138.651 0 0 0 1.819-30.224 5.8 5.8 0 0 0-1.6-3.849q-8.947-9.745-17.823-19.554-9.355-10.392-18.584-20.9a3.375 3.375 0 0 0-3.239-1.392c-1.6.212-3.217.238-4.826.359a5.557 5.557 0 0 0-.778.169l-.046.275a15.791 15.791 0 0 0 2.136.8 8.464 8.464 0 0 1 5.624 4.3c6.009 9.808 12.24 19.479 18.372 29.213 3 4.758 5.933 9.555 8.951 14.3a3.613 3.613 0 0 1 .626 2.523c-.823 6.325-1.567 12.661-2.491 18.972a179.12 179.12 0 0 1-5.1 22.3 210 210 0 0 1-7.387 22.215 229.209 229.209 0 0 1-13.095 26.715c-.048.085-.133.148-.384.145.439-1.164.922-2.314 1.311-3.494 2.821-8.573 5.774-17.107 8.391-25.742a203.427 203.427 0 0 0 6.492-28.49c.972-6.406 1.466-12.889 2.051-19.348.313-3.461.339-6.948.545-10.42a7.873 7.873 0 0 0-.9-4.022c-3.848-7.893-7.64-15.814-11.473-23.714-3.144-6.48-6.328-12.939-9.474-19.418-.887-1.827-2.685-2.495-4.261-3.44-.139-.084-.677.2-.795.426a43.66 43.66 0 0 0-1.694 3.711 1.4 1.4 0 0 0 .272 1.033C79.8 69 81.09 71.075 82.536 73.034a7.815 7.815 0 0 1 1.451 6.091c-.95 6.232-1.779 12.487-2.923 18.683a128.7 128.7 0 0 1-5.664 20.931c-.578 1.579-1.241 3.126-1.923 4.834a4.912 4.912 0 0 0-4.3-2.736c-1.931-.048-3.3.953-4.455 2.781-1.058-2.861-2.113-5.479-3-8.153a160.92 160.92 0 0 1-5.707-23.7c-.685-4.024-1.143-8.087-1.723-12.13a8.724 8.724 0 0 1 1.594-6.9c1.41-1.85 2.611-3.857 3.937-5.773a1.2 1.2 0 0 0 .1-1.447c-.67-1.257-1.241-2.566-1.924-4.005-1.9 1.176-3.874 1.95-4.9 4.083C48.328 75.511 43.5 85.4 38.7 95.3c-2.266 4.676-4.537 9.35-6.76 14.047a4.524 4.524 0 0 0-.45 2.057c.264 5.623.427 11.258.944 16.859.531 5.74 1.133 11.5 2.233 17.153 1.567 8.045 3.322 16.079 5.537 23.967 2.5 8.889 5.578 17.615 8.437 26.4.449 1.38 1.066 2.705 1.605 4.056l-.366.161" transform="translate(.001)" style="fill:#fff"/>
</svg>
