<svg xmlns="http://www.w3.org/2000/svg" viewBox="0 0 2112 2016">
    <path fill="#2acc6f" id="hotel_green"
        d="M1220,630V243c0-67,27-127,71-171V71c45-44,105-71,172-71h110a242.62,242.62,0,0,1,172,71v1c44,44,72,104,72,171V630H1648V243a75.11,75.11,0,0,0-75-75H1463c-21,0-39,9-53,22-13,14-22,33-22,53V710h470c13,0,26,1,38,2a254.56,254.56,0,0,1,141,69h1c46,44,74,105,74,172v110c0,67-28,128-74,172h-1a254.56,254.56,0,0,1-141,69c-12,1-25,2-38,2H1388v467c0,20,9,39,22,53,14,13,32,22,53,22h110a75.11,75.11,0,0,0,75-75V1386h169v387c0,67-28,127-72,171v1a242.62,242.62,0,0,1-172,71H1463c-67,0-127-27-172-71v-1c-44-44-71-104-71-171V1138h638a79.56,79.56,0,0,0,38-10,65.7,65.7,0,0,0,17-12c14-14,23-32,23-53V953c0-21-9-39-23-53a65.7,65.7,0,0,0-17-12,79.56,79.56,0,0,0-38-10H254a79.56,79.56,0,0,0-38,10,65.7,65.7,0,0,0-17,12c-14,14-23,32-23,53v110c0,21,9,39,23,53a65.7,65.7,0,0,0,17,12,79.56,79.56,0,0,0,38,10H892v635c0,67-27,127-71,171v1c-45,44-105,71-172,71H539a242.62,242.62,0,0,1-172-71v-1c-44-44-72-104-72-171V1386H464v387a75.11,75.11,0,0,0,75,75H649c21,0,39-9,53-22,13-14,22-33,22-53V1306H254c-13,0-26-1-38-2a254.56,254.56,0,0,1-141-69H74c-46-44-74-105-74-172V953c0-67,28-128,74-172h1a254.56,254.56,0,0,1,141-69c12-1,25-2,38-2H724V243c0-20-9-39-22-53-14-13-32-22-53-22H539a75.11,75.11,0,0,0-75,75V630H295V243c0-67,28-127,72-171V71A242.62,242.62,0,0,1,539,0H649c67,0,127,27,172,71v1c44,44,71,104,71,171V710h328Z" />
</svg>