<?xml version="1.0"?>
<svg height="560" width="440" xmlns="http://www.w3.org/2000/svg">
    <path style="fill:#ffffff; stroke:none;"
        d="M229 31 230 32 229 31M231 34C238 63.5 228 89.9 214.1 116 121.2 275.4 109 279 104 314 103 340 104 346 140 393 140 382.5 134.4 373.1 135 352 136 340 149 319 159 301 164 294 173.1 275.8 180.1 275.6 183.3 275.5 186.6 279.6 188.9 281.6 220 310 231.9 320.4 234.3 329 235.6 333.6 230.2 338.3 227.8 341.7 220.7 351.8 214.6 362.5 208 372.9 183.8 410.9 157.7 467.8 190.8 508 196.5 515 204.2 522.2 213 525 212.5 513.1 207.1 502.3 209.3 490 214.7 461.1 233.1 437 249 413 277.4 370.3 310.5 328.8 331.2 281.6 348.7 241.7 349.1 187.6 304 165 304.1 175.2 307.7 184.4 306.9 195 305.3 217.1 293.3 238.1 283.2 257.3 278.2 266.7 272.3 282 263 287 256 288 252 282 248.1 279 213 246 207.5 241.4 206.3 236.3 205 232 210.9 226.5 213.2 223.3 220.2 213.7 226.6 203.7 233.1 193.7 257.1 156.3 285.7 101.2 257.6 58.8 251.6 49.8 242 36.8 231 34z" />
</svg>
