<svg xmlns="http://www.w3.org/2000/svg" width="49.723" height="50.844" viewBox="0 0 49.723 50.844">
    <defs>
        <linearGradient id="9u2i9805ib" x1=".5" x2=".5" y2="1" gradientUnits="objectBoundingBox">
            <stop offset="0" stop-color="#ff747a"/>
            <stop offset="1" stop-color="#f7699b"/>
        </linearGradient>
        <filter id="7dtkyzm5ra" x="2.499" y="2.156" width="47.224" height="48.688" filterUnits="userSpaceOnUse">
            <feOffset dy="2"/>
            <feGaussianBlur stdDeviation="5" result="blur"/>
            <feFlood flood-color="#932243" flood-opacity=".302"/>
            <feComposite operator="in" in2="blur"/>
            <feComposite in="SourceGraphic"/>
        </filter>
    </defs>
    <rect data-name="Rectangle 371" width="48" height="48" rx="24" style="fill:#fff;opacity:.8"/>
    <g style="filter:url(#7dtkyzm5ra)">
        <path data-name="Path 9770" d="M.011 9.335c0-2.233.033-4.466-.01-6.7A2.588 2.588 0 0 1 3.9.353q5.972 3.4 11.965 6.756a2.438 2.438 0 0 1 1.358 2.234 2.425 2.425 0 0 1-1.343 2.218Q9.876 14.95 3.868 18.337a2.561 2.561 0 0 1-3.828-1.79 3.013 3.013 0 0 1-.028-.513v-6.7" transform="translate(17.5 15.16)" style="fill:url(#9u2i9805ib)"/>
    </g>
</svg>
