<svg xmlns="http://www.w3.org/2000/svg" xmlns:xlink="http://www.w3.org/1999/xlink" width="375" height="279.872" viewBox="0 0 375 279.872">
  <defs>
    <linearGradient id="linear-gradient" y1="0.5" x2="1" y2="0.5" gradientUnits="objectBoundingBox">
      <stop offset="0" stop-color="#f0f2fe"/>
      <stop offset="1" stop-color="#c8cdf0"/>
    </linearGradient>
    <linearGradient id="linear-gradient-3" y1="0.5" x2="1" y2="0.5" gradientUnits="objectBoundingBox">
      <stop offset="0.3" stop-color="#f0f2fe"/>
      <stop offset="0.7" stop-color="#c8cdf0"/>
    </linearGradient>
    <linearGradient id="linear-gradient-4" x1="1.094" y1="2.064" x2="1.907" y2="2.064" gradientUnits="objectBoundingBox">
      <stop offset="0" stop-color="#fff"/>
      <stop offset="0.7" stop-color="#dee4f7"/>
    </linearGradient>
    <linearGradient id="linear-gradient-5" x1="1.909" y1="2.757" x2="1.338" y2="1.756" xlink:href="#linear-gradient-3"/>
    <linearGradient id="linear-gradient-6" x1="1.88" y1="2.568" x2="1.297" y2="3.24" gradientUnits="objectBoundingBox">
      <stop offset="0" stop-color="#4bd6ed"/>
      <stop offset="1" stop-color="#1a50b2"/>
    </linearGradient>
    <linearGradient id="linear-gradient-8" x1="0.138" y1="-0.004" x2="0.862" y2="1.004" xlink:href="#linear-gradient-6"/>
    <linearGradient id="linear-gradient-9" x1="-48.647" y1="-36.63" x2="-48.175" y2="-36.63" gradientUnits="objectBoundingBox">
      <stop offset="0" stop-color="#c8cdf0"/>
      <stop offset="0.4" stop-color="#f0f2fe"/>
      <stop offset="0.6" stop-color="#eceefd"/>
      <stop offset="1" stop-color="#c8cdf0"/>
    </linearGradient>
    <linearGradient id="linear-gradient-10" x1="-40.637" y1="-30.771" x2="-40.166" y2="-30.771" gradientUnits="objectBoundingBox">
      <stop offset="0" stop-color="#1a50b2"/>
      <stop offset="0.4" stop-color="#4bbfed"/>
      <stop offset="0.6" stop-color="#4bbfed"/>
      <stop offset="1" stop-color="#1a50b2"/>
    </linearGradient>
    <linearGradient id="linear-gradient-11" x1="-37.463" y1="-28.498" x2="-36.991" y2="-28.498" xlink:href="#linear-gradient-9"/>
    <linearGradient id="linear-gradient-12" x1="-32.392" y1="-26.67" x2="-31.991" y2="-26.67" xlink:href="#linear-gradient-10"/>
    <linearGradient id="linear-gradient-13" x1="-27.279" y1="-26.662" x2="-26.948" y2="-26.662" xlink:href="#linear-gradient-10"/>
    <linearGradient id="linear-gradient-14" x1="-112.895" y1="-55.502" x2="-111.525" y2="-55.502" xlink:href="#linear-gradient-9"/>
    <linearGradient id="linear-gradient-15" x1="-213.147" y1="-200.192" x2="-212.774" y2="-200.192" xlink:href="#linear-gradient-9"/>
    <linearGradient id="linear-gradient-16" x1="-45.34" y1="110.09" x2="-44.596" y2="110.09" xlink:href="#linear-gradient-9"/>
    <linearGradient id="linear-gradient-17" x1="0.239" y1="-0.158" x2="0.761" y2="1.158" xlink:href="#linear-gradient-6"/>
    <linearGradient id="linear-gradient-18" x1="-53.036" y1="5.721" x2="-58.11" y2="5.721" gradientUnits="objectBoundingBox">
      <stop offset="0" stop-color="#fdd2a7"/>
      <stop offset="1" stop-color="#f83f76"/>
    </linearGradient>
    <linearGradient id="linear-gradient-19" x1="0.5" y1="1" x2="0.5" gradientUnits="objectBoundingBox">
      <stop offset="0" stop-color="#8288e7"/>
      <stop offset="1" stop-color="#1a50b2"/>
    </linearGradient>
    <linearGradient id="linear-gradient-20" x1="0.234" y1="-0.186" x2="0.752" y2="1.22" gradientUnits="objectBoundingBox">
      <stop offset="0.909" stop-color="#f0f2fe"/>
      <stop offset="0.95" stop-color="#c8cdf0"/>
    </linearGradient>
    <linearGradient id="linear-gradient-21" x1="-0.007" y1="0.513" x2="0.993" y2="0.513" xlink:href="#linear-gradient"/>
    <linearGradient id="linear-gradient-22" x1="0.22" y1="-0.069" x2="0.741" y2="1.216" gradientUnits="objectBoundingBox">
      <stop offset="0.667" stop-color="#4bd6ed"/>
      <stop offset="0.801" stop-color="#1a50b2"/>
    </linearGradient>
    <linearGradient id="linear-gradient-23" x1="0.216" y1="-0.076" x2="0.745" y2="1.224" xlink:href="#linear-gradient-6"/>
    <linearGradient id="linear-gradient-24" x1="0.207" y1="-0.12" x2="0.782" y2="1.165" gradientUnits="objectBoundingBox">
      <stop offset="0.704" stop-color="#f0f2fe"/>
      <stop offset="0.785" stop-color="#c8cdf0"/>
    </linearGradient>
    <linearGradient id="linear-gradient-25" x1="-0.019" y1="0.531" x2="0.981" y2="0.531" xlink:href="#linear-gradient"/>
    <linearGradient id="linear-gradient-26" x1="-5.034" y1="6.561" x2="-3.389" y2="6.561" xlink:href="#linear-gradient-6"/>
    <linearGradient id="linear-gradient-27" x1="-5.125" y1="6.596" x2="-3.45" y2="6.596" xlink:href="#linear-gradient-6"/>
    <linearGradient id="linear-gradient-28" x1="40.087" y1="11.009" x2="41.241" y2="11.009" xlink:href="#linear-gradient-6"/>
    <linearGradient id="linear-gradient-29" x1="40.084" y1="11.868" x2="41.239" y2="11.868" xlink:href="#linear-gradient"/>
    <linearGradient id="linear-gradient-30" x1="-9.066" y1="8.842" x2="-7.107" y2="8.842" xlink:href="#linear-gradient"/>
    <linearGradient id="linear-gradient-31" x1="-10.714" y1="8.462" x2="-8.418" y2="8.462" xlink:href="#linear-gradient"/>
    <linearGradient id="linear-gradient-32" x1="-8.649" y1="9.443" x2="-6.775" y2="9.443" gradientUnits="objectBoundingBox">
      <stop offset="0.25" stop-color="#fff"/>
      <stop offset="0.7" stop-color="#dee4f7"/>
    </linearGradient>
    <linearGradient id="linear-gradient-33" x1="-9.579" y1="11.418" x2="-7.819" y2="11.418" xlink:href="#linear-gradient"/>
    <linearGradient id="linear-gradient-34" x1="-14.991" y1="8.276" x2="-11.819" y2="8.276" xlink:href="#linear-gradient-32"/>
    <linearGradient id="linear-gradient-35" x1="-17.961" y1="10.48" x2="-14.921" y2="10.48" xlink:href="#linear-gradient"/>
    <linearGradient id="linear-gradient-36" x1="0.5" y1="0" x2="0.5" y2="1" xlink:href="#linear-gradient-18"/>
    <linearGradient id="linear-gradient-37" x1="0.5" y1="1" x2="0.5" gradientUnits="objectBoundingBox">
      <stop offset="0" stop-color="#242748"/>
      <stop offset="1" stop-color="#203a5f"/>
    </linearGradient>
    <linearGradient id="linear-gradient-44" x1="0" y1="0.5" x2="1" y2="0.5" xlink:href="#linear-gradient-32"/>
    <linearGradient id="linear-gradient-45" x1="0" y1="0.5" x2="1" y2="0.5" xlink:href="#linear-gradient-6"/>
    <linearGradient id="linear-gradient-49" x1="-29.851" y1="12.422" x2="-28.851" y2="12.422" xlink:href="#linear-gradient-4"/>
    <radialGradient id="radial-gradient" cx="0.324" cy="0.341" r="0.732" gradientTransform="translate(0.092) scale(0.815 1)" xlink:href="#linear-gradient-32"/>
  </defs>
  <g id="intro_c" transform="translate(-625.893 -211.254)">
    <g id="Group_8122" data-name="Group 8122">
      <path id="Path_7848" data-name="Path 7848" d="M804.184,644.6l5.872-5.022-44.57-17.39-18.178,15.545-25.147,14.519L760.2,674.217l7.379-4.261,4.777,1.864,16.64-14.23,18.842-10.878Z" transform="translate(-53.877 -229.999)" fill="#1a50b2" opacity="0.15" style="mix-blend-mode: multiply;isolation: isolate"/>
      <path id="Path_7849" data-name="Path 7849" d="M800.015,647.021,761.976,625.06l-47.636,27.5v3.274L752.378,677.8l47.637-27.5Z" transform="translate(-49.5 -231.604)" fill="url(#linear-gradient)"/>
      <path id="Path_7850" data-name="Path 7850" d="M880.949,671.805l-4.265-2.462L858.955,684.5Z" transform="translate(-130.434 -256.388)" opacity="0.3" style="mix-blend-mode: overlay;isolation: isolate"/>
      <path id="Path_7851" data-name="Path 7851" d="M714.34,687.521v3.274l38.038,21.961v-3.273Z" transform="translate(-49.5 -266.56)" fill="#fff" opacity="0.5"/>
      <path id="Path_7852" data-name="Path 7852" d="M800.722,702.438v3.273l47.637-27.5v-3.274Z" transform="translate(-97.843 -259.516)" opacity="0.6" style="mix-blend-mode: overlay;isolation: isolate"/>
      <path id="Path_7853" data-name="Path 7853" d="M800.476,634.832l-44.569-17.39-37.7,32.237v3.273l44.569,17.391,37.7-32.238Z" transform="translate(-51.663 -227.341)" fill="url(#linear-gradient)"/>
      <path id="Path_7854" data-name="Path 7854" d="M718.206,690.65v3.273l44.569,17.391v-3.274Z" transform="translate(-51.663 -268.312)" fill="#fff" opacity="0.5"/>
      <path id="Path_7855" data-name="Path 7855" d="M819.42,689.172v3.274l37.7-32.238v-3.273Z" transform="translate(-108.308 -249.442)" opacity="0.6" style="mix-blend-mode: overlay;isolation: isolate"/>
      <path id="Path_7856" data-name="Path 7856" d="M801.306,640.3l-38.811-15.144.6-.513L801.9,639.783Zm-2.095,1.792L760.4,626.942l-.6.511L798.613,642.6Zm-2.693,2.3-19.108-7.456-.6.511L795.92,644.9Zm-2.693,2.3-19.108-7.456-.6.512,19.108,7.457Zm-2.692,2.3-19.109-7.456-.6.512,19.107,7.455Zm-2.694,2.3-19.107-7.456-.6.512,19.109,7.456Zm-2.693,2.3-19.108-7.456-.6.512,19.108,7.456Zm-2.692,2.3-19.108-7.456-.6.51,19.108,7.458Zm-2.693,2.3L741.55,643.061l-.6.513,38.811,15.144Zm-2.693,2.3-38.811-15.145-.6.511,38.811,15.144Zm-2.693,2.3-38.81-15.144-.6.511,38.811,15.144Zm-2.693,2.3-38.81-15.144-.6.512,38.811,15.144Zm-2.693,2.3-38.811-15.144-.6.513,38.811,15.143Zm4.717-31.694-16.6-6.476L743.645,641.27l16.6,6.476Z" transform="translate(-58.365 -231.368)" opacity="0.6" style="mix-blend-mode: overlay;isolation: isolate"/>
    </g>
    <g id="Group_8121" data-name="Group 8121">
      <path id="Path_7857" data-name="Path 7857" d="M630.454,577.091,650.1,565.652c6.089-3.519,15.972-3.514,22.065,0s6.1,9.222.015,12.742c-.007,0-.017.008-.022.011h0l-19.622,11.434c-6.091,3.513-15.972,3.508-22.066-.011S624.365,580.607,630.454,577.091Z" transform="translate(0 -196.876)" fill="#1a50b2" opacity="0.15" style="mix-blend-mode: multiply;isolation: isolate"/>
      <path id="Path_7858" data-name="Path 7858" d="M657.4,538.224h0c.045-2.344-1.466-4.688-4.547-6.467-6.117-3.532-16.091-3.5-22.278.072-3.071,1.772-4.626,4.084-4.671,6.4h0v26.19h0c-.045,2.345,1.466,4.688,4.547,6.466,6.116,3.533,16.09,3.5,22.277-.071,3.071-1.773,4.626-4.085,4.671-6.4h0Z" transform="translate(0 -177.911)" fill="url(#linear-gradient-3)"/>
      <path id="Path_7859" data-name="Path 7859" d="M652.846,531.757c-6.117-3.532-16.091-3.5-22.278.072s-6.241,9.33-.123,12.861,16.09,3.5,22.277-.07S658.963,535.288,652.846,531.757Z" transform="translate(0 -177.911)" fill="url(#linear-gradient-4)"/>
      <path id="Path_7860" data-name="Path 7860" d="M653.814,533.736c-5.446-3.144-14.325-3.115-19.832.064s-5.556,8.306-.11,11.449,14.325,3.116,19.832-.063S659.26,536.88,653.814,533.736Z" transform="translate(-2.197 -179.181)" fill="url(#linear-gradient-5)"/>
      <path id="Path_7861" data-name="Path 7861" d="M634.539,550.8c5.446,3.145,14.325,3.116,19.832-.063a8.7,8.7,0,0,0,3.637-3.6,8.487,8.487,0,0,0-3.527-3.481c-5.446-3.144-14.325-3.114-19.832.064a8.694,8.694,0,0,0-3.637,3.6A8.483,8.483,0,0,0,634.539,550.8Z" transform="translate(-2.865 -184.729)" fill="url(#linear-gradient-6)"/>
      <path id="Path_7862" data-name="Path 7862" d="M639,553.432c-3.474-2.005-4.7-4.815-3.714-7.414-.212.108-.429.213-.632.33a8.7,8.7,0,0,0-3.637,3.6,8.483,8.483,0,0,0,3.526,3.481,21.03,21.03,0,0,0,12.036,2.23A18.817,18.817,0,0,1,639,553.432Z" transform="translate(-2.865 -187.364)" opacity="0.3" style="mix-blend-mode: overlay;isolation: isolate"/>
      <path id="Path_7863" data-name="Path 7863" d="M686.958,568.235l0,0h0a.937.937,0,0,0-.923.1,2.89,2.89,0,0,0-1.314,2.259.9.9,0,0,0,.39.841h0l3.44,1.985a9.9,9.9,0,0,1,4.408,7.628v5.188a1.491,1.491,0,0,1-2.561,1.471l-3.435-1.982h0l0,0h0a.935.935,0,0,0-.923.1,2.886,2.886,0,0,0-1.314,2.258.9.9,0,0,0,.39.841h0l3.44,1.985a5.569,5.569,0,0,0,5.621.375,4.556,4.556,0,0,0,1.667-1.694,6.66,6.66,0,0,0,.815-3.35v-5.189a13.628,13.628,0,0,0-6.255-10.826l-3.435-1.983Z" transform="translate(-32.921 -199.751)" fill="url(#linear-gradient)"/>
      <path id="Path_7864" data-name="Path 7864" d="M696.649,581.044v5.189a6.66,6.66,0,0,1-.815,3.35,4.556,4.556,0,0,1-1.667,1.694,5.569,5.569,0,0,1-5.621-.375l-3.44-1.985a.9.9,0,0,1-.39-.841,2.16,2.16,0,0,1,.043-.269l3.378,1.932a5.92,5.92,0,0,0,2.91.862h0a3.635,3.635,0,0,0,3.259-1.882,5.868,5.868,0,0,0,.705-2.941v-5.189a12.739,12.739,0,0,0-5.846-10.116l-3.374-1.948a2.271,2.271,0,0,1,.239-.193.937.937,0,0,1,.923-.1h0l0,0h0l3.435,1.983A13.628,13.628,0,0,1,696.649,581.044Zm-8.1-7.627a9.9,9.9,0,0,1,4.408,7.628v-.455a10.661,10.661,0,0,0-4.817-8.337l-3.378-1.933a2.234,2.234,0,0,0-.043.271.9.9,0,0,0,.39.841Zm-1.588,12.3h0l0,0h0a.935.935,0,0,0-.923.1,2.212,2.212,0,0,0-.318.257l.211.01,3.244,1.872a2.851,2.851,0,0,0,2.746.374,1.526,1.526,0,0,0,.23-.2,2.477,2.477,0,0,1-1.749-.425Z" transform="translate(-32.921 -199.751)" opacity="0.4" style="mix-blend-mode: overlay;isolation: isolate"/>
      <path id="Path_7865" data-name="Path 7865" d="M660.972,576.918a.546.546,0,0,1-.546-.546v-8.919a.546.546,0,1,1,1.092,0v8.919A.546.546,0,0,1,660.972,576.918Z" transform="translate(-19.327 -199.054)" fill="#fff"/>
      <path id="Rectangle_3182" data-name="Rectangle 3182" d="M3.48,0H5.166A3.479,3.479,0,0,1,8.645,3.479v3.8a3.48,3.48,0,0,1-3.48,3.48H3.479A3.479,3.479,0,0,1,0,7.284V3.48A3.48,3.48,0,0,1,3.48,0Z" transform="translate(637.323 377.318)" fill="url(#linear-gradient-8)"/>
    </g>
    <g id="Group_8120" data-name="Group 8120">
      <path id="Path_7866" data-name="Path 7866" d="M1038.07,754.093l0,0,9.941,5.739c5.871,3.391,17.163,8,21.03,7.744l2.56,1.478a1.467,1.467,0,0,0,1.328,0,.4.4,0,0,0,0-.766l-2.559-1.479c.446-2.231-7.539-8.75-13.413-12.142l-7.042-4.064h0l-18.5-10.68-.006,0-14.237-8.221a3.375,3.375,0,0,0-1.378-.378l-.928-.536a3.789,3.789,0,0,0-2-.362l-.82-.474c-1.095-.631-3.514-.258-5.406.834s-2.539,2.49-1.445,3.122l.819.473a1.121,1.121,0,0,0,.628,1.156l.93.536a1.3,1.3,0,0,0,.657.794l14.626,8.444,0,0Z" transform="translate(-211.996 -290.138)" fill="#1a50b2" opacity="0.15" style="mix-blend-mode: multiply;isolation: isolate"/>
      <path id="Path_7867" data-name="Path 7867" d="M1020.646,729.733c1.094-1.894,1.094-3.941,0-4.573l-11.2-6.467c-1.094-.631-2.866.392-3.96,2.286s-1.094,3.942,0,4.574l11.2,6.466C1017.78,732.651,1019.553,731.627,1020.646,729.733Z" transform="translate(-211.995 -283.905)" fill="url(#linear-gradient-9)"/>
      <path id="Path_7868" data-name="Path 7868" d="M1027.423,733.137c1.313-2.273,1.314-4.732,0-5.489l-13.449-7.765c-1.313-.759-3.441.47-4.754,2.744s-1.313,4.732,0,5.491l13.45,7.763C1023.983,736.64,1026.112,735.41,1027.423,733.137Z" transform="translate(-213.994 -284.551)" fill="url(#linear-gradient-10)"/>
      <path id="Path_7869" data-name="Path 7869" d="M1032.856,736c1.427-2.472,1.427-5.145,0-5.969l-14.625-8.446c-1.428-.824-3.743.513-5.172,2.986s-1.427,5.145,0,5.969l14.625,8.446C1029.113,739.814,1031.427,738.477,1032.856,736Z" transform="translate(-216.094 -285.495)" fill="url(#linear-gradient-11)"/>
      <path id="Path_7870" data-name="Path 7870" d="M1031.468,744.586l-19.273-11.127a4.659,4.659,0,0,0,.059,2.92,2.473,2.473,0,0,0,.149.287l0,0a1.9,1.9,0,0,0,.178.249.064.064,0,0,1,.007.009,1.736,1.736,0,0,0,.2.2l.023.024a1.7,1.7,0,0,0,.253.177l14.625,8.445C1028.71,746.36,1030.187,745.837,1031.468,744.586Z" transform="translate(-216.097 -292.274)" opacity="0.7" style="mix-blend-mode: overlay;isolation: isolate"/>
      <path id="Path_7871" data-name="Path 7871" d="M1069.072,756.915c1.428-2.473,1.428-5.147,0-5.971l-18.5-10.68c-1.428-.825-3.743.511-5.171,2.985s-1.428,5.146,0,5.97l18.5,10.68C1065.329,760.723,1067.643,759.388,1069.072,756.915Z" transform="translate(-234.195 -295.946)" fill="url(#linear-gradient-12)"/>
      <path id="Path_7872" data-name="Path 7872" d="M1110.844,781.033c1.428-2.475-8.439-10.842-14.9-14.573L1086,760.721c-1.427-.825-3.742.512-5.17,2.985s-1.428,5.146,0,5.97l9.94,5.738C1097.234,779.146,1109.415,783.507,1110.844,781.033Z" transform="translate(-254.024 -307.395)" fill="url(#linear-gradient-13)"/>
      <path id="Path_7873" data-name="Path 7873" d="M1082.136,764.459c1.427-2.474,3.742-3.811,5.17-2.986l-1.3-.753c-1.427-.825-3.742.512-5.17,2.985s-1.428,5.146,0,5.97l1.3.752C1080.709,769.6,1080.709,766.932,1082.136,764.459Z" transform="translate(-254.024 -307.395)" fill="url(#linear-gradient-14)"/>
      <path id="Path_7874" data-name="Path 7874" d="M1150.919,807.961a.767.767,0,0,0,1.048-.281h0a.767.767,0,0,0-.281-1.047l-2.581-1.491a.768.768,0,0,0-1.048.281h0a.767.767,0,0,0,.281,1.048Z" transform="translate(-292.188 -332.334)" fill="url(#linear-gradient-15)"/>
      <path id="Path_7875" data-name="Path 7875" d="M1027.743,743.282l-20.969-12.106c-.831-.479-1.535-.283-1.813.4a1.573,1.573,0,0,0,.69.918l.82.473a2.043,2.043,0,0,0,.918,1.447l.929.536a1.956,1.956,0,0,0,.808.946l14.625,8.445,0,0,5.658,3.267a1.635,1.635,0,0,0,.271-.967A4.294,4.294,0,0,0,1027.743,743.282Z" transform="translate(-212.161 -290.849)" opacity="0.3" style="mix-blend-mode: overlay;isolation: isolate"/>
      <path id="Path_7876" data-name="Path 7876" d="M1009.729,737.95c-.5-.857-.5-1.786,0-2.071l2.359-1.423c.5-.286,1.3.177,1.794,1.036s.5,1.785,0,2.07l-2.359,1.424C1011.028,739.271,1010.224,738.808,1009.729,737.95Z" transform="translate(-214.622 -292.784)" fill="url(#linear-gradient-16)"/>
      <path id="Path_7877" data-name="Path 7877" d="M1001.428,732.868a1.369,1.369,0,0,0-.551,1.241,4.292,4.292,0,0,0,1.943,3.365l20.969,12.106a1.366,1.366,0,0,0,1.377.135h0l.488-.281v0a1.35,1.35,0,0,0,.581-1.262,4.285,4.285,0,0,0-1.942-3.362L1003.323,732.7a1.354,1.354,0,0,0-1.393-.122l0,0-.5.29Z" transform="translate(-209.876 -291.702)" fill="url(#linear-gradient-17)"/>
      <path id="Path_7878" data-name="Path 7878" d="M1026.93,748.171a4.285,4.285,0,0,0-1.942-3.362L1004.019,732.7a1.354,1.354,0,0,0-1.393-.122l0,0-.5.29,0,0,0,0a1.348,1.348,0,0,1,1.4.119l20.969,12.108a4.288,4.288,0,0,1,1.943,3.363,1.363,1.363,0,0,1-.566,1.255h0l.488-.281v0A1.35,1.35,0,0,0,1026.93,748.171Z" transform="translate(-210.572 -291.702)" opacity="0.3" style="mix-blend-mode: overlay;isolation: isolate"/>
    </g>
    <g id="Group_8119" data-name="Group 8119">
      <path id="Path_7879" data-name="Path 7879" d="M708.123,349.742v51.59l9.786,5.652.945-.546v-51.59l-9.789-5.652Z" transform="translate(-46.021 -77.205)" fill="url(#linear-gradient-18)"/>
      <path id="Path_7880" data-name="Path 7880" d="M717.911,355.395v51.59l.945-.546v-51.59l-9.789-5.652-.944.546Z" transform="translate(-46.021 -77.205)" opacity="0.3" style="mix-blend-mode: overlay;isolation: isolate"/>
      <path id="Path_7881" data-name="Path 7881" d="M708.17,387.48c-.017-.011-.026-.033-.044-.047v-.769c.013.007.027.006.043.016l4.5,2.6a.767.767,0,0,1,.346.6c0,.223-.153.311-.347.2Zm3.054,8.161c.19.111.344.02.345-.2a.753.753,0,0,0-.347-.6l-3.053-1.765c-.016-.008-.03-.007-.045-.016v.77c.016.011.027.035.043.045Zm0-8c.19.11.344.02.344-.2a.767.767,0,0,0-.345-.6l-3.055-1.764a.189.189,0,0,0-.045-.014v.768c.019.011.029.036.045.046Zm0,4.8c.19.11.345.021.345-.2a.769.769,0,0,0-.345-.6l-3.055-1.763a.257.257,0,0,0-.044-.015v.767c.016.012.027.035.044.048Zm0,1.6c.192.109.346.022.346-.2a.774.774,0,0,0-.345-.6l-3.056-1.763c-.016-.007-.029-.008-.044-.015v.768c.016.014.026.037.044.047Zm0-3.2c.19.109.345.02.345-.2a.754.754,0,0,0-.347-.6l-3.052-1.763a.174.174,0,0,0-.044-.016v.768c.017.011.028.035.044.047Zm0-11.2c.191.111.344.021.345-.2a.771.771,0,0,0-.344-.6l-3.056-1.763a.464.464,0,0,0-.044-.015v.767c.017.013.027.038.045.048Zm0,4.8c.192.111.344.021.344-.2a.764.764,0,0,0-.344-.6l-3.055-1.764a.285.285,0,0,0-.044-.016l0,.767c.019.013.03.037.047.048Zm.344-9.8a.77.77,0,0,0-.344-.6l-3.056-1.763c-.016-.008-.031-.009-.046-.015l0,.767c.017.013.026.037.044.049l3.053,1.764C711.415,374.961,711.569,374.87,711.569,374.648Zm1.442,31.219a.77.77,0,0,0-.347-.6l-4.5-2.594a.132.132,0,0,0-.044-.015v.767c.016.013.026.037.044.048l4.5,2.595C712.855,406.179,713.01,406.089,713.011,405.867Zm-1.786-23.021c.19.109.343.021.343-.2a.761.761,0,0,0-.343-.6l-3.056-1.765c-.013-.007-.029-.007-.044-.014v.769c.017.011.027.034.045.044Zm1.441-.766c.188.11.344.021.345-.2a.765.765,0,0,0-.346-.6l-4.5-2.6c-.015-.008-.028-.008-.044-.016v.771c.017.011.027.034.045.043Zm-1.441,3.965c.189.112.344.021.345-.2a.766.766,0,0,0-.345-.6l-3.058-1.764a.134.134,0,0,0-.043-.014v.768c.018.011.03.037.046.047Zm-3.1-16.971v.768c.016.013.026.037.044.047l3.055,1.763c.19.111.345.021.344-.2a.761.761,0,0,0-.344-.6l-3.056-1.764A.212.212,0,0,0,708.126,369.074Zm0,1.6v.766c.016.013.026.037.044.046l4.5,2.6c.192.11.344.021.345-.2a.766.766,0,0,0-.346-.6l-4.5-2.595C708.154,370.678,708.138,370.679,708.124,370.674Zm0-3.2v.765c.018.013.025.037.044.048l3.054,1.765c.191.109.345.02.345-.2a.767.767,0,0,0-.344-.6l-3.055-1.765A.419.419,0,0,0,708.125,367.476Zm0-4.032c.017.013.028.035.045.047l4.494,2.6c.193.11.346.02.346-.2a.764.764,0,0,0-.345-.6l-4.5-2.6c-.017-.008-.03-.009-.045-.016Zm0,2.429v.77c.016.012.025.037.044.048l3.054,1.764c.191.11.348.019.346-.2a.767.767,0,0,0-.345-.6l-3.055-1.764C708.152,365.88,708.141,365.882,708.125,365.873Zm4.539,32.2c.192.11.346.022.346-.2a.758.758,0,0,0-.346-.6l-4.494-2.6c-.016-.01-.03-.009-.045-.017v.77c.017.011.028.034.044.047Zm-4.539-24.2v.767c.017.013.027.037.044.047l3.055,1.764c.19.11.345.018.345-.2a.77.77,0,0,0-.345-.6l-3.054-1.764A.194.194,0,0,0,708.124,373.872Zm3.1,26.564c.192.112.345.022.347-.2a.775.775,0,0,0-.345-.6l-3.056-1.763a.2.2,0,0,0-.044-.017v.769c.016.013.026.037.044.046Zm0-1.6c.192.109.347.021.346-.2a.769.769,0,0,0-.344-.6l-3.055-1.763a.448.448,0,0,0-.047-.016l0,.769c.018.012.027.038.045.046Zm.347-32.187a.767.767,0,0,0-.345-.6l-3.055-1.764c-.016-.008-.029-.008-.044-.016v.769c.016.011.026.037.043.046l3.055,1.765C711.413,366.964,711.568,366.875,711.569,366.653Zm-.345,35.385c.19.111.344.02.345-.2a.758.758,0,0,0-.345-.6l-3.055-1.765a.25.25,0,0,0-.046-.015l0,.768c.016.013.027.037.043.048Zm-3.1-26.567v.768c.017.013.028.037.044.047l3.055,1.764c.188.11.345.022.343-.2a.764.764,0,0,0-.343-.6l-3.056-1.762A.259.259,0,0,0,708.124,375.471Zm3.1,28.168c.194.108.347.018.347-.2a.765.765,0,0,0-.345-.6l-3.054-1.764c-.017-.008-.032-.009-.044-.015v.766c.016.013.027.037.044.048Z" transform="translate(-46.02 -84.749)" fill="#fff" opacity="0.7"/>
    </g>
    <g id="Group_8118" data-name="Group 8118">
      <path id="Path_7882" data-name="Path 7882" d="M1024.047,498.34,922.932,439.958c-2.609-1.5-2.609-3.945,0-5.452l1.676-.973c2.608-1.5,2.606-3.945,0-5.452l-44.42-25.646a10.459,10.459,0,0,0-9.444,0l-1.683.978a10.456,10.456,0,0,1-9.445-.005h0a10.439,10.439,0,0,0-9.442,0l-6.408,3.694-54.313,31.24c-2.605,1.506-2.6,3.945.01,5.454L953.9,538.724a10.458,10.458,0,0,0,9.449,0l54.305-31.235,6.411-3.7C1026.665,502.287,1026.662,499.845,1024.047,498.34Z" transform="translate(-90.459 -106.363)" fill="#1a50b2" opacity="0.15" style="mix-blend-mode: multiply;isolation: isolate"/>
      <path id="Path_7883" data-name="Path 7883" d="M783.9,253.721l0,101.849a10.42,10.42,0,0,0,4.729,8.175l164.434,94.939a3.322,3.322,0,0,0,3.34.33l1.875-1.079,0,0a3.292,3.292,0,0,0,1.4-3.064l.006-101.843-1.89,1.089Z" transform="translate(-88.44 -23.767)" fill="url(#linear-gradient-19)"/>
      <path id="Path_7884" data-name="Path 7884" d="M1177.043,480.32l-.007,101.849a3.315,3.315,0,0,1-1.366,3.045l1.859-1.071,0,0a3.292,3.292,0,0,0,1.4-3.064l.006-101.843Z" transform="translate(-307.698 -149.974)" opacity="0.5" style="mix-blend-mode: overlay;isolation: isolate"/>
      <path id="Path_7885" data-name="Path 7885" d="M785.331,228.182c-.03.017-.059.034-.089.053l-.083.048.009.013a3.364,3.364,0,0,0-1.269,2.957v7.4L957.788,339.047l1.89-1.089v-7.4a10.432,10.432,0,0,0-4.726-8.175L790.515,227.443a3.284,3.284,0,0,0-3.383-.3Z" transform="translate(-88.443 -8.701)" fill="url(#linear-gradient-20)"/>
      <path id="Path_7886" data-name="Path 7886" d="M785.331,228.182c-.03.017-.059.034-.089.053l-.083.048.009.013a3.364,3.364,0,0,0-1.269,2.957v7.4L957.788,339.047l1.89-1.089v-7.4a10.432,10.432,0,0,0-4.726-8.175L790.515,227.443a3.284,3.284,0,0,0-3.383-.3Z" transform="translate(-88.443 -8.701)" style="mix-blend-mode: overlay;isolation: isolate"/>
      <path id="Path_7887" data-name="Path 7887" d="M957.788,340.43v-7.4a10.441,10.441,0,0,0-4.729-8.172L788.624,229.918c-2.612-1.5-4.723-.289-4.725,2.72v7.4Z" transform="translate(-88.443 -10.084)" fill="url(#linear-gradient-21)"/>
      <path id="Path_7888" data-name="Path 7888" d="M888.517,297.019c0,1.767-1.237,2.482-2.773,1.6L802.932,250.8a6.123,6.123,0,0,1-2.772-4.8h0c0-1.77,1.242-2.484,2.775-1.6l82.811,47.811a6.113,6.113,0,0,1,2.771,4.8Zm60.075,33.624c-.505-.291-.918-.054-.916.528a2.015,2.015,0,0,0,.917,1.59c.506.3.922.059.918-.528A2.04,2.04,0,0,0,948.593,330.643Zm6.03,4.537c0,.584-.415.822-.918.531a2.01,2.01,0,0,1-.923-1.592c0-.584.41-.819.919-.525A2.036,2.036,0,0,1,954.623,335.18Zm5.1,2.951c0,.583-.41.819-.918.525a2.01,2.01,0,0,1-.918-1.591c0-.582.41-.816.918-.529A2.054,2.054,0,0,1,959.725,338.131Z" transform="translate(-97.543 -18.342)" fill="#fff"/>
      <path id="Path_7889" data-name="Path 7889" d="M925.247,281.511l0,0a3.288,3.288,0,0,0-1.4,3.057l0,1.945a5.337,5.337,0,0,1-.085.936,5.408,5.408,0,0,1-.859-.4l.846.489c-.433,2.238-2.342,3.012-4.629,1.694l4.725,2.727,53.867,31.1,4.724,2.725.944-.543a10.453,10.453,0,0,1-4.724-8.179v-1.947a10.416,10.416,0,0,0-4.724-8.174L929.521,281.3a3.324,3.324,0,0,0-3.346-.329Z" transform="translate(-164.121 -38.842)" fill="url(#linear-gradient-22)"/>
      <path id="Path_7890" data-name="Path 7890" d="M925.247,281.511l0,0a3.288,3.288,0,0,0-1.4,3.057l0,1.945a5.337,5.337,0,0,1-.085.936,5.408,5.408,0,0,1-.859-.4l.846.489c-.433,2.238-2.342,3.012-4.629,1.694l4.725,2.727,53.867,31.1,4.724,2.725.944-.543a10.453,10.453,0,0,1-4.724-8.179v-1.947a10.416,10.416,0,0,0-4.724-8.174L929.521,281.3a3.324,3.324,0,0,0-3.346-.329Z" transform="translate(-164.121 -38.842)" opacity="0.5" style="mix-blend-mode: overlay;isolation: isolate"/>
      <path id="Path_7891" data-name="Path 7891" d="M977.708,318.311v-1.944a10.424,10.424,0,0,0-4.72-8.177l-44.417-25.646c-2.61-1.506-4.724-.289-4.726,2.721l0,1.945c0,3.01-2.119,4.23-4.728,2.722l4.727,2.729,53.87,31.1,4.721,2.725A10.456,10.456,0,0,1,977.708,318.311Z" transform="translate(-164.119 -39.536)" fill="url(#linear-gradient-23)"/>
      <path id="Path_7892" data-name="Path 7892" d="M971.523,311.63c0,.432-.3.611-.678.393l-27.622-15.947a1.5,1.5,0,0,1-.678-1.176h0c0-.432.3-.613.677-.391l27.623,15.947a1.493,1.493,0,0,1,.678,1.174Zm-9.45-2.317a1.494,1.494,0,0,0-.679-1.175l-18.168-10.494c-.377-.215-.681-.039-.683.395h0a1.5,1.5,0,0,0,.68,1.178L961.394,309.7c.375.223.678.046.679-.388Zm22.034,11.153.929-.536c.265-.151.265-.655,0-1.111s-.7-.708-.963-.557l-.932.533-.927-1.608c-.27-.46-.7-.707-.958-.55s-.271.649,0,1.1l.925,1.61-.93.536c-.264.154-.264.646,0,1.112s.7.7.964.551l.929-.533.931,1.608c.267.463.694.707.96.553s.268-.646,0-1.109Z" transform="translate(-177.229 -46.54)" fill="#fff"/>
      <path id="Path_7893" data-name="Path 7893" d="M861.956,247.671l0-1.945a10.439,10.439,0,0,0-4.726-8.181L812.813,211.9a3.322,3.322,0,0,0-3.347-.328l-.923.533a3.334,3.334,0,0,1,3.325.341l44.413,25.646a10.436,10.436,0,0,1,4.725,8.178v1.947a10.436,10.436,0,0,0,4.728,8.177l.945-.546A10.428,10.428,0,0,1,861.956,247.671Z" transform="translate(-102.235)" fill="url(#linear-gradient-24)"/>
      <path id="Path_7894" data-name="Path 7894" d="M861.956,247.671l0-1.945a10.439,10.439,0,0,0-4.726-8.181L812.813,211.9a3.322,3.322,0,0,0-3.347-.328l-.923.533a3.334,3.334,0,0,1,3.325.341l44.413,25.646a10.436,10.436,0,0,1,4.725,8.178v1.947a10.436,10.436,0,0,0,4.728,8.177l.945-.546A10.428,10.428,0,0,1,861.956,247.671Z" transform="translate(-102.235)" style="mix-blend-mode: overlay;isolation: isolate"/>
      <path id="Path_7895" data-name="Path 7895" d="M853.222,248.91v-1.947a10.436,10.436,0,0,0-4.726-8.178l-44.413-25.646c-2.613-1.5-4.728-.284-4.725,2.726v1.943c0,3.009-2.117,4.227-4.726,2.723l4.725,2.728,53.864,31.1,4.728,2.728A10.436,10.436,0,0,1,853.222,248.91Z" transform="translate(-94.45 -0.694)" fill="url(#linear-gradient-25)"/>
      <path id="Path_7896" data-name="Path 7896" d="M847.032,242.232c0,.434-.3.6-.676.393l-27.622-15.949a1.49,1.49,0,0,1-.68-1.176h0c0-.434.3-.613.681-.392l27.62,15.945a1.505,1.505,0,0,1,.678,1.179Zm-9.448-2.318a1.516,1.516,0,0,0-.682-1.18l-18.168-10.49c-.377-.217-.68-.043-.681.39h0a1.492,1.492,0,0,0,.681,1.177L836.9,240.3c.377.218.681.042.682-.391Zm22.031,11.151.93-.535c.266-.152.262-.652,0-1.11s-.7-.709-.966-.553l-.928.529-.929-1.6c-.263-.46-.7-.708-.962-.559s-.265.652,0,1.114l.929,1.607-.931.535c-.263.151-.264.648,0,1.111s.7.706.962.555l.93-.538.927,1.611c.266.459.7.709.962.556s.268-.654,0-1.113Z" transform="translate(-107.557 -7.7)" fill="#fff"/>
    </g>
    <g id="Group_8117" data-name="Group 8117">
      <path id="Path_7897" data-name="Path 7897" d="M932.735,453.588l-40.358,23.391,75.37,43.514,40.358-23.39Z" transform="translate(-149.151 -135.631)" opacity="0.2" style="mix-blend-mode: overlay;isolation: isolate"/>
      <path id="Path_7898" data-name="Path 7898" d="M966.044,475.663l-30.806-21.738-6.914-3.992-37.649-17.786,0-58.725,1.369-.791,37.651,17.786,6.915,3.992,30.8,21.738,0,58.725Z" transform="translate(-148.196 -90.323)" fill="url(#linear-gradient-26)"/>
      <path id="Path_7899" data-name="Path 7899" d="M966.044,475.663l-30.806-21.738-6.914-3.992-37.649-17.786,0-58.725,1.369-.791,37.651,17.786,6.915,3.992,30.8,21.738,0,58.725Z" transform="translate(-148.196 -90.323)" opacity="0.5" style="mix-blend-mode: overlay;isolation: isolate"/>
      <path id="Path_7900" data-name="Path 7900" d="M935.238,454.929l-6.914-3.992-37.649-17.786,0-58.725,37.651,17.784,6.915,3.992,30.8,21.738,0,58.727Z" transform="translate(-148.196 -91.328)" fill="url(#linear-gradient-27)"/>
      <path id="Path_7901" data-name="Path 7901" d="M895.383,436.51V382.518l35.577,16.589,6.918,3.994,28.728,20.54v53.989l-28.731-20.54-6.912-3.992Z" transform="translate(-150.832 -95.857)" opacity="0.5" style="mix-blend-mode: overlay;isolation: isolate"/>
      <path id="Path_7902" data-name="Path 7902" d="M976.175,473.54V414.813l6.915,3.992v58.727Z" transform="translate(-196.048 -113.93)" fill="url(#linear-gradient-28)"/>
      <path id="Path_7903" data-name="Path 7903" d="M983.089,424.183l-6.915-3.992v53.991l6.916,3.99Z" transform="translate(-196.048 -116.94)" fill="url(#linear-gradient-29)"/>
      <path id="Path_7904" data-name="Path 7904" d="M904.207,450.361c-7.379-3.579-12.906-7.686-16.076-11.575V384.8l3.422-1.978c3.173,3.892,8.7,8,16.078,11.575a82,82,0,0,0,22.508,7.138v53.989l-3.423,1.976A82.094,82.094,0,0,1,904.207,450.361Z" transform="translate(-146.774 -96.025)" fill="url(#linear-gradient-30)"/>
      <path id="Path_7905" data-name="Path 7905" d="M888.131,387.31c3.171,3.892,8.7,8,16.076,11.576a82.086,82.086,0,0,0,22.508,7.136v53.989a82.1,82.1,0,0,1-22.508-7.136c-7.379-3.579-12.906-7.686-16.076-11.575Z" transform="translate(-146.774 -98.538)" opacity="0.5" style="mix-blend-mode: overlay;isolation: isolate"/>
      <path id="Path_7906" data-name="Path 7906" d="M988.112,494.274c-6.2-4.256-10.407-8.85-12.359-12.993V427.292l3.423-1.976,1.463,2.532a40.479,40.479,0,0,0,10.9,10.461,67.365,67.365,0,0,0,20.048,9.284v53.989l-3.424,1.975A67.237,67.237,0,0,1,988.112,494.274Z" transform="translate(-195.812 -119.809)" fill="url(#linear-gradient-31)"/>
      <path id="Path_7907" data-name="Path 7907" d="M1049.351,531.871v-53.99l3.422-1.975V529.9Z" transform="translate(-237.001 -148.122)" style="mix-blend-mode: overlay;isolation: isolate"/>
      <path id="Path_7908" data-name="Path 7908" d="M975.753,429.8c1.953,4.144,6.163,8.737,12.359,12.993a67.333,67.333,0,0,0,20.05,9.283v53.99a67.237,67.237,0,0,1-20.05-9.284c-6.2-4.256-10.407-8.85-12.359-12.993Z" transform="translate(-195.812 -122.32)" opacity="0.5" style="mix-blend-mode: overlay;isolation: isolate"/>
      <path id="Path_7909" data-name="Path 7909" d="M877.279,396.227c4.244,3.54,10.866,7.067,19.155,9.894a93.8,93.8,0,0,0,24.208,4.891V465a93.754,93.754,0,0,1-24.205-4.891c-8.293-2.827-14.915-6.354-19.156-9.894Z" transform="translate(-140.701 -103.529)" fill="url(#linear-gradient-32)"/>
      <path id="Path_7910" data-name="Path 7910" d="M900.124,463.445a94.308,94.308,0,0,0,21.16,4.591v.795a95.088,95.088,0,0,1-21.415-4.635,65.37,65.37,0,0,1-17.2-8.483v-.978C886.858,457.942,893.042,461.033,900.124,463.445Zm21.161-1.76v-.795a95.1,95.1,0,0,1-21.342-4.621,64.573,64.573,0,0,1-17.275-8.553v.967a66.439,66.439,0,0,0,17.019,8.334A95.577,95.577,0,0,0,921.285,461.685Zm0,3.572,0-.793a94.6,94.6,0,0,1-21.254-4.608c-7.017-2.389-13.166-5.454-17.366-8.634l0,.976a65.791,65.791,0,0,0,17.109,8.406A95.192,95.192,0,0,0,921.285,465.257Zm0-14.291v-.8a95.841,95.841,0,0,1-21.616-4.669,66.543,66.543,0,0,1-17-8.315l0,.961a67.367,67.367,0,0,0,16.746,8.1A96.474,96.474,0,0,0,921.284,450.966Zm0,3.572v-.795a95.437,95.437,0,0,1-21.527-4.653,65.866,65.866,0,0,1-17.092-8.4v.965a67.775,67.775,0,0,0,16.837,8.18A96.2,96.2,0,0,0,921.286,454.538Zm0,3.575v-.8a95.153,95.153,0,0,1-21.433-4.638,65.226,65.226,0,0,1-17.184-8.475v.965a67.079,67.079,0,0,0,16.929,8.257A95.98,95.98,0,0,0,921.284,458.113Zm0-10.719,0-.795a95.953,95.953,0,0,1-21.708-4.687,66.255,66.255,0,0,1-16.91-8.234v.955a68.066,68.066,0,0,0,16.656,8.028A96.757,96.757,0,0,0,921.287,447.394Zm0-21.439,0-.795a97.531,97.531,0,0,1-22.257-4.783,71.438,71.438,0,0,1-16.364-7.763l0,.941a73.037,73.037,0,0,0,16.108,7.57A98.365,98.365,0,0,0,921.285,425.955Zm0,10.719,0-.793a96.646,96.646,0,0,1-21.981-4.738,68.644,68.644,0,0,1-16.637-8v.947a70.278,70.278,0,0,0,16.382,7.8A97.451,97.451,0,0,0,921.286,436.674Zm0,3.574v-.795a96.347,96.347,0,0,1-21.889-4.721,67.886,67.886,0,0,1-16.729-8.077v.952a69.676,69.676,0,0,0,16.474,7.876A97.437,97.437,0,0,0,921.284,440.249Zm0-7.147v-.795a97.178,97.178,0,0,1-22.073-4.75,69.593,69.593,0,0,1-16.546-7.921v.949a71.416,71.416,0,0,0,16.291,7.72A97.988,97.988,0,0,0,921.286,433.1Zm0-3.572v-.795a97.377,97.377,0,0,1-22.163-4.77,70.352,70.352,0,0,1-16.453-7.839v.944a72.141,72.141,0,0,0,16.2,7.645A98.268,98.268,0,0,0,921.284,429.53Zm0,14.29v-.8a95.97,95.97,0,0,1-21.8-4.7,67.005,67.005,0,0,1-16.818-8.157v.955a68.83,68.83,0,0,0,16.564,7.95A96.908,96.908,0,0,0,921.285,443.82Z" transform="translate(-143.716 -112.701)" fill="url(#linear-gradient-33)"/>
      <path id="Path_7911" data-name="Path 7911" d="M975.753,429.8c.737,4.263,3.577,9.189,8.472,13.976a53.15,53.15,0,0,0,17.136,11.056v53.992a53.163,53.163,0,0,1-17.137-11.059c-4.9-4.786-7.734-9.711-8.472-13.976Z" transform="translate(-195.812 -122.32)" fill="url(#linear-gradient-34)"/>
      <path id="Path_7912" data-name="Path 7912" d="M981.137,485.387V483.45a28.1,28.1,0,0,0,6.692,9.5,52.434,52.434,0,0,0,14.174,9.7l0,.871a53.2,53.2,0,0,1-14.723-10A31.091,31.091,0,0,1,981.137,485.387Zm6.3,11.825A53.108,53.108,0,0,0,1002,507.13v-.876a52.154,52.154,0,0,1-14.014-9.606,28.033,28.033,0,0,1-6.851-9.841V488.8A31.113,31.113,0,0,0,987.435,497.212Zm-.315-7.392A53.59,53.59,0,0,0,1002,499.913v-.875a52.658,52.658,0,0,1-14.33-9.781,28.34,28.34,0,0,1-6.533-9.161v1.883A31.28,31.28,0,0,0,987.119,489.82Zm-.16-3.694A53.786,53.786,0,0,0,1002,496.3v-.872a52.942,52.942,0,0,1-14.489-9.87,28.278,28.278,0,0,1-6.375-8.811v1.835A31.075,31.075,0,0,0,986.96,486.126Zm.791,18.475A52.662,52.662,0,0,0,1002,514.344l0-.876a51.661,51.661,0,0,1-13.7-9.431,27.952,27.952,0,0,1-7.166-10.5v2.095A31.242,31.242,0,0,0,987.75,504.6Zm-.156-3.694a52.838,52.838,0,0,0,14.408,9.83v-.876a52.024,52.024,0,0,1-13.858-9.52,27.972,27.972,0,0,1-7.008-10.173v2.044A31.08,31.08,0,0,0,987.594,500.908Zm-6.458-2.257c.053.275.137.559.21.838a31.981,31.981,0,0,0,6.561,8.809,51.649,51.649,0,0,0,14.1,9.655v-.876a51.481,51.481,0,0,1-13.542-9.344c-3.66-3.579-6.212-7.368-7.325-10.839Zm5.035-31A54.969,54.969,0,0,0,1002,478.26l0-.868a54.055,54.055,0,0,1-15.278-10.3,32.744,32.744,0,0,1-5.588-7.027v1.516A35.176,35.176,0,0,0,986.171,467.655Zm.632,14.779a53.945,53.945,0,0,0,15.2,10.261v-.87a53.108,53.108,0,0,1-14.646-9.958,28.775,28.775,0,0,1-6.218-8.46v1.773A31.524,31.524,0,0,0,986.8,482.433Zm-.474-11.085A54.685,54.685,0,0,0,1002,481.87V481a53.808,53.808,0,0,1-15.12-10.218,31.589,31.589,0,0,1-5.745-7.39v1.584A34.024,34.024,0,0,0,986.33,471.348Zm-.315-7.388A55.192,55.192,0,0,0,1002,474.651v-.867a54.249,54.249,0,0,1-15.434-10.392,35.135,35.135,0,0,1-5.431-6.659l0,1.458A37.77,37.77,0,0,0,986.015,463.96Zm.472,11.084A54.4,54.4,0,0,0,1002,485.477l0-.869a53.562,53.562,0,0,1-14.961-10.131,30.4,30.4,0,0,1-5.905-7.749v1.647A32.969,32.969,0,0,0,986.487,475.044Zm.156,3.7A54.322,54.322,0,0,0,1002,489.088v-.87a53.393,53.393,0,0,1-14.8-10.045,29.462,29.462,0,0,1-6.06-8.108v1.713A32.115,32.115,0,0,0,986.644,478.74Z" transform="translate(-198.824 -137.392)" fill="url(#linear-gradient-35)"/>
    </g>
    <g id="Group_8116" data-name="Group 8116">
      <path id="Path_7913" data-name="Path 7913" d="M859.442,803.025c-4.092-5.456-12.464-7.36-10.42-11.149,1.4-3.7,10.526-7.5,18.166-8.578,7.9-1.093,10.944,4.4,17.916,3.539,8.523-1.055,14.823,5.921,18.8,9.3,8.892,6.724-6.544,17.516-15.336,14.574C879.04,807.527,866.535,812.437,859.442,803.025Z" transform="translate(-124.707 -320.086)" fill="#1a50b2" opacity="0.15" style="mix-blend-mode: multiply;isolation: isolate"/>
      <path id="Path_7914" data-name="Path 7914" d="M941.432,514.262s2.1-4.227,3.375-4.591,4.953-1.082,6.935-1.647,2.852.2,3.357-.7-1.719-1.833-3.3-1.384-1.841-.092-2.081-.931,3.862-6.329,2.739-6.951-2.474,2.99-3.661,3.329c-.671.192-.882-.548-1.453-.386s-.462.376-.707.444-.173-.094-.622.031-.5.457-.677.508-.306.017-.575.092a5.611,5.611,0,0,0-2.077,2.067c-.622,1.123-2.052,2.3-3.08,3.709a6.717,6.717,0,0,0-.66,5.417C939.438,514.989,940.679,515.622,941.432,514.262Z" transform="translate(-175.054 -160.489)" fill="#f7b6b2"/>
      <path id="Path_7915" data-name="Path 7915" d="M941.841,514.27s2.1-4.227,3.375-4.591,4.953-1.082,6.935-1.647,2.852.2,3.357-.7-1.719-1.833-3.3-1.384-1.841-.092-2.081-.931,3.862-6.329,2.739-6.95A.529.529,0,0,0,952.6,498c-1.083,1.984-3.331,6.134-5.36,7.145-2.31,1.149-4.186,1.99-6.572,6.1-.48.834-.908,1.544-1.274,2.153C939.914,515.02,941.105,515.593,941.841,514.27Z" transform="translate(-175.463 -160.497)" opacity="0.3" style="mix-blend-mode: overlay;isolation: isolate"/>
      <path id="Path_7916" data-name="Path 7916" d="M928.08,515.017a2.623,2.623,0,0,0-3.453-.246l-9.5,7.149a1.845,1.845,0,0,1-1.811.241l-2.879-1.11v11.643a8.565,8.565,0,0,0,7.539-2.085l9.951-8.89A4.662,4.662,0,0,0,928.08,515.017Z" transform="translate(-159.255 -169.586)" fill="url(#linear-gradient-36)"/>
      <path id="Path_7917" data-name="Path 7917" d="M929.062,519.4c-3,1.525-4.042,2.706-7.206,5.326-3.468,2.869-7.253.83-9.284.039l-2.135-.823v11.643a8.565,8.565,0,0,0,7.539-2.085l9.951-8.89A4.652,4.652,0,0,0,929.062,519.4Z" transform="translate(-159.255 -172.474)" opacity="0.2" style="mix-blend-mode: overlay;isolation: isolate"/>
      <path id="Path_7918" data-name="Path 7918" d="M878.86,804.691h0a3.541,3.541,0,0,0,3.529-3.532V789.747a3.531,3.531,0,0,0-7.061,0v11.411A3.542,3.542,0,0,0,878.86,804.691Z" transform="translate(-139.606 -321.801)" fill="url(#linear-gradient-37)"/>
      <path id="Path_7919" data-name="Path 7919" d="M887.83,795.859v10.7A3.539,3.539,0,0,1,885.049,810V799.3A3.54,3.54,0,0,1,887.83,795.859Z" transform="translate(-145.046 -327.196)" opacity="0.3" style="mix-blend-mode: overlay;isolation: isolate"/>
      <path id="Path_7920" data-name="Path 7920" d="M878.9,823.014a3.99,3.99,0,0,0,3.5-2.106,3.511,3.511,0,0,1-6.993,0A4,4,0,0,0,878.9,823.014Z" transform="translate(-139.65 -341.215)" opacity="0.3" style="mix-blend-mode: overlay;isolation: isolate"/>
      <path id="Path_7921" data-name="Path 7921" d="M878.86,786.218a3.54,3.54,0,0,1,3.529,3.529v7.507a4.164,4.164,0,0,1-3.256,1.643,4.724,4.724,0,0,1-3.8-1.848v-7.3A3.542,3.542,0,0,1,878.86,786.218Z" transform="translate(-139.606 -321.801)" opacity="0.3" style="mix-blend-mode: overlay;isolation: isolate"/>
      <path id="Path_7922" data-name="Path 7922" d="M924.58,811.153s-2.966,7.454-.273,8.9,5.074-.118,8.079-1.326,7.881-3.512,8.82-3.943,3.163-1.62,2.847-4.135-4.254-2.615-9.443-1.365S924.58,811.153,924.58,811.153Z" transform="translate(-166.385 -334.271)" fill="url(#linear-gradient-37)"/>
      <path id="Path_7923" data-name="Path 7923" d="M932.69,811.609l.058,1.7a4.166,4.166,0,0,1-3.417,4.333,4.746,4.746,0,0,1-4.869-2.151,26.371,26.371,0,0,1,.837-2.6S928.611,812.464,932.69,811.609Z" transform="translate(-167.104 -336.011)" opacity="0.3" style="mix-blend-mode: overlay;isolation: isolate"/>
      <path id="Path_7924" data-name="Path 7924" d="M935.169,811.782s.527-.675,1.4-1.643c1.243-.243,2.592-.528,3.967-.859,5.189-1.249,9.133-1.134,9.443,1.365s-1.912,3.706-2.847,4.135-5.815,2.732-8.82,3.943c-1.4.563-2.665,1.2-3.887,1.575C932.6,818.249,935.169,811.782,935.169,811.782Z" transform="translate(-172.313 -334.271)" opacity="0.3" style="mix-blend-mode: overlay;isolation: isolate"/>
      <path id="Path_7925" data-name="Path 7925" d="M924.317,822.229c2.693,1.443,5.074-.118,8.079-1.326s7.881-3.513,8.82-3.943c.816-.372,2.609-1.328,2.849-3.231.2,2.4-1.935,3.558-2.849,3.978-.938.431-5.815,2.732-8.82,3.943s-5.387,2.769-8.079,1.326c-.933-.5-1.178-1.724-1.112-3.106A2.627,2.627,0,0,0,924.317,822.229Z" transform="translate(-166.395 -337.197)" opacity="0.3" style="mix-blend-mode: overlay;isolation: isolate"/>
      <path id="Path_7926" data-name="Path 7926" d="M871.089,630.023l.857,75.665a4.747,4.747,0,0,0,4.815,4.7,4.166,4.166,0,0,0,4.084-3.71l9.576-73.336Z" transform="translate(-137.234 -234.386)" fill="url(#linear-gradient-37)"/>
      <path id="Path_7927" data-name="Path 7927" d="M888.7,652.872a13.253,13.253,0,0,1-1-5.077,12.869,12.869,0,0,1,1.976-6.959l.5-6.147,7.362,1.266-.077.594c4.847.339,8.694,5.237,8.694,11.245,0,6.228-4.131,11.278-9.228,11.278a7.637,7.637,0,0,1-2.357-.387l-6.609,50.606a4.166,4.166,0,0,1-4.084,3.71c-.024,0-.047-.006-.07-.006Z" transform="translate(-144.352 -236.998)" opacity="0.2" style="mix-blend-mode: overlay;isolation: isolate"/>
      <path id="Path_7928" data-name="Path 7928" d="M891.069,641.3a13.1,13.1,0,0,1,1.415-5.981l-.72-4.318,4.751.019a7.668,7.668,0,0,1,7.62.032l7.245.032,2.68,79.5a4.165,4.165,0,0,1-3.417,4.333,4.746,4.746,0,0,1-5.525-3.842l-10.095-60.534A12.142,12.142,0,0,1,891.069,641.3Z" transform="translate(-148.415 -234.386)" fill="url(#linear-gradient-37)"/>
      <path id="Path_7929" data-name="Path 7929" d="M911.413,715.291l-6.093-79.317-11.974.465-.7-4.192,19.616.083,2.68,79.5a4.165,4.165,0,0,1-3.417,4.333c-.042.009-.085,0-.127.011A4.323,4.323,0,0,0,911.413,715.291Z" transform="translate(-149.299 -235.63)" opacity="0.2" style="mix-blend-mode: overlay;isolation: isolate"/>
      <path id="Path_7930" data-name="Path 7930" d="M882.328,631.64c2.767-5.559,8.932.066,16.1.066a23.86,23.86,0,0,1,2.609.143l.1,1.2c-.62,2.721-3.113,4.665-6.231,5.353-5.837,1.292-19.835-.582-23.789-6.121l-.029-2.728Z" transform="translate(-137.234 -233.918)" opacity="0.3" style="mix-blend-mode: overlay;isolation: isolate"/>
      <path id="Path_7931" data-name="Path 7931" d="M894.373,499.594c-.491,3.024.089,9.4,3.058,10.627s-3.485,2.994-6.155,2.794-12.151-2.138-10.815-4.075.009-2.56,1.134-2.47S885,504,885.133,495.655,894.9,496.329,894.373,499.594Z" transform="translate(-142.406 -157.258)" fill="#f7b6b2"/>
      <path id="Path_7932" data-name="Path 7932" d="M899.843,469.7c3.14,0,3.316-.42,5.094,2.17.641.936,1.411,3.333,1.029,4.606-.761,2.536.82,3.934.675,6.245-.2,3.2-1.119,11.223-11.45,5.2-5.1-2.966,2.27-4.5,4.239-8.327C901.332,475.911,897.824,469.7,899.843,469.7Z" transform="translate(-149.735 -144.646)" fill="#f7b6b2"/>
      <path id="Path_7933" data-name="Path 7933" d="M906.567,484.88c0-.024.008-.047.01-.072a19.466,19.466,0,0,0,.232-2.089c.009-.111-.006-.211-.006-.318l0,0c-.007-1.52-.71-2.671-.845-4.09,0-.045-.015-.085-.017-.13a4.764,4.764,0,0,1,.008-.6c0-.077,0-.147.007-.224a4.914,4.914,0,0,1,.179-.885c.382-1.273-.388-3.67-1.029-4.606-1.778-2.59-1.954-2.17-5.094-2.17-2.019,0,1.49,6.213-.412,9.9a4.824,4.824,0,0,1-.462.714c-.077.107-.154.209-.239.311a.049.049,0,0,1-.011.013,8.6,8.6,0,0,1-.578.64h0l-.038-.031a10.967,10.967,0,0,0-.9-.669l-.028-.019a7.593,7.593,0,0,0-.953-.537v0c.187,1.88.326,3.544.372,4.941.149,4.463.759,10.378-3.033,14.555.249.06.5.115.742.17a.218.218,0,0,1,.038.009c.215.048.428.093.639.138.028.007.055.013.084.017h0c.21.045.417.083.624.123.059.014.118.023.177.034.189.034.377.07.558.1l.049.008c.191.034.377.064.556.092.048.009.1.015.147.022.152.023.3.044.437.063a.7.7,0,0,0,.075.011c.147.021.281.037.409.053l.06.006.077.007c.135.015.262.028.373.037,2.67.2,9.122-1.567,6.155-2.794a2.724,2.724,0,0,1-.42-.22c-.028-.017-.053-.038-.081-.058a2.88,2.88,0,0,1-.313-.239c-.021-.018-.042-.04-.063-.059a3.885,3.885,0,0,1-.307-.311l-.034-.041a4.759,4.759,0,0,1-.308-.4l0,0a.36.36,0,0,0-.034-.049c-.034-.054-.07-.1-.1-.156l-.009-.013a.1.1,0,0,0-.012-.021,5.973,5.973,0,0,1-.287-.531c-.026-.049-.049-.1-.075-.151-.074-.162-.147-.328-.212-.5-.018-.042-.035-.083-.052-.126-.078-.211-.153-.43-.221-.654-.014-.045-.026-.089-.039-.134-.053-.183-.1-.371-.149-.56-.016-.067-.032-.133-.049-.2-.044-.2-.089-.41-.127-.617,0-.031-.013-.061-.017-.093-.045-.243-.081-.488-.115-.733-.006-.049-.012-.1-.018-.149-.026-.205-.049-.411-.068-.616,0-.046-.009-.1-.013-.143-.021-.247-.041-.494-.051-.735h0v0a.177.177,0,0,1,.053,0C905.025,490.008,906.144,487.249,906.567,484.88Z" transform="translate(-149.903 -144.646)" opacity="0.15" style="mix-blend-mode: overlay;isolation: isolate"/>
      <path id="Path_7934" data-name="Path 7934" d="M914.8,484.882c0-.024.008-.047.01-.072a19.433,19.433,0,0,0,.232-2.089c.009-.111-.006-.211-.006-.318l0,0a9.2,9.2,0,0,0-.524-2.6,5.679,5.679,0,0,1-.257-2.764v-.007a3.475,3.475,0,0,1,.114-.554c.382-1.273-.388-3.67-1.03-4.606-.154-.222-.29-.415-.424-.6-.027-.039-.055-.074-.081-.111-.135-.179-.26-.339-.377-.478l0,0a4.239,4.239,0,0,0-.341-.358c-.015-.012-.028-.028-.043-.04a2.465,2.465,0,0,0-.333-.258.065.065,0,0,0-.017-.009,1.768,1.768,0,0,0-.332-.166l-.03-.013a2.313,2.313,0,0,0-.369-.1l-.01,0-.034,0a3.875,3.875,0,0,0-.412-.045.1.1,0,0,1-.021,0h0c-.162-.007-.335-.009-.527-.009a5.894,5.894,0,0,1,1.169,1.374c1.259,2.3,2.446,3.739,2.045,6.143s1.664,4.271.077,8.01-4.958,1.067-4.832,3.693a85.068,85.068,0,0,0,.957,11.346l.026,0c.1-.017.2-.036.3-.053.077-.013.152-.028.228-.043.017,0,.034-.006.049-.011.121-.024.243-.049.362-.075l.264-.059c.2-.047.4-.1.6-.152.1-.028.2-.053.29-.081s.179-.057.268-.087.19-.062.281-.092.169-.06.249-.092c.1-.038.2-.077.294-.118.062-.025.128-.051.185-.079.131-.057.246-.115.354-.174.017-.009.039-.017.053-.026l.077-.049c.017-.009.027-.019.045-.029a2.469,2.469,0,0,0,.213-.145c.032-.024.059-.048.088-.073a1.168,1.168,0,0,0,.159-.164c.017-.021.036-.04.051-.062a.769.769,0,0,0,.041-.106.436.436,0,0,0,.047-.126v-.012a.436.436,0,0,0-.04-.156c-.008-.019-.007-.038-.017-.057a.459.459,0,0,0-.041-.06,1.032,1.032,0,0,0-.127-.128c-.018-.013-.026-.026-.044-.04s-.051-.043-.081-.064a2.42,2.42,0,0,0-.411-.215,2.728,2.728,0,0,1-.42-.22c-.028-.017-.053-.038-.082-.058a2.907,2.907,0,0,1-.313-.239c-.021-.019-.042-.04-.063-.059a3.853,3.853,0,0,1-.307-.311l-.034-.041a4.748,4.748,0,0,1-.308-.4l0,0a.355.355,0,0,0-.034-.049c-.034-.054-.07-.1-.1-.156l-.009-.013a.106.106,0,0,0-.012-.021,6,6,0,0,1-.287-.531c-.026-.049-.049-.1-.075-.151-.074-.162-.147-.328-.212-.5-.018-.042-.035-.083-.052-.126-.078-.211-.153-.43-.221-.654-.014-.045-.026-.089-.039-.134-.053-.183-.1-.371-.149-.56-.016-.067-.032-.133-.049-.2-.044-.2-.089-.41-.127-.617,0-.031-.013-.061-.017-.093-.045-.243-.081-.488-.115-.733-.006-.049-.012-.1-.018-.149-.026-.205-.049-.411-.068-.616,0-.046-.009-.1-.013-.143-.021-.247-.041-.494-.051-.735h0v0a.186.186,0,0,1,.053,0C913.256,490.011,914.375,487.252,914.8,484.882Z" transform="translate(-158.133 -144.648)" opacity="0.15" style="mix-blend-mode: overlay;isolation: isolate"/>
      <path id="Path_7935" data-name="Path 7935" d="M889.459,464.45c-5.814,0-10.887,2-10.887,9.746s3.935,7.592,4.339,9.76c.71,3.8,6.23,2.389,6.765.251s.4-5.312,1.845-6.006c2.551-1.223,1.354,1.9,2.421,1.763s-.584-2.474.78-3.783c2-1.919.644-4.425.823-5.474a2.642,2.642,0,0,1,1.032-1.318C898.162,468.163,895.4,464.45,889.459,464.45Z" transform="translate(-141.421 -141.723)" fill="url(#linear-gradient-37)"/>
      <path id="Path_7936" data-name="Path 7936" d="M897.52,469.39a2.642,2.642,0,0,0-1.032,1.318c-.179,1.049,1.177,3.555-.823,5.474-1.364,1.308.288,3.651-.78,3.783s.13-2.986-2.421-1.763c-1.447.695-1.313,3.871-1.845,6.006s-6.055,3.554-6.765-.251c-.293-1.571-2.438-1.938-3.6-4.964,1.978,3.837,7.66,4.92,8.483,1.042,1.539-7.255-.9-6.637,4.523-12.064,1.541-1.539-2.314-3.007-5.78-3.318a20.389,20.389,0,0,1,2.92-.2C896.346,464.45,899.1,468.163,897.52,469.39Z" transform="translate(-142.364 -141.723)" opacity="0.2" style="mix-blend-mode: overlay;isolation: isolate"/>
      <path id="Path_7937" data-name="Path 7937" d="M860.416,534.862c0-4.265,1.025-7.027,2.843-8.568,4.659-3.947,16-.475,21.293,1.289,4.619,1.539,9.043,3.624,10.715,6.164l.025,24.894.024,13.377c.006,3.423-2.773,5.9-6.383,6.7-6.833,1.511-24.852-1.309-24.852-9.272.738-4.986,2.6-12.043-.283-20.518C861.708,542.78,860.416,538.18,860.416,534.862Z" transform="translate(-131.26 -175.319)" fill="url(#linear-gradient-36)"/>
      <path id="Path_7938" data-name="Path 7938" d="M989.845,508.693a39.526,39.526,0,0,0,3.519-3.244c.58-.577.158-1.748.158-2.841s.593-1.809.593-2.654-1.235-1.856-.874-2.215c.7-.7,1.622.467,1.622.467a22.094,22.094,0,0,0,.407-3.528c0-1.5.063-2.591.375-2.9s.842,0,.842,0-.124-1.375.718-1.375.812,1.281.812,1.281a.96.96,0,0,1,1.062.9,14.135,14.135,0,0,1,.217,1.688,1.548,1.548,0,0,1,1,1.345,40.879,40.879,0,0,0,.34,4.619,7.392,7.392,0,0,1-.34,4.122c-.595,1.716-.815,3-1.782,3.434s-2.749,3.044-3.493,4.348-2.936.507-3.961-.281S988.869,509.412,989.845,508.693Z" transform="translate(-203.49 -156.247)" fill="#f7b6b2"/>
      <path id="Path_7939" data-name="Path 7939" d="M997.308,517.185c.744-1.3,2.528-3.911,3.493-4.348s1.188-1.718,1.782-3.434a7.393,7.393,0,0,0,.34-4.122,40.8,40.8,0,0,1-.34-4.619,1.527,1.527,0,0,0-.8-1.246c.141,2.9.708,9.936-1.005,11.571s-4.771,2.393-7.217,6.062C994.648,517.78,996.609,518.409,997.308,517.185Z" transform="translate(-205.776 -161.291)" opacity="0.3" style="mix-blend-mode: overlay;isolation: isolate"/>
      <path id="Path_7940" data-name="Path 7940" d="M923.061,524.39a2.621,2.621,0,0,0-3.429.473l-7.821,8.956a1.847,1.847,0,0,1-1.722.609l-10.6-1.713a43.7,43.7,0,0,1-9.393-3.277,5.553,5.553,0,0,0-.646-.219,46.081,46.081,0,0,0-4.9-1.931c-5.288-1.764-16.633-5.236-21.293-1.289-1.818,1.541-2.843,4.3-2.843,8.568,0,3.318,1.292,7.918,3.383,14.064,2.883,8.475,1.021,15.532.283,20.517,0,7.962,18.019,10.782,24.852,9.272,3.159-.7,5.681-2.682,6.26-5.459.558-1.662.251-5.339.251-8.214,0-3.337.3-7.013.637-10.67.467-5.183,2.014-10.258,6.925-9.67.068.008.133.006.2.011l4.573.776a8.58,8.58,0,0,0,8.615-3.461l7.9-10.753A4.663,4.663,0,0,0,923.061,524.39Z" transform="translate(-131.26 -175.025)" fill="url(#linear-gradient-36)"/>
      <path id="Path_7941" data-name="Path 7941" d="M926.046,525.94c-2.623,2.115-3.4,3.485-5.951,6.7-2.8,3.523-6.926,2.309-9.075,1.954l-9.816-1.588a43.712,43.712,0,0,1-9.387-3.274,5.547,5.547,0,0,0-.646-.219,46.111,46.111,0,0,0-4.9-1.931c-5.288-1.764-16.633-5.236-21.293-1.289a6.6,6.6,0,0,0-1.492,1.893c4.781-3.677,15.859-.3,21.072,1.443a44.043,44.043,0,0,1,5.571,2.246,1.88,1.88,0,0,1,1.01.965s0,0,0,0c.489,1.118-.171,2.8-.992,4.537-.064.1-.118.219-.177.328-.113.2-.228.393-.332.608-.007.015-.012.032-.02.047-.15.315-.292.644-.424.991v0c-2.2,5.845-1.694,15.594-.277,19.764,2.751,8.087,1.183,14.882.391,19.818h0a13.587,13.587,0,0,0,1.347-.223c3.16-.7,5.681-2.682,6.26-5.459.558-1.662.251-5.339.251-8.214,0-3.337.3-7.013.637-10.67.467-5.183,2.014-10.258,6.925-9.67.068.008.133.006.2.011l4.573.776a8.58,8.58,0,0,0,8.615-3.462l7.9-10.753A4.656,4.656,0,0,0,926.046,525.94Z" transform="translate(-132.978 -175.319)" opacity="0.2" style="mix-blend-mode: overlay;isolation: isolate"/>
      <path id="Path_7942" data-name="Path 7942" d="M885.38,517.449c-.6,1.145-1.631,2.718-2.621,3.1.17,3.852,10.205,5.535,15.723,3.543a9.2,9.2,0,0,1-2.5-4.7C890.511,521.058,885.513,518.6,885.38,517.449Z" transform="translate(-143.765 -171.384)" fill="url(#linear-gradient-44)"/>
    </g>
    <g id="Group_8115" data-name="Group 8115">
      <path id="Path_7943" data-name="Path 7943" d="M1350.61,607.817c-8.231-4.752-18.7-6.443-23.681-3.873l-.012-.008-29.078,9.865a12.416,12.416,0,0,0-2.792,1.149c-6.847,3.953-2.824,12.693,8.972,19.565l-6.144,3.582c-6.473-2.812-15.7-2.532-21.584.867l-5.036,2.728c-6.447,3.721-6.437,9.758.016,13.487s16.912,3.731,23.359.009l5.012-2.715c.008-.005.018-.007.023-.011,5.882-3.4,6.376-8.718,1.519-12.453l6.288-3.666c11.322,5.522,24.52,7.171,30.785,3.554a7.572,7.572,0,0,0,1.988-1.613l17.089-16.788-.013-.006C1361.772,618.618,1358.845,612.571,1350.61,607.817Z" transform="translate(-358.503 -219.115)" fill="#1a50b2" opacity="0.15" style="mix-blend-mode: multiply;isolation: isolate"/>
      <path id="Path_7944" data-name="Path 7944" d="M1282.943,679.315c-9.122,0-16.518,4.269-16.518,9.539v2.437c0,5.266,7.4,9.538,16.518,9.538s16.522-4.271,16.522-9.538v-2.437C1299.465,683.584,1292.068,679.315,1282.943,679.315Z" transform="translate(-358.503 -261.966)" fill="url(#linear-gradient-45)"/>
      <path id="Path_7945" data-name="Path 7945" d="M1282.943,710.518c-9.122,0-16.518-4.272-16.518-9.54v2.437c0,5.266,7.4,9.538,16.518,9.538s16.522-4.271,16.522-9.538v-2.437C1299.465,706.245,1292.068,710.518,1282.943,710.518Z" transform="translate(-358.503 -274.09)" opacity="0.4" style="mix-blend-mode: overlay;isolation: isolate"/>
      <path id="Path_7946" data-name="Path 7946" d="M1284.25,674.257c-8.554,0-15.491,4-15.491,8.948v2.285c0,4.938,6.936,8.945,15.491,8.945s15.494-4.007,15.494-8.945V683.2C1299.744,678.262,1292.808,674.257,1284.25,674.257Z" transform="translate(-359.809 -259.135)" fill="url(#linear-gradient-45)"/>
      <path id="Path_7947" data-name="Path 7947" d="M1284.25,703.522c-8.554,0-15.491-4.006-15.491-8.945v2.284c0,4.938,6.936,8.945,15.491,8.945s15.494-4.007,15.494-8.945v-2.284C1299.744,699.516,1292.808,703.522,1284.25,703.522Z" transform="translate(-359.809 -270.507)" opacity="0.4" style="mix-blend-mode: overlay;isolation: isolate"/>
      <path id="Path_7948" data-name="Path 7948" d="M1299.287,686.014a3.654,3.654,0,0,0,3.31,0l10.623-6.2a15.183,15.183,0,0,0-3.378-1.872l-10.556,6.155A1.01,1.01,0,0,0,1299.287,686.014Z" transform="translate(-376.511 -261.2)" opacity="0.2" style="mix-blend-mode: overlay;isolation: isolate"/>
      <path id="Path_7949" data-name="Path 7949" d="M1303.3,628.165a1.156,1.156,0,0,0-.688-.973,3.678,3.678,0,0,0-3.329,0,1.164,1.164,0,0,0-.686.978v28.244a1.163,1.163,0,0,0,.689.975,3.677,3.677,0,0,0,3.327,0,1.156,1.156,0,0,0,.686-.975Z" transform="translate(-376.511 -232.571)" fill="url(#linear-gradient)"/>
      <path id="Path_7950" data-name="Path 7950" d="M1303.3,592.978a1.157,1.157,0,0,0-.688-.973,3.684,3.684,0,0,0-3.329,0,1.161,1.161,0,0,0-.686.976v28.243a1.162,1.162,0,0,0,.689.975,3.673,3.673,0,0,0,3.327,0,1.155,1.155,0,0,0,.686-.975Z" transform="translate(-376.511 -212.879)" opacity="0.8" style="mix-blend-mode: overlay;isolation: isolate"/>
      <path id="Path_7951" data-name="Path 7951" d="M1295.192,547.343l-8.387-32.331h-.018c-.368-6.6-9.741-11.885-21.261-11.885s-20.887,5.284-21.255,11.885h-.018l-8.387,32.331a10.462,10.462,0,0,0-.561,3.349c0,9.637,13.531,17.451,30.22,17.451s30.227-7.814,30.227-17.451A10.459,10.459,0,0,0,1295.192,547.343Z" transform="translate(-341.087 -163.362)" fill="url(#linear-gradient-3)"/>
      <path id="Path_7952" data-name="Path 7952" d="M1276.9,527.7c11.753,0,21.279-5.5,21.279-12.283s-9.526-12.288-21.279-12.288-21.273,5.5-21.273,12.288S1265.151,527.7,1276.9,527.7Z" transform="translate(-352.459 -163.362)" fill="#fff"/>
      <path id="Path_7953" data-name="Path 7953" d="M1278.586,504.863c-11.023,0-19.956,5.158-19.956,11.52s8.933,11.524,19.956,11.524,19.95-5.159,19.95-11.524S1289.6,504.863,1278.586,504.863Z" transform="translate(-354.141 -164.334)" fill="url(#linear-gradient-49)"/>
      <path id="Path_7954" data-name="Path 7954" d="M1297.064,545.975a34.065,34.065,0,0,0,4.416-.293,5.412,5.412,0,1,0-8.838,0A33.931,33.931,0,0,0,1297.064,545.975Z" transform="translate(-372.619 -182.402)" fill="url(#radial-gradient)"/>
    </g>
  </g>
</svg>
