<svg xmlns="http://www.w3.org/2000/svg" xmlns:xlink="http://www.w3.org/1999/xlink" width="354.512" height="263.522" viewBox="0 0 354.512 263.522">
  <defs>
    <linearGradient id="linear-gradient" x1="0.307" y1="1.013" x2="0.693" y2="-0.013" gradientUnits="objectBoundingBox">
      <stop offset="0" stop-color="#4bd6ed"/>
      <stop offset="1" stop-color="#1a50b2"/>
    </linearGradient>
    <linearGradient id="linear-gradient-2" y1="0.5" x2="1" y2="0.5" gradientUnits="objectBoundingBox">
      <stop offset="0" stop-color="#f0f2fe"/>
      <stop offset="1" stop-color="#c8cdf0"/>
    </linearGradient>
    <linearGradient id="linear-gradient-3" y1="0.5" x2="1" y2="0.5" gradientUnits="objectBoundingBox">
      <stop offset="0.3" stop-color="#f0f2fe"/>
      <stop offset="0.7" stop-color="#c8cdf0"/>
    </linearGradient>
    <linearGradient id="linear-gradient-4" x1="0.25" y1="0.067" x2="0.75" y2="0.933" xlink:href="#linear-gradient-3"/>
    <linearGradient id="linear-gradient-6" x1="0" y1="0.5" x2="1" y2="0.5" xlink:href="#linear-gradient"/>
    <linearGradient id="linear-gradient-9" x1="0.323" y1="1.03" x2="0.677" y2="-0.03" gradientUnits="objectBoundingBox">
      <stop offset="0.25" stop-color="#fff"/>
      <stop offset="0.7" stop-color="#dee4f7"/>
    </linearGradient>
    <linearGradient id="linear-gradient-12" x1="-17.126" y1="36.624" x2="-16.654" y2="36.624" xlink:href="#linear-gradient-3"/>
    <linearGradient id="linear-gradient-13" x1="-14.059" y1="30.247" x2="-13.588" y2="30.247" xlink:href="#linear-gradient"/>
    <linearGradient id="linear-gradient-14" x1="-12.791" y1="27.605" x2="-12.32" y2="27.605" xlink:href="#linear-gradient-3"/>
    <linearGradient id="linear-gradient-15" x1="-10.17" y1="23.201" x2="-9.769" y2="23.201" xlink:href="#linear-gradient"/>
    <linearGradient id="linear-gradient-16" x1="-7.735" y1="20.499" x2="-7.403" y2="20.499" xlink:href="#linear-gradient"/>
    <linearGradient id="linear-gradient-17" x1="-35.145" y1="45.353" x2="-33.774" y2="45.353" xlink:href="#linear-gradient-3"/>
    <linearGradient id="linear-gradient-18" x1="-56.894" y1="131.63" x2="-56.521" y2="131.63" xlink:href="#linear-gradient-3"/>
    <linearGradient id="linear-gradient-19" x1="-171.464" y1="-96.301" x2="-170.721" y2="-96.301" gradientUnits="objectBoundingBox">
      <stop offset="0" stop-color="#c8cdf0"/>
      <stop offset="0.4" stop-color="#f0f2fe"/>
      <stop offset="0.6" stop-color="#eceefd"/>
      <stop offset="1" stop-color="#c8cdf0"/>
    </linearGradient>
    <linearGradient id="linear-gradient-20" x1="-45.573" y1="-0.158" x2="-45.052" y2="1.158" xlink:href="#linear-gradient"/>
    <linearGradient id="linear-gradient-21" x1="-27.905" y1="-23.73" x2="-27.234" y2="-23.73" gradientUnits="objectBoundingBox">
      <stop offset="0" stop-color="#1a50b2"/>
      <stop offset="0.604" stop-color="#4bbfed"/>
      <stop offset="0.858" stop-color="#4bbfed"/>
      <stop offset="1" stop-color="#1a50b2"/>
    </linearGradient>
    <linearGradient id="linear-gradient-22" x1="-12.8" y1="-12.721" x2="-12.448" y2="-12.721" gradientUnits="objectBoundingBox">
      <stop offset="0" stop-color="#c8cdf0"/>
      <stop offset="0.54" stop-color="#f0f2fe"/>
      <stop offset="0.885" stop-color="#eceefd"/>
      <stop offset="1" stop-color="#c8cdf0"/>
    </linearGradient>
    <linearGradient id="linear-gradient-23" x1="-43.982" y1="-36.131" x2="-43.482" y2="-35.109" xlink:href="#linear-gradient"/>
    <linearGradient id="linear-gradient-24" x1="-25.727" y1="-24.274" x2="-25.056" y2="-24.274" xlink:href="#linear-gradient-21"/>
    <linearGradient id="linear-gradient-27" x1="-82.81" y1="75.884" x2="-82.571" y2="75.884" gradientUnits="objectBoundingBox">
      <stop offset="0" stop-color="#3665fc"/>
      <stop offset="0.5" stop-color="#82e3fc"/>
      <stop offset="1" stop-color="#3665fc"/>
    </linearGradient>
    <linearGradient id="linear-gradient-28" x1="-110.94" y1="55.926" x2="-109.744" y2="55.926" xlink:href="#linear-gradient-19"/>
    <linearGradient id="linear-gradient-29" x1="0" y1="0.5" x2="1" y2="0.5" xlink:href="#linear-gradient-9"/>
    <linearGradient id="linear-gradient-30" x1="-93.863" y1="64.603" x2="-93.204" y2="64.603" xlink:href="#linear-gradient-19"/>
    <linearGradient id="linear-gradient-32" y1="0.5" x2="1" y2="0.5" gradientUnits="objectBoundingBox">
      <stop offset="0.301" stop-color="#f0f2fe"/>
      <stop offset="0.339" stop-color="#c8cdf0"/>
    </linearGradient>
    <linearGradient id="linear-gradient-33" x1="0.323" y1="1.032" x2="0.677" y2="-0.032" xlink:href="#linear-gradient"/>
    <linearGradient id="linear-gradient-34" x1="0.752" y1="-0.13" x2="0.248" y2="1.13" xlink:href="#linear-gradient-9"/>
    <linearGradient id="linear-gradient-37" x1="-1.213" y1="-1.191" x2="-1.075" y2="-1.191" xlink:href="#linear-gradient"/>
    <linearGradient id="linear-gradient-38" x1="-1.344" y1="-1.32" x2="-1.195" y2="-1.32" xlink:href="#linear-gradient-2"/>
    <linearGradient id="linear-gradient-45" x1="0.301" y1="0.789" x2="0.699" y2="0.211" xlink:href="#linear-gradient"/>
    <linearGradient id="linear-gradient-46" x1="0.749" y1="-0.148" x2="0.126" y2="1.066" gradientUnits="objectBoundingBox">
      <stop offset="0" stop-color="#fdd2a7"/>
      <stop offset="1" stop-color="#f83f76"/>
    </linearGradient>
    <linearGradient id="linear-gradient-47" x1="0.814" y1="-0.11" x2="0.186" y2="1.11" xlink:href="#linear-gradient-46"/>
    <linearGradient id="linear-gradient-48" x1="0.773" y1="-0.176" x2="0.236" y2="1.164" xlink:href="#linear-gradient-46"/>
    <linearGradient id="linear-gradient-49" x1="-75.645" y1="1" x2="-75.645" gradientUnits="objectBoundingBox">
      <stop offset="0" stop-color="#242748"/>
      <stop offset="1" stop-color="#203a5f"/>
    </linearGradient>
    <linearGradient id="linear-gradient-50" x1="-22.539" y1="1" x2="-22.539" y2="0" xlink:href="#linear-gradient-49"/>
    <linearGradient id="linear-gradient-51" x1="-26.87" y1="1" x2="-26.87" y2="0" xlink:href="#linear-gradient-49"/>
    <linearGradient id="linear-gradient-52" x1="-21.584" y1="1" x2="-21.584" y2="0" xlink:href="#linear-gradient-49"/>
    <linearGradient id="linear-gradient-53" x1="-44.66" x2="-44.66" y2="1" gradientUnits="objectBoundingBox">
      <stop offset="0" stop-color="#82e3fc"/>
      <stop offset="1" stop-color="#3665fc"/>
    </linearGradient>
    <linearGradient id="linear-gradient-54" x1="-27.875" y1="1" x2="-27.875" y2="0" xlink:href="#linear-gradient-49"/>
    <linearGradient id="linear-gradient-55" x1="-14.484" y1="0" x2="-14.484" y2="1" xlink:href="#linear-gradient-53"/>
    <linearGradient id="linear-gradient-56" x1="-7.117" y1="0" x2="-7.117" y2="1" xlink:href="#linear-gradient-53"/>
    <linearGradient id="linear-gradient-57" x1="-33.227" y1="0.5" x2="-32.227" y2="0.5" xlink:href="#linear-gradient-2"/>
  </defs>
  <g id="intro_b" transform="translate(0 -389.385)">
    <path id="Path_7955" data-name="Path 7955" d="M716.14,536.2c19.647,0,35.572-9.2,35.572-20.536s-15.925-20.54-35.572-20.54-35.564,9.194-35.564,20.54S696.5,536.2,716.14,536.2Z" transform="translate(-654.626 4.266)" fill="#1a50b2" opacity="0.15" style="mix-blend-mode: multiply;isolation: isolate"/>
    <path id="Path_7956" data-name="Path 7956" d="M670.93,547.289c-12.063,0-21.844,5.647-21.844,12.617v3.221c0,6.964,9.781,12.613,21.844,12.613s21.85-5.649,21.85-12.613v-3.221C692.78,552.936,683,547.289,670.93,547.289Z" transform="translate(-638.771 -22.001)" fill="url(#linear-gradient)"/>
    <path id="Path_7957" data-name="Path 7957" d="M690.11,563.125a.746.746,0,0,0,0,1.414,2.7,2.7,0,0,0,2.446,0l15.8-9.214a19.584,19.584,0,0,0-2.387-1.448Z" transform="translate(-659.172 -25.318)" opacity="0.2" style="mix-blend-mode: overlay;isolation: isolate"/>
    <path id="Path_7958" data-name="Path 7958" d="M670.93,585.314c-12.063,0-21.844-5.649-21.844-12.614v3.221c0,6.964,9.781,12.613,21.844,12.613s21.85-5.649,21.85-12.613V572.7C692.78,579.665,683,585.314,670.93,585.314Z" transform="translate(-638.771 -34.796)" opacity="0.4" style="mix-blend-mode: overlay;isolation: isolate"/>
    <path id="Path_7959" data-name="Path 7959" d="M695.4,531.152a42.11,42.11,0,0,1-4.117,2.725V538.8l2.326,1.343a59.118,59.118,0,0,0,15.842-13.928A31.636,31.636,0,0,1,695.4,531.152Z" transform="translate(-660.018 -11.388)" fill="url(#linear-gradient-2)"/>
    <path id="Path_7960" data-name="Path 7960" d="M702.946,530.183a44.677,44.677,0,0,1-6.977,5.035v4.921a59.117,59.117,0,0,0,15.842-13.928A31.658,31.658,0,0,1,702.946,530.183Z" transform="translate(-662.376 -11.388)" fill="#c8cdf0"/>
    <path id="Path_7961" data-name="Path 7961" d="M693.063,531.037a.849.849,0,0,0-.506-.715,2.708,2.708,0,0,0-2.448,0,.854.854,0,0,0-.505.717v20.775a.857.857,0,0,0,.507.718,2.706,2.706,0,0,0,2.447,0,.851.851,0,0,0,.5-.718Z" transform="translate(-659.171 -13.31)" fill="url(#linear-gradient-3)"/>
    <path id="Path_7962" data-name="Path 7962" d="M692.622,439.674v0h0a32.062,32.062,0,0,0-9.981-23.171l-.077-.095c-.011-.012-.029-.009-.042-.02a32.431,32.431,0,0,0-5.964-4.454c-.007-.005-.007-.015-.015-.017-.032-.02-.069-.03-.1-.05a32.039,32.039,0,0,0-31.962.01c-.027.015-.058.022-.084.04-.006,0-.006.012-.013.015a32.422,32.422,0,0,0-5.965,4.452c-.013.013-.031.01-.043.022-.029.033-.053.065-.081.1a32.059,32.059,0,0,0-9.981,23.171h0v.035c0,.007,0,.012,0,.017s0,.022,0,.033a32.167,32.167,0,0,0,16,27.784c.029.017.055.04.084.057.01.007.022.005.032.01a32.04,32.04,0,0,0,32.082,0c.012,0,.026,0,.038-.01.034-.02.064-.047.1-.067a32.168,32.168,0,0,0,15.967-27.31c.008-.172.023-.342.023-.513C692.635,439.692,692.623,439.687,692.622,439.674Z" transform="translate(-628.31 48.334)" fill="url(#linear-gradient-4)"/>
    <path id="Path_7963" data-name="Path 7963" d="M683.829,421.076c1.032.2,2.665-3.039,5.25-3.617,2.329-.521,4.2-2.617,3.829-2.951-.745-.666.515,1.171-1.158-1.409s0-2.124,0-2.124-1.288-1.386-2.352-1.174.453,1.82-2.06.379-1.237-1.975-2.513-1.444-.926.7-2.112,1.042a8.9,8.9,0,0,1-3.1.022,3.656,3.656,0,0,0-1.808.107c-.745.319-.08-.319-.745.319a6.874,6.874,0,0,1-1.293,1.137c-1.153.883-1.852-.768-1.579.99s1.155.037.737,2.305-.632,1.417-.418,2.269-.256,1.79,1.68,1.8l1.936.007s-1.169-.494.745,1.081.623,1.045,1.915,1.579S683.278,420.969,683.829,421.076Z" transform="translate(-651.38 47.861)" opacity="0.7" fill="url(#linear-gradient-2)"/>
    <path id="Path_7964" data-name="Path 7964" d="M662.146,451.326c-2.1.4-1.7,1.172-3.616,1.6s-.32.426-1.49,1.7-2.553,1.488-1.6,3.51,1.384,1.6.532,3.191,1.6,3.617,1.6,3.617,2.871-1.917,4.573.531.957,3.51.957,3.51a7.451,7.451,0,0,0-.957,3.084c-.106,1.7,1.064,2.283.532,4.174a11.462,11.462,0,0,0-.426,3.485s-.319,1.809,2.766,2.554.426-2.873,2.447-4.469,0-2.445,2.552-3.722.425-1.807,2.766-3.3,3.191-3.722,2.127-4.891-.159-1.384.452-2.767,1.729-2.765,0-3.084-1.729.746-3.324-.85-1.277-2.553-1.277-2.553v-2.552s-.638-2.979.107-2.022,2.446,1.488,2.233,3.084-1.063,1.6-.106,2.448,1.475,1.277,3.29.638,2.029-.212,3.305-.958,3.935.212,2.552-1.383.106-1.064-1.383-1.6-1.7-.743-1.6-1.807.638-1.854,1.277-1.194,3.19.556,2.872,1.937-.318,2.129.744,3.191a15.145,15.145,0,0,0,2.766,2.022s.745-.745,1.383,1.277a8.226,8.226,0,0,1,.531,2.978s.212-.107-.957,1.7-1.49,1.111-.745,2.311a1.939,1.939,0,0,0,1.717,1.094s.517-1.807.942-2.872a3.489,3.489,0,0,1,1.809-1.6l3.19-1.491,3.617.852,1.17,2.872s.744.639,0,2.234-1.063,3.722-.213,2.127,3.3-1.122,3.084-3.221-.531-2.311-.425-3.161.744-.319,1.808-1.169,0-.335.638-3.086.638-1.169-.745-3.934-1.5-1.942-1.382-3.724,2.416-.541.638-2.233a26.709,26.709,0,0,1-4.148-5.956c-1.276-2.126-5.319-3.51-6.488-3.084s-1.277.851-2.34.851-1.383-.638-2.127,0l-.745.638s-2.659-.426-3.084.319a5.508,5.508,0,0,1-1.276,1.384l-2.021-1.384s.957.745-1.276-1.064-1.064-2.234-2.233-1.808-.106.745-2.339.531l-2.234-.213s-.851,1.169-1.7,1.169.213-.638-.851,0-2.128,1.172-2.128,1.172a6.243,6.243,0,0,1-2.339.531c-.852-.107-3.51-.319-3.51-.319s-.532.638-1.7,2.126-5.318,2.552-.745,2.341,4.893-2.019,6.063-1.488.639-.852,1.171.531.213,1.169,1.6,1.488,2.34.85,1.276,1.7,1.276,1.914-.639,2.126-2.233.212-3.51-.85S663.719,451.027,662.146,451.326Z" transform="translate(-641.811 32.444)" fill="url(#linear-gradient-6)"/>
    <path id="Path_7965" data-name="Path 7965" d="M692.612,440.217c.008-.172.023-.342.023-.513,0-.012-.011-.017-.013-.03v0h0a32.062,32.062,0,0,0-9.981-23.171l-.077-.095c-.011-.012-.029-.009-.042-.02a32.431,32.431,0,0,0-5.964-4.454c-.007-.005-.007-.015-.015-.017-.032-.02-.069-.03-.1-.05a32.039,32.039,0,0,0-31.962.01c-.027.015-.058.022-.084.04-.006,0-.006.012-.013.015a32.422,32.422,0,0,0-5.965,4.452c-.013.013-.031.01-.043.022-.029.033-.053.065-.081.1a32.059,32.059,0,0,0-9.981,23.171h0v.035c0,.007,0,.012,0,.017s0,.022,0,.033a32.167,32.167,0,0,0,16,27.784c.029.017.055.04.084.057.01.007.022.005.032.01a32.04,32.04,0,0,0,32.082,0c.012,0,.026,0,.038-.01.034-.02.064-.047.1-.067A32.168,32.168,0,0,0,692.612,440.217Zm-9.34,11.941a44.8,44.8,0,0,0-5.061-18.876c3.833-2.271,6.4-5.267,7.018-8.6a27.254,27.254,0,0,1,6.757,15.042c0,.01,0,.019,0,.03,0,.15-.01.3-.011.443C691.756,444.827,688.486,449.027,683.271,452.158Zm-6.956,14.821a31.326,31.326,0,0,1-15.529,4.285V458.4c8.462-.048,16.148-2,21.851-5.165C682.528,459.756,680.3,464.624,676.315,466.98Zm-31.679.01c-4-2.354-6.23-7.228-6.337-13.759,5.7,3.161,13.387,5.12,21.848,5.17v12.865A31.3,31.3,0,0,1,644.637,466.99Zm-15.688-27.266a27.251,27.251,0,0,1,6.757-15.042c.62,3.333,3.186,6.331,7.02,8.6a44.814,44.814,0,0,0-5.061,18.87C632.278,448.915,628.958,444.538,628.949,439.724Zm7.243-16.618a9.313,9.313,0,0,1,2.573-6.177,31.7,31.7,0,0,1,6.023-4.5c3.818-2.164,8.8-1.822,14.155.9a33.515,33.515,0,0,0-22.741,9.884C636.2,423.176,636.192,423.141,636.192,423.106Zm45.977-6.177a9.307,9.307,0,0,1,2.573,6.177c0,.035-.009.07-.01.1a33.51,33.51,0,0,0-22.74-9.884c5.351-2.717,10.324-3.061,14.138-.908A31.662,31.662,0,0,1,682.169,416.929Zm-22.021,20.05a35.284,35.284,0,0,1-16.578-3.926c.4-.781.814-1.559,1.258-2.329,4.11-7.119,9.536-12.9,15.32-16.38Zm.638-22.637c5.785,3.48,11.212,9.264,15.323,16.383.444.77.856,1.548,1.257,2.326a35.264,35.264,0,0,1-16.581,3.928Zm15.875,16.064c-4.11-7.12-9.531-12.92-15.322-16.468a32.857,32.857,0,0,1,23.318,10.131c-.4,3.353-2.889,6.382-6.738,8.663C677.516,431.954,677.106,431.176,676.661,430.406ZM659.6,413.935c-5.792,3.55-11.212,9.351-15.323,16.471-.444.77-.856,1.548-1.258,2.328-3.851-2.283-6.336-5.313-6.741-8.668A32.887,32.887,0,0,1,659.6,413.935Zm-16.315,19.659a35.749,35.749,0,0,0,16.864,4.021v20.147c-8.515-.05-16.231-2.042-21.859-5.24A43.91,43.91,0,0,1,643.284,433.594Zm17.5,24.169V437.615a35.755,35.755,0,0,0,16.866-4.021,43.9,43.9,0,0,1,5,18.933C677.019,455.723,669.3,457.715,660.786,457.762Zm30.784-23.089a28.351,28.351,0,0,0-6.253-10.832c.021-.244.063-.487.063-.736a8.874,8.874,0,0,0-.775-3.592A31.423,31.423,0,0,1,691.57,434.674Zm-30.784-21.436v-5a31.387,31.387,0,0,1,11.395,2.259C668.76,410.069,664.863,410.983,660.786,413.237Zm-.638-5v5c-4.075-2.256-7.973-3.171-11.394-2.737A31.381,31.381,0,0,1,660.148,408.241ZM636.33,419.514a8.866,8.866,0,0,0-.776,3.592c0,.249.043.489.064.736a28.349,28.349,0,0,0-6.254,10.832A31.4,31.4,0,0,1,636.33,419.514Zm-7.057,24.732c1.425,3.308,4.367,6.27,8.372,8.618.018,4.828,1.183,8.788,3.312,11.615A31.513,31.513,0,0,1,629.274,444.246Zm50.71,20.228c2.125-2.826,3.288-6.784,3.307-11.606,3.994-2.34,6.933-5.29,8.365-8.585A31.514,31.514,0,0,1,679.984,464.474Z" transform="translate(-628.31 48.334)" fill="#fff" opacity="0.6"/>
    <path id="Path_7966" data-name="Path 7966" d="M693.546,440.6v0h0a32.062,32.062,0,0,0-9.981-23.171l-.077-.095c-.011-.012-.029-.009-.042-.02a32.43,32.43,0,0,0-5.964-4.454c-.008-.006-.008-.015-.015-.017-.032-.02-.069-.03-.1-.05a32.085,32.085,0,0,0-8.416-3.348,29.909,29.909,0,0,1,3.413,1.683c.029.015.064.027.093.045.007,0,.007.012.014.015a29.867,29.867,0,0,1,5.51,4.118c.013.007.028.005.039.017.025.028.046.058.072.087a29.627,29.627,0,0,1,9.221,21.409h0v.005c0,.01.011.015.011.028,0,.159-.013.316-.02.473a29.719,29.719,0,0,1-14.753,25.233c-.032.017-.059.045-.092.063-.011.007-.024.005-.035.01a29.6,29.6,0,0,1-29.641,0c-.01,0-.02,0-.03-.01-.027-.015-.051-.037-.078-.053a29.915,29.915,0,0,1-12.528-14.346,32.274,32.274,0,0,0,15.087,20.248c.029.017.055.04.084.057.01.007.022.005.032.01a32.04,32.04,0,0,0,32.082,0c.013-.005.026,0,.038-.01.034-.02.064-.047.1-.067a32.168,32.168,0,0,0,15.967-27.31c.008-.172.023-.342.023-.513C693.558,440.622,693.547,440.617,693.546,440.6Z" transform="translate(-629.234 47.404)" fill="#1a50b2" opacity="0.2" style="mix-blend-mode: multiply;isolation: isolate"/>
    <path id="Path_7967" data-name="Path 7967" d="M712.154,403.067c3.4,2.446,5.7,6.621,6.541,12.2a31.924,31.924,0,0,1,5.515,15.481,51.666,51.666,0,0,0,1.505-11.869c0-10.031-3.534-17.079-9.251-20.4l0-.005-2.835-1.638-.011.02c-5.777-3.059-13.651-2.458-22.333,2.555l0,4.916,2.326,1.342C700.739,401.556,707.237,400.87,712.154,403.067Z" transform="translate(-660.018 54.681)" fill="url(#linear-gradient-2)"/>
    <path id="Path_7968" data-name="Path 7968" d="M723.721,421.308a31.844,31.844,0,0,1,2.846,10.792,51.665,51.665,0,0,0,1.5-11.869c0-20.244-14.373-28.357-32.1-18.121l0,4.914C710.9,398.407,723.061,404.828,723.721,421.308Z" transform="translate(-662.376 53.326)" fill="#c8cdf0"/>
    <path id="Path_7969" data-name="Path 7969" d="M693.063,397.362a.852.852,0,0,0-.506-.718,2.7,2.7,0,0,0-2.448,0,.849.849,0,0,0-.505.716V407.9a.854.854,0,0,0,.507.718,2.7,2.7,0,0,0,2.447,0,.848.848,0,0,0,.5-.716Z" transform="translate(-659.172 53.997)" fill="url(#linear-gradient-3)"/>
    <path id="Path_7970" data-name="Path 7970" d="M690.11,398.057a.746.746,0,0,1,0-1.414,2.7,2.7,0,0,1,2.448,0,.746.746,0,0,1,0,1.414A2.7,2.7,0,0,1,690.11,398.057Z" transform="translate(-659.17 53.997)" fill="url(#linear-gradient-9)"/>
    <path id="Path_7971" data-name="Path 7971" d="M906.593,372.666l6.868-5.873-52.128-20.339-21.261,18.18L810.66,381.616,855.15,407.3l8.629-4.983,5.587,2.18,19.462-16.642,22.037-12.724Z" transform="translate(-720.124 79.119)" fill="#1a50b2" opacity="0.15" style="mix-blend-mode: multiply;isolation: isolate"/>
    <path id="Path_7972" data-name="Path 7972" d="M902.752,375.115l-44.49-25.686L802.547,381.6v3.829l44.489,25.687,55.717-32.169Z" transform="translate(-716.039 77.622)" fill="url(#linear-gradient-2)"/>
    <path id="Path_7973" data-name="Path 7973" d="M978.284,398.244l-4.988-2.879L952.56,413.1Z" transform="translate(-791.571 54.493)" opacity="0.3" style="mix-blend-mode: overlay;isolation: isolate"/>
    <path id="Path_7974" data-name="Path 7974" d="M802.547,414.22v3.829l44.489,25.687v-3.829Z" transform="translate(-716.039 44.999)" fill="#fff" opacity="0.5"/>
    <path id="Path_7975" data-name="Path 7975" d="M892.152,433.333v3.829l55.716-32.169v-3.829Z" transform="translate(-761.155 51.573)" opacity="0.6" style="mix-blend-mode: overlay;isolation: isolate"/>
    <path id="Path_7976" data-name="Path 7976" d="M902.78,361.865l-52.128-20.339-44.1,37.7v3.829l52.129,20.34,44.095-37.706Z" transform="translate(-718.057 81.601)" fill="url(#linear-gradient-2)"/>
    <path id="Path_7977" data-name="Path 7977" d="M806.557,417.467V421.3l52.129,20.34v-3.829Z" transform="translate(-718.057 43.364)" fill="#fff" opacity="0.5"/>
    <path id="Path_7978" data-name="Path 7978" d="M911.549,420.2v3.829l44.095-37.706v-3.829Z" transform="translate(-770.921 60.975)" opacity="0.6" style="mix-blend-mode: overlay;isolation: isolate"/>
    <path id="Path_7979" data-name="Path 7979" d="M902.166,367.3l-45.393-17.712.7-.6L902.867,366.7Zm-2.45,2.095-45.393-17.713-.7.6L899.016,370Zm-3.15,2.694-22.348-8.721-.7.6,22.349,8.721Zm-3.149,2.692-22.349-8.72-.7.6,22.348,8.721Zm-3.149,2.694-22.348-8.721-.7.6,22.347,8.719Zm-3.15,2.694-22.348-8.721-.7.6,22.349,8.72Zm-3.15,2.692-22.348-8.72-.7.6,22.348,8.72Zm-3.149,2.694-22.349-8.72-.7.6,22.349,8.723Zm-3.15,2.692-45.393-17.711-.7.6,45.393,17.712Zm-3.15,2.7-45.393-17.713-.7.6,45.393,17.711Zm-3.149,2.694-45.393-17.713-.7.6,45.394,17.712Zm-3.15,2.693-45.392-17.712-.7.6,45.393,17.712Zm-3.15,2.693-45.392-17.713-.7.6,45.394,17.712Zm5.517-37.068-19.414-7.575-16.447,14.064,19.413,7.575Z" transform="translate(-724.311 77.842)" opacity="0.6" style="mix-blend-mode: overlay;isolation: isolate"/>
    <path id="Path_7980" data-name="Path 7980" d="M1052.845,725.272l-.005,0-11.626,6.713c-6.868,3.966-20.074,9.358-24.6,9.056l-2.994,1.729a1.719,1.719,0,0,1-1.554,0,.473.473,0,0,1,0-.9l2.994-1.73c-.522-2.61,8.818-10.234,15.687-14.2l8.236-4.753v0l21.633-12.491.007,0,16.652-9.615a3.94,3.94,0,0,1,1.611-.443l1.086-.626a4.43,4.43,0,0,1,2.341-.424l.959-.555c1.28-.738,4.111-.3,6.323.976s2.969,2.912,1.69,3.651l-.959.554a1.311,1.311,0,0,1-.734,1.352l-1.087.627a1.518,1.518,0,0,1-.768.93L1070.64,715l-.005,0Z" transform="translate(-821.373 -97.217)" fill="#1a50b2" opacity="0.15" style="mix-blend-mode: multiply;isolation: isolate"/>
    <path id="Path_7981" data-name="Path 7981" d="M1120.41,704.206c-1.28-2.215-1.28-4.61,0-5.349l13.1-7.564c1.28-.738,3.353.459,4.632,2.673s1.279,4.611,0,5.35l-13.1,7.563C1123.762,707.619,1121.688,706.42,1120.41,704.206Z" transform="translate(-875.6 -94.398)" fill="url(#linear-gradient-12)"/>
    <path id="Path_7982" data-name="Path 7982" d="M1108.957,708.035c-1.535-2.659-1.536-5.534,0-6.421l15.73-9.081c1.535-.887,4.024.55,5.561,3.21s1.535,5.534,0,6.421l-15.73,9.081C1112.982,712.132,1110.491,710.694,1108.957,708.035Z" transform="translate(-869.737 -95)" fill="url(#linear-gradient-13)"/>
    <path id="Path_7983" data-name="Path 7983" d="M1101.008,711.165c-1.669-2.892-1.669-6.018,0-6.982l17.106-9.877c1.67-.964,4.377.6,6.048,3.493s1.668,6.018,0,6.981l-17.106,9.877C1105.386,715.62,1102.679,714.057,1101.008,711.165Z" transform="translate(-865.684 -95.881)" fill="url(#linear-gradient-14)"/>
    <path id="Path_7984" data-name="Path 7984" d="M1058.333,733.152c-1.669-2.893-1.669-6.02,0-6.982l21.635-12.492c1.671-.965,4.378.6,6.048,3.491s1.67,6.019,0,6.983l-21.636,12.492C1062.711,737.607,1060,736.044,1058.333,733.152Z" transform="translate(-844.197 -105.634)" fill="url(#linear-gradient-15)"/>
    <path id="Path_7985" data-name="Path 7985" d="M1007.747,758.655c-1.671-2.895,9.869-12.682,17.429-17.045L1036.8,734.9c1.67-.965,4.377.6,6.047,3.49s1.67,6.019,0,6.984l-11.625,6.711C1023.664,756.447,1009.417,761.548,1007.747,758.655Z" transform="translate(-819.275 -116.319)" fill="url(#linear-gradient-16)"/>
    <path id="Path_7986" data-name="Path 7986" d="M1069.4,739.27c-1.669-2.893-4.377-4.456-6.047-3.491l1.524-.88c1.67-.965,4.377.6,6.047,3.49s1.67,6.019,0,6.984l-1.525.879C1071.075,745.288,1071.075,742.162,1069.4,739.27Z" transform="translate(-847.357 -116.319)" fill="url(#linear-gradient-17)"/>
    <path id="Path_7987" data-name="Path 7987" d="M1002.043,784.256a.9.9,0,0,1-1.226-.329h0a.9.9,0,0,1,.329-1.224l3.019-1.744a.9.9,0,0,1,1.225.328h0a.9.9,0,0,1-.328,1.225Z" transform="translate(-815.808 -139.594)" fill="url(#linear-gradient-18)"/>
    <path id="Path_7988" data-name="Path 7988" d="M1102.753,718.412l24.525-14.159c.972-.56,1.795-.331,2.121.47a1.843,1.843,0,0,1-.807,1.073l-.959.553a2.387,2.387,0,0,1-1.073,1.693l-1.087.627a2.3,2.3,0,0,1-.946,1.107l-17.106,9.877-.006,0-6.618,3.821a1.914,1.914,0,0,1-.317-1.131A5.022,5.022,0,0,1,1102.753,718.412Z" transform="translate(-866.048 -100.878)" opacity="0.3" style="mix-blend-mode: overlay;isolation: isolate"/>
    <path id="Path_7989" data-name="Path 7989" d="M1147.922,711.718c.579-1,.579-2.089,0-2.423l-2.759-1.664c-.58-.333-1.518.208-2.1,1.213s-.579,2.087,0,2.421l2.759,1.665C1146.4,713.263,1147.342,712.721,1147.922,711.718Z" transform="translate(-887.271 -102.684)" fill="url(#linear-gradient-19)"/>
    <path id="Path_7990" data-name="Path 7990" d="M1132.239,706.03a1.6,1.6,0,0,1,.644,1.452,5.021,5.021,0,0,1-2.271,3.935l-24.527,14.159a1.594,1.594,0,0,1-1.609.158h0l-.572-.329,0,0a1.575,1.575,0,0,1-.681-1.475A5.016,5.016,0,0,1,1105.5,720l24.526-14.161a1.581,1.581,0,0,1,1.629-.143l0,0,.588.339Z" transform="translate(-867.43 -101.674)" fill="url(#linear-gradient-20)"/>
    <path id="Path_7991" data-name="Path 7991" d="M1103.225,723.928A5.016,5.016,0,0,1,1105.5,720l24.526-14.161a1.581,1.581,0,0,1,1.629-.143l0,0,.588.339,0,0s0,0,0,0a1.577,1.577,0,0,0-1.633.14l-24.526,14.161a5.016,5.016,0,0,0-2.272,3.933,1.591,1.591,0,0,0,.663,1.467h0l-.572-.329,0,0A1.575,1.575,0,0,1,1103.225,723.928Z" transform="translate(-867.43 -101.674)" opacity="0.3" style="mix-blend-mode: overlay;isolation: isolate"/>
    <path id="Path_7992" data-name="Path 7992" d="M673.581,714.938l57.3,32.963a9.45,9.45,0,0,0,8.556-.006l9.488-5.477a3.013,3.013,0,0,0,1.773-2.459v.008a2.994,2.994,0,0,0-1.769-2.488l-57.3-32.96a9.449,9.449,0,0,0-8.556.005L673.587,710a3.015,3.015,0,0,0-1.77,2.458h0v.017A3,3,0,0,0,673.581,714.938Z" transform="translate(-650.214 -100.653)" fill="#1a50b2" opacity="0.15" style="mix-blend-mode: multiply;isolation: isolate"/>
    <path id="Path_7993" data-name="Path 7993" d="M666.6,719.769a2.133,2.133,0,0,0,2.164-.207l10-5.773a6.734,6.734,0,0,0,3.048-5.272,2.157,2.157,0,0,0-.863-1.947l0,0-11.735-6.774,0,0a2.164,2.164,0,0,0-2.117.228l-10,5.775a6.732,6.732,0,0,0-3.047,5.274,2.135,2.135,0,0,0,.892,1.967h0l11.657,6.733Z" transform="translate(-641.271 -98.696)" fill="url(#linear-gradient-21)"/>
    <path id="Path_7994" data-name="Path 7994" d="M709.751,746.019a2.475,2.475,0,0,0,2.5-.24L723.82,739.1a7.784,7.784,0,0,0,3.523-6.1,2.485,2.485,0,0,0-1-2.251l0-.008-42.577-24.581,0,.006a2.5,2.5,0,0,0-2.449.265l-11.565,6.678a7.783,7.783,0,0,0-3.524,6.1,2.476,2.476,0,0,0,1.031,2.276h0l42.488,24.53Z" transform="translate(-647.404 -101.891)" fill="url(#linear-gradient-22)"/>
    <path id="Path_7995" data-name="Path 7995" d="M733.372,748.362l21.212,12.248a5.838,5.838,0,0,0,5.284,0l5.859-3.383a1.859,1.859,0,0,0,1.1-1.518v0a1.849,1.849,0,0,0-1.093-1.537l-21.21-12.245a5.832,5.832,0,0,0-5.284,0l-5.86,3.382a1.866,1.866,0,0,0-1.093,1.52h0v.01A1.852,1.852,0,0,0,733.372,748.362Z" transform="translate(-680.66 -119.684)" fill="#1a50b2" opacity="0.15" style="mix-blend-mode: multiply;isolation: isolate"/>
    <path id="Path_7996" data-name="Path 7996" d="M770.441,757.881c0-2.246-1.578-3.155-3.524-2.032l-11.566,6.678a7.781,7.781,0,0,0-3.523,6.1h0c0,2.243,1.577,3.152,3.523,2.029l11.567-6.678a7.784,7.784,0,0,0,3.523-6.1Z" transform="translate(-690.501 -126.77)" fill="url(#linear-gradient-23)"/>
    <path id="Path_7997" data-name="Path 7997" d="M768.95,780.2a2.465,2.465,0,0,0,2.5-.239l11.566-6.678a7.783,7.783,0,0,0,3.524-6.1,2.487,2.487,0,0,0-1-2.251l.005-.006-13.572-7.835,0,.007a2.5,2.5,0,0,0-2.448.264l-11.565,6.677a7.787,7.787,0,0,0-3.525,6.1,2.474,2.474,0,0,0,1.031,2.277h0l13.483,7.784Z" transform="translate(-691.814 -127.532)" fill="url(#linear-gradient-24)"/>
    <path id="Path_7998" data-name="Path 7998" d="M800.227,775.078c0-2.246-1.579-3.155-3.524-2.032l-11.568,6.678a7.779,7.779,0,0,0-3.522,6.1h0c0,2.243,1.577,3.153,3.523,2.03l11.567-6.678a7.783,7.783,0,0,0,3.524-6.1Z" transform="translate(-705.499 -135.428)" fill="url(#linear-gradient-6)"/>
    <path id="Path_7999" data-name="Path 7999" d="M800.227,775.078c0-2.246-1.579-3.155-3.524-2.032l-11.568,6.678a7.779,7.779,0,0,0-3.522,6.1h0c0,2.243,1.577,3.153,3.523,2.03l11.567-6.678a7.783,7.783,0,0,0,3.524-6.1Z" transform="translate(-705.499 -135.428)" opacity="0.2" style="mix-blend-mode: overlay;isolation: isolate"/>
    <path id="Path_8000" data-name="Path 8000" d="M774.659,769.147l5.859-3.383a1.858,1.858,0,0,0,1.1-1.518v.005a1.849,1.849,0,0,0-1.093-1.537l-7.717-4.455-11.147,6.435,7.717,4.457A5.838,5.838,0,0,0,774.659,769.147Z" transform="translate(-695.451 -128.225)" opacity="0.4" style="mix-blend-mode: overlay;isolation: isolate"/>
    <path id="Path_8001" data-name="Path 8001" d="M766.825,750.417h0a1.847,1.847,0,0,0-1.093-1.536l-21.21-12.247a5.839,5.839,0,0,0-5.284,0l-5.86,3.383a1.862,1.862,0,0,0-1.093,1.518h0v.778h0a1.838,1.838,0,0,0,1.088,1.544l21.211,12.248a5.844,5.844,0,0,0,5.285,0l5.859-3.384a1.857,1.857,0,0,0,1.1-1.527Z" transform="translate(-680.66 -117.019)" fill="url(#linear-gradient-6)"/>
    <path id="Path_8002" data-name="Path 8002" d="M766.824,756.039v-.006a1.86,1.86,0,0,1-1.1,1.519l-5.859,3.383a5.84,5.84,0,0,1-5.284,0l-21.212-12.249a1.85,1.85,0,0,1-1.09-1.521v.768h0a1.838,1.838,0,0,0,1.088,1.544l21.211,12.248a5.843,5.843,0,0,0,5.285,0l5.859-3.384a1.857,1.857,0,0,0,1.1-1.527v-.776Z" transform="translate(-680.66 -122.642)" opacity="0.4" style="mix-blend-mode: overlay;isolation: isolate"/>
    <path id="Path_8003" data-name="Path 8003" d="M1179.74,451.852l-4.021-2.226a8.535,8.535,0,0,0-6.358-.538c-6.253-3.331-11.5-5.022-11.6-4.84s3.488,3.431,8.888,6.929c-.368,1,.114,2.075,1.452,2.849l.008,0,4.012,2.225a8.418,8.418,0,0,0,7.616,0C1181.839,455.034,1181.842,453.065,1179.74,451.852Z" transform="translate(-894.887 29.887)" fill="#1a50b2" opacity="0.15" style="mix-blend-mode: multiply;isolation: isolate"/>
    <path id="Path_8004" data-name="Path 8004" d="M1150.179,435.222c.117-.2,6.655,1.931,13.844,6.082l-1.655,2.868C1155.179,440.02,1150.061,435.425,1150.179,435.222Z" transform="translate(-891.071 34.431)" fill="url(#linear-gradient-27)"/>
    <path id="Path_8005" data-name="Path 8005" d="M1169.647,450.527l-1.539-.889h0a3.041,3.041,0,0,1-1.32-2.844,9.77,9.77,0,0,1,4.443-7.64,3.164,3.164,0,0,1,3.124-.336v0l1.564.9h0a3.04,3.04,0,0,1,1.32,2.845,9.764,9.764,0,0,1-4.444,7.639,3.165,3.165,0,0,1-3.123.338h0l-.012-.007Z" transform="translate(-899.435 32.754)" fill="url(#linear-gradient-28)"/>
    <path id="Path_8006" data-name="Path 8006" d="M1177.506,440.635h0a3.165,3.165,0,0,0-3.124.336,9.771,9.771,0,0,0-4.444,7.638,3.057,3.057,0,0,0,1.3,2.834l.011.006.011.007h0a3.166,3.166,0,0,0,3.123-.338,9.765,9.765,0,0,0,4.444-7.639A3.041,3.041,0,0,0,1177.506,440.635Z" transform="translate(-901.021 31.838)" fill="url(#linear-gradient-29)"/>
    <path id="Path_8007" data-name="Path 8007" d="M1174.85,452.123l0-.006a1.949,1.949,0,0,1-.915-1.881,6.367,6.367,0,0,1,2.9-4.981,2.027,2.027,0,0,1,2.087-.188l0,0,6.8,5.192v0a1.487,1.487,0,0,1,.578,1.326,4.659,4.659,0,0,1-2.119,3.642,1.542,1.542,0,0,1-1.435.186l0,.006Z" transform="translate(-903.035 29.574)" fill="url(#linear-gradient-30)"/>
    <path id="Path_8008" data-name="Path 8008" d="M1193.97,455.573a1.473,1.473,0,0,0-1.541.127,4.661,4.661,0,0,0-2.119,3.643,1.415,1.415,0,0,0,.688,1.384,1.544,1.544,0,0,0,1.431-.187,4.659,4.659,0,0,0,2.12-3.642A1.486,1.486,0,0,0,1193.97,455.573Z" transform="translate(-911.278 24.26)" fill="url(#linear-gradient-29)"/>
    <path id="Path_8009" data-name="Path 8009" d="M1004.946,524.4c6.1-3.523,6.093-9.233-.01-12.756L947.367,478.4c-6.107-3.522-16-3.527-22.1,0l-140.6,81.178c-6.091,3.52-6.09,9.231.015,12.756l57.568,33.232c6.105,3.527,16,3.53,22.094.01Z" transform="translate(-704.737 14.015)" fill="#1a50b2" opacity="0.15" style="mix-blend-mode: multiply;isolation: isolate"/>
    <path id="Path_8010" data-name="Path 8010" d="M754.95,569.778c0-3.675,1.371-6.811,3.308-8.1a12.428,12.428,0,0,1,2.041-1.456L900.9,479.04c6.1-3.523,15.987-3.518,22.1,0l57.569,33.24a12.263,12.263,0,0,1,2.138,1.548c1.825,1.376,3.094,4.415,3.094,7.952a12.917,12.917,0,0,1-.927,4.939,8.921,8.921,0,0,1-4.292,4.7L839.976,612.6c-6.1,3.52-15.989,3.517-22.094-.008l-57.569-33.234a12.414,12.414,0,0,1-2.066-1.481C756.315,576.578,754.949,573.445,754.95,569.778Z" transform="translate(-692.073 13.691)" fill="url(#linear-gradient-32)"/>
    <path id="Path_8011" data-name="Path 8011" d="M984.873,570.817a8.917,8.917,0,0,1-4.292,4.7l-140.6,81.176c-6.1,3.52-15.989,3.517-22.094-.008l-57.569-33.235a12.437,12.437,0,0,1-2.066-1.481c-1.817-1.219-3.119-4.071-3.267-7.459-.01.215-.03.422-.03.639,0,3.667,1.365,6.8,3.3,8.1a12.414,12.414,0,0,0,2.066,1.481l57.569,33.234c6.1,3.525,16,3.528,22.094.008l140.6-81.174a8.921,8.921,0,0,0,4.292-4.7,12.917,12.917,0,0,0,.927-4.939c0-.219-.018-.431-.028-.645A12.74,12.74,0,0,1,984.873,570.817Z" transform="translate(-692.073 -31.678)" opacity="0.3" style="mix-blend-mode: overlay;isolation: isolate"/>
    <path id="Path_8012" data-name="Path 8012" d="M981.371,525.041c6.1-3.523,6.093-9.233-.01-12.756l-57.569-33.24c-6.108-3.523-16-3.528-22.1,0l-140.6,81.177c-6.092,3.52-6.091,9.231.014,12.756l57.569,33.233c6.105,3.527,16,3.53,22.094.009Z" transform="translate(-692.867 13.691)" fill="url(#linear-gradient-33)"/>
    <path id="Path_8013" data-name="Path 8013" d="M894.4,558.484,934.435,581.6l69.544-39.876-40.033-23.114-8.087-4.669L939.34,504.4l-69.308,40.015,16.282,9.4Z" transform="translate(-750.017 -0.407)" opacity="0.3" style="mix-blend-mode: overlay;isolation: isolate"/>
    <path id="Path_8014" data-name="Path 8014" d="M981.667,549.06c4.017,3.175,3.562,7.656-1.394,10.518l-140.6,81.178c-5.479,3.163-14.4,3.163-19.888-.008L762.215,607.51c-4.97-2.868-5.423-7.369-1.377-10.542-5.817,3.531-5.737,9.117.275,12.589l57.569,33.233c6.1,3.527,16,3.53,22.094.009l140.6-81.175C987.366,558.163,987.453,552.594,981.667,549.06Z" transform="translate(-692.873 -22.893)" opacity="0.4" style="mix-blend-mode: overlay;isolation: isolate"/>
    <path id="Path_8015" data-name="Path 8015" d="M1126.7,518.688a1.482,1.482,0,0,1-1.339,0l-9.258-5.344a.41.41,0,0,1,0-.773h0a1.489,1.489,0,0,1,1.339,0l9.253,5.342a.409.409,0,0,1,.005.773Zm3.545,1.279a1.465,1.465,0,0,0-1.339,0,.4.4,0,0,0,0,.768,1.47,1.47,0,0,0,1.336,0A.4.4,0,0,0,1130.243,519.967Zm2.446,1.409a1.477,1.477,0,0,0-1.339,0,.407.407,0,0,0,0,.773,1.47,1.47,0,0,0,1.336,0A.407.407,0,0,0,1132.688,521.375Z" transform="translate(-873.776 -4.441)" fill="#c8cdf0"/>
    <path id="Path_8016" data-name="Path 8016" d="M1170.919,592.914l1.084.624a1.057,1.057,0,0,1,.436.967,3.287,3.287,0,0,1-1.486,2.57l-14.274,8.239a1.036,1.036,0,0,1-1.049.1l-1.084-.628h0l-.023-.015,0,0a1.049,1.049,0,0,1-.414-.947,3.294,3.294,0,0,1,1.483-2.57l14.269-8.238a1.048,1.048,0,0,1,1.026-.113l0,0,.019.013Z" transform="translate(-893.052 -44.923)" fill="url(#linear-gradient-34)"/>
    <path id="Path_8017" data-name="Path 8017" d="M1172.057,594.278c.818-.476,1.484-.089,1.486.86h0a3.288,3.288,0,0,1-1.486,2.57l-14.274,8.239c-.815.476-1.48.089-1.48-.858h0a3.269,3.269,0,0,1,1.485-2.57Z" transform="translate(-894.155 -45.558)" fill="#c8cdf0"/>
    <path id="Path_8018" data-name="Path 8018" d="M823.75,710.8a3.745,3.745,0,0,0-1.695-2.932l-10.808-6.24c-.935-.538-1.691-.1-1.691.978h0a3.729,3.729,0,0,0,1.691,2.929l10.809,6.242c.935.538,1.693.1,1.693-.977Z" transform="translate(-719.568 -99.595)" fill="#c8cdf0"/>
    <path id="Path_8019" data-name="Path 8019" d="M810.718,701.442a1.646,1.646,0,0,0-.127.655,3.736,3.736,0,0,0,1.7,2.932l10.806,6.24a1.78,1.78,0,0,0,.531.2c-.249.571-.855.728-1.567.319l-10.809-6.242a3.729,3.729,0,0,1-1.691-2.929C809.556,701.752,810.045,701.312,810.718,701.442Z" transform="translate(-719.568 -99.606)" opacity="0.5" style="mix-blend-mode: overlay;isolation: isolate"/>
    <path id="Path_8020" data-name="Path 8020" d="M809.136,702.988c0-.529.373-.74.83-.477a1.83,1.83,0,0,1,.829,1.433c0,.529-.371.741-.829.477A1.838,1.838,0,0,1,809.136,702.988Zm3.372,2.9c.459.264.83.052.83-.476a1.831,1.831,0,0,0-.83-1.436c-.456-.265-.827-.05-.829.478A1.833,1.833,0,0,0,812.508,705.89Zm2.543,1.468c.458.265.83.054.83-.475a1.832,1.832,0,0,0-.83-1.436c-.457-.265-.828-.051-.829.479A1.823,1.823,0,0,0,815.051,707.357Zm2.542,1.469c.457.264.829.05.828-.479a1.827,1.827,0,0,0-.828-1.433c-.457-.265-.827-.05-.83.476A1.832,1.832,0,0,0,817.593,708.826Zm2.543,1.468c.459.264.829.05.829-.479a1.829,1.829,0,0,0-.829-1.433c-.459-.265-.83-.053-.83.476A1.832,1.832,0,0,0,820.136,710.295Zm2.541,1.465c.458.265.829.053.829-.476a1.83,1.83,0,0,0-.828-1.433c-.459-.265-.83-.053-.83.476A1.827,1.827,0,0,0,822.677,711.76Zm-47.531-28.4c0-.528.374-.74.831-.476a1.829,1.829,0,0,1,.829,1.434c0,.528-.371.74-.829.476A1.835,1.835,0,0,1,775.146,683.364Zm3.374,2.9c.456.264.828.052.828-.476a1.835,1.835,0,0,0-.829-1.436c-.457-.264-.829-.05-.829.479A1.829,1.829,0,0,0,778.52,686.266Zm2.542,1.468c.458.264.829.052.829-.476a1.834,1.834,0,0,0-.829-1.436c-.457-.264-.829-.049-.829.479A1.83,1.83,0,0,0,781.061,687.734ZM783.6,689.2c.458.265.83.05.829-.479a1.829,1.829,0,0,0-.828-1.434c-.459-.264-.828-.049-.83.476A1.831,1.831,0,0,0,783.6,689.2Zm2.542,1.469c.459.264.83.05.829-.479a1.826,1.826,0,0,0-.826-1.433c-.461-.265-.832-.052-.832.476A1.833,1.833,0,0,0,786.146,690.671Zm2.543,1.466c.458.264.829.052.828-.476a1.826,1.826,0,0,0-.828-1.434c-.457-.264-.828-.052-.828.476A1.825,1.825,0,0,0,788.688,692.137Z" transform="translate(-702.242 -90.218)" fill="#c8cdf0"/>
    <path id="Path_8021" data-name="Path 8021" d="M920.025,512.227l-40.033-18.491-8.087-4.669-40.033-27.735-59.484,34.341v1.849l40.033,27.736,8.088,4.669,40.033,18.489,59.484-34.341Z" transform="translate(-700.854 21.278)" fill="url(#linear-gradient-6)"/>
    <path id="Path_8022" data-name="Path 8022" d="M920.025,512.227l-40.033-18.491-8.087-4.669-40.033-27.735-59.484,34.341v1.849l40.033,27.736,8.088,4.669,40.033,18.489,59.484-34.341Z" transform="translate(-700.854 21.278)" opacity="0.5" style="mix-blend-mode: overlay;isolation: isolate"/>
    <path id="Path_8023" data-name="Path 8023" d="M879.992,493.736l-8.087-4.669-40.033-27.735-59.484,34.341,40.033,27.736,8.088,4.669,40.033,18.49,59.484-34.341Z" transform="translate(-700.854 21.278)" fill="url(#linear-gradient-6)"/>
    <path id="Path_8024" data-name="Path 8024" d="M836.792,466.94l-54.685,31.573,37.606,26.335,8.09,4.672,37.6,17.087,54.686-31.573-37.607-17.088-8.084-4.666Z" transform="translate(-705.747 18.455)" opacity="0.5" style="mix-blend-mode: overlay;isolation: isolate"/>
    <path id="Path_8025" data-name="Path 8025" d="M912.5,517.193l-59.484,34.342,8.088,4.669,59.483-34.342Z" transform="translate(-741.451 -6.848)" fill="url(#linear-gradient-37)"/>
    <path id="Path_8026" data-name="Path 8026" d="M865.938,556.224l-8.087-4.669,54.686-31.572,8.086,4.669Z" transform="translate(-743.885 -8.252)" fill="url(#linear-gradient-38)"/>
    <path id="Path_8027" data-name="Path 8027" d="M858.456,467.455c-7.939-5.382-15.329-8.578-21.126-9.515l-54.686,31.573v4.624c5.8.937,13.188,4.131,21.126,9.515a95.909,95.909,0,0,1,20.391,18.626L878.847,490.7v-4.623A95.964,95.964,0,0,0,858.456,467.455Z" transform="translate(-706.017 22.986)" fill="url(#linear-gradient-2)"/>
    <path id="Path_8028" data-name="Path 8028" d="M782.644,489.513c5.8.938,13.188,4.132,21.126,9.515a95.907,95.907,0,0,1,20.391,18.626l54.685-31.573a95.964,95.964,0,0,0-20.39-18.625c-7.939-5.382-15.329-8.578-21.126-9.515Z" transform="translate(-706.017 22.986)" opacity="0.5" style="mix-blend-mode: overlay;isolation: isolate"/>
    <path id="Path_8029" data-name="Path 8029" d="M941.34,519.464c-7.936-3.786-15.051-5.365-20.391-4.92l-54.685,31.573v4.623h3.42a47.312,47.312,0,0,1,16.97,4.919,78.773,78.773,0,0,1,21.126,14.878l54.686-31.573v-4.623A78.771,78.771,0,0,0,941.34,519.464Z" transform="translate(-748.12 -5.477)" fill="url(#linear-gradient-2)"/>
    <path id="Path_8030" data-name="Path 8030" d="M1004.569,554.493l-54.686,31.574v4.623l54.686-31.573Z" transform="translate(-790.222 -25.629)" style="mix-blend-mode: overlay;isolation: isolate"/>
    <path id="Path_8031" data-name="Path 8031" d="M866.264,546.117c5.339-.445,12.454,1.133,20.39,4.918a78.794,78.794,0,0,1,21.126,14.88l54.686-31.574a78.771,78.771,0,0,0-21.127-14.878c-7.936-3.786-15.051-5.365-20.391-4.92Z" transform="translate(-748.12 -5.477)" opacity="0.5" style="mix-blend-mode: overlay;isolation: isolate"/>
    <path id="Path_8032" data-name="Path 8032" d="M785.027,475.145c6.067,2.227,13.511,6.872,21.223,13.616a109.634,109.634,0,0,1,19.111,21.659l54.685-31.573a109.6,109.6,0,0,0-19.11-21.658c-7.712-6.746-15.157-11.39-21.223-13.616Z" transform="translate(-707.217 30.22)" fill="url(#linear-gradient-29)"/>
    <path id="Path_8033" data-name="Path 8033" d="M845.209,453.312l.99-.571c5.655,2.465,12.232,6.847,18.652,12.463a111.269,111.269,0,0,1,17.222,18.981l-.805.464A110.359,110.359,0,0,0,864.242,465.9C857.656,460.138,850.909,455.68,845.209,453.312Zm12.264,15.905a77.709,77.709,0,0,0-18.392-12.367l-.984.565c5.654,2.419,12.306,6.846,18.767,12.5a111.007,111.007,0,0,1,17.164,18.915l.8-.465A111.9,111.9,0,0,0,857.473,469.217Zm3.688-2.007c-6.362-5.565-12.894-9.93-18.522-12.414l-.986.569c5.676,2.392,12.376,6.832,18.9,12.541a110.667,110.667,0,0,1,17.094,18.832l.8-.465A111.424,111.424,0,0,0,861.162,467.211Zm-14.754,8.027a78.79,78.79,0,0,0-18-12.225l-.976.563A77.776,77.776,0,0,1,845.8,475.932,111.873,111.873,0,0,1,863.17,495.1l.805-.467A112.831,112.831,0,0,0,846.408,475.238Zm3.688-2.008a79.234,79.234,0,0,0-18.132-12.271l-.978.563c5.607,2.469,12.164,6.862,18.5,12.4a111.627,111.627,0,0,1,17.3,19.082l.805-.465A112.566,112.566,0,0,0,850.1,473.23Zm3.689-2.005a78.46,78.46,0,0,0-18.262-12.32l-.98.565c5.628,2.443,12.233,6.853,18.633,12.45a111.294,111.294,0,0,1,17.232,19l.805-.465A112.158,112.158,0,0,0,853.785,471.224Zm-11.066,6.019a79.686,79.686,0,0,0-17.869-12.177l-.971.56a77.62,77.62,0,0,1,18.231,12.312,112.245,112.245,0,0,1,17.442,19.248l.8-.465A113.117,113.117,0,0,0,842.719,477.243Zm-22.132,12.041A85.4,85.4,0,0,0,803.5,477.393l-.951.55a83.553,83.553,0,0,1,17.431,12.035,114.175,114.175,0,0,1,17.86,19.745l.805-.465A115.042,115.042,0,0,0,820.587,489.284Zm11.066-6.02a82.323,82.323,0,0,0-17.479-12.034l-.962.555a80.345,80.345,0,0,1,17.832,12.174,113.207,113.207,0,0,1,17.651,19.5l.8-.465A113.987,113.987,0,0,0,831.653,483.264Zm3.689-2.007a81.453,81.453,0,0,0-17.61-12.082l-.965.557a79.372,79.372,0,0,1,17.966,12.22,112.87,112.87,0,0,1,17.581,19.412l.8-.465A113.812,113.812,0,0,0,835.342,481.257Zm-7.378,4.013a83.334,83.334,0,0,0-17.349-11.987l-.958.555a81.3,81.3,0,0,1,17.7,12.127,113.622,113.622,0,0,1,17.721,19.579l.8-.464A114.416,114.416,0,0,0,827.964,485.27Zm-3.688,2.006a84.4,84.4,0,0,0-17.218-11.939l-.956.552a82.481,82.481,0,0,1,17.565,12.082,113.959,113.959,0,0,1,17.791,19.662l.8-.464A114.755,114.755,0,0,0,824.275,487.276Zm14.754-8.026a80.417,80.417,0,0,0-17.74-12.128l-.967.558a78.462,78.462,0,0,1,18.1,12.266,112.608,112.608,0,0,1,17.511,19.33l.8-.465A113.466,113.466,0,0,0,839.029,479.25Z" transform="translate(-716.039 25.604)" fill="url(#linear-gradient-2)"/>
    <path id="Path_8034" data-name="Path 8034" d="M866.264,544.909c4.752-1.747,11.4-1.753,19.112.408A62.183,62.183,0,0,1,906.6,556.208l54.686-31.573a62.17,62.17,0,0,0-21.223-10.89c-7.712-2.16-14.359-2.156-19.111-.409Z" transform="translate(-748.12 -4.269)" fill="url(#linear-gradient-29)"/>
    <path id="Path_8035" data-name="Path 8035" d="M934.1,528.565a62.3,62.3,0,0,1,18.744,9.066l-.885.511a61.274,61.274,0,0,0-18.108-8.686,32.859,32.859,0,0,0-13.539-1.221l1.964-1.135A36.456,36.456,0,0,1,934.1,528.565Zm-8.368-3.461-2.019,1.164a32.792,32.792,0,0,1,13.973,1.187,61.022,61.022,0,0,1,17.927,8.577l.886-.511a62.055,62.055,0,0,0-18.563-8.956A36.4,36.4,0,0,0,925.733,525.1Zm-6.908,3.989-1.908,1.1a33.218,33.218,0,0,1,13.1,1.263,61.611,61.611,0,0,1,18.288,8.794l.883-.509a62.6,62.6,0,0,0-18.922-9.175A36.632,36.632,0,0,0,918.825,529.093Zm-3.437,1.984-1.861,1.074a33.078,33.078,0,0,1,12.655,1.305,61.857,61.857,0,0,1,18.47,8.9l.883-.509a62.858,62.858,0,0,0-19.1-9.285A36.459,36.459,0,0,0,915.388,531.077Zm17.261-9.966-2.123,1.225c4.075-.824,9.259-.444,14.83,1.117a60.546,60.546,0,0,1,17.565,8.36l.887-.512a61.546,61.546,0,0,0-18.2-8.737A36.536,36.536,0,0,0,932.649,521.11Zm-3.46,2-2.07,1.194a32.736,32.736,0,0,1,14.4,1.151,60.843,60.843,0,0,1,17.746,8.468l.886-.511a61.768,61.768,0,0,0-18.383-8.847A36.4,36.4,0,0,0,929.189,523.108Zm4.742-2.739c4.165-.9,9.5-.533,15.259,1.082a60.258,60.258,0,0,1,17.385,8.25l.888-.512a60.408,60.408,0,0,0-18.024-8.629,37.348,37.348,0,0,0-12.761-1.495c-.325.09-.661.169-.969.277Zm-35.77,20.652-1.537.887a38.35,38.35,0,0,1,10.383,1.55,63.277,63.277,0,0,1,19.372,9.45l.88-.508a64.244,64.244,0,0,0-20-9.831A41.273,41.273,0,0,0,898.162,541.022Zm13.775-7.953-1.8,1.038a33.664,33.664,0,0,1,12.209,1.35A62.144,62.144,0,0,1,941,544.47l.882-.508a63.113,63.113,0,0,0-19.283-9.395A36.939,36.939,0,0,0,911.937,533.069ZM901.6,539.036l-1.6.926a37.1,37.1,0,0,1,10.846,1.5,62.959,62.959,0,0,1,19.191,9.34l.88-.507a63.969,63.969,0,0,0-19.822-9.722A39.97,39.97,0,0,0,901.6,539.036ZM894.727,543l-1.475.853a40.973,40.973,0,0,1,9.92,1.606,63.487,63.487,0,0,1,19.552,9.558l.879-.509a64.587,64.587,0,0,0-20.183-9.94A43.981,43.981,0,0,0,894.727,543Zm10.318-5.956-1.671.965a35.583,35.583,0,0,1,11.3,1.447,62.678,62.678,0,0,1,19.01,9.23l.882-.507a63.742,63.742,0,0,0-19.642-9.614A38.587,38.587,0,0,0,905.045,537.047Zm3.446-1.989-1.736,1a34.488,34.488,0,0,1,11.757,1.4,62.44,62.44,0,0,1,18.831,9.122l.881-.508a63.445,63.445,0,0,0-19.463-9.5A37.562,37.562,0,0,0,908.491,535.058Z" transform="translate(-761.709 -7.75)" fill="url(#linear-gradient-2)"/>
    <path id="Path_8036" data-name="Path 8036" d="M871.042,661.992l-52.257-30.17,11.449-6.608,52.256,30.169Z" transform="translate(-724.215 -61.237)" opacity="0.5" style="mix-blend-mode: overlay;isolation: isolate"/>
    <path id="Path_8037" data-name="Path 8037" d="M878.045,655.384l-52.257-30.169-11.448,6.608V633.1l52.257,30.17,11.448-6.609Z" transform="translate(-721.977 -61.237)" fill="url(#linear-gradient-45)"/>
    <path id="Path_8038" data-name="Path 8038" d="M866.6,668.693l-52.257-30.17V639.8L866.6,669.97l11.448-6.609v-1.276Z" transform="translate(-721.977 -67.938)" opacity="0.5" style="mix-blend-mode: overlay;isolation: isolate"/>
    <path id="Path_8039" data-name="Path 8039" d="M859.069,641.005c.02-.011.05-.006.073-.016l.777.449c-.014.009-.022.025-.041.033l-5.258,3.037a.9.9,0,0,1-.808,0c-.226-.129-.225-.337,0-.469Zm-10.053-1.679c-.223.127-.221.337,0,.467a.879.879,0,0,0,.809,0l3.572-2.06c.017-.011.025-.026.042-.036l-.779-.449c-.022.008-.052.006-.073.015Zm8.1,4.678c-.222.128-.221.336,0,.465a.9.9,0,0,0,.809,0l3.573-2.062a.371.371,0,0,0,.041-.038l-.779-.449c-.022.012-.052.006-.073.018Zm-4.858-2.807a.246.246,0,0,0,0,.467.891.891,0,0,0,.809,0l3.572-2.062c.018-.009.027-.025.041-.036l-.778-.449c-.022.01-.052.007-.073.017Zm-1.62-.935a.246.246,0,0,0,0,.466.9.9,0,0,0,.809,0l3.572-2.064c.018-.013.027-.025.041-.036l-.777-.449c-.022.009-.053.005-.073.017Zm3.239,1.869a.247.247,0,0,0,0,.468.882.882,0,0,0,.808,0l3.573-2.061a.349.349,0,0,0,.041-.035l-.778-.451c-.022.009-.052.007-.074.018Zm11.34,6.548a.246.246,0,0,0,0,.466.9.9,0,0,0,.809,0l3.573-2.064c.018-.01.026-.025.042-.036l-.778-.449c-.022.01-.055.006-.075.017Zm-4.861-2.805c-.224.129-.221.335,0,.467a.9.9,0,0,0,.807,0l3.573-2.064a.536.536,0,0,0,.041-.035l-.776-.451c-.024.013-.054.008-.074.019Zm9.722,6.079a.9.9,0,0,0,.807,0l3.574-2.064a.547.547,0,0,0,.041-.037l-.778-.446c-.023.01-.054,0-.075.016l-3.573,2.06A.249.249,0,0,0,870.078,651.953Zm-32.464-16.8a.894.894,0,0,0,.809,0l5.256-3.036a.174.174,0,0,0,.041-.037l-.777-.448c-.022.008-.053,0-.073.018l-5.258,3.037C837.389,634.818,837.39,635.026,837.614,635.157Zm24.362,11.653a.246.246,0,0,0,0,.465.9.9,0,0,0,.809,0l3.573-2.064c.016-.007.025-.024.041-.036l-.779-.45c-.021.011-.051.008-.071.02Zm-.067,1.907a.248.248,0,0,0,0,.469.9.9,0,0,0,.808,0l5.259-3.038c.017-.009.024-.023.041-.033l-.781-.453c-.02.011-.05.007-.071.02Zm-3.173-3.777c-.224.126-.223.335,0,.465a.891.891,0,0,0,.808,0l3.574-2.065a.161.161,0,0,0,.04-.036l-.777-.449c-.023.011-.054.007-.073.018Zm19,6.787-.779-.45c-.021.008-.052,0-.073.017l-3.572,2.063c-.223.129-.223.336,0,.468a.9.9,0,0,0,.807,0l3.573-2.063C877.716,651.75,877.724,651.736,877.739,651.726Zm-1.62-.937-.778-.448c-.021.009-.053,0-.072.018l-5.26,3.035c-.222.13-.222.335,0,.467a.894.894,0,0,0,.807,0l5.258-3.037C876.1,650.816,876.1,650.8,876.119,650.789Zm3.238,1.869-.776-.446c-.023.01-.053,0-.073.016l-3.574,2.061a.248.248,0,0,0,0,.469.9.9,0,0,0,.808,0l3.574-2.062A.441.441,0,0,0,879.357,652.658Zm4.085,2.358c-.023.01-.052.007-.075.018l-5.258,3.033a.247.247,0,0,0,0,.469.894.894,0,0,0,.807,0l5.258-3.036c.018-.012.027-.025.041-.036ZM880.98,653.6l-.779-.449c-.022.008-.054,0-.073.015l-3.573,2.064a.247.247,0,0,0,0,.467.893.893,0,0,0,.809,0l3.572-2.061C880.956,653.62,880.964,653.607,880.98,653.6Zm-35.269-14.232a.247.247,0,0,0,0,.468.892.892,0,0,0,.808,0l5.257-3.036c.019-.011.027-.026.043-.036l-.778-.45c-.023.009-.053.007-.074.015Zm27.167,9.554-.778-.448c-.022.009-.052.006-.073.018l-3.573,2.062a.247.247,0,0,0,0,.468.9.9,0,0,0,.81,0l3.572-2.063A.184.184,0,0,0,872.878,648.918Zm-28.72-12.4c-.224.128-.223.336,0,.468a.915.915,0,0,0,.809,0l3.573-2.064a.308.308,0,0,0,.041-.035l-.78-.448c-.021.008-.053,0-.072.017Zm1.619.932a.249.249,0,0,0,0,.471.9.9,0,0,0,.808,0l3.573-2.065c.018-.012.027-.025.043-.037l-.778-.447c-.025.011-.055.005-.074.017Zm32.4,19.175a.9.9,0,0,0,.809,0l3.572-2.064c.019-.01.025-.024.043-.035l-.78-.448a.608.608,0,0,0-.071.016l-3.575,2.063C877.951,656.289,877.953,656.5,878.176,656.629Zm-35.639-21.043c-.222.127-.221.337,0,.467a.891.891,0,0,0,.807,0l3.574-2.062a.255.255,0,0,0,.041-.038l-.779-.446c-.022.009-.052,0-.073.014Zm28.724,12.4-.779-.448c-.022.01-.053.006-.073.017l-3.572,2.063c-.224.128-.225.336,0,.466a.893.893,0,0,0,.807,0l3.572-2.064C871.236,648.009,871.244,647.994,871.26,647.983Zm-30.344-13.334a.248.248,0,0,0,0,.469.894.894,0,0,0,.807,0l3.573-2.062c.019-.011.027-.026.041-.034l-.777-.449c-.022.009-.053.005-.074.016Z" transform="translate(-733.61 -64.47)" fill="#fff" opacity="0.7"/>
    <path id="Path_8040" data-name="Path 8040" d="M1144.675,274.986c-.563-.862-1.644-1.052-2.9-.329L1064,319.563a7.33,7.33,0,0,0-3.316,5.739v21.673a2.317,2.317,0,0,0,.973,2.141h0l-1.12-.645v0a2.336,2.336,0,0,1-.959-2.134V324.664a7.321,7.321,0,0,1,3.316-5.739l77.777-44.906a2.328,2.328,0,0,1,2.351-.227v0l1.1.635A1.7,1.7,0,0,1,1144.675,274.986Z" transform="translate(-845.453 115.818)" fill="url(#linear-gradient-46)"/>
    <path id="Path_8041" data-name="Path 8041" d="M1144.675,274.986c-.563-.862-1.644-1.052-2.9-.329L1064,319.563a7.33,7.33,0,0,0-3.316,5.739v21.673a2.317,2.317,0,0,0,.973,2.141h0l-1.12-.645v0a2.336,2.336,0,0,1-.959-2.134V324.664a7.321,7.321,0,0,1,3.316-5.739l77.777-44.906a2.328,2.328,0,0,1,2.351-.227v0l1.1.635A1.7,1.7,0,0,1,1144.675,274.986Z" transform="translate(-845.453 115.818)" opacity="0.4" style="mix-blend-mode: overlay;isolation: isolate"/>
    <path id="Path_8042" data-name="Path 8042" d="M1065.119,320.21,1142.9,275.3c1.832-1.054,3.317-.2,3.318,1.913v21.668a7.329,7.329,0,0,1-3.318,5.741l-77.776,44.906c-1.829,1.055-3.317.2-3.317-1.91V325.949A7.33,7.33,0,0,1,1065.119,320.21Z" transform="translate(-846.574 115.171)" fill="url(#linear-gradient-47)"/>
    <path id="Path_8043" data-name="Path 8043" d="M1136.5,307.275a.4.4,0,0,1,.138.079.416.416,0,0,1,.137.08.383.383,0,0,1,.138.079.362.362,0,0,1,.137.08.4.4,0,0,1,.138.08.406.406,0,0,1,.14.079.412.412,0,0,1,.138.08h0a.6.6,0,0,0-.483.073,1.766,1.766,0,0,0-.793,1.376v4.864a.584.584,0,0,0,.176.451.323.323,0,0,1-.136-.079.34.34,0,0,1-.139-.08.35.35,0,0,1-.138-.079.345.345,0,0,1-.137-.08,20.967,20.967,0,0,0-.276-.159.338.338,0,0,1-.14-.08.5.5,0,0,1-.315-.531v-4.862a1.768,1.768,0,0,1,.792-1.378A.506.506,0,0,1,1136.5,307.275Zm6.85-1.768a.591.591,0,0,1,.481-.072h0a.414.414,0,0,0-.135-.082.472.472,0,0,0-.14-.077.379.379,0,0,0-.139-.079.369.369,0,0,0-.138-.08.364.364,0,0,0-.138-.079.37.37,0,0,0-.138-.08.436.436,0,0,0-.137-.082.508.508,0,0,0-.621,0,1.746,1.746,0,0,0-.8,1.373v2.316a.5.5,0,0,0,.315.531.41.41,0,0,0,.137.079.428.428,0,0,0,.139.08.378.378,0,0,0,.138.08.371.371,0,0,0,.139.08.353.353,0,0,0,.137.08.377.377,0,0,0,.14.08.352.352,0,0,0,.138.079.574.574,0,0,1-.178-.451V306.88A1.743,1.743,0,0,1,1143.349,305.507Zm-63.387,41.64c0,.185.083.3.221.317a.4.4,0,0,0,.22-.063.822.822,0,0,0,.221-.191l4.464-5.552a.947.947,0,0,0,.222-.572c0-.179-.084-.3-.222-.314l-4.462-.394,3.53.311a1.024,1.024,0,0,1-.173.329l-4.02,5v1.127Zm27.276-22.067a1.74,1.74,0,0,0-.793,1.371l0,2.316a.5.5,0,0,0,.315.531.4.4,0,0,0,.141.08.375.375,0,0,0,.138.079.387.387,0,0,0,.136.08.371.371,0,0,0,.138.08.377.377,0,0,0,.138.079.385.385,0,0,0,.138.08.328.328,0,0,0,.139.077.572.572,0,0,1-.177-.448V327.09a1.751,1.751,0,0,1,.794-1.371.585.585,0,0,1,.482-.075h0a.376.376,0,0,0-.137-.08,49.765,49.765,0,0,1-.276-.159.374.374,0,0,0-.139-.08.378.378,0,0,0-.138-.079.4.4,0,0,0-.137-.08.38.38,0,0,0-.139-.079A.5.5,0,0,0,1107.238,325.081ZM1098,336.192v-4.864a1.756,1.756,0,0,1,.794-1.374.576.576,0,0,1,.482-.074h0a.342.342,0,0,0-.137-.08.379.379,0,0,0-.14-.08.362.362,0,0,0-.138-.079.389.389,0,0,0-.137-.08.373.373,0,0,0-.14-.08.358.358,0,0,0-.139-.079.315.315,0,0,0-.136-.08.5.5,0,0,0-.62-.007,1.762,1.762,0,0,0-.794,1.376v4.861a.5.5,0,0,0,.315.534.386.386,0,0,0,.137.079.4.4,0,0,0,.138.08.381.381,0,0,0,.14.08.36.36,0,0,0,.138.079.418.418,0,0,0,.137.08.435.435,0,0,0,.139.08.374.374,0,0,0,.138.079h0A.584.584,0,0,1,1098,336.192Zm11.94-6.179a.365.365,0,0,0,.136.079.375.375,0,0,0,.139.079.352.352,0,0,0,.138.08.37.37,0,0,0,.138.079.363.363,0,0,0,.139.08.349.349,0,0,0,.139.08.335.335,0,0,0,.137.08.578.578,0,0,1-.176-.454v-7.411a1.76,1.76,0,0,1,.8-1.376.582.582,0,0,1,.48-.072.359.359,0,0,0-.139-.079.355.355,0,0,0-.138-.08.363.363,0,0,0-.137-.079.433.433,0,0,0-.137-.082.467.467,0,0,0-.138-.079.393.393,0,0,0-.139-.078.349.349,0,0,0-.139-.079.5.5,0,0,0-.619-.007,1.758,1.758,0,0,0-.794,1.376v7.414A.5.5,0,0,0,1109.942,330.012Zm6.362-6.225a.429.429,0,0,0,.138.079.406.406,0,0,0,.14.08.392.392,0,0,0,.137.08.4.4,0,0,0,.137.079.436.436,0,0,0,.139.08.389.389,0,0,0,.138.08.4.4,0,0,0,.137.079h0a.593.593,0,0,1-.177-.451l0-2.316a1.746,1.746,0,0,1,.791-1.371.577.577,0,0,1,.483-.074.392.392,0,0,0-.137-.08.381.381,0,0,0-.137-.079.391.391,0,0,0-.14-.08,19.942,19.942,0,0,1-.276-.159.375.375,0,0,0-.138-.08.388.388,0,0,0-.138-.08.5.5,0,0,0-.622-.005,1.747,1.747,0,0,0-.792,1.371v2.316A.5.5,0,0,0,1116.3,323.787Zm-12.727,12.447a.333.333,0,0,0,.137.082,32.6,32.6,0,0,1,.277.16.4.4,0,0,0,.137.077.407.407,0,0,0,.139.079.327.327,0,0,0,.14.08.346.346,0,0,0,.136.082h0a.6.6,0,0,1-.176-.454V323.829a1.757,1.757,0,0,1,.8-1.376.58.58,0,0,1,.48-.072h0a.318.318,0,0,0-.138-.079.36.36,0,0,0-.138-.08.351.351,0,0,0-.138-.08,43.691,43.691,0,0,0-.276-.159.368.368,0,0,0-.139-.08.317.317,0,0,0-.138-.079.5.5,0,0,0-.619-.008,1.764,1.764,0,0,0-.8,1.376l0,12.512A.5.5,0,0,0,1103.577,336.234Zm9.232-13.457,0,2.316a.5.5,0,0,0,.316.531,21.278,21.278,0,0,0,.278.159.391.391,0,0,0,.137.08.416.416,0,0,0,.137.08.368.368,0,0,0,.138.079.38.38,0,0,0,.139.08.389.389,0,0,0,.138.08.588.588,0,0,1-.177-.451l0-2.316a1.749,1.749,0,0,1,.792-1.371.589.589,0,0,1,.483-.075h0a.369.369,0,0,0-.138-.079,34.839,34.839,0,0,1-.275-.16.376.376,0,0,0-.14-.079.359.359,0,0,0-.136-.08.367.367,0,0,0-.139-.08.347.347,0,0,0-.139-.079.5.5,0,0,0-.62,0A1.751,1.751,0,0,0,1112.809,322.777Zm-12.414,12.746a.354.354,0,0,0,.138.079.334.334,0,0,0,.139.08.36.36,0,0,0,.138.08.367.367,0,0,0,.138.08.327.327,0,0,0,.14.079.322.322,0,0,0,.137.08.358.358,0,0,0,.137.079.594.594,0,0,1-.178-.453v-7.411a1.762,1.762,0,0,1,.795-1.376.58.58,0,0,1,.481-.072,63777706932.464,63777706932.464,0,0,1-.277-.16.382.382,0,0,0-.137-.079.4.4,0,0,0-.139-.08.358.358,0,0,0-.138-.08,19.105,19.105,0,0,1-.278-.159.5.5,0,0,0-.617-.007,1.758,1.758,0,0,0-.8,1.376v7.411A.505.505,0,0,0,1100.394,335.523Zm-24.473,10.986a13.722,13.722,0,0,1,6.22-10.764c1.68-.972,3.2-1.077,4.324-.474l-.135-.079-.14-.08c-.045-.025-.091-.053-.139-.08s-.09-.053-.137-.077-.09-.055-.138-.08-.091-.055-.139-.08l-.138-.082c-1.132-.691-2.712-.618-4.465.394a13.723,13.723,0,0,0-6.219,10.764c0,2.019.727,3.422,1.893,4.055.047.025.091.053.14.077a1.242,1.242,0,0,0,.138.08c.044.03.089.055.137.082s.09.052.138.079l.138.078c.044.027.092.055.138.079s.09.055.136.08C1076.591,349.817,1075.922,348.449,1075.922,346.509Zm18.108-4.761a.442.442,0,0,0,.139.079.428.428,0,0,0,.138.08.41.41,0,0,0,.138.08.417.417,0,0,0,.137.079.4.4,0,0,0,.139.08.4.4,0,0,0,.138.079.4.4,0,0,0,.138.077.583.583,0,0,1-.178-.451l0-12.514a1.742,1.742,0,0,1,.792-1.371.581.581,0,0,1,.48-.075.347.347,0,0,0-.136-.079.411.411,0,0,0-.137-.08.375.375,0,0,0-.138-.08.39.39,0,0,0-.14-.08.367.367,0,0,0-.139-.079,25.47,25.47,0,0,0-.276-.159.5.5,0,0,0-.619-.008,1.762,1.762,0,0,0-.795,1.376v12.512A.5.5,0,0,0,1094.03,341.748Zm38.186-22.047a32.81,32.81,0,0,0,.276.16.431.431,0,0,0,.139.08.388.388,0,0,0,.14.077.325.325,0,0,0,.138.079.357.357,0,0,0,.137.082.406.406,0,0,0,.137.08h0a.58.58,0,0,1-.177-.453V307.294a1.766,1.766,0,0,1,.8-1.376.593.593,0,0,1,.482-.072.393.393,0,0,0-.138-.08.384.384,0,0,0-.14-.08.367.367,0,0,0-.139-.079,24.259,24.259,0,0,0-.275-.16.387.387,0,0,0-.139-.079.372.372,0,0,0-.137-.08.5.5,0,0,0-.619-.007,1.763,1.763,0,0,0-.8,1.376v12.512A.5.5,0,0,0,1132.216,319.7Zm12.729-9.9a11.719,11.719,0,0,0,.278.16.353.353,0,0,0,.137.079.375.375,0,0,0,.138.08.367.367,0,0,0,.138.08,190.975,190.975,0,0,0,.277.159.579.579,0,0,1-.179-.453l0-7.411a1.756,1.756,0,0,1,.792-1.379.577.577,0,0,1,.48-.07.321.321,0,0,0-.137-.079.367.367,0,0,0-.137-.08.385.385,0,0,0-.139-.08.324.324,0,0,0-.139-.079.307.307,0,0,0-.138-.08.319.319,0,0,0-.138-.08.325.325,0,0,0-.139-.079.5.5,0,0,0-.618-.01,1.755,1.755,0,0,0-.791,1.378l0,7.412A.5.5,0,0,0,1144.945,309.8Zm-6.364,4.949a.4.4,0,0,0,.137.079,29.455,29.455,0,0,1,.277.16.381.381,0,0,0,.138.079.368.368,0,0,0,.138.079.412.412,0,0,0,.138.08.387.387,0,0,0,.139.079h0a.573.573,0,0,1-.179-.451v-9.964a1.752,1.752,0,0,1,.795-1.374.6.6,0,0,1,.481-.072.332.332,0,0,0-.137-.079.343.343,0,0,0-.138-.08,58.542,58.542,0,0,1-.276-.159.337.337,0,0,0-.137-.08.361.361,0,0,0-.14-.08.351.351,0,0,0-.138-.079.505.505,0,0,0-.621-.008,1.754,1.754,0,0,0-.794,1.374l0,9.963A.5.5,0,0,0,1138.581,314.75Zm-19.094,8.473a.36.36,0,0,0,.139.08.369.369,0,0,0,.139.079.373.373,0,0,0,.137.08.385.385,0,0,0,.138.079.373.373,0,0,0,.139.08.369.369,0,0,0,.138.08.343.343,0,0,0,.138.08h0a.584.584,0,0,1-.177-.451V318.47a1.761,1.761,0,0,1,.8-1.378.575.575,0,0,1,.479-.072.379.379,0,0,0-.136-.08.394.394,0,0,0-.139-.08.384.384,0,0,0-.139-.079.337.337,0,0,0-.138-.08.323.323,0,0,0-.138-.079,18.726,18.726,0,0,1-.275-.159.5.5,0,0,0-.619-.008,1.76,1.76,0,0,0-.8,1.376l0,4.863A.5.5,0,0,0,1119.486,323.224Zm3.183.711a.358.358,0,0,0,.138.082.376.376,0,0,0,.139.079,26.737,26.737,0,0,0,.276.16.339.339,0,0,0,.138.078.358.358,0,0,0,.138.079.33.33,0,0,0,.138.08.574.574,0,0,1-.177-.449l0-9.963a1.748,1.748,0,0,1,.793-1.374.592.592,0,0,1,.481-.073.388.388,0,0,0-.136-.079.4.4,0,0,0-.138-.08.394.394,0,0,0-.14-.08.374.374,0,0,0-.139-.079.352.352,0,0,0-.136-.08.361.361,0,0,0-.139-.08.393.393,0,0,0-.137-.079.507.507,0,0,0-.622-.008,1.751,1.751,0,0,0-.793,1.374l0,9.964A.5.5,0,0,0,1122.669,323.935Zm3.183-3.109a.364.364,0,0,0,.138.08.368.368,0,0,0,.139.079.324.324,0,0,0,.137.08.372.372,0,0,0,.138.079.368.368,0,0,0,.14.08.353.353,0,0,0,.136.08.361.361,0,0,0,.139.079.577.577,0,0,1-.179-.451v-7.414a1.761,1.761,0,0,1,.8-1.376.565.565,0,0,1,.478-.072h0a.334.334,0,0,0-.139-.08.328.328,0,0,0-.137-.08.339.339,0,0,0-.137-.079,15.276,15.276,0,0,0-.278-.162.321.321,0,0,0-.138-.077.3.3,0,0,0-.14-.08.494.494,0,0,0-.616-.007,1.757,1.757,0,0,0-.8,1.376v7.413A.5.5,0,0,0,1125.853,320.826Zm2.866-7.232v2.314a.5.5,0,0,0,.316.528.378.378,0,0,0,.138.082,24.757,24.757,0,0,0,.277.159.358.358,0,0,0,.137.08.321.321,0,0,0,.137.077.317.317,0,0,0,.138.08.35.35,0,0,0,.139.08h0a.569.569,0,0,1-.178-.449l0-2.316a1.748,1.748,0,0,1,.793-1.373.593.593,0,0,1,.482-.073h0a1475.112,1475.112,0,0,1-.278-.159.37.37,0,0,0-.137-.08.376.376,0,0,0-.138-.079.37.37,0,0,0-.138-.08.352.352,0,0,0-.137-.08.344.344,0,0,0-.138-.079.507.507,0,0,0-.622-.007A1.758,1.758,0,0,0,1128.719,313.594Z" transform="translate(-853.126 102.318)" fill="url(#linear-gradient-48)"/>
    <path id="Path_8044" data-name="Path 8044" d="M1136.5,307.275a.4.4,0,0,1,.138.079.416.416,0,0,1,.137.08.383.383,0,0,1,.138.079.362.362,0,0,1,.137.08.4.4,0,0,1,.138.08.406.406,0,0,1,.14.079.412.412,0,0,1,.138.08h0a.6.6,0,0,0-.483.073,1.766,1.766,0,0,0-.793,1.376v4.864a.584.584,0,0,0,.176.451.323.323,0,0,1-.136-.079.34.34,0,0,1-.139-.08.35.35,0,0,1-.138-.079.345.345,0,0,1-.137-.08,20.967,20.967,0,0,0-.276-.159.338.338,0,0,1-.14-.08.5.5,0,0,1-.315-.531v-4.862a1.768,1.768,0,0,1,.792-1.378A.506.506,0,0,1,1136.5,307.275Zm6.85-1.768a.591.591,0,0,1,.481-.072h0a.414.414,0,0,0-.135-.082.472.472,0,0,0-.14-.077.379.379,0,0,0-.139-.079.369.369,0,0,0-.138-.08.364.364,0,0,0-.138-.079.37.37,0,0,0-.138-.08.436.436,0,0,0-.137-.082.508.508,0,0,0-.621,0,1.746,1.746,0,0,0-.8,1.373v2.316a.5.5,0,0,0,.315.531.41.41,0,0,0,.137.079.428.428,0,0,0,.139.08.378.378,0,0,0,.138.08.371.371,0,0,0,.139.08.353.353,0,0,0,.137.08.377.377,0,0,0,.14.08.352.352,0,0,0,.138.079.574.574,0,0,1-.178-.451V306.88A1.743,1.743,0,0,1,1143.349,305.507Zm-63.387,41.64c0,.185.083.3.221.317a.4.4,0,0,0,.22-.063.822.822,0,0,0,.221-.191l4.464-5.552a.947.947,0,0,0,.222-.572c0-.179-.084-.3-.222-.314l-4.462-.394,3.53.311a1.024,1.024,0,0,1-.173.329l-4.02,5v1.127Zm27.276-22.067a1.74,1.74,0,0,0-.793,1.371l0,2.316a.5.5,0,0,0,.315.531.4.4,0,0,0,.141.08.375.375,0,0,0,.138.079.387.387,0,0,0,.136.08.371.371,0,0,0,.138.08.377.377,0,0,0,.138.079.385.385,0,0,0,.138.08.328.328,0,0,0,.139.077.572.572,0,0,1-.177-.448V327.09a1.751,1.751,0,0,1,.794-1.371.585.585,0,0,1,.482-.075h0a.376.376,0,0,0-.137-.08,49.765,49.765,0,0,1-.276-.159.374.374,0,0,0-.139-.08.378.378,0,0,0-.138-.079.4.4,0,0,0-.137-.08.38.38,0,0,0-.139-.079A.5.5,0,0,0,1107.238,325.081ZM1098,336.192v-4.864a1.756,1.756,0,0,1,.794-1.374.576.576,0,0,1,.482-.074h0a.342.342,0,0,0-.137-.08.379.379,0,0,0-.14-.08.362.362,0,0,0-.138-.079.389.389,0,0,0-.137-.08.373.373,0,0,0-.14-.08.358.358,0,0,0-.139-.079.315.315,0,0,0-.136-.08.5.5,0,0,0-.62-.007,1.762,1.762,0,0,0-.794,1.376v4.861a.5.5,0,0,0,.315.534.386.386,0,0,0,.137.079.4.4,0,0,0,.138.08.381.381,0,0,0,.14.08.36.36,0,0,0,.138.079.418.418,0,0,0,.137.08.435.435,0,0,0,.139.08.374.374,0,0,0,.138.079h0A.584.584,0,0,1,1098,336.192Zm11.94-6.179a.365.365,0,0,0,.136.079.375.375,0,0,0,.139.079.352.352,0,0,0,.138.08.37.37,0,0,0,.138.079.363.363,0,0,0,.139.08.349.349,0,0,0,.139.08.335.335,0,0,0,.137.08.578.578,0,0,1-.176-.454v-7.411a1.76,1.76,0,0,1,.8-1.376.582.582,0,0,1,.48-.072.359.359,0,0,0-.139-.079.355.355,0,0,0-.138-.08.363.363,0,0,0-.137-.079.433.433,0,0,0-.137-.082.467.467,0,0,0-.138-.079.393.393,0,0,0-.139-.078.349.349,0,0,0-.139-.079.5.5,0,0,0-.619-.007,1.758,1.758,0,0,0-.794,1.376v7.414A.5.5,0,0,0,1109.942,330.012Zm6.362-6.225a.429.429,0,0,0,.138.079.406.406,0,0,0,.14.08.392.392,0,0,0,.137.08.4.4,0,0,0,.137.079.436.436,0,0,0,.139.08.389.389,0,0,0,.138.08.4.4,0,0,0,.137.079h0a.593.593,0,0,1-.177-.451l0-2.316a1.746,1.746,0,0,1,.791-1.371.577.577,0,0,1,.483-.074.392.392,0,0,0-.137-.08.381.381,0,0,0-.137-.079.391.391,0,0,0-.14-.08,19.942,19.942,0,0,1-.276-.159.375.375,0,0,0-.138-.08.388.388,0,0,0-.138-.08.5.5,0,0,0-.622-.005,1.747,1.747,0,0,0-.792,1.371v2.316A.5.5,0,0,0,1116.3,323.787Zm-12.727,12.447a.333.333,0,0,0,.137.082,32.6,32.6,0,0,1,.277.16.4.4,0,0,0,.137.077.407.407,0,0,0,.139.079.327.327,0,0,0,.14.08.346.346,0,0,0,.136.082h0a.6.6,0,0,1-.176-.454V323.829a1.757,1.757,0,0,1,.8-1.376.58.58,0,0,1,.48-.072h0a.318.318,0,0,0-.138-.079.36.36,0,0,0-.138-.08.351.351,0,0,0-.138-.08,43.691,43.691,0,0,0-.276-.159.368.368,0,0,0-.139-.08.317.317,0,0,0-.138-.079.5.5,0,0,0-.619-.008,1.764,1.764,0,0,0-.8,1.376l0,12.512A.5.5,0,0,0,1103.577,336.234Zm9.232-13.457,0,2.316a.5.5,0,0,0,.316.531,21.278,21.278,0,0,0,.278.159.391.391,0,0,0,.137.08.416.416,0,0,0,.137.08.368.368,0,0,0,.138.079.38.38,0,0,0,.139.08.389.389,0,0,0,.138.08.588.588,0,0,1-.177-.451l0-2.316a1.749,1.749,0,0,1,.792-1.371.589.589,0,0,1,.483-.075h0a.369.369,0,0,0-.138-.079,34.839,34.839,0,0,1-.275-.16.376.376,0,0,0-.14-.079.359.359,0,0,0-.136-.08.367.367,0,0,0-.139-.08.347.347,0,0,0-.139-.079.5.5,0,0,0-.62,0A1.751,1.751,0,0,0,1112.809,322.777Zm-12.414,12.746a.354.354,0,0,0,.138.079.334.334,0,0,0,.139.08.36.36,0,0,0,.138.08.367.367,0,0,0,.138.08.327.327,0,0,0,.14.079.322.322,0,0,0,.137.08.358.358,0,0,0,.137.079.594.594,0,0,1-.178-.453v-7.411a1.762,1.762,0,0,1,.795-1.376.58.58,0,0,1,.481-.072,63777706932.464,63777706932.464,0,0,1-.277-.16.382.382,0,0,0-.137-.079.4.4,0,0,0-.139-.08.358.358,0,0,0-.138-.08,19.105,19.105,0,0,1-.278-.159.5.5,0,0,0-.617-.007,1.758,1.758,0,0,0-.8,1.376v7.411A.505.505,0,0,0,1100.394,335.523Zm-24.473,10.986a13.722,13.722,0,0,1,6.22-10.764c1.68-.972,3.2-1.077,4.324-.474l-.135-.079-.14-.08c-.045-.025-.091-.053-.139-.08s-.09-.053-.137-.077-.09-.055-.138-.08-.091-.055-.139-.08l-.138-.082c-1.132-.691-2.712-.618-4.465.394a13.723,13.723,0,0,0-6.219,10.764c0,2.019.727,3.422,1.893,4.055.047.025.091.053.14.077a1.242,1.242,0,0,0,.138.08c.044.03.089.055.137.082s.09.052.138.079l.138.078c.044.027.092.055.138.079s.09.055.136.08C1076.591,349.817,1075.922,348.449,1075.922,346.509Zm18.108-4.761a.442.442,0,0,0,.139.079.428.428,0,0,0,.138.08.41.41,0,0,0,.138.08.417.417,0,0,0,.137.079.4.4,0,0,0,.139.08.4.4,0,0,0,.138.079.4.4,0,0,0,.138.077.583.583,0,0,1-.178-.451l0-12.514a1.742,1.742,0,0,1,.792-1.371.581.581,0,0,1,.48-.075.347.347,0,0,0-.136-.079.411.411,0,0,0-.137-.08.375.375,0,0,0-.138-.08.39.39,0,0,0-.14-.08.367.367,0,0,0-.139-.079,25.47,25.47,0,0,0-.276-.159.5.5,0,0,0-.619-.008,1.762,1.762,0,0,0-.795,1.376v12.512A.5.5,0,0,0,1094.03,341.748Zm38.186-22.047a32.81,32.81,0,0,0,.276.16.431.431,0,0,0,.139.08.388.388,0,0,0,.14.077.325.325,0,0,0,.138.079.357.357,0,0,0,.137.082.406.406,0,0,0,.137.08h0a.58.58,0,0,1-.177-.453V307.294a1.766,1.766,0,0,1,.8-1.376.593.593,0,0,1,.482-.072.393.393,0,0,0-.138-.08.384.384,0,0,0-.14-.08.367.367,0,0,0-.139-.079,24.259,24.259,0,0,0-.275-.16.387.387,0,0,0-.139-.079.372.372,0,0,0-.137-.08.5.5,0,0,0-.619-.007,1.763,1.763,0,0,0-.8,1.376v12.512A.5.5,0,0,0,1132.216,319.7Zm12.729-9.9a11.719,11.719,0,0,0,.278.16.353.353,0,0,0,.137.079.375.375,0,0,0,.138.08.367.367,0,0,0,.138.08,190.975,190.975,0,0,0,.277.159.579.579,0,0,1-.179-.453l0-7.411a1.756,1.756,0,0,1,.792-1.379.577.577,0,0,1,.48-.07.321.321,0,0,0-.137-.079.367.367,0,0,0-.137-.08.385.385,0,0,0-.139-.08.324.324,0,0,0-.139-.079.307.307,0,0,0-.138-.08.319.319,0,0,0-.138-.08.325.325,0,0,0-.139-.079.5.5,0,0,0-.618-.01,1.755,1.755,0,0,0-.791,1.378l0,7.412A.5.5,0,0,0,1144.945,309.8Zm-6.364,4.949a.4.4,0,0,0,.137.079,29.455,29.455,0,0,1,.277.16.381.381,0,0,0,.138.079.368.368,0,0,0,.138.079.412.412,0,0,0,.138.08.387.387,0,0,0,.139.079h0a.573.573,0,0,1-.179-.451v-9.964a1.752,1.752,0,0,1,.795-1.374.6.6,0,0,1,.481-.072.332.332,0,0,0-.137-.079.343.343,0,0,0-.138-.08,58.542,58.542,0,0,1-.276-.159.337.337,0,0,0-.137-.08.361.361,0,0,0-.14-.08.351.351,0,0,0-.138-.079.505.505,0,0,0-.621-.008,1.754,1.754,0,0,0-.794,1.374l0,9.963A.5.5,0,0,0,1138.581,314.75Zm-19.094,8.473a.36.36,0,0,0,.139.08.369.369,0,0,0,.139.079.373.373,0,0,0,.137.08.385.385,0,0,0,.138.079.373.373,0,0,0,.139.08.369.369,0,0,0,.138.08.343.343,0,0,0,.138.08h0a.584.584,0,0,1-.177-.451V318.47a1.761,1.761,0,0,1,.8-1.378.575.575,0,0,1,.479-.072.379.379,0,0,0-.136-.08.394.394,0,0,0-.139-.08.384.384,0,0,0-.139-.079.337.337,0,0,0-.138-.08.323.323,0,0,0-.138-.079,18.726,18.726,0,0,1-.275-.159.5.5,0,0,0-.619-.008,1.76,1.76,0,0,0-.8,1.376l0,4.863A.5.5,0,0,0,1119.486,323.224Zm3.183.711a.358.358,0,0,0,.138.082.376.376,0,0,0,.139.079,26.737,26.737,0,0,0,.276.16.339.339,0,0,0,.138.078.358.358,0,0,0,.138.079.33.33,0,0,0,.138.08.574.574,0,0,1-.177-.449l0-9.963a1.748,1.748,0,0,1,.793-1.374.592.592,0,0,1,.481-.073.388.388,0,0,0-.136-.079.4.4,0,0,0-.138-.08.394.394,0,0,0-.14-.08.374.374,0,0,0-.139-.079.352.352,0,0,0-.136-.08.361.361,0,0,0-.139-.08.393.393,0,0,0-.137-.079.507.507,0,0,0-.622-.008,1.751,1.751,0,0,0-.793,1.374l0,9.964A.5.5,0,0,0,1122.669,323.935Zm3.183-3.109a.364.364,0,0,0,.138.08.368.368,0,0,0,.139.079.324.324,0,0,0,.137.08.372.372,0,0,0,.138.079.368.368,0,0,0,.14.08.353.353,0,0,0,.136.08.361.361,0,0,0,.139.079.577.577,0,0,1-.179-.451v-7.414a1.761,1.761,0,0,1,.8-1.376.565.565,0,0,1,.478-.072h0a.334.334,0,0,0-.139-.08.328.328,0,0,0-.137-.08.339.339,0,0,0-.137-.079,15.276,15.276,0,0,0-.278-.162.321.321,0,0,0-.138-.077.3.3,0,0,0-.14-.08.494.494,0,0,0-.616-.007,1.757,1.757,0,0,0-.8,1.376v7.413A.5.5,0,0,0,1125.853,320.826Zm2.866-7.232v2.314a.5.5,0,0,0,.316.528.378.378,0,0,0,.138.082,24.757,24.757,0,0,0,.277.159.358.358,0,0,0,.137.08.321.321,0,0,0,.137.077.317.317,0,0,0,.138.08.35.35,0,0,0,.139.08h0a.569.569,0,0,1-.178-.449l0-2.316a1.748,1.748,0,0,1,.793-1.373.593.593,0,0,1,.482-.073h0a1475.112,1475.112,0,0,1-.278-.159.37.37,0,0,0-.137-.08.376.376,0,0,0-.138-.079.37.37,0,0,0-.138-.08.352.352,0,0,0-.137-.08.344.344,0,0,0-.138-.079.507.507,0,0,0-.622-.007A1.758,1.758,0,0,0,1128.719,313.594Z" transform="translate(-853.126 102.318)" opacity="0.4" style="mix-blend-mode: overlay;isolation: isolate"/>
    <path id="Path_8045" data-name="Path 8045" d="M1096.735,328.608a1.743,1.743,0,0,0-.792,1.371l0,12.514c0,.508.356.713.794.461h0a1.755,1.755,0,0,0,.8-1.381V329.062c0-.5-.356-.708-.8-.454Zm6.364-1.127a1.762,1.762,0,0,0-.795,1.376v7.411c0,.508.358.715.795.464h0a1.761,1.761,0,0,0,.8-1.381v-7.414c0-.5-.356-.711-.8-.456Zm-3.182,3.113a1.756,1.756,0,0,0-.794,1.374v4.864c0,.506.356.713.794.461h0a1.764,1.764,0,0,0,.8-1.381v-4.861c0-.506-.356-.713-.8-.456Zm6.365-7.5a1.758,1.758,0,0,0-.8,1.376v12.511c0,.509.356.713.794.462h0a1.763,1.763,0,0,0,.8-1.379l0-12.514c0-.5-.355-.71-.8-.456Zm6.365-1.124a1.761,1.761,0,0,0-.8,1.376v7.411c0,.509.356.715.795.462h0a1.758,1.758,0,0,0,.795-1.379v-7.414c0-.5-.354-.71-.8-.456Zm-3.183,4.39a1.752,1.752,0,0,0-.794,1.371v2.316c0,.506.358.71.794.459h0a1.751,1.751,0,0,0,.8-1.379v-2.313c0-.506-.356-.711-.8-.454Zm6.362-3.674a1.749,1.749,0,0,0-.791,1.371l0,2.316c0,.506.359.711.8.459h0a1.753,1.753,0,0,0,.8-1.378v-2.314c0-.506-.355-.71-.8-.453Zm6.367-4.954a1.761,1.761,0,0,0-.8,1.378v4.861c0,.506.355.712.794.459h0a1.764,1.764,0,0,0,.8-1.379V318.19c0-.506-.356-.713-.795-.458Zm-3.185,3.116a1.746,1.746,0,0,0-.791,1.371l0,2.316c0,.506.358.71.8.459h0a1.758,1.758,0,0,0,.8-1.376l0-2.316c0-.506-.354-.708-.8-.454Zm6.366-7.5a1.749,1.749,0,0,0-.793,1.374l0,9.963c0,.509.357.711.8.459h0a1.761,1.761,0,0,0,.8-1.379V313.8c0-.506-.357-.711-.8-.456Zm6.366.15a1.749,1.749,0,0,0-.793,1.373l0,2.316c0,.508.358.71.8.459h0a1.758,1.758,0,0,0,.8-1.378V313.95c0-.5-.353-.708-.795-.453Zm-3.181-.713a1.761,1.761,0,0,0-.8,1.376v7.414c0,.5.358.712.794.459h0a1.76,1.76,0,0,0,.8-1.379v-7.411c0-.506-.356-.713-.793-.459Zm9.543-4.238a1.765,1.765,0,0,0-.793,1.376v4.864c0,.508.356.713.793.459h0a1.746,1.746,0,0,0,.8-1.379V309c0-.506-.356-.712-.8-.458Zm-3.181-1.987a1.766,1.766,0,0,0-.8,1.376v12.512c0,.508.355.712.794.461h0a1.753,1.753,0,0,0,.795-1.381l0-12.512c0-.5-.357-.711-.8-.456Zm6.363-2.4a1.751,1.751,0,0,0-.794,1.374V315.5c0,.506.357.71.8.459h0a1.764,1.764,0,0,0,.8-1.378l0-9.964c0-.5-.354-.708-.8-.454Zm6.365-2.4a1.756,1.756,0,0,0-.792,1.379l0,7.411c0,.511.356.715.8.463h0a1.774,1.774,0,0,0,.8-1.381v-7.414c0-.5-.356-.71-.8-.459Zm-3.181,4.39a1.744,1.744,0,0,0-.8,1.373v2.316c0,.509.356.711.8.459h0a1.764,1.764,0,0,0,.795-1.379V306.6c0-.506-.355-.711-.795-.456Zm-61.207,30.238a13.722,13.722,0,0,0-6.22,10.764c0,3.961,2.786,5.567,6.218,3.582a13.739,13.739,0,0,0,6.221-10.764C1089.481,336.007,1086.7,334.4,1083.263,336.386Zm2.947,5.913-4.464,5.552a.817.817,0,0,1-.221.191.4.4,0,0,1-.22.063c-.138-.012-.219-.132-.221-.317v-5.945a.959.959,0,0,1,.22-.568.561.561,0,0,1,.443-.254l4.462.394c.138.012.222.135.222.314A.945.945,0,0,1,1086.209,342.3Z" transform="translate(-854.248 101.678)" fill="#fff"/>
    <path id="Path_8046" data-name="Path 8046" d="M1261.143,644.392c4.786-6.382,14.578-8.608,12.188-13.041-1.64-4.33-12.312-8.773-21.247-10.031-9.243-1.279-12.8,5.148-20.954,4.138-9.967-1.234-17.336,6.925-21.985,10.881-10.4,7.865,7.653,20.487,17.936,17.046C1238.221,649.657,1252.846,655.4,1261.143,644.392Z" transform="translate(-919.188 -59.191)" fill="#1a50b2" opacity="0.15" style="mix-blend-mode: multiply;isolation: isolate"/>
    <path id="Path_8047" data-name="Path 8047" d="M1302.212,645.935h0a4.142,4.142,0,0,1-4.128-4.131V628.458a4.129,4.129,0,0,1,8.258,0V641.8A4.142,4.142,0,0,1,1302.212,645.935Z" transform="translate(-965.542 -60.791)" fill="url(#linear-gradient-49)"/>
    <path id="Path_8048" data-name="Path 8048" d="M1298.084,634.33v12.509a4.139,4.139,0,0,0,3.253,4.032V638.359A4.141,4.141,0,0,0,1298.084,634.33Z" transform="translate(-965.542 -65.827)" opacity="0.3" style="mix-blend-mode: overlay;isolation: isolate"/>
    <path id="Path_8049" data-name="Path 8049" d="M1302.252,662.777a4.666,4.666,0,0,1-4.088-2.462,4.106,4.106,0,0,0,8.179,0A4.674,4.674,0,0,1,1302.252,662.777Z" transform="translate(-965.583 -78.91)" opacity="0.3" style="mix-blend-mode: overlay;isolation: isolate"/>
    <path id="Path_8050" data-name="Path 8050" d="M1302.212,624.329a4.141,4.141,0,0,0-4.128,4.129v8.779a4.874,4.874,0,0,0,3.809,1.922,5.523,5.523,0,0,0,4.449-2.161v-8.54A4.142,4.142,0,0,0,1302.212,624.329Z" transform="translate(-965.542 -60.791)" opacity="0.3" style="mix-blend-mode: overlay;isolation: isolate"/>
    <path id="Path_8051" data-name="Path 8051" d="M1238.645,650.545s3.47,8.718.319,10.405-5.933-.137-9.448-1.55-9.219-4.108-10.316-4.611-3.7-1.894-3.331-4.836c.364-2.924,4.976-3.058,11.046-1.6S1238.645,650.545,1238.645,650.545Z" transform="translate(-924.13 -72.429)" fill="url(#linear-gradient-50)"/>
    <path id="Path_8052" data-name="Path 8052" d="M1244.294,650.669l-.068,1.984a4.872,4.872,0,0,0,4,5.068,5.548,5.548,0,0,0,5.693-2.515,30.508,30.508,0,0,0-.979-3.037S1249.065,651.669,1244.294,650.669Z" transform="translate(-938.421 -74.053)" opacity="0.3" style="mix-blend-mode: overlay;isolation: isolate"/>
    <path id="Path_8053" data-name="Path 8053" d="M1233.2,651.281s-.616-.791-1.64-1.922c-1.454-.284-3.031-.618-4.639-1-6.07-1.46-10.682-1.326-11.046,1.6-.368,2.942,2.236,4.335,3.331,4.836s6.8,3.2,10.316,4.611c1.637.659,3.115,1.4,4.546,1.842C1236.2,658.844,1233.2,651.281,1233.2,651.281Z" transform="translate(-924.13 -72.429)" opacity="0.3" style="mix-blend-mode: overlay;isolation: isolate"/>
    <path id="Path_8054" data-name="Path 8054" d="M1238.983,662.81c-3.149,1.687-5.933-.138-9.448-1.551s-9.22-4.108-10.316-4.612c-.955-.435-3.051-1.553-3.333-3.779-.232,2.809,2.264,4.161,3.333,4.652,1.1.5,6.8,3.2,10.316,4.611s6.3,3.238,9.448,1.551c1.092-.583,1.379-2.017,1.3-3.632A3.072,3.072,0,0,1,1238.983,662.81Z" transform="translate(-924.148 -75.16)" opacity="0.3" style="mix-blend-mode: overlay;isolation: isolate"/>
    <path id="Path_8055" data-name="Path 8055" d="M1296.186,462.306l-1,88.5a5.554,5.554,0,0,1-5.631,5.5,4.873,4.873,0,0,1-4.777-4.34l-11.2-85.774Z" transform="translate(-953.203 20.788)" fill="url(#linear-gradient-51)"/>
    <path id="Path_8056" data-name="Path 8056" d="M1273.7,488.412a15.491,15.491,0,0,0,1.166-5.938,15.055,15.055,0,0,0-2.31-8.139l-.586-7.19-8.611,1.481.09.7c-5.668.4-10.168,6.125-10.168,13.153,0,7.284,4.831,13.189,10.792,13.189a8.946,8.946,0,0,0,2.756-.451l7.731,59.188a4.873,4.873,0,0,0,4.777,4.34c.027,0,.054-.008.082-.008Z" transform="translate(-942.982 18.351)" opacity="0.2" style="mix-blend-mode: overlay;isolation: isolate"/>
    <path id="Path_8057" data-name="Path 8057" d="M1271.115,475.5a15.332,15.332,0,0,0-1.655-7l.842-5.05-5.556.022a8.972,8.972,0,0,0-8.912.037l-8.473.038-3.134,92.989a4.873,4.873,0,0,0,4,5.068,5.551,5.551,0,0,0,6.461-4.495l11.806-70.8A14.2,14.2,0,0,0,1271.115,475.5Z" transform="translate(-938.421 20.788)" fill="url(#linear-gradient-52)"/>
    <path id="Path_8058" data-name="Path 8058" d="M1248.355,561.739l7.124-92.769,14,.543.818-4.9-22.941.1-3.134,92.989a4.873,4.873,0,0,0,4,5.068c.05.009.1,0,.149.012A4.984,4.984,0,0,1,1248.355,561.739Z" transform="translate(-938.421 19.628)" opacity="0.2" style="mix-blend-mode: overlay;isolation: isolate"/>
    <path id="Path_8059" data-name="Path 8059" d="M1270.331,464.306c-3.236-6.5-10.448.077-18.831.077a27.773,27.773,0,0,0-3.052.167l-.117,1.406c.725,3.183,3.642,5.456,7.287,6.262,6.828,1.511,23.2-.681,27.823-7.16l.034-3.19Z" transform="translate(-940.491 21.225)" opacity="0.3" style="mix-blend-mode: overlay;isolation: isolate"/>
    <path id="Path_8060" data-name="Path 8060" d="M1306.837,355.633c-2.428,3.879-.9,9.652-1.17,17.34s.235,14.9,1.66,17.662c2.915,5.634,5.958,4.325,8.3.07,4.365-7.927,7.052-29.775-2.057-35.693C1311.35,353.569,1308.839,353.477,1306.837,355.633Z" transform="translate(-969.245 75.337)" fill="url(#linear-gradient-53)"/>
    <path id="Path_8061" data-name="Path 8061" d="M1306.837,355.633c-2.428,3.879-.9,9.652-1.17,17.34s.235,14.9,1.66,17.662c2.915,5.634,5.958,4.325,8.3.07,4.365-7.927,7.052-29.775-2.057-35.693C1311.35,353.569,1308.839,353.477,1306.837,355.633Z" transform="translate(-969.245 75.337)" opacity="0.3" style="mix-blend-mode: overlay;isolation: isolate"/>
    <path id="Path_8062" data-name="Path 8062" d="M1271.92,327.984c.574,3.538-.1,10.994-3.577,12.429s4.076,3.5,7.2,3.268,14.212-2.5,12.649-4.766-.01-2.994-1.327-2.889-3.984-2.887-4.138-12.649S1271.3,324.165,1271.92,327.984Z" transform="translate(-950.118 92.768)" fill="#f7b6b2"/>
    <path id="Path_8063" data-name="Path 8063" d="M1272.755,296c-3.672,0-3.879-.491-5.957,2.538-.751,1.095-1.65,3.9-1.2,5.388.891,2.966-.96,4.6-.791,7.3.238,3.74,1.31,13.128,13.392,6.088,5.961-3.471-2.655-5.267-4.958-9.739C1271.013,303.266,1275.117,296,1272.755,296Z" transform="translate(-948.779 104.538)" fill="#f7b6b2"/>
    <path id="Path_8064" data-name="Path 8064" d="M1265.1,313.755c0-.027-.01-.055-.014-.084a23.009,23.009,0,0,1-.271-2.443c-.008-.13.008-.246.009-.371l0,0c.008-1.778.831-3.123.988-4.784,0-.052.016-.1.019-.152a5.693,5.693,0,0,0-.01-.7c-.005-.09,0-.172-.007-.262a5.787,5.787,0,0,0-.211-1.034c-.446-1.489.454-4.293,1.2-5.388,2.079-3.029,2.285-2.538,5.958-2.538,2.361,0-1.742,7.267.482,11.577a5.635,5.635,0,0,0,.542.835c.09.125.179.244.278.364l.012.014a9.983,9.983,0,0,0,.676.748v0h0l.045-.038a13.04,13.04,0,0,1,1.053-.782l.031-.023a9.035,9.035,0,0,1,1.116-.628v0c-.219,2.2-.381,4.146-.436,5.778-.174,5.22-.887,12.138,3.547,17.024-.292.07-.581.135-.867.2a.273.273,0,0,0-.045.01c-.252.058-.5.11-.748.162-.031.007-.063.014-.1.019h0c-.247.053-.489.1-.729.145-.07.015-.139.027-.209.04-.221.04-.441.082-.652.117-.018,0-.038.008-.058.01-.225.04-.441.074-.651.108-.057.009-.115.017-.171.024-.177.027-.349.052-.511.075-.027,0-.06.01-.088.012-.172.025-.327.042-.479.063l-.068.007-.09.007c-.157.018-.307.033-.436.043-3.123.234-10.669-1.833-7.2-3.268a3.111,3.111,0,0,0,.492-.257c.032-.019.063-.045.1-.068a3.677,3.677,0,0,0,.366-.279l.075-.07a4.471,4.471,0,0,0,.357-.363c.014-.015.027-.031.04-.048a5.151,5.151,0,0,0,.36-.469l0,0c.014-.02.026-.04.04-.058.041-.063.083-.12.124-.182,0-.005,0-.008.008-.015a.221.221,0,0,1,.015-.025c.12-.2.231-.4.338-.621.03-.057.057-.117.086-.177.089-.189.172-.384.25-.586.019-.05.04-.1.059-.146.093-.247.18-.5.26-.766.016-.053.029-.1.045-.157.062-.214.121-.433.174-.655.019-.077.038-.155.056-.232.054-.237.1-.479.15-.72.006-.037.015-.072.021-.11.051-.284.094-.571.134-.857.008-.058.014-.115.021-.174.031-.239.058-.481.079-.72.005-.055.012-.112.017-.167.024-.289.046-.578.059-.86h0v-.007c-.02,0-.041,0-.061,0C1266.9,319.754,1265.59,316.528,1265.1,313.755Z" transform="translate(-948.788 104.538)" opacity="0.15" style="mix-blend-mode: overlay;isolation: isolate"/>
    <path id="Path_8065" data-name="Path 8065" d="M1265.1,313.758c0-.027-.01-.055-.014-.084a23.008,23.008,0,0,1-.271-2.443c-.008-.13.008-.246.009-.371l0,0a10.76,10.76,0,0,1,.613-3.042,6.642,6.642,0,0,0,.3-3.233s0-.007,0-.012a4.267,4.267,0,0,0-.133-.643c-.446-1.489.454-4.293,1.2-5.388.179-.259.339-.486.5-.7.033-.045.066-.087.095-.13.158-.209.3-.4.442-.558l0,0a5.161,5.161,0,0,1,.4-.419c.018-.015.033-.032.05-.047a2.928,2.928,0,0,1,.389-.3.081.081,0,0,1,.02-.01,2.111,2.111,0,0,1,.39-.195l.034-.014a2.633,2.633,0,0,1,.433-.115.019.019,0,0,1,.011,0c.014,0,.027,0,.039-.005a4.557,4.557,0,0,1,.481-.052.088.088,0,0,0,.025,0h0c.188-.007.39-.009.614-.009a6.892,6.892,0,0,0-1.366,1.607c-1.474,2.693-2.861,4.373-2.393,7.185s-1.947,5-.09,9.368,5.8,1.249,5.652,4.32a99.654,99.654,0,0,1-1.12,13.27c-.009,0-.018,0-.028-.005l-.357-.062c-.09-.015-.178-.033-.267-.05-.02,0-.039-.007-.058-.012-.143-.027-.283-.057-.425-.087-.1-.022-.2-.045-.307-.071-.236-.054-.468-.117-.7-.177-.113-.032-.228-.062-.338-.094s-.211-.068-.315-.1-.222-.073-.329-.107-.2-.07-.292-.107c-.12-.045-.232-.09-.344-.137-.073-.03-.15-.06-.217-.092-.151-.067-.286-.135-.414-.2-.02-.01-.044-.02-.062-.03l-.088-.057a.529.529,0,0,1-.053-.035,2.723,2.723,0,0,1-.25-.17,1.077,1.077,0,0,1-.1-.084,1.331,1.331,0,0,1-.186-.192c-.021-.024-.042-.047-.059-.072a.868.868,0,0,1-.049-.125.533.533,0,0,1-.055-.147c0-.005,0-.01,0-.015a.5.5,0,0,1,.048-.182c.01-.022.006-.045.019-.067a.625.625,0,0,1,.048-.07,1.1,1.1,0,0,1,.149-.15c.018-.014.029-.03.048-.047s.061-.05.1-.074a2.873,2.873,0,0,1,.48-.252,3.113,3.113,0,0,0,.492-.257c.032-.019.063-.045.1-.068a3.686,3.686,0,0,0,.366-.279l.075-.07a4.476,4.476,0,0,0,.357-.363c.014-.015.027-.031.04-.048a5.143,5.143,0,0,0,.36-.469l0,0c.014-.02.026-.04.04-.058.041-.063.083-.12.124-.182a.158.158,0,0,1,.008-.015.23.23,0,0,1,.015-.025c.12-.2.231-.4.338-.621.03-.057.057-.117.086-.177.089-.189.172-.384.25-.586.019-.05.04-.1.059-.146.093-.247.18-.5.26-.766.016-.053.029-.1.045-.157.062-.214.121-.433.174-.655.019-.077.038-.155.056-.232.054-.237.1-.479.15-.72.006-.037.015-.072.021-.11.051-.284.094-.571.134-.857.008-.058.014-.115.021-.174.031-.239.058-.481.079-.72.005-.055.012-.112.017-.167.024-.289.046-.578.059-.86h0v-.007c-.02,0-.041,0-.061,0C1266.9,319.756,1265.59,316.531,1265.1,313.758Z" transform="translate(-948.788 104.536)" opacity="0.15" style="mix-blend-mode: overlay;isolation: isolate"/>
    <path id="Path_8066" data-name="Path 8066" d="M1276.741,290.551c6.8,0,12.733,2.343,12.733,11.4s-4.6,8.879-5.075,11.415c-.83,4.45-7.287,2.794-7.912.294s-.466-6.212-2.159-7.025c-2.984-1.431-1.583,2.219-2.831,2.061s.683-2.894-.912-4.425c-2.339-2.244-.753-5.175-.963-6.4a3.082,3.082,0,0,0-1.206-1.541C1266.563,294.894,1269.788,290.551,1276.741,290.551Z" transform="translate(-950.344 107.267)" fill="url(#linear-gradient-54)"/>
    <path id="Path_8067" data-name="Path 8067" d="M1268.415,296.329a3.082,3.082,0,0,1,1.206,1.541c.21,1.227-1.376,4.158.963,6.4,1.6,1.531-.337,4.27.912,4.425s-.152-3.492,2.831-2.061c1.693.813,1.535,4.528,2.159,7.025s7.082,4.155,7.912-.294c.344-1.837,2.852-2.266,4.208-5.806-2.313,4.487-8.96,5.753-9.921,1.219-1.8-8.486,1.054-7.763-5.29-14.109-1.8-1.8,2.707-3.518,6.761-3.882a23.8,23.8,0,0,0-3.415-.237C1269.788,290.551,1266.563,294.894,1268.415,296.329Z" transform="translate(-950.344 107.267)" opacity="0.2" style="mix-blend-mode: overlay;isolation: isolate"/>
    <path id="Path_8068" data-name="Path 8068" d="M1288.793,364.965c0-4.988-1.2-8.219-3.325-10.021-5.449-4.617-18.719-.556-24.9,1.508-5.4,1.8-10.574,4.238-12.531,7.209l-.03,29.114-.027,15.648c-.007,4,3.243,6.9,7.464,7.833,7.992,1.768,29.067-1.531,29.067-10.844-.863-5.831-3.041-14.085.332-24C1287.282,374.225,1288.793,368.846,1288.793,364.965Z" transform="translate(-940.312 75.912)" fill="url(#linear-gradient-55)"/>
    <path id="Path_8069" data-name="Path 8069" d="M1182.458,338.867a46.568,46.568,0,0,1-4.116-3.795c-.678-.675-.185-2.044-.185-3.322s-.693-2.117-.693-3.1,1.443-2.171,1.022-2.59c-.815-.815-1.9.546-1.9.546a25.8,25.8,0,0,1-.477-4.125c0-1.753-.074-3.032-.439-3.4s-.984,0-.984,0,.145-1.608-.84-1.608-.95,1.5-.95,1.5a1.122,1.122,0,0,0-1.241,1.055A16.436,16.436,0,0,0,1171.4,322a1.809,1.809,0,0,0-1.172,1.572,47.572,47.572,0,0,1-.4,5.4,8.667,8.667,0,0,0,.4,4.822c.7,2.006.952,3.5,2.084,4.016s3.216,3.56,4.086,5.086,3.432.593,4.631-.329S1183.6,339.707,1182.458,338.867Z" transform="translate(-900.875 93.711)" fill="#f7b6b2"/>
    <path id="Path_8070" data-name="Path 8070" d="M1176.4,347.605c-.87-1.526-2.957-4.575-4.086-5.086s-1.388-2.009-2.084-4.016a8.666,8.666,0,0,1-.4-4.821,47.574,47.574,0,0,0,.4-5.4,1.786,1.786,0,0,1,.932-1.458c-.164,3.388-.827,11.622,1.177,13.534s5.579,2.8,8.441,7.09C1179.514,348.3,1177.22,349.036,1176.4,347.605Z" transform="translate(-900.875 89.004)" opacity="0.3" style="mix-blend-mode: overlay;isolation: isolate"/>
    <path id="Path_8071" data-name="Path 8071" d="M1180.134,352.786a3.066,3.066,0,0,1,4.011.554l9.147,10.475a2.16,2.16,0,0,0,2.014.713l12.393-2c4.26-.753,7.794-2.515,10.984-3.832a6.393,6.393,0,0,1,.756-.257,53.661,53.661,0,0,1,5.733-2.258c6.185-2.064,19.455-6.125,24.9-1.508,2.126,1.8,3.325,5.033,3.325,10.021,0,3.881-1.51,9.261-3.956,16.45-3.373,9.912-1.194,18.165-.332,24,0,9.313-21.075,12.612-29.067,10.844-3.695-.815-6.644-3.136-7.319-6.384-.653-1.945-.294-6.245-.294-9.608,0-3.9-.356-8.2-.746-12.479-.546-6.063-2.355-12-8.1-11.31-.079.01-.156.008-.233.012l-5.349.908a10.034,10.034,0,0,1-10.076-4.048l-9.241-12.576A5.453,5.453,0,0,1,1180.134,352.786Z" transform="translate(-904.92 76.187)" fill="url(#linear-gradient-56)"/>
    <path id="Path_8072" data-name="Path 8072" d="M1178.655,354.529c3.068,2.473,3.971,4.076,6.959,7.838,3.276,4.121,8.1,2.7,10.615,2.286l11.481-1.857c4.257-.753,7.788-2.513,10.977-3.829a6.384,6.384,0,0,1,.755-.257,53.667,53.667,0,0,1,5.733-2.258c6.185-2.065,19.455-6.125,24.9-1.508a7.719,7.719,0,0,1,1.745,2.213c-5.592-4.3-18.55-.346-24.645,1.688a51.478,51.478,0,0,0-6.517,2.627,2.2,2.2,0,0,0-1.181,1.129l.005,0c-.571,1.309.2,3.278,1.162,5.308.073.121.136.257.208.384.131.231.265.46.386.71.009.017.015.037.024.055.176.37.343.756.5,1.159v0c2.575,6.835,1.982,18.238.324,23.113-3.218,9.461-1.383,17.408-.459,23.182h0c-.566-.068-1.094-.154-1.575-.262-3.7-.815-6.644-3.136-7.32-6.384-.653-1.945-.294-6.245-.294-9.608,0-3.9-.357-8.2-.746-12.479-.546-6.063-2.355-12-8.1-11.31-.079.01-.155.008-.232.012l-5.349.908a10.034,10.034,0,0,1-10.075-4.048l-9.241-12.576A5.445,5.445,0,0,1,1178.655,354.529Z" transform="translate(-904.924 75.912)" opacity="0.3" style="mix-blend-mode: overlay;isolation: isolate"/>
    <path id="Path_8073" data-name="Path 8073" d="M1285.3,345.53c.7,1.339,1.908,3.179,3.067,3.624-.2,4.5-11.936,6.474-18.39,4.143a10.756,10.756,0,0,0,2.921-5.494C1279.295,349.75,1285.141,346.879,1285.3,345.53Z" transform="translate(-951.388 79.585)" fill="url(#linear-gradient-57)"/>
  </g>
</svg>
