<svg xmlns="http://www.w3.org/2000/svg" width="191.488" height="210.83" viewBox="0 0 191.488 210.83">
  <g id="splashlogo" transform="translate(-92.5 -299.658)">
    <g id="estudy" transform="translate(129.501 299.656)">
      <path id="Path_1832" data-name="Path 1832" d="M848.646,1843.77a50.632,50.632,0,0,0-20.584,27.459c-6.334,21.122,1.583,44.532,22.7,53.685,28.677,12.321,69.317-10.033,63.687-45.237-.7-4.577-2.639-3.872-2.639-2.112,0,28.867-38.881,50.518-62.28,30.451,32.372-18.305,48.03-28.866,51.548-31.155,24.279-16.546-10.2-60.55-52.427-33.092Zm-5.982,54.038c-13.9-39.78,45.567-63.014,48.206-36.788a13.126,13.126,0,0,1-5.63,11.793C855.859,1890.063,842.664,1897.808,842.664,1897.808Z" transform="translate(-797.45 -1800.648)" fill="#fff" fill-rule="evenodd"/>
      <path id="Path_1833" data-name="Path 1833" d="M650.4,1587.49l52.779-5.281-15.13,17.778,4.046,7.921,2.287,4.4c-15.658.176-39.057,11.265-47.5,27.459-.7-1.408-2.639-4.753-3.519-6.337l-4.047-7.744-7.565.7h0c0,3.168,1.583,6.689,1.056,11.089a3.133,3.133,0,0,1,.88,4.753l3.519,9.5-8.8,1.408.88-10.209c-1.935-.7-2.287-4.577.352-5.808.528-4.048-.528-7.393-.7-10.385h-.176l-12.667,1.232Z" transform="translate(-616.096 -1582.207)" fill="#fff" fill-rule="evenodd"/>
    </g>
    <path id="eStudy-2" data-name="eStudy" d="M30.656-13.376a19.373,19.373,0,0,0,.256-3.328c0-6.848-3.328-15.168-13.44-15.168C7.488-31.872,2.24-23.744,2.24-15.1,2.24-5.568,8.192.64,18.3.64a29.351,29.351,0,0,0,10.88-1.92L28.032-6.72a23.423,23.423,0,0,1-8.64,1.408c-4.992,0-9.408-2.432-9.6-8.064ZM9.792-18.88c.32-3.2,2.368-7.616,7.232-7.616,5.248,0,6.528,4.736,6.464,7.616ZM35.648-2.048C38.016-.64,42.752.64,47.3.64,58.432.64,63.68-5.376,63.68-12.288c0-6.208-3.648-9.984-11.136-12.8-5.76-2.24-8.256-3.776-8.256-7.1,0-2.5,2.176-5.184,7.168-5.184a18.262,18.262,0,0,1,8.576,2.048l1.92-6.336A22.783,22.783,0,0,0,51.584-43.84c-9.344,0-15.232,5.376-15.232,12.416C36.352-25.216,40.9-21.44,48-18.88c5.5,1.984,7.68,3.9,7.68,7.168,0,3.52-2.816,5.888-7.872,5.888A21.8,21.8,0,0,1,37.376-8.576Zm35.9-36.16v7.04h-4.48v5.888h4.48v14.656c0,4.1.768,6.912,2.432,8.7A9.114,9.114,0,0,0,80.768.64a17.3,17.3,0,0,0,5.7-.768l-.128-6.016a11.631,11.631,0,0,1-3.072.384c-3.008,0-4.032-1.984-4.032-5.76V-25.28H86.72v-5.888H79.232v-8.9Zm49.024,7.04H112.7v18.816a7.154,7.154,0,0,1-.448,2.432A6.634,6.634,0,0,1,106.24-5.7c-4.16,0-5.824-3.328-5.824-8.512v-16.96H92.544v18.3C92.544-2.688,97.728.7,103.424.7a11.27,11.27,0,0,0,9.984-5.44h.128L113.92,0h6.912c-.128-2.56-.256-5.632-.256-9.344ZM149.952-45.44v17.664h-.128c-1.408-2.3-4.48-4.1-8.768-4.1-7.488,0-14.016,6.208-13.952,16.64C127.1-5.632,132.992.7,140.416.7a11.218,11.218,0,0,0,10.176-5.632h.128L151.04,0h7.04c-.128-2.112-.256-5.568-.256-8.768V-45.44Zm0,31.936a8.768,8.768,0,0,1-.256,2.3,6.943,6.943,0,0,1-6.784,5.568c-4.992,0-7.808-4.16-7.808-9.856,0-5.824,2.816-10.3,7.872-10.3a6.9,6.9,0,0,1,6.784,5.568,11.09,11.09,0,0,1,.192,2.048ZM162.56-31.168,173.952-2.56a3.338,3.338,0,0,1,.448,1.536,3.161,3.161,0,0,1-.512,1.408A13.73,13.73,0,0,1,169.6,5.312a13.484,13.484,0,0,1-4.608,2.176l1.792,6.656a15.833,15.833,0,0,0,8.256-4.032c3.712-3.2,6.592-8.384,10.88-20.032l7.808-21.248H185.28l-4.864,16.64c-.576,2.048-1.152,4.352-1.664,6.144h-.192c-.448-1.792-1.088-4.16-1.728-6.08l-5.632-16.7Z" transform="translate(90.26 496.344)" fill="#fff"/>
  </g>
</svg>
