<svg xmlns="http://www.w3.org/2000/svg" width="28.426" height="24.004" viewBox="0 0 28.426 24.004">
  <path id="active_heart" d="M24.555,33.637a8.327,8.327,0,0,0-10.842.77,8.321,8.321,0,0,0-10.842-.77A7.548,7.548,0,0,0,2.3,44.99l9.4,9.172a2.9,2.9,0,0,0,4.028.005L25.123,45A7.553,7.553,0,0,0,24.555,33.637Zm-1.264,9.623-9.4,9.172a.226.226,0,0,1-.364,0l-9.4-9.172a5.144,5.144,0,0,1,.391-7.735,5.6,5.6,0,0,1,7.312.539L13.713,37.9l1.875-1.832a5.6,5.6,0,0,1,7.312-.544A5.166,5.166,0,0,1,23.291,43.261Z" transform="translate(0.5 -31.475)" fill="#fff" stroke="#fff" stroke-width="1"/>
</svg>
