<svg xmlns="http://www.w3.org/2000/svg" width="23.984" height="24" viewBox="0 0 23.984 24">
  <path id="active_account" d="M1885,1676h-17.989a3,3,0,0,1-2.606-4.483,3.265,3.265,0,0,1-.386-1.516c0-2.37,2.8-4.523,7.124-5.486a5.951,5.951,0,0,1-1.134-3.51V1658a5.995,5.995,0,0,1,11.99,0V1661a5.954,5.954,0,0,1-1.133,3.508c4.333.962,7.133,3.116,7.133,5.487a3.265,3.265,0,0,1-.389,1.521A3,3,0,0,1,1885,1676Zm-17.991-6v3H1885v-3c0-1.655-4.032-3-8.989-3s-8.99,1.346-8.99,3Zm9-15a3,3,0,0,0-3,3v3a3,3,0,0,0,6,0v-3A3,3,0,0,0,1876.01,1655Z" transform="translate(-1864.016 -1652)" fill="#fff"/>
</svg>
