<svg xmlns="http://www.w3.org/2000/svg" width="16.338" height="20" viewBox="0 0 16.338 20">
  <path id="apple" d="M432.655,641.621a4.525,4.525,0,0,1,2.166-3.808,4.69,4.69,0,0,0-3.669-1.982c-1.562-.158-3.049.917-3.842.917s-2.015-.893-3.311-.87a4.911,4.911,0,0,0-4.15,2.508c-1.77,3.061-.453,7.594,1.272,10.077.843,1.215,1.847,2.58,3.167,2.531,1.27-.05,1.751-.819,3.287-.819s1.968.819,3.312.794c1.367-.025,2.234-1.238,3.07-2.457a10.987,10.987,0,0,0,1.39-2.844A4.42,4.42,0,0,1,432.655,641.621Zm-2.526-7.433a4.4,4.4,0,0,0,1.044-3.194,4.506,4.506,0,0,0-2.956,1.514,4.186,4.186,0,0,0-1.065,3.094A3.725,3.725,0,0,0,430.129,634.188Z" transform="translate(-419.01 -630.994)" fill="#fff"/>
</svg>
