<svg xmlns="http://www.w3.org/2000/svg" width="24.008" height="24" viewBox="0 0 24.008 24">
  <path id="home" d="M1621.135,1666.443l-.557.557H1619v6a3,3,0,0,1-3,3h-12a3,3,0,0,1-3-3v-6h-1.578l-.557-.557a2.965,2.965,0,0,1,0-4.192l9.433-9.432a2.187,2.187,0,0,1,3.406,0l9.432,9.432A2.964,2.964,0,0,1,1621.135,1666.443Zm-10.481-10.481a.778.778,0,0,0-1.309,0l-7.336,7.337a1.438,1.438,0,0,0-.366.7H1604v7.5a1.5,1.5,0,0,0,1.5,1.5h9a1.5,1.5,0,0,0,1.5-1.5V1664h2.358a1.441,1.441,0,0,0-.367-.7ZM1610,1652h.019l-.019,0-.019,0Z" transform="translate(-1597.996 -1652)" fill="rgba(255,255,255,0.5)"/>
</svg>
