<svg xmlns="http://www.w3.org/2000/svg" width="28" height="28" viewBox="0 0 28 28">
  <g id="logout" transform="translate(-880 -5178)">
    <rect id="Rectangle_3458" data-name="Rectangle 3458" width="28" height="28" transform="translate(880 5178)" fill="none"/>
    <path id="icon" d="M883,5191.937a11,11,0,0,1,6.174-9.942.813.813,0,0,1,1.092.376.824.824,0,0,1-.375,1.1,9.417,9.417,0,1,0,8.207,0,.822.822,0,0,1-.376-1.1.812.812,0,0,1,1.09-.377A11.046,11.046,0,1,1,883,5191.937Zm10.99-4.556a.78.78,0,0,1-.78-.781v-7.82a.78.78,0,0,1,.78-.779H894a.78.78,0,0,1,.78.779v7.82a.78.78,0,0,1-.78.781Z" transform="translate(0 2)" fill="#102a3a"/>
  </g>
</svg>
