<svg xmlns="http://www.w3.org/2000/svg" width="44" height="30" viewBox="0 0 44 30">
  <path id="newsletter" d="M1759.875,183h-35.75a4.208,4.208,0,0,0-4.125,4.286v21.428a4.207,4.207,0,0,0,4.125,4.285h35.75a4.207,4.207,0,0,0,4.125-4.285V187.286A4.208,4.208,0,0,0,1759.875,183Zm-34.375,2.858h33a2.637,2.637,0,0,1,1.11.246l-16.462,15.224a1.73,1.73,0,0,1-1.044.35,1.645,1.645,0,0,1-1.06-.389l-16.2-15.339A2.608,2.608,0,0,1,1725.5,185.858Zm-2.75,2.857a2.936,2.936,0,0,1,.128-.818l10.815,10.237-10.812,9.979a2.919,2.919,0,0,1-.131-.827Zm35.75,21.429h-33a2.654,2.654,0,0,1-.575-.065l10.828-9.994,3.528,3.339a4.386,4.386,0,0,0,5.606.061l3.519-3.254,10.67,9.848A2.651,2.651,0,0,1,1758.5,210.143Zm2.75-2.857a2.91,2.91,0,0,1-.131.827l-10.63-9.81,10.729-9.921a3.014,3.014,0,0,1,.032.333Z" transform="translate(-1720 -183)"/>
</svg>
