<svg xmlns="http://www.w3.org/2000/svg" width="15.173" height="18.834" viewBox="0 0 15.173 18.834">
  <g id="notifications_icon" transform="translate(-6.512 -3.68)">
    <path id="Path_19645" data-name="Path 19645" d="M18.4,28.336a.593.593,0,0,0-.582.467,1.148,1.148,0,0,1-.229.5.866.866,0,0,1-.738.27.88.88,0,0,1-.738-.27,1.148,1.148,0,0,1-.229-.5.593.593,0,0,0-.582-.467h0a.6.6,0,0,0-.582.729,2.047,2.047,0,0,0,2.131,1.7,2.044,2.044,0,0,0,2.131-1.7.6.6,0,0,0-.582-.729Z" transform="translate(-2.761 -8.5)" fill="#11293b" stroke="#11293b" stroke-width="0.5"/>
    <path id="Path_19646" data-name="Path 19646" d="M21.239,17.508c-.706-.93-2.094-1.476-2.094-5.641,0-4.275-1.888-5.994-3.648-6.406-.165-.041-.284-.1-.284-.27V5.058a1.124,1.124,0,0,0-1.1-1.127h-.027a1.124,1.124,0,0,0-1.1,1.127v.133c0,.17-.119.229-.284.27-1.764.417-3.648,2.131-3.648,6.406,0,4.165-1.388,4.706-2.094,5.641a.91.91,0,0,0,.729,1.457H20.524A.91.91,0,0,0,21.239,17.508Zm-1.787.266H8.766a.2.2,0,0,1-.151-.335,5.551,5.551,0,0,0,.962-1.531,10.384,10.384,0,0,0,.655-4.042A7.027,7.027,0,0,1,11.19,7.89a2.94,2.94,0,0,1,1.773-1.265,1.606,1.606,0,0,0,.852-.481.362.362,0,0,1,.545-.009,1.66,1.66,0,0,0,.861.49A2.94,2.94,0,0,1,17,7.89a7.027,7.027,0,0,1,.958,3.977,10.384,10.384,0,0,0,.655,4.042,5.615,5.615,0,0,0,.985,1.553A.189.189,0,0,1,19.452,17.774Z" transform="translate(0 0)" fill="#11293b" stroke="#11293b" stroke-width="0.5"/>
  </g>
</svg>
