<svg xmlns="http://www.w3.org/2000/svg" width="28" height="28" viewBox="0 0 28 28">
  <g id="payment" transform="translate(-665 -5178)">
    <rect id="Rectangle_3460" data-name="Rectangle 3460" width="28" height="28" transform="translate(665 5178)" fill="none"/>
    <path id="icon" d="M669.251,5201a2.3,2.3,0,0,1-2.25-2.348v-13.3a2.3,2.3,0,0,1,2.25-2.348h19.5a2.3,2.3,0,0,1,2.25,2.348v13.3a2.3,2.3,0,0,1-2.25,2.348Zm-.751-14.87v11.738a1.535,1.535,0,0,0,1.5,1.565h18a1.535,1.535,0,0,0,1.5-1.565v-7.818h-21V5187.7h21v-1.569a1.535,1.535,0,0,0-1.5-1.565H670A1.535,1.535,0,0,0,668.5,5186.131Zm15.375,9.647a1.468,1.468,0,0,1-1.125.532,1.571,1.571,0,0,1,0-3.139,1.457,1.457,0,0,0,2.25,0,1.571,1.571,0,0,1,0,3.139A1.468,1.468,0,0,1,683.875,5195.778Z" fill="#102a3a"/>
  </g>
</svg>
