<svg xmlns="http://www.w3.org/2000/svg" width="28" height="28" viewBox="0 0 28 28">
  <g id="purchase" transform="translate(-665 -5067)">
    <rect id="Rectangle_3455" data-name="Rectangle 3455" width="28" height="28" transform="translate(665 5067)" fill="none"/>
    <path id="purchase-2" data-name="purchase" d="M686.5,5092h-15a2.253,2.253,0,0,1-2.25-2.251v-7.508a2.253,2.253,0,0,1-2.249-2.25v-3.011a2.252,2.252,0,0,1,2.249-2.249h8.074l.025-.027.015-.016.036-.038,6.016-6.021a2.233,2.233,0,0,1,3.159,0,2.243,2.243,0,0,1,0,3.163l-2.937,2.939h5.11a2.252,2.252,0,0,1,2.25,2.249v3.011a2.253,2.253,0,0,1-2.25,2.25v7.508A2.253,2.253,0,0,1,686.5,5092Zm-3-6.76a.751.751,0,0,1,.75.75v4.508H686.5a.751.751,0,0,0,.75-.75v-7.508h-16.5v7.508a.751.751,0,0,0,.75.75h2.249v-4.508a.75.75,0,1,1,1.5,0v4.508h3v-4.508a.75.75,0,1,1,1.5,0v4.508h3v-4.508A.751.751,0,0,1,683.5,5085.24Zm-14.25-9.009a.75.75,0,0,0-.75.749v3a.751.751,0,0,0,.75.75h19.5a.751.751,0,0,0,.75-.75v-3a.75.75,0,0,0-.75-.749h-6.608l-1.581,1.582a2.234,2.234,0,0,1-3.815-1.582Zm15.54-6.763a.954.954,0,0,0-.68.282l-5.59,5.595a.962.962,0,0,0,1.36,1.361l5.59-5.595a.962.962,0,0,0-.68-1.643Z" fill="#102a3a"/>
  </g>
</svg>
