<svg xmlns="http://www.w3.org/2000/svg" width="18.996" height="16.006" viewBox="0 0 18.996 16.006">
  <path id="remove_fav" d="M15753.944,26050a1.865,1.865,0,0,1-1.313-.537l-6.126-5.982a5.086,5.086,0,0,1-1.5-3.83,4.78,4.78,0,0,1,1.866-3.57,5.034,5.034,0,0,1,3.164-1.086,5.611,5.611,0,0,0,7.811,0,5.048,5.048,0,0,1,3.166,1.082,4.845,4.845,0,0,1,1.412,5.918h-1.919a3.338,3.338,0,0,0-.571-4.687,3.388,3.388,0,0,0-2.122-.725,3.827,3.827,0,0,0-2.645,1.076l-1.223,1.191-1.222-1.191a3.818,3.818,0,0,0-2.647-1.074,3.388,3.388,0,0,0-2.125.723,3.314,3.314,0,0,0-1.271,2.436,3.475,3.475,0,0,0,1.016,2.611l6.133,5.98a.167.167,0,0,0,.115.059.182.182,0,0,0,.12-.059l2.4-2.34h2.354l-3.555,3.473A1.884,1.884,0,0,1,15753.944,26050Z" transform="translate(-15744.498 -26034.498)" fill="#677585" stroke="rgba(0,0,0,0)" stroke-miterlimit="10" stroke-width="1"/>
</svg>
