<svg xmlns="http://www.w3.org/2000/svg" width="28" height="28" viewBox="0 0 28 28">
  <g id="scan" transform="translate(-773 -5067)">
    <rect id="Rectangle_3456" data-name="Rectangle 3456" width="28" height="28" transform="translate(773 5067)" fill="none"/>
    <path id="icon" d="M790.75,5093a.75.75,0,1,1,0-1.5h6.75v-6.75a.75.75,0,0,1,1.5,0v7.5a.751.751,0,0,1-.75.75Zm-15,0a.751.751,0,0,1-.75-.75v-7.5a.75.75,0,0,1,1.5,0v6.75h6.75a.75.75,0,1,1,0,1.5Zm7.25-6a2,2,0,0,1-2-2v-8a2,2,0,0,1,2-2h8a2,2,0,0,1,2,2v8a2,2,0,0,1-2,2Zm14.5-9.75v-6.75h-6.75a.75.75,0,0,1,0-1.5h7.5a.751.751,0,0,1,.75.75v7.5a.75.75,0,1,1-1.5,0Zm-22.5,0v-7.5a.751.751,0,0,1,.75-.75h7.5a.75.75,0,0,1,0,1.5H776.5v6.75a.75.75,0,0,1-1.5,0Z" fill="#102a3a"/>
  </g>
</svg>
