<svg xmlns="http://www.w3.org/2000/svg" width="28" height="28" viewBox="0 0 28 28">
  <g id="settings" transform="translate(-880 -5067)">
    <rect id="Rectangle_3457" data-name="Rectangle 3457" width="28" height="28" transform="translate(880 5067)" fill="none"/>
    <path id="icon" d="M893.278,5094a2.892,2.892,0,0,1-2.876-2.613l-.066-.2q-.485-.172-.95-.391l-.184.092a2.89,2.89,0,0,1-3.883-.186l-1.021-1.02a2.89,2.89,0,0,1-.185-3.883l.092-.185c-.144-.308-.276-.626-.391-.95l-.2-.066a2.893,2.893,0,0,1-2.614-2.876v-1.444a2.894,2.894,0,0,1,2.614-2.876l.2-.065q.174-.487.392-.95l-.091-.184a2.889,2.889,0,0,1,.184-3.884l1.021-1.021a2.891,2.891,0,0,1,3.883-.184l.184.09q.464-.218.954-.392l.061-.189a2.894,2.894,0,0,1,2.878-2.622h1.443a2.892,2.892,0,0,1,2.876,2.621l.063.19c.327.118.647.248.958.4l.175-.09a2.892,2.892,0,0,1,3.888.181l1.021,1.021a2.89,2.89,0,0,1,.182,3.888l-.089.176q.219.468.394.956l.19.063a2.893,2.893,0,0,1,2.621,2.876v1.444a2.892,2.892,0,0,1-2.62,2.876l-.192.063c-.116.326-.248.646-.4.957l.089.176a2.89,2.89,0,0,1-.18,3.889l-1.021,1.02a2.889,2.889,0,0,1-3.886.182l-.178-.089c-.309.146-.628.276-.952.392l-.066.2a2.892,2.892,0,0,1-2.876,2.613Zm-1.767-4.1.355,1.061a1.421,1.421,0,0,0,1.422,1.42h1.423a1.421,1.421,0,0,0,1.422-1.42l.355-1.061a9.2,9.2,0,0,0,2.052-.849l.991.5a1.422,1.422,0,0,0,2.011,0l1.006-1a1.424,1.424,0,0,0,0-2.012l-.5-.99a9.188,9.188,0,0,0,.853-2.061l1.057-.348a1.422,1.422,0,0,0,1.422-1.422v-1.423a1.423,1.423,0,0,0-1.422-1.423l-1.057-.345a9.125,9.125,0,0,0-.851-2.061l.5-.991a1.424,1.424,0,0,0,0-2.012l-1.006-1.006c-.277-.277-.533-.556-.9-.556a1.826,1.826,0,0,0-1.108.556l-.988.5a9.194,9.194,0,0,0-2.062-.852l-.348-1.059a1.422,1.422,0,0,0-1.422-1.421h-1.423a1.422,1.422,0,0,0-1.422,1.421l-.384.919a9.276,9.276,0,0,0-2.088.86l-1.014-.5a1.106,1.106,0,0,0-.919-.283,1.417,1.417,0,0,0-1,.416l-1.006,1.006a1.424,1.424,0,0,0,0,2.012l.5,1a9.2,9.2,0,0,0-.845,2.044l-1.06.355a1.423,1.423,0,0,0-1.422,1.423v1.423a1.422,1.422,0,0,0,1.422,1.422l1.06.355a9.162,9.162,0,0,0,.845,2.044l-.5,1a1.424,1.424,0,0,0,0,2.012l1.006,1a1.422,1.422,0,0,0,2.011,0l1-.5A9.207,9.207,0,0,0,891.512,5089.9Zm-1.571-8.9a4.06,4.06,0,1,1,4.06,4.06A4.065,4.065,0,0,1,889.94,5081Zm1.62,0a2.44,2.44,0,1,0,2.44-2.44A2.442,2.442,0,0,0,891.56,5081Z" fill="#102a3a"/>
  </g>
</svg>
