<svg xmlns="http://www.w3.org/2000/svg" width="28" height="28" viewBox="0 0 28 28">
  <g id="terms" transform="translate(-774 -5178)">
    <rect id="Rectangle_3459" data-name="Rectangle 3459" width="28" height="28" transform="translate(774 5178)" fill="none"/>
    <path id="icon" d="M786.429,5187.594h-4.714v1.563h4.714Zm0-3.125h-4.714v1.563h4.714Zm-4.714,7.813h12.571v-1.563H781.714ZM791.929,5179H779.357a2.351,2.351,0,0,0-2.357,2.344v20.313a2.351,2.351,0,0,0,2.357,2.344h17.286a2.351,2.351,0,0,0,2.357-2.344v-15.625Zm0,2.344,4.714,4.688H793.5a1.568,1.568,0,0,1-1.571-1.563Zm5.5,19.531a1.567,1.567,0,0,1-1.571,1.563H780.143a1.567,1.567,0,0,1-1.571-1.562v-18.75a1.567,1.567,0,0,1,1.571-1.562h10.214v4.688a2.35,2.35,0,0,0,2.357,2.344h4.714Zm-15.714-5.469h12.571v-1.562H781.714Zm0,3.125h12.571v-1.562H781.714Z" transform="translate(0 1)" fill="#102a3a"/>
  </g>
</svg>
