<svg id="BACKGROUND_1" data-name="BACKGROUND 1" xmlns="http://www.w3.org/2000/svg" width="500" height="500" viewBox="0 0 500 500">
  <g id="Layer_2" data-name="Layer 2">
    <g id="BACKGROUND_1-2" data-name="BACKGROUND 1">
      <path id="Path_12103" data-name="Path 12103" d="M491.27,0H0V500H500V0Z" fill="#0fa3b8"/>
      <g id="Group_2042" data-name="Group 2042" opacity="0.2">
        <path id="Path_12104" data-name="Path 12104" d="M338.71,121.79c32.54,21.59,20.13,41.83,43,62.56,12.8,11.64,35.11,18.29,48.11,38.17,24.22,37.07-15,67.7-42.26,87.52-10.84,7.88-28,13.17-36.42,32.72C346.66,353,349,378.11,324,387.37c-25.94,9.63-43.36-12.95-60.6-14.43-22.91-2-35,4.3-58,4.28-30.15,0-60.9-3.72-78.12-31.75-6.62-10.78-10.75-22.85-13.59-35.12-2.57-11.14-1.39-22.84-8.07-32.76-9.92-14.71-24.87-20.54-28.56-39.83C69.2,196.44,113.33,185.1,144,171.35c16.77-7.54,21.32-30.27,33.61-43,17.76-18.38,43.93-28.66,69.54-29.21S313,104.72,338.71,121.79Z" fill="#6362ed"/>
      </g>
      <path id="Path_12105" data-name="Path 12105" d="M296.5,244c9.61,3.44,34.2,29.24,57.49,47.16" fill="none" stroke="#feb045" stroke-miterlimit="10" stroke-width="4"/>
      <path id="Path_12106" data-name="Path 12106" d="M154.66,277.36s32.57-54.16,87.51-45.3" fill="none" stroke="#feb045" stroke-miterlimit="10" stroke-width="4"/>
      <path id="Path_12107" data-name="Path 12107" d="M354,291.2c16,10.54,34.92,19.36,56.93,21.91C472.7,320.27,492.18,303,492.18,303" fill="none" stroke="#fd827b" stroke-linecap="round" stroke-linejoin="round" stroke-width="4"/>
      <path id="Path_12108" data-name="Path 12108" d="M249.15,137.74c45.29,0,71.84,20.93,71.84,56.86,0,45.29-46.85,54.35-46.85,87.15H222c0-46.55,34.36-51.55,34.36-75.6,0-9.06-4.37-13.12-13.74-13.12-11.56,0-16.87,7.81-16.87,24.68H172C172,167.42,200.42,137.74,249.15,137.74Zm30,192.42c0,19.06-13.12,32.18-32.18,32.18-18.74,0-31.86-13.12-31.86-32.18,0-18.74,13.12-31.86,31.86-31.86,19.03,0,32.17,13.12,32.17,31.86Z" fill="#f8fafb"/>
      <path id="Path_12109" data-name="Path 12109" d="M256.16,130.64c45.29,0,71.85,20.93,71.85,56.85,0,45.29-46.86,54.35-46.86,87.15H229c0-46.54,34.36-51.54,34.36-75.59,0-9.06-4.38-13.12-13.75-13.12-11.56,0-16.87,7.81-16.87,24.68H179C179,160.32,207.43,130.64,256.16,130.64Zm30,192.42c0,19.05-13.12,32.17-32.18,32.17-18.74,0-31.86-13.12-31.86-32.17,0-18.74,13.12-31.86,31.86-31.86,19.02,0,32.17,13.12,32.17,31.86Z" fill="none" stroke="#feb045" stroke-miterlimit="10" stroke-width="3"/>
      <path id="Path_12110" data-name="Path 12110" d="M189.58,323.22c-16.84,16.84-34.49,18.93-47.85,5.57-16.84-16.84-2.79-37.63-15-49.83l19.4-19.4c17.31,17.31,6.39,31.95,15.33,40.89,3.37,3.37,6.51,3.25,10-.23,4.3-4.3,3.37-9.18-2.9-15.45l20-20C207.24,283.49,207.7,305.1,189.58,323.22Zm-82.7-60.4c-7.08-7.09-7.08-16.85,0-23.93s16.73-7,23.81.11,7,16.73,0,23.7-16.84,7.08-23.81.12Z" fill="#f8fafb"/>
      <path id="Path_12111" data-name="Path 12111" d="M189.62,328.47c-16.85,16.84-34.5,18.93-47.86,5.57-16.84-16.84-2.79-37.63-15-49.83l19.4-19.4c17.3,17.31,6.38,31.94,15.33,40.89,3.37,3.37,6.5,3.25,10-.23,4.29-4.3,3.37-9.18-2.91-15.45l20-20C207.27,288.74,207.74,310.34,189.62,328.47Zm-82.71-60.41c-7.08-7.08-7.08-16.84,0-23.92s16.73-7,23.82.11,7,16.73,0,23.7-16.85,7.05-23.82.11Z" fill="none" stroke="#5db3f7" stroke-miterlimit="10" stroke-width="3"/>
      <path id="Path_12112" data-name="Path 12112" d="M383.26,243.27c18.37,15.17,22.13,32.54,10.1,47.11-15.16,18.37-37.19,6.36-48.18,19.66L324,292.57c15.58-18.87,31.19-9.39,39.24-19.15,3-3.67,2.62-6.78-1.18-9.92-4.69-3.87-9.45-2.48-15.1,4.36l-21.79-18C342,229.48,363.5,227,383.26,243.27ZM331,331.35c-6.38,7.72-16.09,8.65-23.82,2.27s-8.53-16-2.15-23.71,16-8.53,23.59-2.26S337.28,323.75,331,331.35Z" fill="#f8fafb"/>
      <path id="Path_12113" data-name="Path 12113" d="M388.48,242.74c18.37,15.16,22.13,32.54,10.11,47.11-15.17,18.37-37.2,6.35-48.18,19.66L329.25,292c15.58-18.87,31.19-9.4,39.24-19.15,3-3.67,2.62-6.79-1.18-9.92-4.68-3.87-9.45-2.48-15.1,4.36l-21.79-18C347.26,228.94,368.72,226.43,388.48,242.74Zm-52.26,88.07c-6.37,7.73-16.09,8.66-23.82,2.28s-8.52-16-2.14-23.71,16-8.53,23.58-2.26S342.5,323.21,336.22,330.81Z" fill="none" stroke="#fd827b" stroke-miterlimit="10" stroke-width="3"/>
      <path id="Path_12114" data-name="Path 12114" d="M12.71,316.15c87.72,29.64,120-3,120-3" fill="none" stroke="#5db3f7" stroke-linecap="round" stroke-linejoin="round" stroke-width="4"/>
    </g>
  </g>
</svg>
