<svg id="camera" xmlns="http://www.w3.org/2000/svg" width="106.25" height="62.7" viewBox="0 0 106.25 62.7">
  <rect id="Rectangle_2840" data-name="Rectangle 2840" width="11.62" height="3.09" transform="translate(29.91 0.34)" fill="#b8c7d8"/>
  <rect id="Rectangle_2841" data-name="Rectangle 2841" width="0.54" height="3.09" transform="translate(31.82 0.34)" fill="#2c5871"/>
  <rect id="Rectangle_2842" data-name="Rectangle 2842" width="0.54" height="3.09" transform="translate(34.17 0.34)" fill="#2c5871"/>
  <rect id="Rectangle_2843" data-name="Rectangle 2843" width="0.54" height="3.09" transform="translate(36.53 0.34)" fill="#2c5871"/>
  <rect id="Rectangle_2844" data-name="Rectangle 2844" width="0.54" height="3.09" transform="translate(38.89 0.34)" fill="#2c5871"/>
  <path id="Path_11506" data-name="Path 11506" d="M6.66,51.58a5.62,5.62,0,0,1-5-5.57V20.73a5.62,5.62,0,0,1,5.05-5.57V13.55A7.22,7.22,0,0,0,0,20.73V46a7.22,7.22,0,0,0,6.66,7.18Z" fill="#b8c7d8"/>
  <path id="Path_11507" data-name="Path 11507" d="M91.57,1.77A1.77,1.77,0,0,1,89.8,3.54H83a1.77,1.77,0,0,1-1.77-1.77h0A1.77,1.77,0,0,1,83,0h6.8a1.77,1.77,0,0,1,1.77,1.77Z" fill="#f99b1d"/>
  <rect id="Rectangle_2845" data-name="Rectangle 2845" width="14.52" height="3.54" transform="translate(79.11 1.77)" fill="#b8c7d8"/>
  <path id="Path_11508" data-name="Path 11508" d="M98.43,3H12.38a7.83,7.83,0,0,0-7.83,7.82V54.88a7.83,7.83,0,0,0,7.83,7.82H98.43a7.82,7.82,0,0,0,7.82-7.82V10.81A7.82,7.82,0,0,0,98.43,3Z" fill="#cc330a"/>
  <path id="Path_11509" data-name="Path 11509" d="M79.21,18.78a27.61,27.61,0,0,0-47.61,0H8.6V52.73H36.17a27.58,27.58,0,0,0,38.46,0h27.6V18.78Z" fill="#f99b1d"/>
  <path id="Path_11510" data-name="Path 11510" d="M106.25,50.27,72.88,16.9,37.34,48,52.06,62.7H98.43a7.82,7.82,0,0,0,7.82-7.82Z" fill="#062f3a" opacity="0.3"/>
  <path id="Path_11511" data-name="Path 11511" d="M24.5,3.59H18.16a7.17,7.17,0,1,0,0,14.33H24.5a7.17,7.17,0,1,0,0-14.33Z" fill="#2c5871"/>
  <path id="Path_11512" data-name="Path 11512" d="M18.16,16.9H24.5a6.15,6.15,0,1,0,0-12.29H18.16a6.15,6.15,0,1,0,0,12.29Z" fill="#fcbf29"/>
  <path id="Path_11513" data-name="Path 11513" d="M33.66,33.37a12.92,12.92,0,0,1,.31-2.8H30.31a15.8,15.8,0,0,0,0,5.6H34a12.92,12.92,0,0,1-.34-2.8Z" fill="#fff"/>
  <path id="Path_11514" data-name="Path 11514" d="M55.4,9.18A23.67,23.67,0,1,0,79.07,32.85,23.67,23.67,0,0,0,55.4,9.18Z" fill="#2c5871"/>
  <path id="Path_11515" data-name="Path 11515" d="M55.4,51.35a18.5,18.5,0,1,1,18.5-18.5,18.5,18.5,0,0,1-18.5,18.5Z" fill="#14b0bf"/>
  <path id="Path_11516" data-name="Path 11516" d="M95.93,35.17a.29.29,0,0,0-.28.29c0,.31.57.31.57,0a.28.28,0,0,0-.29-.29Z" fill="#2c5871"/>
  <path id="Path_11517" data-name="Path 11517" d="M96.22,29.31a.29.29,0,0,0-.57,0C95.65,29.63,96.22,29.63,96.22,29.31Z" fill="#2c5871"/>
  <path id="Path_11518" data-name="Path 11518" d="M94.17,32.34a.3.3,0,0,0-.29-.29.29.29,0,0,0-.29.29C93.59,32.65,94.16,32.65,94.17,32.34Z" fill="#2c5871"/>
  <path id="Path_11519" data-name="Path 11519" d="M90.05,32.34a.29.29,0,0,0-.28-.29.3.3,0,0,0-.3.29C89.47,32.65,90.05,32.65,90.05,32.34Z" fill="#2c5871"/>
  <path id="Path_11520" data-name="Path 11520" d="M92.11,29.31a.29.29,0,0,0-.58,0C91.53,29.63,92.11,29.63,92.11,29.31Z" fill="#2c5871"/>
  <path id="Path_11521" data-name="Path 11521" d="M91.82,35.17a.29.29,0,0,0-.29.29c0,.31.58.31.58,0A.29.29,0,0,0,91.82,35.17Z" fill="#2c5871"/>
  <path id="Path_11522" data-name="Path 11522" d="M89.77,44.53a.3.3,0,0,0-.3.29c0,.31.58.31.58,0A.29.29,0,0,0,89.77,44.53Z" fill="#2c5871"/>
  <path id="Path_11523" data-name="Path 11523" d="M92.11,23.17a.29.29,0,0,0-.58,0C91.53,23.49,92.11,23.49,92.11,23.17Z" fill="#2c5871"/>
  <path id="Path_11524" data-name="Path 11524" d="M90.05,26.1a.29.29,0,0,0-.28-.29.3.3,0,0,0-.3.29C89.47,26.42,90.05,26.42,90.05,26.1Z" fill="#2c5871"/>
  <path id="Path_11525" data-name="Path 11525" d="M88,23.17a.29.29,0,1,0-.57,0C87.42,23.49,88,23.48,88,23.17Z" fill="#2c5871"/>
  <path id="Path_11526" data-name="Path 11526" d="M96.22,23.17a.28.28,0,0,0-.29-.29.29.29,0,0,0-.28.29C95.65,23.49,96.22,23.49,96.22,23.17Z" fill="#2c5871"/>
  <path id="Path_11527" data-name="Path 11527" d="M98.28,26.1a.29.29,0,0,0-.29-.29.3.3,0,0,0-.29.29C97.7,26.42,98.28,26.42,98.28,26.1Z" fill="#2c5871"/>
  <path id="Path_11528" data-name="Path 11528" d="M98,44.53a.3.3,0,0,0-.29.29c0,.31.58.31.58,0a.29.29,0,0,0-.29-.29Z" fill="#2c5871"/>
  <path id="Path_11529" data-name="Path 11529" d="M94.17,26.1a.28.28,0,0,0-.29-.29.29.29,0,0,0-.29.29C93.59,26.41,94.16,26.42,94.17,26.1Z" fill="#2c5871"/>
  <path id="Path_11530" data-name="Path 11530" d="M85.94,26.1a.29.29,0,0,0-.58,0C85.36,26.42,85.94,26.42,85.94,26.1Z" fill="#2c5871"/>
  <path id="Path_11531" data-name="Path 11531" d="M91.82,47.46a.29.29,0,0,0-.29.28c0,.32.58.32.58,0A.29.29,0,0,0,91.82,47.46Z" fill="#2c5871"/>
  <path id="Path_11532" data-name="Path 11532" d="M83.88,23.17a.29.29,0,1,0-.58,0C83.3,23.49,83.88,23.49,83.88,23.17Z" fill="#2c5871"/>
  <path id="Path_11533" data-name="Path 11533" d="M87.7,47.46a.29.29,0,0,0-.28.28c0,.32.57.32.57,0A.29.29,0,0,0,87.7,47.46Z" fill="#2c5871"/>
  <path id="Path_11534" data-name="Path 11534" d="M95.93,47.46a.29.29,0,0,0-.28.28c0,.32.57.32.57,0A.29.29,0,0,0,95.93,47.46Z" fill="#2c5871"/>
  <path id="Path_11535" data-name="Path 11535" d="M85.65,44.53a.29.29,0,0,0-.29.29c0,.31.58.31.58,0A.29.29,0,0,0,85.65,44.53Z" fill="#2c5871"/>
  <path id="Path_11536" data-name="Path 11536" d="M83.59,47.46a.29.29,0,0,0-.29.28c0,.32.58.32.58,0a.29.29,0,0,0-.29-.28Z" fill="#2c5871"/>
  <path id="Path_11537" data-name="Path 11537" d="M93.88,44.53a.29.29,0,0,0-.29.29c0,.31.57.31.58,0A.3.3,0,0,0,93.88,44.53Z" fill="#2c5871"/>
  <path id="Path_11538" data-name="Path 11538" d="M85.65,38.29a.29.29,0,0,0-.29.29c0,.31.58.31.58,0a.29.29,0,0,0-.29-.29Z" fill="#2c5871"/>
  <path id="Path_11539" data-name="Path 11539" d="M95.93,41.31a.29.29,0,0,0-.28.29c0,.32.57.32.57,0A.29.29,0,0,0,95.93,41.31Z" fill="#2c5871"/>
  <path id="Path_11540" data-name="Path 11540" d="M83.59,41.31a.29.29,0,0,0-.29.29c0,.32.58.32.58,0a.29.29,0,0,0-.29-.29Z" fill="#2c5871"/>
  <path id="Path_11541" data-name="Path 11541" d="M98.28,38.58a.29.29,0,0,0-.29-.29.3.3,0,0,0-.29.29C97.7,38.89,98.28,38.89,98.28,38.58Z" fill="#2c5871"/>
  <path id="Path_11542" data-name="Path 11542" d="M83.59,35.17a.29.29,0,0,0-.29.29c0,.31.58.31.58,0a.29.29,0,0,0-.29-.29Z" fill="#2c5871"/>
  <path id="Path_11543" data-name="Path 11543" d="M87.7,41.31a.29.29,0,0,0-.28.29c0,.32.57.32.57,0A.29.29,0,0,0,87.7,41.31Z" fill="#2c5871"/>
  <path id="Path_11544" data-name="Path 11544" d="M91.82,41.31a.29.29,0,0,0-.29.29c0,.32.58.32.58,0A.29.29,0,0,0,91.82,41.31Z" fill="#2c5871"/>
  <path id="Path_11545" data-name="Path 11545" d="M87.7,35.17a.29.29,0,0,0-.28.29c0,.31.57.31.57,0A.29.29,0,0,0,87.7,35.17Z" fill="#2c5871"/>
  <path id="Path_11546" data-name="Path 11546" d="M89.77,38.29a.3.3,0,0,0-.3.29c0,.31.58.31.58,0A.29.29,0,0,0,89.77,38.29Z" fill="#2c5871"/>
  <path id="Path_11547" data-name="Path 11547" d="M93.88,38.29a.29.29,0,0,0-.29.29c0,.31.57.31.58,0A.3.3,0,0,0,93.88,38.29Z" fill="#2c5871"/>
  <path id="Path_11548" data-name="Path 11548" d="M88,29.31a.29.29,0,0,0-.57,0C87.42,29.63,88,29.63,88,29.31Z" fill="#2c5871"/>
  <path id="Path_11549" data-name="Path 11549" d="M85.94,32.34a.29.29,0,0,0-.58,0C85.36,32.65,85.94,32.65,85.94,32.34Z" fill="#2c5871"/>
  <path id="Path_11550" data-name="Path 11550" d="M98.28,32.34a.29.29,0,0,0-.29-.29.3.3,0,0,0-.29.29C97.7,32.65,98.28,32.65,98.28,32.34Z" fill="#2c5871"/>
  <path id="Path_11551" data-name="Path 11551" d="M83.59,29a.29.29,0,0,0-.29.28c0,.32.58.32.58,0a.29.29,0,0,0-.29-.28Z" fill="#2c5871"/>
  <path id="Path_11552" data-name="Path 11552" d="M25.16,35.17a.29.29,0,0,0-.29.29c0,.31.57.31.57,0a.28.28,0,0,0-.28-.29Z" fill="#2c5871"/>
  <path id="Path_11553" data-name="Path 11553" d="M25.44,29.31a.28.28,0,0,0-.28-.28.29.29,0,0,0-.29.28C24.87,29.63,25.44,29.63,25.44,29.31Z" fill="#2c5871"/>
  <path id="Path_11554" data-name="Path 11554" d="M23.39,32.34a.29.29,0,1,0-.58,0C22.81,32.65,23.39,32.65,23.39,32.34Z" fill="#2c5871"/>
  <path id="Path_11555" data-name="Path 11555" d="M19.27,32.34a.29.29,0,0,0-.28-.29.28.28,0,0,0-.29.29C18.7,32.65,19.27,32.65,19.27,32.34Z" fill="#2c5871"/>
  <path id="Path_11556" data-name="Path 11556" d="M21.33,29.31A.29.29,0,0,0,21,29a.3.3,0,0,0-.29.28C20.75,29.63,21.33,29.63,21.33,29.31Z" fill="#2c5871"/>
  <path id="Path_11557" data-name="Path 11557" d="M21,35.17a.3.3,0,0,0-.29.29c0,.31.58.31.58,0A.29.29,0,0,0,21,35.17Z" fill="#2c5871"/>
  <path id="Path_11558" data-name="Path 11558" d="M19,44.53a.28.28,0,0,0-.29.29c0,.31.57.31.57,0A.29.29,0,0,0,19,44.53Z" fill="#2c5871"/>
  <path id="Path_11559" data-name="Path 11559" d="M21.33,23.17a.29.29,0,0,0-.29-.29.3.3,0,0,0-.29.29C20.75,23.49,21.33,23.49,21.33,23.17Z" fill="#2c5871"/>
  <path id="Path_11560" data-name="Path 11560" d="M19.27,26.1a.29.29,0,0,0-.28-.29.28.28,0,0,0-.29.29C18.7,26.42,19.27,26.42,19.27,26.1Z" fill="#2c5871"/>
  <path id="Path_11561" data-name="Path 11561" d="M17.22,23.17a.29.29,0,1,0-.58,0C16.64,23.49,17.22,23.48,17.22,23.17Z" fill="#2c5871"/>
  <path id="Path_11562" data-name="Path 11562" d="M25.44,23.17a.28.28,0,0,0-.28-.29.29.29,0,0,0-.29.29C24.87,23.49,25.45,23.49,25.44,23.17Z" fill="#2c5871"/>
  <path id="Path_11563" data-name="Path 11563" d="M27.5,26.1a.29.29,0,1,0-.57,0C26.93,26.42,27.5,26.42,27.5,26.1Z" fill="#2c5871"/>
  <path id="Path_11564" data-name="Path 11564" d="M27.21,44.53a.29.29,0,0,0-.28.29c0,.31.57.31.57,0a.29.29,0,0,0-.29-.29Z" fill="#2c5871"/>
  <path id="Path_11565" data-name="Path 11565" d="M23.39,26.1a.28.28,0,0,0-.29-.29.29.29,0,0,0-.29.29C22.81,26.41,23.39,26.42,23.39,26.1Z" fill="#2c5871"/>
  <path id="Path_11566" data-name="Path 11566" d="M15.16,26.1a.29.29,0,0,0-.58,0C14.58,26.42,15.16,26.42,15.16,26.1Z" fill="#2c5871"/>
  <path id="Path_11567" data-name="Path 11567" d="M21,47.46a.3.3,0,0,0-.29.28c0,.32.58.32.58,0a.29.29,0,0,0-.29-.28Z" fill="#2c5871"/>
  <path id="Path_11568" data-name="Path 11568" d="M13.1,23.17a.29.29,0,1,0-.58,0C12.52,23.49,13.1,23.49,13.1,23.17Z" fill="#2c5871"/>
  <path id="Path_11569" data-name="Path 11569" d="M16.93,47.46a.29.29,0,0,0-.29.28c0,.32.58.32.58,0a.29.29,0,0,0-.29-.28Z" fill="#2c5871"/>
  <path id="Path_11570" data-name="Path 11570" d="M25.16,47.46a.29.29,0,0,0-.29.28c0,.32.57.32.57,0a.28.28,0,0,0-.28-.28Z" fill="#2c5871"/>
  <path id="Path_11571" data-name="Path 11571" d="M14.87,44.53a.29.29,0,0,0-.29.29c0,.31.58.31.58,0A.29.29,0,0,0,14.87,44.53Z" fill="#2c5871"/>
  <path id="Path_11572" data-name="Path 11572" d="M12.81,47.46a.29.29,0,0,0-.29.28c0,.32.58.32.58,0A.29.29,0,0,0,12.81,47.46Z" fill="#2c5871"/>
  <path id="Path_11573" data-name="Path 11573" d="M23.1,44.53a.29.29,0,0,0-.29.29c0,.31.58.31.58,0A.29.29,0,0,0,23.1,44.53Z" fill="#2c5871"/>
  <path id="Path_11574" data-name="Path 11574" d="M14.87,38.29a.29.29,0,0,0-.29.29c0,.31.58.31.58,0a.29.29,0,0,0-.29-.29Z" fill="#2c5871"/>
  <path id="Path_11575" data-name="Path 11575" d="M25.16,41.31a.29.29,0,0,0-.29.29c0,.32.58.32.57,0a.28.28,0,0,0-.28-.29Z" fill="#2c5871"/>
  <path id="Path_11576" data-name="Path 11576" d="M12.81,41.31a.29.29,0,0,0-.29.29c0,.32.58.32.58,0A.29.29,0,0,0,12.81,41.31Z" fill="#2c5871"/>
  <path id="Path_11577" data-name="Path 11577" d="M27.5,38.58a.29.29,0,1,0-.57,0C26.93,38.89,27.5,38.89,27.5,38.58Z" fill="#2c5871"/>
  <path id="Path_11578" data-name="Path 11578" d="M12.81,35.17a.29.29,0,0,0-.29.29c0,.31.58.31.58,0A.29.29,0,0,0,12.81,35.17Z" fill="#2c5871"/>
  <path id="Path_11579" data-name="Path 11579" d="M16.93,41.31a.29.29,0,0,0-.29.29c0,.32.58.32.58,0a.29.29,0,0,0-.29-.29Z" fill="#2c5871"/>
  <path id="Path_11580" data-name="Path 11580" d="M21,41.31a.3.3,0,0,0-.29.29c0,.32.58.32.58,0A.29.29,0,0,0,21,41.31Z" fill="#2c5871"/>
  <path id="Path_11581" data-name="Path 11581" d="M16.93,35.17a.29.29,0,0,0-.29.29c0,.31.58.31.58,0a.29.29,0,0,0-.29-.29Z" fill="#2c5871"/>
  <path id="Path_11582" data-name="Path 11582" d="M19,38.29a.28.28,0,0,0-.29.29c0,.31.57.31.57,0A.29.29,0,0,0,19,38.29Z" fill="#2c5871"/>
  <path id="Path_11583" data-name="Path 11583" d="M23.1,38.29a.29.29,0,0,0-.29.29c0,.31.58.31.58,0a.29.29,0,0,0-.29-.29Z" fill="#2c5871"/>
  <path id="Path_11584" data-name="Path 11584" d="M17.22,29.31a.29.29,0,1,0-.58,0C16.64,29.63,17.22,29.63,17.22,29.31Z" fill="#2c5871"/>
  <path id="Path_11585" data-name="Path 11585" d="M15.16,32.34a.29.29,0,1,0-.58,0C14.58,32.65,15.16,32.65,15.16,32.34Z" fill="#2c5871"/>
  <path id="Path_11586" data-name="Path 11586" d="M27.5,32.34a.29.29,0,1,0-.57,0C26.93,32.65,27.5,32.65,27.5,32.34Z" fill="#2c5871"/>
  <path id="Path_11587" data-name="Path 11587" d="M12.81,29a.29.29,0,0,0-.29.28c0,.32.58.32.58,0a.29.29,0,0,0-.29-.28Z" fill="#2c5871"/>
  <path id="Path_11588" data-name="Path 11588" d="M18.7,14.84a.74.74,0,0,1-.74.74h0a.74.74,0,0,1-.74-.74V7.11A.75.75,0,0,1,18,6.36h0a.75.75,0,0,1,.74.75Z" fill="#f99b1d"/>
  <path id="Path_11589" data-name="Path 11589" d="M25.61,14.84a.74.74,0,0,1-.74.74h0a.74.74,0,0,1-.74-.74V7.11a.75.75,0,0,1,.74-.75h0a.75.75,0,0,1,.74.75Z" fill="#f99b1d"/>
  <path id="Path_11590" data-name="Path 11590" d="M62.61,40.82A15.25,15.25,0,0,1,51,45.26,11.57,11.57,0,0,0,67.05,29.2a15.26,15.26,0,0,1-4.44,11.62Z" fill="#fff"/>
</svg>
