<svg xmlns="http://www.w3.org/2000/svg" width="105.011" height="87.19" viewBox="0 0 105.011 87.19">
  <g id="phone" transform="translate(-0.02)">
    <path id="Path_11479" data-name="Path 11479" d="M24.18,85.25a1.94,1.94,0,0,1-1.94,1.94h-4a1.94,1.94,0,0,1-1.94-1.94h0a1.94,1.94,0,0,1,1.94-1.94h4A1.94,1.94,0,0,1,24.18,85.25Z" fill="#2c5871"/>
    <path id="Path_11480" data-name="Path 11480" d="M88.8,85.25a1.94,1.94,0,0,1-1.94,1.94h-4a1.94,1.94,0,0,1-1.94-1.94h0a1.94,1.94,0,0,1,1.94-1.94h4A1.94,1.94,0,0,1,88.8,85.25Z" fill="#2c5871"/>
    <rect id="Rectangle_2838" data-name="Rectangle 2838" width="77.03" height="3.65" transform="translate(14.02 74.99)" fill="#a51b00"/>
    <path id="Path_11481" data-name="Path 11481" d="M93.4,66.88H89.59A18.88,18.88,0,0,1,70.73,48V32.23l4.85,3.94a49.78,49.78,0,0,1,17,27.06Z" fill="#a51b00"/>
    <path id="Path_11482" data-name="Path 11482" d="M15.47,66.88H11.66l.86-3.65a49.8,49.8,0,0,1,17-27.06l4.84-3.94V48A18.88,18.88,0,0,1,15.47,66.88Z" fill="#a51b00"/>
    <path id="Path_11483" data-name="Path 11483" d="M92.17,64.28A18.56,18.56,0,0,1,73.6,45.71V28.22H31.46V45.71A18.56,18.56,0,0,1,12.9,64.28h-2V75.89H94.2V64.28Z" fill="#e55555"/>
    <path id="Path_11484" data-name="Path 11484" d="M52.53,69.34A18.67,18.67,0,1,1,71.2,50.67,18.67,18.67,0,0,1,52.53,69.34Z" fill="#a51b00"/>
    <path id="Path_11485" data-name="Path 11485" d="M56.69,37.88a3.09,3.09,0,1,1-.389,2.343,3.1,3.1,0,0,1,.389-2.343Zm-4-3.23a3.165,3.165,0,1,0,.04,0Zm-8.06,2.18a2.261,2.261,0,1,0,.04,0ZM39,42.43a3.09,3.09,0,1,1,.94,4.28A3.09,3.09,0,0,1,39,42.43Zm-2.3,8.24a3.09,3.09,0,1,1,.905,2.195A3.1,3.1,0,0,1,36.7,50.67Zm2.19,8a1.563,1.563,0,1,1,0,.05Zm9.87,4.74a6.409,6.409,0,1,1,0,.05Zm4,3.24a1.978,1.978,0,1,1-.03.05Zm8.05-2.19a8.548,8.548,0,1,1-.03.05ZM66.6,42.57a2.254,2.254,0,1,0-.03.05Z" fill="#ffd098"/>
    <path id="Path_11486" data-name="Path 11486" d="M52.53,33.85A16.82,16.82,0,1,0,69.35,50.67,16.82,16.82,0,0,0,52.53,33.85Zm4.16,4a9.558,9.558,0,1,1,0,.03Zm4.15,12.79a8.344,8.344,0,1,0,0,.03Zm-8.11-16a3.084,3.084,0,1,0,0,.01Zm-8.06,2.18a7.7,7.7,0,1,0,0,.01ZM39,42.43a3.09,3.09,0,1,1,.94,4.28A3.09,3.09,0,0,1,39,42.43Zm-2.3,8.24a3.09,3.09,0,1,1,.905,2.195A3.1,3.1,0,0,1,36.7,50.67Zm2.19,8a1.563,1.563,0,1,1,0,.05Zm9.87,4.74a6.409,6.409,0,1,1,0,.05Zm4,3.24a1.978,1.978,0,1,1-.03.05Zm8.05-2.19a8.548,8.548,0,1,1-.03.05ZM66.6,42.57a2.254,2.254,0,1,0-.03.05Z" fill="#fff"/>
    <rect id="Rectangle_2839" data-name="Rectangle 2839" width="83.34" height="7.35" transform="translate(10.86 78)" fill="#e55555"/>
    <path id="Path_11487" data-name="Path 11487" d="M39.8,49a3.1,3.1,0,0,1,3,2.4,3.1,3.1,0,1,0-6,0,3.1,3.1,0,0,1,3-2.4Z" fill="#f99b1d"/>
    <path id="Path_11488" data-name="Path 11488" d="M40.12,55.92a3.08,3.08,0,0,1,4.2,1.22,2.93,2.93,0,0,1,.28.8,3,3,0,0,0-.28-2.18,3.09,3.09,0,0,0-5.72,2.17,3,3,0,0,1,1.52-2.01Z" fill="#f99b1d"/>
    <path id="Path_11489" data-name="Path 11489" d="M43.55,61.51a3.09,3.09,0,0,1,5.61,1,3.08,3.08,0,1,0-6,0A3.22,3.22,0,0,1,43.55,61.51Z" fill="#f99b1d"/>
    <path id="Path_11490" data-name="Path 11490" d="M39,43.82a3.08,3.08,0,0,1,5.61,1,3.09,3.09,0,1,0-6,0A2.91,2.91,0,0,1,39,43.82Z" fill="#f99b1d"/>
    <path id="Path_11491" data-name="Path 11491" d="M44.67,38.22a3.09,3.09,0,0,1,4.2,1.23,2.89,2.89,0,0,1,.29.79,3.09,3.09,0,1,0-6,0A3.07,3.07,0,0,1,44.67,38.22Z" fill="#f99b1d"/>
    <path id="Path_11492" data-name="Path 11492" d="M62.37,42.77A3.09,3.09,0,0,1,66.57,44a2.87,2.87,0,0,1,.28.79,3,3,0,0,0-.28-2.17,3.09,3.09,0,0,0-5.72,2.17,3.05,3.05,0,0,1,1.52-2.02Z" fill="#f99b1d"/>
    <path id="Path_11493" data-name="Path 11493" d="M52.73,61.89a3.1,3.1,0,0,1,3,2.4,3.1,3.1,0,1,0-6,0,3.09,3.09,0,0,1,3-2.4Z" fill="#f99b1d"/>
    <path id="Path_11494" data-name="Path 11494" d="M57.82,60.46A3.1,3.1,0,0,1,62,61.7a3,3,0,0,1,.29.79,3.087,3.087,0,1,0-6,0A3,3,0,0,1,57.82,60.46Z" fill="#f99b1d"/>
    <path id="Path_11495" data-name="Path 11495" d="M56.69,39.27a3.09,3.09,0,0,1,5.62.95,3.09,3.09,0,0,0-5.62-2.34,3.14,3.14,0,0,0-.4,2.37,3.07,3.07,0,0,1,.4-.98Z" fill="#f99b1d"/>
    <path id="Path_11496" data-name="Path 11496" d="M52.73,36a3.1,3.1,0,0,1,3,2.4,3.1,3.1,0,1,0-6,0A3.09,3.09,0,0,1,52.73,36Z" fill="#f99b1d"/>
    <path id="Path_11497" data-name="Path 11497" d="M40.35,17.22Z" fill="#e55555"/>
    <path id="Path_11498" data-name="Path 11498" d="M105,29.4C102.08,12.86,79.7,0,52.53,0S3,12.86.05,29.4a3.25,3.25,0,0,0,3.39,3.69H23.2c2.06,0,3.35-1.65,3.46-3.69.2-3.72,1.94-8.87,10.06-8.75H68.35c7.48.07,9.41,5.1,9.82,8.74a3.85,3.85,0,0,0,3.69,3.7h19.77A3.25,3.25,0,0,0,105,29.4Z" fill="#e55555"/>
    <path id="Path_11499" data-name="Path 11499" d="M83,29.84c-.49-5.4-2.76-12.83-11.6-12.94H34c-9.59-.18-11.63,7.45-11.87,12.94a7.94,7.94,0,0,1-.82,3.25H23.2c2.06,0,3.35-1.65,3.46-3.69.2-3.72,1.94-8.87,10.06-8.75H68.35c7.48.07,9.41,5.1,9.82,8.74a3.85,3.85,0,0,0,3.69,3.7H84A8,8,0,0,1,83,29.84Z" fill="#a51b00"/>
    <path id="Path_11500" data-name="Path 11500" d="M9.43,29.63H3.5c2.92-14.72,24.34-26.2,49-26.2h1.53C31.48,3.94,12.13,15.22,9.43,29.63Zm72.42,0a1.07,1.07,0,0,1-.27-.67c-.83-7.31-5.76-11.71-13.23-11.78h2c7,.07,11.65,4.47,12.43,11.78a1.1,1.1,0,0,0,.25.67Z" fill="#fff"/>
    <path id="Path_11501" data-name="Path 11501" d="M41.63,28.9A3.67,3.67,0,0,1,38,32.57h0a3.66,3.66,0,0,1-3.7-3.67v-7A3.66,3.66,0,0,1,38,18.2h0a3.67,3.67,0,0,1,3.67,3.67Z" fill="#e55555"/>
    <path id="Path_11502" data-name="Path 11502" d="M70.77,28.9a3.67,3.67,0,0,1-3.67,3.67h0a3.67,3.67,0,0,1-3.67-3.67v-7a3.67,3.67,0,0,1,3.67-3.7h0a3.67,3.67,0,0,1,3.67,3.67Z" fill="#e55555"/>
    <path id="Path_11503" data-name="Path 11503" d="M66.19,59.17a7.43,7.43,0,0,0-5.39-3.68,5.48,5.48,0,0,1,6.46,1.39,15,15,0,0,1-1.07,2.29Z" fill="#2c5871"/>
    <path id="Path_11504" data-name="Path 11504" d="M66.72,58.77a7.45,7.45,0,0,0-5.4-3.68,5.5,5.5,0,0,1,6.47,1.39,14.07,14.07,0,0,1-1.07,2.29Z" fill="#d3dce5"/>
    <path id="Path_11505" data-name="Path 11505" d="M53.87,50.67a1.14,1.14,0,1,1-1.14-1.14,1.14,1.14,0,0,1,1.14,1.14Z" fill="#fff"/>
  </g>
</svg>
