<svg xmlns="http://www.w3.org/2000/svg" width="85.43" height="94.58" viewBox="0 0 85.43 94.58">
  <g id="tv" transform="translate(0 0.01)">
    <path id="Path_11449" data-name="Path 11449" d="M51.06,11.44a1.15,1.15,0,0,1-1.64,0h0a1.16,1.16,0,0,1,0-1.64l7.69-7.69a1.15,1.15,0,0,1,1.64,0h0a1.15,1.15,0,0,1,0,1.64Z" fill="#a3b5c6"/>
    <path id="Path_11450" data-name="Path 11450" d="M60.25,3.6a2.11,2.11,0,1,1,.626-1.5,2.11,2.11,0,0,1-.626,1.5Z" fill="#d3dce5"/>
    <path id="Path_11451" data-name="Path 11451" d="M36,9.8a1.15,1.15,0,0,1,0,1.64h0a1.15,1.15,0,0,1-1.64,0L26.67,3.75a1.16,1.16,0,0,1,0-1.64h0a1.15,1.15,0,0,1,1.64,0Z" fill="#a3b5c6"/>
    <path id="Path_11452" data-name="Path 11452" d="M28.16.62a2.11,2.11,0,1,1-1.5-.626,2.11,2.11,0,0,1,1.5.626Z" fill="#d3dce5"/>
    <path id="Path_11453" data-name="Path 11453" d="M44.22,19.25a1.85,1.85,0,0,1-2.61,0h0a1.83,1.83,0,0,1,0-2.6l7.57-7.57a1.85,1.85,0,0,1,2.61,0h0a1.83,1.83,0,0,1,0,2.6Z" fill="#8c9faf"/>
    <path id="Path_11454" data-name="Path 11454" d="M43.82,16.65a1.83,1.83,0,0,1,0,2.6h0a1.85,1.85,0,0,1-2.61,0l-7.57-7.57a1.83,1.83,0,0,1,0-2.6h0a1.85,1.85,0,0,1,2.61,0Z" fill="#8c9faf"/>
    <path id="Path_11455" data-name="Path 11455" d="M55.37,23.35a14.82,14.82,0,0,0-25.31,0Z" fill="#788d9b"/>
    <path id="Path_11456" data-name="Path 11456" d="M8.75,92.73a1.84,1.84,0,0,0,3.68,0Z" fill="#062f3a"/>
    <path id="Path_11457" data-name="Path 11457" d="M73,92.73a1.85,1.85,0,0,0,3.69,0Z" fill="#062f3a"/>
    <path id="Path_11458" data-name="Path 11458" d="M78.86,22.56H6.57A6.57,6.57,0,0,0,0,29.13V86.42A6.57,6.57,0,0,0,6.57,93H78.86a6.57,6.57,0,0,0,6.57-6.57V29.13A6.57,6.57,0,0,0,78.86,22.56Z" fill="#2c5871"/>
    <path id="Path_11459" data-name="Path 11459" d="M80,73l-8.47,8.68L82,92.14a6.56,6.56,0,0,0,3.39-5.72v-8Z" fill="#062f3a"/>
    <path id="Path_11460" data-name="Path 11460" d="M82.92,60.62V46.81h0v-.08h0A2.59,2.59,0,0,0,82.16,45l-4.53-4.53a2.6,2.6,0,0,0-3.68,0L69.42,45a2.53,2.53,0,0,0-.75,1.76h0v.08h0V60.62h0v.52h0a2.64,2.64,0,0,0,.71,1.32L74,67a2.61,2.61,0,0,0,3.68,0l4.53-4.54a2.56,2.56,0,0,0,.71-1.32h0Z" fill="#f99b1d"/>
    <path id="Path_11461" data-name="Path 11461" d="M80,81.5a6,6,0,1,1,1.765-4.25A6,6,0,0,1,80,81.5Z" fill="#fff"/>
    <rect id="Rectangle_2837" data-name="Rectangle 2837" width="7.77" height="2.33" transform="matrix(0.706, -0.708, 0.708, 0.706, 72.228, 79.161)" fill="#e55555"/>
    <path id="Path_11462" data-name="Path 11462" d="M75.79,42.83a1.64,1.64,0,1,1-1.63,1.64A1.64,1.64,0,0,1,75.79,42.83Z" fill="#062f3a"/>
    <path id="Path_11463" data-name="Path 11463" d="M75.79,49a1.64,1.64,0,1,1-1.63,1.63A1.64,1.64,0,0,1,75.79,49Z" fill="#062f3a"/>
    <path id="Path_11464" data-name="Path 11464" d="M75.79,55.16a1.64,1.64,0,1,1-1.63,1.64,1.64,1.64,0,0,1,1.63-1.64Z" fill="#062f3a"/>
    <path id="Path_11465" data-name="Path 11465" d="M75.79,61.33a1.64,1.64,0,1,1-1.164.494,1.64,1.64,0,0,1,1.164-.494Z" fill="#062f3a"/>
    <path id="Path_11466" data-name="Path 11466" d="M71.41,45.92a1.63,1.63,0,1,1-1.159.474,1.64,1.64,0,0,1,1.159-.474Z" fill="#062f3a"/>
    <path id="Path_11467" data-name="Path 11467" d="M71.41,52.08a1.63,1.63,0,1,1-1.163.477,1.64,1.64,0,0,1,1.163-.477Z" fill="#062f3a"/>
    <path id="Path_11468" data-name="Path 11468" d="M71.41,58.25a1.63,1.63,0,1,1-1.159.474,1.64,1.64,0,0,1,1.159-.474Z" fill="#062f3a"/>
    <path id="Path_11469" data-name="Path 11469" d="M80.17,61.52a1.63,1.63,0,1,1,1.163-.477,1.64,1.64,0,0,1-1.163.477Z" fill="#062f3a"/>
    <path id="Path_11470" data-name="Path 11470" d="M80.17,55.35a1.63,1.63,0,1,1,1.159-.474A1.64,1.64,0,0,1,80.17,55.35Z" fill="#062f3a"/>
    <path id="Path_11471" data-name="Path 11471" d="M80.17,49.19a1.63,1.63,0,1,1,1.163-.477,1.64,1.64,0,0,1-1.163.477Z" fill="#062f3a"/>
    <path id="Path_11472" data-name="Path 11472" d="M63.39,81.66c-5.22,4.21-49.49,4.21-54.71,0-4.28-3.47-4.38-42.57,0-46.95,5.29-5.29,49.42-5.29,54.71,0C67.77,39.09,67.67,78.19,63.39,81.66Z" fill="#14b0bf"/>
    <path id="Path_11473" data-name="Path 11473" d="M63.39,34.71c-1.21-1.21-4.43-2.13-8.73-2.79,2.94,10.24,2.41,41-1.36,44-4,3.27-31.61,4-46.2,2.2a7.16,7.16,0,0,0,1.58,3.5c5.22,4.21,49.49,4.21,54.71,0C67.67,78.19,67.77,39.09,63.39,34.71Z" fill="#049da5"/>
    <path id="Path_11474" data-name="Path 11474" d="M55.37,76.67h0v2a26.92,26.92,0,0,0,4.46-.9,9.2,9.2,0,0,0,.35-1.14C58.65,76.65,57.05,76.67,55.37,76.67Z" fill="#fff"/>
    <path id="Path_11475" data-name="Path 11475" d="M22.53,45.7c2.32-.22,4.88-.39,7.64-.52a44.931,44.931,0,0,1,1.35-9.29c-2.7.08-5.15.22-7.34.4C23.5,37.9,22.94,41.27,22.53,45.7Z" fill="#fff"/>
    <path id="Path_11476" data-name="Path 11476" d="M18.41,46.15a61.74,61.74,0,0,1,1.36-9.4,31.06,31.06,0,0,0-7.36,1.56c-.7,1.62-1.21,5-1.52,9.17a62.62,62.62,0,0,1,7.52-1.33Z" fill="#fff"/>
    <path id="Path_11477" data-name="Path 11477" d="M18.13,50.29a46.36,46.36,0,0,0-7.49,1.49c-.09,2.38-.14,4.88-.13,7.37,1.93-.34,4.41-.66,7.34-.9C17.89,55.63,18,52.93,18.13,50.29Z" fill="#fff"/>
    <path id="Path_11478" data-name="Path 11478" d="M30,49.27c-2.87.14-5.45.33-7.73.55-.15,2.53-.26,5.28-.3,8.16,2.41-.13,5-.2,7.92-.2h0C29.82,54.94,29.86,52,30,49.27Z" fill="#fff"/>
  </g>
</svg>
