<svg width="50" height="39" viewBox="0 0 50 39" fill="none" xmlns="http://www.w3.org/2000/svg">
<path d="M40.8081 17.3502C40.8081 17.3502 41.4675 20.589 41.6159 21.2675H38.7175L40.1066 17.4803C40.0894 17.5069 40.3925 16.6874 40.5659 16.1829L40.8081 17.3502ZM50 4.17891V34.8211C49.9996 35.9293 49.5604 36.992 48.779 37.7756C47.9977 38.5592 46.938 38.9996 45.8329 39H4.16706C3.06201 38.9996 2.00235 38.5592 1.22096 37.7756C0.439575 36.992 0.000414107 35.9293 0 34.8211V4.17891C0.000414107 3.07072 0.439575 2.00804 1.22096 1.22443C2.00235 0.440825 3.06201 0.000415285 4.16706 0H45.8329C46.938 0.000415285 47.9977 0.440825 48.779 1.22443C49.5604 2.00804 49.9996 3.07072 50 4.17891V4.17891ZM13.2386 26.0465L18.7244 12.5367H15.0355L11.6246 21.7642L11.2512 19.8933L10.0356 13.6774C9.83563 12.8156 9.22002 12.5712 8.45599 12.5367H2.84054L2.7796 12.8062C4.06561 13.1226 5.2992 13.624 6.44199 14.2948L9.5497 26.0465H13.2386ZM21.4337 26.0637L23.6211 12.5367H20.1322L17.9541 26.0637H21.4337ZM33.5771 21.6419C33.5943 20.1017 32.6568 18.9265 30.6522 17.9597C29.4288 17.3408 28.6819 16.924 28.6819 16.2879C28.6991 15.7128 29.3163 15.1205 30.6865 15.1205C31.579 15.0953 32.4658 15.2709 33.2818 15.6345L33.5943 15.7818L34.0724 12.8564C33.0749 12.4734 32.0155 12.2785 30.9475 12.2813C27.5007 12.2813 25.0789 14.1271 25.0617 16.7548C25.0352 18.6962 26.7976 19.7758 28.1179 20.4276C29.4631 21.0888 29.9241 21.5244 29.9241 22.1073C29.9069 23.013 28.8303 23.4298 27.8319 23.4298C26.4429 23.4298 25.6961 23.212 24.5586 22.7074L24.0992 22.4896L23.6133 25.5278C24.4289 25.9023 25.9398 26.2329 27.5023 26.2502C31.1646 26.258 33.5521 24.4389 33.5786 21.6372L33.5771 21.6419ZM45.8329 26.0637L43.0205 12.5367H40.3206C39.4878 12.5367 38.8535 12.7812 38.4972 13.6602L33.3146 26.0653H36.977C36.977 26.0653 37.5754 24.3934 37.7066 24.0377H42.1862C42.2909 24.5172 42.6034 26.0653 42.6034 26.0653L45.8329 26.0637Z" fill="#1D71E4"/>
</svg>
