<svg xmlns="http://www.w3.org/2000/svg" width="23.002" height="24.438" viewBox="0 0 23.002 24.438">
  <g id="filter" transform="translate(-8.599 -5.781)">
    <path id="Subtraction_4" data-name="Subtraction 4" d="M13897.1,7964a3.5,3.5,0,1,1,3.5-3.5A3.5,3.5,0,0,1,13897.1,7964Zm0-5.47a1.969,1.969,0,1,0,1.967,1.971A1.972,1.972,0,0,0,13897.1,7958.53Z" transform="translate(-13881.631 -7933.781)" fill="#fee8c6"/>
    <path id="Subtraction_6" data-name="Subtraction 6" d="M13897.1,7964a3.5,3.5,0,1,1,3.5-3.5A3.5,3.5,0,0,1,13897.1,7964Zm0-5.47a1.969,1.969,0,1,0,1.967,1.971A1.972,1.972,0,0,0,13897.1,7958.53Z" transform="translate(-13881.631 -7951.218)" fill="#fee8c6"/>
    <path id="Subtraction_7" data-name="Subtraction 7" d="M3.5,0A3.5,3.5,0,1,0,7,3.5,3.5,3.5,0,0,0,3.5,0Zm0,5.47A1.969,1.969,0,1,1,5.467,3.5,1.972,1.972,0,0,1,3.5,5.47Z" transform="translate(28.229 21.501) rotate(180)" fill="#fee8c6"/>
    <path id="Subtraction_3" data-name="Subtraction 3" d="M13915.532,7960.1h-13.449a1.965,1.965,0,0,0,0-2.253h13.448a1.128,1.128,0,0,1,0,2.253Zm-16.679,0h-4.187a1.128,1.128,0,0,1,0-2.253h4.186a1.965,1.965,0,0,0,0,2.251Z" transform="translate(-13885 -7932.25)" fill="#fee8c6"/>
    <path id="Subtraction_5" data-name="Subtraction 5" d="M13915.532,7960.1h-13.449a1.965,1.965,0,0,0,0-2.253h13.448a1.128,1.128,0,0,1,0,2.253Zm-16.679,0h-4.187a1.128,1.128,0,0,1,0-2.253h4.186a1.965,1.965,0,0,0,0,2.251Z" transform="translate(-13885 -7949.687)" fill="#fee8c6"/>
    <path id="Subtraction_8" data-name="Subtraction 8" d="M21.934,0H8.484a1.965,1.965,0,0,1,0,2.253H21.934A1.1,1.1,0,0,0,23,1.128,1.1,1.1,0,0,0,21.934,0ZM5.255,0H1.068A1.1,1.1,0,0,0,0,1.128,1.1,1.1,0,0,0,1.068,2.253H5.254A1.965,1.965,0,0,1,5.254,0Z" transform="translate(31.601 19.127) rotate(180)" fill="#fee8c6"/>
  </g>
</svg>
