<svg xmlns="http://www.w3.org/2000/svg" width="23" height="23" viewBox="0 0 23 23">
  <g id="myprofile_icon" transform="translate(-30 -269)">
    <rect id="Rectangle_2654" data-name="Rectangle 2654" width="23" height="23" rx="6" transform="translate(30 269)" fill="#fff6e8"/>
    <path id="Path_414" data-name="Path 414" d="M793,629.985v-1.733s0-1.455,1.913-1.827L797.2,626" transform="translate(-757 -343.106)" fill="none" stroke="#ff6f00" stroke-linecap="round" stroke-miterlimit="10" stroke-width="1"/>
    <path id="Path_415" data-name="Path 415" d="M943.2,629.985v-1.733s0-1.455-1.913-1.827L939,626" transform="translate(-895.242 -343.106)" fill="none" stroke="#ff6f00" stroke-linecap="round" stroke-miterlimit="10" stroke-width="1"/>
    <circle id="Ellipse_533" data-name="Ellipse 533" cx="0.5" cy="0.5" r="0.5" transform="translate(41.438 283.12)" fill="#ffc599"/>
    <circle id="Ellipse_534" data-name="Ellipse 534" cx="0.5" cy="0.5" r="0.5" transform="translate(41.438 285.12)" fill="#ffc599"/>
    <path id="Rectangle_2655" data-name="Rectangle 2655" d="M1.05,0h2.9A1.05,1.05,0,0,1,5,1.05V3.5A2.5,2.5,0,0,1,2.5,6h0A2.5,2.5,0,0,1,0,3.5V1.05A1.05,1.05,0,0,1,1.05,0Z" transform="translate(39.438 275.12)" fill="none" stroke="#ff6f00" stroke-linecap="round" stroke-miterlimit="10" stroke-width="1"/>
    <line id="Line_229" data-name="Line 229" x2="5" transform="translate(39.438 277.12)" fill="none" stroke="#ff6f00" stroke-linecap="round" stroke-miterlimit="10" stroke-width="1"/>
  </g>
</svg>
