<svg xmlns="http://www.w3.org/2000/svg" width="25" height="25" viewBox="0 0 25 25">
  <defs>
    <clipPath id="clip-path">
      <rect id="Rectangle_106" data-name="Rectangle 106" width="25" height="25" transform="translate(47 666)" fill="#fff" stroke="#707070" stroke-width="1"/>
    </clipPath>
  </defs>
  <g id="paypal" transform="translate(-47 -666)" clip-path="url(#clip-path)">
    <g id="paypal_1_" data-name="paypal (1)" transform="translate(49.038 666)">
      <path id="Path_8" data-name="Path 8" d="M17.967,20.926c-1.094-1.25-3.125-1.875-5.937-1.875H4.218a1.34,1.34,0,0,0-1.094.937L0,40.455a.715.715,0,0,0,.625.781H5.468l1.25-7.655v.312a1.34,1.34,0,0,1,1.094-.937h2.343c4.531,0,7.968-1.875,9.062-7.03v-.469h0a5.456,5.456,0,0,0-1.25-4.531" transform="translate(0 -19.051)" fill="#263b80"/>
      <path id="Path_9" data-name="Path 9" d="M16.662,22.382h0v.469c-1.094,5.312-4.531,7.03-9.062,7.03H5.257a1.34,1.34,0,0,0-1.094.937L2.6,40.349a.572.572,0,0,0,.625.625H7.288a.875.875,0,0,0,.937-.781v-.156l.781-4.843v-.312a.875.875,0,0,1,.937-.781h.625c3.906,0,7.03-1.562,7.812-6.249.312-1.875.156-3.593-.781-4.687a1.6,1.6,0,0,0-.937-.781" transform="translate(2.398 -15.976)" fill="#139ad6"/>
      <path id="Path_10" data-name="Path 10" d="M14.742,22.365c-.156,0-.312-.156-.469-.156a.574.574,0,0,1-.469-.156,8.254,8.254,0,0,0-2.031-.156H5.681a.574.574,0,0,0-.469.156.859.859,0,0,0-.469.781l-1.25,8.124v.312a1.34,1.34,0,0,1,1.094-.937H6.931c4.531,0,7.968-1.875,9.062-7.03a.574.574,0,0,1,.156-.469c-.312-.156-.469-.312-.781-.312-.469-.156-.469-.156-.625-.156" transform="translate(3.225 -16.428)" fill="#232c65"/>
    </g>
  </g>
</svg>
