<svg xmlns="http://www.w3.org/2000/svg" width="32" height="32" viewBox="0 0 32 32">
  <g id="promo" transform="translate(-25 -432)">
    <g id="Polygon_1" data-name="Polygon 1" transform="translate(25 432)" fill="#fff">
      <path d="M 19.75704002380371 30.57131385803223 C 19.34329032897949 30.57134437561035 18.93540000915527 30.49813270568848 18.5446891784668 30.3537425994873 L 17.55999946594238 29.98980331420898 C 17.05898094177246 29.80463409423828 16.53413009643555 29.71075248718262 16 29.71075248718262 C 15.46586036682129 29.71075248718262 14.94101047515869 29.80463409423828 14.4399995803833 29.98979377746582 L 13.45530033111572 30.35373306274414 C 13.06468963623047 30.49809265136719 12.65678024291992 30.57129287719727 12.24291038513184 30.57131385803223 C 10.98659038543701 30.57135391235352 9.820380210876465 29.89290428161621 9.199379920959473 28.80071258544922 L 8.642680168151855 27.82161331176758 C 8.119270324707031 26.90107345581055 7.284019947052002 26.19195365905762 6.29079008102417 25.82487297058105 L 5.22737979888916 25.43185424804688 C 3.643369913101196 24.8464241027832 2.703389883041382 23.21391296386719 2.99232006072998 21.55009269714355 L 3.203789949417114 20.33228302001953 C 3.381900072097778 19.30655288696289 3.196609973907471 18.24322319030762 2.682029962539673 17.33817291259766 L 2.069920063018799 16.26162338256836 C 1.240820050239563 14.80344295501709 1.565770030021667 12.95548343658447 2.842580080032349 11.86759376525879 L 3.75452995300293 11.09057331085205 C 4.552289962768555 10.41084384918213 5.090380191802979 9.467813491821289 5.269700050354004 8.435193061828613 L 5.473619937896729 7.260853290557861 C 5.765530109405518 5.579793453216553 7.215789794921875 4.359673500061035 8.92201042175293 4.359673500061035 L 9.997099876403809 4.359673500061035 C 11.06571006774902 4.359673500061035 12.10217952728271 3.977993488311768 12.91559028625488 3.284943342208862 L 13.73007011413574 2.590953350067139 C 14.36270999908447 2.051923513412476 15.16884994506836 1.755063414573669 16 1.755063414573669 C 16.83114051818848 1.755063414573669 17.63727951049805 2.051923513412476 18.26992988586426 2.590963363647461 L 19.08440971374512 3.284943342208862 C 19.89781951904297 3.977993488311768 20.93428993225098 4.359673500061035 22.00289916992188 4.359673500061035 L 23.07798957824707 4.359673500061035 C 24.78421020507812 4.359673500061035 26.23447036743164 5.579803466796875 26.52639007568359 7.260873317718506 L 26.73031044006348 8.435193061828613 C 26.90962982177734 9.467813491821289 27.44771957397461 10.41084384918213 28.24547004699707 11.09056377410889 L 29.15741920471191 11.86759376525879 C 30.43423080444336 12.95548343658447 30.75917053222656 14.80344295501709 29.93008041381836 16.26163291931152 L 29.31798934936523 17.33817291259766 C 28.80339050292969 18.24322319030762 28.61808967590332 19.30655288696289 28.79622077941895 20.3322925567627 L 29.00768089294434 21.55008316040039 C 29.29660987854004 23.21390342712402 28.35663032531738 24.8464241027832 26.77261924743652 25.43186378479004 L 25.70920944213867 25.82488250732422 C 24.71595001220703 26.19197273254395 23.88069915771484 26.90109252929688 23.35732078552246 27.82160377502441 L 22.80060958862305 28.80072402954102 C 22.17967987060547 29.89280319213867 21.01345062255859 30.57124328613281 19.75704002380371 30.57131385803223 Z" stroke="none"/>
      <path d="M 15.99999046325684 2.255064010620117 C 15.2875804901123 2.255064010620117 14.59659957885742 2.509513854980469 14.05434989929199 2.97154426574707 L 13.23987007141113 3.665523529052734 C 12.33609962463379 4.435583114624023 11.1844596862793 4.859672546386719 9.997100830078125 4.859672546386719 L 8.92201042175293 4.859672546386719 C 7.459529876708984 4.859672546386719 6.216449737548828 5.905492782592773 5.966239929199219 7.346403121948242 L 5.762319564819336 8.520732879638672 C 5.563089370727539 9.668083190917969 4.9652099609375 10.71589279174805 4.078800201416016 11.47115325927734 L 3.166849136352539 12.24817276000977 C 2.072450637817383 13.1806526184082 1.793920516967773 14.76462364196777 2.504579544067383 16.01449394226074 L 3.116680145263672 17.09104347229004 C 3.688430786132812 18.09664344787598 3.894319534301758 19.27811431884766 3.696409225463867 20.41781234741211 L 3.484949111938477 21.63562393188477 C 3.237289428710938 23.06176376342773 4.042989730834961 24.46106338500977 5.40070915222168 24.96285247802734 L 6.464120864868164 25.35588455200195 C 7.567720413208008 25.76374435424805 8.495780944824219 26.5516529083252 9.077339172363281 27.5744743347168 L 9.634040832519531 28.5535831451416 C 10.16633033752441 29.48975372314453 11.16599082946777 30.07131385803223 12.242919921875 30.07131385803223 C 12.59738922119141 30.07131385803223 12.94697952270508 30.00854301452637 13.28195953369141 29.88473320007324 L 14.26667022705078 29.52080345153809 C 14.82333946228027 29.31507301330566 15.40652084350586 29.21075439453125 15.99999046325684 29.21075439453125 C 16.59346961975098 29.21075439453125 17.17665100097656 29.31507301330566 17.73332977294922 29.52080345153809 L 18.71802139282227 29.88474273681641 C 19.0529899597168 30.00854301452637 19.40258026123047 30.07131385803223 19.75706100463867 30.07131385803223 C 20.83399963378906 30.07131385803223 21.83366966247559 29.48975372314453 22.3659496307373 28.55359268188477 L 22.92266082763672 27.5744743347168 C 23.50421142578125 26.55166244506836 24.43227005004883 25.76375389099121 25.53586959838867 25.35588455200195 L 26.59927940368652 24.96285247802734 C 27.95700073242188 24.46106338500977 28.76269912719727 23.06176376342773 28.51504898071289 21.63563346862793 L 28.30357933044434 20.41783332824707 C 28.10568046569824 19.27811431884766 28.31156921386719 18.09663391113281 28.88332939147949 17.09103393554688 L 29.49542045593262 16.01450347900391 C 30.20607948303223 14.76462364196777 29.92754936218262 13.1806526184082 28.83314895629883 12.24817276000977 L 27.92119979858398 11.47115325927734 C 27.03480911254883 10.71590423583984 26.43692016601562 9.668092727661133 26.23768043518066 8.520744323730469 L 26.03376007080078 7.346412658691406 C 25.78355026245117 5.90550422668457 24.54046058654785 4.859672546386719 23.07798957824707 4.859672546386719 L 22.00289916992188 4.859672546386719 C 20.81554985046387 4.859672546386719 19.66392135620117 4.435583114624023 18.76013946533203 3.665523529052734 L 17.94565010070801 2.97154426574707 C 17.40338897705078 2.509513854980469 16.71240997314453 2.255064010620117 15.99999046325684 2.255064010620117 M 15.9999942779541 1.255060195922852 C 16.92336273193359 1.255060195922852 17.84672927856445 1.573497772216797 18.59420013427734 2.210372924804688 L 19.40869140625 2.904354095458984 C 20.13241004943848 3.520994186401367 21.05210113525391 3.859672546386719 22.00289916992188 3.859672546386719 L 23.07798957824707 3.859672546386719 C 25.02309036254883 3.859672546386719 26.68622970581055 5.258903503417969 27.01902008056641 7.175323486328125 L 27.22294044494629 8.349653244018555 C 27.38266944885254 9.269493103027344 27.8591194152832 10.10449409484863 28.56974983215332 10.70998382568359 L 29.4817008972168 11.48700332641602 C 30.94301986694336 12.73211288452148 31.31365013122559 14.83984375 30.36473083496094 16.50877380371094 L 29.75263977050781 17.58530426025391 C 29.29406929016113 18.39182281494141 29.1301097869873 19.3326530456543 29.28883934020996 20.24674224853516 L 29.50030899047852 21.46454238891602 C 29.83047103881836 23.36587333679199 28.75606918334961 25.23185348510742 26.94594955444336 25.90084457397461 L 25.88253974914551 26.29387283325195 C 24.99831008911133 26.62066268920898 24.25790977478027 27.24926376342773 23.79196929931641 28.0687427520752 L 23.23526000976562 29.0478630065918 C 22.26716995239258 30.75051307678223 20.20853805541992 31.50172233581543 18.37136077880859 30.82273292541504 L 17.38665962219238 30.45879364013672 C 16.49180221557617 30.12807464599609 15.5081901550293 30.12807273864746 14.61333084106445 30.45879364013672 L 13.62862968444824 30.82272338867188 C 11.79145240783691 31.50172233581543 9.732828140258789 30.75051307678223 8.764730453491211 29.04785346984863 L 8.208030700683594 28.0687427520752 C 7.742080688476562 27.24925231933594 7.001689910888672 26.62066268920898 6.117460250854492 26.29387283325195 L 5.054040908813477 25.90084457397461 C 3.243919372558594 25.23185348510742 2.169519424438477 23.36587333679199 2.499689102172852 21.46453475952148 L 2.711149215698242 20.24673461914062 C 2.869880676269531 19.3326530456543 2.705930709838867 18.39182281494141 2.247369766235352 17.58530426025391 L 1.635269165039062 16.50876235961914 C 0.6863498687744141 14.83984375 1.056980133056641 12.73211288452148 2.518299102783203 11.48700332641602 L 3.43025016784668 10.70998382568359 C 4.140880584716797 10.10449409484863 4.617340087890625 9.269493103027344 4.777059555053711 8.349653244018555 L 4.980989456176758 7.175313949584961 C 5.313770294189453 5.258893966674805 6.976909637451172 3.859672546386719 8.92201042175293 3.859672546386719 L 9.997100830078125 3.859672546386719 C 10.94788932800293 3.859672546386719 11.86759948730469 3.520994186401367 12.59131050109863 2.904354095458984 L 13.40579032897949 2.210372924804688 C 14.15325927734375 1.573497772216797 15.07662773132324 1.255060195922852 15.9999942779541 1.255060195922852 Z" stroke="none" fill="#707070"/>
    </g>
    <path id="Path_68" data-name="Path 68" d="M.756-10.08a2.523,2.523,0,0,0,2.628,2.7,2.514,2.514,0,0,0,2.628-2.7,2.508,2.508,0,0,0-2.628-2.682A2.518,2.518,0,0,0,.756-10.08Zm2.628-1.674c.792,0,1.332.54,1.332,1.674,0,1.116-.54,1.692-1.332,1.692S2.07-8.964,2.07-10.08C2.07-11.214,2.592-11.754,3.384-11.754ZM2.358,0h1.62l7.29-12.564H9.648ZM7.65-2.484a2.523,2.523,0,0,0,2.628,2.7,2.519,2.519,0,0,0,2.61-2.7,2.509,2.509,0,0,0-2.61-2.7A2.514,2.514,0,0,0,7.65-2.484Zm2.61-1.674c.792,0,1.332.54,1.332,1.674,0,1.116-.54,1.656-1.332,1.656s-1.332-.54-1.332-1.656C8.928-3.618,9.468-4.158,10.26-4.158Z" transform="translate(34.178 454.273)" fill="#707070"/>
  </g>
</svg>
