<svg id="terms_dropdown" xmlns="http://www.w3.org/2000/svg" width="23" height="23" viewBox="0 0 23 23">
  <rect id="Rectangle_4152" data-name="Rectangle 4152" width="23" height="23" rx="6.708" fill="#fff6e8"/>
  <path id="Vector" d="M8.818,15.371a1.2,1.2,0,1,1,.666.2A1.2,1.2,0,0,1,8.818,15.371Z" transform="translate(1.657 2.635)" fill="#ffc599"/>
  <path id="Vector-2" data-name="Vector" d="M10.821,13.1a.839.839,0,0,1-1.677,0,3.686,3.686,0,0,1,1.846-3.19C12.145,9.131,12.8,8.64,12.8,7.56a1.87,1.87,0,0,0-1.287-1.7,3.145,3.145,0,0,0-1.218-.185,2.614,2.614,0,0,0-1.667.515,2.144,2.144,0,0,0-.859,1.341A.84.84,0,0,1,6.09,7.445,3.718,3.718,0,0,1,7.573,4.882,4.27,4.27,0,0,1,10.269,4a4.694,4.694,0,0,1,1.96.349A3.518,3.518,0,0,1,14.475,7.56c0,2.026-1.354,2.936-2.549,3.739A1.99,1.99,0,0,0,10.821,13.1Z" transform="translate(1.218 0.799)" fill="#ff6f00"/>
</svg>
