<svg xmlns="http://www.w3.org/2000/svg" width="63.412" height="63.412" viewBox="0 0 63.412 63.412">
  <path id="Icon_awesome-info-circle" data-name="Icon awesome-info-circle" d="M32.269.563A31.706,31.706,0,1,0,63.975,32.269,31.711,31.711,0,0,0,32.269.563Zm0,14.063A5.37,5.37,0,1,1,26.9,20,5.37,5.37,0,0,1,32.269,14.626ZM39.428,47.1a1.534,1.534,0,0,1-1.534,1.534H26.643A1.534,1.534,0,0,1,25.109,47.1V44.03A1.534,1.534,0,0,1,26.643,42.5h1.534V34.314H26.643a1.534,1.534,0,0,1-1.534-1.534V29.712a1.534,1.534,0,0,1,1.534-1.534h8.182a1.534,1.534,0,0,1,1.534,1.534V42.5h1.534a1.534,1.534,0,0,1,1.534,1.534Z" transform="translate(-0.563 -0.563)" fill="#484848"/>
</svg>
