<svg xmlns="http://www.w3.org/2000/svg" width="66" height="66" viewBox="0 0 66 66">
  <path id="close_icon" d="M36.375,3.375a33,33,0,1,0,33,33A32.995,32.995,0,0,0,36.375,3.375Zm8.361,44.947-8.361-8.361-8.361,8.361a2.535,2.535,0,1,1-3.586-3.586l8.361-8.361-8.361-8.361a2.535,2.535,0,0,1,3.586-3.586l8.361,8.361,8.361-8.361a2.535,2.535,0,0,1,3.586,3.586l-8.361,8.361,8.361,8.361a2.547,2.547,0,0,1,0,3.586A2.519,2.519,0,0,1,44.736,48.322Z" transform="translate(-3.375 -3.375)" fill="#787878"/>
</svg>
