<svg xmlns="http://www.w3.org/2000/svg" width="58.286" height="58.27" viewBox="0 0 58.286 58.27">
  <path id="darkmode_icon" d="M12.473,2.441A15.06,15.06,0,0,0,.532,13.419C0,15.462-.04,16.658.025,32.476.051,46.993.064,47.331.311,48.463A15.109,15.109,0,0,0,12.057,60.235c.793.182,1.808.221,8.338.247,6.751.052,7.453.039,7.636-.143s.2-2.511.2-28.9c0-19.577-.039-28.786-.117-28.955-.117-.221-.325-.234-7.4-.221a78.923,78.923,0,0,0-8.234.182ZM23.387,31.4V55.838l-4.917-.065c-4.527-.052-5.008-.078-5.919-.3a10.251,10.251,0,0,1-7.584-7.9c-.26-1.223-.26-31.232-.013-32.429A10.369,10.369,0,0,1,11.2,7.683c1.587-.637,2.328-.715,7.493-.728l4.67-.013V31.4ZM13.514,14.33a6.643,6.643,0,0,0-2.537,1.262,5.331,5.331,0,0,0-1.8,4.488,3.785,3.785,0,0,0,.494,1.977,5.464,5.464,0,0,0,2.589,2.6,3.725,3.725,0,0,0,2.068.481,4.263,4.263,0,0,0,1.925-.221A5.437,5.437,0,0,0,20,18.883a5.523,5.523,0,0,0-6.491-4.553ZM34.092,2.324c-.052.039-.078,13.112-.078,29.073,0,26.315.013,28.981.2,29.06.325.117,9.691.078,10.849-.052a15.064,15.064,0,0,0,11.577-7.961,19.806,19.806,0,0,0,.911-2.107c.754-2.263.741-1.665.741-19,0-13.84-.026-15.909-.2-16.78A14.99,14.99,0,0,0,45.8,2.441a47.447,47.447,0,0,0-6.348-.182c-2.914-.013-5.32.026-5.359.065ZM46.983,28.613a5.913,5.913,0,0,1,4.058,3.759,6.233,6.233,0,0,1-.013,3.837,5.85,5.85,0,0,1-11.148-.286,7.036,7.036,0,0,1,.052-3.408,5.835,5.835,0,0,1,7.05-3.9Z" transform="translate(-0.001 -2.255)" fill="#484848"/>
</svg>
