<svg xmlns="http://www.w3.org/2000/svg" width="40" height="40" viewBox="0 0 40 40">
  <path id="dislikecomment_icon" d="M0,3.938V20.813A1.687,1.687,0,0,0,1.688,22.5H7.313A1.687,1.687,0,0,0,9,20.813V3.938A1.687,1.687,0,0,0,7.313,2.25H1.688A1.687,1.687,0,0,0,0,3.938ZM2.813,18A1.688,1.688,0,1,1,4.5,19.688,1.687,1.687,0,0,1,2.813,18ZM21.938,36c-1.419,0-2.073-2.763-2.386-4.064a8.516,8.516,0,0,0-1.785-4.142c-2.283-2.287-3.481-5.2-6.266-7.953a.842.842,0,0,1-.25-.6V4.212a.844.844,0,0,1,.828-.844,11.064,11.064,0,0,0,3.7-1.138A20.185,20.185,0,0,1,24.187,0h.2c3.008,0,6.565.029,8,2.091a3.733,3.733,0,0,1,.432,3.138,5.56,5.56,0,0,1,1.152,5.256,5.874,5.874,0,0,1,.654,5.588l.008.008A5.091,5.091,0,0,1,36,19.54a4.2,4.2,0,0,1-4.187,4.085H24.66c.514,1.993,2.34,3.666,2.34,6.648C27,35.438,23.625,36,21.938,36Z" transform="translate(2 2)" fill="none" stroke="#474747" stroke-width="4"/>
</svg>
