<svg xmlns="http://www.w3.org/2000/svg" width="50.349" height="44.746" viewBox="0 0 50.349 44.746">
  <path id="edit_icon" d="M35.192,7.271l7.884,7.884a.855.855,0,0,1,0,1.206L23.986,35.452l-8.112.9a1.7,1.7,0,0,1-1.879-1.879l.9-8.112L33.985,7.271A.855.855,0,0,1,35.192,7.271Zm14.161-2L45.087,1a3.419,3.419,0,0,0-4.825,0L37.167,4.1a.855.855,0,0,0,0,1.206l7.884,7.884a.855.855,0,0,0,1.206,0l3.094-3.094a3.419,3.419,0,0,0,0-4.825ZM33.566,30.26v8.9H5.594V11.187H25.681a1.075,1.075,0,0,0,.743-.306l3.5-3.5a1.049,1.049,0,0,0-.743-1.792H4.2A4.2,4.2,0,0,0,0,9.788V40.557a4.2,4.2,0,0,0,4.2,4.2H34.964a4.2,4.2,0,0,0,4.2-4.2V26.764a1.051,1.051,0,0,0-1.792-.743l-3.5,3.5A1.075,1.075,0,0,0,33.566,30.26Z" transform="translate(0 -0.007)" fill="#4e4e4e"/>
</svg>
