<svg xmlns="http://www.w3.org/2000/svg" width="63.626" height="42.949" viewBox="0 0 63.626 42.949">
  <path id="email_icon" d="M.072,43.213V7.872q0-.061.184-1.166L21.056,24.5.317,44.44a5.2,5.2,0,0,1-.245-1.227ZM2.833,4.252a2.644,2.644,0,0,1,1.043-.184H59.894a3.474,3.474,0,0,1,1.1.184L40.138,22.107l-2.761,2.209-5.461,4.479-5.461-4.479-2.761-2.209Zm.061,42.581L23.817,26.77l8.1,6.565,8.1-6.565L60.937,46.833a2.946,2.946,0,0,1-1.043.184H3.876a2.779,2.779,0,0,1-.982-.184ZM42.776,24.5,63.514,6.706A3.662,3.662,0,0,1,63.7,7.872V43.213a4.7,4.7,0,0,1-.184,1.227Z" transform="translate(-0.072 -4.068)" fill="#474747"/>
</svg>
