<svg xmlns="http://www.w3.org/2000/svg" width="51.75" height="34.5" viewBox="0 0 51.75 34.5">
  <path id="eye_icon" d="M51.437,20.438A28.816,28.816,0,0,0,25.875,4.5,28.821,28.821,0,0,0,.313,20.439a2.906,2.906,0,0,0,0,2.623A28.816,28.816,0,0,0,25.875,39,28.821,28.821,0,0,0,51.437,23.061,2.906,2.906,0,0,0,51.437,20.438ZM25.875,34.688A12.937,12.937,0,1,1,38.812,21.75,12.937,12.937,0,0,1,25.875,34.688Zm0-21.562a8.563,8.563,0,0,0-2.274.341,4.3,4.3,0,0,1-6.011,6.011,8.605,8.605,0,1,0,8.284-6.351Z" transform="translate(0 -4.5)" fill="#919191"/>
</svg>
