<svg xmlns="http://www.w3.org/2000/svg" width="82.005" height="63.77" viewBox="0 0 82.005 63.77">
  <path id="home_icon" d="M39.914,18.8,13.668,40.414V63.745a2.278,2.278,0,0,0,2.278,2.278L31.9,65.982A2.278,2.278,0,0,0,34.164,63.7V50.079A2.278,2.278,0,0,1,36.442,47.8h9.111a2.278,2.278,0,0,1,2.278,2.278V63.694a2.278,2.278,0,0,0,2.278,2.285l15.947.044a2.278,2.278,0,0,0,2.278-2.278V40.4L42.092,18.8A1.735,1.735,0,0,0,39.914,18.8ZM81.374,33.49l-11.9-9.81V3.962a1.708,1.708,0,0,0-1.708-1.708H59.792a1.708,1.708,0,0,0-1.708,1.708V14.3L45.338,3.812a6.833,6.833,0,0,0-8.684,0L.619,33.49A1.708,1.708,0,0,0,.391,35.9l3.63,4.413a1.708,1.708,0,0,0,2.407.232L39.914,12.96a1.735,1.735,0,0,1,2.178,0L75.58,40.541a1.708,1.708,0,0,0,2.406-.228l3.63-4.413a1.708,1.708,0,0,0-.242-2.41Z" transform="translate(0.001 -2.254)" fill="#7f7f7f"/>
</svg>
