<svg xmlns="http://www.w3.org/2000/svg" width="58.286" height="68" viewBox="0 0 58.286 68">
  <path id="language_icon" d="M29.587,43.11q-.038.114-.474-.019t-1.2-.436l-.759-.342a22.736,22.736,0,0,1-3.3-1.859q-.266-.19-1.556-1.2t-1.442-1.081a64.646,64.646,0,0,1-5.085,6.868,28.21,28.21,0,0,1-3.984,4.174,3.007,3.007,0,0,1-.74.152,1.461,1.461,0,0,1-.7,0q.228-.152,3.112-3.491.8-.911,3.244-4.364a53.053,53.053,0,0,0,2.979-4.478q.645-1.138,1.935-3.738a29.578,29.578,0,0,0,1.366-2.941,31.183,31.183,0,0,0-4.174,1.252q-.3.076-1.044.285t-1.309.361a6.5,6.5,0,0,0-.645.19.645.645,0,0,0-.076.4.842.842,0,0,1-.038.361q-.19.379-1.176.569a3.06,3.06,0,0,1-1.783,0,1.6,1.6,0,0,1-1.062-.8,1.93,1.93,0,0,1-.19-.873,7.333,7.333,0,0,1,.93-.19,11.331,11.331,0,0,0,1.119-.228q2.2-.607,3.984-1.214,3.795-1.328,3.871-1.328a8.419,8.419,0,0,0,1.632-.74,17.164,17.164,0,0,1,1.67-.816q.342-.114.816-.3t.55-.209a.508.508,0,0,1,.228.019,4.318,4.318,0,0,1-.038,1.252,8.079,8.079,0,0,1-.474,1.025q-.474.949-1.006,2.03t-.645,1.271A56.913,56.913,0,0,1,21.2,37.645l2.429,1.062q.455.228,2.827,1.214t2.561,1.063q.152.038.4.968a2.875,2.875,0,0,1,.171,1.157ZM21.808,24.668a1.539,1.539,0,0,1-.152,1.062,3.44,3.44,0,0,1-1.9,1.442,6.092,6.092,0,0,1-2.277.455,3.141,3.141,0,0,1-1.859-.987,2.854,2.854,0,0,1-.683-1.556l.038-.114a1.624,1.624,0,0,0,.74.19,3.3,3.3,0,0,0,1.006,0q.379-.076,2.2-.607a10.834,10.834,0,0,1,2.087-.531.749.749,0,0,1,.8.645Zm26.487,4.9,2.391,8.614L45.41,36.583ZM6.25,59.92l26.335-8.8V11.956L6.25,20.8V59.92ZM53.341,47.891l3.871,1.176L50.344,24.136,46.549,22.96,38.352,43.3l3.871,1.176L43.93,40.3l8.007,2.467Zm-19.087-36.5L56,18.369V3.949Zm11.8,50.2,6,.493L50,68.154l-1.518-2.5a28.13,28.13,0,0,1-10.473,4.1,18.187,18.187,0,0,1-3.453.455H31.37a25.647,25.647,0,0,1-7.57-1.48A25.2,25.2,0,0,1,16.837,65.5a.791.791,0,0,1-.3-.607.734.734,0,0,1,.19-.512.636.636,0,0,1,.493-.209,2.136,2.136,0,0,1,.683.285q.531.285,1.157.626t.778.417a33.621,33.621,0,0,0,6.052,2.334,22.111,22.111,0,0,0,5.977.93,32.382,32.382,0,0,0,6.337-.55A31.275,31.275,0,0,0,44.158,66.3q.569-.266,1.157-.588t1.29-.721q.7-.4,1.081-.626Zm17-40.944V61.59L33.685,52.255q-.531.228-14.23,4.838T5.491,61.7a.686.686,0,0,1-.683-.493A.292.292,0,0,0,4.77,61.1V20.19a1.694,1.694,0,0,1,.152-.379,1.707,1.707,0,0,1,.759-.417q4.022-1.328,5.654-1.9V2.924l21.174,7.513q.076,0,6.09-2.087T50.59,4.234Q56.567,2.2,56.718,2.2q.759,0,.759.8V18.862Z" transform="translate(-4.77 -2.203)" fill="#484848"/>
</svg>
