<svg xmlns="http://www.w3.org/2000/svg" width="50.42" height="46" viewBox="0 0 50.42 46">
  <g id="Like_icon" fill="none">
    <path d="M25.21,46C11.655,36.815,4.546,28.46,1.63,21.467c-7.811-18.741,14.5-27.7,23.58-16.64,9.081-11.063,31.391-2.1,23.58,16.64C45.874,28.46,38.765,36.815,25.21,46Z" stroke="none"/>
    <path d="M 25.20995140075684 39.90478897094727 C 37.48310852050781 31.08822822570801 42.30519866943359 24.02720832824707 44.17473983764648 19.54306602478027 C 45.87793731689453 15.45646572113037 45.82979965209961 11.87367820739746 44.03555297851562 9.182027816772461 C 43.1973762512207 7.924627780914307 41.97976303100586 6.87021541595459 40.51436233520508 6.132777690887451 C 39.04175186157227 5.391715526580811 37.39405059814453 5.000002861022949 35.74941253662109 5.000002861022949 C 34.17596435546875 5.000002861022949 31.21653938293457 5.389615535736084 29.07468795776367 7.998940467834473 L 25.20995140075684 12.70719051361084 L 21.34521484375 7.998940467834473 C 19.2033634185791 5.389615535736084 16.24393844604492 5.000002861022949 14.67048931121826 5.000002861022949 C 13.02616405487061 5.000002861022949 11.37870121002197 5.391727924346924 9.90618896484375 6.132827758789062 C 8.440776824951172 6.870352745056152 7.223114013671875 7.924890518188477 6.384851455688477 9.182415008544922 C 4.590464115142822 11.87426567077637 4.542163848876953 15.45692825317383 6.244926452636719 19.54250335693359 C 8.114689826965332 24.02717018127441 12.93679237365723 31.08822631835938 25.20995140075684 39.90478897094727 M 25.20995140075684 45.99997711181641 C 11.65471363067627 36.81528854370117 4.545538902282715 28.45969009399414 1.629963874816895 21.46657752990723 C -6.180698394775391 2.725915431976318 16.12891387939453 -6.236446857452393 25.20995140075684 4.826590538024902 C 34.29098129272461 -6.236449718475342 56.60061264038086 2.725916624069214 48.78993988037109 21.46657752990723 C 45.87436294555664 28.45969009399414 38.76519012451172 36.81528854370117 25.20995140075684 45.99997711181641 Z" stroke="none" fill="#09c4c2"/>
  </g>
</svg>
