<svg xmlns="http://www.w3.org/2000/svg" width="73" height="65.214" viewBox="0 0 73 65.214">
  <g id="likenotificationactive_icon" transform="translate(-99 -625)">
    <g id="Path_3" data-name="Path 3" transform="translate(106 630)" fill="#474747">
      <path d="M 33 58.3988037109375 C 25.04688453674316 52.94192123413086 18.46967506408691 47.44735336303711 13.44075298309326 42.05795288085938 C 8.807635307312012 37.09272766113281 5.469176292419434 32.20235061645508 3.518129348754883 27.52267074584961 C 1.991894125938416 23.86067008972168 1.325905919075012 20.35407066345215 1.538741230964661 17.1004581451416 C 1.728694081306458 14.19668197631836 2.610599994659424 11.5458345413208 4.159964561462402 9.221564292907715 C 5.740894317626953 6.849928855895996 8.002129554748535 4.878858089447021 10.69919967651367 3.521446228027344 C 13.32680034637451 2.199011087417603 16.26762390136719 1.500010967254639 19.20377731323242 1.500010967254639 C 21.6476001739502 1.500010967254639 23.96482276916504 1.973669767379761 26.0910587310791 2.907846212387085 C 28.34222412109375 3.89691686630249 30.27664756774902 5.3644700050354 31.840576171875 7.269740581512451 L 33 8.682210922241211 L 34.159423828125 7.269740581512451 C 35.7230110168457 5.36488151550293 37.657470703125 3.897446393966675 39.9090690612793 2.908175706863403 C 42.0357780456543 1.973787426948547 44.35293960571289 1.500010967254639 46.79622268676758 1.500010967254639 C 49.73270416259766 1.500010967254639 52.67376327514648 2.198952198028564 55.30143356323242 3.521269798278809 C 57.99860000610352 4.878575801849365 60.25984573364258 6.849528789520264 61.84070587158203 9.221057891845703 C 63.38998794555664 11.54522228240967 64.27179718017578 14.19602298736572 64.46164703369141 17.09983444213867 C 64.67436218261719 20.35352897644043 64.00826263427734 23.86032867431641 62.4818000793457 27.52284622192383 C 60.53081130981445 32.20235061645508 57.19235229492188 37.09272766113281 52.55923461914062 42.05795288085938 C 47.53032302856445 47.44735336303711 40.95310592651367 52.94192123413086 33 58.3988037109375 Z" stroke="none"/>
      <path d="M 33 56.57587814331055 C 40.48274230957031 51.37436676025391 46.68724060058594 46.15220642089844 51.46253204345703 41.03460311889648 C 55.97356033325195 36.20021820068359 59.21518707275391 31.45995140075684 61.09724044799805 26.94579124450684 C 62.53400039672852 23.49847030639648 63.16234588623047 20.21873664855957 62.96483993530273 17.19769668579102 C 62.7923583984375 14.5595235824585 61.99421310424805 12.15571022033691 60.59258651733398 10.05304431915283 C 59.15553283691406 7.897257328033447 57.09270477294922 6.101923942565918 54.62714767456055 4.861177444458008 C 52.20759963989258 3.643590688705444 49.49970626831055 3.000003814697266 46.79621505737305 3.000003814697266 C 42.15877151489258 3.000003814697266 38.08270645141602 4.854350566864014 35.31884002685547 8.221444129943848 L 33 11.04639053344727 L 30.68115997314453 8.221444129943848 C 27.91729354858398 4.854350566864014 23.84121322631836 3.000003814697266 19.20378684997559 3.000003814697266 C 16.50065422058105 3.000003814697266 13.79300022125244 3.643643856048584 11.37355995178223 4.861323833465576 C 8.908040046691895 6.102190494537354 6.845213413238525 7.89764404296875 5.408080101013184 10.05356407165527 C 4.006360054016113 12.15635013580322 3.208120107650757 14.56021690368652 3.035546779632568 17.19837760925293 C 2.837933301925659 20.21933746337891 3.46614670753479 23.49884414672852 4.902626514434814 26.94545745849609 C 6.784813404083252 31.45995140075684 10.02643966674805 36.20022964477539 14.53745365142822 41.03460311889648 C 19.31275939941406 46.15220642089844 25.51724433898926 51.37436676025391 33 56.57587814331055 M 33 60.21428298950195 C 15.25610637664795 48.19147109985352 5.950146675109863 37.25393676757812 2.133640050888062 28.09989738464355 C -8.090585708618164 3.568245887756348 21.11286354064941 -8.163544654846191 33 6.31803035736084 C 36.55510711669922 1.986993670463562 41.66133117675781 5.484619123308221e-06 46.79621505737305 5.484619123308221e-06 C 58.83070373535156 5.484619123308221e-06 71.03280639648438 10.90498065948486 63.86635971069336 28.09989738464355 C 60.04985427856445 37.25393676757812 50.74388122558594 48.19147109985352 33 60.21428298950195 Z" stroke="none" fill="#474747"/>
    </g>
    <circle id="Ellipse_22" data-name="Ellipse 22" cx="11" cy="11" r="11" transform="translate(99 625)" fill="#09c4c2"/>
  </g>
</svg>
