<svg xmlns="http://www.w3.org/2000/svg" width="40" height="40" viewBox="0 0 40 40">
  <path id="likecomment_icon" d="M7.313,15.75H1.688A1.687,1.687,0,0,0,0,17.438V34.313A1.687,1.687,0,0,0,1.688,36H7.313A1.687,1.687,0,0,0,9,34.313V17.438A1.687,1.687,0,0,0,7.313,15.75ZM4.5,33.188A1.688,1.688,0,1,1,6.188,31.5,1.687,1.687,0,0,1,4.5,33.188ZM27,5.727c0,2.982-1.826,4.655-2.34,6.648h7.152A4.2,4.2,0,0,1,36,16.46a5.091,5.091,0,0,1-1.367,3.459l-.008.008a5.873,5.873,0,0,1-.654,5.588,5.56,5.56,0,0,1-1.152,5.256,3.733,3.733,0,0,1-.432,3.138c-1.435,2.062-4.992,2.091-8,2.091h-.2a20.185,20.185,0,0,1-8.407-2.231,11.066,11.066,0,0,0-3.7-1.138.844.844,0,0,1-.828-.844V16.757a.843.843,0,0,1,.25-.6c2.785-2.752,3.983-5.666,6.266-7.953a8.515,8.515,0,0,0,1.785-4.142C19.864,2.763,20.518,0,21.938,0,23.625,0,27,.563,27,5.727Z" transform="translate(2 2)" fill="none" stroke="#474747" stroke-width="4"/>
</svg>
