<svg xmlns="http://www.w3.org/2000/svg" width="68" height="68" viewBox="0 0 68 68">
  <path id="preferences_icon" d="M34,17a2.842,2.842,0,0,0-2.833-2.833H16.49l1.87-9.01.057-.652a3.289,3.289,0,0,0-.935-2.267L15.243,0l-14,14A4.265,4.265,0,0,0,0,17V35.417a4.244,4.244,0,0,0,4.25,4.25H23.375a4.275,4.275,0,0,0,3.91-2.578l6.4-14.988A4.133,4.133,0,0,0,34,20.542ZM63.75,28.333H44.625a4.275,4.275,0,0,0-3.91,2.578L34.312,45.9A4.133,4.133,0,0,0,34,47.458V51a2.842,2.842,0,0,0,2.833,2.833H51.51l-1.87,9.01-.057.68a3.289,3.289,0,0,0,.935,2.267L52.757,68l14-14A4.265,4.265,0,0,0,68,51V32.583A4.244,4.244,0,0,0,63.75,28.333Z" fill="#484848"/>
</svg>
