<svg xmlns="http://www.w3.org/2000/svg" width="63.753" height="63.77" viewBox="0 0 63.753 63.77">
  <path id="setting_icon" d="M62.99,36.377a8.2,8.2,0,0,1,5.263-7.654,32.518,32.518,0,0,0-3.935-9.48,8.314,8.314,0,0,1-3.337.714A8.186,8.186,0,0,1,53.494,8.435,32.42,32.42,0,0,0,44.03,4.5a8.2,8.2,0,0,1-15.307,0,32.518,32.518,0,0,0-9.48,3.935,8.186,8.186,0,0,1-7.488,11.522,8.043,8.043,0,0,1-3.337-.714A33.237,33.237,0,0,0,4.5,28.74a8.194,8.194,0,0,1,5.263,7.654,8.213,8.213,0,0,1-5.246,7.654,32.518,32.518,0,0,0,3.935,9.48A8.189,8.189,0,0,1,19.26,64.335a32.708,32.708,0,0,0,9.48,3.935,8.182,8.182,0,0,1,15.274,0,32.518,32.518,0,0,0,9.48-3.935A8.2,8.2,0,0,1,64.3,53.527a32.708,32.708,0,0,0,3.935-9.48A8.243,8.243,0,0,1,62.99,36.377ZM36.526,49.642A13.282,13.282,0,1,1,49.808,36.36,13.278,13.278,0,0,1,36.526,49.642Z" transform="translate(-4.5 -4.5)" opacity="0.5"/>
</svg>
