<svg xmlns="http://www.w3.org/2000/svg" width="65.625" height="61.786" viewBox="0 0 65.625 61.786">
  <g id="speakloud_icon" transform="translate(830.206 -231.434)">
    <path id="Path_6" data-name="Path 6" d="M-511.069,493.462a33.549,33.549,0,0,1,3.547.225,31.563,31.563,0,0,1,3.583.938,15.946,15.946,0,0,1,3.865,1.791,19.928,19.928,0,0,1,5.312,4.711,21.109,21.109,0,0,1,2.682,4.5,20.551,20.551,0,0,1,1.524,6.354,17.42,17.42,0,0,1-.37,4.883,19.5,19.5,0,0,1-1.584,4.713,19.925,19.925,0,0,1-4.773,6.233,16.769,16.769,0,0,1-4.366,2.9,30.41,30.41,0,0,1-4.076,1.5,17.306,17.306,0,0,1-6.178.491,22.657,22.657,0,0,1-3.246-.466c-.979-.224-1.919-.621-2.876-.943a17.982,17.982,0,0,1-4.05-2.169,19.048,19.048,0,0,1-4.088-3.8,19.829,19.829,0,0,1-2.684-4.449,22.14,22.14,0,0,1-1.391-4.472c-.136-.589-.065-1.222-.144-1.828a16.6,16.6,0,0,1,.139-4.432,17.049,17.049,0,0,1,1.277-4.459,23.472,23.472,0,0,1,2.718-4.631,17.186,17.186,0,0,1,3.534-3.454,18.464,18.464,0,0,1,3.96-2.347,16.64,16.64,0,0,1,4.515-1.386C-513.044,493.728-511.848,493.562-511.069,493.462Zm.536,8.5v0c-3.2,0-6.391.022-9.585-.012a1.785,1.785,0,0,0-1.777,1.8q-.075,2.33,0,4.663a2.212,2.212,0,0,0,.459,1.294,1.738,1.738,0,0,0,1.969.438,1.6,1.6,0,0,0,1.119-1.649c-.006-.769-.017-1.539-.046-2.308-.023-.615.116-.758.742-.722.269.016.54.011.81.01,1.341,0,2.681-.016,4.022-.008.468,0,.569.138.569.6,0,.8,0,1.6,0,2.4q0,6.7,0,13.393c0,.636-.107.729-.761.721-.485-.006-.971-.027-1.454,0a1.761,1.761,0,0,0-1.649,1.8,1.839,1.839,0,0,0,1.984,1.73,5.45,5.45,0,0,1,.938-.048c2.154,0,4.308.019,6.461.009a1.641,1.641,0,0,0,1.742-1.7,1.753,1.753,0,0,0-1.771-1.8c-.485-.005-.97.006-1.455.018-.375.01-.533-.144-.53-.537q.025-4.128.021-8.257,0-3.892-.026-7.785c0-.428.2-.549.574-.548,1.64,0,3.281.006,4.921,0,.393,0,.525.166.515.546-.02.755-.006,1.512-.01,2.268a1.8,1.8,0,0,0,2.1,1.968,1.537,1.537,0,0,0,1.393-1.393c.028-1.736.043-3.473.019-5.21a1.611,1.611,0,0,0-1.72-1.665Q-505.741,501.954-510.534,501.959Z" transform="translate(-274.075 -239.603)" fill="#959595"/>
    <path id="Path_7" data-name="Path 7" d="M-680.1,246.783c0,2.125,0,4.25,0,6.374a.9.9,0,0,1-.375.815,23.189,23.189,0,0,0-4.551,4.3,19.969,19.969,0,0,0-3.123,4.879,47.057,47.057,0,0,0-1.669,4.462,20.53,20.53,0,0,0-.553,3.147c-.09.634-.247.774-.889.7a10.458,10.458,0,0,1-5.387-2.1,9.208,9.208,0,0,1-3.423-5.027,10.7,10.7,0,0,1-.309-2.579q-.037-9.583,0-19.167a20.756,20.756,0,0,1,.294-3.826,8.4,8.4,0,0,1,1.083-2.54,9.794,9.794,0,0,1,5.328-4.2,9.9,9.9,0,0,1,5.343-.395,10.285,10.285,0,0,1,6.893,4.564,13.248,13.248,0,0,1,.909,2.011,8.707,8.707,0,0,1,.407,3.574c.008,1.668,0,3.337,0,5.006Z" transform="translate(-118.704 0)" fill="#959595"/>
    <path id="Path_8" data-name="Path 8" d="M-815.789,556.984c.841,0,1.683,0,2.524,0,.649,0,.675-.056.665-.7-.018-1.212,0-2.424.009-3.636,0-.678-.1-.794-.761-.877a19.91,19.91,0,0,1-4-1.044,21.822,21.822,0,0,1-5.086-2.581,17.086,17.086,0,0,1-4.379-4.035,17.389,17.389,0,0,1-2.609-4.868,15.579,15.579,0,0,1-.748-4.789c-.007-1.682-.07-3.367-.012-5.047a2.7,2.7,0,0,1,1.478-2.274,4.017,4.017,0,0,1,5.305.951,2.484,2.484,0,0,1,.451,1.609c.014,1.483,0,2.966,0,4.45a10.741,10.741,0,0,0,3.193,7.815,14.178,14.178,0,0,0,4.643,3.064,15.7,15.7,0,0,0,5.017,1.15c.945.07.9.069,1.037,1.039a23.831,23.831,0,0,0,1.362,5.273,22.154,22.154,0,0,0,1.863,3.877,29.855,29.855,0,0,0,2.169,3.01c.766.933,1.637,1.78,2.476,2.652.173.18.42.286.611.451a1.6,1.6,0,0,1,.237.348c-.133.085-.266.245-.4.244q-7.568-.024-15.137-.074c-.727,0-1.455-.014-2.182,0A2.923,2.923,0,0,1-820.866,561a2.963,2.963,0,0,1,.948-3.392,2.516,2.516,0,0,1,1.648-.614c.827.021,1.654.005,2.481.005Z" transform="translate(0 -269.842)" fill="#959595"/>
  </g>
</svg>
