<svg id="animation" xmlns="http://www.w3.org/2000/svg" xmlns:xlink="http://www.w3.org/1999/xlink" width="15.844" height="24" viewBox="0 0 15.844 24">
  <defs>
    <linearGradient id="linear-gradient" x1="-0.1" x2="1.126" y2="1.148" gradientUnits="objectBoundingBox">
      <stop offset="0" stop-color="#96fcc8"/>
      <stop offset="1" stop-color="#91d0fd"/>
    </linearGradient>
  </defs>
  <path id="Path_3" data-name="Path 3" d="M6.313,12.016c-.277-.258-.522-.488-.768-.715C4.137,10,2.713,8.723,1.325,7.4a4.094,4.094,0,0,1-1.1-4.415A3.988,3.988,0,0,1,3.55.077a5.041,5.041,0,0,1,.926-.07Q7.929,0,11.383.006A4.3,4.3,0,0,1,14.5,7.426c-1.52,1.453-3.082,2.861-4.626,4.289-.1.088-.19.178-.335.313.1.08.2.138.278.213L14.326,16.4a4.34,4.34,0,0,1,1.395,2.508,4.444,4.444,0,0,1-3.531,5.014,5.343,5.343,0,0,1-.9.075c-2.32.006-4.641.01-6.961,0a4.1,4.1,0,0,1-4.2-3.391,4.346,4.346,0,0,1,1.43-4.219q2.281-2.117,4.574-4.222C6.182,12.119,6.241,12.075,6.313,12.016Zm1.56-7.453H5.763a.81.81,0,0,0-.895.828.817.817,0,0,0,.883.852q2.11.012,4.222,0a.84.84,0,1,0-.017-1.675C9.262,4.563,8.568,4.563,7.873,4.563Zm0,14.757H9.979a.839.839,0,1,0,.027-1.677q-2.14-.015-4.278,0a.839.839,0,1,0,.029,1.677c.7.006,1.407,0,2.112,0Z" transform="translate(0 -0.004)" fill="url(#linear-gradient)"/>
</svg>
