<svg id="de_games" xmlns="http://www.w3.org/2000/svg" xmlns:xlink="http://www.w3.org/1999/xlink" width="23.951" height="24" viewBox="0 0 23.951 24">
  <defs>
    <linearGradient id="linear-gradient" x2="1" y2="1" gradientUnits="objectBoundingBox">
      <stop offset="0" stop-color="#dce1f3"/>
      <stop offset="1" stop-color="#d1dae8"/>
    </linearGradient>
  </defs>
  <path id="Path_6" data-name="Path 6" d="M5.76,18.825H1.739a1.688,1.688,0,0,1-1.649-1.2,2.2,2.2,0,0,1-.08-.6C0,15.229.007,13.44,0,11.647a.892.892,0,0,1,.509-.917.881.881,0,0,1,1.02.229,2.132,2.132,0,0,0,3.287-2.64A2.166,2.166,0,0,0,1.607,7.8c-.07.056-.132.12-.2.174a.816.816,0,0,1-.9.125.8.8,0,0,1-.5-.758C0,5.433-.009,3.526.011,1.619A1.657,1.657,0,0,1,1.63.01c1.9-.018,3.79-.01,5.685,0A.8.8,0,0,1,8.09.521a.827.827,0,0,1-.192.96,2.1,2.1,0,0,0-.5,2.267A2.086,2.086,0,0,0,9.255,5.134a2.121,2.121,0,0,0,2.06-1.208,2.076,2.076,0,0,0-.3-2.32c-.039-.049-.085-.091-.126-.138a.824.824,0,0,1-.171-.96.829.829,0,0,1,.812-.5h3.817C15.92,0,16.5,0,17.077,0a1.7,1.7,0,0,1,1.714,1.714c.008,1.247,0,2.5,0,3.742v.3a3.763,3.763,0,0,1,4.564,1.68,3.635,3.635,0,0,1-.154,4.2c-.946,1.386-2.434,1.852-4.41,1.427v3.95a1.708,1.708,0,0,1-1.809,1.809H13.053a3.809,3.809,0,0,1-1.736,4.6,3.558,3.558,0,0,1-4.183-.22A3.774,3.774,0,0,1,5.76,18.825Z" transform="translate(0.001 0.001)" fill="url(#linear-gradient)"/>
</svg>
