<svg id="de_home" xmlns="http://www.w3.org/2000/svg" xmlns:xlink="http://www.w3.org/1999/xlink" width="23.986" height="24.034" viewBox="0 0 23.986 24.034">
  <defs>
    <linearGradient id="linear-gradient" x2="1" y2="1" gradientUnits="objectBoundingBox">
      <stop offset="0" stop-color="#dce1f3"/>
      <stop offset="1" stop-color="#d1dae8"/>
    </linearGradient>
  </defs>
  <path id="Path_1" data-name="Path 1" d="M23.98,20.66a3.41,3.41,0,0,1-3.369,3.365c-1.149.012-2.3,0-3.479,0v-6.76A3.426,3.426,0,0,0,13.6,13.732H10.335a3.424,3.424,0,0,0-3.482,3.5v6.8H3.485A3.432,3.432,0,0,1,0,20.529Q0,17.3.007,14.068c0-.606.046-1.213.091-1.819A4.5,4.5,0,0,1,1.389,9.434c1.154-1.219,2.329-2.417,3.5-3.62q2.3-2.363,4.6-4.717a3.406,3.406,0,0,1,5.007,0c2.518,2.569,5,5.171,7.554,7.709a6.194,6.194,0,0,1,1.937,4.7C23.954,15.888,23.994,18.274,23.98,20.66Z" transform="translate(0 0)" fill="url(#linear-gradient)"/>
  <path id="Path_2" data-name="Path 2" d="M22.541,30.132v6.733H15.693V30.123A1.709,1.709,0,0,1,17.519,28.3q1.6-.006,3.209,0A1.709,1.709,0,0,1,22.541,30.132Z" transform="translate(-7.121 -12.84)" fill="url(#linear-gradient)"/>
</svg>
