<svg id="de_snippets" xmlns="http://www.w3.org/2000/svg" xmlns:xlink="http://www.w3.org/1999/xlink" width="24" height="23.978" viewBox="0 0 24 23.978">
  <defs>
    <linearGradient id="linear-gradient" x2="1" y2="1" gradientUnits="objectBoundingBox">
      <stop offset="0" stop-color="#dce1f3"/>
      <stop offset="1" stop-color="#d1dae8"/>
    </linearGradient>
  </defs>
  <path id="Path_4" data-name="Path 4" d="M.034,16.009H24c0,.092.012.175.012.257q0,4.723,0,9.446a5.429,5.429,0,0,1-4.363,5.422,5.893,5.893,0,0,1-1.191.115q-6.435.012-12.869,0A5.435,5.435,0,0,1,.156,26.9a5.621,5.621,0,0,1-.117-1.136c-.009-3.175,0-6.349,0-9.523ZM9.2,22.5c.119-.107.24-.205.346-.312.369-.364.748-.719,1.1-1.1A1.087,1.087,0,0,0,9.1,19.559Q7.97,20.663,6.866,21.8a1.034,1.034,0,0,0-.014,1.457c.746.771,1.5,1.534,2.276,2.273a1.076,1.076,0,0,0,1.74-.434,1.061,1.061,0,0,0-.269-1.172C10.148,23.459,9.692,23,9.2,22.5Zm5.619.031c-.47.48-.94.942-1.4,1.42a1.09,1.09,0,0,0,1.544,1.539q1.1-1.08,2.183-2.181a1.067,1.067,0,0,0,0-1.553c-.719-.727-1.43-1.456-2.171-2.158a1.374,1.374,0,0,0-.695-.32,1.026,1.026,0,0,0-1.061.6,1.062,1.062,0,0,0,.187,1.229c.459.48.93.944,1.409,1.428Z" transform="translate(-0.015 -7.277)" fill="url(#linear-gradient)"/>
  <path id="Path_5" data-name="Path 5" d="M.048,6.52A5.546,5.546,0,0,1,4.733.056,5.9,5.9,0,0,1,5.548,0q6.459,0,12.916,0a5.426,5.426,0,0,1,5.409,4.345,6.628,6.628,0,0,1,.117,1.039c.02.372,0,.745,0,1.134Z" transform="translate(0)" fill="url(#linear-gradient)"/>
</svg>
