<svg id="home" xmlns="http://www.w3.org/2000/svg" xmlns:xlink="http://www.w3.org/1999/xlink" width="23.952" height="24" viewBox="0 0 23.952 24">
  <defs>
    <linearGradient id="linear-gradient" x1="-0.1" x2="1.126" y2="1.148" gradientUnits="objectBoundingBox">
      <stop offset="0" stop-color="#ffcf7c"/>
      <stop offset="1" stop-color="#ffab89"/>
    </linearGradient>
  </defs>
  <path id="Path_1" data-name="Path 1" d="M23.947,20.631a3.4,3.4,0,0,1-3.364,3.36c-1.147.012-2.294,0-3.474,0V17.24a3.421,3.421,0,0,0-3.527-3.527H10.321a3.419,3.419,0,0,0-3.477,3.5V24H3.48A3.427,3.427,0,0,1,0,20.5q0-3.227.007-6.452c0-.606.046-1.211.09-1.816A4.494,4.494,0,0,1,1.387,9.42C2.54,8.2,3.713,7.007,4.88,5.806Q7.173,3.447,9.474,1.1a3.4,3.4,0,0,1,5,0c2.514,2.566,5,5.164,7.543,7.7a6.185,6.185,0,0,1,1.934,4.691C23.92,15.865,23.96,18.248,23.947,20.631Z" transform="translate(0 0)" fill="url(#linear-gradient)"/>
  <path id="Path_2" data-name="Path 2" d="M22.541,30.132v6.733H15.693V30.123A1.709,1.709,0,0,1,17.519,28.3q1.6-.006,3.209,0A1.709,1.709,0,0,1,22.541,30.132Z" transform="translate(-7.138 -12.874)" fill="url(#linear-gradient)"/>
</svg>
