<svg xmlns="http://www.w3.org/2000/svg" xmlns:xlink="http://www.w3.org/1999/xlink" width="140.216" height="30" viewBox="0 0 140.216 30">
    <defs>
        <linearGradient id="ynnkbmkxea" x1="-.007" y1="-.021" x2="1.004" y2="1.018" gradientUnits="objectBoundingBox">
            <stop offset="0" stop-color="#1306a3"/>
            <stop offset=".145" stop-color="#1d0eaa"/>
            <stop offset=".394" stop-color="#3826be"/>
            <stop offset=".715" stop-color="#654dde"/>
            <stop offset="1" stop-color="#9375ff"/>
        </linearGradient>
        <linearGradient id="wd4sxyzwzb" x1="-.383" y1=".305" x2="3.334" y2="1.339" xlink:href="#ynnkbmkxea"/>
        <linearGradient id="7tlwgs6irc" x1="-2.054" y1="-.177" x2="2.858" y2="1.135" xlink:href="#ynnkbmkxea"/>
        <linearGradient id="n7n4z210cd" x1="-2.223" y1="-.506" x2="1.264" y2=".783" xlink:href="#ynnkbmkxea"/>
        <linearGradient id="9icpzoc4re" x1="-.339" y1=".426" x2="9.468" y2="1.313" xlink:href="#ynnkbmkxea"/>
        <linearGradient id="t1o7py5v9f" x1="-.949" y1=".213" x2="4.555" y2="1.383" xlink:href="#ynnkbmkxea"/>
        <linearGradient id="d3lkpnl3eg" x1="-3.628" y1="0" x2="5.747" y2="1.148" xlink:href="#ynnkbmkxea"/>
        <linearGradient id="1d0hkc0mzh" x1="-6.882" y1="-.168" x2="5.974" y2="1.002" xlink:href="#ynnkbmkxea"/>
        <linearGradient id="olbevzr2gi" x1="-7.588" y1="-.157" x2="4.456" y2=".811" xlink:href="#ynnkbmkxea"/>
        <linearGradient id="efad0bxaij" x1="-7.128" y1="-.23" x2="2.379" y2=".681" xlink:href="#ynnkbmkxea"/>
        <linearGradient id="awsjnsxh5k" x1="-63.886" y1="-.295" x2="8.552" y2=".602" xlink:href="#ynnkbmkxea"/>
        <linearGradient id="4x5b5di2ml" x1="-14.246" y1="-.436" x2="1.126" y2=".536" xlink:href="#ynnkbmkxea"/>
    </defs>
    <rect width="30" height="30" rx="4.896" style="fill:url(#ynnkbmkxea)"/>
    <path data-name="back" d="M4.08 0h9.245v3.631a4.08 4.08 0 0 1-4.08 4.08H0V4.08A4.08 4.08 0 0 1 4.08 0z" transform="translate(15.854 21.483)" style="fill:#fff"/>
    <path data-name="Path 1996" d="M212.623 116.753a1.271 1.271 0 0 1-.375.979 1.512 1.512 0 0 1-1.061.347h-.287v1.257h-1.031v-3.792h1.312a1.6 1.6 0 0 1 1.079.314 1.119 1.119 0 0 1 .364.894zm-1.727.49h.187a.511.511 0 0 0 .367-.13.472.472 0 0 0 .136-.358q0-.384-.425-.384h-.261z" transform="translate(-191.918 -92.012)" style="fill:url(#wd4sxyzwzb)"/>
    <path data-name="Path 1997" d="M218.734 117.142a1.462 1.462 0 0 1 .251.021l.057.011-.091.957a1.509 1.509 0 0 0-.345-.031.653.653 0 0 0-.482.152.594.594 0 0 0-.151.437v1.444h-1.013V117.2h.754l.158.469h.049a1.017 1.017 0 0 1 .355-.378.846.846 0 0 1 .458-.145z" transform="translate(-195.446 -92.806)" style="fill:url(#7tlwgs6irc)"/>
    <path data-name="Path 1998" d="M225.126 118.657a1.557 1.557 0 0 1-.388 1.124 1.435 1.435 0 0 1-1.085.4 1.405 1.405 0 0 1-1.061-.412 1.784 1.784 0 0 1-.008-2.232 1.448 1.448 0 0 1 1.088-.4 1.556 1.556 0 0 1 .765.184 1.257 1.257 0 0 1 .512.528 1.7 1.7 0 0 1 .177.808zm-1.9 0a1.306 1.306 0 0 0 .1.577.352.352 0 0 0 .339.2.343.343 0 0 0 .334-.2 1.361 1.361 0 0 0 .1-.577 1.285 1.285 0 0 0-.1-.571.39.39 0 0 0-.672 0 1.249 1.249 0 0 0-.1.571z" transform="translate(-198.052 -92.806)" style="fill:url(#n7n4z210cd)"/>
    <g>
        <path data-name="Path 10" d="m197.769 95.079-9.212 6.579a.681.681 0 0 1-.681-.68v-3.087l3.946-2.816a.272.272 0 0 0 .064-.379.278.278 0 0 0-.064-.064l-3.946-2.815v-4.254l9.893 7.064a.273.273 0 0 1 .074.378.278.278 0 0 1-.074.074z" transform="translate(-180.974 -78.088)" style="fill:#efefef"/>
        <path data-name="Path 11" d="m197.769 95.079-2.856 2.04a.386.386 0 0 0-.151-.418l-6.884-4.887v-4.253l9.893 7.064a.273.273 0 0 1 .074.378.278.278 0 0 1-.074.074z" transform="translate(-180.974 -78.088)" style="fill:#fff"/>
        <path data-name="Path 12" d="m200.3 82.225 9.212-6.58a.681.681 0 0 1 .681.681v3.088l-3.946 2.817a.273.273 0 0 0-.063.379.276.276 0 0 0 .063.063l3.947 2.815v4.254l-9.894-7.065a.272.272 0 0 1-.076-.377.267.267 0 0 1 .075-.076z" transform="translate(-187.096 -72.158)" style="fill:#efefef"/>
        <path data-name="Path 13" d="m200.3 86.718 2.856-2.04a.387.387 0 0 0 .149.424l6.886 4.88v4.254l-9.891-7.064a.272.272 0 0 1 0-.452z" transform="translate(-187.097 -76.652)" style="fill:#fff"/>
    </g>
    <g>
        <path data-name="Path 1988" d="M134.88 156.839a4.281 4.281 0 0 1-1.614 3.535 7.013 7.013 0 0 1-4.492 1.292 10.542 10.542 0 0 1-4.689-1V157.4a19.347 19.347 0 0 0 2.837 1.053 8.415 8.415 0 0 0 2.122.306 3.019 3.019 0 0 0 1.773-.442 1.512 1.512 0 0 0 .618-1.314 1.451 1.451 0 0 0-.272-.867 3.05 3.05 0 0 0-.8-.734 20.575 20.575 0 0 0-2.147-1.121 10.158 10.158 0 0 1-2.277-1.371 5.146 5.146 0 0 1-1.213-1.53 4.361 4.361 0 0 1-.453-2.04 4.281 4.281 0 0 1 1.49-3.456 6.192 6.192 0 0 1 4.118-1.257 9.714 9.714 0 0 1 2.463.306 16.881 16.881 0 0 1 2.453.861l-1.133 2.729a16.564 16.564 0 0 0-2.192-.759 7.061 7.061 0 0 0-1.7-.215 2.261 2.261 0 0 0-1.53.464 1.533 1.533 0 0 0-.532 1.213 1.494 1.494 0 0 0 .215.81 2.361 2.361 0 0 0 .685.668 21.08 21.08 0 0 0 2.226 1.161 8.862 8.862 0 0 1 3.182 2.226 4.342 4.342 0 0 1 .862 2.748z" transform="translate(-86.999 -138.14)" style="fill:url(#9icpzoc4re)"/>
        <path data-name="Path 1989" d="M158.149 163.571h-3.456v-7.394a3.728 3.728 0 0 0-.459-2.056 1.614 1.614 0 0 0-1.444-.685 2.094 2.094 0 0 0-1.926.974 6.392 6.392 0 0 0-.6 3.206v5.957h-3.454v-12.667h2.64l.464 1.621h.193a3.509 3.509 0 0 1 1.469-1.365 4.782 4.782 0 0 1 2.209-.49q2.844 0 3.852 1.858h.306a3.42 3.42 0 0 1 1.5-1.371 5 5 0 0 1 2.237-.49 4.414 4.414 0 0 1 3.26 1.1 4.849 4.849 0 0 1 1.1 3.541v8.258h-3.467v-7.393a3.728 3.728 0 0 0-.459-2.056 1.614 1.614 0 0 0-1.444-.685 2.156 2.156 0 0 0-1.9.907 5.141 5.141 0 0 0-.628 2.877z" transform="translate(-95.039 -140.274)" style="fill:url(#t1o7py5v9f)"/>
        <path data-name="Path 1990" d="m191.443 163.559-.668-1.723h-.091a5.1 5.1 0 0 1-1.8 1.524 5.8 5.8 0 0 1-2.407.425 3.892 3.892 0 0 1-2.872-1.043 4 4 0 0 1-1.048-2.969 3.346 3.346 0 0 1 1.411-2.973 8.172 8.172 0 0 1 4.254-1.061l2.2-.068v-.555a1.723 1.723 0 0 0-1.971-1.926 8.982 8.982 0 0 0-3.569.917l-1.142-2.334a10.3 10.3 0 0 1 4.849-1.142 6.038 6.038 0 0 1 3.908 1.111 4.1 4.1 0 0 1 1.359 3.376v8.44zm-1.02-5.868-1.337.046a4.285 4.285 0 0 0-2.243.543 1.707 1.707 0 0 0-.734 1.518q0 1.461 1.676 1.461a2.656 2.656 0 0 0 1.921-.691 2.428 2.428 0 0 0 .719-1.835z" transform="translate(-107.688 -140.261)" style="fill:url(#d3lkpnl3eg)"/>
        <path data-name="Path 1991" d="M214.408 150.668a5.57 5.57 0 0 1 1.167.1l-.26 3.239a3.965 3.965 0 0 0-1.019-.113 3.661 3.661 0 0 0-2.578.85 3.07 3.07 0 0 0-.924 2.379v6.446h-3.456v-12.663h2.617l.51 2.13h.17a4.754 4.754 0 0 1 1.592-1.714 3.917 3.917 0 0 1 2.181-.654z" transform="translate(-116.454 -140.274)" style="fill:url(#1d0hkc0mzh)"/>
        <path data-name="Path 1992" d="M230.073 159.7a7.493 7.493 0 0 0 2.175-.4v2.572a7.761 7.761 0 0 1-3.173.578 3.879 3.879 0 0 1-3.019-1.049 4.56 4.56 0 0 1-.946-3.144v-6.106h-1.654v-1.461l1.9-1.156 1-2.673h2.21v2.693h3.545v2.594h-3.545v6.106a1.346 1.346 0 0 0 .414 1.088 1.632 1.632 0 0 0 1.093.358z" transform="translate(-122.156 -138.929)" style="fill:url(#olbevzr2gi)"/>
        <path data-name="Path 1993" d="M254.777 161.569h-1.418L247 152.823l-2.209 1.949v6.8h-1.154V145h1.163v8.609l1.835-1.835 6.492-6.773h1.469l-6.786 7z" transform="translate(-129.297 -138.271)" style="fill:url(#efad0bxaij)"/>
        <path data-name="Path 1994" d="M265.614 145.69q0-1.088.714-1.087a.635.635 0 0 1 .549.283 1.392 1.392 0 0 1 .2.8 1.428 1.428 0 0 1-.2.8.628.628 0 0 1-.549.295q-.714.012-.714-1.091zm1.28 15.735h-1.121v-12.314h1.121z" transform="translate(-137.071 -138.129)" style="fill:url(#awsjnsxh5k)"/>
        <path data-name="Path 1995" d="M278.049 161.493a8.391 8.391 0 0 0 1.858-.181v.9a5.942 5.942 0 0 1-1.881.272 3.06 3.06 0 0 1-2.407-.872 4.049 4.049 0 0 1-.776-2.742v-7.95h-1.824v-.657l1.824-.51.567-2.787h.578v2.979h3.612v.974h-3.614v7.794a3.553 3.553 0 0 0 .5 2.1 1.808 1.808 0 0 0 1.563.68z" transform="translate(-139.691 -138.966)" style="fill:url(#4x5b5di2ml)"/>
    </g>
</svg>
