<svg id="snippets" xmlns="http://www.w3.org/2000/svg" xmlns:xlink="http://www.w3.org/1999/xlink" width="24.022" height="24" viewBox="0 0 24.022 24">
  <defs>
    <linearGradient id="linear-gradient" x1="-0.1" x2="1.126" y2="1.148" gradientUnits="objectBoundingBox">
      <stop offset="0" stop-color="#9bd5ff"/>
      <stop offset="1" stop-color="#c091ff"/>
    </linearGradient>
  </defs>
  <path id="Path_4" data-name="Path 4" d="M.034,16.009H24.023c0,.092.012.175.012.257q0,4.723,0,9.446a5.43,5.43,0,0,1-4.366,5.422,5.9,5.9,0,0,1-1.192.115q-6.441.012-12.88,0A5.439,5.439,0,0,1,.156,26.9a5.617,5.617,0,0,1-.117-1.136c-.009-3.175,0-6.349,0-9.523ZM9.21,22.5c.119-.107.24-.205.346-.312.37-.364.749-.719,1.1-1.1a1.088,1.088,0,0,0-1.546-1.529q-1.135,1.1-2.24,2.238a1.034,1.034,0,0,0-.014,1.457c.746.771,1.5,1.534,2.278,2.273a1.077,1.077,0,0,0,1.742-.434,1.06,1.06,0,0,0-.269-1.172C10.157,23.459,9.7,23,9.21,22.5Zm5.624.031c-.47.48-.941.942-1.4,1.42a1.091,1.091,0,0,0,1.546,1.539q1.1-1.08,2.185-2.181a1.066,1.066,0,0,0,0-1.553c-.72-.727-1.431-1.456-2.173-2.158a1.376,1.376,0,0,0-.7-.32,1.027,1.027,0,0,0-1.062.6,1.062,1.062,0,0,0,.187,1.229c.459.48.931.944,1.41,1.428Z" transform="translate(-0.015 -7.255)" fill="url(#linear-gradient)"/>
  <path id="Path_5" data-name="Path 5" d="M.048,6.52A5.546,5.546,0,0,1,4.738.056,5.908,5.908,0,0,1,5.553,0Q12.018,0,18.48,0a5.429,5.429,0,0,1,5.414,4.345,6.622,6.622,0,0,1,.117,1.039c.02.372,0,.745,0,1.134Z" transform="translate(0)" fill="url(#linear-gradient)"/>
</svg>
