<svg id="wrteam_logo" xmlns="http://www.w3.org/2000/svg" xmlns:xlink="http://www.w3.org/1999/xlink" width="134.73" height="22.918" viewBox="0 0 134.73 22.918">
    <defs>
        <linearGradient id="linear-gradient" y1=".5" x2="1" y2=".5" gradientUnits="objectBoundingBox">
            <stop offset="0" stop-color="#6abdbd"/>
            <stop offset="1" stop-color="#117f7c"/>
        </linearGradient>
        <linearGradient id="linear-gradient-2" y1=".5" x2="1" y2=".5" gradientUnits="objectBoundingBox">
            <stop offset="0" stop-color="#579d9e"/>
            <stop offset="1" stop-color="#00615e"/>
        </linearGradient>
        <linearGradient id="linear-gradient-3" x1="-.189" y1=".688" x2="1.18" y2=".095" xlink:href="#linear-gradient"/>
        <linearGradient id="linear-gradient-4" x1=".562" y1="-.124" x2=".457" y2=".932" gradientUnits="objectBoundingBox">
            <stop offset="0" stop-color="#f07"/>
            <stop offset="1" stop-color="#c60264"/>
        </linearGradient>
        <linearGradient id="linear-gradient-5" x1="12.243" y1=".374" x2="14.05" y2=".374" xlink:href="#linear-gradient-4"/>
        <linearGradient id="linear-gradient-6" y1=".5" x2="1" y2=".5" gradientUnits="objectBoundingBox">
            <stop offset="0" stop-color="#f07"/>
            <stop offset="1" stop-color="#79003b"/>
        </linearGradient>
        <linearGradient id="linear-gradient-7" x1=".01" y1="-.214" x2=".422" y2=".373" gradientUnits="objectBoundingBox">
            <stop offset="0" stop-color="#a7c62a"/>
            <stop offset="1" stop-color="#6f8200"/>
        </linearGradient>
        <linearGradient id="linear-gradient-8" x1=".506" y1=".25" x2=".48" y2="1.14" gradientUnits="objectBoundingBox">
            <stop offset=".004" stop-color="#718b32"/>
            <stop offset="1" stop-color="#3c4e1f"/>
        </linearGradient>
        <linearGradient id="linear-gradient-9" x1=".426" y1="-.303" x2=".688" y2="1.055" xlink:href="#linear-gradient-7"/>
        <linearGradient id="linear-gradient-10" x1=".406" y1="-.242" x2=".54" y2=".816" gradientUnits="objectBoundingBox">
            <stop offset="0" stop-color="#fda037"/>
            <stop offset="1" stop-color="#c96400"/>
        </linearGradient>
        <linearGradient id="linear-gradient-11" x1="-.228" y1="-.007" x2="1.901" y2="1.476" xlink:href="#linear-gradient-10"/>
        <style>
            .cls-2{fill:#fff}
        </style>
    </defs>
    <g id="wrteam" transform="translate(48.253 1.387)" style="isolation:isolate">
        <path id="Path_52" data-name="Path 52" class="cls-2" d="m2304.025 817.281-.515 2.682h-11.739a3.048 3.048 0 0 0-.019-.146 3.48 3.48 0 0 0-.6-1.489 3.3 3.3 0 0 0-1.286-1.047z" transform="translate(-2257.976 -817.281)"/>
        <path id="Path_53" data-name="Path 53" class="cls-2" d="m2404.019 912.837-1.83 9.532h3.837l1.83-9.532z" transform="translate(-2365.997 -909.18)"/>
        <path id="Path_54" data-name="Path 54" class="cls-2" d="m1462.089 825.461-1.454-8.175h-3.935l2.81 13.2z" transform="translate(-1456.701 -817.286)"/>
        <path id="Path_55" data-name="Path 55" class="cls-2" d="m1541.053 824.426-1.542-7.14h-2.686l-6.773 13.187v.009h3.18l3.864-7.679 1.5 6.4z" transform="translate(-1527.244 -817.286)"/>
        <path id="Path_56" data-name="Path 56" class="cls-2" d="m1769.232 817.286-6.778 13.2h3.11l7.022-13.2z" transform="translate(-1750.75 -817.286)"/>
        <path id="Path_57" data-name="Path 57" class="cls-2" d="M1957.408 825.342a5.456 5.456 0 0 0 .636-.191 5.059 5.059 0 0 0 1.656-.98 4.941 4.941 0 0 0 1.555-2.736 4.3 4.3 0 0 0 .036-1.456 3.077 3.077 0 0 0-.533-1.323 3.007 3.007 0 0 0-1.278-.99 5.151 5.151 0 0 0-2.1-.381h-9.439l-.512 2.669h-.119 7.45v.01h.4a3.942 3.942 0 0 1 1.89.2q.472.348.291 1.29a2 2 0 0 1-.414.961 1.531 1.531 0 0 1-.833.457 7.03 7.03 0 0 1-1.5.124h-.828l.394-2.052h-3.846l-1.83 9.531h3.846l.95-4.948h.72l1.861 4.948h3.664z" transform="translate(-1928.527 -817.286)"/>
        <path id="Path_58" data-name="Path 58" class="cls-2" d="M2878 1015.081a1.464 1.464 0 0 1-.677.185.694.694 0 0 1-.552-.244.8.8 0 0 1-.123-.7 1.508 1.508 0 0 1 .711-1.016 8.151 8.151 0 0 1 1.09-.553l.285-1.485-.216.069-1.054.33a16.756 16.756 0 0 0-1.992.732 4.075 4.075 0 0 0-1.288.908 2.764 2.764 0 0 0-.685 1.4 2.429 2.429 0 0 0 .032 1.089 1.491 1.491 0 0 0 .67.877 2.735 2.735 0 0 0 1.5.348 3.79 3.79 0 0 0 1.711-.412 2.427 2.427 0 0 0 .337-.218z" transform="translate(-2819.216 -1003.839)"/>
        <path id="Path_59" data-name="Path 59" class="cls-2" d="M2939.919 920.3a.328.328 0 0 1-.331-.409l.8-4.142a2.163 2.163 0 0 0-.565-2.128c-.532-.5-1.293-.754-3.111-.771h-2.87l-.4 2.083h2.788c.444.031.731.149.839.366a1.669 1.669 0 0 1 .061 1.048l-.281 1.464-.418 2.177-.208 1.085a1.01 1.01 0 0 0 .933 1.3h4.349l.4-2.073z" transform="translate(-2876.909 -909.185)"/>
        <path id="Path_60" data-name="Path 60" class="cls-2" d="M3154.328 915.975a4.054 4.054 0 0 0-.56-1.694 3.189 3.189 0 0 0-1.316-1.192 4.5 4.5 0 0 0-2.023-.419 5.686 5.686 0 0 0-1.984.351 5.55 5.55 0 0 0-1.56.9 3.247 3.247 0 0 0-1.061-.835 4.5 4.5 0 0 0-2.023-.419 5.686 5.686 0 0 0-1.983.351 5.6 5.6 0 0 0-1.776 1.079 6.193 6.193 0 0 0-1.321 1.673 6.934 6.934 0 0 0-.74 2.058c-.014.074-.028.15-.036.206l-.8 4.172h3.005l.886-4.613a2.128 2.128 0 0 1 2.122-1.746 1.411 1.411 0 0 1 1.506 1.614l-.911 4.745h3.033l.821-4.275a9.72 9.72 0 0 0 .065-.376 2.116 2.116 0 0 1 2.114-1.708 1.411 1.411 0 0 1 1.506 1.614l-.911 4.745h3.033l.807-4.2a6.186 6.186 0 0 0 .107-2.031z" transform="translate(-3072.818 -909.019)"/>
        <path id="Path_61" data-name="Path 61" class="cls-2" d="M2603.771 918.45h9.529l.126-.657a5.146 5.146 0 0 0-.108-2.862 2.975 2.975 0 0 0-1.37-1.6 4.266 4.266 0 0 0-2.02-.488 6.721 6.721 0 0 0-2.943.616 5.387 5.387 0 0 0-2.069 1.7 6.143 6.143 0 0 0-1.049 2.451 4.327 4.327 0 0 0-.1.719c.002.041.006.079.004.121zm4.187-3.047a1.994 1.994 0 0 1 1.388-.543 1.214 1.214 0 0 1 1.129.534 1.985 1.985 0 0 1 .154 1.429h-3.429a2.5 2.5 0 0 1 .758-1.423z" transform="translate(-2559.862 -909.185)"/>
        <path id="Path_62" data-name="Path 62" class="cls-2" d="M2607.532 1077.823h-3.43c.015.136.029.272.056.406a3.231 3.231 0 0 0 .744 1.5 3.542 3.542 0 0 0 1.429.964 5.326 5.326 0 0 0 1.956.338h1.615l.461-2.4h-1.395a1.707 1.707 0 0 1-1.436-.808z" transform="translate(-2560.181 -1067.85)"/>
    </g>
    <g id="w">
        <path id="Path_63" data-name="Path 63" d="m880.352 781.052-5.7 19.763-.219.667c-.508 1.545-.828 2.413-1.615 2.487h-8.588l3.46-12 .335-1.163 2.813-9.755z" transform="translate(-838.657 -781.052)" style="fill:url(#linear-gradient)"/>
        <path id="Path_64" data-name="Path 64" d="M961.039 1046.571c-.508 1.545-.828 2.413-1.615 2.487h-1.215l-.669-.589-3.243-11.411-.013-.047.349-1.116.031.1.089.289.14.453q.092.3.186.594l.225.711.258.8.284.874.3.92q.149.459.319.943.161.471.327.942t.328.918q.159.436.323.87.152.4.313.8.143.354.3.7c.087.2.176.393.272.586a2.483 2.483 0 0 0 .412.659 1.2 1.2 0 0 0 .6.329 1.07 1.07 0 0 0 .377.007 1.586 1.586 0 0 0 .506-.176 3.325 3.325 0 0 0 .816-.643z" transform="translate(-925.262 -1026.141)" style="fill:url(#linear-gradient-2)"/>
        <path id="Path_65" data-name="Path 65" d="m1043.964 797.71 4.8-16.655h-9.418a40.492 40.492 0 0 0 4.618 16.655z" transform="translate(-1007.072 -781.055)" style="fill:url(#linear-gradient-3)"/>
        <path id="Path_66" data-name="Path 66" d="M635.3 803.976h-9.512c-.915-.086-1.229-1.236-1.879-3.292-.017-.053-.9-3.086-1.893-6.524l-.6-2.065c-1.129-3.894-2.221-7.66-2.248-7.746-.65-2.056-.964-3.205-1.879-3.292h9.482c.688.065 1.036.73 1.442 1.93.134.4.275.851.436 1.361.056.178 4.714 16.156 4.771 16.334.652 2.058.966 3.207 1.88 3.294z" transform="translate(-601.17 -781.058)" style="fill:url(#linear-gradient-4)"/>
        <path id="Path_67" data-name="Path 67" d="M737.071 1097.452c-.926-3.373-3.451-7.154-5.894-7.154 1.137 3.923 2.241 7.729 2.26 7.789.65 2.056.964 3.205 1.879 3.292h4.3c-1.039-.379-2.088-2.261-2.545-3.927z" transform="translate(-710.696 -1078.46)" style="fill:url(#linear-gradient-5)"/>
        <path id="Path_68" data-name="Path 68" d="M727.589 782.988c-.011-.025-.024-.049-.037-.073a1.273 1.273 0 0 0-1.265-.6 1.047 1.047 0 0 0-.635.275 2.145 2.145 0 0 0-.388.573l-.025.048c-.271.526-.508 1.068-.731 1.616s-.431 1.11-.634 1.669a102.21 102.21 0 0 0-1.122 3.281q-.463 1.422-.9 2.853-.227.741-.447 1.484l-.015.05-.764.748c-.037 0 .081-1.674.165-2.813l.078-1.034 2.056-6.71 1.564-2.542.661-.751h1c.685.061 1.033.726 1.439 1.926z" transform="translate(-700.544 -781.058)" style="fill:url(#linear-gradient-6)"/>
        <path id="Path_69" data-name="Path 69" d="M212.258 803.976h-8.588c-.776-.073-1.1-.918-1.594-2.422l-.24-.732-5.7-19.763h9.512l2.793 9.684.082.285z" transform="translate(-196.137 -781.058)" style="fill:url(#linear-gradient-7)"/>
        <path id="Path_70" data-name="Path 70" d="m358 1037.009-.013.047-3.243 11.411-.669.589H352.9c-.776-.073-1.1-.918-1.594-2.422a3.2 3.2 0 0 0 .755.588 1.583 1.583 0 0 0 .506.175 1.067 1.067 0 0 0 .377-.007 1.205 1.205 0 0 0 .6-.33 2.484 2.484 0 0 0 .412-.659c.1-.193.186-.389.272-.586l.3-.7q.161-.4.313-.8.165-.434.324-.87.167-.458.328-.918c.11-.314 2.191-6.591 2.2-6.632l.062.214z" transform="translate(-345.367 -1026.138)" style="fill:url(#linear-gradient-8)"/>
        <path id="Path_71" data-name="Path 71" d="M201.489 799.61a39.66 39.66 0 0 1 5-15.634l-.843-2.922h-9.512z" transform="translate(-196.138 -781.055)" style="fill:url(#linear-gradient-9)"/>
        <path id="Path_72" data-name="Path 72" d="M409.858 784.347c-.056.178-4.7 16.212-4.74 16.335-.65 2.055-.964 3.205-1.879 3.292h-9.512c.915-.086 1.229-1.236 1.879-3.292.056-.178 4.714-16.157 4.771-16.335.65-2.055.964-3.205 1.879-3.292h9.481c-.915.086-1.229 1.236-1.879 3.292z" transform="translate(-386.163 -781.055)" style="fill:url(#linear-gradient-10)"/>
        <path id="Path_73" data-name="Path 73" d="M398.247 803.973c1.167-2.212 2.111-4.526 3.186-6.789A38.682 38.682 0 0 1 405.9 790a43.2 43.2 0 0 1 3.427-3.826l.531-1.826c.65-2.055.964-3.205 1.879-3.292h-9.481c-.915.086-1.229 1.236-1.879 3.292-.056.178-4.714 16.157-4.771 16.335-.65 2.055-.964 3.205-1.879 3.292z" transform="translate(-386.163 -781.055)" style="fill:url(#linear-gradient-11)"/>
    </g>
    <path id="tagline" class="cls-2" d="m1.319 46.737 1.04-1.944h.267l-1.183 2.18v1.373h-.255v-1.354L0 44.793h.284zm6.4-.173A1.984 1.984 0 0 1 7.3 47.9a1.456 1.456 0 0 1-1.166.492A1.453 1.453 0 0 1 4.97 47.9a1.992 1.992 0 0 1-.423-1.342 1.958 1.958 0 0 1 .426-1.335 1.468 1.468 0 0 1 1.165-.487 1.452 1.452 0 0 1 1.164.49 1.986 1.986 0 0 1 .421 1.339zm-2.906 0a1.82 1.82 0 0 0 .34 1.18 1.188 1.188 0 0 0 .977.417 1.2 1.2 0 0 0 .98-.413 1.822 1.822 0 0 0 .339-1.183 1.8 1.8 0 0 0-.339-1.177 1.194 1.194 0 0 0-.976-.409 1.2 1.2 0 0 0-.978.413 1.787 1.787 0 0 0-.339 1.173zm7.942-1.771v2.3a1.274 1.274 0 0 1-.355.957 1.359 1.359 0 0 1-.989.345 1.2 1.2 0 0 1-1.31-1.312v-2.29h.25v2.3a.99.99 0 0 0 1.089 1.084.972.972 0 0 0 1.067-1.059v-2.325zm2.822 2v1.548h-.248v-3.548h.846a1.593 1.593 0 0 1 .977.244.871.871 0 0 1 .316.735.961.961 0 0 1-.188.6 1.047 1.047 0 0 1-.572.352l.965 1.618h-.3l-.91-1.542zm0-.214h.678a1.082 1.082 0 0 0 .7-.2.716.716 0 0 0 .248-.592.694.694 0 0 0-.243-.59 1.326 1.326 0 0 0-.792-.185h-.588zm10.047 1.762h-.2l-.78-2.741q-.1-.338-.146-.554-.039.211-.111.486t-.787 2.814h-.2l-.977-3.552h.26l.622 2.289.068.256q.032.118.057.221t.046.2q.021.1.038.193.058-.33.248-1l.607-2.155h.275l.712 2.474q.124.428.177.69.032-.175.081-.372t.75-2.792h.25zm6.2-1.781a1.984 1.984 0 0 1-.423 1.338 1.625 1.625 0 0 1-2.33 0 1.992 1.992 0 0 1-.423-1.342 1.958 1.958 0 0 1 .426-1.335 1.468 1.468 0 0 1 1.165-.487 1.452 1.452 0 0 1 1.164.49 1.986 1.986 0 0 1 .428 1.341zm-2.906 0a1.82 1.82 0 0 0 .34 1.18 1.362 1.362 0 0 0 1.957 0 1.822 1.822 0 0 0 .339-1.183 1.8 1.8 0 0 0-.339-1.177 1.366 1.366 0 0 0-1.954 0 1.787 1.787 0 0 0-.336 1.185zm5.582.24v1.548h-.248v-3.555h.848a1.593 1.593 0 0 1 .977.244.871.871 0 0 1 .316.735.961.961 0 0 1-.188.6 1.047 1.047 0 0 1-.572.352l.965 1.618h-.3l-.914-1.542zm0-.214h.678a1.082 1.082 0 0 0 .7-.2.716.716 0 0 0 .248-.592.694.694 0 0 0-.243-.59 1.326 1.326 0 0 0-.792-.185H34.5zm6.705 1.762h-.3l-1.364-1.878-.474.418v1.458h-.248v-3.553h.248v1.847l.394-.394 1.392-1.453h.316l-1.455 1.5zm7.149-2.532a.944.944 0 0 1-.35.79 1.573 1.573 0 0 1-.991.275h-.549v1.468h-.248v-3.556h.87q1.27 0 1.27 1.021zm-1.89.85h.488a1.48 1.48 0 0 0 .867-.2.747.747 0 0 0 .267-.643.726.726 0 0 0-.253-.609 1.263 1.263 0 0 0-.782-.2h-.588zm5.981.428H51l-.5 1.254h-.275l1.429-3.567h.158l1.4 3.567h-.272zm-1.353-.224h1.271l-.484-1.281q-.061-.151-.146-.418a3.9 3.9 0 0 1-.143.423zm4.484-.07v1.548h-.246v-3.555h.846a1.593 1.593 0 0 1 .977.244.871.871 0 0 1 .316.735.96.96 0 0 1-.188.6 1.047 1.047 0 0 1-.572.352l.965 1.618h-.3L56.46 46.8zm0-.214h.678a1.082 1.082 0 0 0 .7-.2.716.716 0 0 0 .248-.592.694.694 0 0 0-.243-.59 1.326 1.326 0 0 0-.792-.185h-.588zm5.242 1.762h-.25v-3.322h-1.153v-.233h2.559v.233H60.82zm5.872 0h-.25l-2.1-3.154h-.019q.029.564.029.85v2.3h-.238v-3.551h.248l2.1 3.149h.015q-.022-.437-.022-.831v-2.318h.241zm4.555 0H69.3v-3.555h1.941v.228h-1.688v1.344h1.6v.228h-1.6v1.524h1.694zm2.661-1.548v1.548h-.248v-3.555h.842a1.593 1.593 0 0 1 .977.244.871.871 0 0 1 .316.735.96.96 0 0 1-.188.6 1.047 1.047 0 0 1-.572.352L76 48.346h-.3l-.912-1.546zm0-.214h.678a1.082 1.082 0 0 0 .7-.2.716.716 0 0 0 .248-.592.694.694 0 0 0-.243-.59 1.326 1.326 0 0 0-.792-.185h-.588z" transform="translate(50.979 -27.411)"/>
    <path id="registed" class="cls-2" d="M3636.963 815.384a1.229 1.229 0 0 0-1.227-1.228 1.229 1.229 0 0 0-1.228 1.228 1.227 1.227 0 0 0 1.227 1.228 1.224 1.224 0 0 0 .868-.36 1.267 1.267 0 0 0 .1-.115 1.225 1.225 0 0 0 .258-.753zm-1.775.629v-1.3h.668a.96.96 0 0 1 .284.032.3.3 0 0 1 .158.118.356.356 0 0 1 .06.21.347.347 0 0 1-.173.313.474.474 0 0 1-.14.051.406.406 0 0 1 .1.048.422.422 0 0 1 .064.068.493.493 0 0 1 .056.081l.194.376h-.453l-.214-.4a.3.3 0 0 0-.073-.1.169.169 0 0 0-.1-.03h-.035v.526h-.4zm.4-.771h.169a.622.622 0 0 0 .106-.018.107.107 0 0 0 .065-.041.12.12 0 0 0 .025-.075.119.119 0 0 0-.04-.1.24.24 0 0 0-.15-.034h-.176v.263zm1.707.142a1.555 1.555 0 0 1-.329.958 1.627 1.627 0 0 1-.129.146 1.558 1.558 0 0 1-1.1.457 1.561 1.561 0 0 1-1.561-1.561 1.56 1.56 0 0 1 1.561-1.561 1.56 1.56 0 0 1 1.561 1.561z" transform="translate(-3502.568 -812.568)"/>
</svg>
