<svg xmlns="http://www.w3.org/2000/svg" xmlns:xlink="http://www.w3.org/1999/xlink" viewBox="0 0 3656.97 598.71"><defs><style>.cls-1,.cls-13{fill:#039;}.cls-2{fill:url(#linear-gradient);}.cls-3{fill:url(#linear-gradient-2);}.cls-4{fill:url(#linear-gradient-3);}.cls-5{fill:url(#linear-gradient-4);}.cls-6{fill:url(#linear-gradient-5);}.cls-7{fill:url(#linear-gradient-6);}.cls-8{fill:url(#linear-gradient-7);}.cls-9{fill:url(#linear-gradient-8);}.cls-10{fill:url(#linear-gradient-9);}.cls-11{fill:url(#linear-gradient-10);}.cls-12{fill:url(#linear-gradient-11);}.cls-13{font-size:117.8px;font-family:OpenSans-Light, Open Sans;font-weight:300;letter-spacing:0.48em;}</style><linearGradient id="linear-gradient" x1="668.09" y1="299.35" x2="1089.24" y2="299.35" gradientUnits="userSpaceOnUse"><stop offset="0" stop-color="#6abdbd"/><stop offset="1" stop-color="#117f7c"/></linearGradient><linearGradient id="linear-gradient-2" x1="758.15" y1="426.78" x2="934.63" y2="426.78" gradientUnits="userSpaceOnUse"><stop offset="0" stop-color="#579d9e"/><stop offset="1" stop-color="#00615e"/></linearGradient><linearGradient id="linear-gradient-3" x1="796.65" y1="299.27" x2="1133.62" y2="41.51" xlink:href="#linear-gradient"/><linearGradient id="linear-gradient-4" x1="685.78" y1="-74.52" x2="636.1" y2="557.8" gradientUnits="userSpaceOnUse"><stop offset="0" stop-color="#f07"/><stop offset="1" stop-color="#c60264"/></linearGradient><linearGradient id="linear-gradient-5" x1="3113.55" y1="-780.25" x2="3511.73" y2="-780.25" gradientTransform="translate(3950.39 -326.27) rotate(180)" xlink:href="#linear-gradient-4"/><linearGradient id="linear-gradient-6" x1="524.48" y1="180.92" x2="706.53" y2="180.92" gradientUnits="userSpaceOnUse"><stop offset="0" stop-color="#f07"/><stop offset="1" stop-color="#79003b"/></linearGradient><linearGradient id="linear-gradient-7" x1="4.06" y1="-128.15" x2="177.69" y2="223.59" gradientUnits="userSpaceOnUse"><stop offset="0" stop-color="#a7c62a"/><stop offset="1" stop-color="#6f8200"/></linearGradient><linearGradient id="linear-gradient-8" x1="243.63" y1="340.68" x2="239.01" y2="646.8" gradientUnits="userSpaceOnUse"><stop offset="0" stop-color="#718b32"/><stop offset="1" stop-color="#3c4e1f"/></linearGradient><linearGradient id="linear-gradient-9" x1="115.37" y1="-147.09" x2="186.07" y2="511.63" xlink:href="#linear-gradient-7"/><linearGradient id="linear-gradient-10" x1="388.59" y1="-145.03" x2="451.69" y2="488.64" gradientUnits="userSpaceOnUse"><stop offset="0" stop-color="#fda037"/><stop offset="1" stop-color="#c96400"/></linearGradient><linearGradient id="linear-gradient-11" x1="90.47" y1="-4" x2="1091.99" y2="883.4" xlink:href="#linear-gradient-10"/></defs><g id="Layer_2" data-name="Layer 2"><g id="wrteam_logo" data-name="wrteam logo"><g id="italic"><path class="cls-1" d="M2530.77,56.07l-14,73h-85.59l0,.09H2326.69l0-.09H2197.17c-.14-1.33-.32-2.66-.52-4a94.71,94.71,0,0,0-16.27-40.54c-8.08-11.52-19.84-21.1-35-28.51Z"/><polygon class="cls-1" points="2312.25 155.66 2262.43 415.15 2366.88 415.15 2416.7 155.66 2312.25 155.66"/><polygon class="cls-1" points="1423.79 278.65 1384.22 56.08 1277.1 56.08 1353.59 415.32 1423.79 278.65"/><polygon class="cls-1" points="1653.05 250.48 1611.07 56.08 1537.94 56.08 1353.54 415.08 1353.59 415.32 1440.18 415.32 1545.37 206.27 1586.18 380.64 1653.05 250.48"/><polygon class="cls-1" points="1780.27 56.08 1595.73 415.32 1680.39 415.32 1871.57 56.08 1780.27 56.08"/><path class="cls-1" d="M2063.37,275.39a149.08,149.08,0,0,0,17.31-5.19q27.14-10.23,45.08-26.69A134.52,134.52,0,0,0,2168.11,169a117.39,117.39,0,0,0,1-39.64,83.8,83.8,0,0,0-14.5-36Q2143,76.81,2119.8,66.44t-57.25-10.36h-257l-14,72.66h-3.23l86.87.08h115.94l0,.27h10.8c25.22,0,42.89-1,51.45,5.35s11.19,18,7.91,35.11q-3.28,17.1-11.28,26.17t-22.68,12.43q-14.67,3.38-40.72,3.37h-22.55l10.73-55.86H1870.09l-49.82,259.49H1925l25.86-134.72h19.7l50.66,134.72H2121Z"/><path class="cls-1" d="M2877.4,362.16l0,0q-9.65,5-18.44,5a18.89,18.89,0,0,1-15-6.64q-5.74-6.65-3.33-19.18,3.34-17.47,19.34-27.67c7.23-4.62,17.27-9.66,29.68-15.07l7.76-40.43-5.86,1.88q-9.75,3.08-28.71,9-33.37,10.34-54.24,19.93a110.79,110.79,0,0,0-35.07,24.72q-14.2,15.12-18.64,38.24a66,66,0,0,0,.85,29.64q3.77,14.38,18.24,23.86t40.88,9.47a103.13,103.13,0,0,0,46.57-11.22,65.49,65.49,0,0,0,9.19-5.94Z"/><path class="cls-1" d="M2992.52,358.54c-6.15,0-10.18-5-9-11.13l21.64-112.76q7.1-36.9-15.39-57.93c-14.48-13.55-35.21-20.52-84.71-21l0-.08H2827l-10.89,56.72H2892c12.08.84,19.89,4.06,22.84,10q5.13,10.32,1.65,28.53l-.08,0-7.65,39.85.08,0L2897.42,350l-.09.06-5.67,29.54c-4.6,22.63,11.69,35.34,25.39,35.34,11,0,14.12,0,14.15,0l14.41.06h89.81l10.83-56.44Z"/><path class="cls-1" d="M3496.18,245.46c-1.88-17.16-7-32.68-15.24-46.13a86.8,86.8,0,0,0-35.82-32.44c-15.1-7.57-33.63-11.41-55.08-11.41a154.75,154.75,0,0,0-54,9.56,150.94,150.94,0,0,0-42.47,24.57,88.49,88.49,0,0,0-28.88-22.72c-15.1-7.57-33.63-11.41-55.08-11.41a154.79,154.79,0,0,0-54,9.56,152.2,152.2,0,0,0-48.36,29.37,168.56,168.56,0,0,0-36,45.55,188.87,188.87,0,0,0-20.14,56c-.38,2-.75,4.09-1,5.6l-21.8,113.58h81.81l24.11-125.58c.95-4.86,10.7-47.54,57.77-47.54,45.76,0,41.09,43.49,41,43.93l-24.81,129.19h82.57l22.34-116.37c.7-3.66,1.28-7.06,1.76-10.25,1.79-7.94,12.76-46.5,57.55-46.5,45.76,0,41.09,43.49,41,43.93l-24.8,129.19h82.56l22-114.4C3498.73,272,3497.35,256.43,3496.18,245.46Z"/><path class="cls-1" d="M2472.53,308.31h89.16a.13.13,0,0,1,0-.06H2732l3.44-17.89q9.17-47.71-2.94-77.91T2695.15,169a116.1,116.1,0,0,0-55-13.3q-45.19,0-80.11,16.77t-56.34,46.23c-14.26,19.63-23.63,41.87-28.55,66.73-1.77,8.94-2.49,14.62-2.63,19.57C2472.45,306.12,2472.57,307.17,2472.53,308.31Zm114-82.94a54.31,54.31,0,0,1,37.8-14.79q21.85,0,30.73,14.54t4.19,38.89h-93.47Q2570.35,240.16,2586.52,225.37Z"/><path class="cls-1" d="M2566.23,327.6h-93.38c.41,3.7.78,7.4,1.53,11a88.05,88.05,0,0,0,20.26,40.88c10.17,11.52,23.26,20.36,38.91,26.25,10.5,4,27.45,9.21,53.26,9.21,2,0,4,0,5.85-.09h38.08l12.54-65.28h-38C2603.74,349.6,2577.45,349,2566.23,327.6Z"/></g><path class="cls-2" d="M1089.24,0,940.35,516.29q-3,9.19-5.72,17.43c-13.25,40.37-21.62,63-42.19,65H668.09l90.4-313.48,8.77-30.39h0L840.75,0Z"/><path class="cls-3" d="M934.63,533.72c-13.25,40.37-21.62,63-42.19,65H860.69l-17.48-15.38-84.72-298.1-.34-1.23,9.11-29.16.81,2.65q1.15,3.79,2.32,7.56,1.82,5.93,3.66,11.84,2.41,7.75,4.85,15.51,2.91,9.28,5.87,18.56,3.35,10.52,6.73,21,3.68,11.41,7.42,22.83,3.95,12,8,24,4.13,12.33,8.32,24.63t8.53,24.62q4.23,12,8.57,24,4.15,11.4,8.46,22.73,4,10.47,8.16,20.88,3.74,9.24,7.72,18.39c2.27,5.14,4.61,10.26,7.12,15.29,3,6,6,12.43,10.75,17.22a31.43,31.43,0,0,0,15.69,8.61,28.1,28.1,0,0,0,9.85.19,41.26,41.26,0,0,0,13.22-4.59C921.32,546.47,928.34,540.32,934.63,533.72Z"/><path class="cls-4" d="M963.77,435.09,1089.24,0h-246C851.71,139.59,891.65,309.25,963.77,435.09Z"/><path class="cls-5" d="M891.66,598.71H643.16c-23.91-2.26-32.11-32.3-49.08-86-.44-1.39-23.42-80.61-49.46-170.43-5.14-17.74-10.41-35.89-15.64-53.94C499.49,186.62,471,88.24,470.24,86c-17-53.71-25.17-83.74-49.09-86h247.7c18,1.69,27.07,19.07,37.68,50.4a0,0,0,0,1,0,0c3.51,10.35,7.18,22.22,11.39,35.56,1.48,4.65,123.16,422.07,124.64,426.72C859.54,566.41,867.74,596.45,891.66,598.71Z"/><path class="cls-6" d="M689,496.13C664.83,408,598.85,309.25,535,309.25c29.72,102.48,58.54,201.92,59,203.47,17,53.7,25.18,83.73,49.09,86H755.4C728.35,588.75,701,539.67,689,496.13Z"/><path class="cls-7" d="M706.53,50.41c-.3-.65-.62-1.29-1-1.91-6.5-11.9-19.93-16.94-33-15.77a27.31,27.31,0,0,0-16.6,7.19c-4.37,4.21-7.36,9.62-10.13,15l-.65,1.25c-7.08,13.75-13.27,27.9-19.1,42.23s-11.25,29-16.56,43.6c-10.31,28.39-20,57-29.3,85.72q-12.09,37.15-23.51,74.53Q550.76,321.58,545,341l-.39,1.3-20,19.54c-.95,0,2.12-43.72,4.32-73.48,1.13-15.37,2-27,2-27L584.73,86l40.85-66.42L642.85,0h26C686.82,1.7,695.92,19.08,706.53,50.41Z"/><path class="cls-8" d="M421.15,598.71H196.8c-20.27-1.91-28.69-24-41.63-63.29q-2.94-9-6.28-19.13L0,0H248.49l73,253,2.14,7.44Z"/><path class="cls-9" d="M330,284l-.34,1.23-84.72,298.1-17.48,15.38H196.8c-20.27-1.91-28.69-24-41.63-63.29a83.37,83.37,0,0,0,19.72,15.37,41.26,41.26,0,0,0,13.22,4.59,28.16,28.16,0,0,0,9.86-.19,31.4,31.4,0,0,0,15.68-8.61c4.75-4.79,7.78-11.25,10.75-17.22,2.51-5,4.85-10.15,7.12-15.29q4-9.14,7.72-18.39,4.2-10.4,8.17-20.88,4.32-11.32,8.45-22.73,4.35-12,8.57-24c2.88-8.2,57.22-172.18,57.55-173.25l1.61,5.58Z"/><path class="cls-10" d="M139.8,484.75c12.57-142.41,60.28-281.46,130.71-408.42L248.49,0H0Z"/><path class="cls-11" d="M619,86c-1.47,4.65-122.82,423.53-123.83,426.73-17,53.7-25.17,83.73-49.09,86H197.59c23.91-2.26,32.12-32.29,49.09-86C248.15,508.07,369.84,90.64,371.31,86c17-53.69,25.18-83.73,49.09-86H668.09C644.18,2.26,636,32.3,619,86Z"/><path class="cls-12" d="M315.67,598.71c30.5-57.78,55.14-118.24,83.24-177.36,31.88-67.1,71.06-129.13,116.68-187.71,27.67-35.53,58.07-68.18,89.54-100C613.39,105.21,618.7,86.94,619,86,636,32.3,644.18,2.26,668.09,0H420.4c-23.92,2.26-32.12,32.3-49.09,86-1.47,4.65-123.16,422.08-124.63,426.73-17,53.7-25.18,83.73-49.09,86Z"/><text class="cls-13" transform="translate(1353.54 565.71)">YOUR WORK PARTNER</text><path class="cls-1" d="M3646.34,117.34h0a39.09,39.09,0,0,0-39-39v0h0v0a39.11,39.11,0,0,0-39,39h0v0h0a39,39,0,0,0,39,39v0h0v0a38.92,38.92,0,0,0,27.59-11.45,39.65,39.65,0,0,0,3.24-3.66,38.93,38.93,0,0,0,8.2-23.94Zm-56.44,20V96.11h21.23a30.55,30.55,0,0,1,9,1,9.52,9.52,0,0,1,5,3.75,11.33,11.33,0,0,1,1.91,6.67,11,11,0,0,1-5.49,10,15.24,15.24,0,0,1-4.47,1.61,13,13,0,0,1,3.33,1.53,13.53,13.53,0,0,1,2,2.16,17,17,0,0,1,1.79,2.56l6.16,11.95h-14.4l-6.8-12.6a9.8,9.8,0,0,0-2.32-3.18,5.35,5.35,0,0,0-3.12-1h-1.12v16.72H3589.9Zm12.8-24.52h5.37a18.83,18.83,0,0,0,3.38-.56,3.37,3.37,0,0,0,2.06-1.29,4.15,4.15,0,0,0-.46-5.45c-.85-.72-2.43-1.07-4.76-1.07h-5.59v8.37Zm54.25,4.53h0A49.66,49.66,0,0,1,3607.31,167v0h0v0a49.64,49.64,0,0,1-49.62-49.64h0v0h0a49.61,49.61,0,0,1,49.64-49.63v0h0v0A49.61,49.61,0,0,1,3657,117.33Z"/></g></g></svg>