<svg xmlns="http://www.w3.org/2000/svg" viewBox="0 0 2250.74 2108.7"><defs><style>.cls-1{fill:#222e3e;}</style></defs><g id="Layer_2" data-name="Layer 2"><g id="Layer_1-2" data-name="Layer 1"><g id="logo_color"><path class="cls-1" d="M626.86,162.94a50,50,0,1,0-68-19.38A50,50,0,0,0,626.86,162.94Z"/><circle class="cls-1" cx="740.77" cy="367.68" r="71.08" transform="translate(-81.67 454.39) rotate(-32.42)"/><path class="cls-1" d="M1623.87,1954.93a50,50,0,1,0,68,19.39A50,50,0,0,0,1623.87,1954.93Z"/><path class="cls-1" d="M1475.41,1688.09a71.08,71.08,0,1,0,96.66,27.56A71.09,71.09,0,0,0,1475.41,1688.09Z"/><path class="cls-1" d="M598.17,1938.36A50,50,0,1,0,615.35,2007,50,50,0,0,0,598.17,1938.36Z"/><path class="cls-1" d="M755.18,1676.45A71.08,71.08,0,1,0,779.6,1774,71.08,71.08,0,0,0,755.18,1676.45Z"/><path class="cls-1" d="M1652.56,179.52a50,50,0,1,0-17.18-68.61A50,50,0,0,0,1652.56,179.52Z"/><path class="cls-1" d="M1495.56,441.43a71.08,71.08,0,1,0-24.42-97.51A71.07,71.07,0,0,0,1495.56,441.43Z"/><path class="cls-1" d="M50,1008.92a50,50,0,1,0,50,50A50,50,0,0,0,50,1008.92Z"/><circle class="cls-1" cx="334.32" cy="1058.94" r="71.08" transform="translate(-650.86 546.56) rotate(-45)"/><path class="cls-1" d="M2200.72,1008.92a50,50,0,1,0,50,50A50,50,0,0,0,2200.72,1008.92Z"/><circle class="cls-1" cx="1916.42" cy="1058.94" r="71.08" transform="translate(-144.88 320.65) rotate(-9.22)"/><circle class="cls-1" cx="303.26" cy="503.36" r="65.86" transform="translate(-258.22 676.79) rotate(-76.1)"/><path class="cls-1" d="M591.2,788.78a88.29,88.29,0,1,0-82.12-94.06A88.3,88.3,0,0,0,591.2,788.78Z"/><path class="cls-1" d="M1915.61,1546.21a65.86,65.86,0,1,0,88.13,30.13A65.86,65.86,0,0,0,1915.61,1546.21Z"/><path class="cls-1" d="M1611.83,1328.74a88.29,88.29,0,1,0,118.15,40.4A88.3,88.3,0,0,0,1611.83,1328.74Z"/><path class="cls-1" d="M305,1499.35a65.86,65.86,0,1,0,25,89.73A65.85,65.85,0,0,0,305,1499.35Z"/><circle class="cls-1" cx="577.5" cy="1376.79" r="88.29" transform="translate(-154.77 75.7) rotate(-6.62)"/><path class="cls-1" d="M1974.63,486.16a65.86,65.86,0,1,0,66.49,65.23A65.85,65.85,0,0,0,1974.63,486.16Z"/><path class="cls-1" d="M1669.54,643.63a88.29,88.29,0,1,0,89.12,87.45A88.29,88.29,0,0,0,1669.54,643.63Z"/><path class="cls-1" d="M1091,1985.8a65.86,65.86,0,1,0,90,24.1A65.85,65.85,0,0,0,1091,1985.8Z"/><path class="cls-1" d="M1079.79,1612.37a88.29,88.29,0,1,0,120.61,32.31A88.28,88.28,0,0,0,1079.79,1612.37Z"/><path class="cls-1" d="M1091,122.91a65.86,65.86,0,1,0-24.11-90A65.86,65.86,0,0,0,1091,122.91Z"/><circle class="cls-1" cx="1123.94" cy="419.87" r="88.29" transform="translate(152.34 1123.82) rotate(-56.41)"/><circle class="cls-1" cx="1298.64" cy="752.94" r="151.37" transform="translate(-82.22 164.19) rotate(-7.01)"/><path class="cls-1" d="M1430,1289.71a151.37,151.37,0,1,0-56.13,206.58A151.37,151.37,0,0,0,1430,1289.71Z"/><circle class="cls-1" cx="1491.54" cy="1071.68" r="151.36" transform="translate(-152.4 252.76) rotate(-9.22)"/><circle class="cls-1" cx="949.24" cy="752.94" r="151.37" transform="translate(-254.38 891.74) rotate(-45)"/><path class="cls-1" d="M1080.58,1440.17A151.36,151.36,0,1,0,874,1496.29,151.37,151.37,0,0,0,1080.58,1440.17Z"/><circle class="cls-1" cx="756.33" cy="1071.68" r="151.36" transform="translate(-161.9 134.99) rotate(-9.22)"/></g></g></g></svg>