<svg id="home_logo" xmlns="http://www.w3.org/2000/svg" xmlns:xlink="http://www.w3.org/1999/xlink" width="127" height="40" viewBox="0 0 127 40">
  <defs>
    <clipPath id="clip-path">
      <rect id="Rectangle_5" data-name="Rectangle 5" width="40" height="40" fill="none"/>
    </clipPath>
  </defs>
  <g id="vector">
    <g id="Group_331" data-name="Group 331" clip-path="url(#clip-path)">
      <path id="Path_4" data-name="Path 4" d="M399.159,11.668H393.5a.871.871,0,0,1-.87-.87V5.143A5.142,5.142,0,0,0,387.493.008H385.8a.877.877,0,1,0-.111,1.747.888.888,0,0,0,.111-.008h1.689a3.4,3.4,0,0,1,3.4,3.4V10.8a2.613,2.613,0,0,0,2.611,2.609h5.658a3.4,3.4,0,0,1,3.4,3.4v6.39a3.4,3.4,0,0,1-3.4,3.4h-3.573a3.1,3.1,0,0,1-2.205-.913l-.227-.227,1.526-.684a1.748,1.748,0,0,0-.292-3.292l-9.371-2.338a1.306,1.306,0,0,0-1.584,1.583l2.339,9.366a1.75,1.75,0,0,0,3.293.292l.684-1.525.242.242a3.1,3.1,0,0,1,.9,2.135v3.626a3.4,3.4,0,0,1-3.4,3.4h-1.709a.889.889,0,0,0-.09,0,.877.877,0,1,0,.132,1.744h1.668a5.142,5.142,0,0,0,5.137-5.135V31.207a4.836,4.836,0,0,0-1.4-3.34l-2.03-2.03-1.717,3.827,0,.006h-.013l0-.006L385.3,21l8.67,2.164.006,0a.051.051,0,0,1,0,.013l-.006,0L390.138,24.9l2.012,2.011a4.828,4.828,0,0,0,3.436,1.422h3.573a5.142,5.142,0,0,0,5.137-5.135V16.8a5.142,5.142,0,0,0-5.137-5.135" transform="translate(-364.296)" fill="#4f66ff"/>
      <path id="Path_5" data-name="Path 5" d="M384.466,259.722a.87.87,0,0,0-.87.87v1.851a.87.87,0,0,0,1.74,0v-1.851a.87.87,0,0,0-.87-.87" transform="translate(-364.489 -246.791)" fill="#0b1768"/>
      <path id="Path_6" data-name="Path 6" d="M297.613,298.994a.87.87,0,0,0,1.225-1.235l-1.315-1.3a.87.87,0,0,0-1.225,1.235Z" transform="translate(-281.295 -281.457)" fill="#0b1768"/>
      <path id="Path_7" data-name="Path 7" d="M263.888,384.7a.87.87,0,0,0-.878-.861l-1.852.017a.87.87,0,0,0,.008,1.739h.008l1.852-.017a.87.87,0,0,0,.862-.878" transform="translate(-247.331 -364.725)" fill="#0b1768"/>
      <path id="Path_8" data-name="Path 8" d="M298.326,444.44l-1.3,1.314a.87.87,0,0,0,1.236,1.225l1.3-1.314a.87.87,0,0,0-1.236-1.225" transform="translate(-281.988 -422.068)" fill="#0b1768"/>
      <path id="Path_9" data-name="Path 9" d="M446.052,299.859a.867.867,0,0,0,.608-.248l1.324-1.294a.87.87,0,1,0-1.216-1.244l-1.324,1.294a.87.87,0,0,0,.608,1.491" transform="translate(-423.008 -282.048)" fill="#0b1768"/>
      <path id="Path_10" data-name="Path 10" d="M19.481,39.123a.878.878,0,0,0-.878-.877.9.9,0,0,0-.09,0H16.8a3.4,3.4,0,0,1-3.4-3.4V29.2a2.593,2.593,0,0,0-.378-1.352q-.066-.108-.141-.208A2.605,2.605,0,0,0,10.8,26.589H5.137a3.409,3.409,0,0,1-.517-.039,3.358,3.358,0,0,1-.331-.068q-.081-.021-.161-.046-.159-.05-.312-.114A3.406,3.406,0,0,1,1.74,23.194V16.8a3.406,3.406,0,0,1,2.076-3.128q.152-.065.312-.114.08-.025.161-.046a3.372,3.372,0,0,1,.331-.068,3.408,3.408,0,0,1,.517-.039H10.8a2.635,2.635,0,0,0,.267-.013,2.6,2.6,0,0,0,1.579-.752,2.621,2.621,0,0,0,.246-.284q.075-.1.141-.208a2.593,2.593,0,0,0,.378-1.352V5.143a3.4,3.4,0,0,1,3.4-3.4h1.689A.877.877,0,1,0,18.6,0a.888.888,0,0,0-.111.008H16.8a5.114,5.114,0,0,0-3.266,1.174q-.1.079-.186.162a5.122,5.122,0,0,0-1.685,3.8V10.8a.87.87,0,0,1-.87.87H5.137q-.133,0-.264.007A5.144,5.144,0,0,0,.621,14.358q-.059.109-.114.221-.108.224-.2.46t-.15.482a5.077,5.077,0,0,0-.1.5A5.151,5.151,0,0,0,0,16.8v6.39a5.151,5.151,0,0,0,.059.781,5.073,5.073,0,0,0,.1.5q.063.246.15.482t.2.46q.054.112.114.221a5.144,5.144,0,0,0,4.252,2.683q.131.007.264.007H10.8a.87.87,0,0,1,.87.87v5.656a5.122,5.122,0,0,0,1.685,3.8q.091.083.186.162A5.114,5.114,0,0,0,16.8,39.989h1.668a.872.872,0,0,0,1.009-.866" fill="#0b1768"/>
    </g>
  </g>
  <text id="Dr._Live" data-name="Dr. Live" transform="translate(56 27)" fill="#0b1768" font-size="20" font-family="Poppins-SemiBold, Poppins" font-weight="600"><tspan x="0" y="0">Dr. </tspan><tspan y="0" fill="#4f66ff">Live</tspan></text>
</svg>
