<svg id="logo" xmlns="http://www.w3.org/2000/svg" xmlns:xlink="http://www.w3.org/1999/xlink" width="154.167" height="224" viewBox="0 0 154.167 224">
  <defs>
    <clipPath id="clip-path">
      <rect id="Rectangle_5" data-name="Rectangle 5" width="154.167" height="154.239" fill="none"/>
    </clipPath>
  </defs>
  <g id="vector">
    <g id="Group_331" data-name="Group 331" clip-path="url(#clip-path)">
      <path id="Path_4" data-name="Path 4" d="M444.158,44.993H422.351A3.359,3.359,0,0,1,419,41.637V19.83A19.822,19.822,0,0,0,399.2.03h-6.508a3.382,3.382,0,1,0-.428,6.736,3.419,3.419,0,0,0,.428-.03H399.2A13.109,13.109,0,0,1,412.289,19.83V41.637A10.073,10.073,0,0,0,422.351,51.7h21.808a13.109,13.109,0,0,1,13.094,13.094V89.433a13.109,13.109,0,0,1-13.094,13.094H430.387a11.942,11.942,0,0,1-8.5-3.52l-.875-.875,5.88-2.638A6.742,6.742,0,0,0,425.767,82.8l-36.116-9.017a5.035,5.035,0,0,0-6.1,6.1L392.563,116a6.742,6.742,0,0,0,12.694,1.126l2.638-5.88.931.931a11.965,11.965,0,0,1,3.464,8.233V134.4A13.109,13.109,0,0,1,399.2,147.49h-6.588a3.424,3.424,0,0,0-.348-.018,3.383,3.383,0,1,0,.508,6.724H399.2A19.822,19.822,0,0,0,419,134.4V120.334a18.653,18.653,0,0,0-5.413-12.88l-7.826-7.826-6.619,14.758-.01.021a.188.188,0,0,1-.051,0c0-.006,0-.014-.007-.023l-8.343-33.415,33.415,8.343.023.007a.2.2,0,0,1,0,.05l-.022.011-14.757,6.619,7.754,7.754a18.6,18.6,0,0,0,13.242,5.485h13.771a19.823,19.823,0,0,0,19.8-19.8V64.793a19.823,19.823,0,0,0-19.8-19.8" transform="translate(-309.792)" fill="#4f66ff"/>
      <path id="Path_5" data-name="Path 5" d="M386.949,259.722a3.353,3.353,0,0,0-3.353,3.353v7.137a3.353,3.353,0,0,0,6.706,0v-7.137a3.353,3.353,0,0,0-3.353-3.353" transform="translate(-309.956 -209.862)" fill="#0b1768"/>
      <path id="Path_6" data-name="Path 6" d="M302.1,306.963a3.353,3.353,0,1,0,4.722-4.762l-5.068-5.025a3.353,3.353,0,0,0-4.722,4.762Z" transform="translate(-239.209 -239.341)" fill="#0b1768"/>
      <path id="Path_7" data-name="Path 7" d="M274.139,387.156a3.353,3.353,0,0,0-3.384-3.321l-7.136.067a3.353,3.353,0,0,0,.031,6.706h.032l7.137-.067a3.353,3.353,0,0,0,3.322-3.384" transform="translate(-210.326 -310.148)" fill="#0b1768"/>
      <path id="Path_8" data-name="Path 8" d="M302.768,445.174l-5.025,5.067a3.353,3.353,0,1,0,4.762,4.722l5.025-5.067a3.353,3.353,0,0,0-4.762-4.722" transform="translate(-239.798 -358.911)" fill="#0b1768"/>
      <path id="Path_9" data-name="Path 9" d="M448.535,308.522a3.342,3.342,0,0,0,2.344-.955l5.1-4.989a3.353,3.353,0,1,0-4.688-4.8l-5.1,4.989a3.353,3.353,0,0,0,2.344,5.751" transform="translate(-359.719 -239.844)" fill="#0b1768"/>
      <path id="Path_10" data-name="Path 10" d="M75.082,150.855a3.383,3.383,0,0,0-3.383-3.383,3.47,3.47,0,0,0-.348.018H64.763A13.109,13.109,0,0,1,51.669,134.4V112.589a10,10,0,0,0-1.459-5.213q-.253-.415-.543-.8a10.11,10.11,0,0,0-5.548-3.728,10.06,10.06,0,0,0-2.512-.317H19.8a13.131,13.131,0,0,1-1.991-.151,12.938,12.938,0,0,1-1.277-.262q-.314-.081-.621-.177-.615-.191-1.2-.441a13.13,13.13,0,0,1-8-12.063V64.793a13.13,13.13,0,0,1,8-12.063q.587-.249,1.2-.441.308-.1.621-.177a12.991,12.991,0,0,1,1.277-.262A13.13,13.13,0,0,1,19.8,51.7H41.608a10.15,10.15,0,0,0,1.027-.052,10.018,10.018,0,0,0,6.084-2.9,10.1,10.1,0,0,0,.949-1.1q.29-.388.543-.8a10,10,0,0,0,1.459-5.213V19.83A13.109,13.109,0,0,1,64.763,6.736h6.508A3.382,3.382,0,1,0,71.7,0a3.423,3.423,0,0,0-.428.03H64.763A19.706,19.706,0,0,0,52.176,4.557q-.367.3-.719.623a19.754,19.754,0,0,0-6.494,14.65V41.637a3.355,3.355,0,0,1-3.355,3.355H19.8q-.512,0-1.017.026A19.826,19.826,0,0,0,2.393,55.363q-.229.421-.438.854-.418.865-.752,1.776T.624,59.85a19.583,19.583,0,0,0-.4,1.931A19.872,19.872,0,0,0,0,64.793V89.433a19.869,19.869,0,0,0,.229,3.011,19.571,19.571,0,0,0,.4,1.931q.244.948.579,1.858t.752,1.776q.209.433.438.854a19.826,19.826,0,0,0,16.39,10.344q.505.026,1.017.026H41.608a3.355,3.355,0,0,1,3.355,3.355V134.4a19.754,19.754,0,0,0,6.494,14.65q.352.32.719.623A19.706,19.706,0,0,0,64.763,154.2h6.429a3.36,3.36,0,0,0,3.891-3.341" fill="#0b1768"/>
    </g>
  </g>
  <text id="text" transform="translate(28 214)" fill="#0b1768" font-size="28" font-family="Poppins-SemiBold, Poppins" font-weight="600"><tspan x="0" y="0">Dr. </tspan><tspan y="0" fill="#4f66ff">Live</tspan></text>
</svg>
