<svg width="13" height="13" viewBox="0 0 13 13" fill="none" xmlns="http://www.w3.org/2000/svg">
<path d="M6.05625 0C6.25703 0 6.44958 0.0797584 6.59155 0.221729C6.73352 0.3637 6.81328 0.556254 6.81328 0.757031V5.29922H11.3555C11.5562 5.29922 11.7488 5.37898 11.8908 5.52095C12.0327 5.66292 12.1125 5.85547 12.1125 6.05625C12.1125 6.25703 12.0327 6.44958 11.8908 6.59155C11.7488 6.73352 11.5562 6.81328 11.3555 6.81328H6.81328V11.3555C6.81328 11.5562 6.73352 11.7488 6.59155 11.8908C6.44958 12.0327 6.25703 12.1125 6.05625 12.1125C5.85547 12.1125 5.66292 12.0327 5.52095 11.8908C5.37898 11.7488 5.29922 11.5562 5.29922 11.3555V6.81328H0.757031C0.556254 6.81328 0.3637 6.73352 0.221729 6.59155C0.0797584 6.44958 0 6.25703 0 6.05625C0 5.85547 0.0797584 5.66292 0.221729 5.52095C0.3637 5.37898 0.556254 5.29922 0.757031 5.29922H5.29922V0.757031C5.29922 0.556254 5.37898 0.3637 5.52095 0.221729C5.66292 0.0797584 5.85547 0 6.05625 0V0Z" fill="white"/>
</svg>
