<svg width="22" height="18" viewBox="0 0 22 18" fill="none" xmlns="http://www.w3.org/2000/svg">
<path d="M19.3846 2.76923H16.022L15.2209 0.524176C15.1655 0.370553 15.0641 0.237763 14.9305 0.143945C14.7968 0.0501265 14.6375 -0.000144054 14.4742 3.10062e-07H6.88846C6.55467 3.10062e-07 6.25549 0.210165 6.14423 0.524176L5.34066 2.76923H1.97802C0.885165 2.76923 0 3.6544 0 4.74725V16.022C0 17.1148 0.885165 18 1.97802 18H19.3846C20.4775 18 21.3626 17.1148 21.3626 16.022V4.74725C21.3626 3.6544 20.4775 2.76923 19.3846 2.76923ZM10.6813 14.044C8.4956 14.044 6.72527 12.2736 6.72527 10.0879C6.72527 7.9022 8.4956 6.13187 10.6813 6.13187C12.867 6.13187 14.6374 7.9022 14.6374 10.0879C14.6374 12.2736 12.867 14.044 10.6813 14.044ZM8.30769 10.0879C8.30769 10.7174 8.55777 11.3212 9.00291 11.7663C9.44805 12.2115 10.0518 12.4615 10.6813 12.4615C11.3108 12.4615 11.9146 12.2115 12.3597 11.7663C12.8049 11.3212 13.0549 10.7174 13.0549 10.0879C13.0549 9.45839 12.8049 8.85465 12.3597 8.4095C11.9146 7.96436 11.3108 7.71429 10.6813 7.71429C10.0518 7.71429 9.44805 7.96436 9.00291 8.4095C8.55777 8.85465 8.30769 9.45839 8.30769 10.0879Z" fill="#66193E"/>
</svg>
