<svg width="94" height="18" viewBox="0 0 94 18" fill="none" xmlns="http://www.w3.org/2000/svg">
<path d="M0.3 10.9C0.1 10.9 0 10.8 0 10.6V6.89998C0 6.69998 0.1 6.59998 0.3 6.59998C0.5 6.59998 0.6 6.69998 0.6 6.89998V10.6C0.6 10.8 0.5 10.9 0.3 10.9Z" fill="#66193E"/>
<path d="M3.3 12.4C3.1 12.4 3 12.3 3 12.1V5.39998C3 5.19998 3.1 5.09998 3.3 5.09998C3.5 5.09998 3.6 5.19998 3.6 5.39998V12.1C3.6 12.3 3.5 12.4 3.3 12.4Z" fill="#66193E"/>
<path d="M6.3 16.1C6.2 16.1 6 16 6 15.8V1.70002C6 1.50002 6.1 1.40002 6.3 1.40002C6.5 1.40002 6.6 1.50002 6.6 1.70002V15.8C6.6 16 6.5 16.1 6.3 16.1Z" fill="#66193E"/>
<path d="M9.3 13.4C9.1 13.4 9 13.3 9 13.1V4.39998C9 4.19998 9.1 4.09998 9.3 4.09998C9.5 4.09998 9.6 4.19998 9.6 4.39998V13.2C9.6 13.3 9.5 13.4 9.3 13.4Z" fill="#66193E"/>
<path d="M12.3 12.4C12.1 12.4 12 12.3 12 12.1V5.39998C12 5.19998 12.1 5.09998 12.3 5.09998C12.5 5.09998 12.6 5.19998 12.6 5.39998V12.1C12.6 12.3 12.5 12.4 12.3 12.4Z" fill="#66193E"/>
<path d="M15.3 17.2001C15.1 17.2001 15 17.1 15 16.9V0.600049C15 0.400049 15.1 0.300049 15.3 0.300049C15.5 0.300049 15.6 0.400049 15.6 0.600049V16.9C15.6 17.1 15.5 17.2001 15.3 17.2001Z" fill="#66193E"/>
<path d="M18.4001 12.8C18.2001 12.8 18.1001 12.7 18.1001 12.5V4.99995C18.1001 4.79995 18.2001 4.69995 18.4001 4.69995C18.6001 4.69995 18.7001 4.79995 18.7001 4.99995V12.5C18.7001 12.7 18.5001 12.8 18.4001 12.8Z" fill="#66193E"/>
<path d="M21.4001 15.3C21.2001 15.3 21.1001 15.2 21.1001 15V2.49995C21.1001 2.29995 21.2001 2.19995 21.4001 2.19995C21.6001 2.19995 21.7001 2.29995 21.7001 2.49995V15C21.7001 15.2 21.5001 15.3 21.4001 15.3Z" fill="#66193E"/>
<path d="M24.4001 12.4C24.2001 12.4 24.1001 12.3 24.1001 12.1V5.39998C24.1001 5.19998 24.2001 5.09998 24.4001 5.09998C24.6001 5.09998 24.7001 5.19998 24.7001 5.39998V12.1C24.7001 12.3 24.5001 12.4 24.4001 12.4Z" fill="#66193E"/>
<path d="M27.4001 10.9C27.2001 10.9 27.1001 10.8 27.1001 10.6V6.89998C27.1001 6.69998 27.2001 6.59998 27.4001 6.59998C27.6001 6.59998 27.7001 6.69998 27.7001 6.89998V10.6C27.7001 10.8 27.6001 10.9 27.4001 10.9Z" fill="#66193E"/>
<path d="M30.4001 14.8C30.2001 14.8 30.1001 14.7 30.1001 14.5V2.99995C30.1001 2.79995 30.2001 2.69995 30.4001 2.69995C30.6001 2.69995 30.7001 2.79995 30.7001 2.99995V14.5C30.7001 14.7 30.6001 14.8 30.4001 14.8Z" fill="#66193E"/>
<path d="M33.4001 17C33.2001 17 33.1001 16.9 33.1001 16.7V0.8C33.1001 0.6 33.2001 0.5 33.4001 0.5C33.6001 0.5 33.7001 0.6 33.7001 0.8V16.7C33.7001 16.9 33.6001 17 33.4001 17Z" fill="#66193E"/>
<path d="M36.4001 12.4C36.2001 12.4 36.1001 12.3 36.1001 12.1V5.39998C36.1001 5.19998 36.2001 5.09998 36.4001 5.09998C36.6001 5.09998 36.7001 5.19998 36.7001 5.39998V12.1C36.7001 12.3 36.6001 12.4 36.4001 12.4Z" fill="#66193E"/>
<path d="M39.4001 14.8C39.2001 14.8 39.1001 14.7 39.1001 14.5V2.99995C39.1001 2.79995 39.2001 2.69995 39.4001 2.69995C39.6001 2.69995 39.7001 2.79995 39.7001 2.99995V14.5C39.7001 14.7 39.6001 14.8 39.4001 14.8Z" fill="#66193E"/>
<path d="M42.4001 12.4C42.2001 12.4 42.1001 12.3 42.1001 12.1V5.39998C42.1001 5.19998 42.2001 5.09998 42.4001 5.09998C42.6001 5.09998 42.7001 5.19998 42.7001 5.39998V12.1C42.7001 12.3 42.6001 12.4 42.4001 12.4Z" fill="#66193E"/>
<path d="M45.4001 16.2C45.2001 16.2 45.1001 16.1 45.1001 15.9V1.60005C45.1001 1.40005 45.2001 1.30005 45.4001 1.30005C45.6001 1.30005 45.7001 1.40005 45.7001 1.60005V16C45.7001 16.1 45.6001 16.2 45.4001 16.2Z" fill="#66193E"/>
<path d="M48.5002 13.8C48.3002 13.8 48.2002 13.7 48.2002 13.5V3.99995C48.2002 3.79995 48.3002 3.69995 48.5002 3.69995C48.7002 3.69995 48.8002 3.79995 48.8002 3.99995V13.4C48.8002 13.6 48.6002 13.8 48.5002 13.8Z" fill="#66193E"/>
<path d="M51.5002 15.9C51.3002 15.9 51.2002 15.8 51.2002 15.6V1.89998C51.2002 1.69998 51.3002 1.59998 51.5002 1.59998C51.7002 1.59998 51.8002 1.69998 51.8002 1.89998V15.6C51.8002 15.8 51.6002 15.9 51.5002 15.9Z" fill="#66193E"/>
<path d="M54.5002 13.8C54.3002 13.8 54.2002 13.7 54.2002 13.5V3.99995C54.2002 3.79995 54.3002 3.69995 54.5002 3.69995C54.7002 3.69995 54.8002 3.79995 54.8002 3.99995V13.4C54.8002 13.6 54.6002 13.8 54.5002 13.8Z" fill="#66193E"/>
<path d="M57.5002 12C57.3002 12 57.2002 11.9 57.2002 11.7V5.70002C57.2002 5.50002 57.3002 5.40002 57.5002 5.40002C57.7002 5.40002 57.8002 5.50002 57.8002 5.70002V11.7C57.8002 11.9 57.7002 12 57.5002 12Z" fill="#66193E"/>
<path d="M60.5002 16.2C60.3002 16.2 60.2002 16.1 60.2002 15.9V1.60005C60.2002 1.40005 60.3002 1.30005 60.5002 1.30005C60.7002 1.30005 60.8002 1.40005 60.8002 1.60005V16C60.8002 16.1 60.7002 16.2 60.5002 16.2Z" fill="#66193E"/>
<path d="M63.5002 12C63.3002 12 63.2002 11.9 63.2002 11.7V5.70002C63.2002 5.50002 63.3002 5.40002 63.5002 5.40002C63.7002 5.40002 63.8002 5.50002 63.8002 5.70002V11.7C63.8002 11.9 63.7002 12 63.5002 12Z" fill="#66193E"/>
<path d="M66.5002 16.2C66.3002 16.2 66.2002 16.1 66.2002 15.9V1.60005C66.2002 1.40005 66.3002 1.30005 66.5002 1.30005C66.7002 1.30005 66.8002 1.40005 66.8002 1.60005V16C66.8002 16.1 66.7002 16.2 66.5002 16.2Z" fill="#66193E"/>
<path d="M69.5002 13.9C69.3002 13.9 69.2002 13.8 69.2002 13.6V3.89998C69.2002 3.69998 69.3002 3.59998 69.5002 3.59998C69.7002 3.59998 69.8002 3.69998 69.8002 3.89998V13.6C69.8002 13.8 69.7002 13.9 69.5002 13.9Z" fill="#BAB5B5"/>
<path d="M72.5002 14.8C72.3002 14.8 72.2002 14.7 72.2002 14.5V2.99995C72.2002 2.79995 72.3002 2.69995 72.5002 2.69995C72.7002 2.69995 72.8002 2.79995 72.8002 2.99995V14.5C72.8002 14.7 72.7002 14.8 72.5002 14.8Z" fill="#BAB5B5"/>
<path d="M75.5002 13C75.3002 13 75.2002 12.9 75.2002 12.7V4.8C75.2002 4.6 75.3002 4.5 75.5002 4.5C75.7002 4.5 75.8002 4.6 75.8002 4.8V12.7C75.8002 12.9 75.7002 13 75.5002 13Z" fill="#BAB5B5"/>
<path d="M78.5998 17.5C78.3998 17.5 78.2998 17.4 78.2998 17.2V0.3C78.2998 0.1 78.3998 0 78.5998 0C78.7998 0 78.8998 0.1 78.8998 0.3V17.2C78.8998 17.4 78.6998 17.5 78.5998 17.5Z" fill="#BAB5B5"/>
<path d="M81.5998 14.8C81.3998 14.8 81.2998 14.7 81.2998 14.5V2.99995C81.2998 2.79995 81.3998 2.69995 81.5998 2.69995C81.7998 2.69995 81.8998 2.79995 81.8998 2.99995V14.5C81.8998 14.7 81.6998 14.8 81.5998 14.8Z" fill="#BAB5B5"/>
<path d="M84.5998 13C84.3998 13 84.2998 12.9 84.2998 12.7V4.8C84.2998 4.6 84.3998 4.5 84.5998 4.5C84.7998 4.5 84.8998 4.6 84.8998 4.8V12.7C84.8998 12.9 84.6998 13 84.5998 13Z" fill="#BAB5B5"/>
<path d="M87.5998 16.7999C87.3998 16.7999 87.2998 16.7 87.2998 16.5V0.999951C87.2998 0.799951 87.3998 0.699951 87.5998 0.699951C87.7998 0.699951 87.8998 0.799951 87.8998 0.999951V16.5C87.8998 16.7 87.7998 16.7999 87.5998 16.7999Z" fill="#BAB5B5"/>
<path d="M90.5998 13.8C90.3998 13.8 90.2998 13.7 90.2998 13.5V3.99995C90.2998 3.79995 90.3998 3.69995 90.5998 3.69995C90.7998 3.69995 90.8998 3.79995 90.8998 3.99995V13.4C90.8998 13.6 90.7998 13.8 90.5998 13.8Z" fill="#BAB5B5"/>
<path d="M93.5998 11C93.3998 11 93.2998 10.9 93.2998 10.7V6.8C93.2998 6.6 93.3998 6.5 93.5998 6.5C93.7998 6.5 93.8998 6.6 93.8998 6.8V10.7C93.8998 10.9 93.7998 11 93.5998 11Z" fill="#BAB5B5"/>
</svg>
