<svg width="50" height="50" viewBox="0 0 50 50" fill="none" xmlns="http://www.w3.org/2000/svg">
<path d="M0 45H50V50H0V45ZM5 25H10V42.5H5V25ZM17.5 25H22.5V42.5H17.5V25ZM27.5 25H32.5V42.5H27.5V25ZM40 25H45V42.5H40V25ZM0 12.5L25 0L50 12.5V22.5H0V12.5ZM25 15C25.663 15 26.2989 14.7366 26.7678 14.2678C27.2366 13.7989 27.5 13.163 27.5 12.5C27.5 11.837 27.2366 11.2011 26.7678 10.7322C26.2989 10.2634 25.663 10 25 10C24.337 10 23.7011 10.2634 23.2322 10.7322C22.7634 11.2011 22.5 11.837 22.5 12.5C22.5 13.163 22.7634 13.7989 23.2322 14.2678C23.7011 14.7366 24.337 15 25 15V15Z" fill="#66193E"/>
</svg>
