<svg width="18" height="24" viewBox="0 0 18 24" fill="none" xmlns="http://www.w3.org/2000/svg">
<path d="M8.66057 24C7.96048 24 7.2609 23.7986 6.65282 23.3964C4.91273 22.2453 3.66667 20.9943 2.84343 19.5721C2.04105 18.1858 1.61485 16.6028 1.54627 14.7469C-0.498092 12.0716 -0.519515 8.3426 1.50722 5.63733C2.07391 4.88098 2.76472 4.24656 3.56059 3.75169L5.55943 2.50877C5.86488 1.07717 7.13949 0 8.6609 0C9.4614 0 10.226 0.299304 10.8137 0.842787L13.9543 3.74663C14.0968 3.87844 14.1055 4.10087 13.9737 4.24347C13.8418 4.38602 13.6194 4.39474 13.4769 4.26292L10.3364 1.35908C9.87893 0.936071 9.28388 0.703143 8.6609 0.703143C7.30013 0.703143 6.19306 1.81022 6.19306 3.17103C6.19306 3.6255 6.31747 4.06951 6.55293 4.45507C6.65408 4.62077 6.60177 4.83715 6.43606 4.93836C6.27031 5.03952 6.05398 4.98721 5.95282 4.8215C5.68553 4.38377 5.52948 3.88782 5.49653 3.37598L3.93194 4.34885C3.21056 4.7974 2.58411 5.37276 2.07002 6.05898C2.06908 6.06015 2.06819 6.06137 2.0673 6.06259C2.06674 6.06334 2.06603 6.06428 2.06547 6.06503C2.06514 6.0655 2.06491 6.06578 2.06458 6.0662C0.444681 8.23437 0.273677 11.1307 1.53821 13.4475C1.5654 12.154 1.92719 10.6546 4.03127 9.18694C4.65069 8.75488 6.62901 7.44731 8.01926 6.53435C7.67584 6.31141 7.31452 6.07722 6.9345 5.83135C6.77146 5.72588 6.72482 5.50823 6.83029 5.3452C6.93572 5.18212 7.15346 5.13547 7.31645 5.24099C10.3413 7.19798 12.1837 8.41493 13.2905 9.18694C15.3947 10.6546 15.7565 12.1539 15.7836 13.4474C17.0494 11.128 16.8766 8.22771 15.2518 6.05894C15.0013 5.72457 14.7301 5.42165 14.4457 5.15868C14.3031 5.02686 14.2944 4.80443 14.4262 4.66184C14.558 4.51924 14.7804 4.51052 14.923 4.64238C15.2386 4.93424 15.5386 5.26893 15.8146 5.63728C17.8392 8.33965 17.8189 12.0726 15.7754 14.747C15.6872 17.097 15.018 19.0419 13.7371 20.6783C13.6175 20.8312 13.3965 20.8582 13.2436 20.7384C13.0907 20.6188 13.0638 20.3978 13.1835 20.2449C14.4789 18.5898 15.0823 16.6703 15.0823 14.204V13.6202C15.0823 12.412 14.8165 11.1085 12.8884 9.76361C12.0166 9.15553 10.682 8.26737 8.6631 6.95286C7.02084 8.02994 5.01426 9.35864 4.43356 9.76361C2.5054 11.1085 2.23962 12.412 2.23962 13.6202V14.204C2.23962 16.1695 2.63624 17.8102 3.45212 19.2198C4.21962 20.5459 5.39354 21.7202 7.04086 22.8099C8.01059 23.4514 9.26931 23.4598 10.2476 22.8315L10.2847 22.8076C11.1118 22.2604 11.7461 21.7643 12.2775 21.2486C12.4169 21.1133 12.6395 21.1166 12.7747 21.256C12.9099 21.3953 12.9066 21.6179 12.7673 21.7531C12.2038 22.3 11.537 22.8221 10.6691 23.3963L10.628 23.4228C10.0286 23.8078 9.34431 24 8.66057 24V24ZM8.6609 21.8525C8.07753 21.8525 7.57361 21.7033 7.07508 21.3832C6.91172 21.2783 6.86432 21.0608 6.96923 20.8974C7.07424 20.734 7.29169 20.6867 7.45506 20.7916C7.84033 21.039 8.2122 21.1493 8.6609 21.1493C9.10955 21.1493 9.48147 21.039 9.8667 20.7916C10.0302 20.6867 10.2476 20.7341 10.3525 20.8975C10.4574 21.0608 10.41 21.2783 10.2467 21.3833C9.74819 21.7033 9.24427 21.8525 8.6609 21.8525V21.8525ZM10.0044 20.0809H7.31677C6.75717 20.0809 6.21378 19.8439 5.82602 19.4307C5.69317 19.289 5.7002 19.0666 5.84181 18.9337C5.98343 18.8009 6.2059 18.8079 6.33875 18.9495C6.59413 19.2217 6.95058 19.3778 7.31673 19.3778H10.0044C10.3709 19.3778 10.7276 19.2217 10.983 18.9495C11.1159 18.8079 11.3383 18.8009 11.4799 18.9337C11.6215 19.0666 11.6286 19.2891 11.4957 19.4307C11.108 19.8439 10.5644 20.0809 10.0044 20.0809V20.0809ZM8.6609 18.3248C7.62794 18.3248 7.14553 17.5802 7.12552 17.5484C7.02183 17.3843 7.07081 17.1671 7.23493 17.0634C7.3981 16.9602 7.61383 17.0081 7.71822 17.1701C7.73453 17.1945 8.02995 17.6216 8.66095 17.6216C9.30048 17.6216 9.59917 17.1773 9.60199 17.1728C9.70572 17.0087 9.9229 16.9597 10.087 17.0634C10.2511 17.1671 10.3001 17.3843 10.1964 17.5484C10.1763 17.5802 9.69382 18.3248 8.6609 18.3248V18.3248ZM11.9205 16.1669C10.5162 16.1669 9.37379 15.0244 9.37379 13.6202C9.37379 12.216 10.5163 11.0735 11.9205 11.0735C13.3247 11.0735 14.4672 12.2159 14.4672 13.6202C14.4672 15.0245 13.3248 16.1669 11.9205 16.1669V16.1669ZM11.9205 11.7767C10.9039 11.7767 10.0769 12.6037 10.0769 13.6202C10.0769 14.6368 10.904 15.4638 11.9205 15.4638C12.937 15.4638 13.764 14.6367 13.764 13.6202C13.764 12.6037 12.937 11.7767 11.9205 11.7767V11.7767ZM5.40127 16.1669C3.997 16.1669 2.85458 15.0244 2.85458 13.6202C2.85458 12.216 3.997 11.0735 5.40127 11.0735C6.80554 11.0735 7.94796 12.2159 7.94796 13.6202C7.94796 15.0245 6.80554 16.1669 5.40127 16.1669V16.1669ZM5.40127 11.7767C4.38472 11.7767 3.55773 12.6037 3.55773 13.6202C3.55773 14.6368 4.38472 15.4638 5.40127 15.4638C6.41783 15.4638 7.24482 14.6367 7.24482 13.6202C7.24482 12.6037 6.41783 11.7767 5.40127 11.7767V11.7767ZM11.9205 14.7606C11.7263 14.7606 11.5689 14.6032 11.5689 14.409V14.2789C11.5689 14.0847 11.7263 13.9273 11.9205 13.9273C12.1146 13.9273 12.2721 14.0847 12.2721 14.2789V14.409C12.2721 14.6032 12.1147 14.7606 11.9205 14.7606ZM5.40127 14.7606C5.20711 14.7606 5.0497 14.6032 5.0497 14.409V14.2789C5.0497 14.0847 5.20711 13.9273 5.40127 13.9273C5.59543 13.9273 5.75284 14.0847 5.75284 14.2789V14.409C5.75284 14.6032 5.59543 14.7606 5.40127 14.7606ZM5.97204 13.6425C5.85053 13.6425 5.73241 13.5795 5.6673 13.4667C5.57017 13.2985 5.62778 13.0835 5.79592 12.9864L5.90857 12.9214C6.07666 12.8243 6.29173 12.8818 6.38886 13.05C6.48599 13.2181 6.42838 13.4332 6.26023 13.5303L6.14759 13.5953C6.09218 13.6273 6.03171 13.6425 5.97204 13.6425V13.6425ZM12.4912 13.6425C12.3697 13.6425 12.2516 13.5795 12.1865 13.4667C12.0894 13.2985 12.147 13.0835 12.3151 12.9864L12.4278 12.9214C12.5959 12.8243 12.811 12.8819 12.9081 13.0501C13.0051 13.2182 12.9475 13.4332 12.7794 13.5303L12.6667 13.5954C12.6114 13.6273 12.5509 13.6425 12.4912 13.6425ZM11.3497 13.6425C11.2901 13.6425 11.2296 13.6273 11.1743 13.5954L11.0616 13.5303C10.8934 13.4332 10.8358 13.2182 10.9329 13.0501C11.03 12.8819 11.2449 12.8242 11.4131 12.9214L11.5258 12.9864C11.694 13.0835 11.7516 13.2985 11.6545 13.4667C11.5894 13.5795 11.4712 13.6425 11.3497 13.6425ZM4.83051 13.6425C4.77088 13.6425 4.71041 13.6273 4.65505 13.5954L4.54236 13.5303C4.37422 13.4332 4.3166 13.2182 4.41369 13.0501C4.51077 12.8819 4.72574 12.8242 4.89393 12.9214L5.00662 12.9864C5.17477 13.0835 5.23238 13.2985 5.1353 13.4667C5.07019 13.5795 4.95201 13.6425 4.83051 13.6425Z" fill="#111111"/>
</svg>
