<svg width="25" height="22" viewBox="0 0 25 22" fill="none" xmlns="http://www.w3.org/2000/svg">
<path d="M4.81279 21.7035H1.01186C0.817579 21.7035 0.660156 21.5461 0.660156 21.3518C0.660156 21.1575 0.817579 21.0001 1.01186 21.0001H4.81279C7.12099 21.0001 8.87018 20.7273 10.1603 20.1661C11.2471 19.6932 12.0374 19.0173 12.6111 18.0617H8.42792C7.08245 18.0617 6.03315 16.9189 5.89467 15.3578H1.01186C0.817579 15.3578 0.660156 15.2003 0.660156 15.0061C0.660156 14.8118 0.817579 14.6544 1.01186 14.6544H6.23085C7.93708 14.6544 9.43145 14.0534 10.5524 12.9163L13.147 10.2784L11.6164 8.73745C11.5345 8.65496 11.4986 8.53731 11.5206 8.42317C11.5426 8.30898 11.6195 8.21308 11.7262 8.16684C12.0547 8.02462 12.3659 7.89116 12.6622 7.76398C14.0197 7.1817 15.0919 6.72172 16.0805 6.16354C16.2497 6.06821 16.4642 6.12776 16.5597 6.29691C16.6552 6.46605 16.5956 6.68059 16.4264 6.77612C15.4045 7.3531 14.3167 7.81969 12.9396 8.41046C12.7901 8.47461 12.6367 8.5404 12.4794 8.60807L16.3312 12.486C17.9787 8.69946 18.8792 6.92453 21.8752 3.92854L23.7808 2.02296C23.9013 1.9024 23.9652 1.73555 23.956 1.56514C23.9467 1.39248 23.8663 1.23688 23.7297 1.12696C23.4956 0.938731 23.1363 0.967243 22.9117 1.19191L21.0061 3.09749C19.7067 4.39687 18.6776 5.29029 17.6692 5.99435C17.5098 6.10563 17.2906 6.06661 17.1795 5.90736C17.0683 5.74811 17.1073 5.52884 17.2665 5.41765C18.2398 4.73811 19.2397 3.86917 20.5087 2.60013L22.4142 0.694415C22.8971 0.211596 23.6521 0.161936 24.1704 0.578822C24.4605 0.812118 24.6383 1.15777 24.6582 1.52711C24.6782 1.89668 24.5397 2.2587 24.2781 2.52027L22.3724 4.42589C19.3449 7.4535 18.5158 9.21018 16.7699 13.2417C16.7236 13.3487 16.6271 13.4259 16.5125 13.4476C16.3979 13.469 16.2799 13.4326 16.1977 13.3498L14.634 11.7755C14.22 12.195 13.2171 13.2092 12.033 14.3934C11.9431 14.4832 11.8561 14.5702 11.772 14.6544H14.5504C14.9927 14.6544 15.3525 15.0138 15.3527 15.4556C15.3529 16.1076 15.1798 16.7211 14.8653 17.1831C14.5164 17.6955 14.0204 17.9926 13.4215 18.051C12.1015 20.6084 9.50934 21.7035 4.81279 21.7035V21.7035ZM6.60183 15.3486C6.71785 16.3709 7.35424 17.3583 8.42788 17.3583H13.1913C13.196 17.3582 13.2007 17.3582 13.2054 17.3583C13.6644 17.3563 14.0271 17.1642 14.2839 16.7871C14.5163 16.4458 14.6495 15.9605 14.6494 15.4557C14.6494 15.4017 14.605 15.3577 14.5504 15.3577H11.0681C10.1851 16.2396 9.77246 16.6499 9.76716 16.6552C9.62943 16.7922 9.40674 16.7915 9.26981 16.6538C9.13283 16.516 9.13349 16.2933 9.27121 16.1564C9.27782 16.1499 9.90962 15.5216 11.2869 14.1447L10.7976 13.6553C9.6707 14.6774 8.20377 15.2695 6.60183 15.3486V15.3486ZM11.2981 13.1611L11.7842 13.6472C12.8623 12.5677 13.7571 11.6626 14.1383 11.2764L13.6427 10.7774L11.2981 13.1611Z" fill="#111111"/>
</svg>
