<svg width="24" height="26" viewBox="0 0 24 26" fill="none" xmlns="http://www.w3.org/2000/svg">
<path fill-rule="evenodd" clip-rule="evenodd" d="M17.4342 0.999203L17.4354 1.97372C21.0165 2.25438 23.382 4.69455 23.3859 8.43668L23.4 19.3902C23.4051 23.4702 20.8419 25.9805 16.7333 25.987L6.69745 26C2.61455 26.0052 0.0192616 23.4351 0.0141274 19.3434L8.64468e-06 8.51854C-0.00512546 4.75173 2.27699 2.31804 5.85803 1.98931L5.85674 1.0148C5.85546 0.443081 6.27902 0.0129964 6.84377 0.0129964C7.40853 0.0116971 7.83209 0.440483 7.83337 1.0122L7.83466 1.92174L15.4588 1.91135L15.4575 1.0018C15.4562 0.430088 15.8798 0.0013023 16.4446 2.94514e-06C16.9965 -0.0012964 17.4329 0.427489 17.4342 0.999203ZM1.97795 8.92007L21.4105 8.89408V8.43931C21.3553 5.64571 19.9537 4.18004 17.438 3.96175L17.4393 4.96225C17.4393 5.52097 17.0042 5.96405 16.4523 5.96405C15.8875 5.96535 15.4627 5.52357 15.4627 4.96485L15.4614 3.91238L7.83725 3.92277L7.83853 4.97394C7.83853 5.53396 7.41625 5.97574 6.8515 5.97574C6.28675 5.97704 5.8619 5.53656 5.8619 4.97654L5.86061 3.97604C3.35774 4.22682 1.97281 5.69768 1.97666 8.51597L1.97795 8.92007ZM15.9118 14.8256V14.8399C15.9246 15.4376 16.4123 15.8911 17.004 15.8781C17.5816 15.8638 18.0424 15.3687 18.0296 14.771C18.0026 14.1993 17.5393 13.7328 16.963 13.7341C16.3726 13.7471 15.9105 14.2279 15.9118 14.8256ZM16.9723 20.6597C16.3819 20.6467 15.9057 20.1542 15.9044 19.5565C15.8916 18.9588 16.3652 18.4638 16.9556 18.4495H16.9684C17.5717 18.4495 18.0607 18.9419 18.0607 19.5526C18.062 20.1633 17.5743 20.6584 16.9723 20.6597ZM10.6242 14.8464C10.6498 15.4441 11.1389 15.9105 11.7293 15.8845C12.3069 15.8573 12.7677 15.3635 12.742 14.7658C12.7279 14.1811 12.253 13.7263 11.6754 13.7276C11.085 13.7536 10.6229 14.2487 10.6242 14.8464ZM11.7344 20.601C11.1439 20.627 10.6562 20.1605 10.6292 19.5628C10.6292 18.9651 11.09 18.4714 11.6804 18.4441C12.258 18.4428 12.7342 18.8976 12.7471 19.481C12.774 20.08 12.3119 20.5737 11.7344 20.601ZM5.3353 14.8919C5.36097 15.4896 5.84999 15.9574 6.44042 15.9301C7.018 15.9041 7.47879 15.4091 7.45183 14.8113C7.439 14.2266 6.96409 13.7719 6.38522 13.7732C5.7948 13.7992 5.33402 14.2942 5.3353 14.8919ZM6.44603 20.6077C5.85561 20.6349 5.36787 20.1672 5.34091 19.5695C5.33963 18.9718 5.8017 18.4767 6.39212 18.4507C6.96971 18.4494 7.4459 18.9042 7.45873 19.4889C7.48569 20.0866 7.0249 20.5817 6.44603 20.6077Z" fill="#66193E"/>
</svg>
