<svg width="22" height="20" viewBox="0 0 22 20" fill="none" xmlns="http://www.w3.org/2000/svg">
<path d="M20.7436 9.83614L11.1195 0.21903C11.0502 0.149598 10.9679 0.0945134 10.8773 0.0569295C10.7867 0.0193456 10.6895 0 10.5914 0C10.4933 0 10.3962 0.0193456 10.3056 0.0569295C10.215 0.0945134 10.1327 0.149598 10.0634 0.21903L0.439266 9.83614C0.158883 10.1165 0 10.4974 0 10.8946C0 11.7194 0.670581 12.39 1.49537 12.39H2.50942V19.2523C2.50942 19.6659 2.84354 20 3.25711 20H9.09607V14.7662H11.713V20H17.9258C18.3393 20 18.6735 19.6659 18.6735 19.2523V12.39H19.6875C20.0847 12.39 20.4656 12.2334 20.746 11.9507C21.3277 11.3666 21.3277 10.4203 20.7436 9.83614V9.83614Z" fill="#C397AC"/>
</svg>
