<svg width="28" height="26" viewBox="0 0 28 26" fill="none" xmlns="http://www.w3.org/2000/svg">
<path d="M27.4205 12.787L14.6986 0.284738C14.607 0.194477 14.4982 0.122867 14.3784 0.0740083C14.2586 0.0251493 14.1302 0 14.0006 0C13.8709 0 13.7425 0.0251493 13.6227 0.0740083C13.503 0.122867 13.3942 0.194477 13.3026 0.284738L0.580655 12.787C0.210024 13.1515 0 13.6466 0 14.163C0 15.2352 0.886425 16.1069 1.9767 16.1069H3.31715V25.028C3.31715 25.5656 3.75881 26 4.30549 26H12.0239V19.1961H15.4831V26H23.6957C24.2423 26 24.684 25.5656 24.684 25.028V16.1069H26.0245C26.5495 16.1069 27.053 15.9034 27.4236 15.5359C28.1926 14.7765 28.1927 13.5464 27.4205 12.787V12.787Z" fill="#66193E"/>
</svg>
