<svg width="18" height="20" viewBox="0 0 18 20" fill="none" xmlns="http://www.w3.org/2000/svg">
<path fill-rule="evenodd" clip-rule="evenodd" d="M13.4109 0.768618L13.4119 1.51824C16.1665 1.73413 17.9862 3.6112 17.9891 6.48976L18 14.9155C18.0039 18.054 16.0322 19.985 12.8718 19.99L5.15189 20C2.01119 20.004 0.0148166 18.027 0.0108673 14.8796L6.64975e-06 6.55272C-0.00394266 3.65517 1.75153 1.78311 4.50617 1.53024L4.50519 0.780612C4.5042 0.340832 4.83002 0.00999727 5.26444 0.00999727C5.69887 0.00899777 6.02468 0.338833 6.02567 0.778613L6.02666 1.47826L11.8914 1.47027L11.8904 0.770617C11.8894 0.330837 12.2152 0.00100177 12.6497 2.26549e-06C13.0742 -0.000997235 13.4099 0.328838 13.4109 0.768618ZM1.52149 6.86154L16.4696 6.84155V6.49173C16.4272 4.3428 15.349 3.21537 13.4139 3.04745L13.4149 3.81707C13.4149 4.24685 13.0801 4.58768 12.6556 4.58768C12.2212 4.58868 11.8944 4.24885 11.8944 3.81907L11.8934 3.00947L6.02865 3.01747L6.02964 3.82606C6.02964 4.25685 5.7048 4.59668 5.27038 4.59668C4.83596 4.59768 4.50915 4.25885 4.50915 3.82806L4.50816 3.05845C2.58287 3.25135 1.51755 4.38278 1.52051 6.5507L1.52149 6.86154ZM12.2398 11.4043V11.4153C12.2497 11.8751 12.6249 12.2239 13.0801 12.2139C13.5244 12.2029 13.8788 11.8221 13.8689 11.3623C13.8482 10.9225 13.4918 10.5637 13.0485 10.5647C12.5943 10.5747 12.2389 10.9445 12.2398 11.4043ZM13.0556 15.892C12.6015 15.882 12.2352 15.5032 12.2342 15.0434C12.2243 14.5837 12.5886 14.2029 13.0428 14.1919H13.0527C13.5167 14.1919 13.8929 14.5707 13.8929 15.0404C13.8939 15.5102 13.5187 15.891 13.0556 15.892ZM8.17226 11.4202C8.19201 11.88 8.56818 12.2388 9.02235 12.2188C9.46665 12.1979 9.8211 11.8181 9.80135 11.3583C9.79049 10.9085 9.42518 10.5587 8.98088 10.5597C8.52671 10.5797 8.17127 10.9605 8.17226 11.4202ZM9.02625 15.847C8.57208 15.867 8.1969 15.5081 8.17617 15.0484C8.17617 14.5886 8.53062 14.2088 8.98479 14.1878C9.42908 14.1868 9.79538 14.5366 9.80526 14.9854C9.82599 15.4462 9.47055 15.826 9.02625 15.847ZM4.1041 11.4553C4.12384 11.915 4.50002 12.2748 4.95419 12.2539C5.39848 12.2339 5.75294 11.8531 5.7322 11.3933C5.72233 10.9435 5.35702 10.5937 4.91173 10.5947C4.45756 10.6147 4.10311 10.9955 4.1041 11.4553ZM4.95848 15.852C4.50431 15.873 4.12913 15.5132 4.10839 15.0534C4.10741 14.5937 4.46284 14.2129 4.91702 14.1929C5.36131 14.1919 5.72761 14.5417 5.73749 14.9915C5.75822 15.4512 5.40377 15.8321 4.95848 15.852Z" fill="#C397AC"/>
</svg>
