<svg width="26" height="26" viewBox="0 0 26 26" fill="none" xmlns="http://www.w3.org/2000/svg">
<path fill-rule="evenodd" clip-rule="evenodd" d="M0 13C0 5.824 5.811 0 13 0C20.176 0 26 5.824 26 13C26 20.189 20.176 26 13 26C5.811 26 0 20.189 0 13ZM15.8989 15.3789L18.0049 8.72292C18.1479 8.26792 17.7319 7.83892 17.2769 7.98192L10.6209 10.0619C10.3479 10.1529 10.1269 10.3609 10.0489 10.6339L7.96894 17.3029C7.82594 17.7449 8.25494 18.1739 8.69694 18.0309L15.3269 15.9509C15.5999 15.8729 15.8209 15.6519 15.8989 15.3789Z" fill="#66193E"/>
</svg>
