<svg width="18" height="18" viewBox="0 0 18 18" fill="none" xmlns="http://www.w3.org/2000/svg">
<path d="M17.4873 13.9547L13.4223 10.2587C13.2301 10.084 12.9776 9.9909 12.7181 9.99892C12.4585 10.0069 12.2123 10.1155 12.0313 10.3017L9.63828 12.7627C9.06228 12.6527 7.90428 12.2917 6.71228 11.1027C5.52028 9.90969 5.15928 8.74869 5.05228 8.17669L7.51128 5.78269C7.69769 5.60182 7.80642 5.35551 7.81444 5.0959C7.82247 4.83628 7.72917 4.58373 7.55428 4.39169L3.85928 0.327692C3.68432 0.135049 3.44116 0.0181963 3.18143 0.00195179C2.92171 -0.0142928 2.66588 0.0713504 2.46828 0.240692L0.298282 2.10169C0.125393 2.27521 0.0222015 2.50614 0.00828196 2.75069C-0.00671804 3.00069 -0.292718 8.92269 4.29928 13.5167C8.30528 17.5217 13.3233 17.8147 14.7053 17.8147C14.9073 17.8147 15.0313 17.8087 15.0643 17.8067C15.3088 17.793 15.5396 17.6894 15.7123 17.5157L17.5723 15.3447C17.7423 15.1477 17.8286 14.8921 17.8127 14.6324C17.7968 14.3727 17.68 14.1295 17.4873 13.9547V13.9547Z" fill="#66193E"/>
</svg>
