<svg width="10" height="10" viewBox="0 0 10 10" fill="none" xmlns="http://www.w3.org/2000/svg">
<path d="M6.95593 4.86549C6.52885 4.8423 6.10177 4.81447 5.67015 4.79128C4.21172 4.70779 2.75329 4.6243 1.29487 4.55009C1.08133 4.54082 0.990459 4.47588 0.949568 4.23933C0.699682 2.88497 0.427079 1.53525 0.163562 0.180891C0.154475 0.12987 0.154475 0.0742115 0.149932 0C3.43026 1.61874 6.69241 3.2282 9.99546 4.86085C6.66061 6.57236 3.35756 8.27458 0 10C0.0408905 9.80056 0.0726942 9.64286 0.109041 9.48516C0.395275 8.19109 0.681508 6.89703 0.963199 5.60297C0.990459 5.46846 1.04044 5.43599 1.16765 5.42208C3.00772 5.27365 4.8478 5.11596 6.68787 4.95826C6.77874 4.94898 6.86506 4.93506 6.95593 4.92115C6.95139 4.90724 6.95593 4.88404 6.95593 4.86549Z" fill="white"/>
</svg>
