<svg width="27" height="28" viewBox="0 0 27 28" fill="none" xmlns="http://www.w3.org/2000/svg">
<path d="M19.7434 28H8.23838C7.55997 28 7.00799 27.448 7.00799 26.7696V26.2181C4.13494 24.8934 1.08543 20.9633 1.08543 18.5107C1.08543 17.8323 1.63741 17.2803 2.31582 17.2803H4.17738C4.40393 17.2803 4.58751 17.4639 4.58751 17.6904C4.58751 17.917 4.40393 18.1006 4.17738 18.1006H2.31582C2.08965 18.1006 1.90569 18.2845 1.90569 18.5107C1.90569 19.4908 2.59351 20.9766 3.7007 22.3881C4.8355 23.8349 6.24996 25.0069 7.50009 25.5392H15.9636C16.1901 25.5392 16.3737 25.7228 16.3737 25.9493C16.3737 26.1759 16.1901 26.3595 15.9636 26.3595H7.82825V26.7696C7.82825 26.9958 8.0122 27.1797 8.23838 27.1797H19.7434C19.9696 27.1797 20.1535 26.9958 20.1535 26.7696V26.3595H17.6042C17.3777 26.3595 17.1941 26.1759 17.1941 25.9493C17.1941 25.7228 17.3777 25.5392 17.6042 25.5392H20.4816C21.7318 25.0069 23.1463 23.8349 24.2811 22.3881C25.3882 20.9766 26.076 19.4908 26.076 18.5107C26.076 18.2845 25.8921 18.1006 25.6659 18.1006H20.9871L19.9502 19.1375C19.8733 19.2144 19.769 19.2576 19.6602 19.2576C19.5513 19.2576 19.4471 19.2144 19.3701 19.1375L17.5023 17.2696C17.3422 17.1094 17.3422 16.8497 17.5023 16.6896C17.6626 16.5295 17.9222 16.5295 18.0824 16.6896L19.6602 18.2675L20.881 17.0466C20.9585 16.9691 21.0011 16.8662 21.0011 16.7566C21.0011 16.647 20.9585 16.544 20.881 16.4666L18.7232 14.3087L14.3123 18.7196L16.4701 20.8774C16.63 21.0375 16.8903 21.0374 17.0501 20.8774L17.3401 20.5874L15.7623 19.0096C15.6021 18.8494 15.6021 18.5898 15.7622 18.4296C15.9225 18.2695 16.1822 18.2695 16.3422 18.4296L17.9201 20.0074L18.2217 19.7057C18.382 19.5456 18.6416 19.5457 18.8017 19.7057C18.9619 19.866 18.9619 20.1256 18.8017 20.2858L17.6301 21.4574C17.3977 21.6898 17.0887 21.8178 16.7601 21.8178C16.4314 21.8178 16.1224 21.6898 15.89 21.4574L13.6829 19.2503C13.2904 19.4385 12.8161 19.4085 12.4424 19.1446L10.9639 18.1004C10.9615 18.1005 10.9591 18.1005 10.9567 18.1005H10.699C10.0206 18.1005 9.46866 18.6525 9.46866 19.3309V21.5978C9.46866 21.9325 9.3297 22.257 9.08745 22.4881C8.8417 22.7224 8.51989 22.843 8.17926 22.8267C7.5224 22.7958 7.00788 22.2458 7.00788 21.5746V18.1005H5.81779C5.59123 18.1005 5.40766 17.9169 5.40766 17.6904C5.40766 17.4638 5.59123 17.2802 5.81779 17.2802H9.80256L9.44777 17.0296C9.04535 16.7455 8.8516 16.2505 8.95408 15.7686L9.48178 13.2877C9.70899 12.2191 9.38351 11.12 8.61105 10.3476L0.360324 2.0969C0.123652 1.86017 -0.00758958 1.53245 0.000339605 1.19773C0.00832347 0.85825 0.151377 0.545129 0.403033 0.316167C0.889392 -0.1265 1.64206 -0.101455 2.11677 0.373203L10.3513 8.60768C11.1237 9.38015 12.2229 9.70568 13.2913 9.47836C13.5127 9.43117 13.7306 9.57264 13.7778 9.79416C13.8248 10.0157 13.6835 10.2335 13.462 10.2806C12.1208 10.5661 10.7409 10.1573 9.77122 9.18772L1.53674 0.953236C1.37515 0.791535 1.1142 0.777919 0.955122 0.922777C0.870909 0.999389 0.82306 1.10394 0.820381 1.21703C0.817701 1.33028 0.8603 1.43681 0.940358 1.51686L9.19124 9.76764C10.1608 10.7373 10.5695 12.117 10.2842 13.4584L9.75651 15.9393C9.72233 16.1 9.78697 16.2649 9.92106 16.3597L12.9157 18.4746C13.0794 18.5901 13.3008 18.5713 13.4424 18.4296L18.4332 13.4387C18.5749 13.2971 18.5938 13.0756 18.4782 12.9121L16.3633 9.91748C16.2686 9.78344 16.1037 9.71864 15.943 9.75293L15.1712 9.91704C14.9497 9.96401 14.7319 9.82276 14.6847 9.60118C14.6376 9.37966 14.779 9.16185 15.0005 9.11471L15.7723 8.95061C16.254 8.84797 16.749 9.04187 17.0333 9.44424L19.1482 12.4388C19.4121 12.8125 19.4421 13.2868 19.2539 13.6794L21.4611 15.8865C21.8374 16.2628 21.9185 16.8241 21.7045 17.2802H25.6659C26.3443 17.2802 26.8963 17.8322 26.8963 18.5106C26.8963 20.9633 23.8468 24.8933 20.9737 26.2181V26.7696C20.9738 27.4481 20.4218 28 19.7434 28ZM7.82825 18.1006V21.5746C7.82825 21.8032 8.00307 21.9973 8.21798 22.0074C8.33145 22.013 8.43945 21.9727 8.52142 21.8946C8.60339 21.8164 8.64851 21.711 8.64851 21.5978V19.3309C8.64851 18.8696 8.80162 18.4434 9.05962 18.1005H7.82825V18.1006Z" fill="#66193E"/>
</svg>
