<svg width="20" height="20" viewBox="0 0 20 20" fill="none" xmlns="http://www.w3.org/2000/svg">
<path d="M8.29504 10.4914L0.791491 7.04956C0.791458 7.04954 0.791425 7.04953 0.791392 7.04951C0.604551 6.96354 0.489249 6.77212 0.500798 6.56576L0.00157943 6.53782L0.500824 6.56528C0.506325 6.46526 0.54192 6.36923 0.602943 6.2898C0.663966 6.21036 0.747569 6.15122 0.842792 6.12012L0.843641 6.11984L17.8727 0.525111C17.8733 0.524934 17.8738 0.524758 17.8744 0.524582C18.0606 0.465755 18.2569 0.5148 18.3864 0.644712C18.5197 0.778524 18.5669 0.977175 18.5083 1.1565L12.9136 18.1876C12.8822 18.2831 12.8228 18.3669 12.743 18.4281C12.6644 18.4884 12.5697 18.524 12.4709 18.5303L12.4303 18.5318C12.2394 18.529 12.0643 18.4163 11.9829 18.2401C11.9828 18.2399 11.9828 18.2398 11.9827 18.2396L8.54104 10.7373L8.46368 10.5687L8.29504 10.4914Z" fill="white" stroke="white"/>
</svg>
