<svg width="32" height="32" viewBox="0 0 32 32" fill="none" xmlns="http://www.w3.org/2000/svg">
<g filter="url(#filter0_dd)">
<path d="M24.7609 16L25.8663 14.0897C25.9991 13.8599 26.0352 13.5867 25.9667 13.3302C25.8982 13.0737 25.7306 12.855 25.5008 12.722L23.5885 11.6167V9.41407C23.5885 9.14854 23.483 8.89388 23.2953 8.70612C23.1075 8.51835 22.8529 8.41287 22.5873 8.41287H20.3857L19.2813 6.50158C19.148 6.27222 18.9296 6.1046 18.6736 6.03501C18.5466 6.00059 18.4141 5.99171 18.2836 6.0089C18.1532 6.02609 18.0274 6.06899 17.9137 6.13513L16.0014 7.24046L14.0891 6.13413C13.8592 6.00137 13.5859 5.96539 13.3294 6.03411C13.0729 6.10283 12.8542 6.27062 12.7215 6.50057L11.6161 8.41287H9.41449C9.14896 8.41287 8.8943 8.51835 8.70654 8.70612C8.51877 8.89388 8.41329 9.14854 8.41329 9.41407V11.6157L6.50099 12.721C6.38689 12.7867 6.28688 12.8742 6.2067 12.9786C6.12653 13.083 6.06778 13.2022 6.03382 13.3294C5.99986 13.4566 5.99137 13.5892 6.00883 13.7197C6.02629 13.8502 6.06935 13.9759 6.13555 14.0897L7.24088 16L6.13555 17.9103C6.00338 18.1403 5.96752 18.4133 6.03579 18.6697C6.10406 18.9261 6.27092 19.1451 6.49999 19.2789L8.41229 20.3843V22.5859C8.41229 22.8514 8.51777 23.1061 8.70553 23.2939C8.8933 23.4816 9.14796 23.5871 9.41349 23.5871H11.6161L12.7215 25.4994C12.8101 25.6509 12.9367 25.7768 13.0887 25.8645C13.2407 25.9523 13.413 25.999 13.5885 26C13.7627 26 13.9359 25.9539 14.0901 25.8648L16.0004 24.7595L17.9127 25.8648C18.1426 25.9974 18.4157 26.0334 18.6721 25.9649C18.9285 25.8964 19.1472 25.729 19.2803 25.4994L20.3847 23.5871H22.5863C22.8519 23.5871 23.1065 23.4816 23.2943 23.2939C23.482 23.1061 23.5875 22.8514 23.5875 22.5859V20.3843L25.4998 19.2789C25.6137 19.2131 25.7135 19.1255 25.7936 19.021C25.8736 18.9166 25.9322 18.7974 25.9662 18.6703C26.0001 18.5432 26.0087 18.4107 25.9914 18.2803C25.974 18.1499 25.9312 18.0241 25.8653 17.9103L24.7609 16ZM13.4974 10.984C13.8958 10.9841 14.2779 11.1425 14.5595 11.4243C14.8412 11.7062 14.9993 12.0883 14.9992 12.4868C14.9991 12.8852 14.8407 13.2673 14.5588 13.5489C14.277 13.8306 13.8948 13.9887 13.4964 13.9886C13.098 13.9884 12.7159 13.83 12.4343 13.5482C12.1526 13.2664 11.9945 12.8842 11.9946 12.4858C11.9947 12.0873 12.1531 11.7053 12.435 11.4236C12.7168 11.142 13.099 10.9838 13.4974 10.984V10.984ZM13.7978 20.5955L12.1958 19.3951L18.203 11.3854L19.805 12.5859L13.7978 20.5955ZM18.5034 20.996C18.3061 20.9959 18.1108 20.957 17.9285 20.8814C17.7463 20.8059 17.5807 20.6952 17.4413 20.5556C17.3018 20.4161 17.1912 20.2504 17.1158 20.0681C17.0403 19.8858 17.0015 19.6905 17.0016 19.4932C17.0017 19.2959 17.0406 19.1006 17.1162 18.9183C17.1917 18.7361 17.3024 18.5705 17.442 18.431C17.5815 18.2916 17.7472 18.181 17.9295 18.1055C18.1118 18.0301 18.3071 17.9913 18.5044 17.9914C18.9028 17.9915 19.2849 18.1499 19.5666 18.4317C19.8482 18.7136 20.0063 19.0957 20.0062 19.4942C20.0061 19.8926 19.8477 20.2747 19.5658 20.5563C19.284 20.838 18.9018 20.9961 18.5034 20.996V20.996Z" fill="#66193E"/>
</g>
<defs>
<filter id="filter0_dd" x="0" y="0" width="32.0006" height="32" filterUnits="userSpaceOnUse" color-interpolation-filters="sRGB">
<feFlood flood-opacity="0" result="BackgroundImageFix"/>
<feColorMatrix in="SourceAlpha" type="matrix" values="0 0 0 0 0 0 0 0 0 0 0 0 0 0 0 0 0 0 127 0"/>
<feOffset dx="2" dy="2"/>
<feGaussianBlur stdDeviation="2"/>
<feColorMatrix type="matrix" values="0 0 0 0 0.682353 0 0 0 0 0.682353 0 0 0 0 0.752941 0 0 0 0.5 0"/>
<feBlend mode="normal" in2="BackgroundImageFix" result="effect1_dropShadow"/>
<feColorMatrix in="SourceAlpha" type="matrix" values="0 0 0 0 0 0 0 0 0 0 0 0 0 0 0 0 0 0 127 0"/>
<feOffset dx="-2" dy="-2"/>
<feGaussianBlur stdDeviation="2"/>
<feColorMatrix type="matrix" values="0 0 0 0 1 0 0 0 0 1 0 0 0 0 1 0 0 0 1 0"/>
<feBlend mode="normal" in2="effect1_dropShadow" result="effect2_dropShadow"/>
<feBlend mode="normal" in="SourceGraphic" in2="effect2_dropShadow" result="shape"/>
</filter>
</defs>
</svg>
