<svg width="26" height="26" viewBox="0 0 26 26" fill="none" xmlns="http://www.w3.org/2000/svg">
<path d="M6.96635 10.4495C6.96635 10.1543 7.0539 9.86566 7.21793 9.62017C7.38196 9.37468 7.6151 9.18335 7.88787 9.07036C8.16064 8.95737 8.4608 8.92781 8.75037 8.98541C9.03994 9.04301 9.30593 9.18519 9.5147 9.39396C9.72347 9.60273 9.86564 9.86872 9.92324 10.1583C9.98084 10.4479 9.95128 10.748 9.8383 11.0208C9.72531 11.2936 9.53397 11.5267 9.28849 11.6907C9.043 11.8548 8.75438 11.9423 8.45914 11.9423C8.06323 11.9423 7.68353 11.785 7.40358 11.5051C7.12363 11.2251 6.96635 10.8454 6.96635 10.4495ZM17.4159 11.9423C17.7111 11.9423 17.9997 11.8548 18.2452 11.6907C18.4907 11.5267 18.682 11.2936 18.795 11.0208C18.908 10.748 18.9376 10.4479 18.88 10.1583C18.8224 9.86872 18.6802 9.60273 18.4714 9.39396C18.2627 9.18519 17.9967 9.04301 17.7071 8.98541C17.4175 8.92781 17.1174 8.95737 16.8446 9.07036C16.5718 9.18335 16.3387 9.37468 16.1747 9.62017C16.0106 9.86566 15.9231 10.1543 15.9231 10.4495C15.9231 10.8454 16.0804 11.2251 16.3603 11.5051C16.6403 11.785 17.02 11.9423 17.4159 11.9423ZM25.875 12.9375C25.875 15.4963 25.1162 17.9976 23.6946 20.1252C22.273 22.2527 20.2525 23.911 17.8885 24.8902C15.5244 25.8694 12.9232 26.1256 10.4135 25.6264C7.90389 25.1272 5.59865 23.895 3.78931 22.0857C1.97997 20.2763 0.747792 17.9711 0.248596 15.4615C-0.2506 12.9518 0.00560562 10.3505 0.984814 7.98653C1.96402 5.62251 3.62225 3.60195 5.74981 2.18036C7.87738 0.758771 10.3787 0 12.9375 0C16.3675 0.00388517 19.656 1.36819 22.0814 3.7936C24.5068 6.21901 25.8711 9.50745 25.875 12.9375ZM23.8846 12.9375C23.8846 10.7724 23.2426 8.65585 22.0397 6.85561C20.8368 5.05536 19.1271 3.65224 17.1268 2.82368C15.1265 1.99512 12.9254 1.77833 10.8018 2.20073C8.6783 2.62313 6.72771 3.66574 5.19673 5.19672C3.66574 6.7277 2.62313 8.67829 2.20074 10.8018C1.77834 12.9254 1.99513 15.1265 2.82369 17.1268C3.65225 19.1271 5.05537 20.8368 6.85561 22.0397C8.65586 23.2426 10.7724 23.8846 12.9375 23.8846C15.8398 23.8813 18.6224 22.7269 20.6746 20.6746C22.7269 18.6224 23.8813 15.8398 23.8846 12.9375V12.9375ZM18.6081 15.0611C18.3796 14.929 18.108 14.893 17.853 14.9611C17.5981 15.0293 17.3806 15.1959 17.2484 15.4244C16.7053 16.3626 15.872 17.0989 14.874 17.5223C13.9619 17.9082 12.9553 18.0127 11.9834 17.8226C11.0115 17.6326 10.1184 17.1565 9.41888 16.4555C9.11107 16.1477 8.84476 15.8011 8.6267 15.4244C8.49454 15.1959 8.27702 15.0293 8.02201 14.9612C7.76699 14.8931 7.49537 14.9291 7.2669 15.0612C7.03842 15.1934 6.87181 15.4109 6.80371 15.6659C6.73562 15.9209 6.77161 16.1926 6.90378 16.421C7.51583 17.4795 8.39555 18.3583 9.45463 18.9693C10.5137 19.5803 11.7149 19.9019 12.9375 19.9019C14.1602 19.9019 15.3614 19.5802 16.4204 18.9692C17.4795 18.3582 18.3592 17.4794 18.9712 16.4209C19.1034 16.1925 19.1393 15.9209 19.0712 15.6659C19.0031 15.4109 18.8366 15.1934 18.6081 15.0612V15.0611Z" fill="#66193E"/>
</svg>
