<svg width="14" height="25" viewBox="0 0 14 25" fill="none" xmlns="http://www.w3.org/2000/svg">
<path d="M12.9774 0.185542V4.15136H10.6186C10.3059 4.11139 9.98827 4.13916 9.68729 4.23278C9.3863 4.3264 9.10897 4.48368 8.87413 4.69395L8.87622 4.69187C8.53864 5.16544 8.37929 5.74309 8.42631 6.32276V6.31443V9.15341H12.8306L12.2474 13.6004H8.43256V25H3.83251V13.5993H0V9.15341H3.83251V5.87807C3.78269 5.08699 3.89581 4.2941 4.16488 3.54852C4.43395 2.80294 4.85323 2.12054 5.39676 1.54358L5.39363 1.54671C5.94839 1.02105 6.60415 0.613557 7.32113 0.348963C8.03811 0.0843686 8.80137 -0.0318168 9.56461 0.00745488H9.55107C10.7365 -0.0120998 11.9219 0.0522834 13.0982 0.200122L12.9764 0.187625L12.9774 0.185542Z" fill="#66193E"/>
</svg>
