<svg width="21" height="28" viewBox="0 0 21 28" fill="none" xmlns="http://www.w3.org/2000/svg">
<path d="M10.104 28C9.28722 28 8.47105 27.7651 7.76162 27.2958C5.73152 25.9529 4.27778 24.4934 3.31733 22.8341C2.38122 21.2167 1.88399 19.3699 1.80398 17.2047C-0.581107 14.0835 -0.6061 9.73304 1.75843 6.57689C2.41956 5.69448 3.22551 4.95432 4.15402 4.37697L6.486 2.92689C6.84236 1.2567 8.3294 0 10.1044 0C11.0383 0 11.9303 0.349189 12.616 0.983252L16.28 4.37106C16.4463 4.52485 16.4564 4.78435 16.3027 4.95071C16.1488 5.11702 15.8893 5.12719 15.723 4.97341L12.0591 1.58559C11.5254 1.09208 10.8312 0.820333 10.1044 0.820333C8.51682 0.820333 7.22523 2.11192 7.22523 3.69954C7.22523 4.22975 7.37038 4.74776 7.64508 5.19758C7.7631 5.3909 7.70207 5.64335 7.50874 5.76142C7.31536 5.87944 7.06297 5.81841 6.94495 5.62508C6.63312 5.1144 6.45106 4.53579 6.41261 3.93864L4.58726 5.07365C3.74566 5.59697 3.01479 6.26822 2.41502 7.06881C2.41393 7.07018 2.41289 7.0716 2.41185 7.07302C2.41119 7.0739 2.41037 7.07499 2.40972 7.07587C2.40933 7.07641 2.40906 7.07674 2.40868 7.07723C0.518795 9.60676 0.31929 12.9858 1.79458 15.6887C1.8263 14.1796 2.24838 12.4303 4.70315 10.7181C5.42581 10.214 7.73384 8.68853 9.3558 7.62341C8.95515 7.36331 8.53361 7.09009 8.09025 6.80324C7.90004 6.68019 7.84562 6.42627 7.96867 6.23606C8.09167 6.0458 8.3457 5.99139 8.53585 6.11449C12.0648 8.39764 14.2144 9.81742 15.5056 10.7181C17.9604 12.4303 18.3825 14.1795 18.4142 15.6886C19.891 12.9827 19.6894 9.59899 17.7937 7.06876C17.5015 6.67866 17.1851 6.32526 16.8533 6.01846C16.687 5.86467 16.6768 5.60517 16.8306 5.43881C16.9844 5.27245 17.2438 5.26227 17.4102 5.41611C17.7784 5.75661 18.1283 6.14709 18.4503 6.57683C20.8124 9.72959 20.7887 14.0847 18.4046 17.2049C18.3017 19.9465 17.521 22.2155 16.0266 24.1247C15.8871 24.303 15.6293 24.3345 15.4509 24.1949C15.2725 24.0552 15.2411 23.7974 15.3807 23.6191C16.8921 21.6881 17.596 19.4486 17.596 16.5713V15.8902C17.596 14.4806 17.286 12.9599 15.0364 11.3909C14.0193 10.6815 12.4623 9.64526 10.107 8.11168C8.19098 9.36826 5.84997 10.9184 5.17249 11.3909C2.92297 12.96 2.61289 14.4806 2.61289 15.8902V16.5713C2.61289 18.8644 3.07561 20.7786 4.02747 22.4231C4.92289 23.9702 6.29246 25.3402 8.21434 26.6116C9.34568 27.36 10.8142 27.3698 11.9555 26.6367L11.9989 26.6088C12.9637 25.9705 13.7038 25.3917 14.3238 24.79C14.4864 24.6322 14.746 24.6361 14.9038 24.7986C15.0615 24.9612 15.0577 25.2209 14.8951 25.3786C14.2377 26.0167 13.4599 26.6258 12.4473 27.2957L12.3993 27.3266C11.7 27.7758 10.9017 27.9999 10.104 28V28ZM10.1044 25.4945C9.42378 25.4945 8.83587 25.3206 8.25426 24.9471C8.06367 24.8247 8.00838 24.571 8.13077 24.3803C8.25327 24.1897 8.50698 24.1345 8.69757 24.2568C9.14705 24.5455 9.5809 24.6742 10.1044 24.6742C10.6278 24.6742 11.0617 24.5455 11.5111 24.2569C11.7018 24.1345 11.9555 24.1898 12.0779 24.3804C12.2003 24.571 12.145 24.8247 11.9545 24.9472C11.3729 25.3206 10.785 25.4945 10.1044 25.4945V25.4945ZM11.6718 23.4277H8.53623C7.88336 23.4277 7.24941 23.1512 6.79702 22.6691C6.64203 22.5039 6.65024 22.2443 6.81545 22.0893C6.98067 21.9343 7.24022 21.9425 7.39521 22.1078C7.69315 22.4253 8.10901 22.6074 8.53618 22.6074H11.6718C12.0994 22.6074 12.5155 22.4253 12.8134 22.1078C12.9685 21.9426 13.228 21.9344 13.3932 22.0893C13.5584 22.2443 13.5667 22.5039 13.4116 22.6691C12.9594 23.1512 12.3252 23.4277 11.6718 23.4277V23.4277ZM10.1044 21.3789C8.89926 21.3789 8.33646 20.5102 8.3131 20.4732C8.19213 20.2817 8.24928 20.0283 8.44075 19.9073C8.63112 19.7869 8.8828 19.8428 9.00459 20.0318C9.02362 20.0602 9.36827 20.5585 10.1044 20.5585C10.8506 20.5585 11.199 20.0401 11.2023 20.0349C11.3233 19.8434 11.5767 19.7863 11.7682 19.9073C11.9596 20.0283 12.0168 20.2816 11.8958 20.4732C11.8723 20.5102 11.3095 21.3789 10.1044 21.3789V21.3789ZM13.9072 18.8614C12.2689 18.8614 10.9361 17.5285 10.9361 15.8902C10.9361 14.252 12.269 12.9191 13.9072 12.9191C15.5455 12.9191 16.8784 14.2519 16.8784 15.8902C16.8784 17.5286 15.5455 18.8614 13.9072 18.8614V18.8614ZM13.9072 13.7394C12.7212 13.7394 11.7564 14.7043 11.7564 15.8902C11.7564 17.0762 12.7213 18.041 13.9072 18.041C15.0932 18.041 16.058 17.0762 16.058 15.8902C16.058 14.7043 15.0932 13.7394 13.9072 13.7394V13.7394ZM6.30148 18.8614C4.66317 18.8614 3.33035 17.5285 3.33035 15.8902C3.33035 14.252 4.66317 12.9191 6.30148 12.9191C7.9398 12.9191 9.27262 14.2519 9.27262 15.8902C9.27262 17.5286 7.9398 18.8614 6.30148 18.8614V18.8614ZM6.30148 13.7394C5.1155 13.7394 4.15068 14.7043 4.15068 15.8902C4.15068 17.0762 5.1155 18.041 6.30148 18.041C7.48747 18.041 8.45229 17.0762 8.45229 15.8902C8.45229 14.7043 7.48747 13.7394 6.30148 13.7394V13.7394ZM13.9072 17.2207C13.6807 17.2207 13.4971 17.0371 13.4971 16.8105V16.6587C13.4971 16.4322 13.6807 16.2486 13.9072 16.2486C14.1337 16.2486 14.3174 16.4322 14.3174 16.6587V16.8105C14.3174 17.0371 14.1338 17.2207 13.9072 17.2207ZM6.30148 17.2207C6.07496 17.2207 5.89132 17.0371 5.89132 16.8105V16.6587C5.89132 16.4322 6.07496 16.2486 6.30148 16.2486C6.52801 16.2486 6.71165 16.4322 6.71165 16.6587V16.8105C6.71165 17.0371 6.52801 17.2207 6.30148 17.2207ZM6.96738 15.9163C6.82562 15.9163 6.68781 15.8427 6.61184 15.7111C6.49853 15.515 6.56574 15.2641 6.76191 15.1508L6.89333 15.0749C7.08944 14.9617 7.34035 15.0288 7.45367 15.225C7.56698 15.4212 7.49977 15.672 7.3036 15.7853L7.17219 15.8612C7.10754 15.8985 7.03699 15.9163 6.96738 15.9163V15.9163ZM14.5731 15.9163C14.4314 15.9163 14.2935 15.8427 14.2175 15.7111C14.1043 15.515 14.1715 15.2641 14.3677 15.1508L14.4991 15.0749C14.6952 14.9617 14.9462 15.0288 15.0594 15.2251C15.1727 15.4212 15.1055 15.6721 14.9093 15.7853L14.7778 15.8613C14.7133 15.8985 14.6427 15.9163 14.5731 15.9163ZM13.2413 15.9163C13.1718 15.9163 13.1012 15.8986 13.0366 15.8613L12.9052 15.7853C12.709 15.6721 12.6418 15.4212 12.755 15.2251C12.8683 15.0288 13.1191 14.9616 13.3153 15.0749L13.4468 15.1508C13.643 15.2641 13.7102 15.515 13.5969 15.7111C13.521 15.8427 13.3831 15.9163 13.2413 15.9163ZM5.63559 15.9163C5.56603 15.9163 5.49548 15.8986 5.43089 15.8613L5.29942 15.7853C5.10325 15.6721 5.03604 15.4212 5.1493 15.2251C5.26256 15.0288 5.51336 14.9616 5.70959 15.0749L5.84106 15.1508C6.03723 15.2641 6.10444 15.515 5.99118 15.7111C5.91522 15.8427 5.77735 15.9163 5.63559 15.9163Z" fill="#66193E"/>
</svg>
