<svg width="325" height="108" viewBox="0 0 325 108" fill="none" xmlns="http://www.w3.org/2000/svg">
<path d="M126.05 32.9224C127.747 32.6307 129.974 32.3921 132.784 32.3921C136.258 32.3921 138.803 33.1875 140.42 34.6458C141.905 35.9449 142.806 37.907 142.806 40.3462C142.806 42.812 142.091 44.7475 140.712 46.1527C138.856 48.1413 135.833 49.1488 132.387 49.1488C131.326 49.1488 130.372 49.0958 129.55 48.9102V59.8073H126.05V32.9224ZM129.55 46.0467C130.319 46.2588 131.273 46.3383 132.466 46.3383C136.708 46.3383 139.28 44.2703 139.28 40.5318C139.28 36.9525 136.735 35.2025 132.864 35.2025C131.326 35.2025 130.159 35.3351 129.55 35.4942V46.0467V46.0467Z" fill="#C397AC"/>
<path d="M163.116 54.478C163.116 56.493 163.169 58.2694 163.275 59.8072H160.146L159.934 56.6256H159.855C158.927 58.1899 156.859 60.258 153.385 60.258C150.31 60.258 146.651 58.5611 146.651 51.694V40.2666H150.204V51.0842C150.204 54.7961 151.344 57.2884 154.552 57.2884C156.938 57.2884 158.582 55.6446 159.245 54.0538C159.457 53.5235 159.563 52.8872 159.563 52.2508V40.2666H163.116V54.478V54.478Z" fill="#C397AC"/>
<path d="M169.029 46.3648C169.029 44.0581 168.976 42.0961 168.87 40.2666H171.972L172.104 44.1111H172.263C173.138 41.4863 175.286 39.8424 177.672 39.8424C178.07 39.8424 178.362 39.8954 178.68 39.975V43.3157C178.309 43.2362 177.964 43.1831 177.46 43.1831C174.968 43.1831 173.191 45.0921 172.688 47.7435C172.608 48.2208 172.529 48.8041 172.529 49.3874V59.8073H169.029V46.3648V46.3648Z" fill="#C397AC"/>
<path d="M183.797 50.6865C183.876 55.4855 186.952 57.474 190.505 57.474C193.05 57.474 194.588 57.0233 195.914 56.4665L196.524 59.0118C195.277 59.5686 193.13 60.2315 190.028 60.2315C184.009 60.2315 180.43 56.2809 180.43 50.3949C180.43 44.5088 183.903 39.8689 189.577 39.8689C195.94 39.8689 197.637 45.4898 197.637 49.0692C197.637 49.785 197.558 50.3683 197.505 50.713H183.797V50.6865ZM194.19 48.1412C194.243 45.8875 193.262 42.3612 189.259 42.3612C185.679 42.3612 184.089 45.6754 183.823 48.1412H194.19Z" fill="#C397AC"/>
<path d="M210.708 32.9489C212.246 32.6307 214.659 32.3921 217.124 32.3921C220.624 32.3921 222.904 33.0019 224.601 34.3806C226.006 35.4412 226.855 37.032 226.855 39.1796C226.855 41.8045 225.131 44.1112 222.241 45.1452V45.2247C224.813 45.8611 227.862 48.0087 227.862 52.0388C227.862 54.372 226.934 56.1484 225.556 57.4741C223.647 59.1975 220.598 60.0194 216.143 60.0194C213.731 60.0194 211.875 59.8603 210.708 59.7013V32.9489V32.9489ZM214.208 44.1112H217.389C221.101 44.1112 223.276 42.1757 223.276 39.5508C223.276 36.3692 220.863 35.123 217.31 35.123C215.693 35.123 214.765 35.2556 214.208 35.3616V44.1112ZM214.208 57.1294C214.897 57.262 215.905 57.2885 217.151 57.2885C220.783 57.2885 224.124 55.9628 224.124 52.0123C224.124 48.3003 220.942 46.7625 217.098 46.7625H214.181V57.1294H214.208Z" fill="#C397AC"/>
<path d="M234.597 50.6865C234.677 55.4855 237.752 57.474 241.305 57.474C243.851 57.474 245.388 57.0233 246.714 56.4665L247.324 59.0118C246.078 59.5686 243.93 60.2315 240.828 60.2315C234.809 60.2315 231.23 56.2809 231.23 50.3949C231.23 44.5088 234.703 39.8689 240.377 39.8689C246.741 39.8689 248.437 45.4898 248.437 49.0692C248.437 49.785 248.358 50.3683 248.305 50.713H234.597V50.6865ZM244.991 48.1412C245.044 45.8875 244.063 42.3612 240.059 42.3612C236.48 42.3612 234.889 45.6754 234.624 48.1412H244.991Z" fill="#C397AC"/>
<path d="M263.656 59.8072L263.365 57.3415H263.232C262.145 58.8793 260.05 60.258 257.266 60.258C253.316 60.258 251.301 57.474 251.301 54.6371C251.301 49.9176 255.49 47.3458 263.046 47.3723V46.9746C263.046 45.3572 262.596 42.4672 258.619 42.4672C256.816 42.4672 254.907 43.024 253.528 43.9255L252.733 41.5923C254.35 40.5317 256.683 39.8689 259.149 39.8689C265.114 39.8689 266.573 43.952 266.573 47.8495V55.1408C266.573 56.8377 266.652 58.4816 266.891 59.8338H263.656V59.8072ZM263.126 49.8381C259.255 49.7585 254.854 50.4479 254.854 54.2394C254.854 56.5461 256.391 57.6331 258.194 57.6331C260.74 57.6331 262.357 56.0158 262.914 54.3719C263.046 54.0007 263.126 53.603 263.126 53.2318V49.8381V49.8381Z" fill="#C397AC"/>
<path d="M288.632 54.478C288.632 56.493 288.685 58.2694 288.791 59.8072H285.636L285.424 56.6256H285.344C284.416 58.1899 282.348 60.258 278.875 60.258C275.8 60.258 272.141 58.5611 272.141 51.694V40.2666H275.693V51.0842C275.693 54.7961 276.834 57.2884 280.042 57.2884C282.428 57.2884 284.072 55.6446 284.735 54.0538C284.947 53.5235 285.053 52.8872 285.053 52.2508V40.2666H288.606V54.478H288.632Z" fill="#C397AC"/>
<path d="M298.787 34.6458V40.2667H303.878V42.9711H298.787V53.497C298.787 55.9098 299.476 57.2885 301.438 57.2885C302.366 57.2885 303.056 57.1559 303.506 57.0499L303.666 59.7013C302.976 59.9929 301.889 60.1785 300.51 60.1785C298.867 60.1785 297.514 59.6482 296.666 58.6937C295.658 57.6332 295.287 55.9098 295.287 53.6031V42.9446H292.265V40.2402H295.287V35.5472L298.787 34.6458Z" fill="#C397AC"/>
<path d="M309.525 40.2666L313.794 51.8001C314.245 53.0993 314.722 54.6371 315.04 55.8037H315.12C315.491 54.6371 315.888 53.1523 316.366 51.7205L320.237 40.2666H324.002L318.672 54.1863C316.127 60.8943 314.404 64.3146 311.964 66.4092C310.241 67.947 308.491 68.5568 307.616 68.7159L306.741 65.7198C307.616 65.4282 308.809 64.8714 309.843 63.9964C310.824 63.2275 312.017 61.8488 312.839 60.0459C312.998 59.6747 313.131 59.4095 313.131 59.1974C313.131 58.9853 313.051 58.7202 312.892 58.2694L305.681 40.2666H309.525V40.2666Z" fill="#C397AC"/>
<path d="M131.326 79.6662C131.618 80.0373 131.75 80.4881 131.75 81.0449C131.75 81.7873 131.459 82.3706 130.902 82.7683C130.345 83.166 129.523 83.3781 128.463 83.3781H124.353V74.7611H128.198C129.179 74.7611 129.947 74.9467 130.478 75.3444C131.008 75.7421 131.273 76.2724 131.273 76.9883C131.273 77.439 131.167 77.8367 130.955 78.1549C130.743 78.473 130.478 78.7382 130.107 78.8973C130.637 79.0298 131.034 79.295 131.326 79.6662ZM125.599 75.7686V78.5261H128.118C128.754 78.5261 129.232 78.42 129.576 78.1814C129.921 77.9428 130.08 77.5981 130.08 77.1473C130.08 76.6966 129.921 76.3519 129.576 76.1133C129.232 75.8747 128.754 75.7686 128.118 75.7686H125.599ZM129.974 82.0259C130.319 81.7873 130.504 81.4426 130.504 80.9388C130.504 79.9843 129.815 79.5071 128.41 79.5071H125.599V82.3706H128.41C129.099 82.3706 129.629 82.238 129.974 82.0259Z" fill="#C397AC"/>
<path d="M142.992 80.488H137.716C137.795 81.0714 138.034 81.5221 138.458 81.8668C138.882 82.2114 139.413 82.397 140.049 82.397C140.818 82.397 141.454 82.1319 141.931 81.6016L142.594 82.3705C142.303 82.7152 141.931 82.9803 141.507 83.1659C141.057 83.3515 140.579 83.4311 140.049 83.4311C139.36 83.4311 138.75 83.2985 138.22 83.0069C137.689 82.7152 137.265 82.3175 137 81.8137C136.735 81.31 136.576 80.7267 136.576 80.0903C136.576 79.454 136.708 78.8972 137 78.3935C137.292 77.8897 137.663 77.492 138.167 77.2003C138.67 76.9087 139.227 76.7761 139.837 76.7761C140.447 76.7761 141.003 76.9087 141.507 77.2003C141.984 77.492 142.382 77.8897 142.647 78.3935C142.912 78.8972 143.045 79.4805 143.045 80.1434C143.019 80.2229 143.019 80.3555 142.992 80.488ZM138.405 78.2874C138.034 78.6321 137.795 79.0828 137.742 79.6396H141.905C141.852 79.0828 141.613 78.6321 141.242 78.2874C140.871 77.9427 140.394 77.7571 139.837 77.7571C139.28 77.7571 138.776 77.9692 138.405 78.2874Z" fill="#C397AC"/>
<path d="M162.878 74.7611V83.3516H161.87L156.726 76.9617V83.3516H155.507V74.7611H156.514L161.658 81.1509V74.7611H162.878Z" fill="#C397AC"/>
<path d="M174.809 80.488H169.533C169.612 81.0714 169.851 81.5221 170.275 81.8668C170.699 82.2114 171.23 82.397 171.866 82.397C172.635 82.397 173.271 82.1319 173.748 81.6016L174.411 82.3705C174.12 82.7152 173.748 82.9803 173.324 83.1659C172.873 83.3515 172.396 83.4311 171.866 83.4311C171.177 83.4311 170.567 83.2985 170.036 83.0069C169.506 82.7152 169.082 82.3175 168.817 81.8137C168.552 81.31 168.393 80.7267 168.393 80.0903C168.393 79.454 168.525 78.8972 168.817 78.3935C169.108 77.8897 169.48 77.492 169.983 77.2003C170.487 76.9087 171.044 76.7761 171.654 76.7761C172.264 76.7761 172.82 76.9087 173.324 77.2003C173.801 77.492 174.199 77.8897 174.464 78.3935C174.729 78.8972 174.862 79.4805 174.862 80.1434C174.835 80.2229 174.835 80.3555 174.809 80.488ZM170.196 78.2874C169.824 78.6321 169.586 79.0828 169.533 79.6396H173.695C173.642 79.0828 173.404 78.6321 173.032 78.2874C172.661 77.9427 172.184 77.7571 171.627 77.7571C171.07 77.7571 170.593 77.9692 170.196 78.2874Z" fill="#C397AC"/>
<path d="M189.868 76.8556L187.429 83.3515H186.289L184.407 78.4199L182.498 83.3515H181.358L178.945 76.8556H180.058L181.941 82.0258L183.903 76.8556H184.884L186.819 82.0523L188.755 76.8556H189.868Z" fill="#C397AC"/>
<path d="M203.099 75.8217V78.8177H207.394V79.8783H203.099V83.3516H201.879V74.7611H207.951V75.8217H203.099Z" fill="#C397AC"/>
<path d="M213.174 74.2573H214.341V83.3515H213.174V74.2573Z" fill="#C397AC"/>
<path d="M221.314 83.0069C220.81 82.7152 220.386 82.3175 220.094 81.8137C219.802 81.31 219.67 80.7532 219.67 80.0903C219.67 79.454 219.802 78.8707 220.094 78.3669C220.386 77.8632 220.784 77.4655 221.314 77.2003C221.818 76.9087 222.401 76.7761 223.064 76.7761C223.7 76.7761 224.283 76.9087 224.787 77.2003C225.291 77.492 225.689 77.8632 225.98 78.3669C226.272 78.8707 226.404 79.4275 226.404 80.0903C226.404 80.7267 226.272 81.31 225.98 81.8137C225.689 82.3175 225.291 82.7152 224.787 83.0069C224.283 83.2985 223.7 83.4311 223.064 83.4311C222.427 83.4311 221.844 83.272 221.314 83.0069ZM224.177 82.1054C224.495 81.9198 224.761 81.6547 224.946 81.2835C225.132 80.9388 225.238 80.5411 225.238 80.0903C225.238 79.6396 225.132 79.2419 224.946 78.8972C224.761 78.5525 224.495 78.2874 224.177 78.1018C223.859 77.9162 223.461 77.8102 223.064 77.8102C222.666 77.8102 222.268 77.9162 221.95 78.1018C221.632 78.2874 221.367 78.5525 221.155 78.8972C220.969 79.2419 220.863 79.6396 220.863 80.0903C220.863 80.5411 220.969 80.9388 221.155 81.2835C221.34 81.6281 221.605 81.8933 221.95 82.1054C222.295 82.3175 222.666 82.397 223.064 82.397C223.461 82.397 223.859 82.291 224.177 82.1054Z" fill="#C397AC"/>
<path d="M241.385 76.8556L238.946 83.3515H237.832L235.95 78.4199L234.041 83.3515H232.901L230.488 76.8556H231.601L233.484 82.0258L235.446 76.8556H236.427L238.362 82.0523L240.298 76.8556H241.385Z" fill="#C397AC"/>
<path d="M251.937 80.488H246.661C246.741 81.0714 246.979 81.5221 247.403 81.8668C247.828 82.2114 248.358 82.397 248.994 82.397C249.763 82.397 250.4 82.1319 250.877 81.6016L251.54 82.3705C251.248 82.7152 250.877 82.9803 250.453 83.1659C250.002 83.3515 249.525 83.4311 248.994 83.4311C248.305 83.4311 247.695 83.2985 247.165 83.0069C246.635 82.7152 246.21 82.3175 245.945 81.8137C245.68 81.31 245.521 80.7267 245.521 80.0903C245.521 79.454 245.654 78.8972 245.945 78.3935C246.237 77.8897 246.608 77.492 247.112 77.2003C247.616 76.9087 248.172 76.7761 248.782 76.7761C249.392 76.7761 249.949 76.9087 250.453 77.2003C250.93 77.492 251.328 77.8897 251.593 78.3935C251.858 78.8972 251.99 79.4805 251.99 80.1434C251.964 80.2229 251.937 80.3555 251.937 80.488ZM247.324 78.2874C246.953 78.6321 246.714 79.0828 246.661 79.6396H250.824C250.771 79.0828 250.532 78.6321 250.161 78.2874C249.79 77.9427 249.312 77.7571 248.756 77.7571C248.199 77.7571 247.695 77.9692 247.324 78.2874Z" fill="#C397AC"/>
<path d="M259.308 77.0943C259.706 76.9087 260.183 76.8026 260.766 76.8026V77.9427C260.713 77.9427 260.607 77.9427 260.501 77.9427C259.865 77.9427 259.361 78.1283 258.99 78.526C258.619 78.8972 258.433 79.454 258.433 80.1433V83.378H257.267V76.8822H258.407V77.9692C258.592 77.5715 258.91 77.2799 259.308 77.0943Z" fill="#C397AC"/>
<path d="M274.845 75.8217H271.902V74.7611H279.008V75.8217H276.065V83.3516H274.845V75.8217V75.8217Z" fill="#C397AC"/>
<path d="M284.204 83.0069C283.701 82.7152 283.276 82.3175 282.985 81.8137C282.693 81.31 282.561 80.7532 282.561 80.0903C282.561 79.454 282.693 78.8707 282.985 78.3669C283.276 77.8632 283.674 77.4655 284.204 77.2003C284.708 76.9087 285.291 76.7761 285.954 76.7761C286.591 76.7761 287.174 76.9087 287.678 77.2003C288.181 77.492 288.579 77.8632 288.871 78.3669C289.162 78.8707 289.295 79.4275 289.295 80.0903C289.295 80.7267 289.162 81.31 288.871 81.8137C288.579 82.3175 288.181 82.7152 287.678 83.0069C287.174 83.2985 286.591 83.4311 285.954 83.4311C285.291 83.4311 284.708 83.272 284.204 83.0069ZM287.068 82.1054C287.386 81.9198 287.651 81.6547 287.837 81.2835C288.022 80.9388 288.128 80.5411 288.128 80.0903C288.128 79.6396 288.022 79.2419 287.837 78.8972C287.651 78.5525 287.386 78.2874 287.068 78.1018C286.75 77.9162 286.352 77.8102 285.954 77.8102C285.557 77.8102 285.159 77.9162 284.841 78.1018C284.523 78.2874 284.257 78.5525 284.045 78.8972C283.86 79.2419 283.754 79.6396 283.754 80.0903C283.754 80.5411 283.86 80.9388 284.045 81.2835C284.231 81.6281 284.496 81.8933 284.841 82.1054C285.185 82.3175 285.557 82.397 285.954 82.397C286.352 82.397 286.723 82.291 287.068 82.1054Z" fill="#C397AC"/>
<path d="M300.749 74.2573V83.3515H299.609V82.3175C299.344 82.6887 299.026 82.9538 298.628 83.1394C298.23 83.325 297.78 83.4311 297.302 83.4311C296.666 83.4311 296.109 83.2985 295.605 83.0069C295.102 82.7417 294.704 82.344 294.439 81.8403C294.147 81.3365 294.015 80.7532 294.015 80.1169C294.015 79.4805 294.147 78.8972 294.439 78.3935C294.731 77.8897 295.102 77.5185 295.605 77.2269C296.109 76.9617 296.666 76.8026 297.302 76.8026C297.78 76.8026 298.204 76.8822 298.602 77.0678C298.999 77.2534 299.317 77.492 299.583 77.8367V74.2573H300.749V74.2573ZM298.522 82.1054C298.867 81.9198 299.132 81.6547 299.317 81.2835C299.503 80.9388 299.609 80.5411 299.609 80.0903C299.609 79.6396 299.503 79.2419 299.317 78.8972C299.132 78.5526 298.867 78.2874 298.522 78.1018C298.177 77.9162 297.806 77.8102 297.408 77.8102C296.984 77.8102 296.613 77.9162 296.295 78.1018C295.977 78.2874 295.712 78.5526 295.499 78.8972C295.314 79.2419 295.208 79.6396 295.208 80.0903C295.208 80.5411 295.314 80.9388 295.499 81.2835C295.685 81.6281 295.95 81.8933 296.295 82.1054C296.64 82.3175 297.011 82.397 297.408 82.397C297.833 82.397 298.204 82.291 298.522 82.1054Z" fill="#C397AC"/>
<path d="M311.116 77.4655C311.593 77.9162 311.832 78.5525 311.832 79.4275V83.3515H310.718V82.5031C310.533 82.7947 310.241 83.0333 309.87 83.1924C309.498 83.3515 309.074 83.4311 308.57 83.4311C307.855 83.4311 307.271 83.2455 306.821 82.9008C306.37 82.5561 306.158 82.0788 306.158 81.5221C306.158 80.9388 306.37 80.488 306.794 80.1433C307.218 79.7987 307.881 79.6131 308.783 79.6131H310.639V79.3744C310.639 78.8707 310.479 78.473 310.188 78.2078C309.896 77.9427 309.472 77.8101 308.889 77.8101C308.491 77.8101 308.12 77.8632 307.749 77.9957C307.377 78.1283 307.059 78.2874 306.821 78.4995L306.317 77.6245C306.662 77.3594 307.059 77.1473 307.51 77.0147C307.987 76.8822 308.464 76.8026 308.995 76.8026C309.949 76.8026 310.639 77.0147 311.116 77.4655ZM309.923 82.2114C310.241 81.9993 310.479 81.7342 310.639 81.363V80.4615H308.836C307.828 80.4615 307.351 80.8062 307.351 81.469C307.351 81.7872 307.483 82.0523 307.722 82.2379C307.987 82.4235 308.332 82.5296 308.783 82.5296C309.233 82.5296 309.605 82.4235 309.923 82.2114Z" fill="#C397AC"/>
<path d="M323.312 76.8556L320.157 84.0143C319.892 84.6771 319.547 85.1544 319.176 85.4195C318.805 85.6847 318.354 85.8172 317.824 85.8172C317.506 85.8172 317.187 85.7642 316.896 85.6582C316.604 85.5521 316.339 85.4195 316.153 85.2074L316.657 84.3325C317.002 84.6506 317.373 84.8097 317.824 84.8097C318.115 84.8097 318.354 84.7302 318.54 84.5711C318.725 84.412 318.911 84.1734 319.07 83.8022L319.282 83.3515L316.418 76.8556H317.638L319.918 82.0523L322.172 76.8556H323.312V76.8556Z" fill="#C397AC"/>
<path d="M118.467 75.3709C97.8654 69.0341 79.8626 95.4418 57.9092 88.7603C37.7587 82.6091 38.0769 60.1785 38.289 56.2014C38.289 55.9628 38.0239 55.8567 37.8648 56.0158C35.8762 58.1634 31.7666 66.913 36.4596 80.1964C42.213 96.5288 59.8712 98.2788 60.7196 98.3318C60.7196 98.3318 60.6931 98.3318 60.6136 98.3318C30.6796 97.2182 31.1833 68.822 31.475 64.076C31.5015 63.8639 31.2098 63.7313 31.0773 63.9169C26.2783 69.2462 25.0852 75.1588 25.4298 80.4085C25.9866 89.0254 30.7591 96.794 38.0239 101.434C66.0489 119.304 92.8013 91.2526 100.914 83.9613C108.444 77.1738 116.292 75.8481 118.44 75.6095C118.573 75.583 118.573 75.4239 118.467 75.3709Z" fill="#66193E"/>
<path d="M43.9366 46.471C42.2398 49.3344 40.1717 56.6522 40.9671 62.3792C43.3533 79.295 51.9968 82.7418 55.258 84.5447C55.3906 84.6242 55.5497 84.5447 55.5762 84.4121C55.6027 84.3326 55.6027 84.2531 55.5231 84.2C51.7582 80.0639 52.8453 72.9317 52.8453 72.9317C55.5231 60.8414 50.2469 55.1409 50.2469 55.1409C48.2849 52.7547 48.0463 49.7587 48.0728 48.2474C48.0728 48.0353 47.7811 47.9557 47.6751 48.1678C44.2548 55.9098 47.3569 69.1667 47.3569 69.1667C45.1298 65.5078 42.8231 53.6562 45.4744 47.1338C48.1258 40.5849 45.9252 39.1797 45.9252 39.1797C45.5275 38.8085 44.9972 38.6229 44.4139 38.6759C43.4329 38.782 42.664 39.6039 42.664 40.5849C42.6375 41.672 43.5389 42.5204 44.626 42.5734C44.7851 42.5734 44.9442 42.5469 45.1032 42.4939C45.4214 42.3878 45.7396 42.706 45.607 43.0242C45.3684 43.7665 44.8646 44.9066 43.9366 46.471Z" fill="#66193E"/>
<path d="M26.0132 13.3022C31.6341 12.4008 33.0128 13.1696 36.6717 14.3363C38.4747 14.9196 40.8079 15.5824 44.4403 16.1922C54.3829 17.8626 61.4091 15.1052 64.4581 13.6204C66.6058 12.5863 68.9655 12.0826 71.3517 12.2417C72.3858 12.3212 73.2607 12.4803 74.0296 12.7454C79.2528 14.5219 78.8286 20.1428 78.7225 20.9647H78.7491C78.7491 20.9647 78.7491 20.9647 78.7756 20.9647C80.6581 17.9952 80.0217 14.1241 77.4234 11.7644C67.4807 2.77626 47.9136 7.54873 47.9136 7.54873C60.4015 3.0414 69.7344 5.82534 72.1206 6.72681C72.1471 6.72681 72.2002 6.72681 72.2002 6.70029C72.2267 6.67378 72.2532 6.59424 72.2002 6.56772C64.9884 1.10589 57.8032 -0.431907 51.3073 0.0983682C38.5807 1.1324 28.479 10.0941 25.7216 12.7454C25.5094 12.9575 25.695 13.3552 26.0132 13.3022Z" fill="#66193E"/>
<path d="M58.2806 26.0553C56.8754 18.2073 50.0083 19.2148 50.0083 19.2148C50.8302 26.1614 58.2806 26.0553 58.2806 26.0553Z" fill="#66193E"/>
<path d="M58.3337 27.3015C51.4136 28.5477 52.0235 35.998 52.0235 35.998C59.7655 34.089 58.3337 27.3015 58.3337 27.3015Z" fill="#66193E"/>
<path d="M48.1791 26.8242C48.1791 26.8242 48.1791 26.8507 48.1791 26.8242C48.6563 18.9231 41.7892 18.2867 41.7892 18.2867C40.9673 25.1273 47.9669 26.7977 48.1791 26.8242Z" fill="#66193E"/>
<path d="M47.9135 28.0703C40.9404 27.6726 39.8003 34.9904 39.8003 34.9904C47.7279 34.9639 47.9135 28.0703 47.9135 28.0703Z" fill="#66193E"/>
<path d="M29.7256 22.7942C29.7256 22.7942 29.7256 22.8207 29.7256 22.7942C31.4224 16.2983 25.828 14.6279 25.828 14.6279C23.9986 20.1958 29.5665 22.7411 29.7256 22.7942Z" fill="#66193E"/>
<path d="M24.1308 21.548C20.631 14.2037 14.1616 16.9876 14.1616 16.9876C16.813 23.6426 24.1308 21.548 24.1308 21.548Z" fill="#66193E"/>
<path d="M28.8237 24.1729C23.5209 21.5215 20.1802 26.8508 20.1802 26.8508C26.3844 29.4756 28.8237 24.1729 28.8237 24.1729Z" fill="#66193E"/>
<path d="M66.3938 39.0736C66.3142 38.9941 66.1551 39.0736 66.1817 39.2062C66.4998 40.3728 67.4013 41.9371 69.814 42.8916C71.5905 43.6075 72.9957 43.4484 74.0562 43.0242C74.1623 42.9711 74.2683 42.9181 74.3744 42.8916C74.4805 42.8386 74.4539 42.6795 74.3214 42.653C70.3443 42.3348 67.6399 40.2932 66.3938 39.0736Z" fill="#66193E"/>
<path d="M38.8725 25.4986C40.755 18.2073 34.6038 16.2718 34.4182 16.2188C32.3502 22.529 38.6869 25.419 38.8725 25.4986Z" fill="#66193E"/>
<path d="M29.4336 31.6498C36.937 33.0815 38.3952 26.6121 38.3952 26.6121C31.8729 24.9418 29.4336 31.6498 29.4336 31.6498Z" fill="#66193E"/>
<path d="M64.1401 30.9073C70.3443 27.8582 67.905 22.3699 67.905 22.3699C62.2576 24.7031 64.1401 30.9073 64.1401 30.9073Z" fill="#66193E"/>
<path d="M59.3413 17.0141C61.3033 22.7941 67.6136 21.3093 67.6136 21.3093C64.9887 14.9195 59.3413 17.0141 59.3413 17.0141Z" fill="#66193E"/>
<path d="M67.7988 13.5939C69.5222 18.658 75.0636 17.3588 75.0636 17.3588C72.7304 11.7379 67.7988 13.5939 67.7988 13.5939Z" fill="#66193E"/>
<path d="M72.3596 25.4455C77.8214 22.7676 75.6473 17.9421 75.6473 17.9421C70.6892 19.9837 72.3596 25.4455 72.3596 25.4455Z" fill="#66193E"/>
<path d="M18.5098 39.3652C27.1267 38.9145 26.9942 31.4376 26.9942 31.4376C19.3847 31.3581 18.5098 39.3652 18.5098 39.3652Z" fill="#66193E"/>
<path d="M14.0557 22.6616C12.4118 24.8092 10.1847 28.2295 8.62035 32.8694C7.02953 37.6154 6.76439 41.7515 6.81742 44.5089C4.96145 34.8314 10.6089 23.9608 12.0671 21.3624C12.1202 21.2564 11.9876 21.1238 11.8815 21.2033C8.48778 24.1464 -9.96579 41.778 7.21512 63.7049C7.21512 63.7049 8.35522 57.4742 9.8665 53.4706C11.2982 49.7587 21.2674 35.7064 14.0557 22.6616Z" fill="#66193E"/>
<path d="M26.5438 66.8335C35.5055 55.5386 42.3195 50.3419 40.5166 38.4373C40.4901 38.2517 40.3045 38.1456 40.1189 38.1986C37.8652 39.0471 24.9265 44.5885 17.9003 60.4702C17.9003 60.4702 21.7183 43.2893 38.3425 35.8654C42.0013 34.2216 26.6764 37.032 20.1805 42.5469C9.17732 51.9063 8.01072 68.663 13.1279 80.2229C15.4876 85.5787 18.9344 89.2376 21.4267 91.4117C21.4267 91.4117 17.2375 78.5261 26.5438 66.8335Z" fill="#66193E"/>
<path d="M77.4502 24.332C77.4502 24.332 88.7716 29.7408 81.6924 48.38C81.6924 48.38 76.9464 58.2961 76.1245 65.2692C75.8329 63.1481 75.9389 60.921 76.3101 58.7733C76.4957 57.7393 76.7078 56.7053 76.9729 55.6712C77.132 55.0349 77.5297 54.4781 78.06 54.0804C80.0485 52.5956 79.7834 50.8722 79.5448 49.8647V49.8382C79.3062 48.8307 79.3327 47.7966 79.5978 46.7891C80.3137 44.1112 80.8174 41.3538 80.7114 38.5699C80.6318 36.82 80.2872 35.07 79.6508 33.4527C79.5448 34.8314 79.3062 35.9715 79.3062 35.9715C79.1206 37.4298 77.8479 40.797 77.8479 40.797C76.8139 43.7135 78.0335 47.0277 78.6433 48.433C78.7229 48.5921 78.8024 48.8837 78.8819 49.2284C79.0145 49.8117 79.1471 50.4745 79.1471 50.7927C79.1471 52.1979 78.6168 53.0994 77.4502 53.8153C77.1851 53.9744 76.8934 54.1334 76.5752 54.266C74.7723 55.0879 75.4086 56.9174 75.17 58.137C74.9844 59.065 72.2005 58.9324 70.9013 58.8264C70.7952 58.8264 70.7687 58.9589 70.8483 59.012C71.7232 59.4097 72.333 59.9134 72.6777 60.2581C72.9429 60.5232 73.0754 60.8944 73.0224 61.2656C72.8898 62.1141 72.4391 63.864 71.0073 66.1707C70.0263 67.7085 68.5151 68.1857 67.1629 68.2387C65.8902 68.2918 64.6175 67.9736 63.5305 67.3373C60.8791 65.826 58.3073 65.5343 57.1937 65.5078C57.1141 65.5078 57.0876 65.6139 57.1672 65.6404C57.2997 65.6669 57.4058 65.7199 57.5384 65.773C57.5914 65.7995 57.6444 65.7995 57.6974 65.826C61.9396 67.4168 63.7956 72.0567 63.7956 72.0567C70.7422 84.9954 78.7759 83.4576 80.1016 83.113C80.1016 83.113 80.1016 83.113 80.1281 83.113C80.2076 83.0865 80.2341 83.0069 80.1811 82.9539L80.1546 82.9274L80.1811 82.9539C78.5903 81.4691 78.9084 78.8708 79.5978 76.7231C80.1811 74.9202 81.0826 73.2233 82.2227 71.7386C99.4036 49.5996 97.3355 32.2596 89.6465 24.7032C81.825 16.9612 77.4502 24.332 77.4502 24.332Z" fill="#66193E"/>
<path d="M75.9122 39.0736C75.9122 39.0736 76.3364 38.8084 76.3364 38.2251C76.3629 37.5623 75.8592 36.4752 73.526 34.9374C70.3178 32.8428 66.3672 34.4602 65.015 35.3616C64.9355 35.4147 64.962 35.5207 65.015 35.5472C65.0416 35.5472 65.0681 35.5737 65.0946 35.5472C69.3368 34.5132 72.4654 37.2706 73.7911 38.5168C75.1698 39.7894 75.9122 39.0736 75.9122 39.0736Z" fill="#66193E"/>
</svg>
