<svg width="25" height="25" viewBox="0 0 25 25" fill="none" xmlns="http://www.w3.org/2000/svg">
<path d="M12.5 10.7133V14.9977H19.5922C19.3031 16.8367 17.4477 20.3891 12.5 20.3891C8.23594 20.3891 4.75234 16.857 4.75234 12.4992C4.75234 8.14141 8.23516 4.60938 12.5 4.60938C14.9289 4.60938 16.557 5.63906 17.4844 6.53437L20.8742 3.26719C18.6977 1.23672 15.8773 0 12.5 0C5.59063 0 0 5.58672 0 12.5C0 19.4133 5.59063 25 12.5 25C19.7141 25 24.5039 19.9297 24.5039 12.7852C24.5039 11.9633 24.4141 11.3367 24.3047 10.7141L12.5 10.7133Z" fill="#66193E"/>
</svg>
