<svg width="23" height="27" viewBox="0 0 23 27" fill="none" xmlns="http://www.w3.org/2000/svg">
<path fill-rule="evenodd" clip-rule="evenodd" d="M0 11.0903C0 4.95719 5.12517 0 11.3246 0C17.5415 0 22.6667 4.95719 22.6667 11.0903C22.6667 14.1809 21.5427 17.0502 19.6927 19.4821C17.6517 22.1647 15.1362 24.502 12.3047 26.3366C11.6567 26.7606 11.0718 26.7926 10.3606 26.3366C7.51298 24.502 4.99745 22.1647 2.974 19.4821C1.12264 17.0502 0 14.1809 0 11.0903ZM7.59231 11.4357C7.59231 13.4903 9.26888 15.1062 11.3246 15.1062C13.3817 15.1062 15.0744 13.4903 15.0744 11.4357C15.0744 9.39707 13.3817 7.70245 11.3246 7.70245C9.26888 7.70245 7.59231 9.39707 7.59231 11.4357Z" fill="#02AE47"/>
</svg>
