<svg width="25" height="28" viewBox="0 0 25 28" fill="none" xmlns="http://www.w3.org/2000/svg">
<path d="M17.5626 28C17.4189 28 17.2823 27.9242 17.2076 27.7953C17.1145 27.6345 17.1412 27.4312 17.2726 27.2997C19.4848 25.0875 20.5152 22.4607 20.5152 19.0329C20.5152 18.8063 20.6988 18.6227 20.9254 18.6227C21.1519 18.6227 21.3355 18.8063 21.3355 19.0329C21.3355 22.059 20.5347 24.5821 18.8949 26.6997C20.6583 25.9505 21.9742 24.7962 22.7427 23.3101C23.6832 21.4915 23.815 19.1795 23.1238 16.6242L20.5877 7.24805C20.5592 7.14272 20.5739 7.03039 20.6285 6.93584C20.683 6.84128 20.773 6.77249 20.8785 6.74449C21.0974 6.68641 21.3231 6.81662 21.3812 7.03559C21.3836 7.04494 21.3858 7.05435 21.3876 7.06375L23.9157 16.41C24.6614 19.1667 24.5077 21.683 23.4714 23.6869C22.3978 25.763 20.3916 27.2495 17.6698 27.9857C17.6341 27.9954 17.5982 28 17.5626 28V28ZM6.81797 28C6.78243 28 6.74644 27.9954 6.71084 27.9857C3.98899 27.2495 1.98284 25.763 0.909217 23.687C-0.127109 21.683 -0.28078 19.1667 0.464882 16.4101L2.98985 7.07524C2.9921 7.06129 2.99505 7.04735 2.99877 7.03356C4.1162 2.89231 7.89586 0 12.1902 0C14.034 0 15.8227 0.527952 17.363 1.52676C18.863 2.49949 20.0563 3.86727 20.8136 5.48219C20.9098 5.68727 20.8214 5.93156 20.6164 6.0277C20.4112 6.12411 20.1671 6.03568 20.0709 5.83055C19.3787 4.35454 18.288 3.10428 16.9167 2.21511C15.5097 1.3026 13.8753 0.820311 12.1902 0.820311C8.27966 0.820311 4.83626 3.44421 3.80169 7.20687C3.79945 7.22065 3.79649 7.23443 3.79283 7.24805L1.2567 16.6242C0.565507 19.1795 0.697304 21.4915 1.63782 23.3101C2.40634 24.7963 3.72223 25.9505 5.48568 26.6997C3.84582 24.5821 3.04503 22.059 3.04503 19.0329C3.04503 18.8063 3.22867 18.6227 3.45519 18.6227C3.6817 18.6227 3.86534 18.8063 3.86534 19.0329C3.86534 22.4607 4.89571 25.0875 7.10792 27.2997C7.23934 27.4311 7.26597 27.6345 7.17289 27.7953C7.09825 27.9242 6.96164 28 6.81797 28V28ZM15.1017 27.9999C14.9967 27.9999 14.8917 27.9599 14.8117 27.8799C14.6515 27.7196 14.6515 27.46 14.8117 27.2998C16.0617 26.0498 16.9343 24.6675 17.457 23.083C16.3921 22.6489 15.0932 22.3565 13.6794 22.2342C13.4537 22.2147 13.2866 22.0159 13.3061 21.7902C13.3257 21.5646 13.5244 21.3973 13.7501 21.417C15.2092 21.5432 16.56 21.8438 17.6851 22.2907C17.9332 21.2885 18.0543 20.2078 18.0543 19.033V8.84886C18.0543 7.86181 17.8597 6.90505 17.4888 6.02234C17.0471 8.1307 15.6022 9.91718 13.5655 10.7665L6.32633 13.7852V16.9718C6.32633 17.1984 6.14269 17.382 5.91618 17.382C5.68966 17.382 5.50602 17.1984 5.50602 16.9718V13.5213C5.50591 13.5152 5.50591 13.5089 5.50602 13.5028V8.8488C5.50602 6.68242 6.34854 4.64679 7.87842 3.11691C8.03859 2.95678 8.29831 2.95678 8.45843 3.11691C8.61861 3.27714 8.61861 3.5368 8.45843 3.69698C7.08353 5.07187 6.32633 6.90149 6.32633 8.84875V12.8964L8.31684 12.0663C9.85619 11.422 11.1494 10.3575 12.0574 8.98733C12.962 7.62211 13.4401 6.02179 13.4401 4.35952C13.4401 4.13295 13.6238 3.94936 13.8503 3.94936C14.0768 3.94936 14.2604 4.13295 14.2604 4.35952C14.2604 6.18356 13.7351 7.94045 12.7412 9.44041C12.467 9.85423 12.161 10.2426 11.8261 10.603L13.2498 10.0094C15.3738 9.12361 16.7629 7.07354 16.8091 4.76918C16.5509 4.38839 16.2546 4.02942 15.9222 3.69703C15.762 3.5368 15.762 3.27714 15.9222 3.11696C16.0823 2.95684 16.3421 2.95684 16.5022 3.11696C18.0321 4.64684 18.8746 6.68242 18.8746 8.84886V19.0329C18.8746 22.6423 17.7353 25.5362 15.3917 27.8798C15.3116 27.9599 15.2066 27.9999 15.1017 27.9999V27.9999ZM9.27885 27.9999C9.17391 27.9999 9.06891 27.9599 8.98884 27.8799C6.64527 25.5363 5.50597 22.6424 5.50597 19.0329C5.50597 18.8063 5.68961 18.6228 5.91612 18.6228C6.14264 18.6228 6.32628 18.8063 6.32628 19.0329C6.32628 20.2076 6.4473 21.2884 6.69542 22.2905C8.22305 21.6834 10.1513 21.3512 12.1796 21.35H12.1799C12.4063 21.35 12.5899 21.5334 12.59 21.76C12.5901 21.9865 12.4066 22.1702 12.1801 22.1703C10.2185 22.1715 8.36617 22.4943 6.92346 23.0829C7.44611 24.6675 8.31876 26.0498 9.5688 27.2998C9.72898 27.46 9.72898 27.7197 9.5688 27.8799C9.4888 27.9599 9.38385 27.9999 9.27885 27.9999V27.9999Z" fill="#66193E"/>
</svg>
