<svg width="24" height="24" viewBox="0 0 24 24" fill="none" xmlns="http://www.w3.org/2000/svg">
<g filter="url(#filter0_dd)">
<path d="M12 6C8.6875 6 6 8.6875 6 12C6 15.3125 8.6875 18 12 18C15.3125 18 18 15.3125 18 12C18 8.6875 15.3125 6 12 6ZM12.3263 15.4375H11.3822C11.3609 15.4374 11.3406 15.4289 11.3256 15.4139C11.3106 15.3988 11.3022 15.3784 11.3022 15.3572V14.4134C11.3022 14.3922 11.3106 14.3718 11.3256 14.3568C11.3406 14.3417 11.3609 14.3332 11.3822 14.3331H12.3263C12.3475 14.3332 12.3678 14.3417 12.3828 14.3568C12.3978 14.3718 12.4063 14.3922 12.4062 14.4134V15.3572C12.4063 15.3784 12.3978 15.3988 12.3828 15.4139C12.3678 15.4289 12.3475 15.4374 12.3263 15.4375V15.4375ZM12.8575 12.3438C12.3509 12.6838 12.2812 12.9953 12.2812 13.2812V13.625C12.2812 13.6499 12.2714 13.6737 12.2538 13.6913C12.2362 13.7089 12.2124 13.7188 12.1875 13.7188H11.5C11.4751 13.7188 11.4513 13.7089 11.4337 13.6913C11.4161 13.6737 11.4062 13.6499 11.4062 13.625V13.2812C11.4062 12.5966 11.7213 12.0522 12.3694 11.6169C12.9719 11.2125 13.3125 10.9563 13.3125 10.3928C13.3125 10.0097 13.0938 9.71875 12.6409 9.50344C12.5344 9.45281 12.2972 9.40344 12.0053 9.40688C11.6391 9.41156 11.3547 9.49906 11.1356 9.67531C10.7225 10.0078 10.6875 10.37 10.6875 10.375C10.6703 10.4812 10.6616 10.5886 10.6613 10.6962C10.6613 10.7211 10.6514 10.745 10.6338 10.7625C10.6162 10.7801 10.5924 10.79 10.5675 10.79H9.90344C9.88016 10.7901 9.85768 10.7816 9.84035 10.7661C9.82302 10.7505 9.81209 10.7291 9.80969 10.7059C9.79844 10.5811 9.79938 10.4555 9.8125 10.3309C9.81937 10.255 9.86875 9.57094 10.5866 8.99344C10.9588 8.69406 11.4322 8.53844 11.9928 8.53156C12.3897 8.52687 12.7625 8.59406 13.0153 8.71344C13.7719 9.07313 14.1875 9.66969 14.1875 10.3928C14.1875 11.45 13.4809 11.9247 12.8575 12.3438Z" fill="#66193E"/>
</g>
<defs>
<filter id="filter0_dd" x="0" y="0" width="24" height="24" filterUnits="userSpaceOnUse" color-interpolation-filters="sRGB">
<feFlood flood-opacity="0" result="BackgroundImageFix"/>
<feColorMatrix in="SourceAlpha" type="matrix" values="0 0 0 0 0 0 0 0 0 0 0 0 0 0 0 0 0 0 127 0"/>
<feOffset dx="2" dy="2"/>
<feGaussianBlur stdDeviation="2"/>
<feColorMatrix type="matrix" values="0 0 0 0 0.682353 0 0 0 0 0.682353 0 0 0 0 0.752941 0 0 0 0.5 0"/>
<feBlend mode="normal" in2="BackgroundImageFix" result="effect1_dropShadow"/>
<feColorMatrix in="SourceAlpha" type="matrix" values="0 0 0 0 0 0 0 0 0 0 0 0 0 0 0 0 0 0 127 0"/>
<feOffset dx="-2" dy="-2"/>
<feGaussianBlur stdDeviation="2"/>
<feColorMatrix type="matrix" values="0 0 0 0 1 0 0 0 0 1 0 0 0 0 1 0 0 0 1 0"/>
<feBlend mode="normal" in2="effect1_dropShadow" result="effect2_dropShadow"/>
<feBlend mode="normal" in="SourceGraphic" in2="effect2_dropShadow" result="shape"/>
</filter>
</defs>
</svg>
