<svg width="18" height="15" viewBox="0 0 18 15" fill="none" xmlns="http://www.w3.org/2000/svg">
<path d="M8.72193 3.75269C8.28048 3.7532 7.84269 3.83263 7.4292 3.98723L12.2292 8.78723C12.3858 8.36863 12.4653 7.92509 12.4637 7.47814C12.4594 6.48859 12.0633 5.54104 11.362 4.84285C10.6608 4.14466 9.71149 3.75268 8.72193 3.75269V3.75269Z" fill="#BAB5B5"/>
<path d="M17.4052 7.22188C15.5671 3.8237 12.3434 1.76733 8.77615 1.76733C7.80489 1.76961 6.84015 1.92611 5.91797 2.23097L6.79615 3.11461C7.44298 2.94744 8.10808 2.86133 8.77615 2.85824C11.8471 2.85824 14.6398 4.57097 16.3034 7.45642C15.6931 8.52694 14.8841 9.47111 13.9198 10.2382L14.6943 11.0128C15.8104 10.1124 16.7373 9.00017 17.4216 7.74006L17.5634 7.47824L17.4052 7.22188Z" fill="#BAB5B5"/>
<path d="M1.35818 0.812727L3.79091 3.24545C2.25323 4.23552 0.996492 5.60497 0.141818 7.22182L0 7.47818L0.141818 7.74C1.98 11.1382 5.20363 13.1945 8.77091 13.1945C10.1633 13.1943 11.5375 12.8791 12.7909 12.2727L15.5182 15L16.4727 14.1818L2.29091 0L1.35818 0.812727ZM5.88545 5.34C5.37515 6.05967 5.13596 6.93671 5.21024 7.81581C5.28453 8.69492 5.66749 9.51938 6.29133 10.1432C6.91517 10.7671 7.73963 11.15 8.61873 11.2243C9.49784 11.2986 10.3749 11.0594 11.0945 10.5491L11.9673 11.4218C10.957 11.8537 9.86964 12.0763 8.77091 12.0764C5.7 12.0764 2.90727 10.3636 1.24364 7.47818C2.04202 6.06448 3.19185 4.88084 4.58182 4.04182L5.88545 5.34Z" fill="#BAB5B5"/>
</svg>
