<svg width="22" height="22" viewBox="0 0 22 22" fill="none" xmlns="http://www.w3.org/2000/svg">
<path d="M11.5 2.06V2.50726L11.9445 2.55691C13.8596 2.77083 15.6451 3.62961 17.0078 4.99225C18.3704 6.35488 19.2292 8.14036 19.4431 10.0555L19.94 10V10.5H21C21.2739 10.5 21.5 10.7261 21.5 11C21.5 11.2739 21.2739 11.5 21 11.5H19.94H19.4927L19.4431 11.9445C19.2292 13.8596 18.3704 15.6451 17.0078 17.0078C15.6451 18.3704 13.8596 19.2292 11.9445 19.4431L11.5 19.4927V19.94V21C11.5 21.2739 11.2739 21.5 11 21.5C10.7261 21.5 10.5 21.2739 10.5 21V19.94V19.4927L10.0555 19.4431C8.14036 19.2292 6.35488 18.3704 4.99225 17.0078C3.62961 15.6451 2.77083 13.8596 2.55691 11.9445L2.50726 11.5H2.06H1C0.726142 11.5 0.5 11.2739 0.5 11C0.5 10.7261 0.726142 10.5 1 10.5H2.06H2.50726L2.55691 10.0555C2.77083 8.14036 3.62961 6.35488 4.99225 4.99225C6.35488 3.62961 8.14036 2.77083 10.0555 2.55691L10.5 2.50726V2.06V1C10.5 0.726142 10.7261 0.5 11 0.5C11.2739 0.5 11.5 0.726142 11.5 1V2.06ZM7.5 11C7.5 9.06614 9.06614 7.5 11 7.5C12.9339 7.5 14.5 9.06614 14.5 11C14.5 12.9339 12.9339 14.5 11 14.5C9.06614 14.5 7.5 12.9339 7.5 11ZM3.5 11C3.5 15.1461 6.85386 18.5 11 18.5C15.1461 18.5 18.5 15.1461 18.5 11C18.5 6.85386 15.1461 3.5 11 3.5C6.85386 3.5 3.5 6.85386 3.5 11Z" fill="#66193E" stroke="#66193E"/>
</svg>
