<svg width="12" height="12" viewBox="0 0 12 12" fill="none" xmlns="http://www.w3.org/2000/svg">
<path d="M11.58 10.122L10.7394 7.82827H9.81704L10.3293 10.0649H1.31092L1.82315 7.82827H0.900775L0.0595721 10.122C-0.153803 10.7057 0.224369 11.1832 0.900775 11.1832H10.7394C11.4158 11.1832 11.794 10.7057 11.58 10.122ZM8.89467 2.79581C8.89467 2.05432 8.57074 1.34319 7.99415 0.818874C7.41755 0.294558 6.63552 0 5.82009 0C5.00467 0 4.22264 0.294558 3.64604 0.818874C3.06945 1.34319 2.74552 2.05432 2.74552 2.79581C2.74552 5.46581 5.82009 8.38743 5.82009 8.38743C5.82009 8.38743 8.89467 5.46581 8.89467 2.79581ZM4.15982 2.82936C4.15982 1.99565 4.90264 1.32018 5.82009 1.32018C6.26034 1.32018 6.68256 1.47921 6.99386 1.76229C7.30517 2.04537 7.48006 2.42931 7.48006 2.82964C7.48006 3.22997 7.30517 3.61391 6.99386 3.89699C6.68256 4.18007 6.26034 4.3391 5.82009 4.3391C5.37976 4.3391 4.95747 4.18004 4.64611 3.89691C4.33474 3.61378 4.15982 3.22977 4.15982 2.82936V2.82936Z" fill="#C397AC"/>
</svg>
