<svg width="93" height="84" viewBox="0 0 93 84" fill="none" xmlns="http://www.w3.org/2000/svg">
<path d="M92.2642 58.7004C76.2196 53.7652 62.1986 74.332 45.1009 69.1284C29.4073 64.3377 29.6551 46.8683 29.8203 43.7708C29.8203 43.585 29.6138 43.5024 29.4899 43.6263C27.9412 45.2989 24.7405 52.1132 28.3955 62.4586C32.8764 75.1787 46.6289 76.5415 47.2897 76.5828C47.2897 76.5828 47.2691 76.5828 47.2071 76.5828C23.8939 75.7155 24.2862 53.6 24.5134 49.9037C24.534 49.7385 24.3069 49.6353 24.2036 49.7798C20.4661 53.9304 19.5368 58.5352 19.8053 62.6238C20.2389 69.3349 23.9558 75.3852 29.6138 78.9988C51.4403 92.9165 72.2756 71.0694 78.5943 65.3908C84.4587 60.1046 90.571 59.0721 92.2436 58.8862C92.3468 58.8656 92.3468 58.7417 92.2642 58.7004Z" fill="#66193E"/>
<path d="M34.2185 36.1926C32.897 38.4228 31.2863 44.122 31.9058 48.5823C33.7643 61.7567 40.496 64.4411 43.0359 65.8452C43.1391 65.9072 43.263 65.8452 43.2837 65.742C43.3043 65.6801 43.3043 65.6181 43.2424 65.5768C40.3101 62.3555 41.1568 56.8008 41.1568 56.8008C43.2424 47.3846 39.1331 42.945 39.1331 42.945C37.6051 41.0865 37.4192 38.7532 37.4399 37.5761C37.4399 37.4109 37.2127 37.349 37.1301 37.5142C34.4663 43.5438 36.8823 53.8686 36.8823 53.8686C35.1478 51.0189 33.3513 41.7886 35.4162 36.7089C37.4812 31.6084 35.7672 30.514 35.7672 30.514C35.4575 30.2249 35.0445 30.0804 34.5902 30.1217C33.8262 30.2043 33.2274 30.8444 33.2274 31.6085C33.2067 32.4551 33.9088 33.1159 34.7554 33.1572C34.8793 33.1572 35.0032 33.1365 35.1271 33.0952C35.3749 33.0126 35.6227 33.2604 35.5195 33.5082C35.3336 34.0864 34.9413 34.9743 34.2185 36.1926Z" fill="#66193E"/>
<path d="M20.2597 10.3601C24.6374 9.65799 25.7111 10.2568 28.5608 11.1654C29.9649 11.6197 31.7821 12.1359 34.6111 12.6109C42.3546 13.9118 47.8267 11.7642 50.2014 10.6079C51.874 9.80254 53.7118 9.4102 55.5702 9.53409C56.3756 9.59604 57.057 9.71994 57.6558 9.92644C61.7238 11.31 61.3934 15.6877 61.3108 16.3278H61.3314C61.3314 16.3278 61.3314 16.3278 61.3521 16.3278C62.8182 14.015 62.3226 11.0002 60.299 9.1624C52.5554 2.16221 37.3161 5.87913 37.3161 5.87913C47.042 2.36871 54.3106 4.53691 56.1691 5.23899C56.1897 5.23899 56.231 5.23899 56.231 5.21834C56.2517 5.19769 56.2723 5.13575 56.231 5.1151C50.6144 0.861293 45.0184 -0.336379 39.9593 0.0766114C30.0475 0.881943 22.1801 7.86148 20.0325 9.92644C19.8674 10.0916 20.0119 10.4014 20.2597 10.3601Z" fill="#66193E"/>
<path d="M45.3904 20.2925C44.2959 14.1802 38.9478 14.9649 38.9478 14.9649C39.5879 20.3751 45.3904 20.2925 45.3904 20.2925Z" fill="#66193E"/>
<path d="M45.4316 21.2629C40.0421 22.2335 40.517 28.036 40.517 28.036C46.5467 26.5493 45.4316 21.2629 45.4316 21.2629Z" fill="#66193E"/>
<path d="M37.5229 20.8912C37.5229 20.8912 37.5229 20.9119 37.5229 20.8912C37.8946 14.7378 32.5464 14.2422 32.5464 14.2422C31.9062 19.5697 37.3577 20.8706 37.5229 20.8912Z" fill="#66193E"/>
<path d="M37.3163 21.8618C31.8855 21.5521 30.9976 27.2513 30.9976 27.2513C37.1717 27.2306 37.3163 21.8618 37.3163 21.8618Z" fill="#66193E"/>
<path d="M23.1506 17.7525C23.1506 17.7525 23.1506 17.7732 23.1506 17.7525C24.4722 12.6934 20.1152 11.3925 20.1152 11.3925C18.6903 15.7289 23.0267 17.7112 23.1506 17.7525Z" fill="#66193E"/>
<path d="M18.7935 16.7821C16.0678 11.0621 11.0293 13.2303 11.0293 13.2303C13.0942 18.4134 18.7935 16.7821 18.7935 16.7821Z" fill="#66193E"/>
<path d="M22.4485 18.8263C18.3186 16.7613 15.7168 20.9119 15.7168 20.9119C20.5488 22.9562 22.4485 18.8263 22.4485 18.8263Z" fill="#66193E"/>
<path d="M51.709 30.4313C51.647 30.3694 51.5231 30.4313 51.5438 30.5346C51.7916 31.4432 52.4937 32.6615 54.3728 33.4048C55.7563 33.9624 56.8507 33.8385 57.6767 33.5081C57.7593 33.4668 57.8419 33.4255 57.9245 33.4048C58.0071 33.3636 57.9864 33.2397 57.8832 33.219C54.7858 32.9712 52.6795 31.3812 51.709 30.4313Z" fill="#66193E"/>
<path d="M30.2747 19.8588C31.7408 14.1802 26.9501 12.6728 26.8056 12.6315C25.1949 17.546 30.1302 19.7968 30.2747 19.8588Z" fill="#66193E"/>
<path d="M22.9233 24.6495C28.7671 25.7645 29.9028 20.7261 29.9028 20.7261C24.8231 19.4253 22.9233 24.6495 22.9233 24.6495Z" fill="#66193E"/>
<path d="M49.9538 24.0712C54.7858 21.6965 52.886 17.4221 52.886 17.4221C48.4877 19.2393 49.9538 24.0712 49.9538 24.0712Z" fill="#66193E"/>
<path d="M46.2163 13.251C47.7444 17.7526 52.6589 16.5963 52.6589 16.5963C50.6146 11.6197 46.2163 13.251 46.2163 13.251Z" fill="#66193E"/>
<path d="M52.8032 10.5872C54.1454 14.5311 58.4612 13.5193 58.4612 13.5193C56.644 9.14174 52.8032 10.5872 52.8032 10.5872Z" fill="#66193E"/>
<path d="M56.3549 19.8174C60.6087 17.7318 58.9154 13.9736 58.9154 13.9736C55.0539 15.5636 56.3549 19.8174 56.3549 19.8174Z" fill="#66193E"/>
<path d="M14.416 30.6584C21.1271 30.3074 21.0238 24.4842 21.0238 24.4842C15.0974 24.4223 14.416 30.6584 14.416 30.6584Z" fill="#66193E"/>
<path d="M10.9469 17.6492C9.66659 19.3219 7.93204 21.9856 6.71372 25.5993C5.47475 29.2955 5.26825 32.5168 5.30955 34.6644C3.86409 27.1273 8.26243 18.6611 9.39815 16.6374C9.43945 16.5548 9.3362 16.4516 9.2536 16.5135C6.61047 18.8056 -7.76157 32.5375 5.61929 49.6146C5.61929 49.6146 6.50722 44.762 7.68424 41.6439C8.79932 38.753 16.5635 27.8088 10.9469 17.6492Z" fill="#66193E"/>
<path d="M20.6725 52.0513C27.652 43.2547 32.9589 39.2074 31.5548 29.9358C31.5341 29.7912 31.3896 29.7086 31.245 29.7499C29.4898 30.4107 19.4129 34.7264 13.9408 47.0955C13.9408 47.0955 16.9143 33.7146 29.8615 27.9328C32.7112 26.6525 20.7758 28.8413 15.7166 33.1364C7.14709 40.4257 6.23852 53.4762 10.2239 62.4793C12.0617 66.6505 14.7461 69.5001 16.6872 71.1934C16.6872 71.1934 13.4245 61.1578 20.6725 52.0513Z" fill="#66193E"/>
<path d="M60.3196 18.9502C60.3196 18.9502 69.1369 23.1627 63.6235 37.6793C63.6235 37.6793 59.9273 45.4022 59.2871 50.833C59.06 49.1811 59.1426 47.4465 59.4317 45.7739C59.5762 44.9686 59.7414 44.1632 59.9479 43.3579C60.0718 42.8623 60.3815 42.4287 60.7945 42.1189C62.3432 40.9626 62.1367 39.6204 61.9509 38.8357V38.815C61.7651 38.0303 61.7857 37.225 61.9922 36.4403C62.5497 34.3547 62.9421 32.2072 62.8595 30.039C62.7975 28.6761 62.5291 27.3133 62.0335 26.0537C61.9509 27.1274 61.7651 28.0154 61.7651 28.0154C61.6205 29.1511 60.6293 31.7736 60.6293 31.7736C59.824 34.045 60.7739 36.6262 61.2488 37.7206C61.3108 37.8445 61.3727 38.0716 61.4347 38.3401C61.5379 38.7944 61.6412 39.3106 61.6412 39.5584C61.6412 40.6528 61.2282 41.3549 60.3196 41.9124C60.1131 42.0363 59.8859 42.1602 59.6382 42.2635C58.234 42.9036 58.7296 44.3284 58.5437 45.2783C58.3992 46.001 56.231 45.8978 55.2192 45.8152C55.1366 45.8152 55.1159 45.9184 55.1779 45.9597C55.8593 46.2695 56.3342 46.6618 56.6027 46.9303C56.8092 47.1368 56.9124 47.4259 56.8711 47.715C56.7679 48.3757 56.4168 49.7386 55.3018 51.5351C54.5377 52.7328 53.3607 53.1045 52.3076 53.1458C51.3164 53.1871 50.3253 52.9393 49.4786 52.4437C47.4137 51.2667 45.4107 51.0395 44.5434 51.0189C44.4815 51.0189 44.4608 51.1015 44.5228 51.1221C44.626 51.1428 44.7086 51.1841 44.8118 51.2254C44.8531 51.246 44.8944 51.246 44.9357 51.2667C48.2397 52.5056 49.6851 56.1193 49.6851 56.1193C55.0953 66.1962 61.3521 64.9986 62.3845 64.7301C62.3845 64.7301 62.3845 64.7301 62.4052 64.7301C62.4671 64.7095 62.4878 64.6475 62.4465 64.6062L62.4258 64.5856L62.4465 64.6062C61.2075 63.4498 61.4553 61.4262 61.9922 59.7536C62.4465 58.3494 63.1486 57.0279 64.0365 55.8715C77.4173 38.6292 75.8067 25.1244 69.8183 19.2393C63.7268 13.2097 60.3196 18.9502 60.3196 18.9502Z" fill="#66193E"/>
<path d="M59.1222 30.4313C59.1222 30.4313 59.4526 30.2248 59.4526 29.7705C59.4733 29.2543 59.0809 28.4076 57.2638 27.21C54.7652 25.5787 51.6884 26.8383 50.6353 27.5404C50.5733 27.5817 50.594 27.6643 50.6353 27.6849C50.6559 27.6849 50.6766 27.7056 50.6972 27.6849C54.0012 26.8796 56.4378 29.0271 57.4703 29.9977C58.544 30.9888 59.1222 30.4313 59.1222 30.4313Z" fill="#66193E"/>
</svg>
