<svg width="32" height="28" viewBox="0 0 32 28" fill="none" xmlns="http://www.w3.org/2000/svg">
<path d="M26.2761 28C25.9236 28 25.5712 27.8659 25.303 27.5976L16.126 18.4206C15.9527 18.2474 15.8573 18.0169 15.8573 17.7719C15.8573 17.5269 15.9527 17.2965 16.126 17.1232L12.6678 13.665C12.5914 13.5886 12.5185 13.5095 12.4489 13.4281C7.87205 12.933 3.86076 10.0455 1.92891 5.85378C1.27695 5.51828 0.673432 5.08407 0.137684 4.55903C-0.0433045 4.38171 -0.0462405 4.09129 0.131139 3.91031C0.308519 3.72932 0.598993 3.72644 0.779798 3.90376C1.39176 4.50343 2.10501 4.96779 2.88181 5.2817L6.70122 1.46369C7.64549 0.519784 8.90079 0 10.2359 0H15.6821C15.9356 0 16.1409 0.205393 16.1409 0.458741C16.1409 0.712088 15.9356 0.917481 15.6821 0.917481H10.2359C9.14582 0.917481 8.12087 1.34191 7.34988 2.11259L3.86969 5.59144C4.3477 5.70031 4.84192 5.75628 5.345 5.75628H5.34879C7.09513 5.7553 8.73161 5.25026 9.95669 4.33418C10.1195 4.2124 10.3433 4.21234 10.5061 4.33418C12.3646 5.72392 15.3884 5.72392 17.2469 4.33418C17.4098 4.2124 17.6335 4.2124 17.7963 4.33418C19.0228 5.25124 20.6605 5.75628 22.408 5.75628C22.911 5.75628 23.4053 5.70031 23.8833 5.59144L20.4031 2.11259C19.6322 1.34191 18.6073 0.917481 17.5171 0.917481C17.2637 0.917481 17.0584 0.712088 17.0584 0.458741C17.0584 0.205393 17.2637 0 17.5171 0C18.8522 0 20.1076 0.519845 21.0518 1.46369L24.8712 5.2817C25.6481 4.96786 26.3613 4.50343 26.9732 3.90382C27.1541 3.7265 27.4446 3.72932 27.6219 3.91037C27.7992 4.09129 27.7963 4.38177 27.6153 4.55909C27.0796 5.08413 26.4762 5.51828 25.8242 5.85378C24.7221 8.2462 22.9495 10.2324 20.6901 11.6039C20.4736 11.7354 20.1914 11.6664 20.0599 11.4498C19.9284 11.2332 19.9974 10.9511 20.214 10.8196C22.0257 9.71992 23.5009 8.19568 24.5303 6.37093C23.8506 6.57045 23.1373 6.67376 22.408 6.67376C20.5889 6.67376 18.8671 6.17471 17.5194 5.2628C16.5055 5.92681 15.2258 6.28933 13.8765 6.28933C12.5271 6.28933 11.2475 5.92681 10.2335 5.2628C8.88727 6.17373 7.167 6.67278 5.34922 6.67376C5.34794 6.67376 5.34623 6.67376 5.34494 6.67376C4.61597 6.67376 3.90327 6.57057 3.22385 6.3713C5.02859 9.5612 8.18736 11.7907 11.7984 12.4113C11.1382 10.9949 11.2278 9.3517 11.9476 8.63179C12.8983 7.68115 15.4587 7.82972 16.9809 9.35195L20.4391 12.8101C20.7969 12.4525 21.379 12.4525 21.7366 12.8101L23.2827 14.3563C23.4619 14.5354 23.4619 14.8259 23.2827 15.005C23.1035 15.1841 22.8131 15.1841 22.634 15.005L21.0879 13.4589L16.7748 17.772L20.7617 21.7589L25.0748 17.4458L23.8573 16.2283C23.6782 16.0491 23.6782 15.7587 23.8573 15.5796C24.0366 15.4004 24.327 15.4004 24.5061 15.5796L30.9136 21.987C31.1734 22.2469 31.3166 22.5925 31.3166 22.9602C31.3166 23.3278 31.1734 23.6733 30.9135 23.9333L27.2493 27.5976C26.9809 27.8659 26.6286 28 26.2761 28V28ZM22.7079 23.7051L25.9517 26.9489C26.1306 27.1278 26.4216 27.1276 26.6005 26.9489L30.2647 23.2846C30.3514 23.1979 30.3991 23.0827 30.3991 22.9602C30.3991 22.8377 30.3514 22.7225 30.2648 22.6359L27.021 19.3921L22.7079 23.7051ZM21.4104 22.4075L22.0591 23.0563L26.3723 18.7432L25.7235 18.0944L21.4104 22.4075ZM13.7329 8.94581C13.2309 8.94581 12.812 9.0649 12.5964 9.28051C12.0284 9.84855 12.1299 11.8296 13.3166 13.0162L16.7747 16.4744L19.7903 13.4588L16.3321 10.0007C15.5959 9.26436 14.5536 8.94581 13.7329 8.94581V8.94581Z" fill="#66193E"/>
</svg>
