<svg width="22" height="19" viewBox="0 0 22 19" fill="none" xmlns="http://www.w3.org/2000/svg">
<path d="M21.6584 1.48947C21.5742 1.42103 21.475 1.37354 21.369 1.3509C21.2629 1.32825 21.1529 1.3311 21.0482 1.3592L14.4595 3.41603L7.85708 0.0634022C7.76683 0.0216343 7.66857 0 7.56912 0C7.46968 0 7.37142 0.0216343 7.28117 0.0634022L0.425086 2.86754C0.2988 2.91942 0.190879 3.00782 0.115148 3.12141C0.0394167 3.23501 -0.000675169 3.36863 8.60272e-06 3.50516V17.5464C0.000567975 17.6587 0.0287002 17.7691 0.0819327 17.868C0.135165 17.9669 0.211868 18.0512 0.305301 18.1135C0.398734 18.1757 0.506037 18.2141 0.617778 18.2252C0.72952 18.2364 0.84228 18.2198 0.946148 18.1772L7.5417 15.469L14.1167 18.8422C14.2143 18.8922 14.3224 18.9181 14.4321 18.9176C14.5002 18.928 14.5696 18.928 14.6377 18.9176L21.4938 16.7785C21.6383 16.7333 21.7637 16.6415 21.8505 16.5174C21.9373 16.3934 21.9807 16.2442 21.9738 16.0929V2.04481C21.9702 1.9336 21.9396 1.82493 21.8847 1.72817C21.8297 1.63142 21.7521 1.54949 21.6584 1.48947V1.48947ZM20.5683 15.5856L14.864 17.3682V15.7981H13.767V17.1693L8.00791 14.2144V13.0557H6.91094V14.2349L1.37123 16.518V3.95766L6.91094 1.67458V3.28576H8.00791V1.68144L13.767 4.62955V6.06933H14.864V4.78724L20.5683 2.97724V15.5856Z" fill="#66193E"/>
<path d="M13.7671 7.5708H14.8641V10.183H13.7671V7.5708Z" fill="#66193E"/>
<path d="M13.7671 11.6844H14.8641V14.2966H13.7671V11.6844Z" fill="#66193E"/>
<path d="M6.91113 4.82837H8.00811V7.44054H6.91113V4.82837Z" fill="#66193E"/>
<path d="M6.91113 8.98999H8.00811V11.561H6.91113V8.98999Z" fill="#66193E"/>
</svg>
