<svg width="28" height="28" viewBox="0 0 28 28" fill="none" xmlns="http://www.w3.org/2000/svg">
<path d="M22.4251 28C22.2206 28 22.0436 27.8472 22.0184 27.6391L21.8232 26.0266C21.796 25.8017 21.9562 25.5973 22.1811 25.5701C22.4054 25.543 22.6104 25.7031 22.6376 25.928L22.8328 27.5405C22.86 27.7653 22.6998 27.9698 22.4749 27.9969C22.4582 27.999 22.4415 28 22.4251 28ZM5.57485 28C5.55839 28 5.54182 27.999 5.52503 27.9969C5.30016 27.9698 5.13993 27.7654 5.16716 27.5405L5.78786 22.4124L4.50009 16.3923C4.45273 16.1707 4.59388 15.9528 4.81536 15.9054C5.03679 15.858 5.25488 15.9991 5.30224 16.2207L6.60439 22.3079C6.61391 22.3524 6.61593 22.3979 6.61046 22.443L5.98151 27.6392C5.95635 27.8472 5.77938 28 5.57485 28ZM13.9997 26.3875C13.9414 26.3875 13.8822 26.375 13.8258 26.3486L12.9589 25.9421C12.7537 25.8459 12.6655 25.6016 12.7616 25.3966C12.8578 25.1914 13.102 25.1031 13.3071 25.1993L14.1741 25.6059C14.3792 25.702 14.4675 25.9463 14.3713 26.1514C14.3016 26.3002 14.1538 26.3875 13.9997 26.3875V26.3875ZM22.0421 24.8362C21.8376 24.8362 21.6606 24.6834 21.6355 24.4753L21.3895 22.4429C21.384 22.3978 21.386 22.3522 21.3955 22.3078L24.3123 8.67226C24.3391 8.54681 24.4231 8.4411 24.5393 8.38663L27.4155 7.03805C27.6206 6.94191 27.8648 7.03017 27.961 7.2353C28.0572 7.44038 27.9689 7.68461 27.7638 7.78081L25.0719 9.04293L22.2121 22.4124L22.4499 24.3768C22.4771 24.6016 22.3169 24.8061 22.092 24.8332C22.0752 24.8352 22.0586 24.8362 22.0421 24.8362V24.8362ZM14 24.5693C13.7734 24.5693 13.5898 24.3857 13.5898 24.1592V23.9411L12.9589 23.6453C12.7538 23.5491 12.6655 23.3048 12.7617 23.0998C12.8579 22.8946 13.102 22.8063 13.3072 22.9025L13.6193 23.0488C13.6798 22.898 13.8275 22.7914 14 22.7914C14.2266 22.7914 14.4102 22.975 14.4102 23.2016V24.1592C14.4101 24.3857 14.2265 24.5693 14 24.5693ZM13.9997 21.7938C13.9414 21.7938 13.8822 21.7813 13.8258 21.7549L12.9589 21.3483C12.8102 21.2787 12.7229 21.1312 12.7227 20.9773C12.7227 20.9188 12.7352 20.8593 12.7616 20.8029C12.8578 20.5977 13.102 20.5094 13.3071 20.6056L14.1741 21.0122C14.3227 21.0819 14.41 21.2293 14.4102 21.3832C14.4103 21.4418 14.3977 21.5012 14.3713 21.5576C14.3016 21.7065 14.1538 21.7938 13.9997 21.7938V21.7938ZM13.9997 19.4969C13.9414 19.4969 13.8822 19.4844 13.8258 19.458L12.9589 19.0515C12.7537 18.9553 12.6655 18.7111 12.7616 18.506C12.8578 18.3008 13.102 18.2126 13.3071 18.3087L14.1741 18.7153C14.3792 18.8115 14.4675 19.0557 14.3713 19.2608C14.3016 19.4096 14.1538 19.4969 13.9997 19.4969V19.4969ZM13.9997 17.2001C13.9414 17.2001 13.8822 17.1875 13.8258 17.1612L12.9589 16.7546C12.7537 16.6584 12.6655 16.4142 12.7616 16.2091C12.8578 16.0039 13.102 15.9157 13.3071 16.0119L14.1741 16.4184C14.3792 16.5146 14.4675 16.7588 14.3713 16.9639C14.3016 17.1128 14.1538 17.2001 13.9997 17.2001V17.2001ZM16.8868 15.0656C16.7326 15.0656 16.5849 14.9783 16.5152 14.8295C16.419 14.6244 16.5073 14.3802 16.7124 14.284C19.5982 12.931 21.162 11.4221 21.162 7.3309C21.162 7.17181 21.254 7.02705 21.398 6.95951L22.807 6.29889C23.0119 6.20275 23.2563 6.29097 23.3525 6.49615C23.4486 6.70123 23.3603 6.94546 23.1552 7.04166L21.9803 7.59252C21.9486 9.58247 21.5507 11.0647 20.7351 12.241C19.9801 13.33 18.8469 14.1892 17.0607 15.0267C17.0043 15.0531 16.9451 15.0656 16.8868 15.0656ZM11.1132 15.0656C11.0549 15.0656 10.9957 15.0531 10.9393 15.0267C9.15308 14.1893 8.0198 13.3301 7.26485 12.241C6.82369 11.6046 6.5047 10.8788 6.29984 10.0315L5.19303 10.5504C4.98795 10.6466 4.74377 10.5583 4.64752 10.3531C4.55138 10.148 4.63965 9.90381 4.84478 9.80762L6.14081 9.19999C6.12353 9.08045 6.108 8.95882 6.09438 8.83485H4.65299C4.42642 8.83485 4.24284 8.65126 4.24284 8.42469C4.24284 8.19812 4.42642 8.01454 4.65299 8.01454H6.03231C6.02618 7.87656 6.02203 7.7358 6.01979 7.59257L4.84484 7.04171C4.6397 6.94552 4.55144 6.70128 4.64758 6.49621C4.74383 6.29102 4.98801 6.20281 5.19308 6.29895L6.60204 6.95957C6.74608 7.02711 6.83807 7.17187 6.83807 7.33095C6.83807 11.4222 8.4019 12.931 11.2876 14.284C11.4928 14.3802 11.581 14.6245 11.4849 14.8295C11.415 14.9783 11.2673 15.0656 11.1132 15.0656V15.0656ZM4.54756 15.0656C4.35823 15.0656 4.1881 14.9338 4.14692 14.7412L2.928 9.04298L0.236139 7.78086C0.0310083 7.68467 -0.0572566 7.44043 0.0388833 7.23536C0.135078 7.03017 0.379255 6.94196 0.584387 7.0381L3.46065 8.38668C3.57681 8.44115 3.66081 8.54686 3.6876 8.67232L4.94907 14.5696C4.99643 14.7911 4.85528 15.0091 4.63374 15.0564C4.60487 15.0626 4.57599 15.0656 4.54756 15.0656ZM13.9997 14.9032C13.9414 14.9032 13.8822 14.8907 13.8258 14.8643L12.9589 14.4578C12.7537 14.3616 12.6655 14.1173 12.7616 13.9123C12.8578 13.7071 13.102 13.6188 13.3071 13.715L14.1741 14.1216C14.3792 14.2178 14.4675 14.462 14.3713 14.6671C14.3016 14.8159 14.1538 14.9032 13.9997 14.9032V14.9032ZM14 13.3132C13.7734 13.3132 13.5898 13.1296 13.5898 12.9031V12.3474L12.9589 12.0516C12.7538 11.9554 12.6655 11.7112 12.7617 11.5061C12.8579 11.3009 13.102 11.2127 13.3072 11.3088L13.5899 11.4414V9.94117L12.959 9.64536C12.7538 9.54917 12.6656 9.30494 12.7617 9.09986C12.8579 8.89473 13.1021 8.80641 13.3072 8.9026L13.5899 9.03516V8.42469C13.5899 8.19812 13.7735 8.01454 14.0001 8.01454C14.2267 8.01454 14.4103 8.19812 14.4103 8.42469V12.9031C14.4101 13.1296 14.2265 13.3132 14 13.3132V13.3132ZM12.031 13.2079C11.9727 13.2079 11.9135 13.1954 11.8571 13.169L10.9901 12.7625C10.785 12.6663 10.6967 12.422 10.7929 12.217C10.8891 12.0118 11.1332 11.9235 11.3384 12.0197L12.2054 12.4263C12.4105 12.5225 12.4987 12.7667 12.4026 12.9718C12.3329 13.1206 12.1851 13.2079 12.031 13.2079V13.2079ZM10.0623 11.5126C10.004 11.5126 9.94473 11.5001 9.88835 11.4737L9.02139 11.0672C8.81626 10.971 8.728 10.7267 8.82414 10.5217C8.92033 10.3165 9.16451 10.2282 9.36964 10.3244L10.2366 10.731C10.4417 10.8272 10.53 11.0714 10.4339 11.2765C10.3641 11.4253 10.2164 11.5126 10.0623 11.5126V11.5126ZM12.031 10.8017C11.9727 10.8017 11.9135 10.7891 11.8571 10.7628L10.9901 10.3562C10.785 10.26 10.6967 10.0158 10.7929 9.81074C10.8891 9.60555 11.1332 9.51734 11.3384 9.61348L12.2054 10.02C12.4105 10.1162 12.4987 10.3605 12.4026 10.5655C12.3329 10.7144 12.1851 10.8017 12.031 10.8017V10.8017ZM10.0623 9.10637C10.004 9.10637 9.94473 9.09384 9.88835 9.06748L9.02139 8.66094C8.81626 8.56475 8.728 8.32051 8.82414 8.11544C8.92033 7.91025 9.16451 7.82193 9.36964 7.91818L10.2366 8.32472C10.4417 8.42092 10.53 8.66515 10.4339 8.87023C10.3641 9.01909 10.2164 9.10637 10.0623 9.10637V9.10637ZM12.031 8.39544C11.9727 8.39544 11.9135 8.38291 11.8571 8.35655L10.9901 7.95001C10.785 7.85381 10.6967 7.60958 10.7929 7.4045C10.8891 7.19932 11.1332 7.11105 11.3384 7.20725L12.2054 7.61379C12.4105 7.70999 12.4987 7.95422 12.4026 8.1593C12.3329 8.30815 12.1851 8.39544 12.031 8.39544V8.39544ZM15.969 6.2692C15.8148 6.2692 15.6671 6.18186 15.5973 6.03306C15.5012 5.82798 15.5895 5.58375 15.7946 5.48756L17.5387 4.66982C17.3011 4.35756 17.1676 3.97207 17.1676 3.56957V0.410296C17.1676 0.183727 17.3512 0.000142824 17.5778 0.000142824C17.8044 0.000142824 17.9879 0.183727 17.9879 0.410296V3.56963C17.9879 3.749 18.0363 3.92219 18.1243 4.07269C18.8537 2.58356 20.2032 1.47998 21.834 1.06846C22.0537 1.013 22.2765 1.14617 22.332 1.36584C22.3874 1.58552 22.2543 1.80848 22.0346 1.86388C20.4671 2.25938 19.2035 3.40185 18.6546 4.92001C18.6176 5.02228 18.5415 5.10573 18.443 5.15189L16.1427 6.23037C16.0865 6.25673 16.0273 6.2692 15.969 6.2692V6.2692ZM12.031 6.2692C11.9727 6.2692 11.9135 6.25668 11.8571 6.23032L9.55689 5.15183C9.4584 5.10562 9.38227 5.02222 9.3453 4.91996C8.43559 2.40408 5.64873 1.09755 3.13286 2.0071C3.03048 2.04407 2.91766 2.03893 2.81928 1.99278L0.236139 0.781676C0.0310083 0.685482 -0.0572566 0.441249 0.0388833 0.236172C0.135078 0.0309863 0.379255 -0.0572786 0.584387 0.038916L3.01703 1.17952C5.71846 0.293539 8.64553 1.55851 9.87577 4.07247C9.96376 3.92203 10.012 3.74889 10.012 3.56957V0.410296C10.012 0.183727 10.1956 0.000142824 10.4222 0.000142824C10.6488 0.000142824 10.8324 0.183727 10.8324 0.410296V3.56963C10.8324 3.97212 10.6989 4.35761 10.4612 4.66987L12.2054 5.48761C12.4105 5.58381 12.4988 5.82804 12.4026 6.03312C12.3329 6.18192 12.1851 6.2692 12.031 6.2692V6.2692ZM25.0066 2.0316C24.9595 2.0316 24.9122 2.02351 24.8671 2.00716C24.4345 1.85075 23.9849 1.75642 23.5307 1.72683C23.3046 1.71207 23.1333 1.51689 23.148 1.29087C23.1628 1.06474 23.3595 0.893347 23.584 0.908222C24.0584 0.93912 24.5281 1.03028 24.983 1.17952L27.4156 0.038916C27.6207 -0.0572786 27.8649 0.031041 27.9611 0.236172C28.0572 0.441249 27.969 0.685482 27.7638 0.781676L25.1806 1.99283C25.1256 2.01864 25.0661 2.0316 25.0066 2.0316Z" fill="#66193E"/>
</svg>
