<svg width="32" height="28" viewBox="0 0 32 28" fill="none" xmlns="http://www.w3.org/2000/svg">
<path d="M5.43154 28H0.460019C0.205905 28 0 27.7941 0 27.54C0 27.2859 0.205905 27.08 0.460019 27.08H5.43154C8.45061 27.08 10.7385 26.7231 12.4259 25.989C13.8474 25.3706 14.8811 24.4865 15.6315 23.2366H10.16C8.40019 23.2366 7.02774 21.7418 6.84662 19.6999H0.460019C0.205905 19.6999 0 19.494 0 19.2399C0 18.9858 0.205905 18.7799 0.460019 18.7799H7.28633C9.51804 18.7799 11.4726 17.9938 12.9387 16.5065L16.3325 13.0562L14.3305 11.0407C14.2234 10.9328 14.1764 10.7789 14.2051 10.6296C14.2339 10.4803 14.3346 10.3548 14.4741 10.2944C14.9038 10.1083 15.3108 9.93377 15.6984 9.76742C17.474 9.00582 18.8764 8.40417 20.1694 7.67409C20.3907 7.54939 20.6714 7.62729 20.7962 7.84853C20.9211 8.06977 20.8431 8.35038 20.6218 8.47532C19.2852 9.23 17.8625 9.84029 16.0612 10.613C15.8656 10.6969 15.6651 10.783 15.4592 10.8715L20.4973 15.9438C22.6523 10.991 23.8301 8.66945 27.7487 4.75076L30.2412 2.25832C30.3989 2.10062 30.4825 1.88239 30.4704 1.6595C30.4582 1.43366 30.353 1.23014 30.1744 1.08637C29.8682 0.840171 29.3983 0.877463 29.1045 1.17132L26.612 3.66377C24.9124 5.36332 23.5663 6.53189 22.2474 7.45279C22.039 7.59834 21.7522 7.54731 21.6068 7.33901C21.4614 7.13072 21.5124 6.84391 21.7206 6.69848C22.9937 5.80966 24.3016 4.67311 25.9614 3.01324L28.4537 0.520611C29.0854 -0.110904 30.0729 -0.175858 30.7508 0.369418C31.1302 0.674564 31.3628 1.12667 31.3889 1.60975C31.415 2.09314 31.2338 2.56665 30.8917 2.90878L28.3991 5.40129C24.4392 9.36132 23.3547 11.659 21.0712 16.9321C21.0105 17.0722 20.8844 17.1731 20.7344 17.2014C20.5846 17.2295 20.4302 17.1818 20.3227 17.0735L18.2774 15.0144C17.7359 15.5631 16.4242 16.8897 14.8754 18.4386C14.7578 18.5561 14.6441 18.6698 14.534 18.7799H18.1681C18.7466 18.7799 19.2173 19.25 19.2175 19.8279C19.2178 20.6807 18.9913 21.4831 18.58 22.0873C18.1236 22.7576 17.4748 23.1462 16.6916 23.2226C14.965 26.5676 11.5745 28 5.43154 28V28ZM7.77156 19.6879C7.92331 21.0251 8.7557 22.3165 10.16 22.3165H16.3904C16.3966 22.3164 16.4027 22.3164 16.4089 22.3165C17.0092 22.314 17.4837 22.0626 17.8195 21.5694C18.1235 21.123 18.2977 20.4883 18.2975 19.828C18.2975 19.7574 18.2394 19.6998 18.1681 19.6998H13.6133C12.4584 20.8533 11.9187 21.39 11.9117 21.3969C11.7316 21.5761 11.4403 21.5753 11.2612 21.395C11.082 21.2148 11.0829 20.9236 11.263 20.7445C11.2717 20.7359 12.0981 19.9142 13.8995 18.1132L13.2595 17.4731C11.7856 18.81 9.86686 19.5844 7.77156 19.6879V19.6879ZM13.9142 16.8268L14.55 17.4626C15.9601 16.0506 17.1305 14.8668 17.6291 14.3615L16.9809 13.7089L13.9142 16.8268Z" fill="#66193E"/>
</svg>
