<svg width="37" height="39" viewBox="0 0 37 39" fill="none" xmlns="http://www.w3.org/2000/svg">
<g filter="url(#filter0_dd)">
<path d="M30.7479 27.887L30.4656 27.6378C29.6645 26.9241 28.9634 26.1056 28.3811 25.2045C27.7451 23.961 27.364 22.6029 27.26 21.21V17.1075C27.2655 14.9197 26.4719 12.8052 25.0283 11.1613C23.5847 9.51742 21.5905 8.45724 19.4203 8.17998V7.10867C19.4203 6.81463 19.3035 6.53264 19.0956 6.32472C18.8877 6.11681 18.6057 6 18.3117 6C18.0176 6 17.7356 6.11681 17.5277 6.32472C17.3198 6.53264 17.203 6.81463 17.203 7.10867V8.19659C15.0523 8.49383 13.0822 9.56042 11.6576 11.1988C10.233 12.8372 9.45037 14.9364 9.45474 17.1075V21.21C9.35073 22.6029 8.96957 23.961 8.33361 25.2045C7.76132 26.1034 7.07146 26.9217 6.28236 27.6378L6 27.887V30.2289H30.7479V27.887Z" fill="#66193E"/>
<path d="M16.1899 31.1008C16.2628 31.6272 16.5236 32.1095 16.9243 32.4586C17.325 32.8077 17.8385 33 18.3699 33C18.9013 33 19.4148 32.8077 19.8155 32.4586C20.2162 32.1095 20.4771 31.6272 20.5499 31.1008H16.1899Z" fill="#66193E"/>
</g>
<defs>
<filter id="filter0_dd" x="0" y="0" width="36.7479" height="39" filterUnits="userSpaceOnUse" color-interpolation-filters="sRGB">
<feFlood flood-opacity="0" result="BackgroundImageFix"/>
<feColorMatrix in="SourceAlpha" type="matrix" values="0 0 0 0 0 0 0 0 0 0 0 0 0 0 0 0 0 0 127 0"/>
<feOffset dx="2" dy="2"/>
<feGaussianBlur stdDeviation="2"/>
<feColorMatrix type="matrix" values="0 0 0 0 0.682353 0 0 0 0 0.682353 0 0 0 0 0.752941 0 0 0 0.5 0"/>
<feBlend mode="normal" in2="BackgroundImageFix" result="effect1_dropShadow"/>
<feColorMatrix in="SourceAlpha" type="matrix" values="0 0 0 0 0 0 0 0 0 0 0 0 0 0 0 0 0 0 127 0"/>
<feOffset dx="-2" dy="-2"/>
<feGaussianBlur stdDeviation="2"/>
<feColorMatrix type="matrix" values="0 0 0 0 1 0 0 0 0 1 0 0 0 0 1 0 0 0 1 0"/>
<feBlend mode="normal" in2="effect1_dropShadow" result="effect2_dropShadow"/>
<feBlend mode="normal" in="SourceGraphic" in2="effect2_dropShadow" result="shape"/>
</filter>
</defs>
</svg>
