<svg width="40" height="48" viewBox="0 0 40 48" fill="none" xmlns="http://www.w3.org/2000/svg">
<path d="M11.5989 28.2194C11.2338 30.2516 9.78689 39.7253 9.35847 42.4028C9.3268 42.5942 9.25345 42.667 9.04508 42.667H1.2736C1.09125 42.6682 0.910787 42.6294 0.744584 42.5531C0.578381 42.4769 0.430363 42.3651 0.310672 42.2253C0.190981 42.0855 0.102445 41.9211 0.0511285 41.7433C-0.000187598 41.5655 -0.0130706 41.3786 0.0133622 41.1953L6.11952 1.83062C6.20362 1.33082 6.45883 0.87727 6.84009 0.550049C7.22135 0.222828 7.70415 0.0429745 8.20325 0.0422397C24.0713 0.0422397 25.4049 -0.348968 29.4573 1.24973C35.7185 3.71553 36.2919 9.66494 34.0415 16.1004C31.8011 22.7272 26.4884 25.5741 19.4454 25.6587C14.9245 25.7333 12.2023 24.917 11.5989 28.2194ZM37.1988 12.9877C37.0104 12.8505 36.9387 12.7963 36.8854 13.1248C36.6665 14.3317 36.3601 15.5204 35.9685 16.6813C31.8111 28.7274 20.2889 27.6791 14.6628 27.6791C14.0277 27.6791 13.6109 28.028 13.5276 28.6732C11.1738 43.5341 10.7037 46.6349 10.7037 46.6349C10.5987 47.3869 11.0688 47.9999 11.8073 47.9999H18.4235C19.3204 47.9999 20.0588 47.3327 20.2372 46.4233C20.3106 45.8525 20.1222 47.0685 21.7375 36.7599C22.2176 34.4313 23.2278 34.6752 24.7897 34.6752C32.1878 34.6752 37.9589 31.6268 39.6776 22.7882C40.3544 19.1047 40.1577 15.2316 37.1988 12.9877Z" fill="#003087"/>
</svg>
