<svg width="14" height="13" viewBox="0 0 14 13" fill="none" xmlns="http://www.w3.org/2000/svg">
<path d="M10.6126 7.88C10.4399 8.04733 10.3606 8.28933 10.3999 8.52667L10.9926 11.8067C11.0426 12.0847 10.9253 12.366 10.6926 12.5267C10.4646 12.6933 10.1613 12.7133 9.91258 12.58L6.95992 11.04C6.85725 10.9853 6.74325 10.956 6.62658 10.9527H6.44592C6.38325 10.962 6.32192 10.982 6.26592 11.0127L3.31258 12.56C3.16658 12.6333 3.00125 12.6593 2.83925 12.6333C2.44458 12.5587 2.18125 12.1827 2.24592 11.786L2.83925 8.506C2.87858 8.26667 2.79925 8.02333 2.62658 7.85333L0.219251 5.52C0.0179172 5.32467 -0.0520828 5.03133 0.0399172 4.76667C0.129251 4.50267 0.357251 4.31 0.632584 4.26667L3.94592 3.786C4.19792 3.76 4.41925 3.60667 4.53258 3.38L5.99258 0.386667C6.02725 0.32 6.07192 0.258667 6.12592 0.206667L6.18592 0.16C6.21725 0.125333 6.25325 0.0966667 6.29325 0.0733333L6.36592 0.0466667L6.47925 0H6.75992C7.01058 0.026 7.23125 0.176 7.34658 0.4L8.82592 3.38C8.93258 3.598 9.13992 3.74933 9.37925 3.786L12.6926 4.26667C12.9726 4.30667 13.2066 4.5 13.2993 4.76667C13.3866 5.034 13.3113 5.32733 13.1059 5.52L10.6126 7.88Z" fill="#FAB400"/>
</svg>
