<svg width="39" height="39" viewBox="0 0 39 39" fill="none" xmlns="http://www.w3.org/2000/svg">
<g filter="url(#filter0_dd)">
<path d="M25.0854 22.8088C26.6591 20.6613 27.364 17.9988 27.059 15.3539C26.7539 12.709 25.4615 10.2769 23.4402 8.544C21.419 6.81112 18.8179 5.90533 16.1575 6.00784C13.4971 6.11035 10.9735 7.21361 9.09153 9.09688C7.20961 10.9802 6.10816 13.5046 6.00755 16.1651C5.90694 18.8256 6.8146 21.4259 8.54892 23.446C10.2832 25.466 12.7163 26.7567 15.3614 27.0598C18.0065 27.363 20.6685 26.6562 22.8149 25.0809H22.8133C22.862 25.1459 22.914 25.2077 22.9725 25.2678L29.2298 31.5251C29.5346 31.8301 29.948 32.0015 30.3791 32.0017C30.8103 32.0018 31.2238 31.8307 31.5288 31.5259C31.8337 31.2212 32.0052 30.8078 32.0053 30.3766C32.0055 29.9455 31.8343 29.532 31.5296 29.227L25.2723 22.9697C25.2142 22.9109 25.1517 22.8565 25.0854 22.8072V22.8088ZM25.5047 16.5613C25.5047 17.7351 25.2735 18.8975 24.8243 19.9821C24.375 21.0666 23.7166 22.052 22.8865 22.8821C22.0565 23.7121 21.0711 24.3706 19.9865 24.8198C18.902 25.269 17.7396 25.5002 16.5657 25.5002C15.3918 25.5002 14.2294 25.269 13.1449 24.8198C12.0604 24.3706 11.075 23.7121 10.2449 22.8821C9.41484 22.052 8.7564 21.0666 8.30717 19.9821C7.85794 18.8975 7.62673 17.7351 7.62673 16.5613C7.62673 14.1905 8.56851 11.9168 10.2449 10.2404C11.9213 8.56404 14.195 7.62226 16.5657 7.62226C18.9365 7.62226 21.2102 8.56404 22.8865 10.2404C24.5629 11.9168 25.5047 14.1905 25.5047 16.5613V16.5613Z" fill="#66193E"/>
</g>
<defs>
<filter id="filter0_dd" x="0" y="0" width="38.0053" height="38.0017" filterUnits="userSpaceOnUse" color-interpolation-filters="sRGB">
<feFlood flood-opacity="0" result="BackgroundImageFix"/>
<feColorMatrix in="SourceAlpha" type="matrix" values="0 0 0 0 0 0 0 0 0 0 0 0 0 0 0 0 0 0 127 0"/>
<feOffset dx="2" dy="2"/>
<feGaussianBlur stdDeviation="2"/>
<feColorMatrix type="matrix" values="0 0 0 0 0.682353 0 0 0 0 0.682353 0 0 0 0 0.752941 0 0 0 0.5 0"/>
<feBlend mode="normal" in2="BackgroundImageFix" result="effect1_dropShadow"/>
<feColorMatrix in="SourceAlpha" type="matrix" values="0 0 0 0 0 0 0 0 0 0 0 0 0 0 0 0 0 0 127 0"/>
<feOffset dx="-2" dy="-2"/>
<feGaussianBlur stdDeviation="2"/>
<feColorMatrix type="matrix" values="0 0 0 0 1 0 0 0 0 1 0 0 0 0 1 0 0 0 1 0"/>
<feBlend mode="normal" in2="effect1_dropShadow" result="effect2_dropShadow"/>
<feBlend mode="normal" in="SourceGraphic" in2="effect2_dropShadow" result="shape"/>
</filter>
</defs>
</svg>
