<svg width="35" height="28" viewBox="0 0 35 28" fill="none" xmlns="http://www.w3.org/2000/svg">
<path d="M25.8635 28H8.93261C7.96872 28 7.03113 27.6007 6.36001 26.9043C4.44765 24.9201 0 19.5581 0 12.6383C0 11.8971 0.37168 11.2143 0.994136 10.812L2.71845 9.69752V6.91675C2.71845 6.07355 3.40445 5.38762 4.24757 5.38762H12.0257C13.6662 3.52623 15.5333 2.69385 18.0532 2.69385C18.3348 2.69385 18.5629 2.92206 18.5629 3.20356C18.5629 3.48505 18.3348 3.71326 18.0532 3.71326C16.1852 3.71326 14.7278 4.23636 13.4538 5.38762H27.7352C27.2271 3.67786 25.7011 1.93057 23.9863 1.12476C22.886 2.33698 21.6551 3.10263 20.2339 3.46099C19.9611 3.5297 19.6839 3.36435 19.6151 3.09142C19.5463 2.81849 19.7117 2.54141 19.9847 2.47257C21.3188 2.13616 22.4224 1.40795 23.4577 0.181051C23.5988 0.0139342 23.8306 -0.0446484 24.034 0.0354778C26.2767 0.918769 28.2551 3.16951 28.7905 5.38762H30.5485C31.3917 5.38762 32.0777 6.07355 32.0777 6.91675V9.69752L33.802 10.812C34.4241 11.2142 34.7958 11.8938 34.7961 12.6301C34.7972 14.7137 34.3947 16.828 33.5997 18.9141C33.4995 19.1771 33.2052 19.3093 32.9419 19.209C32.6789 19.1087 32.5468 18.8142 32.647 18.5512C33.3316 16.7546 33.7079 14.9396 33.7681 13.148H19.1207C18.8392 13.148 18.611 12.9198 18.611 12.6383C18.611 12.3568 18.8392 12.1286 19.1207 12.1286H33.6599C33.5693 11.9444 33.4287 11.7845 33.2486 11.6682L31.4176 10.4847H3.37855L1.54754 11.6682C1.36813 11.7841 1.22806 11.9439 1.13733 12.1286H17.0819C17.3635 12.1286 17.5916 12.3568 17.5916 12.6383C17.5916 12.9198 17.3635 13.148 17.0819 13.148H1.02798C1.23968 19.4514 5.31524 24.3513 7.09399 26.1969C7.574 26.6949 8.2441 26.9806 8.93261 26.9806H25.8635C26.5519 26.9806 27.221 26.696 27.6993 26.1998C28.6709 25.1921 30.5077 23.0825 31.8928 20.2767C32.0175 20.0242 32.3233 19.9207 32.5755 20.0453C32.828 20.1699 32.9315 20.4755 32.807 20.728C31.4331 23.5108 29.6702 25.6243 28.4332 26.9074C27.7638 27.6018 26.8271 28 25.8635 28V28ZM3.73786 9.46529H31.0582V6.91675C31.0582 6.63573 30.8296 6.40704 30.5485 6.40704H4.24757C3.96648 6.40704 3.73786 6.63573 3.73786 6.91675V7.42646H29.5291C29.8107 7.42646 30.0388 7.65467 30.0388 7.93617C30.0388 8.21766 29.8107 8.44587 29.5291 8.44587H3.73786V9.46529ZM17.3981 24.9417C15.4522 24.9417 13.8692 23.3587 13.8692 21.4129C13.8692 19.8483 14.7427 17.9913 16.6185 15.569C16.8065 15.3262 17.0907 15.1869 17.3981 15.1869C17.7054 15.1869 17.9896 15.3261 18.1776 15.569C20.0534 17.9913 20.9269 19.8482 20.9269 21.4129C20.9269 23.3587 19.3439 24.9417 17.3981 24.9417V24.9417ZM17.3981 16.2273C15.7096 18.4144 14.8886 20.111 14.8886 21.4129C14.8886 22.7966 16.0144 23.9223 17.3981 23.9223C18.7817 23.9223 19.9075 22.7966 19.9075 21.4129C19.9075 20.111 19.0866 18.4145 17.3981 16.2273ZM17.3716 16.1932C17.3716 16.1932 17.3717 16.1932 17.3716 16.1932C17.3716 16.1931 17.3716 16.1931 17.3716 16.1932Z" fill="#66193E"/>
</svg>
