<svg width="19" height="15" viewBox="0 0 19 15" fill="none" xmlns="http://www.w3.org/2000/svg">
<path d="M0.5 7.5C0.5 6.94614 0.946142 6.5 1.5 6.5C2.05386 6.5 2.5 6.94614 2.5 7.5C2.5 8.05386 2.05386 8.5 1.5 8.5C0.946142 8.5 0.5 8.05386 0.5 7.5ZM0.5 1.5C0.5 0.946142 0.946142 0.5 1.5 0.5C2.05386 0.5 2.5 0.946142 2.5 1.5C2.5 2.05386 2.05386 2.5 1.5 2.5C0.946142 2.5 0.5 2.05386 0.5 1.5ZM0.5 13.5C0.5 12.954 0.948307 12.5 1.5 12.5C2.05169 12.5 2.5 12.954 2.5 13.5C2.5 14.0439 2.04386 14.5 1.5 14.5C0.956142 14.5 0.5 14.0439 0.5 13.5ZM17.5 14H5.5C5.22614 14 5 13.7739 5 13.5C5 13.2261 5.22614 13 5.5 13H17.5C17.7739 13 18 13.2261 18 13.5C18 13.7739 17.7739 14 17.5 14ZM17.5 8H5.5C5.22614 8 5 7.77386 5 7.5C5 7.22614 5.22614 7 5.5 7H17.5C17.7739 7 18 7.22614 18 7.5C18 7.77386 17.7739 8 17.5 8ZM5.5 2C5.22614 2 5 1.77386 5 1.5C5 1.22614 5.22614 1 5.5 1H17.5C17.7739 1 18 1.22614 18 1.5C18 1.77386 17.7739 2 17.5 2H5.5Z" fill="#156778" stroke="#66193E"/>
</svg>
