<svg width="153" height="147" viewBox="0 0 153 147" fill="none" xmlns="http://www.w3.org/2000/svg">
<g filter="url(#filter0_dd)">
<path d="M73.7634 130.049L78.1812 130.572L78.2215 133.876L82.5587 134.547L83.0824 137.743L86.2782 138.669L85.8351 139.932L81.565 138.696L81.0682 135.675L76.5564 134.977L76.5162 131.714L72.5146 131.244L73.7634 130.049Z" fill="#DC4437"/>
<path d="M12.7207 102.401L23.8658 103.757L19.1124 95.0959L12.7207 102.401Z" fill="#FFD800"/>
<path d="M134.915 67.757L146.06 69.1133L141.306 60.4523L134.915 67.757Z" fill="#FFD800"/>
<path d="M117.74 32.2133C117.471 35.1003 119.955 37.7321 122.708 38.2155C125.555 38.7124 128.093 36.8593 129.073 34.2274C131.006 29.0443 125.34 24.9622 122.265 28.0909C119.391 31.0182 120.304 35.3688 123.406 35.3688C124.574 35.3688 126.454 34.3886 125.716 32.9787C125.555 32.6564 125.071 32.6832 124.91 32.9787C124.534 33.6232 124.561 33.6366 124.386 33.7843C124.104 34.0126 123.715 34.0797 123.366 34.0797C120.21 34.026 122.305 26.8153 126.025 28.5609C128.066 29.5143 128.67 31.8373 127.958 33.8649C127.273 35.8119 125.447 37.3293 123.326 37.195C120.801 37.0339 118.68 34.7109 118.518 32.2133C118.492 31.7164 117.793 31.7164 117.74 32.2133Z" fill="#66193E"/>
<path d="M6.01995 38.793C5.75139 41.68 8.23555 44.3118 10.9883 44.7952C13.835 45.2921 16.3728 43.439 17.3531 40.8072C19.2867 35.624 13.6201 31.5419 10.5451 34.6706C7.67158 37.5979 8.58467 41.9485 11.6865 41.9485C12.8547 41.9485 14.7346 40.9683 13.9961 39.5584C13.835 39.2361 13.3516 39.263 13.1904 39.5584C12.8145 40.2029 12.8413 40.2163 12.6668 40.364C12.3848 40.5923 11.9954 40.6595 11.6462 40.6595C8.49068 40.6057 10.5854 33.395 14.305 35.1406C16.346 36.094 16.9502 38.417 16.2386 40.4446C15.5537 42.3917 13.7276 43.909 11.6059 43.7747C9.08151 43.6136 6.9599 41.2906 6.79877 38.793C6.77191 38.2961 6.07366 38.2961 6.01995 38.793Z" fill="#66193E"/>
<path d="M35.0108 53.2952L34.9974 51.2139L33.2786 50.0456C33.0772 49.9114 33.1309 49.616 33.3458 49.5354L35.3062 48.8774L35.8836 46.8767C35.9508 46.6484 36.2462 46.5947 36.3805 46.7827L37.6158 48.4477L39.6837 48.3806C39.9254 48.3672 40.0597 48.6357 39.9254 48.8371L38.7169 50.5291L39.4286 52.4761C39.5092 52.7044 39.2943 52.9192 39.0795 52.8386L37.1056 52.2075L35.4674 53.4832C35.2928 53.6577 35.0108 53.5369 35.0108 53.2952Z" fill="#66193E"/>
<path d="M102.016 123.51L102.002 121.428L100.283 120.26C100.082 120.126 100.136 119.83 100.351 119.75L102.311 119.092L102.889 117.091C102.956 116.863 103.251 116.809 103.385 116.997L104.621 118.662L106.689 118.595C106.93 118.582 107.065 118.85 106.93 119.051L105.722 120.743L106.433 122.69C106.514 122.919 106.299 123.134 106.084 123.053L104.11 122.422L102.472 123.698C102.298 123.872 102.016 123.738 102.016 123.51Z" fill="#FFD800"/>
<path d="M51.3391 125.47L52.9505 122.502L51.4331 119.481C51.2586 119.132 51.554 118.743 51.93 118.81L55.2466 119.441L57.6368 117.064C57.9054 116.795 58.3753 116.957 58.4291 117.333L58.8587 120.69L61.8532 122.234C62.1889 122.408 62.1889 122.905 61.8397 123.066L58.7916 124.516L58.2545 127.847C58.1874 128.223 57.7174 128.37 57.4623 128.088L55.1392 125.644L51.8091 126.168C51.4331 126.222 51.1511 125.819 51.3391 125.47Z" fill="#FEEBC5"/>
<path d="M87.2725 49.8037C87.1382 47.9372 88.5482 46.3259 90.4012 46.1916C92.2543 46.0573 93.8656 47.4672 93.9999 49.3337C94.1342 51.2002 92.7242 52.8115 90.8712 52.9458C89.0181 53.0801 87.4068 51.6702 87.2725 49.8037Z" fill="#FFD800"/>
<path d="M92.9928 59.3508C92.7914 58.3706 92.6705 57.3232 92.3349 56.3699C92.0529 55.5508 90.7772 55.8059 90.8444 56.6787C90.9249 57.7529 91.2606 58.8272 91.4755 59.8745C91.5695 60.3042 92.12 60.4922 92.496 60.3714C92.9525 60.2102 93.0734 59.7805 92.9928 59.3508Z" fill="#FFD800"/>
<path d="M98.7668 55.1614C97.6523 54.5035 96.6721 53.6844 95.6515 52.9056C94.8459 52.3013 93.9731 53.3487 94.6445 54.0738C95.5978 55.1212 96.8466 55.9268 98.0551 56.6385C98.4311 56.8668 98.9682 56.6385 99.1562 56.2625C99.3442 55.8463 99.1428 55.3897 98.7668 55.1614Z" fill="#FFD800"/>
<path d="M96.6453 49.1189C96.3902 49.3203 96.3365 49.6157 96.4976 49.8977C96.8736 50.5825 97.8404 50.5556 98.5118 50.5288C99.2235 50.5019 99.9351 50.3542 100.607 50.126C101.6 49.7903 101.063 48.246 100.069 48.5817C98.1224 49.2531 97.3838 48.528 96.6453 49.1189Z" fill="#FFD800"/>
<path d="M95.5848 42.5391C94.6045 43.9759 93.7989 44.4593 93.9331 45.2515C94.0003 45.708 94.3763 45.9363 94.8194 45.8289C95.3431 45.708 95.6385 45.1441 95.9473 44.7547C96.2562 44.3787 96.5516 44.0027 96.8201 43.5999C97.0618 43.2373 97.1021 42.7673 96.7396 42.4451C96.4173 42.2034 95.8265 42.1765 95.5848 42.5391Z" fill="#FFD800"/>
<path d="M91.7576 42.2974C91.4488 41.4246 91.3817 41.1024 90.9654 40.6995C90.6163 40.3504 89.8643 40.5652 89.8106 41.0889C89.7569 41.6932 89.8777 41.9215 90.2134 42.8346C90.3611 43.2508 90.8311 43.4791 91.2608 43.3314C91.6771 43.1971 91.9053 42.7137 91.7576 42.2974Z" fill="#FFD800"/>
<path d="M87.6351 44.4055C86.2252 43.3312 85.9297 43.0224 85.3792 43.0895C85.0569 43.1298 84.6944 43.4387 84.7615 43.8012C84.8958 44.486 85.2852 44.674 86.5877 45.614C86.9368 45.8691 87.4202 45.8825 87.7157 45.5334C87.9708 45.2246 87.9708 44.6606 87.6351 44.4055Z" fill="#FFD800"/>
<path d="M81.955 49.3472C81.4045 49.6426 81.6193 50.6094 82.2236 50.69C82.801 50.7705 83.0293 50.6766 85.8357 50.1529C86.2654 50.0723 86.6279 49.75 86.5876 49.2801C86.5608 48.8772 86.158 48.4475 85.7148 48.5147C82.801 49.0518 82.5056 49.0384 81.955 49.3472Z" fill="#FFD800"/>
<path d="M86.3461 53.9528C84.8019 55.4433 84.587 55.1882 83.9694 56.1013C83.6874 56.5176 84.1439 57.189 84.6273 57.095C85.245 56.9741 85.4196 56.8801 86.2253 56.2356C86.6952 55.8596 87.1383 55.4568 87.5815 55.0405C87.9037 54.7317 87.8097 54.1543 87.5009 53.8723C87.1518 53.55 86.6684 53.6306 86.3461 53.9528Z" fill="#FFD800"/>
<path d="M131.812 89.7115L125.488 89.5772L123.151 83.575L124.722 82.9573L126.656 87.9122L133.182 88.0599L134.713 95.2169L139.063 94.7738L139.09 96.4792L133.383 97.0566L131.812 89.7115Z" fill="#DC4437"/>
<path d="M18.6419 72.6178L14.1704 73.1683L14.8284 76.0956L13.4185 76.4044L12.4248 71.933L16.8694 71.3824L16.0369 67.9449L20.0787 67.3809L19.7161 63.7285L21.1529 63.5942L21.6498 68.6028L17.8094 69.1534L18.6419 72.6178Z" fill="#DC4437"/>
<path d="M67.8284 12.3402C67.8284 12.3402 68.2849 11.0512 69.8023 10.5946C71.1585 10.1918 72.4207 10.984 72.7967 12.2463C73.2398 13.6965 72.4744 15.8046 69.6143 18.3022C65.8545 17.8054 64.0686 16.4626 63.6255 14.999C63.2495 13.7367 63.8537 12.3805 65.2099 11.9643C66.7407 11.5211 67.8284 12.3402 67.8284 12.3402Z" fill="#DC4437"/>
<path d="M56.7911 16.3016C58.1741 16.1136 59.2752 15.8987 60.3494 15.6302C60.6986 15.5362 61.3431 15.4959 61.5177 15.1333C61.6117 14.9453 61.5848 14.7439 61.3968 14.6231C61.0611 14.3948 60.5643 14.6365 60.2017 14.7305C59.1141 14.9991 57.8787 15.2542 56.6031 15.4287C56.3614 15.469 56.2136 15.7376 56.2674 15.9659C56.3211 16.221 56.5493 16.3284 56.7911 16.3016Z" fill="#DC4437"/>
<path d="M75.6034 14.6365C76.1271 14.5156 76.6508 14.3948 77.1611 14.2605C77.6579 14.1397 78.2622 14.0859 78.6918 13.7905C79.0141 13.5757 78.9335 13.1057 78.5307 13.0654C78.0205 13.0117 77.4565 13.24 76.9597 13.3608C76.436 13.4951 75.9257 13.616 75.402 13.7502C74.8649 13.9114 75.0529 14.7573 75.6034 14.6365Z" fill="#DC4437"/>
<path d="M63.2498 21.9547C63.6392 20.6925 64.3509 20.1688 64.8478 19.5914C65.1163 19.2826 64.8209 18.8529 64.4449 19.014C63.3975 19.4572 62.7127 20.6522 62.4039 21.6996C62.2427 22.2502 63.0753 22.5053 63.2498 21.9547Z" fill="#DC4437"/>
<path d="M69.9098 23.2439C69.7621 22.7068 69.7084 22.1697 69.789 21.6192C69.8293 21.2835 70.2455 20.2764 69.601 20.2629C68.9833 20.2495 68.9027 21.27 68.8624 21.7132C68.8087 22.2906 68.8759 22.8948 69.037 23.4454C69.1981 23.9959 70.071 23.8079 69.9098 23.2439Z" fill="#DC4437"/>
<path d="M73.5224 18.893C73.8581 19.0273 74.2072 19.175 74.5429 19.3093C74.8786 19.4436 75.2277 19.6853 75.5903 19.5242C75.7917 19.4302 75.832 19.1885 75.7514 19.0005C75.6172 18.6648 75.1069 18.5573 74.798 18.4365C74.4623 18.3022 74.1132 18.1545 73.7775 18.0202C73.5493 17.9262 73.2807 18.1008 73.2136 18.3291C73.1464 18.5842 73.2941 18.799 73.5224 18.893Z" fill="#DC4437"/>
<path d="M63.4779 10.0174C61.7323 7.62723 61.7457 7.60037 61.4771 7.43924C61.1951 7.26468 60.8192 7.51981 60.8863 7.8555C60.9669 8.17777 60.9534 8.12406 62.8065 10.6485C62.9542 10.8499 63.2899 10.8231 63.451 10.6754C63.6524 10.4874 63.6256 10.2188 63.4779 10.0174Z" fill="#DC4437"/>
<path d="M68.2181 8.83566C68.2853 8.35226 68.2987 7.86885 68.2584 7.37202C68.2181 6.91547 68.2316 6.21722 67.7482 6.0158C67.6407 5.97552 67.4796 6.0158 67.4125 6.09637C67.1036 6.43207 67.3185 7.00947 67.3588 7.42573C67.399 7.88228 67.3722 8.33883 67.3319 8.79538C67.3051 9.03708 67.5333 9.25192 67.7616 9.25192C68.0167 9.27878 68.1913 9.07736 68.2181 8.83566Z" fill="#DC4437"/>
<path d="M75.0262 7.65401C75.0531 7.42574 74.8517 7.27803 74.6503 7.25118C74.2609 7.19746 73.8715 7.65401 73.6163 7.90914C73.3209 8.20456 73.0523 8.52683 72.7972 8.86252C72.6495 9.05051 72.7435 9.35935 72.9449 9.48021C73.1732 9.61448 73.4149 9.52049 73.5626 9.3325C74.5428 8.08371 74.9457 8.20456 75.0262 7.65401Z" fill="#DC4437"/>
<path d="M21.5017 128.894C21.5017 128.894 21.9583 127.605 23.4756 127.148C24.8318 126.745 26.0941 127.537 26.47 128.8C26.9132 130.25 26.1478 132.358 23.2876 134.856C19.5278 134.359 17.7419 133.016 17.2988 131.552C16.9228 130.29 17.5271 128.934 18.8833 128.518C20.4141 128.075 21.5017 128.894 21.5017 128.894Z" fill="#DC4437"/>
<path d="M10.4644 132.855C11.8475 132.667 12.9485 132.452 14.0228 132.184C14.3719 132.09 15.0164 132.049 15.191 131.687C15.285 131.499 15.2581 131.297 15.0702 131.177C14.7345 130.948 14.2376 131.19 13.8751 131.284C12.7874 131.553 11.552 131.808 10.2764 131.982C10.0347 132.022 9.88699 132.291 9.9407 132.519C9.99441 132.774 10.2227 132.882 10.4644 132.855Z" fill="#DC4437"/>
<path d="M29.2768 131.19C29.8005 131.069 30.3241 130.948 30.8344 130.814C31.3312 130.693 31.9355 130.639 32.3652 130.344C32.6875 130.129 32.6069 129.659 32.2041 129.619C31.6938 129.565 31.1298 129.793 30.633 129.914C30.1093 130.049 29.599 130.169 29.0754 130.304C28.5382 130.465 28.7262 131.311 29.2768 131.19Z" fill="#DC4437"/>
<path d="M16.9232 138.508C17.3126 137.246 18.0243 136.722 18.5211 136.145C18.7897 135.836 18.4942 135.406 18.1183 135.568C17.0709 136.011 16.3861 137.206 16.0772 138.253C15.9161 138.804 16.7486 139.059 16.9232 138.508Z" fill="#DC4437"/>
<path d="M23.5832 139.797C23.4355 139.26 23.3817 138.723 23.4623 138.173C23.5026 137.837 23.9189 136.83 23.2743 136.816C22.6566 136.803 22.5761 137.824 22.5358 138.267C22.4821 138.844 22.5492 139.448 22.7104 139.999C22.8715 140.549 23.7443 140.361 23.5832 139.797Z" fill="#DC4437"/>
<path d="M27.1952 135.447C27.5309 135.581 27.8801 135.728 28.2158 135.863C28.5515 135.997 28.9006 136.239 29.2631 136.078C29.4646 135.984 29.5048 135.742 29.4243 135.554C29.29 135.218 28.7797 135.111 28.4709 134.99C28.1352 134.856 27.7861 134.708 27.4504 134.574C27.2221 134.48 26.9535 134.654 26.8864 134.883C26.8193 135.138 26.967 135.353 27.1952 135.447Z" fill="#DC4437"/>
<path d="M17.1512 126.571C15.4056 124.181 15.419 124.154 15.1505 123.993C14.8685 123.818 14.4925 124.073 14.5596 124.409C14.6402 124.731 14.6268 124.678 16.4798 127.202C16.6275 127.403 16.9632 127.377 17.1244 127.229C17.3258 127.041 17.2989 126.772 17.1512 126.571Z" fill="#DC4437"/>
<path d="M21.8915 125.389C21.9586 124.906 21.9721 124.422 21.9318 123.925C21.8915 123.469 21.9049 122.771 21.4215 122.569C21.3141 122.529 21.153 122.569 21.0858 122.65C20.777 122.986 20.9918 123.563 21.0321 123.979C21.0724 124.436 21.0455 124.892 21.0052 125.349C20.9784 125.591 21.2067 125.805 21.4349 125.805C21.6901 125.832 21.8646 125.631 21.8915 125.389Z" fill="#DC4437"/>
<path d="M28.6996 124.207C28.7264 123.979 28.525 123.831 28.3236 123.805C27.9342 123.751 27.5448 124.207 27.2897 124.463C26.9942 124.758 26.7257 125.08 26.4706 125.416C26.3229 125.604 26.4168 125.913 26.6183 126.034C26.8465 126.168 27.0882 126.074 27.2359 125.886C28.2162 124.637 28.619 124.758 28.6996 124.207Z" fill="#DC4437"/>
<path d="M86.2516 104.066C86.3187 94.2501 86.3859 84.5149 86.453 74.7394C85.8353 74.6991 85.2311 74.7259 84.6537 74.6185C83.2169 74.3231 82.2232 73.3429 81.3236 72.2821C79.1214 69.6905 77.6175 66.6826 76.221 63.6077C75.5764 62.1977 65.9486 49.307 65.2101 45.5337C64.8207 43.5464 64.5924 41.5188 64.3239 39.5046C64.203 38.6049 64.1762 37.6784 64.109 36.7653C64.0687 36.1611 63.7062 35.8388 62.9811 35.7448C61.3429 35.53 59.8792 35.9999 58.4962 36.819C56.1194 38.229 55.0183 40.4446 54.5752 43.0496C53.9307 46.8094 54.6558 50.3275 56.3745 53.7247C57.4891 55.9135 58.4156 58.1962 59.3287 60.479C59.7449 61.5129 59.9061 62.6409 59.6107 63.7822C59.5032 64.2119 59.2884 64.3328 58.8184 64.3328C55.1123 64.2656 51.4062 64.1851 47.6867 64.2253C45.498 64.2522 43.3226 64.467 41.1473 64.6282C40.1537 64.6953 39.3211 65.1519 38.6229 65.8367C37.1324 67.2735 35.9507 68.9117 35.3599 70.9259C35.1182 71.7584 35.1853 72.5372 35.7493 73.2623C36.2461 73.8934 36.7027 74.5514 37.1727 75.2094C37.6426 75.8539 37.7098 76.5656 37.3338 77.2638C36.837 78.1769 36.2999 79.0766 35.7627 79.9763C34.9034 81.4265 34.9571 82.0844 36.0582 83.3467C36.6087 83.9778 37.1458 84.6357 37.6695 85.2937C38.2066 85.9517 38.3409 86.6902 38.0321 87.4959C37.6964 88.3821 37.4009 89.2952 36.9981 90.1546C36.2864 91.6585 36.6624 92.9073 37.7635 94.0218C38.408 94.6798 39.0391 95.3377 39.6971 95.9823C40.4088 96.694 40.8116 97.4996 40.7311 98.5336C40.6908 99.0707 40.7579 99.6212 40.6908 100.158C40.5834 101.139 40.9459 101.944 41.5367 102.696C42.6244 104.066 43.9135 105.18 45.3905 106.093C46.5185 106.792 47.7941 107.007 49.0832 107.114C51.0168 107.289 52.9639 107.436 54.9109 107.463C57.0594 107.503 59.2213 107.409 61.3697 107.342C63.0751 107.289 64.767 107.208 66.4723 107.127C69.3325 106.993 72.1523 106.684 74.9722 106.134C78.3023 105.476 81.6458 104.925 84.9759 104.334C85.3922 104.24 85.8085 104.16 86.2516 104.066Z" fill="#FEEBC5"/>
<path d="M87.3663 88.8522C87.3931 84.5284 87.42 80.2047 87.4468 75.8809C87.4468 75.0618 87.42 74.2695 87.2588 73.6384C87.0977 73.0208 86.9097 72.7119 86.668 72.7119C85.8892 72.6985 83.499 73.8533 83.4856 75.6526C83.4722 76.4046 83.4722 77.1565 83.4722 77.9219C83.4185 85.9115 83.3647 93.9011 83.311 101.891C83.311 102.347 83.3245 102.817 83.3513 103.247C83.4453 104.388 85.5938 105.087 86.3457 105.154C86.8291 105.194 87.2723 104.187 87.2723 101.904C87.2991 97.5401 87.3394 93.2029 87.3663 88.8522Z" fill="#E6E6E6"/>
<path d="M100.028 88.9327C100.055 84.2195 100.096 79.5063 100.122 74.7931C100.122 73.8934 100.002 73.0475 99.3974 72.3358C98.82 71.6644 98.1083 71.3287 97.2623 71.3153C94.4693 71.2884 91.6763 71.275 88.8833 71.2616C87.0706 71.2482 85.8486 72.5104 85.8083 74.4574C85.7949 75.2765 85.7949 76.0956 85.7949 76.9281C85.7412 85.6294 85.6741 94.3307 85.6338 103.032C85.6338 103.529 85.6875 104.039 85.8218 104.509C86.1709 105.744 87.2586 106.55 88.4939 106.563C91.2064 106.59 93.9322 106.55 96.6447 106.644C98.3903 106.698 99.9479 105.61 99.9479 103.126C99.9345 98.3993 99.9882 93.6593 100.028 88.9327Z" fill="#66193E"/>
<path d="M88.5342 76.2973C88.5342 77.2641 89.313 78.0563 90.2798 78.0697C91.2466 78.0697 92.0389 77.2909 92.0523 76.3241C92.0523 75.3573 91.2735 74.5651 90.3067 74.5516C89.3264 74.5516 88.5342 75.3305 88.5342 76.2973Z" fill="#E6E6E6"/>
</g>
<defs>
<filter id="filter0_dd" x="0" y="0" width="152.06" height="146.329" filterUnits="userSpaceOnUse" color-interpolation-filters="sRGB">
<feFlood flood-opacity="0" result="BackgroundImageFix"/>
<feColorMatrix in="SourceAlpha" type="matrix" values="0 0 0 0 0 0 0 0 0 0 0 0 0 0 0 0 0 0 127 0"/>
<feOffset dx="2" dy="2"/>
<feGaussianBlur stdDeviation="2"/>
<feColorMatrix type="matrix" values="0 0 0 0 0.682353 0 0 0 0 0.682353 0 0 0 0 0.752941 0 0 0 0.4 0"/>
<feBlend mode="normal" in2="BackgroundImageFix" result="effect1_dropShadow"/>
<feColorMatrix in="SourceAlpha" type="matrix" values="0 0 0 0 0 0 0 0 0 0 0 0 0 0 0 0 0 0 127 0"/>
<feOffset dx="-2" dy="-2"/>
<feGaussianBlur stdDeviation="2"/>
<feColorMatrix type="matrix" values="0 0 0 0 1 0 0 0 0 1 0 0 0 0 1 0 0 0 0.5 0"/>
<feBlend mode="normal" in2="effect1_dropShadow" result="effect2_dropShadow"/>
<feBlend mode="normal" in="SourceGraphic" in2="effect2_dropShadow" result="shape"/>
</filter>
</defs>
</svg>
