<svg width="29" height="28" viewBox="0 0 29 28" fill="none" xmlns="http://www.w3.org/2000/svg">
<path d="M19.7814 28C17.5348 28 15.3133 27.5891 13.1785 26.7787C11.14 26.0048 9.0194 25.6124 6.87572 25.6124C4.73204 25.6124 2.61142 26.0047 0.572948 26.7787C0.442876 26.8281 0.297074 26.8103 0.182676 26.7314C0.0683343 26.6524 0 26.5223 0 26.3833V15.4514C0 15.2758 0.108591 15.1184 0.272774 15.0561C4.14218 13.5871 8.27043 13.438 12.2113 14.625C12.4349 14.6923 12.5616 14.9282 12.4942 15.1518C12.4269 15.3755 12.191 15.502 11.9674 15.4348C8.29918 14.33 4.45994 14.4383 0.845666 15.7457V25.7808C2.80374 25.1076 4.82935 24.7666 6.87566 24.7666C9.1223 24.7666 11.3438 25.1775 13.4786 25.988C15.5171 26.7619 17.6378 27.1543 19.7814 27.1543C21.8297 27.1543 23.8567 26.7961 25.8114 26.0891V16.0539C23.8919 16.7138 21.9066 17.0546 19.9009 17.0676C17.6962 17.0825 15.5114 16.7001 13.4085 15.9323C13.1891 15.8523 13.0762 15.6095 13.1563 15.3901C13.2364 15.1708 13.4789 15.0578 13.6986 15.1379C15.7064 15.8709 17.791 16.2354 19.8953 16.2219C22.0002 16.2082 24.0824 15.8159 26.0842 15.056C26.2143 15.0067 26.3601 15.0244 26.4744 15.1033C26.5888 15.1822 26.6571 15.3124 26.6571 15.4513V26.3833C26.6571 26.5589 26.5485 26.7163 26.3843 26.7786C24.2496 27.5891 22.0281 28 19.7814 28ZM18.0342 25.0406C17.8106 25.0406 17.5824 25.0332 17.3502 25.0179C15.8806 24.9217 14.4766 24.4524 13.1784 23.9596C11.8867 23.4692 10.5511 22.9621 9.22254 22.7824L8.86102 22.7337C7.45267 22.5448 6.2363 22.3815 5.34987 22.0356C4.27281 21.6152 3.74926 20.936 3.74926 19.9588C3.74926 19.2305 4.04588 18.5678 4.60699 18.0422C5.57923 17.1315 7.29198 16.6846 9.30689 16.8168C10.7764 16.913 12.1804 17.3823 13.4786 17.8751C14.7703 18.3655 16.1059 18.8725 17.4346 19.0523C17.666 19.0836 17.8282 19.2966 17.7969 19.5281C17.7656 19.7595 17.5532 19.9218 17.3212 19.8904C15.8964 19.6976 14.5147 19.173 13.1784 18.6658C11.9417 18.1963 10.61 17.7496 9.25169 17.6607C7.46947 17.544 5.98732 17.9081 5.18518 18.6594C4.79355 19.0262 4.59498 19.4634 4.59498 19.9588C4.59498 21.2479 6.09636 21.5094 8.97351 21.8955L9.33598 21.9442C10.7606 22.137 12.1423 22.6616 13.4787 23.1688C14.7153 23.6383 16.047 24.085 17.4055 24.174C19.1877 24.2907 20.6697 23.9266 21.4719 23.1752C21.8636 22.8084 22.0621 22.3712 22.0621 21.8758C22.0621 20.9149 21.279 20.4712 18.9588 20.1175C18.7279 20.0824 18.5693 19.8666 18.6045 19.6358C18.6397 19.4049 18.856 19.2466 19.0862 19.2815C21.0199 19.5762 22.9078 20.0193 22.9078 21.8758C22.9078 22.6041 22.6112 23.2668 22.0501 23.7925C21.19 24.5982 19.7499 25.0406 18.0342 25.0406V25.0406ZM13.5503 13.6864C13.5491 13.6864 13.548 13.6864 13.5468 13.6864C13.3143 13.6846 13.127 13.4952 13.1274 13.263C13.1274 13.2621 13.1274 13.2612 13.1274 13.2602L13.1621 8.86267C13.181 8.48085 13.0643 8.27337 12.6554 8.04496L11.0624 7.15459C9.22942 6.13019 8.54134 3.81551 9.52847 1.99467C10.0177 1.09234 10.8296 0.43809 11.8148 0.152462C12.8003 -0.133167 13.8359 -0.0148783 14.7314 0.485564C15.6221 0.983412 16.1754 1.9265 16.1754 2.94695V3.23033L21.9807 6.4748C22.1845 6.58874 22.2574 6.84635 22.1435 7.05023C22.0295 7.25405 21.7719 7.327 21.5681 7.21306L16.1754 4.19919V7.10571C20.1719 9.33931 25.8533 12.5145 26.1337 12.6712C26.7442 13.0125 27.5188 12.7933 27.86 12.1827C28.2013 11.5721 27.9821 10.7977 27.3715 10.4565L22.9897 8.00753C22.7858 7.89358 22.7129 7.63597 22.8268 7.4321C22.9407 7.22822 23.1983 7.15532 23.4023 7.26927L27.7841 9.71814C28.8018 10.287 29.167 11.5776 28.5982 12.5953C28.0294 13.6129 26.7387 13.9782 25.7211 13.4094C25.4379 13.2511 19.6441 10.013 15.6423 7.77653H15.1091C14.5302 7.77653 14.0076 8.27455 14.0076 8.87997L13.973 13.2668C13.9712 13.4993 13.7822 13.6864 13.5503 13.6864V13.6864ZM12.8794 0.846123C12.6026 0.846123 12.3239 0.885365 12.0503 0.96475C11.2841 1.18689 10.6525 1.69579 10.272 2.3978C9.50428 3.81387 10.044 5.61656 11.475 6.41633L13.0681 7.30671C13.2694 7.41924 13.4381 7.54441 13.5744 7.68305C13.7841 7.41456 14.0624 7.20206 14.3823 7.07233C12.985 6.29139 12.0001 5.74094 11.8874 5.67796C11.3944 5.40248 11.0382 4.95143 10.8844 4.40802C10.7307 3.86462 10.7977 3.29381 11.0733 2.80087C11.6421 1.78318 12.9328 1.41794 13.9504 1.98678L14.3569 2.21394C14.5607 2.32788 14.6336 2.58549 14.5197 2.78937C14.4058 2.99324 14.1481 3.0662 13.9443 2.9522L13.5379 2.72509C12.9273 2.38381 12.1529 2.60291 11.8115 3.21352C11.6462 3.5093 11.606 3.85176 11.6983 4.17782C11.7905 4.50387 12.0042 4.7745 12.3001 4.93981C12.4266 5.01057 13.6536 5.69628 15.3297 6.63306V2.94695C15.3297 2.2326 14.9424 1.57232 14.3188 1.22382C13.871 0.973545 13.378 0.846123 12.8794 0.846123V0.846123Z" fill="#66193E"/>
</svg>
