<svg xmlns="http://www.w3.org/2000/svg" width="311.582" height="311.586" viewBox="0 0 311.582 311.586">
  <g id="info" transform="translate(0 0.001)">
    <path id="Path_11449" data-name="Path 11449" d="M162.45.17c16.67.76,32.94,3.77,48.42,10,49.47,19.87,81.95,55.47,95.61,107,22.86,86.26-33.5,174.9-121.1,191.42-7.55,1.43-15.28,1.92-22.93,2.84a65,65,0,0,0-7.4-2,151.11,151.11,0,0,1-77.9-36.53,152.34,152.34,0,0,1-40.38-55.32A155,155,0,0,1,25.62,133,153.121,153.121,0,0,1,44.27,79,156.14,156.14,0,0,1,90.65,28.21a149.13,149.13,0,0,1,64.77-26A53.8,53.8,0,0,0,162.45.17Zm17.23,119.76c0-16,.07-31.92,0-47.89a23.937,23.937,0,1,0-47.875,0q-.083,47.9,0,95.79a24.54,24.54,0,0,0,1.33,7.67c3.7,10.9,14.91,17.78,25.75,16,12.21-2,20.67-11.53,20.75-23.72C179.76,151.86,179.68,135.9,179.68,119.93ZM155.8,215.72a24,24,0,1,0,23.88,24.12,24,24,0,0,0-23.88-24.12Z" fill="#f96450"/>
    <path id="Path_11450" data-name="Path 11450" d="M162.45.17a53.8,53.8,0,0,1-7,2,149.13,149.13,0,0,0-64.8,26.04A156.14,156.14,0,0,0,44.27,79a153.12,153.12,0,0,0-18.65,54,155,155,0,0,0,11.15,84.56,152.34,152.34,0,0,0,40.38,55.32,151.11,151.11,0,0,0,77.9,36.53,65,65,0,0,1,7.4,2C73.91,315.58,0,244.57,0,155.43,0,67,74.23-3.95,162.45.17Z" fill="#dc4733"/>
    <path id="Path_11451" data-name="Path 11451" d="M179.68,119.93c0,16,.08,31.93,0,47.9-.08,12.19-8.54,21.74-20.75,23.72-10.84,1.76-22-5.12-25.75-16a24.539,24.539,0,0,1-1.33-7.67q-.14-47.9,0-95.79a23.938,23.938,0,1,1,47.875,0C179.75,88,179.68,104,179.68,119.93Z" fill="#efefef"/>
    <path id="Path_11452" data-name="Path 11452" d="M155.8,215.72a24,24,0,1,1-24,24A24,24,0,0,1,155.8,215.72Z" fill="#efeeee"/>
  </g>
</svg>
