<svg xmlns="http://www.w3.org/2000/svg" width="2772.519" height="3056.312" viewBox="0 0 2772.519 3056.312">
  <g id="panda" transform="translate(0.022 0.002)">
    <g id="Group_1959" data-name="Group 1959" opacity="0.2">
      <ellipse id="Ellipse_46" data-name="Ellipse 46" cx="698.02" cy="86.86" rx="698.02" ry="86.86" transform="translate(726.8 2882.59)" fill="#000072"/>
    </g>
    <path id="Path_11449" data-name="Path 11449" d="M1244.13,421.2s-193.92-196.22-164-228c55.18-58.57,641.36-198.53,733.92-175.25,91,22.89,538.41,527.3,532.83,549.58S1988.09,641,1988.09,641Z" fill="#5f5f82"/>
    <g id="Group_1960" data-name="Group 1960" opacity="0.3">
      <path id="Path_11450" data-name="Path 11450" d="M2346.94,567.53c-.62,2.53-12.83,5.43-21.42,8.59-56.32-85.44-445.55-515.69-517-532.77-90.68-21.69-651.61,110.24-729.23,171-3.16-9.51-3.23-16.85.84-21.18C1135.37,134.62,1721.54-5.35,1814.1,18,1905.08,40.82,2352.52,545.25,2346.94,567.53Z" fill="#fff"/>
    </g>
    <g id="Group_1961" data-name="Group 1961" opacity="0.2">
      <path id="Path_11451" data-name="Path 11451" d="M1322.93,438.35s-147.18-148.92-124.44-173.06c41.88-44.44,484.71-137.17,557-133,65.17,3.75,410.07,371.86,404.4,417.11-2.17,17.3-272.35,55.75-272.35,55.75Z" fill="#000072"/>
    </g>
    <path id="Path_11452" data-name="Path 11452" d="M1988.09,656.44a15.533,15.533,0,0,1-4.38-.64L1239.75,436a15.38,15.38,0,0,1-6.62-4c-.49-.49-49.43-50.1-94-103-86.44-102.47-84.81-131-70.17-146.51,42.41-45,307.83-110.15,360.61-122.75C1575,25.11,1763.92-10.61,1817.88,2.94c57.06,14.36,218.83,181.27,310.17,279.48,58.64,63.06,117.92,129.8,162.63,183.11,75.26,89.75,73.41,97.16,71.26,105.75-3.06,12.17-5.94,23.67-193.86,56.55-88.21,15.44-176.89,28.32-177.77,28.45A16.465,16.465,0,0,1,1988.09,656.44ZM1252.34,407.5l736.89,217.68c142.92-20.79,298.19-48.59,337.94-63.33-21.73-32.81-110.64-139.52-231.41-268.69C1953.7,141.2,1844.33,41.5,1810.33,32.94c-38.71-9.74-192.34,13.69-373.61,57-175.48,41.9-319.13,89.05-344.3,112.88C1091,224.51,1163.17,316.87,1252.34,407.5Z" fill="#000072"/>
    <path id="Path_11453" data-name="Path 11453" d="M1348.4,530.77s-5-226.68-160.38-254.7C1062.81,253.48,950.9,333.64,957.56,460,966.12,622.45,1117,674.23,1117,674.23" fill="#686779"/>
    <path id="Path_11454" data-name="Path 11454" d="M1348.41,530.76,1117,674.22S999,633.7,965.78,511.93a246.383,246.383,0,0,1-8.22-52c-6.64-126.32,105.26-206.47,230.48-183.9,73.54,13.29,113.36,71,134.94,128.19C1347,467.85,1348.41,530.76,1348.41,530.76Z" fill="#5f5f82"/>
    <g id="Group_1962" data-name="Group 1962" opacity="0.2">
      <path id="Path_11455" data-name="Path 11455" d="M1348.41,530.76,1117,674.22S999,633.7,965.78,511.93c0,0,48.3,61.84,108.78,10.72,89.55-75.64,178-117.59,248.42-118.4C1347,467.85,1348.41,530.76,1348.41,530.76Z" fill="#000072"/>
    </g>
    <g id="Group_1963" data-name="Group 1963" opacity="0.3">
      <path id="Path_11456" data-name="Path 11456" d="M957.36,443.75c25-96.3,124.69-152,234.16-132.27,90.36,16.3,131.85,97.16,150.85,165.33-12-68.88-47.84-181.53-154.36-200.73C1068.25,254.46,960.64,326.87,957.36,443.75Z" fill="#fff"/>
    </g>
    <path id="Path_11457" data-name="Path 11457" d="M1074.25,668.25a15.359,15.359,0,0,1-8.16-2.34c-43.7-27.21-117.92-90-124-205.14C938.92,400.31,961,346,1004.27,307.87c48.27-42.56,116.27-59.69,186.49-47,129.66,23.38,162.2,172.28,170.18,235.22a15.469,15.469,0,1,1-30.692,3.89c-7.118-56.16-35.488-188.92-145-208.67-60.89-11-119.41,3.52-160.56,39.78-36,31.76-54.39,77.24-51.72,128.07,5.06,96,62.31,151.16,109.44,180.51a15.47,15.47,0,0,1-8.19,28.6Z" fill="#000072"/>
    <path id="Path_11458" data-name="Path 11458" d="M1250,519.77l78-207.66s220.19-87.16,423.35-23.17c178.38,56.18,279.16,208.2,279.16,208.2l-70.4,228.23Z" fill="#545468"/>
    <path id="Path_11459" data-name="Path 11459" d="M1251.77,519.77l78-207.66s220.19-87.16,423.35-23.17c178.38,56.18,279.16,208.19,279.16,208.19l-70.4,228.24Z" fill="#5f5f82"/>
    <g id="Group_1964" data-name="Group 1964" opacity="0.2">
      <path id="Path_11460" data-name="Path 11460" d="M2030.52,497.14l-70.39,228.24-35.35-10.24,57.15-185.34S1891.2,393,1730.57,342.34c-121.26-38.2-249.23-16.59-321.75,2.31a116.52,116.52,0,0,0-79.49,71.82l-42.76,113.88L1250,519.78l78-207.68s220.2-87.16,423.33-23.16C1929.74,345.13,2030.52,497.14,2030.52,497.14Z" fill="#000072"/>
    </g>
    <path id="Path_11461" data-name="Path 11461" d="M1960.12,740.84a15.629,15.629,0,0,1-4.31-.61l-710.08-205.6a15.47,15.47,0,0,1-10.18-20.29l78-207.67a15.48,15.48,0,0,1,8.79-8.94c9.2-3.65,227.67-88.43,433.69-23.54,181.51,57.17,283.16,208,287.4,214.4a15.45,15.45,0,0,1,1.89,13.1l-70.4,228.24a15.48,15.48,0,0,1-14.8,10.91ZM1270.38,509.56l679.43,196.73,63.67-206.43c-20.41-27.93-115.48-148.52-266.77-196.17C1569.84,248,1377,310.93,1340,324.16Z" fill="#000072"/>
    <path id="Path_11462" data-name="Path 11462" d="M882,2238.81c0,116.84,55.62,420,150.65,577.4,0,0-52.89,20.89-59.46,70.21-4.7,35.32,6.68,77.76,67.43,88.93,39.89,7.33,205.37,36.12,275.55-28.13,63-57.65-14.53-325.26,8.91-484.11" fill="#686779"/>
    <path id="Path_11463" data-name="Path 11463" d="M1316.12,2947.22c-70.17,64.26-235.65,35.45-275.54,28.11-54.5-10-69.29-45.21-68.3-77.87h0a97.973,97.973,0,0,1,.88-11c6.53-49.32,59.45-70.21,59.45-70.21-57.69-95.53-100.85-244.78-125.88-373.45-16.18-83.31-24.77-158-24.77-203.95L1325,2463.11C1301.58,2622,1379.09,2889.57,1316.12,2947.22Z" fill="#5f5f82"/>
    <g id="Group_1965" data-name="Group 1965" opacity="0.2">
      <path id="Path_11464" data-name="Path 11464" d="M1316.12,2947.22c-70.17,64.26-235.65,35.45-275.54,28.11-54.5-10-69.29-45.21-68.3-77.87,1.06,2.16,19.74,36.84,134,40,107.42,3,170-7.84,180.34-85.47,18.08-135.32-51.92-230.67-88.55-252-30.87-18-202.19-58-291.37-157.2-16.18-83.31-24.77-158-24.77-203.95L1325,2463.11C1301.58,2622,1379.09,2889.57,1316.12,2947.22Z" fill="#000072"/>
    </g>
    <path id="Path_11465" data-name="Path 11465" d="M1167.56,3003.5c-47.69,0-94.93-6.53-129.79-12.94-57.51-10.57-87.41-50.27-80-106.18,5.25-39.46,34.51-63.11,53.26-74.43-93.71-167-144.63-461.64-144.59-571.14A15.47,15.47,0,0,1,882,2223.35h0a15.47,15.47,0,0,1,15.47,15.47c0,109.76,52.31,410.22,148.43,569.39a15.46,15.46,0,0,1-7.57,22.38c-.39.17-44.56,18.4-49.81,57.87-3.65,27.43,2.91,62.12,54.9,71.68,124.76,22.94,220.35,14.07,262.3-24.33,30.24-27.68,20.2-131.37,10.5-231.65-8.25-85.16-16.78-173.23-6.44-243.31a15.47,15.47,0,1,1,30.61,4.51c-9.79,66.35-1.46,152.5,6.61,235.82,11.4,117.69,21.24,219.34-20.39,257.44C1289,2993,1227.9,3003.5,1167.56,3003.5Z" fill="#000072"/>
    <path id="Path_11466" data-name="Path 11466" d="M1146.33,2863a87.6,87.6,0,0,0-11.6,14.66,81.318,81.318,0,0,0-7.89,16.61,78.107,78.107,0,0,0-3.75,17.69,58.005,58.005,0,0,0,1,17.44,61.94,61.94,0,0,0,15.53,30.57c7.75,8.31,18.07,13.94,29.8,17.2h.12a11.24,11.24,0,0,1-4.81,21.93c-15.57-2.54-31.38-10-42.92-22.12a80.865,80.865,0,0,1-13.82-90.7,73.22,73.22,0,0,1,13.51-19.32,66.48,66.48,0,0,1,8.78-7.67,54.485,54.485,0,0,1,10.31-6,5.62,5.62,0,0,1,6.31,9.07Z" fill="#000072"/>
    <path id="Path_11467" data-name="Path 11467" d="M1060.19,2856.13a105.721,105.721,0,0,0-15.2,31.59,88,88,0,0,0-3,33.93c1.2,11.43,4.69,21.49,10.76,29.11s15.19,13.16,25.9,17.31l.15.06a11.25,11.25,0,0,1-6.69,21.43,81.5,81.5,0,0,1-20.69-8.18,62.171,62.171,0,0,1-17.92-15.27,62.8,62.8,0,0,1-10.92-20.88,79.638,79.638,0,0,1-3.53-22c-.49-14.24,1.65-29.17,7.55-42.26a89.162,89.162,0,0,1,10.86-18.3,72.174,72.174,0,0,1,15.22-14.93,5.63,5.63,0,0,1,7.86,7.83Z" fill="#000072"/>
    <path id="Path_11468" data-name="Path 11468" d="M1028.09,2801.42c2.68-.68,4.49-1,6.62-1.41s4.09-.71,6.1-1c4-.64,8-1,12-1.36a237.273,237.273,0,0,1,23.8-.72,269.979,269.979,0,0,1,46.75,4.92c3.85.65,7.62,1.7,11.42,2.53s7.58,1.74,11.28,2.92l11.16,3.3,10.94,3.93c7.34,2.43,14.29,5.85,21.38,8.84,7,3.19,13.73,6.94,20.57,10.38a7.72,7.72,0,0,1-6.28,14.09l-.67-.27c-6.78-2.69-13.41-5.69-20.25-8.11-6.92-2.23-13.66-4.88-20.71-6.54l-10.46-2.78-10.59-2.15c-3.5-.8-7.06-1.31-10.61-1.79s-7.08-1.13-10.65-1.41a243.946,243.946,0,0,0-42.61-.8,209.7,209.7,0,0,0-20.91,2.44c-3.4.64-6.85,1.22-10.13,2-1.67.38-3.31.77-4.89,1.23s-3.34,1-4.26,1.29a15.49,15.49,0,0,1-10.55-29.12,12.8,12.8,0,0,1,1.45-.45Z" fill="#000072"/>
    <path id="Path_11469" data-name="Path 11469" d="M1226.19,1531.3c-299.74,13.09-484.37-214.5-557.46-270.63-64.85-49.8-246.93,33.07-221.38,204.76,26.59,178.68,324.11,418.54,668.89,395.78" fill="#686779"/>
    <path id="Path_11470" data-name="Path 11470" d="M1226.2,1531.31,1160,1730l-43.71,131.2c-344.83,22.8-642.36-217.08-668.93-395.77-25.58-171.68,156.52-254.55,221.37-204.75,20.77,15.93,50.54,45.73,89.44,79.93C856.05,1426.71,1011.62,1540.7,1226.2,1531.31Z" fill="#5f5f82"/>
    <g id="Group_1966" data-name="Group 1966" opacity="0.2">
      <path id="Path_11471" data-name="Path 11471" d="M1160,1730l-43.71,131.2c-344.83,22.8-642.36-217.08-668.93-395.77-25.58-171.68,156.52-254.55,221.37-204.75,20.77,15.93,50.54,45.73,89.44,79.93,16.69,59.94-42.68,146.62-83.31,207.21-49.87,74.39,172.31,223,369.79,159.06C1098.16,1689.56,1134.86,1704.05,1160,1730Z" fill="#000072"/>
    </g>
    <g id="Group_1967" data-name="Group 1967" opacity="0.2">
      <path id="Path_11472" data-name="Path 11472" d="M1934.78,1433c-10.5,192.64-199.13,336.39-503.2,322.41-329-15.12-481-217-465.16-375.21,19.25-192,235.79-337,503.2-322.42S1945.29,1240.34,1934.78,1433Z" fill="#000072"/>
    </g>
    <path id="Path_11473" data-name="Path 11473" d="M1801.11,1666.21c-57.33,40.78-131.76,69.73-220.83,82.62l-31.3-63C1644.14,1689.11,1729.36,1680.82,1801.11,1666.21Z" fill="#545468"/>
    <path id="Path_11474" data-name="Path 11474" d="M1697.17,1719.94c-73.84,27-163.16,40.15-265.59,35.45-168-7.74-289.86-64.15-366.78-138.61l50.83-72.37,68.44-64.26,477.83,92.66Z" fill="#545468"/>
    <path id="Path_11475" data-name="Path 11475" d="M1070.53,1878.18c-145.2,0-291.48-44.14-416.55-126.4C531.15,1671,446.11,1562.14,432.05,1467.71,419,1380,455.9,1301.32,530.76,1257.27c53.83-31.67,113.07-35.23,147.39-8.87,12.61,9.69,28.26,24.13,46.37,40.84,89.87,82.92,257.22,237.2,501,226.61a15.464,15.464,0,0,1,1.34,30.9C970.28,1558,796.72,1397.94,703.55,1312c-17.57-16.21-32.74-30.21-44.24-39-23.67-18.18-71.14-13.55-112.87,11-23.82,14-100.29,68.38-83.79,179.23,12.8,86,92.62,186.68,208.32,262.78,132.91,87.41,290.7,130,444.25,119.84a15.462,15.462,0,0,1,2,30.86Q1094,1878.19,1070.53,1878.18Z" fill="#000072"/>
    <path id="Path_11476" data-name="Path 11476" d="M1013.54,1689.81c-149.06,200.5-175,414.22-139.62,569,18.37,80.3,67,160.8,147,207.14,164.05,95.09,320.5,91.76,440.16,78.46l289.65-245.73c63-155.77-35.7-325.44-26.79-467.29l-62-258.54L1184.1,1480.2l-47.24,62.7" fill="#fff"/>
    <path id="Path_11477" data-name="Path 11477" d="M1750.68,2298.63l-289.63,245.74c-119.68,13.28-276.13,16.62-440.18-78.47-79.93-46.35-128.56-126.83-147-207.13C847.9,2145,855.06,1999.23,920,1850.3l.66-1.47c1.25-2.86,2.5-5.72,3.82-8.59,2.46-5.43,5-10.86,7.63-16.33,1.14-2.38,2.28-4.73,3.45-7.08s2.35-4.7,3.52-7.08q2.43-4.8,5-9.58c2-3.89,4.11-7.78,6.24-11.67,3.37-6.2,6.86-12.44,10.49-18.65,1.88-3.23,3.75-6.42,5.66-9.65a1.893,1.893,0,0,0,.25-.4c2-3.34,4-6.64,6.09-10a.217.217,0,0,1,.08-.15c2-3.3,4.14-6.64,6.27-10,.15-.25.3-.47.44-.69,2-3.12,4-6.24,6.06-9.33,1.8-2.78,3.63-5.54,5.54-8.29,4.26-6.35,8.7-12.73,13.29-19.08,1.28-1.84,2.6-3.67,4-5.51,1.65-2.35,3.38-4.7,5.14-7l123.27-147,47.27-62.68L1662,1572.73l62,258.52c-3.12,49.84,7,103.12,18.79,158C1764.41,2090.72,1791.56,2197.59,1750.68,2298.63Z" fill="#fff"/>
    <path id="Path_11478" data-name="Path 11478" d="M1766.39,2244.42a278.869,278.869,0,0,1-15.71,54.21l-289.63,245.74c-119.68,13.28-276.13,16.62-440.18-78.47-79.93-46.35-128.56-126.83-147-207.13A573.517,573.517,0,0,1,860,2143.39c-2-90,15.41-190.77,60-293.09l.66-1.47c1.25-2.86,2.5-5.72,3.82-8.59,2.46-5.43,5-10.86,7.63-16.33,1.14-2.38,2.28-4.73,3.45-7.08s2.35-4.7,3.52-7.08q2.43-4.8,5-9.58c2-3.89,4.11-7.78,6.24-11.67,3.37-6.2,6.86-12.44,10.49-18.65,1.88-3.23,3.75-6.42,5.66-9.65a1.893,1.893,0,0,0,.25-.4c2-3.34,4-6.64,6.09-10a.217.217,0,0,1,.08-.15c2-3.3,4.14-6.64,6.27-10,.15-.25.3-.47.44-.69,2-3.12,4-6.24,6.06-9.33,1.8-2.78,3.63-5.54,5.54-8.29,4.26-6.35,8.7-12.73,13.29-19.08,1.28-1.84,2.6-3.67,4-5.51,1.65-2.35,3.38-4.7,5.14-7l123.27-147,47.27-62.68L1662,1572.73l62,258.52c-3.12,49.84,7,103.12,18.79,158C1760.55,2072.77,1782.1,2159.9,1766.39,2244.42Z" fill="#fff"/>
    <g id="Group_1968" data-name="Group 1968" opacity="0.2">
      <path id="Path_11479" data-name="Path 11479" d="M1766.39,2244.42a278.869,278.869,0,0,1-15.71,54.21l-289.63,245.74c-119.68,13.28-276.13,16.62-440.18-78.47-79.93-46.35-128.56-126.83-147-207.13A573.517,573.517,0,0,1,860,2143.39h0s14.27,175.45,240.84,239.36c131.67,37.14,272.57,10.58,384.68-67.83,60.48-42.31,141.82-83.27,225.22-77.91A374.9,374.9,0,0,1,1766.39,2244.42Z" fill="#000072"/>
    </g>
    <path id="Path_11480" data-name="Path 11480" d="M1742.68,1989.36c-444.73,48-705.41-71.68-822.7-139.06l.66-1.47c1.25-2.86,2.5-5.72,3.82-8.59,2.46-5.43,5-10.86,7.63-16.33,1.14-2.38,2.28-4.73,3.45-7.08s2.35-4.7,3.52-7.08q2.43-4.8,5-9.58c2-3.89,4.11-7.78,6.24-11.67,3.37-6.24,6.9-12.44,10.49-18.65,1.88-3.23,3.75-6.42,5.66-9.65a1.891,1.891,0,0,0,.25-.4c2-3.34,4-6.64,6.09-10a.217.217,0,0,1,.08-.15c2-3.3,4.14-6.64,6.27-10,.15-.25.3-.47.44-.69,2-3.12,4-6.24,6.06-9.33,1.8-2.78,3.63-5.54,5.54-8.29,4.26-6.35,8.7-12.73,13.29-19.08,1.28-1.84,2.6-3.67,4-5.51,1.65-2.35,3.38-4.7,5.14-7l102.1-145.37,68.44-64.26,477.83,92.66,62,258.52C1720.77,1881.17,1730.94,1934.45,1742.68,1989.36Z" fill="#686779"/>
    <path id="Path_11481" data-name="Path 11481" d="M1742.68,1989.36c-444.73,48-705.41-71.68-822.7-139.06l.66-1.47c1.25-2.86,2.5-5.72,3.82-8.59,2.46-5.43,5-10.86,7.63-16.33,1.14-2.38,2.28-4.73,3.45-7.08s2.35-4.7,3.52-7.08q2.43-4.8,5-9.58c2-3.89,4.11-7.78,6.24-11.67,3.37-6.24,6.9-12.44,10.49-18.65,1.88-3.23,3.75-6.42,5.66-9.65a1.891,1.891,0,0,0,.25-.4c2-3.34,4-6.64,6.09-10a.217.217,0,0,1,.08-.15c2-3.3,4.14-6.64,6.27-10,.15-.25.3-.47.44-.69,2-3.12,4-6.24,6.06-9.33,1.8-2.78,3.63-5.54,5.54-8.29,4.26-6.35,8.7-12.73,13.29-19.08,1.28-1.84,2.6-3.67,4-5.51,1.65-2.35,3.38-4.7,5.14-7l102.1-145.37,68.44-64.26,477.83,92.66,62,258.52C1720.77,1881.17,1730.94,1934.45,1742.68,1989.36Z" fill="#5f5f82"/>
    <g id="Group_1969" data-name="Group 1969" opacity="0.2">
      <path id="Path_11482" data-name="Path 11482" d="M1697.17,1719.94c-73.84,27-163.16,40.15-265.59,35.45-168-7.74-289.86-64.15-366.78-138.61l50.83-72.37,68.44-64.26,477.83,92.66Z" fill="#000072"/>
    </g>
    <path id="Path_11483" data-name="Path 11483" d="M1019.74,1694.42c-31.27,44.69-59,91.79-81,141.4a727.6,727.6,0,0,0-50.3,154c-10.84,52.89-15.89,106.92-13.74,160.64a574.427,574.427,0,0,0,8.86,79.9c2.4,13.15,5.31,26.27,8.8,38.87a362.676,362.676,0,0,0,12.85,37.27c19.87,48.63,51.45,92.58,92.53,124.58a268,268,0,0,0,32.37,21.71c11.69,6.6,23.47,13,35.54,18.88a591.9,591.9,0,0,0,74.27,30.64c50.77,17.16,103.84,27.14,157.46,30.66s107.74.73,161.78-5.43l-9.06,3.91,144.75-123,145-122.64-4.68,6.48c14-34.39,20.12-71.78,20.16-109.64s-5.36-76.24-12.64-114.52-16.48-76.77-23.89-116.14-13.11-80-10.58-121.7l.4,4.64L1678,1705.65l-30.24-129.46,11.36,10.88L1539.8,1563.2c-39.79-7.86-79.48-16.24-119.23-24.35l-119.19-24.52-119.09-25.06,9.19-3.53L1143,1547.5a7.733,7.733,0,0,1-12.35-9.31l46-63.63a9,9,0,0,1,8.86-3.6l.33.07,119.83,21.27,119.72,21.8c39.9,7.33,79.84,14.4,119.69,22l119.6,22.46a14.38,14.38,0,0,1,11.32,10.69v.18l31.78,129.09,31.35,129.18a15.316,15.316,0,0,1,.42,4.44v.2c-2.12,37.31,3.3,75.61,10.6,113.8s16.74,76.68,24.38,116,13.67,79.51,13.73,120.69-6.34,83.16-22.08,122.13a16.756,16.756,0,0,1-4.59,6.41l-.09.07-144.63,123.09L1472,2557.23h0a16.73,16.73,0,0,1-9,3.88c-55.27,6.07-111.58,8.93-167.78,4.86-56.16-3.91-112.12-14.66-165.57-33a622.4,622.4,0,0,1-78.09-32.59c-12.67-6.21-25-13-37.26-20a300.667,300.667,0,0,1-36-24.38c-45.74-36-80.21-84.63-101.7-137.84a347.634,347.634,0,0,1-13.67-40.84c-3.67-14-6.52-27.79-8.89-41.72a603.11,603.11,0,0,1-8.21-84.17,665.466,665.466,0,0,1,3.18-84.26,633.351,633.351,0,0,1,13.76-83,752,752,0,0,1,56-157.81,813.166,813.166,0,0,1,88.63-141.23,7.74,7.74,0,0,1,12.44,9.19Z" fill="#000072"/>
    <path id="Path_11484" data-name="Path 11484" d="M1441.69,1668.19c370.9,65.64,584.82-21.53,652.89-143.78,90.5-162.53,80.57-486.6,9.73-690.59-33-95.15-152.07-224.59-180.46-249.31-157.67-137.31-459.11-224.13-703.6-111.26-179.2,82.72-255,246.11-320.73,366.69-46,84.45-112.45,158.72-126.08,274.5-23.92,203.21,172.68,365.13,397.21,460.73,0,0,43.52,25.61,103.43,46.33C1379.87,1658.09,1441.69,1668.19,1441.69,1668.19Z" fill="#fff"/>
    <path id="Path_11485" data-name="Path 11485" d="M2094.59,1524.41c-.77,1.35-1.54,2.71-2.34,4.07-70.5,120.08-283.77,204.6-650.55,139.72,0,0-61.83-10.1-167.6-46.69-59.93-20.73-103.46-46.35-103.46-46.35-133.26-56.74-256.64-136.82-330-235h0c-50.2-67.27-76.92-143.06-67.19-225.67,13.65-115.79,80-190,126.1-274.48,65.69-120.59,141.51-284,320.72-366.7,244.49-112.85,545.91-26.06,703.57,111.27,28.41,24.7,147.42,154.14,180.49,249.31C2175.15,1037.8,2185.1,1361.9,2094.59,1524.41Z" fill="#fff"/>
    <g id="Group_1970" data-name="Group 1970" opacity="0.2">
      <path id="Path_11486" data-name="Path 11486" d="M2092.25,1528.48c-70.5,120.08-283.77,204.6-650.55,139.72,0,0-61.83-10.1-167.6-46.69-59.93-20.73-103.46-46.35-103.46-46.35-133.26-56.74-256.64-136.82-330-235,4.66,4,308.28,251.95,838.16,266.89C1865.89,1612.3,1993.14,1591.44,2092.25,1528.48Z" fill="#000072"/>
    </g>
    <path id="Path_11487" data-name="Path 11487" d="M1443,1660.57c41.21.5,81.33,5.08,121.59,8.83a1194.475,1194.475,0,0,0,120.86,5.31,856.8,856.8,0,0,0,120-9.1c9.92-1.3,19.69-3.32,29.53-5,9.73-2.11,19.56-3.9,29.16-6.45a511.855,511.855,0,0,0,56.88-17.21c37.1-13.41,72.33-31.65,102.54-55.67a240.15,240.15,0,0,0,40.3-40.57,201.982,201.982,0,0,0,15.7-23.5c4.58-8.48,9.12-17.11,13-26.07,16.07-35.7,26.79-74.27,34.53-113.42a893.31,893.31,0,0,0,14.53-119.4,1154.669,1154.669,0,0,0,.5-120.87c-1.83-40.3-5.63-80.54-11.44-120.45a1084.431,1084.431,0,0,0-23.64-118.41c-5.21-19.39-10.84-38.65-17.32-57.56-6.16-18.13-14.72-35.68-24.42-52.94-19.51-34.45-43.07-67.25-68.07-98.8q-18.8-23.65-38.88-46.31c-13.33-15-27.17-30-41.21-43.33-3.28-3.12-7.2-6.27-11-9.48s-7.53-6.42-11.51-9.4l-11.77-9.13-12.1-8.72a590.009,590.009,0,0,0-50.49-32c-8.57-5.12-17.54-9.56-26.33-14.31-9-4.38-17.86-9-27-13-18.12-8.48-36.78-15.78-55.54-22.77-75.33-27.1-155.05-42.68-235-43.81-79.79-1.28-160,12.28-233.13,43.33a477.237,477.237,0,0,0-102.77,58.89,531.723,531.723,0,0,0-85.91,82.06c-25.71,30.45-48.48,63.53-69.4,97.94s-40,70.19-59.31,106.29l-14.7,27.18c-5.07,9.16-10.33,18.15-15.67,27-10.7,17.73-21.69,35-32.31,52.29-21.33,34.45-40.9,69.17-54.38,106a345.635,345.635,0,0,0-15.55,56.33,293.109,293.109,0,0,0-5.18,57.69c.59,38.49,9.93,76.58,26.06,111.92s38.7,68.08,65,97.66,56.2,56.29,88.05,80.53S1033.05,1488,1068,1508c34.86,20.22,70.45,39.19,105.69,60.06h0a7.79,7.79,0,0,1-6.08,14.21c-39.94-11.22-78.08-27.88-114.57-47.58a884.835,884.835,0,0,1-104.9-67.37c-33.34-25-64.94-52.83-93.14-84.2s-52.94-66.42-70.93-105.42a308.05,308.05,0,0,1-29.21-125.21,325.848,325.848,0,0,1,5.78-64.25,378.3,378.3,0,0,1,17.08-61.72c14.72-40.07,35.68-76.91,57.36-111.88,10.84-17.54,21.83-34.7,32.3-51.95s20-34.55,29.7-52.68c19.34-35.94,38.83-72.31,60.5-107.68s45.45-69.79,72.58-101.75a563.3,563.3,0,0,1,91.34-86.71,506.934,506.934,0,0,1,109.66-62.43c38.74-16.48,79.48-27.75,120.7-35.35s83.23-10.56,125-10c83.66,1.2,166.59,17.44,245,45.65,39.15,14.36,77.35,31.5,113.7,52.2,18.27,10.15,35.89,21.53,53.13,33.47l12.79,9.17,12.49,9.62c4.21,3.14,8.21,6.58,12.26,10s8.09,6.62,12.24,10.53c15.66,14.78,29.52,29.86,43.42,45.36s27.14,31.3,40.08,47.5c25.83,32.44,50.26,66.16,71.17,102.82,10.36,18.32,19.9,37.63,27,58.21,6.81,19.75,12.68,39.74,18.12,59.82a1117.283,1117.283,0,0,1,24.6,121.94q9.06,61.47,12,123.59a1187.276,1187.276,0,0,1-.28,124.29,913.619,913.619,0,0,1-15,123.89c-8.09,41-19.3,81.75-36.78,120.69-4.27,9.77-9.23,19.25-14.36,28.75a236.991,236.991,0,0,1-18.3,27.46,273.075,273.075,0,0,1-45.83,46.27,351,351,0,0,1-53.78,35.21,417.364,417.364,0,0,1-58.17,25.76,545.462,545.462,0,0,1-60.54,17.93c-10.18,2.62-20.49,4.45-30.74,6.6-10.31,1.71-20.59,3.76-30.95,5a888.72,888.72,0,0,1-124.46,8.69,1223.636,1223.636,0,0,1-124-6.2c-41.13-4-82-10.85-121.34-24.48a7.83,7.83,0,0,1,2.65-15.23Z" fill="#000072"/>
    <path id="Path_11488" data-name="Path 11488" d="M1177,1230.24c20.14,34.1-6,102.2,40,128.55,41.2,23.64,96.24-7.33,122-72.45,16.41-41.47-30.43-75.41-63.33-84.83S1218.42,1193.7,1177,1230.24Z" fill="#232333"/>
    <path id="Path_11489" data-name="Path 11489" d="M1347.26,1289.46a163,163,0,0,1-22.43,39.9c-28.4,36.72-68,50.64-99.59,32.56-25.32-14.51-28.72-41.75-30.06-69-1.12-22.14-.87-44.28-9.88-59.62,41.46-36.54,65.73-38.13,98.62-28.72S1363.68,1248,1347.26,1289.46Z" fill="#000072"/>
    <path id="Path_11490" data-name="Path 11490" d="M1324.83,1329.36c-28.4,36.72-68,50.64-99.59,32.56-25.32-14.51-28.72-41.75-30.06-69,39.25-7.17,54.41,23,54.41,23C1270.68,1308.34,1296.87,1306.68,1324.83,1329.36Z" fill="#ff8d8d"/>
    <path id="Path_11491" data-name="Path 11491" d="M1254.88,1381.37a70.72,70.72,0,0,1-35.42-9.39c-33.44-19.19-35-55.13-36.27-86.84-.76-18-1.47-35-7.89-45.88a11.59,11.59,0,0,1,2.32-14.6c45-39.66,73.2-41.56,109.49-31.17,24.84,7.1,55.75,26.16,68.83,52.71,7.58,15.4,8.31,31.84,2.1,47.54-16.4,41.41-44.44,71.68-76.94,83a79.332,79.332,0,0,1-26.22,4.63Zm-55.34-144.94c5.43,14.33,6.14,31.27,6.83,47.74,1.18,28.21,2.3,54.86,24.63,67.68,12.68,7.28,27.35,8.32,42.44,3,25.75-9,49.32-35.06,63-69.69,3.85-9.71,3.41-19.12-1.33-28.75-9.45-19.18-34.52-35-54.4-40.66-28.42-8.1-47.71-7.05-81.17,20.68Z" fill="#000072"/>
    <path id="Path_11492" data-name="Path 11492" d="M1504.14,1333.88s-146.51-65.24-66.79-233.07S1561,933.51,1649.74,964.24s202.55,154.45,231.36,229.67,3.25,186.83-31.3,221.28c-28.33,28.25-95,30.75-182-1.14S1534.78,1353.42,1504.14,1333.88Z" fill="#5f5f82"/>
    <path id="Path_11493" data-name="Path 11493" d="M1085.55,1166.49s111.78,21.42,152.43-133.58,16.65-174.83-46.69-194-186.62,15.69-239.73,55.46-95,130.22-93.51,170.41c1.23,33,36,65.4,99,83S1059.24,1166.17,1085.55,1166.49Z" fill="#5f5f82"/>
    <path id="Path_11494" data-name="Path 11494" d="M1906.73,900.2c9.68-10.38-22.82-138-123.88-134.88-30.21.93-37.73,29.73-23.07,52.89C1784.41,857.11,1893.57,914.3,1906.73,900.2Z" fill="#5f5f82"/>
    <path id="Path_11495" data-name="Path 11495" d="M1095.14,694.07c-1.78-11.61,87.08-107.69,143.86-65.76,15.72,11.61,15.79,36.73-2.84,46C1220.16,682.34,1097.83,711.66,1095.14,694.07Z" fill="#5f5f82"/>
    <path id="Path_11496" data-name="Path 11496" d="M1392.86,1267.78c-29.72,15-52.53,32.52-89.06,19.79-33.34-11.63-39.63-50.36-36.78-63.8,0,0-13.36,34.15-52.54,27.45-36.43-6.22-40-45.47-51-72.68,0,0,60.29-69.51,137.14-31.68S1392.86,1267.78,1392.86,1267.78Z" fill="#fff"/>
    <path id="Path_11497" data-name="Path 11497" d="M1392.86,1267.78c-29.72,15-52.53,32.52-89.06,19.79-33.34-11.63-39.63-50.36-36.78-63.8,0,0-13.36,34.15-52.54,27.45-36.43-6.22-40-45.47-51-72.68,0,0,60.29-69.51,137.14-31.68S1392.86,1267.78,1392.86,1267.78Z" fill="#fff"/>
    <path id="Path_11498" data-name="Path 11498" d="M1392.84,1267.76c-29.68,15-52.52,32.56-89,19.81-33.33-11.62-39.63-50.34-36.77-63.81,0,0-13.37,34.14-52.52,27.45-33.63-5.73-39.3-39.57-48.64-66.14,13.34,17.85,30,32.37,50.34,35.84,28.35,4.85,42.72-22.64,53-36.41,6.85-9.18,22.36-.69,22.36-.69-3.45,16.21-6.46,64.45,34.26,76.82,27.86,8.45,48,10,66.85,6.44Z" fill="#e8e8e8"/>
    <path id="Path_11499" data-name="Path 11499" d="M1395.47,1273c-11.89,8-23.58,16.85-38.2,23.34a80.87,80.87,0,0,1-23.82,6.5,75.814,75.814,0,0,1-25.21-1.56,105.226,105.226,0,0,1-12.15-3.62,62,62,0,0,1-11.88-6.36,63.672,63.672,0,0,1-18.32-19.27,75.864,75.864,0,0,1-9.58-23.79,79.538,79.538,0,0,1-1.72-12.7,49,49,0,0,1,1.08-14.13l22.15,6.63a55.8,55.8,0,0,1-2.73,6.13,48.323,48.323,0,0,1-3.13,5.24,63,63,0,0,1-7.79,9.46,54.322,54.322,0,0,1-21.44,13.23,63.1,63.1,0,0,1-48.34-4.67,54.8,54.8,0,0,1-18.35-17,82.348,82.348,0,0,1-10.12-20.23c-4.68-13.61-6.41-26.62-7.86-39.47v-.22a6,6,0,0,1,10.78-4.13c8.32,11.68,12.79,24.46,18.07,35.31,2.63,5.44,5.26,10.51,8.51,14.58a33.061,33.061,0,0,0,10.91,9.2,35.617,35.617,0,0,0,14.1,3.65,36.7,36.7,0,0,0,14.45-1.4,34.48,34.48,0,0,0,12.25-6.92,38.3,38.3,0,0,0,5.16-5.46c.78-1,1.51-2,2.23-3.08s1.47-2.37,1.71-2.71l1-1.41a11.7,11.7,0,0,1,21.14,8,41.628,41.628,0,0,0,.18,7.56,54.271,54.271,0,0,0,1.67,8.76,61.14,61.14,0,0,0,6.89,16.3,43.661,43.661,0,0,0,11.23,12.27,41.685,41.685,0,0,0,7.13,4.14,88,88,0,0,0,8.55,3.06c11.9,3.42,23.77,3.28,36.42-.54s25.8-10.11,39.81-15.12a5.84,5.84,0,0,1,5.23,10.35Z" fill="#000072"/>
    <path id="Path_11500" data-name="Path 11500" d="M1302.48,1148.38c-7.1,11.73-11.62,24.87-15.44,38.11-1.91,6.63-3.53,13.36-5,20.1s-2.81,13.63-3.79,20.13a11.669,11.669,0,1,1-23.082-3.45,12.373,12.373,0,0,1,.652-2.46c2.71-7.06,5.55-13.55,8.59-20.18s6.2-13.08,9.65-19.45c6.9-12.69,14.53-25.24,24.63-35.84a2.444,2.444,0,1,1,3.86,3Z" fill="#000072"/>
    <path id="Path_11501" data-name="Path 11501" d="M1372.47,1158.82c-12.37,44.61-96.31,41.81-96.31,41.81s-60.73-44.12-46.83-83.5c7.91-22.4,71.12-4,71.12-4S1378.82,1135.92,1372.47,1158.82Z" fill="#000072"/>
    <g id="Group_1971" data-name="Group 1971" opacity="0.5">
      <path id="Path_11502" data-name="Path 11502" d="M1329.45,1141.45c-3.21,11.55-24.08,11.08-38.38,6.91s-32.3-15-29.1-26.57c1.65-5.93,35.39,3.9,35.39,3.9S1331.09,1135.52,1329.45,1141.45Z" fill="#fff"/>
    </g>
    <path id="Path_11503" data-name="Path 11503" d="M1956.75,769.14C1873,663.6,1893,594.08,1927.89,552.64c44-52.34,113.47-107.7,199.88-85.18,123.12,32.08,191,151.83,131.93,263.67-35.31,66.83-88.44,99.09-135.22,114.47C2071.94,862.88,2018.81,847.34,1956.75,769.14Z" fill="#5f5f82"/>
    <g id="Group_1972" data-name="Group 1972" opacity="0.2">
      <path id="Path_11504" data-name="Path 11504" d="M2232.7,772.1c-32.48,39.85-72.23,61.69-108.23,73.51-52.52,17.28-105.66,1.72-167.72-76.49-83.75-105.51-63.71-175-28.85-216.49,14.32-17,31.31-34.35,50.72-49.21-2.46,2.79-4.84,5.54-7.15,8.29-34.87,41.43-12.4,170.19,33.49,223s110.55,87.18,163.11,69.9a239.467,239.467,0,0,0,64.63-32.51Z" fill="#000072"/>
    </g>
    <g id="Group_1973" data-name="Group 1973" opacity="0.3">
      <path id="Path_11505" data-name="Path 11505" d="M1889.91,605.37C1935,547.15,2012.23,477,2110.33,502.53c102.61,26.77,168.64,111.6,160.22,204.18,38.12-104.3-28.59-209.48-142.77-239.25C2009.42,436.63,1922.91,551.86,1889.91,605.37Z" fill="#fff"/>
    </g>
    <path id="Path_11506" data-name="Path 11506" d="M1885,598.6c16.82-32.87,38.47-63.66,65.62-90.1a252.647,252.647,0,0,1,45.23-35.26A223.518,223.518,0,0,1,2022,460a190.386,190.386,0,0,1,28.19-9.22,166.251,166.251,0,0,1,59.61-3.43c20.06,2.78,38.41,8.55,56.33,15.89,35.73,14.95,68,39,91.8,70.34s38.34,70.1,38.8,109.82c1.18,39.65-11.75,79-32,111.5-10.32,16.25-22,31.84-35.76,45.53a232.533,232.533,0,0,1-46.16,35,220.419,220.419,0,0,1-109,29.31,7.79,7.79,0,0,1-2.07-15.31h.16a420.13,420.13,0,0,0,49.74-16.51,276.643,276.643,0,0,0,45.28-23.63A235.986,235.986,0,0,0,2206,777.52a248.931,248.931,0,0,0,31.15-39.69c8.89-14.58,16.76-29.27,21.51-45.17s7.55-32.2,7.12-48.61c-.43-32.9-12.84-65-32.93-91.31a184.448,184.448,0,0,0-35.7-34.74,213.407,213.407,0,0,0-43.65-24.7c-15.54-6.35-32.05-11.38-47.89-13.5a139.6,139.6,0,0,0-48.25,2,161.39,161.39,0,0,0-23.49,7.22A198.582,198.582,0,0,0,2011.38,500c-14.7,8.15-28.54,18.28-41.73,29.42-26.29,22.48-49.84,49.09-71.53,77.44h0A7.76,7.76,0,0,1,1885,598.6Z" fill="#000072"/>
    <path id="Path_11507" data-name="Path 11507" d="M1461.21,2542.51c-33.72-69.73,67.43-317.59,306.94-308.38,52.54,85.36,97.17,198.86,131.49,253.62,31,49.42,25.69,279.56-56.94,297.39C1755.6,2803.93,1556.89,2607.18,1461.21,2542.51Z" fill="#686779"/>
    <path id="Path_11508" data-name="Path 11508" d="M1875.13,2763.69c-9.1,11.15-19.89,18.75-32.44,21.47-87.09,18.79-285.78-178-381.46-242.66-18.9-39.05,4.51-133.92,70.79-208.24,52.12-58.42,130.73-104.15,236.13-100.12,52.55,85.33,97.18,198.84,131.5,253.6C1925.92,2529.65,1926.11,2701.52,1875.13,2763.69Z" fill="#5f5f82"/>
    <g id="Group_1974" data-name="Group 1974" opacity="0.2">
      <path id="Path_11509" data-name="Path 11509" d="M1875.13,2763.69c-9.1,11.15-19.89,18.75-32.44,21.47-87.09,18.79-285.78-178-381.46-242.66-18.9-39.05,4.51-133.92,70.79-208.24,0,0-50.17,157.52,27.9,217,97.36,74.17,164.85-55.6,216.27-60C1812.7,2488.07,1854.21,2662.43,1875.13,2763.69Z" fill="#000072"/>
    </g>
    <path id="Path_11510" data-name="Path 11510" d="M1830.57,2801.82c-71.37,0-181.72-90-279.89-170.1-37.06-30.23-72.07-58.78-98.13-76.39a15.413,15.413,0,0,1-5.26-6.09c-19.4-40.12-1.84-117.61,41.77-184.25,63.71-97.37,165.41-150.66,279.69-146.32a15.5,15.5,0,0,1,12.58,7.35c29.07,47.25,55.75,103,79.29,152.11,19,39.73,37,77.25,52.12,101.41,26,41.5,28.37,179.45-4.94,258.4-15.08,35.75-35.89,56.72-61.84,62.32a73.363,73.363,0,0,1-15.39,1.56Zm-356.9-269.52c26.68,18.46,60.67,46.18,96.56,75.45,90.15,73.54,213.67,174.28,269.2,162.27,19.33-4.17,32.36-26.29,39.87-44.11,30.2-71.57,26.46-199.26,7.23-229.95-16.07-25.63-33.56-62.17-53.81-104.47-22-46-46.82-97.77-73.41-142.12-135.72-1.85-211.17,81.82-244.37,132.55-39.39,60.21-51.51,122.18-41.27,150.38Z" fill="#000072"/>
    <path id="Path_11511" data-name="Path 11511" d="M1720.59,2605.52c5-51.2,24.82-107,67.44-147.84,74.21-71.07,200.12-21.55,208.51,85.47,8,102.25-47.21,209.83-128,235.95-52.1,16.85-111.86-1.53-137.69-62.47" fill="#5f5f82"/>
    <g id="Group_1975" data-name="Group 1975" opacity="0.3">
      <path id="Path_11512" data-name="Path 11512" d="M1987.21,2635.9a263.62,263.62,0,0,0,2.28-59.82c-8.41-107-134.29-156.56-208.5-85.48-25.06,24-42.2,53.14-53.1,83.53q-3.14,8.76-5.58,17.58a260.865,260.865,0,0,1,12.63-50.5c10.9-30.39,28-59.56,53.1-83.53,74.21-71.08,200.09-21.54,208.49,85.48A268.882,268.882,0,0,1,1987.21,2635.9Z" fill="#fff"/>
    </g>
    <g id="Group_1976" data-name="Group 1976" opacity="0.2">
      <path id="Path_11513" data-name="Path 11513" d="M1980.68,2656.3c-21.36,58.58-61.8,106.51-112.16,122.8-52.07,16.85-111.82-1.54-137.66-62.46l-10.27-111.13a266.313,266.313,0,0,1,14.35-64.3h0s-22.75,159.35,100.3,183.68C1901.88,2738.07,1950.25,2697,1980.68,2656.3Z" fill="#000072"/>
    </g>
    <path id="Path_11514" data-name="Path 11514" d="M1712.9,2604.76c-1.21-38.9,8.82-78.69,28.91-113.55,2.63-4.29,5.12-8.67,8.12-12.74,2.82-4.18,5.86-8.21,9-12.17s6.55-7.71,9.83-11.57c3.63-3.62,6.82-7.34,10.85-10.86a132.779,132.779,0,0,1,25.65-18.81,125,125,0,0,1,29.57-12.3c20.66-5.85,42.62-6.09,63.38-1.83a144.528,144.528,0,0,1,57.45,25.94,142.632,142.632,0,0,1,40.6,48.19,136.31,136.31,0,0,1,11.31,29.51,147.091,147.091,0,0,1,4.79,30.83c1.38,19.94,0,39.86-2.7,59.51a328.748,328.748,0,0,1-14.71,57.57c-13.89,37.07-34.68,72.54-65.65,99.8-15.47,13.42-33.36,25-53.59,31.64a126.762,126.762,0,0,1-31.13,6.63c-5.29.7-10.67.49-16,.6-5.34-.47-10.71-.57-16-1.66a112,112,0,0,1-57.65-26.93c-15.67-14.56-26.65-33.32-31.23-52.91a7.85,7.85,0,0,1,14.11-6.24l.13.2c10.2,14.91,21.53,27.58,34.8,37,13.47,9,28.39,15.5,44.46,17.36,32.14,4.1,65.32-7.87,90.73-30.44a183.3,183.3,0,0,0,34-38.8,250.765,250.765,0,0,0,23.75-47.06,264.947,264.947,0,0,0,13.12-51.41c2.26-17.55,3.43-35.28,2.09-52.85a112.386,112.386,0,0,0-4-24.69,105.418,105.418,0,0,0-9.06-22.871,110.271,110.271,0,0,0-31.82-36.879c-26.28-19.58-61.5-27.25-92.67-18.58a92.785,92.785,0,0,0-22.46,8.87,100.135,100.135,0,0,0-19.91,14.07c-12.77,11.24-23.63,25.18-33.11,39.73-18.78,29.54-31,63.4-39.67,99.16v.08a7.8,7.8,0,0,1-15.37-1.59Z" fill="#232333"/>
    <path id="Path_11515" data-name="Path 11515" d="M1712.9,2604.76c-1.21-38.9,8.82-78.69,28.91-113.55,2.63-4.29,5.12-8.67,8.12-12.74,2.82-4.18,5.86-8.21,9-12.17s6.55-7.71,9.83-11.57c3.63-3.62,6.82-7.34,10.85-10.86a132.779,132.779,0,0,1,25.65-18.81,125,125,0,0,1,29.57-12.3c20.66-5.85,42.62-6.09,63.38-1.83a144.528,144.528,0,0,1,57.45,25.94,142.632,142.632,0,0,1,40.6,48.19,136.31,136.31,0,0,1,11.31,29.51,147.091,147.091,0,0,1,4.79,30.83c1.38,19.94,0,39.86-2.7,59.51a328.748,328.748,0,0,1-14.71,57.57c-13.89,37.07-34.68,72.54-65.65,99.8-15.47,13.42-33.36,25-53.59,31.64a126.762,126.762,0,0,1-31.13,6.63c-5.29.7-10.67.49-16,.6-5.34-.47-10.71-.57-16-1.66a112,112,0,0,1-57.65-26.93c-15.67-14.56-26.65-33.32-31.23-52.91a7.85,7.85,0,0,1,14.11-6.24l.13.2c10.2,14.91,21.53,27.58,34.8,37,13.47,9,28.39,15.5,44.46,17.36,32.14,4.1,65.32-7.87,90.73-30.44a183.3,183.3,0,0,0,34-38.8,250.765,250.765,0,0,0,23.75-47.06,264.947,264.947,0,0,0,13.12-51.41c2.26-17.55,3.43-35.28,2.09-52.85a112.386,112.386,0,0,0-4-24.69,105.418,105.418,0,0,0-9.06-22.871,110.271,110.271,0,0,0-31.82-36.879c-26.28-19.58-61.5-27.25-92.67-18.58a92.785,92.785,0,0,0-22.46,8.87,100.135,100.135,0,0,0-19.91,14.07c-12.77,11.24-23.63,25.18-33.11,39.73-18.78,29.54-31,63.4-39.67,99.16v.08a7.8,7.8,0,0,1-15.37-1.59Z" fill="#000072"/>
    <path id="Path_11516" data-name="Path 11516" d="M1549,1685.77c166.79,5.89,303-24.1,389.9-60.94,131-55.52,240.53-103.62,316.45-36.27,54.8,48.62,67.69,164-47.47,264.73-94.17,82.4-306.06,145.14-512.3,127.63Z" fill="#686779"/>
    <path id="Path_11517" data-name="Path 11517" d="M2207.89,1853.27c-94.17,82.43-306.08,145.15-512.3,127.65L1549,1685.78c166.8,5.87,303-24.12,389.93-61,131-55.49,240.53-103.61,316.43-36.26,14.42,12.81,26,30.24,33,50.83C2308.08,1696.93,2292.74,1779.07,2207.89,1853.27Z" fill="#5f5f82"/>
    <g id="Group_1977" data-name="Group 1977" opacity="0.2">
      <path id="Path_11518" data-name="Path 11518" d="M2207.89,1853.27c-94.17,82.43-306.08,145.15-512.3,127.65,0,0,585.43-43.88,592.74-341.53C2308.08,1696.93,2292.74,1779.07,2207.89,1853.27Z" fill="#000072"/>
    </g>
    <g id="Group_1978" data-name="Group 1978" opacity="0.2">
      <path id="Path_11519" data-name="Path 11519" d="M1801.11,1666.21c-57.33,40.78-131.76,69.73-220.83,82.62l-31.3-63C1644.14,1689.11,1729.36,1680.82,1801.11,1666.21Z" fill="#000072"/>
    </g>
    <path id="Path_11520" data-name="Path 11520" d="M1549.54,1670.31c64.8,2,129.82-.61,193.88-9.87s127.36-24.27,186.46-48.65c30.11-12.61,60.5-25.77,91.55-37.68s63-22.94,96.9-29.31c17-3.13,34.44-5.12,52.35-4.46a155.759,155.759,0,0,1,53.32,10.73,138.749,138.749,0,0,1,45.91,30.22,131.263,131.263,0,0,1,30.45,46.15,161.9,161.9,0,0,1,11.14,53.22c.28,18-1.19,36.17-6.14,53.31-1.85,8.78-5.28,17-8.28,25.31-1.37,4.25-3.51,8.1-5.38,12.1l-5.77,11.89c-4.46,7.53-9,15.07-13.71,22.41-5.23,6.94-10.27,14.08-15.7,20.84l-17.28,19.36-18.69,17.79c-6.42,5.75-13.41,11-20.12,16.48-6.91,5.17-14.12,9.78-21.18,14.69-28.81,18.5-59.41,33.15-90.58,45.86l-23.55,9.07-23.88,8c-7.92,2.8-16,5-24,7.33s-16.09,4.75-24.25,6.6c-16.3,3.84-32.56,7.83-49,10.7-16.38,3.44-33,5.66-49.48,8.16-33.14,4.12-66.45,7.65-99.89,7.59a466,466,0,0,1-99.6-9.53,7.78,7.78,0,0,1,1-15.39h.3c32.81-2.26,65.07-2.52,97.34-4.94,16.15-.54,32.22-2.29,48.32-3.42,8.06-.46,16-1.8,24.07-2.65,8-1.06,16-1.71,24-3.11,63.8-9.66,126.78-25.48,186.4-49,29.66-12,58.51-25.93,85.12-42.79,6.44-4.44,13.12-8.64,19.38-13.27,6-4.91,12.24-9.47,18.08-14.63l17.1-16.09L2231.7,1806c4.86-6,9.33-12.3,14-18.42,4.18-6.44,8.15-13,12.12-19.55l5-10.25c1.63-3.43,3.56-6.76,4.69-10.36,2.55-7.11,5.63-14.08,7.14-21.44,4.33-14.44,5.47-29.42,5.4-44.16a130.674,130.674,0,0,0-8.65-42.78,98.278,98.278,0,0,0-23.2-35.6c-1.27-1.24-2.38-2.56-3.75-3.74l-4.22-3.48c-2.79-2.35-5.81-4.33-8.76-6.42a117.56,117.56,0,0,0-19.09-10c-26.76-10.81-57.88-10.36-88.45-4.55s-61.25,16.28-91.48,27.78-60.24,24.58-90.72,37.35c-62.51,25.76-128,41.15-194,50.72s-132.85,12.24-199.35,10.17a15.469,15.469,0,1,1,1-30.922Z" fill="#000072"/>
    <circle id="Ellipse_47" data-name="Ellipse 47" cx="61.55" cy="61.55" r="61.55" transform="translate(2059.924 1787.261) rotate(-80.78)" fill="#fff"/>
    <circle id="Ellipse_48" data-name="Ellipse 48" cx="24.79" cy="24.79" r="24.79" transform="translate(2098.05 1607.02)" fill="#fff"/>
    <circle id="Ellipse_49" data-name="Ellipse 49" cx="24.79" cy="24.79" r="24.79" transform="translate(2207.72 1711.51)" fill="#fff"/>
    <circle id="Ellipse_50" data-name="Ellipse 50" cx="28.28" cy="28.28" r="28.28" transform="translate(2173.621 1674.048) rotate(-76.72)" fill="#fff"/>
    <path id="Path_11521" data-name="Path 11521" d="M1495.3,473.25c-16.93,1.28-63.27,29.67-59.74,80.55,3,42.54,16,45.67,3.48,77.45,0,0,21,4.68,32.63-7.4,0,0,1,27.19,30.92,29.8,0,0-6.29-32.51,8.33-46.89,30.91-30.38,55.92-59.21,21.62-118.68" fill="#ffb81a"/>
    <path id="Path_11522" data-name="Path 11522" d="M1510.92,606.76c-14.61,14.39-8.33,46.87-8.33,46.87-29.87-2.61-30.9-29.76-30.9-29.76-11.64,12.07-32.66,7.37-32.66,7.37,12.51-31.78-.52-34.9-3.45-77.43-1.84-26.06,9.43-46.21,23.12-59.83,13.06-13,28.33-20.11,36.59-20.73l37.25,14.83c7.85,13.61,12.58,25.61,14.86,36.4C1555.07,560.85,1534.74,583.35,1510.92,606.76Z" fill="#ffb81a"/>
    <path id="Path_11523" data-name="Path 11523" d="M1549,542.13h0c-1.07,26.5-18.39,45.22-38.1,64.59-14.61,14.39-8.33,46.87-8.33,46.87-29.87-2.61-30.9-29.76-30.9-29.76-11.64,12.07-32.66,7.37-32.66,7.37,12.51-31.78-.52-34.9-3.45-77.43a71.879,71.879,0,0,1,1.83-22.61A77.519,77.519,0,0,1,1458.7,494c13.06-13,28.33-20.11,36.59-20.73l37.25,14.83c7.85,13.61,12.58,25.61,14.86,36.4A73.766,73.766,0,0,1,1549,542.13Z" fill="#ffb81a"/>
    <path id="Path_11524" data-name="Path 11524" d="M1549,542.17c-1.07,26.5-18.39,45.22-38.1,64.59-14.61,14.39-8.33,46.87-8.33,46.87-29.87-2.61-30.9-29.76-30.9-29.76-11.64,12.07-32.66,7.37-32.66,7.37,12.51-31.78-.52-34.9-3.45-77.43a71.876,71.876,0,0,1,1.83-22.61c.59,2.57,11,47.86,21.29,50.09,14.9,3.27,27.85-27.34,32.73-27.15s-5.94,33.1,8.7,32.25C1514.37,585.59,1540.39,567.16,1549,542.17Z" fill="#f99c16"/>
    <path id="Path_11525" data-name="Path 11525" d="M1547.4,524.48c-37.62,13.91-74.43-7.89-88.7-30.5,13.06-13,28.33-20.11,36.59-20.73l37.25,14.83C1540.39,501.69,1545.12,513.69,1547.4,524.48Z" fill="#f99c16"/>
    <path id="Path_11526" data-name="Path 11526" d="M1553.61,48.16s-40.71,17.36-42.34,120.16c-1.06,66.7,100.71,206.22,37.51,287.55-27.19,35-51.62-9.31-51.62-9.31s14.86-47.88,11.16-83.24c-7.47-71.37-42.89-91.05-56.78-174-12.35-73.75,13.17-121.86,13.17-121.86S1501.55-8.62,1553.61,48.16Z" fill="#ffb81a"/>
    <path id="Path_11527" data-name="Path 11527" d="M1548.79,455.85c-27.19,35-51.63-9.28-51.63-9.28s14.86-47.89,11.16-83.24q-.72-6.82-1.77-13.06c-9.54-57.55-38.38-80.56-52.55-147.94-.88-4.15-1.69-8.48-2.46-13-12.37-73.77,13.18-121.88,13.18-121.88s36.84-76.08,88.88-19.3c0,0-40.7,17.35-42.31,120.15-.15,8.81,1.5,18.9,4.33,29.95h0c11.41,44.37,41.76,104.42,51.08,160.46.19,1,.37,2,.48,3,.3,1.91.59,3.78.81,5.69a2.248,2.248,0,0,1,.07.51C1572.1,400.18,1568.28,430.79,1548.79,455.85Z" fill="#ffb81a"/>
    <path id="Path_11528" data-name="Path 11528" d="M1515.62,198.29c11.41,44.37,41.76,104.42,51.08,160.46-7-38.58-54-65.48-60.15-8.48-9.54-57.55-38.38-80.56-52.55-147.94C1471.62,222.74,1492.2,245.89,1515.62,198.29Z" fill="#f99c16"/>
    <path id="Path_11529" data-name="Path 11529" d="M1568,367.41c-.29-1.76-.55-3.67-.81-5.69C1567.48,363.63,1567.77,365.5,1568,367.41Z" fill="#f99c16"/>
    <g id="Group_1979" data-name="Group 1979" opacity="0.3">
      <path id="Path_11530" data-name="Path 11530" d="M1553.6,48.16s-5.32,2.27-12.18,10c-54.76-34.35-80,33.36-80,33.36s-7.71,14.54-12.59,39.9c3.16-40,15.86-64,15.86-64S1501.56-8.62,1553.6,48.16Z" fill="#fff"/>
    </g>
    <path id="Path_11531" data-name="Path 11531" d="M1502.59,669.11a10.091,10.091,0,0,1-1.34-.06c-20.29-1.76-32.12-12.06-38.53-23.11a63,63,0,0,1-27,.4,15.46,15.46,0,0,1-11-20.76c6-15.23,4.81-20.1,1.63-33.15a202.771,202.771,0,0,1-6.14-37.56c-4.16-60,50-95.22,74-97a15.465,15.465,0,1,1,2.35,30.84c-9.83.75-48.31,23.17-45.48,64.06a172.883,172.883,0,0,0,5.33,32.37c2.27,9.3,4.34,17.81,3.15,28.94a8.455,8.455,0,0,0,1.06-.91,15.46,15.46,0,0,1,26.55,9.4c1.75-9.62,5.51-19.44,13-26.8,30.35-29.83,47.5-50.61,19.06-99.93a15.469,15.469,0,1,1,26.8-15.451c41.838,72.551,3.688,110-24.172,137.441-6.15,6.05-5.64,24.43-4,32.92a15.47,15.47,0,0,1-15.19,18.4Z" fill="#000072"/>
    <path id="Path_11532" data-name="Path 11532" d="M1526.82,484.79a21.765,21.765,0,0,1-2.71-.11c-24-1.88-38.87-27.7-40.49-30.64a15.5,15.5,0,0,1-1.24-12.05c.14-.45,13.87-45.35,10.56-77.06-3.49-33.36-13.4-54.16-24.87-78.25s-24.54-51.55-31.78-94.8c-12.71-75.85,12.16-126.62,14.6-131.37,2.62-5.34,22.37-43.29,56.73-48.33,19.86-2.93,39.18,5.67,57.39,25.52,3.52,3.85,5.4,9,4.11,14.07A14.49,14.49,0,0,1,1560,62.28c-2.89,1.75-31.87,21.5-33.21,106.28-.32,20.11,11.33,51.19,23.68,84.09,25.51,68,57.25,152.64,10.57,212.71C1548.78,481.07,1536.09,484.79,1526.82,484.79ZM1514,444c3.72,4.8,8.82,9.6,12.57,9.87,2.64.17,6.18-2.53,10-7.46,36.07-46.41,8.88-118.91-15.11-182.87-14-37.28-26.07-69.47-25.65-95.44,1.1-69.41,19.48-103.82,34.12-120.28-6.26-4.13-12.23-5.82-17.77-5-16,2.29-29.63,23.49-33.55,31.47-.07.14-.16.33-.24.47-.2.38-22.82,44.94-11.57,112.05,6.52,39,18,63.19,29.2,86.61,11.63,24.43,23.66,49.69,27.7,88.33C1526.84,391.68,1518.14,428.6,1514,444Z" fill="#000072"/>
    <path id="Path_11533" data-name="Path 11533" d="M1267,1311.56c-8.94,1.47-24.24,7.66-30.36,20.42,0,0,.78-22.73,15.91-28.91,10.55-4.32,16.12,2.47,16.12,2.47" fill="#000072"/>
    <path id="Path_11534" data-name="Path 11534" d="M673.76,1184.5s11.41-91.17,51.89-92.94c229.47-10,190.52-262.4,164.44-354l-33.76,4.64a58,58,0,0,0-49.92,53L799,889.93,648,770.85c-52.38-34.63-27.4-64,13.23-69.54l229.54-31.59a58.43,58.43,0,0,1,64.62,43.4c21.87,86.09,51.66,251.78-28.82,357.65C848.67,1173.16,673.76,1184.5,673.76,1184.5Z" fill="#ffb81a"/>
    <path id="Path_11535" data-name="Path 11535" d="M413.93,1220.26s-35.61-84.7-75.06-75.47c-223.65,52.32-254.32-201.18-254-296.46l33.77-4.64A58,58,0,0,1,181,881.2l32.69,89.28L327,815c41.08-47.49,9.11-69-31.52-63.38L66,783.22a58.41,58.41,0,0,0-50.49,59.24c2.19,88.79,18.27,256.38,124.36,336.57C242.45,1256.59,413.93,1220.26,413.93,1220.26Z" fill="#ffb81a"/>
    <path id="Path_11536" data-name="Path 11536" d="M413.93,1220.27s-39.09,8.26-91.09,8.48c-56.92.22-129.37-9.21-183-49.73C33.75,1098.83,17.68,931.26,15.48,842.45A58.41,58.41,0,0,1,66,783.22l72.63-10,156.93-21.61c40.63-5.58,72.59,15.89,31.53,63.38L213.73,970.46,181,881.2A57.79,57.79,0,0,0,140.88,845a56.708,56.708,0,0,0-22.2-1.25l-33.77,4.62c-.33,84.52,23.78,293.56,185.37,303.18,20.55,1.21,43.35-.81,68.59-6.72C378.33,1135.57,413.93,1220.27,413.93,1220.27Z" fill="#ffb81a"/>
    <path id="Path_11537" data-name="Path 11537" d="M327.06,815,213.73,970.46,181,881.2A57.79,57.79,0,0,0,140.88,845a700.177,700.177,0,0,1-2.28-71.72l156.93-21.61C336.16,746,368.12,767.51,327.06,815Z" fill="#f99c16"/>
    <path id="Path_11538" data-name="Path 11538" d="M413.93,1220.27s-39.09,8.26-91.09,8.48c-12-29.65-33.33-56.81-52.56-77.25,20.55,1.21,43.35-.81,68.59-6.72C378.33,1135.57,413.93,1220.27,413.93,1220.27Z" fill="#f99c16"/>
    <path id="Path_11539" data-name="Path 11539" d="M648,770.84,799.32,889.66l7.21-94.78a57.81,57.81,0,0,1,28.79-45.81A696.463,696.463,0,0,0,818,679.44L661.1,701.28C620.51,707,595.58,736.3,648,770.84Z" fill="#f99c16"/>
    <path id="Path_11540" data-name="Path 11540" d="M674.54,1184.48s39.86-2.68,90-16.6c3.52-31.81,16.63-63.73,29.58-88.63-19.45,6.75-41.93,11-67.84,12.18C685.78,1093.29,674.54,1184.48,674.54,1184.48Z" fill="#f99c16"/>
    <path id="Path_11541" data-name="Path 11541" d="M673.76,1200a15.47,15.47,0,0,1-15.35-17.39c2.17-17.39,15.61-104.25,66.56-106.47,60.78-2.66,105.78-23.67,133.75-62.45,57.46-79.66,31.95-211.17,19.95-258.95l-20.23,2.78a42.8,42.8,0,0,0-36.62,38.85l-7.35,94.78a15.47,15.47,0,0,1-25,11L638.87,783.39c-34.79-23.21-38.34-44.72-35.16-58.7,4.51-19.79,25.72-34.62,55.37-38.7L888.61,654.4a73.8,73.8,0,0,1,81.72,54.91c28.62,112.62,46.38,268.37-31.5,370.82-81.18,106.78-256.64,119.32-264.07,119.81ZM890.11,722.06A15.46,15.46,0,0,1,905,733.29c9.17,32.23,51.25,198.09-21.16,298.47C850,1078.6,797,1103.92,726.32,1107c-14.46.63-27.22,30.92-33.74,59.84,46.72-6.41,164-29.64,221.62-105.44,70.42-92.63,53.09-238.46,26.15-344.48a42.93,42.93,0,0,0-47.52-31.88L663.29,716.63c-17.45,2.4-28.17,9.48-29.41,14.92-1.13,5,5.42,15,22.6,26.4q.518.35,1,.75L785.87,859.85,791,794a73.91,73.91,0,0,1,63.24-67.1L888,722.2a16.9,16.9,0,0,1,2.11-.14Z" fill="#000072"/>
    <path id="Path_11542" data-name="Path 11542" d="M320.67,1244.38c-59,0-133.67-10.32-190.15-53C27.86,1113.76,2.89,959,0,842.84A73.83,73.83,0,0,1,63.88,767.9l229.53-31.59c29.64-4.08,54.07,4.46,63.76,22.3,6.84,12.61,9.23,34.28-18,66l-112.94,155a15.46,15.46,0,0,1-27-3.79l-32.69-89.27A42.8,42.8,0,0,0,120.77,859l-20.23,2.78c1.36,49.25,12.3,182.76,89.16,243.94,37.41,29.78,86.41,37.86,145.64,24,49.7-11.6,86.06,68.38,92.85,84.53a15.46,15.46,0,0,1-11.05,21.13C413.7,1236.11,373.45,1244.38,320.67,1244.38ZM307.83,766.23a75.007,75.007,0,0,0-10.2.72L68.09,798.54A42.91,42.91,0,0,0,31,842.08c2.7,109.36,25.4,254.45,118.22,324.61,76,57.42,195.15,48.1,241.87,41.66-14.08-26.09-34.5-51.82-48.64-48.5-68.94,16.13-126.78,6.05-172-29.92-96.84-77.1-101.12-248.15-101-281.65A15.47,15.47,0,0,1,82.79,833l33.77-4.65a73.91,73.91,0,0,1,79,47.52L218.29,938l96.25-132.1c.26-.35.53-.68.8-1,13.48-15.57,17.07-27,14.64-31.52C327.87,769.49,319.76,766.23,307.83,766.23Z" fill="#000072"/>
    <path id="Path_11543" data-name="Path 11543" d="M609,1285.39l-52.67,7.24-52.71,7.26c-107.64-49.82-362.56-262.53-318-604.39-2.85-20.71,134.41-69.1,276.37-88.64s287.17-10,290,10.7C887.15,934.68,699.14,1208.34,609,1285.39Z" fill="#ffb81a"/>
    <path id="Path_11544" data-name="Path 11544" d="M609,1285.39l-52.67,7.24-52.71,7.26c-107.64-49.82-362.56-262.53-318-604.39-2.85-20.71,134.41-69.1,276.37-88.64s287.17-10,290,10.7C887.15,934.68,699.14,1208.34,609,1285.39Z" fill="#ffb81a"/>
    <path id="Path_11545" data-name="Path 11545" d="M609,1285.38c-11.05,1.54-20.55,2.83-28.33,3.93-15.67,2.13-24.34,3.34-24.34,3.34s-6.27.84-17.83,2.42c-8.77,1.21-20.52,2.86-34.87,4.81-107.64-49.81-362.55-262.52-318-604.38-2.86-20.7,134.4-69.1,276.35-88.63a1176.8,1176.8,0,0,1,121.19-10.13c45.36-1.43,86.06,0,116.11,3.53C731,604,750.9,610,751.93,617.55,887.13,934.68,699.12,1208.35,609,1285.38Z" fill="#ffb81a"/>
    <g id="Group_1980" data-name="Group 1980" opacity="0.3">
      <path id="Path_11546" data-name="Path 11546" d="M580.62,1289.31c-15.67,2.13-24.34,3.34-24.34,3.34s107.78-225.92,26.8-695.91c45.36-1.43,86.06,0,116.11,3.53C819.53,901.13,685,1165.41,580.62,1289.31Z" fill="#fff"/>
    </g>
    <path id="Path_11547" data-name="Path 11547" d="M534.23,1286.48c-353.87-230.47-310-617.11-294-625.29l.22-.11c40-15.45,98-32,161-44.19a4.2,4.2,0,0,0,0,1.54C381.9,937.49,498.57,1185.31,534.23,1286.48Z" fill="#f99c16"/>
    <path id="Path_11548" data-name="Path 11548" d="M562.18,989l-80-25.22-66.1,51.59a20.3,20.3,0,0,1-32.78-15.82l-.73-83.84-69.49-47a20.29,20.29,0,0,1,4.92-36l45.08-15.07h0l34.42-11.52,23.17-80.58a20.28,20.28,0,0,1,35.8-6.47l49.87,67.41,83.82-2.88a20.29,20.29,0,0,1,17.21,32l-48.7,68.28,23.51,64.69,5.14,14.11A20.31,20.31,0,0,1,562.18,989Z" fill="#ff9e1f"/>
    <path id="Path_11549" data-name="Path 11549" d="M476.58,933.57l-53.85,42a7.53,7.53,0,0,1-12.16-5.86l-.59-68.3L353.39,863.2a7.52,7.52,0,0,1,1.82-13.37l26.21-8.76h0L420,828.15l18.86-65.62a7.52,7.52,0,0,1,13.28-2.4L492.74,815,561,812.68a7.52,7.52,0,0,1,6.38,11.89l-39.66,55.61,23.33,64.19a7.52,7.52,0,0,1-9.33,9.74Z" fill="#ffd31a"/>
    <path id="Path_11550" data-name="Path 11550" d="M470.42,899.45,453.12,913a7.68,7.68,0,0,1-12.4-6l-.19-22-18.2-12.3a7.68,7.68,0,0,1,1.85-13.64l20.84-7,6.06-21.07a7.67,7.67,0,0,1,13.54-2.45l13.05,17.64,21.93-.75a7.67,7.67,0,0,1,6.51,12.12l-12.74,17.87,7.49,20.62a7.67,7.67,0,0,1-9.52,9.94Z" fill="#ffe266"/>
    <path id="Path_11551" data-name="Path 11551" d="M403.67,1030.93a31.61,31.61,0,0,1-31.58-31.29l-.69-77.94-64.59-43.62a31.54,31.54,0,0,1,7.65-56l73.91-24.73L409.9,722.4a31.53,31.53,0,0,1,55.66-10L511.92,775l77.9-2.67a31.54,31.54,0,0,1,26.76,49.83l-45.26,63.45,26.61,73.26a31.55,31.55,0,0,1-39.13,40.85l-74.33-23.44-61.44,48a31.411,31.411,0,0,1-19.36,6.65Zm36.64-308.87a9.163,9.163,0,0,0-1.7.16,8.78,8.78,0,0,0-7.09,6.39l-23.16,80.6a11.27,11.27,0,0,1-7.24,7.56L321.6,843.38a9,9,0,0,0-2.19,16.06l69.49,46.93a11.23,11.23,0,0,1,5,9.22l.74,83.85a9,9,0,0,0,14.6,7L475.3,954.9a11.28,11.28,0,0,1,10.3-1.9l80,25.22a9,9,0,0,0,11.22-11.71l-28.64-78.82a11.28,11.28,0,0,1,1.41-10.37l48.7-68.27a8.81,8.81,0,0,0,.6-9.52,9.18,9.18,0,0,0-8.27-4.76l-83.8,2.88a11.13,11.13,0,0,1-9.43-4.55L447.5,725.69a8.61,8.61,0,0,0-7.19-3.63Z" fill="#000072"/>
    <path id="Path_11552" data-name="Path 11552" d="M503.57,1315.35a15.38,15.38,0,0,1-6.49-1.43c-99.58-46.08-373-258.45-327.14-618.46-1-10.57,2.87-29,94.6-59.4,57.92-19.19,129.09-35.42,195.25-44.52s139.07-12.7,200-9.88c96.52,4.49,105.25,21.2,107.12,31.64C908.25,947.5,702.42,1225.87,619,1297.15a15.481,15.481,0,0,1-7.93,3.56l-105.38,14.5A14.855,14.855,0,0,1,503.57,1315.35Zm105.38-30ZM200.77,698.22c-23.26,180.34,41.18,317.1,99.38,400.11,67.53,96.3,152.06,159.54,205.88,185.61l96.24-13.25c44.79-39.64,109.1-123.36,148.1-234.32C784,940.73,809.1,791.63,738,624.29c-20-11.78-141.37-20.35-274-2.11S216.84,681.48,200.77,698.22Zm.08-4.82Z" fill="#000072"/>
    <path id="Path_11553" data-name="Path 11553" d="M641.19,1387.21c14.3,11.07,49.18,21.92,78,3.16,40.57-26.4,34-119.63.74-150.71-42.37-39.58-95.12-12.6-107.52,13.65C595.45,1289.24,619.07,1370.08,641.19,1387.21Z" fill="#686779"/>
    <path id="Path_11554" data-name="Path 11554" d="M739.71,1363.77c-4.59,11.27-11.38,20.63-20.51,26.61-28.81,18.75-63.72,7.89-78-3.16-22.13-17.14-45.77-98-28.77-133.92,9.79-20.77,44.92-42,80.11-30.31a73.841,73.841,0,0,1,27.38,16.66C745.69,1263.73,755.45,1325.05,739.71,1363.77Z" fill="#5f5f82"/>
    <g id="Group_1981" data-name="Group 1981" opacity="0.3">
      <path id="Path_11555" data-name="Path 11555" d="M739.71,1363.77c-4.59,11.27-11.38,20.63-20.51,26.61a62.2,62.2,0,0,1-12.48,6.24c6.2-5.73,11-13.29,14.57-21.95,15.74-38.72,6-100-19.78-124.12a73.91,73.91,0,0,0-27.38-16.66c-16.7-5.58-33.44-3.67-47.38,2.06,15.85-13,40.81-21.25,65.8-13a73.839,73.839,0,0,1,27.38,16.66C745.69,1263.73,755.45,1325.05,739.71,1363.77Z" fill="#fff"/>
    </g>
    <g id="Group_1982" data-name="Group 1982" opacity="0.2">
      <path id="Path_11556" data-name="Path 11556" d="M739.71,1363.77c-4.59,11.27-11.38,20.63-20.51,26.61-28.81,18.75-63.72,7.89-78-3.16-22.13-17.14-45.77-98-28.77-133.92,9.79-20.77,27.23-34.23,62.43-22.52-2.53,41.28,6.17,37.4,13.76,85.29C693.48,1346.46,712.28,1372.75,739.71,1363.77Z" fill="#000072"/>
    </g>
    <path id="Path_11557" data-name="Path 11557" d="M684.05,1416.09c-21.8,0-41.44-8.22-52.32-16.65h0c-26.83-20.78-53.93-109-33.28-152.73,9.3-19.71,32.49-36.19,57.71-41,26.83-5.13,53.21,2.92,74.35,22.67,22.28,20.81,35.3,64.29,31.68,105.74-2.8,32-15.06,56.56-34.54,69.23a78.939,78.939,0,0,1-43.6,12.74ZM650.66,1375c9.14,7.07,37,17.5,60.1,2.42,11.17-7.26,18.68-24,20.6-46,2.76-31.57-6.69-66.15-22-80.44-17.6-16.44-35.49-17.16-47.41-14.89-17.36,3.32-31.28,14.77-35.57,23.85-13.59,28.78,7.13,101.79,24.27,115.06Z" fill="#000072"/>
    <path id="Path_11558" data-name="Path 11558" d="M576.1,1456.44l-125.88,24.07c-35.05-68.81-38.79-139.09-20.92-194h0c15.27-46.86,46.25-82.5,86.91-96.48,80.19-27.6,180.41,15.85,140.3,105.73a180.612,180.612,0,0,1,10.13,25.32h0C680.33,1363.62,691.08,1445.76,576.1,1456.44Z" fill="#5f5f82"/>
    <g id="Group_1983" data-name="Group 1983" opacity="0.3">
      <path id="Path_11559" data-name="Path 11559" d="M664.22,1271.65c-11-53-85.59-74.64-148-53.14-40.66,14-71.64,49.62-86.91,96.49h0a217.777,217.777,0,0,0-10.05,54.28c-1.73-29.69,1.94-57.84,10.05-82.79h0c15.27-46.86,46.25-82.5,86.91-96.48C588.87,1165,678,1198.33,664.22,1271.65Z" fill="#fff"/>
    </g>
    <g id="Group_1984" data-name="Group 1984" opacity="0.2">
      <path id="Path_11560" data-name="Path 11560" d="M576.1,1456.44l-125.88,24.07c-35.05-68.81-38.79-139.09-20.92-194,2.06,65.4-22.79,137.77,85.48,114,93.54-20.47,152.82-14.75,151.86-79.45C680.33,1363.62,691.08,1445.76,576.1,1456.44Z" fill="#000072"/>
    </g>
    <path id="Path_11561" data-name="Path 11561" d="M450.23,1496a15.46,15.46,0,0,1-13.8-8.46c-37.41-73.45-43.57-153.41-16.9-219.39,18.54-45.87,51.09-78.82,91.64-92.78,54.66-18.82,117.24-7.47,148.77,27,22.52,24.59,27.2,57.4,13.48,93,8.65,19.55,30.11,77.27,5.28,122.71-17,31-51,49.15-101.18,53.81a15.468,15.468,0,1,1-2.86-30.8c39.25-3.646,65.1-16.356,76.85-37.756,21.89-39.9-8.44-99.88-8.75-100.48a15.49,15.49,0,0,1-.37-13.39c11.86-26.57,10-49.46-5.26-66.18-23.23-25.37-73-33.37-115.89-18.62-32,11-57.9,37.68-73,75.13-23,56.82-17.07,129.25,15.79,193.76a15.48,15.48,0,0,1-13.8,22.45Z" fill="#000072"/>
    <ellipse id="Ellipse_51" data-name="Ellipse 51" cx="201.49" cy="88.09" rx="201.49" ry="88.09" transform="translate(373.706 1443.126) rotate(-7.84)" fill="#fdb71a"/>
    <g id="Group_1985" data-name="Group 1985" opacity="0.3">
      <path id="Path_11562" data-name="Path 11562" d="M785.18,1482.38c-24.44-37-108.81-55.63-205-42.42-105,14.5-186.18,61.73-187.94,107.86a42.5,42.5,0,0,1-6.68-17.4C379,1482.24,463,1430.86,573.2,1415.7s205,11.6,211.65,59.79A36,36,0,0,1,785.18,1482.38Z" fill="#fff"/>
    </g>
    <ellipse id="Ellipse_52" data-name="Ellipse 52" cx="130.5" cy="57.05" rx="130.5" ry="57.05" transform="translate(448.265 1474.08) rotate(-7.84)" fill="#f99c16"/>
    <path id="Path_11563" data-name="Path 11563" d="M536.57,1610c-32.27,0-62.44-3.69-88.21-11-46.25-13.07-74-36.67-78.07-66.44s16.22-60,57.22-85.06c37.21-22.76,88.21-39.49,143.59-47.11s109-5.29,151,6.57c46.25,13.07,74,36.67,78.07,66.44h0c4.11,29.78-16.22,60-57.22,85.06-37.21,22.76-88.21,39.49-143.59,47.11a462.551,462.551,0,0,1-62.79,4.43ZM634,1426.89a432.867,432.867,0,0,0-58.71,4.13c-51.25,7.06-98,22.28-131.67,42.86-29.43,18-45,37.85-42.72,54.45s22.64,31.51,55.84,40.89c38,10.72,87.09,12.75,138.35,5.7s98-22.28,131.67-42.86c29.43-18,45-37.85,42.72-54.45h0c-2.29-16.6-22.64-31.51-55.84-40.89C690.58,1430.2,663.35,1426.89,634,1426.89Z" fill="#000072"/>
    <path id="Path_11564" data-name="Path 11564" d="M562.12,1557.7a131.644,131.644,0,0,1-25.61,2.32,116.144,116.144,0,0,1-26.38-3c-8.81-2.43-18.2-5.16-26.94-13.89-4.24-4.34-8.16-11.64-7.68-19.22a30.37,30.37,0,0,1,6.85-17.85c6.92-8.79,14.86-13.82,22.75-18.32A161.156,161.156,0,0,1,529.38,1477c16.44-5.76,33.28-9.24,50.2-11.53a250.669,250.669,0,0,1,51.34-1.49,171.077,171.077,0,0,1,25.94,4.09c8.63,2.27,17.38,5.09,25.83,11.25a30.57,30.57,0,0,1,10.78,13.53c2.55,6.24,1.45,13.71-1.22,18.69-5.45,10.14-13.34,15.39-20.89,20-15.4,9-31.73,14-48.19,17.59a5.81,5.81,0,0,1-3-11.19h.12c15.21-4.89,30.31-10.83,42.85-19.32a62.722,62.722,0,0,0,8.45-6.85,25.808,25.808,0,0,0,5.24-7.36c.91-2.36.84-3.78.12-5.21a13.489,13.489,0,0,0-4.9-5c-5-3.38-12.28-5.68-19.58-7.13a150.614,150.614,0,0,0-22.82-2.76,256.989,256.989,0,0,0-47,2.76A244,244,0,0,0,537,1498.46a137.515,137.515,0,0,0-20.71,9.3c-6.35,3.53-12.34,7.94-15.51,12.21a7.769,7.769,0,0,0-2.14,4.57c-.08.71,0,1.36,1.3,3,2.87,3.13,9.35,6.64,16.16,8.87,13.87,4.92,29.71,7.14,45.71,9.72h.08a5.88,5.88,0,0,1,.19,11.58Z" fill="#000072"/>
    <circle id="Ellipse_53" data-name="Ellipse 53" cx="66.31" cy="66.31" r="66.31" transform="translate(1772.094 2699.49) rotate(-76.72)" fill="#fff"/>
    <circle id="Ellipse_54" data-name="Ellipse 54" cx="28.54" cy="28.54" r="28.54" transform="translate(1846.066 2552.117) rotate(-76.72)" fill="#fff"/>
    <circle id="Ellipse_55" data-name="Ellipse 55" cx="24.69" cy="24.69" r="24.69" transform="translate(1774.092 2570.547) rotate(-76.72)" fill="#fff"/>
    <circle id="Ellipse_56" data-name="Ellipse 56" cx="23.35" cy="23.35" r="23.35" transform="translate(1911.65 2560.66)" fill="#fff"/>
    <path id="Path_11565" data-name="Path 11565" d="M585.72,1270s44.68-7.94,70.79,25.77" fill="#686779"/>
    <path id="Path_11566" data-name="Path 11566" d="M584.37,1262.33a97.192,97.192,0,0,1,21.86-2.46,93.331,93.331,0,0,1,22.11,2.59,77.919,77.919,0,0,1,21.63,8.67c7,3.85,13.08,9.32,18.77,15.12A15.56,15.56,0,0,1,646.5,1308a14.9,14.9,0,0,1-1.76-2.15l-.46-.69c-2.81-4.18-5.74-8.52-9.79-11.85a52,52,0,0,0-13.52-8.88,71.842,71.842,0,0,0-16.41-5.33,83.285,83.285,0,0,0-17.49-1.57h-.79a7.72,7.72,0,0,1-1.91-15.25Z" fill="#000072"/>
    <path id="Path_11567" data-name="Path 11567" d="M1499.81,496.85c-51.65-27.53-13.63-73.37,4.24-78.27,13.39,10.63,35.79,18.45,52.91,24.83C1572.39,463.86,1552.77,525.07,1499.81,496.85Z" fill="#ffb81a"/>
    <g id="Group_1986" data-name="Group 1986" opacity="0.3">
      <path id="Path_11568" data-name="Path 11568" d="M1561.9,465.54a20.445,20.445,0,0,0-2.83-5.32c-31,1.15-41.16-15.93-55-18.68-7.44-1.48-23.12,15.34-28.33,31-9.07-24.4,15.12-50.35,28.33-54,13.39,10.64,35.78,18.46,52.92,24.84C1561,448.77,1562.67,456.92,1561.9,465.54Z" fill="#fff"/>
    </g>
    <path id="Path_11569" data-name="Path 11569" d="M1499.8,496.85c-28.63-15.27-29.69-36.12-22-52.56,2.46,9.77,9.91,19.45,25.11,27.53,31.27,16.7,50.94,2.13,58.61-16.81C1565.71,480.3,1544.76,520.81,1499.8,496.85Z" fill="#f99c16"/>
    <path id="Path_11570" data-name="Path 11570" d="M1525.52,519.54c-10.42,0-21.62-3-33-9-32.88-17.53-35.39-41.74-34-54.61,2.77-24.85,24-47.47,41.37-52.22a15.44,15.44,0,0,1,13.71,2.8c10.41,8.27,29.34,15.28,44.56,20.91l4.14,1.54a15.39,15.39,0,0,1,6.94,5.18c13.17,17.45,10.25,48.64-6.38,68.11A48,48,0,0,1,1525.52,519.54Zm-22.45-82.86c-5.51,4.57-12.75,13.37-13.75,22.73-.36,3.35-1.45,13.55,17.77,23.79h0c14.31,7.63,25.19,7.27,32.32-1.08,6.95-8.14,8.15-20,6.55-26.29-13.75-5.1-29.89-11.19-42.89-19.15Z" fill="#000072"/>
    <ellipse id="Ellipse_57" data-name="Ellipse 57" cx="129.62" cy="103.57" rx="129.62" ry="103.57" transform="translate(1466.136 1274.553) rotate(-71.52)" fill="#000072"/>
    <ellipse id="Ellipse_58" data-name="Ellipse 58" cx="47.31" cy="27.86" rx="47.31" ry="27.86" transform="translate(1530.254 1199.203) rotate(-71.48)" fill="#fff"/>
    <g id="Group_1987" data-name="Group 1987" opacity="0.35">
      <path id="Path_11571" data-name="Path 11571" d="M1618.31,1247.08c-12.29,10-18,23.26-12.7,29.53s19.51,3.21,31.8-6.83,18-23.26,12.7-29.53S1630.6,1237,1618.31,1247.08Z" fill="#fff"/>
    </g>
    <ellipse id="Ellipse_59" data-name="Ellipse 59" cx="111.86" cy="89.38" rx="111.86" ry="89.38" transform="translate(990.664 1113.341) rotate(-81.62)" fill="#000072"/>
    <ellipse id="Ellipse_60" data-name="Ellipse 60" cx="40.83" cy="24.05" rx="40.83" ry="24.05" transform="translate(1100.007 1049.24) rotate(-81.66)" fill="#fff"/>
    <g id="Group_1988" data-name="Group 1988" opacity="0.35">
      <ellipse id="Ellipse_61" data-name="Ellipse 61" cx="12.8" cy="24.8" rx="12.8" ry="24.8" transform="translate(1027.521 1046.393) rotate(-24.2)" fill="#fff"/>
    </g>
    <path id="Path_11572" data-name="Path 11572" d="M1489.18,575.77a101.565,101.565,0,0,0-2.66,12.37,111.312,111.312,0,0,0-1.2,12.52,102.629,102.629,0,0,0,1.8,24,15.94,15.94,0,1,1-31.1-.79l.21-.81a128,128,0,0,1,10.49-27.65,124.212,124.212,0,0,1,7.25-12.31,107.108,107.108,0,0,1,8.59-11.32,3.92,3.92,0,0,1,6.72,3.66Z" fill="#000072"/>
    <path id="Path_11573" data-name="Path 11573" d="M2329.71,1059.48a219.519,219.519,0,0,1-11-140.44c29.77-118.1,149.65-189.7,267.75-159.93s189.7,149.66,159.93,267.76-149.66,189.7-267.76,159.93a219.867,219.867,0,0,1-86.56-43.8l-104.29,7.93Z" fill="#fff"/>
    <g id="Group_1989" data-name="Group 1989" opacity="0.5">
      <path id="Path_11574" data-name="Path 11574" d="M2576.08,800.24c-110.32-27.81-222.17,32.85-260.7,137.23a222.233,222.233,0,0,1,4.5-23.12c29.78-118.1,149.65-189.71,267.75-159.93s189.71,149.66,159.93,267.76a221.873,221.873,0,0,1-7,22.59C2756.17,934.57,2686.44,828.07,2576.08,800.24Z" fill="#fff"/>
    </g>
    <path id="Path_11575" data-name="Path 11575" d="M2532.51,1212.91a240.591,240.591,0,0,1-146.59-50l-96.68,7.35a19.39,19.39,0,0,1-19.1-27.42l38.45-83.84a239.92,239.92,0,0,1,282.6-318.71c128.29,32.35,206.34,163,174,291.31C2737.79,1140.28,2639.81,1212.9,2532.51,1212.91Zm-140.45-89.31a19.39,19.39,0,0,1,12.37,4.45,199.377,199.377,0,0,0,78.93,39.94c107.56,27.12,217.09-38.33,244.21-145.86a201.14,201.14,0,1,0-380,29.72,19.4,19.4,0,0,1-.2,15.71l-28.22,61.53,71.46-5.44c.47-.04.97-.05,1.45-.05Z" fill="#000072"/>
    <g id="Group_1990" data-name="Group 1990" opacity="0.3">
      <path id="Path_11576" data-name="Path 11576" d="M2328.79,1057.2a254.43,254.43,0,0,0,216.27,85c94-9.35,170.86-68.68,207.1-149a222.067,222.067,0,0,1-5.78,33.7c-29.78,118.1-149.66,189.7-267.76,159.93a219.867,219.867,0,0,1-86.56-43.8l-104.29,7.93,41.94-91.45C2329.39,1058.72,2329.11,1058,2328.79,1057.2Z" fill="#000072"/>
    </g>
    <path id="Path_11577" data-name="Path 11577" d="M2461.52,910.94h0c19.08-19.09,50-15.67,69.11,3.42l3,3,3-3c19.09-19.09,50-22.51,69.12-3.42h0a48.88,48.88,0,0,1,0,69.11l-3,3-60,60a12.89,12.89,0,0,1-18.22,0l-60-60-3-3a48.86,48.86,0,0,1-.01-69.11Z" fill="#ff0068"/>
  </g>
</svg>
