<?xml version="1.0" standalone="no"?>
<!DOCTYPE svg>
<svg version="1.0" xmlns="http://www.w3.org/2000/svg"
 width="1280.000000pt" height="1280.000000pt" viewBox="0 0 1280.000000 1280.000000"
 preserveAspectRatio="xMidYMid meet">
<g transform="translate(0.000000,1280.000000) scale(0.100000,-0.100000)"
fill="#FFFFFF" stroke="none">
<path d="M0 12755 c0 -25 4 -45 8 -45 10 0 82 73 82 83 0 4 -20 7 -45 7 l-45
0 0 -45z"/>
<path d="M1190 12792 c0 -14 75 -82 91 -82 15 0 89 69 89 83 0 4 -40 7 -90 7
-49 0 -90 -4 -90 -8z"/>
<path d="M2470 12792 c0 -14 75 -82 91 -82 15 0 89 69 89 83 0 4 -40 7 -90 7
-49 0 -90 -4 -90 -8z"/>
<path d="M3750 12792 c0 -14 75 -82 91 -82 15 0 89 69 89 83 0 4 -40 7 -90 7
-49 0 -90 -4 -90 -8z"/>
<path d="M5030 12792 c0 -14 75 -82 91 -82 15 0 89 69 89 83 0 4 -40 7 -90 7
-49 0 -90 -4 -90 -8z"/>
<path d="M6310 12792 c0 -14 75 -82 91 -82 15 0 89 69 89 83 0 4 -40 7 -90 7
-49 0 -90 -4 -90 -8z"/>
<path d="M7590 12792 c0 -14 75 -82 91 -82 15 0 89 69 89 83 0 4 -40 7 -90 7
-49 0 -90 -4 -90 -8z"/>
<path d="M8870 12792 c0 -14 75 -82 91 -82 15 0 89 69 89 83 0 4 -40 7 -90 7
-49 0 -90 -4 -90 -8z"/>
<path d="M10150 12792 c0 -14 75 -82 91 -82 15 0 89 69 89 83 0 4 -40 7 -90 7
-49 0 -90 -4 -90 -8z"/>
<path d="M11430 12792 c0 -14 75 -82 91 -82 15 0 89 69 89 83 0 4 -40 7 -90 7
-49 0 -90 -4 -90 -8z"/>
<path d="M12710 12792 c0 -10 73 -82 83 -82 4 0 7 20 7 45 l0 45 -45 0 c-25 0
-45 -4 -45 -8z"/>
<path d="M582 12217 c-23 -23 -42 -49 -42 -57 0 -19 80 -100 99 -100 20 0 101
80 101 99 0 20 -80 101 -100 101 -9 0 -35 -19 -58 -43z"/>
<path d="M1862 12217 c-23 -23 -42 -49 -42 -57 0 -19 80 -100 99 -100 20 0
101 80 101 99 0 20 -80 101 -100 101 -9 0 -35 -19 -58 -43z"/>
<path d="M3142 12217 c-23 -23 -42 -49 -42 -57 0 -19 80 -100 99 -100 20 0
101 80 101 99 0 20 -80 101 -100 101 -9 0 -35 -19 -58 -43z"/>
<path d="M4422 12217 c-23 -23 -42 -49 -42 -57 0 -19 80 -100 99 -100 20 0
101 80 101 99 0 20 -80 101 -100 101 -9 0 -35 -19 -58 -43z"/>
<path d="M5702 12217 c-23 -23 -42 -49 -42 -57 0 -19 80 -100 99 -100 20 0
101 80 101 99 0 20 -80 101 -100 101 -9 0 -35 -19 -58 -43z"/>
<path d="M6982 12217 c-23 -23 -42 -49 -42 -57 0 -19 80 -100 99 -100 20 0
101 80 101 99 0 20 -80 101 -100 101 -9 0 -35 -19 -58 -43z"/>
<path d="M8262 12217 c-23 -23 -42 -49 -42 -57 0 -19 80 -100 99 -100 20 0
101 80 101 99 0 20 -80 101 -100 101 -9 0 -35 -19 -58 -43z"/>
<path d="M9542 12217 c-23 -23 -42 -49 -42 -57 0 -19 80 -100 99 -100 20 0
101 80 101 99 0 20 -80 101 -100 101 -9 0 -35 -19 -58 -43z"/>
<path d="M10822 12217 c-23 -23 -42 -49 -42 -57 0 -19 80 -100 99 -100 20 0
101 80 101 99 0 20 -80 101 -100 101 -9 0 -35 -19 -58 -43z"/>
<path d="M12102 12217 c-23 -23 -42 -49 -42 -57 0 -19 80 -100 99 -100 20 0
101 80 101 99 0 20 -80 101 -100 101 -9 0 -35 -19 -58 -43z"/>
<path d="M0 11520 c0 -132 1 -140 18 -131 25 13 122 118 122 131 0 13 -97 118
-122 131 -17 9 -18 1 -18 -131z"/>
<path d="M1203 11597 c-34 -35 -63 -70 -63 -77 0 -17 123 -140 140 -140 17 0
140 123 140 140 0 17 -123 140 -140 140 -7 0 -42 -28 -77 -63z"/>
<path d="M2483 11597 c-34 -35 -63 -70 -63 -77 0 -17 123 -140 140 -140 17 0
140 123 140 140 0 17 -123 140 -140 140 -7 0 -42 -28 -77 -63z"/>
<path d="M3763 11597 c-34 -35 -63 -70 -63 -77 0 -17 123 -140 140 -140 17 0
140 123 140 140 0 17 -123 140 -140 140 -7 0 -42 -28 -77 -63z"/>
<path d="M5043 11597 c-34 -35 -63 -70 -63 -77 0 -17 123 -140 140 -140 17 0
140 123 140 140 0 17 -123 140 -140 140 -7 0 -42 -28 -77 -63z"/>
<path d="M6323 11597 c-34 -35 -63 -70 -63 -77 0 -17 123 -140 140 -140 17 0
140 123 140 140 0 17 -123 140 -140 140 -7 0 -42 -28 -77 -63z"/>
<path d="M7603 11597 c-34 -35 -63 -70 -63 -77 0 -17 123 -140 140 -140 17 0
140 123 140 140 0 17 -123 140 -140 140 -7 0 -42 -28 -77 -63z"/>
<path d="M8883 11597 c-34 -35 -63 -70 -63 -77 0 -17 123 -140 140 -140 17 0
140 123 140 140 0 17 -123 140 -140 140 -7 0 -42 -28 -77 -63z"/>
<path d="M10163 11597 c-34 -35 -63 -70 -63 -77 0 -17 123 -140 140 -140 7 0
42 29 77 63 35 35 63 70 63 77 0 7 -28 42 -63 77 -35 35 -70 63 -77 63 -7 0
-42 -28 -77 -63z"/>
<path d="M11443 11597 c-34 -35 -63 -70 -63 -77 0 -7 29 -42 63 -77 35 -34 70
-63 77 -63 7 0 42 29 77 63 35 35 63 70 63 77 0 7 -28 42 -63 77 -35 35 -70
63 -77 63 -7 0 -42 -28 -77 -63z"/>
<path d="M12728 11599 c-38 -36 -68 -72 -68 -79 0 -7 30 -43 68 -79 l67 -66 3
73 c2 39 2 105 0 145 l-3 72 -67 -66z"/>
<path d="M557 10962 c-74 -75 -74 -91 1 -165 75 -74 91 -74 165 1 74 75 74 91
-1 165 -75 74 -91 74 -165 -1z"/>
<path d="M1837 10962 c-74 -75 -74 -91 1 -165 75 -74 91 -74 165 1 74 75 74
91 -1 165 -75 74 -91 74 -165 -1z"/>
<path d="M3117 10962 c-74 -75 -74 -91 1 -165 75 -74 91 -74 165 1 74 75 74
91 -1 165 -75 74 -91 74 -165 -1z"/>
<path d="M4397 10962 c-74 -75 -74 -91 1 -165 75 -74 91 -74 165 1 74 75 74
91 -1 165 -75 74 -91 74 -165 -1z"/>
<path d="M5677 10962 c-74 -75 -74 -91 1 -165 75 -74 91 -74 165 1 74 75 74
91 -1 165 -75 74 -91 74 -165 -1z"/>
<path d="M6957 10962 c-74 -75 -74 -91 1 -165 75 -74 91 -74 165 1 74 75 74
91 -1 165 -75 74 -91 74 -165 -1z"/>
<path d="M8237 10962 c-74 -75 -74 -91 1 -165 75 -74 91 -74 165 1 74 75 74
91 -1 165 -75 74 -91 74 -165 -1z"/>
<path d="M9517 10962 c-74 -75 -74 -91 1 -165 75 -74 91 -74 165 1 74 75 74
91 -1 165 -75 74 -91 74 -165 -1z"/>
<path d="M10797 10962 c-74 -75 -74 -91 1 -165 75 -74 91 -74 165 1 74 75 74
91 -1 165 -75 74 -91 74 -165 -1z"/>
<path d="M12077 10962 c-74 -75 -74 -91 1 -165 75 -74 91 -74 165 1 74 75 74
91 -1 165 -75 74 -91 74 -165 -1z"/>
<path d="M0 10240 c0 -139 3 -180 13 -180 7 0 47 35 90 78 55 55 77 85 77 102
0 18 -22 47 -78 103 -42 42 -83 77 -90 77 -9 0 -12 -44 -12 -180z"/>
<path d="M1177 10342 c-55 -55 -77 -85 -77 -102 0 -36 145 -180 180 -180 36 0
180 145 180 180 0 36 -145 180 -180 180 -18 0 -47 -22 -103 -78z"/>
<path d="M2457 10342 c-55 -55 -77 -85 -77 -102 0 -36 145 -180 180 -180 36 0
180 145 180 180 0 36 -145 180 -180 180 -18 0 -47 -22 -103 -78z"/>
<path d="M3737 10342 c-55 -55 -77 -85 -77 -102 0 -36 145 -180 180 -180 36 0
180 145 180 180 0 36 -145 180 -180 180 -18 0 -47 -22 -103 -78z"/>
<path d="M5017 10342 c-55 -55 -77 -85 -77 -102 0 -36 145 -180 180 -180 36 0
180 145 180 180 0 36 -145 180 -180 180 -18 0 -47 -22 -103 -78z"/>
<path d="M6297 10342 c-55 -55 -77 -85 -77 -102 0 -36 145 -180 180 -180 36 0
180 145 180 180 0 36 -145 180 -180 180 -18 0 -47 -22 -103 -78z"/>
<path d="M7577 10342 c-55 -55 -77 -85 -77 -102 0 -36 145 -180 180 -180 36 0
180 145 180 180 0 36 -145 180 -180 180 -18 0 -47 -22 -103 -78z"/>
<path d="M8857 10342 c-55 -55 -77 -85 -77 -102 0 -36 145 -180 180 -180 36 0
180 145 180 180 0 36 -145 180 -180 180 -18 0 -47 -22 -103 -78z"/>
<path d="M10137 10342 c-55 -55 -77 -85 -77 -102 0 -36 145 -180 180 -180 36
0 180 145 180 180 0 36 -145 180 -180 180 -18 0 -47 -22 -103 -78z"/>
<path d="M11417 10342 c-55 -55 -77 -85 -77 -102 0 -36 145 -180 180 -180 36
0 180 145 180 180 0 36 -145 180 -180 180 -18 0 -47 -22 -103 -78z"/>
<path d="M12697 10342 c-55 -55 -77 -85 -77 -102 0 -18 22 -47 78 -103 42 -42
83 -77 90 -77 9 0 12 44 12 180 0 139 -3 180 -13 180 -7 0 -47 -35 -90 -78z"/>
<path d="M538 9702 c-48 -49 -88 -94 -88 -102 0 -18 172 -190 190 -190 18 0
190 172 190 190 0 18 -172 190 -190 190 -8 0 -53 -40 -102 -88z"/>
<path d="M1818 9702 c-48 -49 -88 -94 -88 -102 0 -18 172 -190 190 -190 18 0
190 172 190 190 0 18 -172 190 -190 190 -8 0 -53 -40 -102 -88z"/>
<path d="M3098 9702 c-48 -49 -88 -94 -88 -102 0 -18 172 -190 190 -190 18 0
190 172 190 190 0 18 -172 190 -190 190 -8 0 -53 -40 -102 -88z"/>
<path d="M4378 9702 c-48 -49 -88 -94 -88 -102 0 -18 172 -190 190 -190 18 0
190 172 190 190 0 18 -172 190 -190 190 -8 0 -53 -40 -102 -88z"/>
<path d="M5658 9702 c-48 -49 -88 -94 -88 -102 0 -8 40 -53 88 -102 49 -48 94
-88 102 -88 18 0 190 172 190 190 0 8 -40 53 -88 102 -49 48 -94 88 -102 88
-8 0 -53 -40 -102 -88z"/>
<path d="M6938 9702 c-48 -49 -88 -94 -88 -102 0 -8 40 -53 88 -102 49 -48 94
-88 102 -88 18 0 190 172 190 190 0 8 -40 53 -88 102 -49 48 -94 88 -102 88
-8 0 -53 -40 -102 -88z"/>
<path d="M8218 9702 c-48 -49 -88 -94 -88 -102 0 -8 40 -53 88 -102 49 -48 94
-88 102 -88 18 0 190 172 190 190 0 8 -40 53 -88 102 -49 48 -94 88 -102 88
-8 0 -53 -40 -102 -88z"/>
<path d="M9498 9702 c-48 -49 -88 -94 -88 -102 0 -8 40 -53 88 -102 49 -48 94
-88 102 -88 18 0 190 172 190 190 0 8 -40 53 -88 102 -49 48 -94 88 -102 88
-8 0 -53 -40 -102 -88z"/>
<path d="M10778 9702 c-48 -49 -88 -94 -88 -102 0 -18 172 -190 190 -190 18 0
190 172 190 190 0 18 -172 190 -190 190 -8 0 -53 -40 -102 -88z"/>
<path d="M12058 9702 c-48 -49 -88 -94 -88 -102 0 -18 172 -190 190 -190 18 0
190 172 190 190 0 18 -172 190 -190 190 -8 0 -53 -40 -102 -88z"/>
<path d="M0 8960 c0 -172 3 -230 12 -230 7 0 58 46 115 103 73 73 103 110 103
127 0 17 -30 54 -103 127 -57 57 -108 103 -115 103 -9 0 -12 -58 -12 -230z"/>
<path d="M1153 9087 c-73 -73 -103 -110 -103 -127 0 -34 196 -230 230 -230 34
0 230 196 230 230 0 34 -196 230 -230 230 -17 0 -54 -30 -127 -103z"/>
<path d="M2433 9087 c-73 -73 -103 -110 -103 -127 0 -34 196 -230 230 -230 34
0 230 196 230 230 0 34 -196 230 -230 230 -17 0 -54 -30 -127 -103z"/>
<path d="M3713 9087 c-73 -73 -103 -110 -103 -127 0 -34 196 -230 230 -230 34
0 230 196 230 230 0 34 -196 230 -230 230 -17 0 -54 -30 -127 -103z"/>
<path d="M4993 9087 c-73 -73 -103 -110 -103 -127 0 -34 196 -230 230 -230 17
0 54 30 127 103 73 73 103 110 103 127 0 17 -30 54 -103 127 -73 73 -110 103
-127 103 -17 0 -54 -30 -127 -103z"/>
<path d="M6273 9087 c-73 -73 -103 -110 -103 -127 0 -17 30 -54 103 -127 73
-73 110 -103 127 -103 17 0 54 30 127 103 73 73 103 110 103 127 0 17 -30 54
-103 127 -73 73 -110 103 -127 103 -17 0 -54 -30 -127 -103z"/>
<path d="M7553 9087 c-73 -73 -103 -110 -103 -127 0 -17 30 -54 103 -127 73
-73 110 -103 127 -103 17 0 54 30 127 103 73 73 103 110 103 127 0 17 -30 54
-103 127 -73 73 -110 103 -127 103 -17 0 -54 -30 -127 -103z"/>
<path d="M8833 9087 c-73 -73 -103 -110 -103 -127 0 -17 30 -54 103 -127 73
-73 110 -103 127 -103 17 0 54 30 127 103 73 73 103 110 103 127 0 17 -30 54
-103 127 -73 73 -110 103 -127 103 -17 0 -54 -30 -127 -103z"/>
<path d="M10113 9087 c-73 -73 -103 -110 -103 -127 0 -17 30 -54 103 -127 73
-73 110 -103 127 -103 34 0 230 196 230 230 0 34 -196 230 -230 230 -17 0 -54
-30 -127 -103z"/>
<path d="M11393 9087 c-73 -73 -103 -110 -103 -127 0 -34 196 -230 230 -230
34 0 230 196 230 230 0 34 -196 230 -230 230 -17 0 -54 -30 -127 -103z"/>
<path d="M12673 9087 c-73 -73 -103 -110 -103 -127 0 -17 30 -54 103 -127 57
-57 108 -103 115 -103 9 0 12 58 12 230 0 172 -3 230 -12 230 -7 0 -58 -46
-115 -103z"/>
<path d="M513 8447 c-73 -73 -103 -110 -103 -127 0 -34 196 -230 230 -230 34
0 230 196 230 230 0 34 -196 230 -230 230 -17 0 -54 -30 -127 -103z"/>
<path d="M1793 8447 c-73 -73 -103 -110 -103 -127 0 -34 196 -230 230 -230 34
0 230 196 230 230 0 34 -196 230 -230 230 -17 0 -54 -30 -127 -103z"/>
<path d="M3073 8447 c-73 -73 -103 -110 -103 -127 0 -34 196 -230 230 -230 34
0 230 196 230 230 0 34 -196 230 -230 230 -17 0 -54 -30 -127 -103z"/>
<path d="M4353 8447 c-73 -73 -103 -110 -103 -127 0 -34 196 -230 230 -230 34
0 230 196 230 230 0 34 -196 230 -230 230 -17 0 -54 -30 -127 -103z"/>
<path d="M5633 8447 c-73 -73 -103 -110 -103 -127 0 -17 30 -54 103 -127 73
-73 110 -103 127 -103 17 0 54 30 127 103 73 73 103 110 103 127 0 17 -30 54
-103 127 -73 73 -110 103 -127 103 -17 0 -54 -30 -127 -103z"/>
<path d="M6913 8447 c-73 -73 -103 -110 -103 -127 0 -17 30 -54 103 -127 73
-73 110 -103 127 -103 17 0 54 30 127 103 73 73 103 110 103 127 0 17 -30 54
-103 127 -73 73 -110 103 -127 103 -17 0 -54 -30 -127 -103z"/>
<path d="M8193 8447 c-73 -73 -103 -110 -103 -127 0 -17 30 -54 103 -127 73
-73 110 -103 127 -103 17 0 54 30 127 103 73 73 103 110 103 127 0 17 -30 54
-103 127 -73 73 -110 103 -127 103 -17 0 -54 -30 -127 -103z"/>
<path d="M9473 8447 c-73 -73 -103 -110 -103 -127 0 -17 30 -54 103 -127 73
-73 110 -103 127 -103 17 0 54 30 127 103 73 73 103 110 103 127 0 17 -30 54
-103 127 -73 73 -110 103 -127 103 -17 0 -54 -30 -127 -103z"/>
<path d="M10753 8447 c-73 -73 -103 -110 -103 -127 0 -34 196 -230 230 -230
34 0 230 196 230 230 0 34 -196 230 -230 230 -17 0 -54 -30 -127 -103z"/>
<path d="M12033 8447 c-73 -73 -103 -110 -103 -127 0 -34 196 -230 230 -230
34 0 230 196 230 230 0 34 -196 230 -230 230 -17 0 -54 -30 -127 -103z"/>
<path d="M0 7680 c0 -265 1 -278 18 -273 11 2 72 58 137 123 156 156 156 144
0 300 -65 65 -126 121 -137 123 -17 5 -18 -8 -18 -273z"/>
<path d="M1255 7950 c-11 -5 -71 -60 -134 -123 -151 -153 -152 -141 7 -299
159 -160 145 -160 304 0 159 159 159 146 2 302 -65 65 -128 120 -139 123 -11
3 -29 2 -40 -3z"/>
<path d="M2535 7950 c-11 -5 -71 -60 -134 -123 -151 -153 -152 -141 7 -299
159 -160 145 -160 304 0 159 159 159 146 2 302 -65 65 -128 120 -139 123 -11
3 -29 2 -40 -3z"/>
<path d="M3815 7950 c-11 -5 -71 -60 -134 -123 -151 -153 -152 -141 7 -299
159 -160 145 -160 304 0 159 159 159 146 2 302 -65 65 -128 120 -139 123 -11
3 -29 2 -40 -3z"/>
<path d="M5095 7950 c-11 -5 -71 -60 -134 -123 -151 -153 -152 -141 7 -299
159 -160 145 -160 304 0 159 159 159 146 2 302 -65 65 -128 120 -139 123 -11
3 -29 2 -40 -3z"/>
<path d="M6375 7950 c-11 -5 -71 -60 -134 -123 -151 -153 -152 -141 7 -299
159 -160 145 -160 304 0 159 159 159 146 2 302 -65 65 -128 120 -139 123 -11
3 -29 2 -40 -3z"/>
<path d="M7655 7950 c-11 -5 -71 -60 -134 -123 -151 -153 -152 -141 7 -299
159 -160 145 -160 304 0 159 159 159 146 2 302 -65 65 -128 120 -139 123 -11
3 -29 2 -40 -3z"/>
<path d="M8935 7950 c-11 -5 -71 -60 -134 -123 -151 -153 -152 -141 7 -299
159 -160 145 -160 304 0 159 159 159 146 2 302 -65 65 -128 120 -139 123 -11
3 -29 2 -40 -3z"/>
<path d="M10215 7950 c-11 -5 -71 -60 -134 -123 -151 -153 -152 -141 7 -299
159 -160 145 -160 304 0 159 159 159 146 2 302 -65 65 -128 120 -139 123 -11
3 -29 2 -40 -3z"/>
<path d="M11495 7950 c-11 -5 -71 -60 -134 -123 -151 -153 -152 -141 7 -299
159 -160 145 -160 304 0 159 159 159 146 2 302 -65 65 -128 120 -139 123 -11
3 -29 2 -40 -3z"/>
<path d="M12775 7950 c-11 -4 -71 -60 -134 -123 -151 -153 -151 -141 4 -297
65 -65 126 -121 137 -123 17 -5 18 8 18 274 0 153 -1 279 -2 278 -2 0 -12 -4
-23 -9z"/>
<path d="M493 7187 c-89 -89 -123 -129 -123 -147 0 -34 236 -270 270 -270 34
0 270 236 270 270 0 34 -236 270 -270 270 -18 0 -58 -34 -147 -123z"/>
<path d="M1773 7187 c-89 -89 -123 -129 -123 -147 0 -34 236 -270 270 -270 34
0 270 236 270 270 0 34 -236 270 -270 270 -18 0 -58 -34 -147 -123z"/>
<path d="M3053 7187 c-89 -89 -123 -129 -123 -147 0 -34 236 -270 270 -270 34
0 270 236 270 270 0 34 -236 270 -270 270 -18 0 -58 -34 -147 -123z"/>
<path d="M4333 7187 c-89 -89 -123 -129 -123 -147 0 -34 236 -270 270 -270 34
0 270 236 270 270 0 34 -236 270 -270 270 -18 0 -58 -34 -147 -123z"/>
<path d="M5613 7187 c-89 -89 -123 -129 -123 -147 0 -18 34 -58 123 -147 89
-89 129 -123 147 -123 18 0 58 34 147 123 89 89 123 129 123 147 0 18 -34 58
-123 147 -89 89 -129 123 -147 123 -18 0 -58 -34 -147 -123z"/>
<path d="M6893 7187 c-89 -89 -123 -129 -123 -147 0 -18 34 -58 123 -147 89
-89 129 -123 147 -123 18 0 58 34 147 123 89 89 123 129 123 147 0 18 -34 58
-123 147 -89 89 -129 123 -147 123 -18 0 -58 -34 -147 -123z"/>
<path d="M8173 7187 c-89 -89 -123 -129 -123 -147 0 -18 34 -58 123 -147 89
-89 129 -123 147 -123 18 0 58 34 147 123 89 89 123 129 123 147 0 18 -34 58
-123 147 -89 89 -129 123 -147 123 -18 0 -58 -34 -147 -123z"/>
<path d="M9453 7187 c-89 -89 -123 -129 -123 -147 0 -18 34 -58 123 -147 89
-89 129 -123 147 -123 18 0 58 34 147 123 89 89 123 129 123 147 0 18 -34 58
-123 147 -89 89 -129 123 -147 123 -18 0 -58 -34 -147 -123z"/>
<path d="M10733 7187 c-89 -89 -123 -129 -123 -147 0 -34 236 -270 270 -270
34 0 270 236 270 270 0 34 -236 270 -270 270 -18 0 -58 -34 -147 -123z"/>
<path d="M12013 7187 c-89 -89 -123 -129 -123 -147 0 -34 236 -270 270 -270
34 0 270 236 270 270 0 34 -236 270 -270 270 -18 0 -58 -34 -147 -123z"/>
<path d="M0 6400 c0 -295 1 -320 17 -320 10 0 82 64 160 143 188 188 188 166
0 354 -78 79 -150 143 -160 143 -16 0 -17 -25 -17 -320z"/>
<path d="M1103 6577 c-128 -128 -143 -146 -143 -177 0 -31 15 -49 143 -177
128 -128 146 -143 177 -143 31 0 49 15 177 143 128 128 143 146 143 177 0 31
-15 49 -143 177 -128 128 -146 143 -177 143 -31 0 -49 -15 -177 -143z"/>
<path d="M2383 6577 c-128 -128 -143 -146 -143 -177 0 -31 15 -49 143 -177
128 -128 146 -143 177 -143 31 0 49 15 177 143 128 128 143 146 143 177 0 31
-15 49 -143 177 -128 128 -146 143 -177 143 -31 0 -49 -15 -177 -143z"/>
<path d="M3663 6577 c-128 -128 -143 -146 -143 -177 0 -31 15 -49 143 -177
128 -128 146 -143 177 -143 31 0 49 15 177 143 128 128 143 146 143 177 0 31
-15 49 -143 177 -128 128 -146 143 -177 143 -31 0 -49 -15 -177 -143z"/>
<path d="M4943 6577 c-128 -128 -143 -146 -143 -177 0 -31 15 -49 143 -177
128 -128 146 -143 177 -143 31 0 49 15 177 143 188 188 188 166 0 354 -128
128 -146 143 -177 143 -31 0 -49 -15 -177 -143z"/>
<path d="M6223 6577 c-188 -188 -188 -166 0 -354 128 -128 146 -143 177 -143
31 0 49 15 177 143 188 188 188 166 0 354 -128 128 -146 143 -177 143 -31 0
-49 -15 -177 -143z"/>
<path d="M7503 6577 c-188 -188 -188 -166 0 -354 128 -128 146 -143 177 -143
31 0 49 15 177 143 188 188 188 166 0 354 -128 128 -146 143 -177 143 -31 0
-49 -15 -177 -143z"/>
<path d="M8783 6577 c-188 -188 -188 -166 0 -354 128 -128 146 -143 177 -143
31 0 49 15 177 143 188 188 188 166 0 354 -128 128 -146 143 -177 143 -31 0
-49 -15 -177 -143z"/>
<path d="M10063 6577 c-188 -188 -188 -166 0 -354 128 -128 146 -143 177 -143
31 0 49 15 177 143 128 128 143 146 143 177 0 31 -15 49 -143 177 -128 128
-146 143 -177 143 -31 0 -49 -15 -177 -143z"/>
<path d="M11343 6577 c-128 -128 -143 -146 -143 -177 0 -31 15 -49 143 -177
128 -128 146 -143 177 -143 31 0 49 15 177 143 128 128 143 146 143 177 0 31
-15 49 -143 177 -128 128 -146 143 -177 143 -31 0 -49 -15 -177 -143z"/>
<path d="M12623 6577 c-128 -128 -143 -146 -143 -177 0 -31 15 -49 143 -177
78 -79 150 -143 160 -143 16 0 17 25 17 320 0 295 -1 320 -17 320 -10 0 -82
-64 -160 -143z"/>
<path d="M468 5932 c-182 -182 -182 -162 0 -344 123 -124 141 -138 172 -138
31 0 49 14 172 138 124 123 138 141 138 172 0 31 -14 49 -138 172 -123 124
-141 138 -172 138 -31 0 -49 -14 -172 -138z"/>
<path d="M1748 5932 c-124 -123 -138 -141 -138 -172 0 -31 14 -49 138 -172
123 -124 141 -138 172 -138 31 0 49 14 172 138 124 123 138 141 138 172 0 31
-14 49 -138 172 -123 124 -141 138 -172 138 -31 0 -49 -14 -172 -138z"/>
<path d="M3028 5932 c-124 -123 -138 -141 -138 -172 0 -31 14 -49 138 -172
123 -124 141 -138 172 -138 31 0 49 14 172 138 124 123 138 141 138 172 0 31
-14 49 -138 172 -123 124 -141 138 -172 138 -31 0 -49 -14 -172 -138z"/>
<path d="M4308 5932 c-124 -123 -138 -141 -138 -172 0 -31 14 -49 138 -172
123 -124 141 -138 172 -138 31 0 49 14 172 138 124 123 138 141 138 172 0 31
-14 49 -138 172 -123 124 -141 138 -172 138 -31 0 -49 -14 -172 -138z"/>
<path d="M5588 5932 c-124 -123 -138 -141 -138 -172 0 -31 14 -49 138 -172
123 -124 141 -138 172 -138 31 0 49 14 172 138 124 123 138 141 138 172 0 31
-14 49 -138 172 -123 124 -141 138 -172 138 -31 0 -49 -14 -172 -138z"/>
<path d="M6868 5932 c-124 -123 -138 -141 -138 -172 0 -31 14 -49 138 -172
123 -124 141 -138 172 -138 31 0 49 14 172 138 124 123 138 141 138 172 0 31
-14 49 -138 172 -123 124 -141 138 -172 138 -31 0 -49 -14 -172 -138z"/>
<path d="M8148 5932 c-124 -123 -138 -141 -138 -172 0 -31 14 -49 138 -172
123 -124 141 -138 172 -138 31 0 49 14 172 138 124 123 138 141 138 172 0 31
-14 49 -138 172 -123 124 -141 138 -172 138 -31 0 -49 -14 -172 -138z"/>
<path d="M9428 5932 c-124 -123 -138 -141 -138 -172 0 -31 14 -49 138 -172
123 -124 141 -138 172 -138 31 0 49 14 172 138 124 123 138 141 138 172 0 31
-14 49 -138 172 -123 124 -141 138 -172 138 -31 0 -49 -14 -172 -138z"/>
<path d="M10708 5932 c-124 -123 -138 -141 -138 -172 0 -31 14 -49 138 -172
123 -124 141 -138 172 -138 31 0 49 14 172 138 124 123 138 141 138 172 0 31
-14 49 -138 172 -123 124 -141 138 -172 138 -31 0 -49 -14 -172 -138z"/>
<path d="M11988 5932 c-124 -123 -138 -141 -138 -172 0 -31 14 -49 138 -172
123 -124 141 -138 172 -138 31 0 49 14 172 138 124 123 138 141 138 172 0 31
-14 49 -138 172 -123 124 -141 138 -172 138 -31 0 -49 -14 -172 -138z"/>
<path d="M0 5120 l0 -371 23 6 c34 10 335 314 342 345 3 15 2 37 -3 51 -6 13
-68 83 -138 154 -151 152 -171 170 -201 180 l-23 6 0 -371z"/>
<path d="M1241 5479 c-27 -11 -289 -269 -316 -311 -34 -55 -19 -79 155 -253
214 -213 186 -213 400 0 162 162 180 188 161 237 -13 33 -293 315 -326 328
-31 12 -42 12 -74 -1z"/>
<path d="M2521 5479 c-27 -11 -289 -269 -316 -311 -34 -55 -19 -79 155 -253
214 -213 186 -213 400 0 162 162 180 188 161 237 -13 33 -293 315 -326 328
-31 12 -42 12 -74 -1z"/>
<path d="M3801 5479 c-27 -11 -289 -269 -316 -311 -34 -55 -19 -79 155 -253
214 -213 186 -213 400 0 162 162 180 188 161 237 -13 33 -293 315 -326 328
-31 12 -42 12 -74 -1z"/>
<path d="M5081 5479 c-27 -11 -289 -269 -316 -311 -34 -55 -19 -79 155 -253
214 -213 186 -213 400 0 162 162 180 188 161 237 -13 33 -293 315 -326 328
-31 12 -42 12 -74 -1z"/>
<path d="M6361 5479 c-27 -11 -289 -269 -316 -311 -34 -55 -19 -79 155 -253
214 -213 186 -213 400 0 162 162 180 188 161 237 -13 33 -293 315 -326 328
-31 12 -42 12 -74 -1z"/>
<path d="M7641 5479 c-27 -11 -289 -269 -316 -311 -34 -55 -19 -79 155 -253
214 -213 186 -213 400 0 162 162 180 188 161 237 -13 33 -293 315 -326 328
-31 12 -42 12 -74 -1z"/>
<path d="M8921 5479 c-27 -11 -289 -269 -316 -311 -34 -55 -19 -79 155 -253
214 -213 186 -213 400 0 162 162 180 188 161 237 -13 33 -293 315 -326 328
-31 12 -42 12 -74 -1z"/>
<path d="M10201 5479 c-27 -11 -289 -269 -316 -311 -34 -55 -19 -79 155 -253
214 -213 186 -213 400 0 162 162 180 188 161 237 -13 33 -293 315 -326 328
-31 12 -42 12 -74 -1z"/>
<path d="M11481 5479 c-27 -11 -289 -269 -316 -311 -34 -55 -19 -79 155 -253
214 -213 186 -213 400 0 162 162 180 188 161 237 -13 33 -293 315 -326 328
-31 12 -42 12 -74 -1z"/>
<path d="M12761 5479 c-27 -11 -289 -269 -316 -311 -34 -55 -19 -79 153 -250
86 -86 167 -159 180 -163 l22 -6 0 370 c0 204 -3 371 -7 370 -5 0 -19 -5 -32
-10z"/>
<path d="M585 4811 c-52 -32 -283 -274 -290 -304 -14 -53 4 -80 148 -224 144
-144 171 -162 224 -148 37 9 309 281 318 318 13 52 -5 80 -138 215 -168 170
-195 185 -262 143z"/>
<path d="M1865 4811 c-52 -32 -283 -274 -290 -304 -14 -53 4 -80 148 -224 144
-144 171 -162 225 -148 36 9 308 281 317 318 13 52 -5 80 -138 215 -168 170
-195 185 -262 143z"/>
<path d="M3145 4811 c-52 -32 -283 -274 -290 -304 -14 -53 4 -80 148 -224 144
-144 171 -162 225 -148 36 9 308 281 317 318 13 52 -5 80 -138 215 -168 170
-195 185 -262 143z"/>
<path d="M4425 4811 c-52 -32 -283 -274 -290 -304 -14 -53 4 -80 148 -224 144
-144 171 -162 225 -148 36 9 308 281 317 318 13 52 -5 80 -138 215 -168 170
-195 185 -262 143z"/>
<path d="M5705 4811 c-52 -32 -283 -274 -290 -304 -14 -53 4 -80 148 -224 144
-144 171 -162 225 -148 36 9 308 281 317 318 13 52 -5 80 -138 215 -168 170
-195 185 -262 143z"/>
<path d="M6985 4811 c-52 -32 -283 -274 -290 -304 -14 -53 4 -80 148 -224 144
-144 171 -162 225 -148 36 9 308 281 317 318 13 52 -5 80 -138 215 -168 170
-195 185 -262 143z"/>
<path d="M8265 4811 c-52 -32 -283 -274 -290 -304 -14 -53 4 -80 148 -224 144
-144 171 -162 225 -148 36 9 308 281 317 318 13 52 -5 80 -138 215 -168 170
-195 185 -262 143z"/>
<path d="M9545 4811 c-52 -32 -283 -274 -290 -304 -14 -53 4 -80 148 -224 144
-144 171 -162 225 -148 36 9 308 281 317 318 13 52 -5 80 -138 215 -168 170
-195 185 -262 143z"/>
<path d="M10825 4811 c-52 -32 -283 -274 -290 -304 -14 -53 4 -80 148 -224
144 -144 171 -162 225 -148 36 9 308 281 317 318 13 52 -5 80 -138 215 -168
170 -195 185 -262 143z"/>
<path d="M12105 4811 c-52 -32 -283 -274 -290 -304 -14 -53 4 -80 148 -224
144 -144 171 -162 225 -148 36 9 308 281 317 318 13 52 -5 80 -138 215 -168
170 -195 185 -262 143z"/>
<path d="M0 3840 c0 -392 1 -410 18 -410 30 0 88 49 228 191 152 155 164 171
164 219 0 48 -12 64 -164 219 -140 142 -198 191 -228 191 -17 0 -18 -18 -18
-410z"/>
<path d="M1204 4221 c-45 -34 -293 -284 -318 -321 -9 -13 -16 -40 -16 -60 0
-20 7 -47 16 -60 25 -37 273 -287 318 -321 52 -39 100 -39 152 0 45 34 293
284 318 321 25 38 20 91 -13 136 -34 45 -284 293 -321 318 -38 25 -91 20 -136
-13z"/>
<path d="M2484 4221 c-45 -34 -293 -284 -318 -321 -9 -13 -16 -40 -16 -60 0
-20 7 -47 16 -60 25 -37 273 -287 318 -321 52 -39 100 -39 152 0 45 34 293
284 318 321 25 38 20 91 -13 136 -34 45 -284 293 -321 318 -38 25 -91 20 -136
-13z"/>
<path d="M3764 4221 c-45 -34 -293 -284 -318 -321 -9 -13 -16 -40 -16 -60 0
-20 7 -47 16 -60 25 -37 273 -287 318 -321 52 -39 100 -39 152 0 45 34 293
284 318 321 25 38 20 91 -13 136 -34 45 -284 293 -321 318 -38 25 -91 20 -136
-13z"/>
<path d="M5044 4221 c-45 -34 -293 -284 -318 -321 -9 -13 -16 -40 -16 -60 0
-20 7 -47 16 -60 25 -37 273 -287 318 -321 52 -39 100 -39 152 0 45 34 293
284 318 321 25 38 20 91 -13 136 -34 45 -284 293 -321 318 -38 25 -91 20 -136
-13z"/>
<path d="M6324 4221 c-45 -34 -293 -284 -318 -321 -9 -13 -16 -40 -16 -60 0
-20 7 -47 16 -60 25 -37 273 -287 318 -321 52 -39 100 -39 152 0 45 34 293
284 318 321 25 38 20 91 -13 136 -34 45 -284 293 -321 318 -38 25 -91 20 -136
-13z"/>
<path d="M7604 4221 c-45 -34 -293 -284 -318 -321 -9 -13 -16 -40 -16 -60 0
-20 7 -47 16 -60 25 -37 273 -287 318 -321 52 -39 100 -39 152 0 45 34 293
284 318 321 25 38 20 91 -13 136 -34 45 -284 293 -321 318 -38 25 -91 20 -136
-13z"/>
<path d="M8884 4221 c-45 -34 -293 -284 -318 -321 -9 -13 -16 -40 -16 -60 0
-20 7 -47 16 -60 25 -37 273 -287 318 -321 52 -39 100 -39 152 0 45 34 293
284 318 321 25 38 20 91 -13 136 -34 45 -284 293 -321 318 -38 25 -91 20 -136
-13z"/>
<path d="M10164 4221 c-45 -34 -293 -284 -318 -321 -9 -13 -16 -40 -16 -60 0
-20 7 -47 16 -60 25 -37 273 -287 318 -321 52 -39 100 -39 152 0 45 34 293
284 318 321 25 38 20 91 -13 136 -34 45 -284 293 -321 318 -38 25 -91 20 -136
-13z"/>
<path d="M11444 4221 c-45 -34 -293 -284 -318 -321 -9 -13 -16 -40 -16 -60 0
-20 7 -47 16 -60 25 -37 273 -287 318 -321 52 -39 100 -39 152 0 45 34 293
284 318 321 25 38 20 91 -13 136 -34 45 -284 293 -321 318 -38 25 -91 20 -136
-13z"/>
<path d="M12724 4221 c-45 -34 -293 -284 -318 -321 -9 -13 -16 -40 -16 -60 0
-48 12 -64 164 -219 140 -142 198 -191 228 -191 17 0 18 18 18 410 0 392 -1
410 -18 410 -11 0 -37 -13 -58 -29z"/>
<path d="M423 3417 c-233 -233 -233 -201 0 -434 172 -172 173 -173 217 -173
44 0 45 1 217 173 233 233 233 201 0 434 -172 172 -173 173 -217 173 -44 0
-45 -1 -217 -173z"/>
<path d="M1703 3417 c-172 -172 -173 -173 -173 -217 0 -44 1 -45 173 -217 172
-172 173 -173 217 -173 44 0 45 1 217 173 233 233 233 201 0 434 -172 172
-173 173 -217 173 -44 0 -45 -1 -217 -173z"/>
<path d="M2983 3417 c-172 -172 -173 -173 -173 -217 0 -44 1 -45 173 -217 172
-172 173 -173 217 -173 44 0 45 1 217 173 172 172 173 173 173 217 0 44 -1 45
-173 217 -172 172 -173 173 -217 173 -44 0 -45 -1 -217 -173z"/>
<path d="M4263 3417 c-172 -172 -173 -173 -173 -217 0 -44 1 -45 173 -217 172
-172 173 -173 217 -173 44 0 45 1 217 173 172 172 173 173 173 217 0 44 -1 45
-173 217 -172 172 -173 173 -217 173 -44 0 -45 -1 -217 -173z"/>
<path d="M5543 3417 c-172 -172 -173 -173 -173 -217 0 -44 1 -45 173 -217 172
-172 173 -173 217 -173 44 0 45 1 217 173 172 172 173 173 173 217 0 44 -1 45
-173 217 -172 172 -173 173 -217 173 -44 0 -45 -1 -217 -173z"/>
<path d="M6823 3417 c-172 -172 -173 -173 -173 -217 0 -44 1 -45 173 -217 172
-172 173 -173 217 -173 44 0 45 1 217 173 172 172 173 173 173 217 0 44 -1 45
-173 217 -172 172 -173 173 -217 173 -44 0 -45 -1 -217 -173z"/>
<path d="M8103 3417 c-172 -172 -173 -173 -173 -217 0 -44 1 -45 173 -217 172
-172 173 -173 217 -173 44 0 45 1 217 173 172 172 173 173 173 217 0 44 -1 45
-173 217 -172 172 -173 173 -217 173 -44 0 -45 -1 -217 -173z"/>
<path d="M9383 3417 c-172 -172 -173 -173 -173 -217 0 -44 1 -45 173 -217 172
-172 173 -173 217 -173 44 0 45 1 217 173 172 172 173 173 173 217 0 44 -1 45
-173 217 -172 172 -173 173 -217 173 -44 0 -45 -1 -217 -173z"/>
<path d="M10663 3417 c-172 -172 -173 -173 -173 -217 0 -44 1 -45 173 -217
172 -172 173 -173 217 -173 44 0 45 1 217 173 172 172 173 173 173 217 0 44
-1 45 -173 217 -172 172 -173 173 -217 173 -44 0 -45 -1 -217 -173z"/>
<path d="M11943 3417 c-172 -172 -173 -173 -173 -217 0 -44 1 -45 173 -217
172 -172 173 -173 217 -173 44 0 45 1 217 173 172 172 173 173 173 217 0 44
-1 45 -173 217 -172 172 -173 173 -217 173 -44 0 -45 -1 -217 -173z"/>
<path d="M0 2560 c0 -328 3 -460 11 -460 35 0 96 51 257 213 253 258 253 237
-1 494 -161 163 -221 213 -256 213 -8 0 -11 -132 -11 -460z"/>
<path d="M1224 3004 c-17 -8 -112 -97 -211 -197 -256 -259 -257 -236 11 -503
268 -269 244 -269 512 0 268 267 267 245 11 503 -215 217 -245 236 -323 197z"/>
<path d="M2504 3004 c-17 -8 -112 -97 -211 -197 -256 -259 -257 -236 11 -503
268 -269 244 -269 512 0 268 267 267 245 11 503 -215 217 -245 236 -323 197z"/>
<path d="M3784 3004 c-17 -8 -112 -97 -211 -197 -256 -259 -257 -236 11 -503
268 -269 244 -269 512 0 268 267 267 245 11 503 -215 217 -245 236 -323 197z"/>
<path d="M5064 3004 c-17 -8 -112 -97 -211 -197 -256 -259 -257 -236 11 -503
268 -269 244 -269 512 0 268 267 267 245 11 503 -215 217 -245 236 -323 197z"/>
<path d="M6344 3004 c-17 -8 -112 -97 -211 -197 -256 -259 -257 -236 11 -503
268 -269 244 -269 512 0 268 267 267 245 11 503 -215 217 -245 236 -323 197z"/>
<path d="M7624 3004 c-17 -8 -112 -97 -211 -197 -256 -259 -257 -236 11 -503
268 -269 244 -269 512 0 268 267 267 245 11 503 -215 217 -245 236 -323 197z"/>
<path d="M8904 3004 c-17 -8 -112 -97 -211 -197 -256 -259 -257 -236 11 -503
268 -269 244 -269 512 0 268 267 267 245 11 503 -215 217 -245 236 -323 197z"/>
<path d="M10184 3004 c-17 -8 -112 -97 -211 -197 -256 -259 -257 -236 11 -503
268 -269 244 -269 512 0 268 267 267 245 11 503 -215 217 -245 236 -323 197z"/>
<path d="M11464 3004 c-17 -8 -112 -97 -211 -197 -256 -259 -257 -236 11 -503
268 -269 244 -269 512 0 268 267 267 245 11 503 -215 217 -245 236 -323 197z"/>
<path d="M12744 3004 c-17 -8 -112 -97 -211 -197 -255 -257 -255 -237 0 -494
161 -163 221 -213 256 -213 8 0 11 132 11 460 0 361 -3 460 -12 460 -7 0 -27
-7 -44 -16z"/>
<path d="M575 2331 c-16 -10 -105 -94 -196 -187 -178 -182 -189 -199 -163
-264 16 -38 322 -352 366 -376 32 -17 81 -18 111 -3 31 16 346 329 363 361 17
32 18 81 3 111 -16 31 -329 346 -361 363 -37 19 -87 18 -123 -5z"/>
<path d="M1855 2331 c-16 -10 -105 -94 -196 -187 -178 -182 -189 -199 -163
-264 16 -38 322 -352 366 -376 32 -17 81 -18 111 -3 31 16 346 329 363 361 17
32 18 81 3 111 -16 31 -329 346 -361 363 -37 19 -87 18 -123 -5z"/>
<path d="M3135 2331 c-16 -10 -105 -94 -196 -187 -178 -182 -189 -199 -163
-264 16 -38 322 -352 366 -376 32 -17 81 -18 111 -3 31 16 346 329 363 361 17
32 18 81 3 111 -16 31 -329 346 -361 363 -37 19 -87 18 -123 -5z"/>
<path d="M4415 2331 c-16 -10 -105 -94 -196 -187 -178 -182 -189 -199 -163
-264 16 -38 322 -352 366 -376 32 -17 81 -18 111 -3 31 16 346 329 363 361 17
32 18 81 3 111 -16 31 -329 346 -361 363 -37 19 -87 18 -123 -5z"/>
<path d="M5695 2331 c-16 -10 -105 -94 -196 -187 -178 -182 -189 -199 -163
-264 16 -38 322 -352 366 -376 32 -17 81 -18 111 -3 31 16 346 329 363 361 17
32 18 81 3 111 -16 31 -329 346 -361 363 -37 19 -87 18 -123 -5z"/>
<path d="M6975 2331 c-16 -10 -105 -94 -196 -187 -178 -182 -189 -199 -163
-264 16 -38 322 -352 366 -376 32 -17 81 -18 111 -3 31 16 346 329 363 361 17
32 18 81 3 111 -16 31 -329 346 -361 363 -37 19 -87 18 -123 -5z"/>
<path d="M8255 2331 c-16 -10 -105 -94 -196 -187 -178 -182 -189 -199 -163
-264 16 -38 322 -352 366 -376 32 -17 81 -18 111 -3 31 16 346 329 363 361 17
32 18 81 3 111 -16 31 -329 346 -361 363 -37 19 -87 18 -123 -5z"/>
<path d="M9535 2331 c-16 -10 -105 -94 -196 -187 -178 -182 -189 -199 -163
-264 16 -38 322 -352 366 -376 32 -17 81 -18 111 -3 31 16 346 329 363 361 17
32 18 81 3 111 -16 31 -329 346 -361 363 -37 19 -87 18 -123 -5z"/>
<path d="M10815 2331 c-16 -10 -105 -94 -196 -187 -178 -182 -189 -199 -163
-264 16 -38 322 -352 366 -376 32 -17 81 -18 111 -3 31 16 346 329 363 361 17
32 18 81 3 111 -16 31 -329 346 -361 363 -37 19 -87 18 -123 -5z"/>
<path d="M12095 2331 c-16 -10 -105 -94 -196 -187 -178 -182 -189 -199 -163
-264 16 -38 322 -352 366 -376 32 -17 81 -18 111 -3 31 16 346 329 363 361 17
32 18 81 3 111 -16 31 -329 346 -361 363 -37 19 -87 18 -123 -5z"/>
<path d="M0 1280 l0 -511 23 6 c48 15 89 50 273 237 140 141 194 203 203 231
23 69 7 93 -203 305 -184 187 -225 222 -273 237 l-23 6 0 -511z"/>
<path d="M1224 1770 c-24 -12 -120 -101 -236 -218 -225 -226 -237 -246 -199
-324 13 -29 89 -112 218 -240 227 -225 247 -237 325 -199 64 30 431 403 447
454 23 69 7 93 -207 310 -182 183 -248 237 -293 237 -8 0 -32 -9 -55 -20z"/>
<path d="M2504 1770 c-24 -12 -120 -101 -236 -218 -225 -226 -237 -246 -199
-324 13 -29 89 -112 218 -240 227 -225 247 -237 325 -199 64 30 431 403 447
454 23 69 7 93 -207 310 -182 183 -248 237 -293 237 -8 0 -32 -9 -55 -20z"/>
<path d="M3784 1770 c-24 -12 -120 -101 -236 -218 -225 -226 -237 -246 -199
-324 13 -29 89 -112 218 -240 227 -225 247 -237 325 -199 64 30 431 403 447
454 23 69 7 93 -207 310 -182 183 -248 237 -293 237 -8 0 -32 -9 -55 -20z"/>
<path d="M5064 1770 c-24 -12 -120 -101 -236 -218 -225 -226 -237 -246 -199
-324 13 -29 89 -112 218 -240 227 -225 247 -237 325 -199 64 30 431 403 447
454 23 69 7 93 -207 310 -182 183 -248 237 -293 237 -8 0 -32 -9 -55 -20z"/>
<path d="M6344 1770 c-24 -12 -120 -101 -236 -218 -225 -226 -237 -246 -199
-324 13 -29 89 -112 218 -240 227 -225 247 -237 325 -199 64 30 431 403 447
454 23 69 7 93 -207 310 -182 183 -248 237 -293 237 -8 0 -32 -9 -55 -20z"/>
<path d="M7624 1770 c-24 -12 -120 -101 -236 -218 -225 -226 -237 -246 -199
-324 13 -29 89 -112 218 -240 227 -225 247 -237 325 -199 64 30 431 403 447
454 23 69 7 93 -207 310 -182 183 -248 237 -293 237 -8 0 -32 -9 -55 -20z"/>
<path d="M8904 1770 c-24 -12 -120 -101 -236 -218 -225 -226 -237 -246 -199
-324 13 -29 89 -112 218 -240 227 -225 247 -237 325 -199 64 30 431 403 447
454 23 69 7 93 -207 310 -182 183 -248 237 -293 237 -8 0 -32 -9 -55 -20z"/>
<path d="M10184 1770 c-24 -12 -120 -101 -236 -218 -225 -226 -237 -246 -199
-324 13 -29 89 -112 218 -240 227 -225 247 -237 325 -199 64 30 431 403 447
454 23 69 7 93 -207 310 -182 183 -248 237 -293 237 -8 0 -32 -9 -55 -20z"/>
<path d="M11464 1770 c-24 -12 -120 -101 -236 -218 -225 -226 -237 -246 -199
-324 13 -29 89 -112 218 -240 227 -225 247 -237 325 -199 64 30 431 403 447
454 23 69 7 93 -207 310 -182 183 -248 237 -293 237 -8 0 -32 -9 -55 -20z"/>
<path d="M12744 1770 c-61 -30 -428 -405 -443 -452 -23 -70 -7 -94 203 -306
184 -187 225 -222 274 -237 l22 -6 0 510 c0 281 -3 511 -7 511 -5 0 -26 -9
-49 -20z"/>
<path d="M590 1104 c-48 -21 -395 -370 -415 -418 -29 -70 -21 -83 198 -303
134 -136 212 -206 234 -214 61 -20 86 -2 300 214 218 220 227 233 198 303 -21
50 -368 398 -418 419 -44 18 -53 18 -97 -1z"/>
<path d="M1870 1104 c-48 -21 -395 -370 -415 -418 -29 -70 -21 -83 198 -303
214 -216 239 -234 300 -214 22 8 100 78 234 214 218 220 227 233 198 303 -21
50 -368 398 -418 419 -44 18 -53 18 -97 -1z"/>
<path d="M3150 1104 c-48 -21 -395 -370 -415 -418 -29 -70 -21 -83 198 -303
214 -216 239 -234 300 -214 22 8 100 78 234 214 218 220 227 233 198 303 -21
50 -368 398 -418 419 -44 18 -53 18 -97 -1z"/>
<path d="M4430 1104 c-48 -21 -395 -370 -415 -418 -29 -70 -21 -83 198 -303
214 -216 239 -234 300 -214 22 8 100 78 234 214 218 220 227 233 198 303 -21
50 -368 398 -418 419 -44 18 -53 18 -97 -1z"/>
<path d="M5710 1104 c-48 -21 -395 -370 -415 -418 -29 -70 -21 -83 198 -303
214 -216 239 -234 300 -214 22 8 100 78 234 214 218 220 227 233 198 303 -21
50 -368 398 -418 419 -44 18 -53 18 -97 -1z"/>
<path d="M6990 1104 c-48 -21 -395 -370 -415 -418 -29 -70 -21 -83 198 -303
214 -216 239 -234 300 -214 22 8 100 78 234 214 218 220 227 233 198 303 -21
50 -368 398 -418 419 -44 18 -53 18 -97 -1z"/>
<path d="M8270 1104 c-48 -21 -395 -370 -415 -418 -29 -70 -21 -83 198 -303
214 -216 239 -234 300 -214 22 8 100 78 234 214 218 220 227 233 198 303 -21
50 -368 398 -418 419 -44 18 -53 18 -97 -1z"/>
<path d="M9550 1104 c-48 -21 -395 -370 -415 -418 -29 -70 -21 -83 198 -303
214 -216 239 -234 300 -214 22 8 100 78 234 214 218 220 227 233 198 303 -21
50 -368 398 -418 419 -44 18 -53 18 -97 -1z"/>
<path d="M10830 1104 c-48 -21 -395 -370 -415 -418 -29 -70 -21 -83 198 -303
214 -216 239 -234 300 -214 22 8 100 78 234 214 218 220 227 233 198 303 -21
50 -368 398 -418 419 -44 18 -53 18 -97 -1z"/>
<path d="M12110 1104 c-48 -21 -395 -370 -415 -418 -29 -70 -21 -83 198 -303
214 -216 239 -234 300 -214 22 8 100 78 234 214 218 220 227 233 198 303 -21
50 -368 398 -418 419 -44 18 -53 18 -97 -1z"/>
<path d="M0 275 l0 -275 275 0 c304 0 292 -3 260 64 -20 42 -442 462 -478 475
-60 23 -57 36 -57 -264z"/>
<path d="M1215 534 c-42 -21 -452 -432 -470 -470 -32 -69 -74 -64 535 -64 609
0 568 -5 535 64 -20 42 -442 462 -478 475 -40 15 -87 13 -122 -5z"/>
<path d="M2495 534 c-42 -21 -452 -432 -470 -470 -32 -69 -74 -64 535 -64 609
0 568 -5 535 64 -20 42 -442 462 -478 475 -40 15 -87 13 -122 -5z"/>
<path d="M3775 534 c-42 -21 -452 -432 -470 -470 -32 -69 -74 -64 535 -64 609
0 568 -5 535 64 -20 42 -442 462 -478 475 -40 15 -87 13 -122 -5z"/>
<path d="M5055 534 c-42 -21 -452 -432 -470 -470 -32 -69 -74 -64 535 -64 609
0 568 -5 535 64 -20 42 -442 462 -478 475 -40 15 -87 13 -122 -5z"/>
<path d="M6335 534 c-42 -21 -452 -432 -470 -470 -32 -69 -74 -64 535 -64 609
0 568 -5 535 64 -20 42 -442 462 -478 475 -40 15 -87 13 -122 -5z"/>
<path d="M7615 534 c-42 -21 -452 -432 -470 -470 -32 -69 -74 -64 535 -64 609
0 568 -5 535 64 -20 42 -442 462 -478 475 -40 15 -87 13 -122 -5z"/>
<path d="M8895 534 c-42 -21 -452 -432 -470 -470 -32 -69 -74 -64 535 -64 609
0 568 -5 535 64 -20 42 -442 462 -478 475 -40 15 -87 13 -122 -5z"/>
<path d="M10175 534 c-42 -21 -452 -432 -470 -470 -32 -69 -74 -64 535 -64
609 0 568 -5 535 64 -20 42 -442 462 -478 475 -40 15 -87 13 -122 -5z"/>
<path d="M11455 534 c-42 -21 -452 -432 -470 -470 -32 -69 -74 -64 535 -64
609 0 568 -5 535 64 -20 42 -442 462 -478 475 -40 15 -87 13 -122 -5z"/>
<path d="M12735 534 c-42 -21 -452 -432 -470 -470 -32 -67 -44 -64 260 -64
l275 0 0 275 c0 305 3 294 -65 259z"/>
</g>
</svg>
