<svg xmlns="http://www.w3.org/2000/svg" width="28" height="28" viewBox="0 0 28 28">
  <g id="backward" transform="translate(-93 -329)">
    <rect id="back" width="28" height="28" transform="translate(93 329)" fill="none"/>
    <path id="Path_1415" data-name="Path 1415" d="M-84.79,421.03a.583.583,0,0,1-.621-.578.571.571,0,0,1,.536-.574A10.293,10.293,0,0,0-75.2,408.434a10.306,10.306,0,0,0-9.038-9.042,10.294,10.294,0,0,0-11.37,8.9l1.95-1.422a.576.576,0,0,1,.8.119.577.577,0,0,1-.119.817l-2.559,1.865-.409.3-.012.012h0a.573.573,0,0,1-.74-.054c-.019-.019-.035-.039-.054-.058a.253.253,0,0,1-.046-.066l-.258-.447-1.337-2.3a.575.575,0,0,1,.212-.79.587.587,0,0,1,.285-.077.584.584,0,0,1,.5.289l.709,1.222a11.459,11.459,0,0,1,12.014-9.5A11.5,11.5,0,0,1-74,408.874,11.45,11.45,0,0,1-84.79,421.03Z" transform="translate(193.225 -66.602)" fill="#fff"/>
    <path id="Path_1563" data-name="Path 1563" d="M4.622-.734V0H1.089V-.734h1.35V-4.793q0-.216.013-.441l-1.039.878a.341.341,0,0,1-.137.07.3.3,0,0,1-.131,0,.346.346,0,0,1-.108-.043.267.267,0,0,1-.074-.065l-.3-.423L2.615-6.494H3.4v5.76ZM10.192-3.24a5.259,5.259,0,0,1-.182,1.472,3.059,3.059,0,0,1-.5,1.031,2.013,2.013,0,0,1-.752.608,2.209,2.209,0,0,1-.931.2,2.209,2.209,0,0,1-.931-.2,2,2,0,0,1-.749-.608,3.054,3.054,0,0,1-.5-1.031,5.321,5.321,0,0,1-.18-1.472,5.345,5.345,0,0,1,.18-1.474,3.027,3.027,0,0,1,.5-1.031,2.024,2.024,0,0,1,.749-.608,2.188,2.188,0,0,1,.931-.2,2.188,2.188,0,0,1,.931.2,2.043,2.043,0,0,1,.752.608,3.031,3.031,0,0,1,.5,1.031A5.283,5.283,0,0,1,10.192-3.24Zm-1,0a5.261,5.261,0,0,0-.115-1.2,2.439,2.439,0,0,0-.3-.767,1.126,1.126,0,0,0-.436-.41,1.151,1.151,0,0,0-.513-.122,1.146,1.146,0,0,0-.515.122,1.131,1.131,0,0,0-.434.41,2.4,2.4,0,0,0-.3.767,5.362,5.362,0,0,0-.113,1.2,5.362,5.362,0,0,0,.113,1.2,2.4,2.4,0,0,0,.3.767,1.131,1.131,0,0,0,.434.41,1.146,1.146,0,0,0,.515.122,1.151,1.151,0,0,0,.513-.122,1.126,1.126,0,0,0,.436-.41,2.439,2.439,0,0,0,.3-.767A5.261,5.261,0,0,0,9.193-3.24Z" transform="translate(103 346.5)" fill="#fff"/>
  </g>
</svg>
