<svg id="disable.music" xmlns="http://www.w3.org/2000/svg" width="24" height="24" viewBox="0 0 24 24">
  <g id="desable.music" transform="translate(0 0)" opacity="0.5">
    <rect id="background" width="24" height="24" transform="translate(0 0)" fill="none"/>
    <path id="music-icon" d="M24.014,120.457a2.706,2.706,0,0,0-1.812-2.468,1.083,1.083,0,0,0-.166-.573.963.963,0,0,0-.81-.464h-6.56c-1.518,0-5.1,2.488-6.118,3.219a4.465,4.465,0,0,0-2.171,3.624,3.2,3.2,0,0,0,.7,2.271,3.947,3.947,0,0,0-.736,2.231A2.984,2.984,0,0,0,8.9,131.6l1.38.01,6.146-.01h.8a2.913,2.913,0,0,0,1.748-.592q.469-.355.945-.7.411-.3.827-.593.331-.232.663-.462c.23-.159.458-.321.7-.467a4.126,4.126,0,0,0,.748-.578,3.829,3.829,0,0,0,.574-.735,3.986,3.986,0,0,0,.561-1.787c.006-.077,0-.159.009-.235a3.025,3.025,0,0,0-.708-2.251A3.608,3.608,0,0,0,24,120.951,2.93,2.93,0,0,0,24.014,120.457ZM7.85,129.778a1.993,1.993,0,0,1-.4-1.412,2.679,2.679,0,0,1,.5-1.57,2.158,2.158,0,0,0,.34.158,3.011,3.011,0,0,0-.607,1.876A2.922,2.922,0,0,0,7.85,129.778Zm-.175-5.43a3.135,3.135,0,0,0,.12.79,2,2,0,0,1-.313-1.254,3.284,3.284,0,0,1,1.638-2.7c2.107-1.52,4.692-3.051,5.548-3.051h6.118l-4.352,3.12a1.079,1.079,0,0,1-.626.2H10.416a.669.669,0,0,0-.147-.02,2.589,2.589,0,0,0-1.858.879A3,3,0,0,0,7.675,124.347Zm13.892,3.416a.316.316,0,0,0-.083.039c-.009.01-1.417.938-3.146,2.231-.009.01-.018.01-.028.02a1.546,1.546,0,0,1-.212.128c.009-.01.018-.02.009-.03a1.791,1.791,0,0,0,.064-.543,1.875,1.875,0,0,0-1.8-1.886h-.046a.11.11,0,0,0-.055.01h-5.8a.569.569,0,0,0-.552.592.575.575,0,0,0,.552.592H16.35a.492.492,0,0,0,.11-.01.744.744,0,0,1,.607.731,1.042,1.042,0,0,1-.028.237.7.7,0,0,1-.092.207.631.631,0,0,1-.147.168,1.02,1.02,0,0,1-.193.118.647.647,0,0,1-.285.049H10.269a1.6,1.6,0,0,1-1.49-1.619,1.731,1.731,0,0,1,.432-1.185,1.427,1.427,0,0,1,.856-.474.5.5,0,0,1,.175-.02h6.983a2.913,2.913,0,0,0,1.748-.592c1.592-1.195,2.9-2.064,3.091-2.192.009-.01.018-.02.028-.02a.686.686,0,0,0,.083-.079,1.723,1.723,0,0,0,.294-.247,1.851,1.851,0,0,1,.432,1.392A2.824,2.824,0,0,1,21.567,127.763Zm1.372-6.909a3.082,3.082,0,0,1-.217,1.066,2.271,2.271,0,0,1-.552.817,15.575,15.575,0,0,1-1.8,1.357l-.092.064q-.411.289-.819.582c-.325.235-.644.48-.971.713a1.538,1.538,0,0,1-.156.1.939.939,0,0,1-.1.047.854.854,0,0,0-.1.038c.015-.093.041-.18.049-.274a2.233,2.233,0,0,0-.088-.794,1.974,1.974,0,0,0-.4-.725,1.772,1.772,0,0,0-.569-.434,1.637,1.637,0,0,0-.463-.136,4.8,4.8,0,0,0-.789-.033c-.075,0-.149,0-.224,0-.155,0-.31,0-.466,0h-4.7a.594.594,0,0,0,0,1.185H16.1a3.609,3.609,0,0,1,.373,0,.649.649,0,0,1,.136.031.739.739,0,0,1,.394.375.756.756,0,0,1,.076.362.79.79,0,0,1-.221.533.689.689,0,0,1-.534.207H10.458a1.914,1.914,0,0,1-.492-.049,1.351,1.351,0,0,1-.212-.069c-.074-.03-.138-.069-.2-.1s-.12-.089-.175-.128-.11-.1-.166-.158-.092-.109-.138-.178a1.33,1.33,0,0,1-.11-.2,2.042,2.042,0,0,1-.092-.207c-.028-.079-.046-.158-.064-.227s-.018-.168-.028-.247v-.059a1.731,1.731,0,0,1,.432-1.185,1.491,1.491,0,0,1,.577-.407,2.637,2.637,0,0,1,.256-.078.955.955,0,0,1,.26-.012h.605l1.209,0,1.911,0c.4,0,.793,0,1.189,0,.2,0,.4-.009.6-.017a2.27,2.27,0,0,0,.543-.056,2.308,2.308,0,0,0,.688-.322s4.424-3.189,4.434-3.189a1.479,1.479,0,0,1,1.306.953A2.171,2.171,0,0,1,22.939,120.854Z" transform="translate(-3.249 -111.988)" fill="#fff"/>
  </g>
</svg>
