<svg id="disable.sleep" xmlns="http://www.w3.org/2000/svg" width="24" height="24" viewBox="0 0 24 24">
  <g id="disable.sleep-2" data-name="disable.sleep" transform="translate(0 0)" opacity="0.5">
    <rect id="background" width="24" height="24" transform="translate(0 0)" fill="none"/>
    <path id="icon" d="M19.143,186.449v-2.37a1.275,1.275,0,0,0,.377-.262,1.46,1.46,0,0,0,.4-1.049,2.228,2.228,0,0,0-2.162-2.282h-1.38v-.155A2.041,2.041,0,0,0,17.9,178.6a1.93,1.93,0,0,0,.009-.515v-.039a4.373,4.373,0,0,0-2.226-3.467l-.672-.369-.129.787a2.54,2.54,0,0,1-.359.991,4.294,4.294,0,0,0-.948,2.049,2.175,2.175,0,0,0,.451,1.69,1.981,1.981,0,0,0,1.251.622v.136H13.724a1.4,1.4,0,0,0-1.362,1.437v4.526H8.324v.583c0,2.04,1.205,3.38,3.588,4.011v1.534l.386.126a8.615,8.615,0,0,0,2.843.476,5.511,5.511,0,0,0,.561-.019h.083a5.246,5.246,0,0,0,.552.019,8.709,8.709,0,0,0,2.852-.476l.377-.126v-1.534c2.383-.631,3.588-1.972,3.588-4.011v-.583Zm-4.306-7.507a1.07,1.07,0,0,1-.175-.738,3.266,3.266,0,0,1,.718-1.486,3.239,3.239,0,0,0,.359-.69,2.832,2.832,0,0,1,1.067,2.059v.078a.677.677,0,0,1,0,.272.9.9,0,0,1-.34.6l-.083.058v-.233a.553.553,0,1,0-1.1,0v.3A.752.752,0,0,1,14.838,178.942Zm-1.371,2.982a.259.259,0,0,1,.258-.272h4.039a1.03,1.03,0,0,1,.754.33,1.25,1.25,0,0,1,.313.816.377.377,0,0,1-.074.175.307.307,0,0,1-.23.068c-.083.019-.147-.039-.184-.126a1.135,1.135,0,0,0-1.03-.719h-.239A1.109,1.109,0,0,0,16,183.332v.719a.258.258,0,1,1-.515,0v-2.282H14.129a.583.583,0,0,0,0,1.165h.248v1.117a1.364,1.364,0,1,0,2.723,0l-.028-.69.248-.01a1.306,1.306,0,0,0,.718.767v2.331H13.467Zm5,9.79a7.6,7.6,0,0,1-2.686.282H15.7a7.6,7.6,0,0,1-2.686-.282v-.447a17.682,17.682,0,0,0,2.723.194,17.682,17.682,0,0,0,2.723-.194ZM18.932,190a.111.111,0,0,0-.055.01,15.2,15.2,0,0,1-3.137.272,15.162,15.162,0,0,1-3.128-.272.38.38,0,0,0-.046-.01c-2.41-.515-2.972-1.612-3.1-2.389H22.014C21.885,188.392,21.333,189.489,18.932,190Z" transform="translate(-4.044 -172.008)" fill="#fff"/>
  </g>
</svg>
