<svg id="disable.profile" xmlns="http://www.w3.org/2000/svg" width="24" height="24" viewBox="0 0 24 24">
  <g id="profile" transform="translate(-1.369 -0.382)" opacity="0.5">
    <rect id="background" width="24" height="24" transform="translate(1.369 0.382)" fill="none"/>
    <g id="profile-icon" transform="translate(6.369 3.382)">
      <path id="Path_1557" data-name="Path 1557" d="M21,89.029a9.536,9.536,0,0,0-5.667-2H15.3a9.515,9.515,0,0,0-5.7,2.022A4.656,4.656,0,0,0,8.046,92.8a6.412,6.412,0,0,0,1.352,4v.01c.092,1.147.865,7.932,5.805,8.875a.5.5,0,0,0,.12.01h.092c4.738-.836,5.612-6.4,5.778-8.272a9.73,9.73,0,0,0,1.38-4.569A4.693,4.693,0,0,0,21,89.029Zm-5.686,15.485c-3.8-.8-4.637-6.212-4.793-7.611a38.257,38.257,0,0,1,4.112-2.2,21.535,21.535,0,0,1,5.437,2.79C19.877,99.577,19.013,103.805,15.314,104.515Zm5.18-8.146a20.1,20.1,0,0,0-4.3-2.294,9.587,9.587,0,0,1,3.073-.651.584.584,0,0,0,0-1.167c-3.156,0-7.783,2.693-9.2,3.568a5.33,5.33,0,0,1-.92-3.062,3.439,3.439,0,0,1,1.113-2.79A8.442,8.442,0,0,1,15.3,88.194h.009a8.385,8.385,0,0,1,5.014,1.759,3.482,3.482,0,0,1,1.141,2.829A8.355,8.355,0,0,1,20.494,96.369Z" transform="translate(-8.037 -87.027)" fill="#fff"/>
      <path id="Path_1558" data-name="Path 1558" d="M13.269,100.9A1.932,1.932,0,1,1,15.2,98.967,1.933,1.933,0,0,1,13.269,100.9Zm0-2.76a.828.828,0,1,0,.829.828A.829.829,0,0,0,13.269,98.139Z" transform="translate(-8.301 -87.16)" fill="#fff"/>
      <path id="Path_1559" data-name="Path 1559" d="M18.28,100.9a1.932,1.932,0,1,1,1.932-1.932A1.933,1.933,0,0,1,18.28,100.9Zm0-2.76a.828.828,0,1,0,.829.828A.829.829,0,0,0,18.28,98.139Z" transform="translate(-8.702 -87.16)" fill="#fff"/>
    </g>
  </g>
</svg>
