<svg id="disable.meditate" xmlns="http://www.w3.org/2000/svg" width="24" height="24" viewBox="0 0 24 24">
  <g id="disable.meditate-2" data-name="disable.meditate" opacity="0.5">
    <rect id="background" width="24" height="24" fill="none"/>
    <path id="icon" d="M21.737,68.01a15.175,15.175,0,0,0,1.021-2.575c.213-.668.451-1.425.681-1.543a.606.606,0,0,0-.156-1.111c-2.475-.432-3.984-.167-5.556,1.071a14.035,14.035,0,0,0-1.8-4.079c-.192-.324-.35-.59-.451-.8a.536.536,0,0,0-.984,0c-.1.206-.257.472-.451.786a14.255,14.255,0,0,0-1.8,4.089c-1.572-1.248-3.1-1.514-5.557-1.071a.576.576,0,0,0-.45.491.6.6,0,0,0,.294.619A3.957,3.957,0,0,1,7.2,65.435a15.321,15.321,0,0,0,1.02,2.575c-1.978.423-4.269,1.917-4.25,2.919a.775.775,0,0,0,.865.767,2.2,2.2,0,0,1,1.749.9,4.926,4.926,0,0,0,4.047,1.681c2.5,0,3.744-1,4.352-1.858.6.855,1.84,1.858,4.333,1.858A4.937,4.937,0,0,0,23.376,72.6a2.2,2.2,0,0,1,1.747-.9.775.775,0,0,0,.865-.767C26.007,69.927,23.716,68.433,21.737,68.01Zm.884,3.735a3.928,3.928,0,0,1-3.3,1.356c-2.99,0-3.671-1.651-3.79-2.035-.009-.039-.018-.069-.018-.079a.61.61,0,0,0-.064-.187.557.557,0,0,0-.293-.246.244.244,0,0,0-.12-.029.017.017,0,0,0-.029,0h-.018a.557.557,0,0,0-.183.029.568.568,0,0,0-.221.157.493.493,0,0,0-.12.256c0,.01-.009.01-.009.02a.342.342,0,0,1-.019.059.094.094,0,0,0-.009.049c-.146.432-.865,2.005-3.79,2.005a3.92,3.92,0,0,1-3.294-1.356,3.447,3.447,0,0,0-1.857-1.16,6.806,6.806,0,0,1,3.68-1.523H9.2a2.562,2.562,0,0,1,.654.059,4.044,4.044,0,0,1,1.5.452.571.571,0,0,0,.247.059.558.558,0,0,0,.5-.324.614.614,0,0,0-.249-.786A5.044,5.044,0,0,0,10,67.951a2.383,2.383,0,0,0-.524-.059,11.57,11.57,0,0,1-1.223-2.841A10.64,10.64,0,0,0,7.8,63.813a4.754,4.754,0,0,1,4.233,1.376c-.01.167-.019.334-.019.511a6.984,6.984,0,0,0,.506,2.565.54.54,0,0,0,.507.354.589.589,0,0,0,.221-.039.612.612,0,0,0,.285-.776,5.944,5.944,0,0,1-.415-2.113c0-.226.019-.442.037-.668.009-.01.009-.01,0-.02a.132.132,0,0,0,.009-.059A11.418,11.418,0,0,1,14.976,60.4v-.02a.033.033,0,0,1,.008.02A11.654,11.654,0,0,1,16.8,64.953a.072.072,0,0,0,.01.049v.02a.132.132,0,0,0,.009.059c.008.206.027.413.027.6a5.934,5.934,0,0,1-.414,2.123.607.607,0,0,0,.294.776.513.513,0,0,0,.213.039.54.54,0,0,0,.506-.354,7.025,7.025,0,0,0,.505-2.585c0-.167-.009-.324-.018-.491a4.737,4.737,0,0,1,4.224-1.376,12.538,12.538,0,0,0-.442,1.238A11.5,11.5,0,0,1,20.5,67.882a3.523,3.523,0,0,0-.5.059,5.118,5.118,0,0,0-1.886.58.606.606,0,0,0-.248.786.558.558,0,0,0,.5.324.571.571,0,0,0,.247-.059,4.215,4.215,0,0,1,1.537-.462,2.6,2.6,0,0,1,.615-.049h.084a6.855,6.855,0,0,1,3.633,1.514A3.494,3.494,0,0,0,22.621,71.745Z" transform="translate(-2.98 -54.468)" fill="#fff"/>
  </g>
</svg>
