<svg id="dr.aboutus" xmlns="http://www.w3.org/2000/svg" width="14" height="14" viewBox="0 0 14 14">
  <rect id="back" width="14" height="14" transform="translate(0 0)" fill="none"/>
  <g id="icon" transform="translate(0.75 0)">
    <path id="Path_1621" data-name="Path 1621" d="M2.7,14a2.7,2.7,0,0,1-.278-.106.945.945,0,0,1-.548-.794c-.016-.184,0-.371,0-.573-.3,0-.577,0-.854,0a.976.976,0,0,1-.6-.188A.993.993,0,0,1,0,11.49V1.677A1,1,0,0,1,.679.651,1.344,1.344,0,0,1,1.081.6Q4.409.593,7.737.592A.462.462,0,0,0,7.986.517,2.867,2.867,0,0,1,12.473,2.5,2.774,2.774,0,0,1,11.13,5.316.241.241,0,0,0,11,5.554c.007.365,0,.73,0,1.093A.763.763,0,0,1,11,6.77a.268.268,0,0,1-.285.238.26.26,0,0,1-.256-.268c0-.31,0-.621,0-.929V5.629a3.159,3.159,0,0,1-1.315.078v5.739a1,1,0,0,1-.694,1.028,1.37,1.37,0,0,1-.39.049l-5.464,0H2.427a5.244,5.244,0,0,0,.005.593.421.421,0,0,0,.389.331c.041,0,.082,0,.123,0H9.914c.376,0,.543-.167.544-.54V9.319c0-.256.089-.377.272-.377s.275.129.275.377v3.458A1.049,1.049,0,0,1,10.163,14ZM7.338,1.142H1.056a.445.445,0,0,0-.475.289.856.856,0,0,0-.032.256q0,4.872,0,9.745v.11a.444.444,0,0,0,.464.438H8.133a.434.434,0,0,0,.436-.306A.916.916,0,0,0,8.6,11.43V5.7a.242.242,0,0,0,0-.081c-.013-.034-.03-.08-.058-.092a2.922,2.922,0,0,1-1.323-1.11,1.874,1.874,0,0,1-.247.034q-2.392,0-4.784,0c-.248,0-.347-.1-.348-.348V3.148c0-.319.078-.395.4-.395H6.763a2.932,2.932,0,0,1,.578-1.611ZM9.624,5.2A2.325,2.325,0,1,0,7.309,2.872,2.325,2.325,0,0,0,9.624,5.2ZM6.752,3.308H2.389V3.9H6.753Z"/>
    <path id="Path_1622" data-name="Path 1622" d="M10.46,7.967a.266.266,0,0,1,.27-.267A.273.273,0,0,1,11,7.98a.276.276,0,0,1-.28.261.269.269,0,0,1-.263-.274Z"/>
    <path id="Path_1623" data-name="Path 1623" d="M4.571,8.542H2.221a1.136,1.136,0,0,1-.15-.005.268.268,0,0,1-.012-.53A.936.936,0,0,1,2.222,8h4.7c.253,0,.38.089.384.268s-.124.279-.385.279Z"/>
    <path id="Path_1624" data-name="Path 1624" d="M4.586,5.405H6.908a1.145,1.145,0,0,1,.177.008.268.268,0,0,1,.037.518.638.638,0,0,1-.175.019H2.192a.624.624,0,0,1-.175-.02.268.268,0,0,1,.041-.518,1.192,1.192,0,0,1,.177-.008Z"/>
    <path id="Path_1625" data-name="Path 1625" d="M4.571,9.295h2.4a.307.307,0,0,1,.285.125.272.272,0,0,1-.19.418.934.934,0,0,1-.15,0H2.139a.281.281,0,0,1-.3-.282.274.274,0,0,1,.3-.264H3.888Z"/>
    <path id="Path_1626" data-name="Path 1626" d="M4.558,7.247H2.208a1.145,1.145,0,0,1-.123,0A.272.272,0,0,1,2.07,6.7a.891.891,0,0,1,.136,0H6.935a1.057,1.057,0,0,1,.123,0,.272.272,0,0,1-.012.543c-.041,0-.082,0-.123,0Z"/>
    <path id="Path_1627" data-name="Path 1627" d="M9.363,3.445V2.558c0-.194.1-.311.264-.315a.281.281,0,0,1,.281.316q0,.894,0,1.79a.277.277,0,0,1-.194.3.25.25,0,0,1-.3-.1.432.432,0,0,1-.05-.206C9.359,4.037,9.363,3.741,9.363,3.445Z"/>
    <path id="Path_1628" data-name="Path 1628" d="M9.363,1.632a.264.264,0,0,1,.27-.267.271.271,0,0,1,.272.267.279.279,0,0,1-.279.277.272.272,0,0,1-.262-.277Z"/>
  </g>
</svg>
