<svg id="dr.account.Info" xmlns="http://www.w3.org/2000/svg" width="14" height="14" viewBox="0 0 14 14">
  <rect id="back" width="14" height="14" fill="none"/>
  <g id="icon" transform="translate(-22 -513.038)">
    <path id="Path_1571" data-name="Path 1571" d="M.414,7.872h1.2a1.116,1.116,0,0,1,.173.01.189.189,0,0,1,.173.2.186.186,0,0,1-.182.192,1.72,1.72,0,0,1-.173.006H.426c0,.33-.012.648.006.965A.278.278,0,0,0,.7,9.5a1.364,1.364,0,0,0,.188.016H13.112c.36,0,.476-.118.476-.482q0-.349,0-.7a.289.289,0,0,0-.016-.051H2.783a.432.432,0,0,1-.2-.014c-.066-.038-.146-.115-.15-.179A.281.281,0,0,1,2.562,7.9a.424.424,0,0,1,.213-.023H13.59c0-.108,0-.2,0-.29a.2.2,0,0,1,.4-.015,2.9,2.9,0,0,1,.006.32c0,.4,0,.806,0,1.21a.765.765,0,0,1-.826.829Q7,9.929.826,9.926A.757.757,0,0,1,0,9.1V2.436c0-.044-.014-.1.008-.128.049-.063.113-.149.177-.155a.287.287,0,0,1,.2.122.364.364,0,0,1,.025.2v5.4Z" transform="translate(22 515.074)"/>
    <path id="Path_1572" data-name="Path 1572" d="M7,0h6.136a.77.77,0,0,1,.772.414A.967.967,0,0,1,14,.82q.008,2.9,0,5.8c0,.057,0,.132-.029.167a.3.3,0,0,1-.2.108c-.063-.006-.133-.081-.171-.144a.4.4,0,0,1-.013-.186V.9c0-.372-.113-.485-.487-.485H.9a1.359,1.359,0,0,0-.146,0A.343.343,0,0,0,.415.789c0,.2,0,.408,0,.612,0,.159-.081.251-.2.253s-.2-.09-.2-.247v-.6A.757.757,0,0,1,.789,0H7Z" transform="translate(22 515.074)"/>
    <path id="Path_1573" data-name="Path 1573" d="M4.105,1.939H6.175a.6.6,0,0,1,.675.672q0,1.581,0,3.162a.6.6,0,0,1-.676.67H2.035a.6.6,0,0,1-.683-.679V2.617a.6.6,0,0,1,.684-.678Zm0,4.095H6.16c.231,0,.277-.044.277-.269V2.616c0-.219-.049-.267-.266-.267H2.033c-.221,0-.271.051-.271.277V5.76c0,.224.05.274.274.274l2.071,0Z" transform="translate(22 515.074)"/>
    <path id="Path_1574" data-name="Path 1574" d="M10.174,3.1h2.184c.058,0,.13-.015.171.013.065.043.147.114.151.178s-.069.146-.128.2c-.037.031-.111.022-.169.022H7.957A.713.713,0,0,1,7.8,3.5a.2.2,0,0,1,.017-.388,1.17,1.17,0,0,1,.16-.008Z" transform="translate(22 515.074)"/>
    <path id="Path_1575" data-name="Path 1575" d="M10.154,4.633h-2.2c-.053,0-.12.014-.157-.012-.061-.043-.137-.111-.142-.173a.283.283,0,0,1,.111-.194.306.306,0,0,1,.182-.029q2.22,0,4.441,0a.312.312,0,0,1,.182.029.284.284,0,0,1,.11.194c-.006.063-.082.13-.143.173-.037.026-.1.011-.157.012Z" transform="translate(22 515.074)"/>
    <path id="Path_1576" data-name="Path 1576" d="M10.176,5.355h2.2a.81.81,0,0,1,.145.005.2.2,0,0,1,.02.392.589.589,0,0,1-.159.011H7.956A.575.575,0,0,1,7.8,5.752a.2.2,0,0,1,.021-.392.843.843,0,0,1,.145,0Z" transform="translate(22 515.074)"/>
    <path id="Path_1577" data-name="Path 1577" d="M10.708,1.973c.573,0,1.144,0,1.718,0a.347.347,0,0,1,.22.079.192.192,0,0,1-.111.316.676.676,0,0,1-.159.01H9.041c-.035,0-.069,0-.1,0a.206.206,0,0,1-.215-.208.2.2,0,0,1,.222-.2c.416,0,.835,0,1.252,0Z" transform="translate(22 515.074)"/>
    <path id="Path_1578" data-name="Path 1578" d="M9.256,6.483h1.283c.058,0,.13-.012.171.016a.309.309,0,0,1,.139.176.279.279,0,0,1-.116.191c-.042.035-.12.026-.183.027q-1.3,0-2.591,0c-.058,0-.132.009-.169-.021-.06-.05-.134-.13-.131-.194s.086-.134.149-.181c.035-.026.1-.013.156-.013Z" transform="translate(22 515.074)"/>
    <path id="Path_1579" data-name="Path 1579" d="M3.529,3.964a.772.772,0,0,1,.089-1.075.744.744,0,0,1,.962,0,.767.767,0,0,1,.09,1.08l.094.082a.975.975,0,0,1,.351.68,4.906,4.906,0,0,1,.009.495.327.327,0,0,1-.352.357h-1.3c-.281,0-.4-.121-.4-.4V5.05A1.132,1.132,0,0,1,3.529,3.964Zm-.054,1.2h1.23c0-.146.011-.282,0-.416a.608.608,0,0,0-1.2-.051,4.312,4.312,0,0,0-.033.467ZM4.1,3.12a.339.339,0,1,0,.335.334A.339.339,0,0,0,4.1,3.12Z" transform="translate(22 515.074)"/>
  </g>
</svg>
