<svg id="dr.changepassword" xmlns="http://www.w3.org/2000/svg" width="14" height="14" viewBox="0 0 14 14">
  <rect id="back" width="14" height="14" fill="none"/>
  <g id="icon" transform="translate(-22 -558.038)">
    <path id="Path_1580" data-name="Path 1580" d="M14,8.257v2.625a.114.114,0,0,0-.024.03.7.7,0,0,1-.743.519h-1.1v1.33A1.173,1.173,0,0,1,10.9,14H3.1a1.172,1.172,0,0,1-1.232-1.226V11.584c0-.048,0-.1-.006-.14a.2.2,0,0,0-.04-.012c-.36,0-.72,0-1.08,0A.7.7,0,0,1,0,10.695V8.438A.694.694,0,0,1,.736,7.7c.324,0,.647,0,.971,0h.157V7.534c0-.405,0-.811,0-1.217a1.167,1.167,0,0,1,.959-1.165c.066-.013.133-.017.21-.027V4.957c.008-.478-.01-.958.031-1.434A3.936,3.936,0,0,1,5.871.166C6.133.093,6.4.056,6.67,0h.658c.2.037.4.065.6.111a3.941,3.941,0,0,1,3.008,3.434c.041.461.021.927.028,1.392v.188c.033.006.05.01.068.012a1.163,1.163,0,0,1,1.1,1.186c.005.405,0,.81,0,1.216V7.7h1.145a.676.676,0,0,1,.594.3A2.009,2.009,0,0,1,14,8.257ZM6.987,10.965h6.232c.244,0,.317-.073.317-.318V8.488c0-.247-.071-.32-.315-.32H.784c-.246,0-.317.073-.317.316V10.6c0,.3.058.362.355.362Zm-4.653.475c0,.46,0,.906,0,1.352a.7.7,0,0,0,.748.742h7.833a.705.705,0,0,0,.754-.751c0-.405,0-.811,0-1.216,0-.04,0-.08-.008-.127Zm0-3.747h9.319a.223.223,0,0,0,.013-.047c0-.456.012-.913,0-1.367a.682.682,0,0,0-.727-.675H3.064a.7.7,0,0,0-.733.728c0,.178,0,.355,0,.533ZM9.085,5.129c0-.475.034-.945-.007-1.409a2.074,2.074,0,0,0-2-1.853A2.1,2.1,0,0,0,4.951,3.532a2.68,2.68,0,0,0-.049.475c-.007.372,0,.744,0,1.123Zm1.417,0c0-.28.009-.545,0-.808a6.767,6.767,0,0,0-.073-1.046,3.49,3.49,0,0,0-6.862.094A13.035,13.035,0,0,0,3.5,4.854c0,.09,0,.179,0,.272h.932c0-.21,0-.41,0-.61a6.616,6.616,0,0,1,.043-.98,2.559,2.559,0,0,1,5.064.121c.039.434.02.874.027,1.311v.161Z" transform="translate(22 558.039)"/>
    <path id="Path_1581" data-name="Path 1581" d="M1.445,9.566,1.1,9.331c-.164-.11-.205-.237-.119-.363s.219-.13.383-.022l.278.185c0-.11,0-.187,0-.266a.221.221,0,0,1,.219-.229.227.227,0,0,1,.24.212c.008.081,0,.163,0,.275l.3-.192c.146-.094.28-.079.359.037a.243.243,0,0,1-.1.35c-.06.042-.121.08-.183.121s-.113.077-.186.127c.124.083.24.16.355.239.151.1.193.237.112.356s-.219.133-.372.032L2.1,10c0,.1,0,.166,0,.236a.24.24,0,0,1-.24.259c-.136,0-.219-.1-.225-.256,0-.068,0-.136,0-.239a2.406,2.406,0,0,1-.319.2.378.378,0,0,1-.254.026.222.222,0,0,1-.019-.4C1.169,9.746,1.3,9.663,1.445,9.566Z" transform="translate(22 558.039)"/>
    <path id="Path_1582" data-name="Path 1582" d="M6.75,9.118c.044-.194-.058-.475.248-.475s.214.275.245.478l.251-.166c.176-.117.308-.113.395.012s.042.258-.141.38l-.327.219.356.239c.153.1.2.234.115.355s-.219.134-.372.037L7.233,10c0,.1,0,.179,0,.253a.234.234,0,0,1-.227.243.237.237,0,0,1-.238-.245c0-.073,0-.144,0-.248l-.256.167c-.183.119-.322.114-.405-.015s-.037-.251.141-.369l.331-.222-.36-.243c-.152-.1-.193-.235-.11-.355s.216-.131.371-.03C6.567,9,6.653,9.053,6.75,9.118Z" transform="translate(22 558.039)"/>
    <path id="Path_1583" data-name="Path 1583" d="M4.856,9.565c.137.091.258.17.376.253a.239.239,0,0,1,.1.339.243.243,0,0,1-.359.046c-.091-.059-.181-.119-.3-.2v.219c-.005.171-.1.277-.239.274s-.223-.1-.227-.268V10c-.12.079-.219.146-.319.21a.239.239,0,0,1-.3-.007.229.229,0,0,1,.034-.373c.125-.089.254-.172.4-.268-.135-.091-.256-.17-.374-.252a.236.236,0,0,1-.1-.338.24.24,0,0,1,.358-.05c.094.06.187.123.292.193.043-.2-.064-.488.256-.475.289.01.206.275.232.475.11-.073.2-.133.3-.194a.238.238,0,0,1,.35.04.242.242,0,0,1-.093.35C5.114,9.4,4.994,9.473,4.856,9.565Z" transform="translate(22 558.039)"/>
    <path id="Path_1584" data-name="Path 1584" d="M9.81,9.122c.11-.073.2-.134.294-.195a.235.235,0,1,1,.259.387c-.06.042-.121.081-.183.121s-.113.077-.19.129l.351.237c.156.106.2.231.119.354s-.222.138-.382.032l-.271-.18c-.034.2.063.481-.241.481s-.216-.275-.247-.477c-.1.068-.2.131-.292.191a.24.24,0,0,1-.358-.05.235.235,0,0,1,.1-.338c.119-.081.24-.16.375-.251-.136-.09-.256-.169-.375-.25a.237.237,0,0,1-.1-.338.24.24,0,0,1,.357-.053c.092.058.183.117.275.175,0,0,.008,0,.021-.006.032-.175-.062-.45.244-.45S9.773,8.923,9.81,9.122Z" transform="translate(22 558.039)"/>
    <path id="Path_1585" data-name="Path 1585" d="M12.136,10.034h.655c.168,0,.278.1.275.235a.239.239,0,0,1-.268.23q-.668,0-1.337,0a.229.229,0,0,1-.258-.236c0-.142.1-.228.264-.229C11.691,10.032,11.914,10.034,12.136,10.034Z" transform="translate(22 558.039)"/>
    <path id="Path_1586" data-name="Path 1586" d="M3.266,6.534v.415c0,.178-.085.278-.226.282s-.238-.1-.24-.284c0-.2,0-.4,0-.6s.085-.277.287-.278.418,0,.627,0a.23.23,0,0,1,.251.228.233.233,0,0,1-.246.236C3.571,6.536,3.429,6.534,3.266,6.534Z" transform="translate(22 558.039)"/>
  </g>
</svg>
