<svg id="dr.downloads" xmlns="http://www.w3.org/2000/svg" width="14" height="14" viewBox="0 0 14 14">
  <rect id="back" width="14" height="14" fill="none"/>
  <g id="icon" transform="translate(-22 -603.038)">
    <path id="Path_1587" data-name="Path 1587" d="M0,6.039c.026-.123.048-.248.08-.37A3.062,3.062,0,0,1,1.76,3.581a.155.155,0,0,0,.1-.165A3.4,3.4,0,0,1,4.8.056,3.283,3.283,0,0,1,8.274,1.562c.058.086.122.076.2.073a3.526,3.526,0,0,1,3.44,2.258,3.821,3.821,0,0,1,.16.591.167.167,0,0,0,.142.149A2.452,2.452,0,0,1,11.7,9.441c-.735.046-1.475.008-2.224.008V9.042h.146c.629,0,1.258,0,1.887,0a2.049,2.049,0,0,0,.365-4.069c-.1-.015-.159-.031-.17-.157A3.094,3.094,0,0,0,9.25,2.1a2.9,2.9,0,0,0-1.019-.03.16.16,0,0,1-.19-.1A2.927,2.927,0,0,0,5.932.451,3.11,3.11,0,0,0,2.309,2.962a4.746,4.746,0,0,0-.033.736.136.136,0,0,1-.107.155A2.691,2.691,0,0,0,.412,6.46,2.66,2.66,0,0,0,2.89,9.02c.491.024.984.009,1.476.011h.163v.4A6.776,6.776,0,0,1,2.047,9.26a3.015,3.015,0,0,1-2.021-2.5C.02,6.721.009,6.68,0,6.641Z" transform="translate(22 603.041)"/>
    <path id="Path_1588" data-name="Path 1588" d="M7,13.371l2.708-3.089H8.645V6.589h-.4V6.178h.806V9.862h1.574L7,14,3.384,9.871H4.94V6.182H6.991v.4H5.363v3.7H4.284Z" transform="translate(22 603.041)"/>
    <path id="Path_1589" data-name="Path 1589" d="M4.539,1.388,4.2,1.552,3.989,1.2l.4-.2C4.442,1.139,4.488,1.257,4.539,1.388Z" transform="translate(22 603.041)"/>
    <path id="Path_1590" data-name="Path 1590" d="M3.645,1.479l.242.287-.264.268-.309-.261Z" transform="translate(22 603.041)"/>
    <path id="Path_1591" data-name="Path 1591" d="M7.418,6.173h.391v.4H7.418Z" transform="translate(22 603.041)"/>
    <path id="Path_1592" data-name="Path 1592" d="M6.173,7v.395H5.779V7Z" transform="translate(22 603.041)"/>
    <path id="Path_1593" data-name="Path 1593" d="M1.671,4.655l.246.3L1.635,5.2l-.3-.241Z" transform="translate(22 603.041)"/>
  </g>
</svg>
