<svg id="dr.help" xmlns="http://www.w3.org/2000/svg" width="14" height="14" viewBox="0 0 14 14">
  <rect id="back" width="14" height="14" fill="none"/>
  <g id="icon" transform="translate(-22 -828.038)">
    <path id="Path_1614" data-name="Path 1614" d="M0,2.191c.025-.115.047-.231.076-.345A2.425,2.425,0,0,1,2.419,0C4.323,0,6.226,0,8.13.01a3.793,3.793,0,0,1,.84.157.2.2,0,0,1,.154.284c-.044.11-.156.137-.3.106A3.813,3.813,0,0,0,8.05.423C6.2.412,4.343.415,2.489.418a2.01,2.01,0,0,0-2,1.523,2.313,2.313,0,0,0-.066.54q-.011,1.08,0,2.159A2,2,0,0,0,1.378,6.4a.539.539,0,0,1,.269.5c-.007.3,0,.592,0,.888v.161c.054-.05.088-.078.118-.11.3-.3.606-.592.9-.9a.675.675,0,0,1,.581-.238c.054,0,.11,0,.187,0V6.5a4.428,4.428,0,0,1,.094-1.207,2.425,2.425,0,0,1,2.3-1.767c1.371-.009,2.742,0,4.113,0h.18V3.271c-.008-.387,0-.775-.032-1.159A1.826,1.826,0,0,0,9.618,1.1.319.319,0,0,1,9.529.9.261.261,0,0,1,9.657.726.2.2,0,0,1,9.91.8,2.16,2.16,0,0,1,10.491,2c.048.438.037.881.049,1.322,0,.062,0,.125,0,.2h.6a3.927,3.927,0,0,1,1.045.08,2.441,2.441,0,0,1,1.808,2.33c.006.761.01,1.521,0,2.282a2.37,2.37,0,0,1-1.1,2.026.219.219,0,0,0-.11.211c0,.433,0,.865,0,1.3a.4.4,0,0,1-.233.41.391.391,0,0,1-.455-.123c-.428-.429-.858-.855-1.283-1.287a.319.319,0,0,0-.252-.1c-1.533,0-3.07,0-4.6,0a2.51,2.51,0,0,1-1.623-.543.876.876,0,0,1-.139-.13.188.188,0,0,1,.008-.261.193.193,0,0,1,.259-.041.463.463,0,0,1,.076.058,2.033,2.033,0,0,0,1.368.495c1.548,0,3.1,0,4.646,0a.718.718,0,0,1,.558.23c.374.387.758.762,1.138,1.142.03.03.064.058.113.1,0-.069.007-.113.007-.157,0-.387,0-.774,0-1.161a.508.508,0,0,1,.249-.456,2.017,2.017,0,0,0,.958-1.808c0-.715,0-1.43,0-2.145a2.017,2.017,0,0,0-1.638-1.994,2.083,2.083,0,0,0-.407-.037q-2.822,0-5.643,0A2.012,2.012,0,0,0,3.853,5.963c-.005.751-.012,1.5.005,2.255a3.4,3.4,0,0,0,.135.73c.041.165.021.273-.1.323S3.666,9.263,3.6,9.1a2.508,2.508,0,0,1-.175-.961v-1a.519.519,0,0,0-.513.138c-.329.354-.675.69-1.022,1.027a.376.376,0,0,1-.651-.152A.614.614,0,0,1,1.229,8c0-.36,0-.72,0-1.08a.185.185,0,0,0-.093-.178A2.418,2.418,0,0,1,.023,5.012.787.787,0,0,0,0,4.923Z" transform="translate(22 828.941)"/>
    <path id="Path_1615" data-name="Path 1615" d="M8.468,6.147a1.5,1.5,0,0,0-1.53-1.195,1.468,1.468,0,0,0-1.377,1.2A.756.756,0,0,1,6,6.973c-.009.183,0,.365,0,.548a.688.688,0,1,1-1.374,0c0-.232,0-.464,0-.7a.7.7,0,0,1,.422-.663.245.245,0,0,0,.106-.15A1.906,1.906,0,0,1,8.862,6a.243.243,0,0,0,.146.187.652.652,0,0,1,.387.611c.007.25.008.5,0,.751a.687.687,0,0,1-.444.647.268.268,0,0,0-.124.123,1.241,1.241,0,0,1-.526.574.325.325,0,0,0-.123.13.678.678,0,0,1-.6.387.7.7,0,0,1-.681-.32.522.522,0,0,1,.1-.67.784.784,0,0,1,1.035,0,.957.957,0,0,1,.088.118L8.435,8.2c-.1-.082-.195-.133-.241-.214a1.206,1.206,0,0,1-.16-.422c-.027-.215,0-.438-.011-.655A.73.73,0,0,1,8.468,6.147ZM8.444,7.173c0,.123,0,.246,0,.369a.27.27,0,0,0,.265.273.261.261,0,0,0,.264-.26q.012-.389,0-.778a.25.25,0,0,0-.27-.249.258.258,0,0,0-.258.262C8.44,6.919,8.444,7.047,8.444,7.173Zm-2.865,0c0-.127,0-.256,0-.382a.263.263,0,1,0-.526,0c-.006.25-.005.5,0,.751a.264.264,0,1,0,.528,0c0-.122,0-.245,0-.368ZM7.526,8.639c-.153,0-.285.079-.284.175s.137.18.285.177.271-.085.271-.177-.122-.172-.271-.174Z" transform="translate(22 828.941)"/>
    <path id="Path_1616" data-name="Path 1616" d="M10.768,5.717H9.989c-.164,0-.262-.084-.258-.215s.1-.2.258-.2h1.57c.161,0,.249.076.249.207s-.091.207-.249.208C11.3,5.718,11.032,5.717,10.768,5.717Z" transform="translate(22 828.941)"/>
    <path id="Path_1617" data-name="Path 1617" d="M10.585,6.65H9.972a.212.212,0,0,1-.241-.2c0-.127.093-.211.246-.212q.606,0,1.213,0c.149,0,.236.078.238.2s-.085.209-.244.21C10.985,6.651,10.785,6.65,10.585,6.65Z" transform="translate(22 828.941)"/>
    <path id="Path_1618" data-name="Path 1618" d="M3.308,2.729A.3.3,0,0,1,3,3.042a.307.307,0,1,1,.306-.313Z" transform="translate(22 828.941)"/>
    <path id="Path_1619" data-name="Path 1619" d="M2.061,3.043a.308.308,0,1,1,.3-.309.308.308,0,0,1-.3.309Z" transform="translate(22 828.941)"/>
    <path id="Path_1620" data-name="Path 1620" d="M4.246,2.735a.308.308,0,1,1-.311-.307.3.3,0,0,1,.311.307Z" transform="translate(22 828.941)"/>
  </g>
</svg>
