<svg id="dr.Inspiration" xmlns="http://www.w3.org/2000/svg" width="14" height="14" viewBox="0 0 14 14">
  <rect id="back" width="14" height="14" fill="none"/>
  <g id="icon" transform="translate(-22 -468.038)">
    <path id="Path_1564" data-name="Path 1564" d="M4.987,8.129a3.1,3.1,0,0,1-.041.4.65.65,0,0,1-.622.5c-.621.006-1.243.008-1.864,0a.67.67,0,0,1-.648-.656c0-.075,0-.151,0-.245H.3c-.221,0-.3-.075-.3-.3,0-.4,0-.81,0-1.214a.37.37,0,0,1,.122-.286C.653,5.8,1.18,5.273,1.713,4.748a.311.311,0,0,0,.1-.247c0-.717-.006-1.431,0-2.146a.589.589,0,0,1,.089-.3C2.31,1.423,2.729.8,3.149.172c.155-.232.324-.232.479,0,.418.626.839,1.25,1.25,1.88a.586.586,0,0,1,.089.3c.008.72.005,1.44,0,2.16a.282.282,0,0,0,.089.222c.532.528,1.059,1.058,1.591,1.584a.4.4,0,0,1,.132.311c-.006.4,0,.81,0,1.214,0,.2-.08.282-.282.282H4.987ZM3.392,2.567c-.133.136-.258.251-.366.379a.351.351,0,0,0-.084.206c0,1.157,0,2.314,0,3.47v.141h.894a.3.3,0,0,0,.008-.049V3.1a.2.2,0,0,0-.049-.122C3.669,2.846,3.539,2.716,3.392,2.567ZM1.8,7.672V5.3c-.444.445-.873.873-1.3,1.3a.137.137,0,0,0-.041.084c0,.327,0,.655,0,.987ZM4.979,5.286V7.669H6.328c0-.313,0-.617,0-.922a.3.3,0,0,0-.075-.181c-.318-.327-.641-.647-.964-.97C5.19,5.5,5.1,5.405,4.979,5.286ZM2.267,7.668H4.509V7.233H2.268Zm2.252.471H2.263c0,.075,0,.14,0,.206a.22.22,0,0,0,.228.235q.9,0,1.8,0a.22.22,0,0,0,.226-.223c0-.069,0-.139,0-.217ZM4.061,2.614c.05-.047.085-.075.117-.111.088-.091.238-.178.244-.276S4.3,2.009,4.238,1.9A.175.175,0,0,0,4.054,1.8c-.352,0-.705,0-1.056,0-.4,0-.4,0-.614.339-.008.012-.022.023-.022.035,0,.029-.008.068.008.085.109.12.223.236.339.359.177-.178.331-.336.49-.49a.234.234,0,0,1,.389,0C3.742,2.286,3.9,2.445,4.061,2.614Zm-1.79.215V6.763h.217V6.6c0-1.114-.005-2.228.005-3.342A.442.442,0,0,0,2.271,2.829ZM4.509,6.77V2.834a.431.431,0,0,0-.218.438c.009,1.114,0,2.227,0,3.341v.155ZM3.391.63l-.473.711h.948Z" transform="translate(25.609 468.04)"/>
    <path id="Path_1565" data-name="Path 1565" d="M3.843,14H3.4a1.769,1.769,0,0,1,.258-1.293,1.345,1.345,0,0,1,.374-.335.875.875,0,0,0,.095-1.515c-.22-.159-.426-.339-.648-.517l.286-.356c.29.241.591.453.848.711a1.286,1.286,0,0,1-.28,2.012.925.925,0,0,0-.49.885C3.848,13.721,3.843,13.853,3.843,14Z" transform="translate(25.609 468.04)"/>
    <path id="Path_1566" data-name="Path 1566" d="M2.548,9.1l.321.339c-.1.1-.215.2-.323.309a.787.787,0,0,0,.069,1.265c.11.089.221.175.329.266a1.228,1.228,0,0,1,.448.966v.392H2.939v-.37a.8.8,0,0,0-.324-.672c-.137-.108-.275-.214-.4-.331a1.215,1.215,0,0,1-.143-1.658C2.212,9.426,2.384,9.271,2.548,9.1Z" transform="translate(25.609 468.04)"/>
    <path id="Path_1567" data-name="Path 1567" d="M5.885,8.587H6.32V10.38H5.885Z" transform="translate(25.609 468.04)"/>
    <path id="Path_1568" data-name="Path 1568" d="M.9,8.591v.886H.465V8.591Z" transform="translate(25.609 468.04)"/>
    <path id="Path_1569" data-name="Path 1569" d="M.9,10.386H.465V9.947H.9Z" transform="translate(25.609 468.04)"/>
    <path id="Path_1570" data-name="Path 1570" d="M6.317,11.289h-.43V10.85h.43Z" transform="translate(25.609 468.04)"/>
  </g>
</svg>
