<svg id="dr.language" xmlns="http://www.w3.org/2000/svg" width="14" height="14" viewBox="0 0 14 14">
  <rect id="back" width="14" height="14" transform="translate(0)" fill="none"/>
  <g id="icon" transform="translate(-22 -783.038)">
    <path id="Path_1610" data-name="Path 1610" d="M11.978,13.992c-.5-.4-1.007-.8-1.491-1.216a1.024,1.024,0,0,0-.746-.266c-1.125.017-2.25.007-3.375.007A1.151,1.151,0,0,1,5.145,11.29V8.98c-.133.012-.253.026-.373.033A4.508,4.508,0,0,1,1.9,8.182a.237.237,0,0,0-.224-.044c-.332.094-.669.175-1,.264A.279.279,0,0,1,.336,8c.13-.285.257-.573.392-.856a.193.193,0,0,0-.013-.21,4.457,4.457,0,0,1-.18-4.54.983.983,0,0,1,.106-.175.263.263,0,0,1,.344-.063.267.267,0,0,1,.117.33.61.61,0,0,1-.034.074A3.912,3.912,0,0,0,1.288,6.8a.332.332,0,0,1,.03.357c-.086.18-.166.363-.262.574.216-.056.409-.1.6-.157a.49.49,0,0,1,.49.1A3.961,3.961,0,1,0,5.047.581a3.907,3.907,0,0,0-2.441.453.487.487,0,0,1-.227.07A.241.241,0,0,1,2.14.9.268.268,0,0,1,2.288.589,4.422,4.422,0,0,1,3.425.134,4.512,4.512,0,0,1,8.934,3.6a4.676,4.676,0,0,1,.084.65c.014.216,0,.435,0,.668h3.712a1.154,1.154,0,0,1,1.253.961A.093.093,0,0,0,14,5.9v5.629a.141.141,0,0,0-.02.035,1.147,1.147,0,0,1-1.205.949h-.442c0,.379-.007.742,0,1.1a.364.364,0,0,1-.195.371Zm-.191-.851v-.864a.275.275,0,0,1,.3-.307c.232,0,.465,0,.7,0a.608.608,0,0,0,.667-.671V6.133a.607.607,0,0,0-.669-.668H8.936A4.585,4.585,0,0,1,5.691,8.876V11.3a.609.609,0,0,0,.677.675h3.8a.489.489,0,0,1,.335.121C10.918,12.434,11.339,12.775,11.786,13.14Z" transform="translate(22 783.042)"/>
    <path id="Path_1611" data-name="Path 1611" d="M4.773,3.744c.418,0,.812,0,1.21,0a.274.274,0,0,1,.277.394.277.277,0,0,1-.269.152c-.337,0-.674,0-1.011,0H4.813c.007.057.008.1.019.15a2.551,2.551,0,0,0,1.228,1.7c.117.07.209.152.195.3a.274.274,0,0,1-.432.2A3.085,3.085,0,0,1,4.708,5.57c-.072-.115-.135-.237-.21-.371l-.067.13A3.109,3.109,0,0,1,3.171,6.636a.274.274,0,0,1-.359-.046A.26.26,0,0,1,2.8,6.251a.585.585,0,0,1,.149-.115,2.574,2.574,0,0,0,1.221-1.7c.01-.043.014-.087.023-.144-.323,0-.632,0-.941,0A.27.27,0,0,1,3,3.891a.284.284,0,0,1,.273-.146h.942c0-.055.007-.1.007-.15,0-.319,0-.638,0-.956a.273.273,0,1,1,.543,0v.942Z" transform="translate(22 783.042)"/>
    <path id="Path_1612" data-name="Path 1612" d="M1.517,1.781a.27.27,0,0,1-.268-.27.275.275,0,0,1,.269-.271.269.269,0,0,1,.272.279.264.264,0,0,1-.273.262Z" transform="translate(22 783.042)"/>
    <path id="Path_1613" data-name="Path 1613" d="M8.209,9.532a.283.283,0,0,1-.142-.316.245.245,0,0,1,.254-.2c.1,0,.14-.048.176-.13.262-.6.529-1.207.791-1.812.057-.13.13-.235.284-.235s.227.106.283.236q.4.913.8,1.822c.02.045.072.1.113.108.139.012.254.049.3.19a.285.285,0,0,1-.135.342l.313.717a.273.273,0,0,1-.049.328.27.27,0,0,1-.447-.1c-.123-.269-.242-.539-.355-.812a.156.156,0,0,0-.171-.114q-.655.007-1.311,0a.159.159,0,0,0-.17.115c-.109.265-.227.526-.344.787a.274.274,0,1,1-.5-.216C8,10,8.1,9.77,8.209,9.532ZM9.572,7.787,9.043,8.994H10.1Z" transform="translate(22 783.042)"/>
  </g>
</svg>
