<svg id="dr.logout" xmlns="http://www.w3.org/2000/svg" width="14" height="14" viewBox="0 0 14 14">
  <rect id="back" width="14" height="14" fill="none"/>
  <g id="icon" transform="translate(0 0.002)">
    <path id="Path_1629" data-name="Path 1629" d="M3.253,13.995c-.849-.337-1.7-.671-2.548-1.011a.984.984,0,0,1-.658-.694A1.9,1.9,0,0,1,0,11.87Q0,6.995,0,2.12A1.051,1.051,0,0,1,.765.977Q1.89.518,3.02.073A.813.813,0,0,1,4.185.811c.01.113.015.227.015.341q0,5.887,0,11.773a1.818,1.818,0,0,1-.061.5A.8.8,0,0,1,3.5,14Zm.479-7V1.088A2.587,2.587,0,0,0,3.718.814a.34.34,0,0,0-.5-.319C2.424.81,1.633,1.134.84,1.454A.558.558,0,0,0,.468,2c0,.064,0,.127,0,.191v9.6c0,.073,0,.146,0,.219a.536.536,0,0,0,.359.514c.135.053.267.116.4.171q.981.394,1.964.785a.346.346,0,0,0,.525-.323c.009-.086.014-.171.014-.259Q3.735,9.945,3.733,6.993Z"/>
    <path id="Path_1630" data-name="Path 1630" d="M14,7.048a1.843,1.843,0,0,1-.142.181q-1.09,1.1-2.183,2.186a.822.822,0,0,1-.1.091.229.229,0,0,1-.316-.327.849.849,0,0,1,.093-.1l1.72-1.721c.034-.034.068-.071.129-.135H5.508a.978.978,0,0,1-.19-.011A.225.225,0,0,1,5.3,6.776a.845.845,0,0,1,.216-.02h7.678c-.057-.061-.089-.1-.123-.13L11.35,4.906a.906.906,0,0,1-.1-.111.226.226,0,0,1,.023-.3.218.218,0,0,1,.3-.02.822.822,0,0,1,.1.091l2.184,2.185c.051.051.1.107.144.16Z"/>
    <path id="Path_1631" data-name="Path 1631" d="M9.331,3.78V5.488a.629.629,0,0,1-.012.163.211.211,0,0,1-.205.167.205.205,0,0,1-.223-.145.639.639,0,0,1-.024-.2c0-1.089-.013-2.178,0-3.267a.76.76,0,0,0-.818-.822c-1.02.015-2.041,0-3.062,0a.876.876,0,0,1-.15-.005.216.216,0,0,1-.2-.211.222.222,0,0,1,.179-.24.536.536,0,0,1,.122-.01c1.057,0,2.114,0,3.171,0A1.158,1.158,0,0,1,9.292,1.8a1.488,1.488,0,0,1,.039.379C9.334,2.713,9.331,3.246,9.331,3.78Z"/>
    <path id="Path_1632" data-name="Path 1632" d="M9.331,10.216c0,.542,0,1.084,0,1.626a1.161,1.161,0,0,1-1.2,1.216c-1.057.009-2.114,0-3.17,0-.187,0-.291-.088-.29-.235s.1-.228.264-.229c.428,0,.856,0,1.285,0,.616,0,1.23-.009,1.845,0a.747.747,0,0,0,.8-.805c-.015-1.093-.005-2.187,0-3.28a.781.781,0,0,1,.013-.163.212.212,0,0,1,.233-.184.217.217,0,0,1,.215.205,1.13,1.13,0,0,1,0,.137Q9.332,9.362,9.331,10.216Z"/>
    <path id="Path_1633" data-name="Path 1633" d="M3.263,7c0,.232,0,.464,0,.7a.2.2,0,0,1-.157.212.338.338,0,0,1-.224-.049A.243.243,0,0,1,2.8,7.677q-.01-.682,0-1.365a.228.228,0,0,1,.232-.25c.137,0,.227.1.231.264,0,.223,0,.445,0,.669Z"/>
  </g>
</svg>
