<svg id="dr.reminders" xmlns="http://www.w3.org/2000/svg" width="14" height="14" viewBox="0 0 14 14">
  <rect id="back" width="14" height="14" fill="none"/>
  <g id="icon" transform="translate(-22 -648.038)">
    <path id="Path_1594" data-name="Path 1594" d="M6.265,14a4.282,4.282,0,0,1-.5-.156,1.6,1.6,0,0,1-.911-1.014c-.041-.131-.1-.151-.219-.151q-1.7.006-3.4,0A1.187,1.187,0,0,1,1.134,10.3h.184v-.168c0-1.248-.021-2.5,0-3.745A4.931,4.931,0,0,1,4.39,1.723a4.168,4.168,0,0,1,.526-.188.117.117,0,0,0,.1-.132A2.523,2.523,0,0,1,5.043.954a1.185,1.185,0,0,1,2.346.183c.012.293.013.289.3.37a4.93,4.93,0,0,1,2.4,1.511.184.184,0,0,0,.229.067A2.581,2.581,0,1,1,11.5,8.1c-.045.007-.089.017-.14.028v2.168c.112.009.221.008.326.027a1.188,1.188,0,0,1-.219,2.359q-1.572.007-3.143,0a.2.2,0,0,0-.237.164,1.658,1.658,0,0,1-1.348,1.137A.378.378,0,0,0,6.674,14ZM9.685,3.364c-.02-.024-.039-.049-.06-.071a4.461,4.461,0,0,0-5.787-.678A4.336,4.336,0,0,0,1.86,6.161c-.036.832-.012,1.667-.013,2.5v1.777c0,.323-.067.388-.395.388-.1,0-.2,0-.3,0a.664.664,0,0,0-.619.574.655.655,0,0,0,.416.7.978.978,0,0,0,.32.046q5.07,0,10.14,0c.036,0,.073,0,.109,0a.65.65,0,0,0,.625-.663.657.657,0,0,0-.64-.652c-.114,0-.228,0-.342,0-.249,0-.335-.087-.335-.338V8.134A2.548,2.548,0,0,1,8.6,6.2,2.532,2.532,0,0,1,9.685,3.364Zm1.4.127a2.055,2.055,0,1,0,2.063,2.053A2.055,2.055,0,0,0,11.087,3.49ZM5.373,12.683a1.158,1.158,0,0,0,2.193,0ZM6.855,1.35A.69.69,0,0,0,6.508.6a.663.663,0,0,0-.946.747Z" transform="translate(22.164 648.038)"/>
    <path id="Path_1595" data-name="Path 1595" d="M4.264,10.826c-.447,0-.893,0-1.339,0a.254.254,0,0,1-.244-.382.331.331,0,0,1,.23-.135c.906-.009,1.812-.007,2.719,0a.255.255,0,0,1,.267.267.262.262,0,0,1-.28.255C5.164,10.827,4.713,10.826,4.264,10.826Z" transform="translate(22.164 648.038)"/>
    <path id="Path_1596" data-name="Path 1596" d="M6.864,10.825c-.091,0-.182,0-.273,0a.254.254,0,0,1-.249-.269.249.249,0,0,1,.252-.252c.182-.006.365-.006.546,0a.249.249,0,0,1,.249.254.255.255,0,0,1-.252.267C7.046,10.829,6.955,10.825,6.864,10.825Z" transform="translate(22.164 648.038)"/>
    <path id="Path_1597" data-name="Path 1597" d="M11.352,5.043v.1c-.011.633.083.425-.375.894q-.186.191-.377.376a.273.273,0,0,1-.4.031.268.268,0,0,1,.03-.408c.166-.169.332-.338.5-.5a.275.275,0,0,0,.1-.225c-.007-.246,0-.491,0-.737a.269.269,0,0,1,.268-.3.265.265,0,0,1,.256.294C11.354,4.726,11.352,4.884,11.352,5.043Z" transform="translate(22.164 648.038)"/>
  </g>
</svg>
