<svg id="dr.share" xmlns="http://www.w3.org/2000/svg" width="14" height="14" viewBox="0 0 14 14">
  <rect id="back" width="14" height="14" transform="translate(0)" fill="none"/>
  <g id="icon" transform="translate(-22 -738.038)">
    <path id="Path_1607" data-name="Path 1607" d="M9.953,13.992c-.267-.055-.54-.09-.8-.17a3.692,3.692,0,0,1-2.616-3.589A8.713,8.713,0,0,1,6.681,9.2c.006-.045,0-.121-.024-.135-.311-.169-.627-.329-.936-.49-.14.176-.26.355-.408.507a2.939,2.939,0,0,1-3.146.836A2.93,2.93,0,0,1,.043,7.459a3.059,3.059,0,0,1,2.634-3.5A2.992,2.992,0,0,1,4.689,4.4a.134.134,0,0,0,.188-.012c.305-.251.616-.5.924-.741a2.376,2.376,0,1,1,3.642.447,2.384,2.384,0,0,1-3.291-.025l-.929.741c.073.082.141.153.2.23a3.021,3.021,0,0,1,.559,2.9c-.031.1-.02.15.078.2.286.139.566.29.857.438.021-.034.041-.063.058-.093a3.619,3.619,0,0,1,3.584-1.936A3.59,3.59,0,0,1,13.7,8.8a.279.279,0,0,1-.116.406c-.15.068-.3,0-.386-.195a3.188,3.188,0,1,0-5.429,3.234c.053.068.113.13.186.215a1.645,1.645,0,0,1,1.089-1.022,1.735,1.735,0,0,1-.5-1.479,1.685,1.685,0,0,1,.621-1.1,1.724,1.724,0,0,1,2.294.092,1.751,1.751,0,0,1,.026,2.491,1.634,1.634,0,0,1,1.077,1.019,3.019,3.019,0,0,0,.584-.845c.039-.082.071-.167.107-.251a.272.272,0,0,1,.365-.185.275.275,0,0,1,.139.388,3.687,3.687,0,0,1-1.369,1.763,3.606,3.606,0,0,1-1.72.643.629.629,0,0,0-.091.024Zm-4.367-7a2.513,2.513,0,1,0-.733,1.783A2.519,2.519,0,0,0,5.586,6.99ZM9.635,2.369A1.823,1.823,0,1,0,7.813,4.191,1.823,1.823,0,0,0,9.635,2.369Zm-.557,7.82a1.187,1.187,0,1,0,1.187-1.176,1.187,1.187,0,0,0-1.187,1.176Zm1.2,1.749h0c-.309,0-.621-.014-.928,0a1.025,1.025,0,0,0-.9.811.15.15,0,0,0,.076.178,3.212,3.212,0,0,0,3.482,0,.149.149,0,0,0,.073-.183,1.027,1.027,0,0,0-.93-.81c-.291-.014-.582,0-.873,0Z" transform="translate(22 738.042)"/>
    <path id="Path_1608" data-name="Path 1608" d="M14,10.275l-.054.076a.267.267,0,0,1-.4.041.271.271,0,1,1,.407-.357c.019.025.037.051.053.076Z" transform="translate(22 738.042)"/>
    <path id="Path_1609" data-name="Path 1609" d="M3.067,8.728A1.734,1.734,0,1,1,4.806,7,1.734,1.734,0,0,1,3.067,8.728Zm.007-.548A1.186,1.186,0,1,0,1.886,7.01,1.186,1.186,0,0,0,3.074,8.18Z" transform="translate(22 738.042)"/>
  </g>
</svg>
