<svg id="fav" xmlns="http://www.w3.org/2000/svg" width="26" height="26" viewBox="0 0 26 26">
  <rect id="back" width="26" height="26" fill="none"/>
  <g id="fav-2" data-name="fav" transform="translate(-622.963 -172.577)" fill="none" stroke-linecap="round" stroke-linejoin="round">
    <path d="M644.778,180.355c-2.915-5.381-8.691-1.287-8.691-1.287s-5.777-4.094-8.692,1.287c-2.773,5.12,8.692,13.237,8.692,13.237S647.552,185.475,644.778,180.355Z" stroke="none"/>
    <path d="M 631.67529296875 179.5770111083984 C 630.9380493164062 179.5770111083984 629.9851684570312 179.7736968994141 629.1544189453125 181.3074188232422 C 629.0374145507812 181.5234375 628.681396484375 182.1808013916016 629.3912963867188 183.7267150878906 C 629.89990234375 184.8341979980469 630.818359375 186.0981903076172 632.1212768554688 187.4835815429688 C 633.5242309570312 188.975341796875 635.06640625 190.2732086181641 636.0881958007812 191.0817108154297 C 637.0991821289062 190.2820434570312 638.6201782226562 189.0021362304688 640.0184936523438 187.5206604003906 C 641.3326416015625 186.1283874511719 642.260009765625 184.8577423095703 642.7750244140625 183.7440032958984 C 643.4954223632812 182.1858673095703 643.1373291015625 181.5247039794922 643.0197143554688 181.3075103759766 C 642.18896484375 179.7737884521484 641.236328125 179.5770568847656 640.4989624023438 179.5770111083984 C 639.1588745117188 179.5770111083984 637.6981201171875 180.3855133056641 637.2413940429688 180.7014312744141 C 636.5435180664062 181.2042541503906 635.6322021484375 181.204345703125 634.9342041015625 180.7016143798828 C 634.4771118164062 180.3855895996094 633.0156860351562 179.5770111083984 631.67529296875 179.5770111083984 M 631.67529296875 177.5770111083984 C 633.9840087890625 177.5770111083984 636.087646484375 179.0677185058594 636.087646484375 179.0677185058594 C 636.0877075195312 179.0677185058594 641.863525390625 174.9736633300781 644.7783203125 180.3549652099609 C 647.551513671875 185.4753875732422 636.087646484375 193.5916442871094 636.087646484375 193.5916442871094 C 636.087646484375 193.5916442871094 624.6226196289062 185.4753875732422 627.395751953125 180.3549652099609 C 628.5518798828125 178.2207183837891 630.1577758789062 177.5770111083984 631.67529296875 177.5770111083984 Z" stroke="none" fill="#fff"/>
  </g>
</svg>
