<svg id="home-icon" xmlns="http://www.w3.org/2000/svg" width="24" height="24" viewBox="0 0 24 24">
  <rect id="background" width="24" height="24" fill="none" opacity="0.24"/>
  <g id="icon" transform="translate(5 3)">
    <path id="head" d="M16.005,149.571a2.392,2.392,0,1,1,2.392-2.392A2.394,2.394,0,0,1,16.005,149.571Zm0-3.68a1.288,1.288,0,1,0,1.288,1.288A1.289,1.289,0,0,0,16.005,145.891Z" transform="translate(-8.727 -144.787)" fill="#fff"/>
    <path id="hand" d="M22.929,157.65a2.233,2.233,0,0,1-1.205.4,1.759,1.759,0,0,1-.718-.147c-.616-.267-1.426-1.021-1.766-3.045-.488-2.926-1.3-3.192-3.505-3.192s-3.018.267-3.505,3.183c-.331,2.033-1.15,2.788-1.766,3.054a1.747,1.747,0,0,1-.708.147,2.185,2.185,0,0,1-1.205-.4.551.551,0,0,1,.607-.92.9.9,0,0,0,.865.156c.506-.221.929-1.049,1.122-2.217.58-3.514,1.886-4.112,4.591-4.112s4.011.6,4.591,4.112c.193,1.168.616,2,1.122,2.217a.889.889,0,0,0,.865-.156.554.554,0,0,1,.616.92Z" transform="translate(-8.302 -145.249)" fill="#fff"/>
    <path id="leg" d="M11.538,163.171a2.559,2.559,0,0,1-1.493-.4,2.2,2.2,0,0,1-.867-1.941c0-1.395,1.317-2.115,2.478-2.752.771-.421,1.569-.857,1.569-1.3v-2.432a.552.552,0,1,1,1.1,0v2.432c0,1.093-1.088,1.689-2.142,2.265-.937.512-1.905,1.042-1.905,1.783,0,.763.294.966.392,1.033.313.216,1.165.454,3.355-.372a.552.552,0,1,1,.39,1.033A8.52,8.52,0,0,1,11.538,163.171Z" transform="translate(-8.372 -145.508)" fill="#fff"/>
    <path id="leg-2" data-name="leg" d="M22.746,160.826a2.177,2.177,0,0,1-.929,1.987,2.706,2.706,0,0,1-1.426.35,11.232,11.232,0,0,1-4.444-1.316.171.171,0,0,1-.064-.018c-1.38-.662-2.438-1.316-2.484-1.343a.541.541,0,0,1-.175-.754.551.551,0,0,1,.754-.184,26.435,26.435,0,0,0,2.374,1.279h.009c.009,0,.009.009.018.009,2.355,1.122,4.122,1.5,4.839,1.04.11-.064.423-.258.423-1.049,0-.626-.644-.994-1.72-1.527-1.086-.552-2.328-1.168-2.328-2.521v-2.429a.552.552,0,0,1,1.1,0v2.429c0,.626.653.994,1.72,1.527C21.513,158.857,22.746,159.473,22.746,160.826Z" transform="translate(-8.689 -145.508)" fill="#fff"/>
  </g>
</svg>
