<svg id="mail_verification" xmlns="http://www.w3.org/2000/svg" width="44" height="44" viewBox="0 0 44 44">
  <rect id="back" width="44" height="44" transform="translate(0 0)" fill="none"/>
  <g id="mail_icon" transform="translate(982.209 -639.984)">
    <path id="Path_1546" data-name="Path 1546" d="M-960.225,683.966H-978.2a3.775,3.775,0,0,1-4-4.009c0-5.41,0-10.82-.008-16.231a1.314,1.314,0,0,1,.687-1.246c1.818-1.109,3.617-2.248,5.435-3.357a.755.755,0,0,0,.406-.746q-.017-7.735-.008-15.471a2.677,2.677,0,0,1,2.923-2.914q10.128,0,20.255-.008a1.743,1.743,0,0,1,1.207.438q2.955,2.459,5.962,4.854a1.3,1.3,0,0,1,.518,1.14c0,3.711,0,7.422-.01,11.133a.685.685,0,0,0,.421.721c1.864.963,3.711,1.961,5.57,2.936a1.072,1.072,0,0,1,.622,1.041q0,8.875,0,17.751a3.947,3.947,0,0,1-4.03,3.985C-948.242,683.93-954.234,683.966-960.225,683.966Zm7.253-42.129h-19.761c-.892,0-1.13.241-1.13,1.149q0,11.647-.009,23.294a.712.712,0,0,0,.4.7q6.336,3.808,12.655,7.643a.936.936,0,0,0,1.144-.026q6.362-4.271,12.741-8.516a.758.758,0,0,0,.38-.725q-.016-8.9-.008-17.795v-.521H-951.7c-1.055,0-1.271-.219-1.271-1.292C-952.973,644.473-952.973,643.193-952.973,641.838Zm11.834,40.135-.012-.149c-.059-.042-.116-.088-.178-.125q-6.607-4.01-13.211-8.026a.431.431,0,0,0-.551.034c-1.169.8-2.338,1.595-3.519,2.375a2.733,2.733,0,0,1-3.184.07c-1.151-.714-2.332-1.38-3.492-2.08a.515.515,0,0,0-.636,0q-6.044,3.9-12.1,7.786c-.091.059-.171.133-.332.26h.631l29.157-.006c2.1,0,4.2,0,6.305-.018A10.5,10.5,0,0,0-941.138,681.972Zm-12.019-9.552,13.056,7.942V663.748Zm-14.187.269-13.011-7.755v7.609c0,2.459,0,4.917.006,7.376a10.85,10.85,0,0,0,.129,1.139Zm22.539-8.066,3.827-2.553-3.827-1.911Zm-34.638-1.271,3.735,2.185v-4.459Zm31.063-18.131.041-.107-2.808-2.28c0,.806-.007,1.5.01,2.188,0,.068.147.188.227.19C-950.066,645.227-949.223,645.221-948.38,645.221Z"/>
    <path id="Path_1547" data-name="Path 1547" d="M-891.544,655.5c0,1.355,0,2.635,0,3.915,0,1.072.216,1.292,1.271,1.292h5.141v.521q0,8.9.008,17.795a.758.758,0,0,1-.38.725q-6.379,4.246-12.741,8.516a.936.936,0,0,1-1.144.026q-6.318-3.838-12.655-7.643a.712.712,0,0,1-.4-.7q.016-11.647.009-23.294c0-.908.238-1.149,1.13-1.149h19.761Zm1.452,15.2a8.744,8.744,0,0,0-8.707-8.708,8.744,8.744,0,0,0-8.676,8.695,8.746,8.746,0,0,0,8.707,8.708A8.747,8.747,0,0,0-890.092,670.7Z" transform="translate(-61.429 -13.658)" fill="#537396"/>
    <path id="Path_1548" data-name="Path 1548" d="M-912.721,929.584a10.5,10.5,0,0,1-1.121.125c-2.1.016-4.2.017-6.305.018l-29.157.006h-.631c.161-.126.241-.2.332-.26q6.051-3.891,12.1-7.786a.515.515,0,0,1,.636,0c1.16.7,2.341,1.366,3.492,2.08a2.733,2.733,0,0,0,3.184-.07c1.181-.78,2.349-1.578,3.519-2.375a.431.431,0,0,1,.551-.034q6.6,4.023,13.211,8.026c.062.038.119.083.178.125Z" transform="translate(-28.418 -247.612)" fill="#537396"/>
    <path id="Path_1549" data-name="Path 1549" d="M-739.086,847.529l13.056-8.672v16.614Z" transform="translate(-214.071 -175.109)" fill="#c6def0"/>
    <path id="Path_1550" data-name="Path 1550" d="M-953.691,856.536l-12.876,8.369a10.852,10.852,0,0,1-.129-1.139c-.01-2.459-.006-4.917-.006-7.376v-7.609Z" transform="translate(-13.653 -183.847)" fill="#c6def0"/>
    <path id="Path_1551" data-name="Path 1551" d="M-669.191,813.283v-4.464l3.827,1.911Z" transform="translate(-275.614 -148.66)" fill="#33e4ba"/>
    <path id="Path_1552" data-name="Path 1552" d="M-959.062,818.788l3.735-2.274v4.459Z" transform="translate(-20.381 -155.436)" fill="#33e4ba"/>
    <path id="Path_1553" data-name="Path 1553" d="M-719.5,666.226c-.843,0-1.687.005-2.53-.009-.08,0-.225-.122-.227-.19-.017-.691-.01-1.383-.01-2.188l2.808,2.28Z" transform="translate(-228.876 -21.005)" fill="#c6def0"/>
    <path id="Path_1554" data-name="Path 1554" d="M-853.483,718.546a8.747,8.747,0,0,1-8.677,8.7,8.746,8.746,0,0,1-8.707-8.708,8.744,8.744,0,0,1,8.676-8.695A8.744,8.744,0,0,1-853.483,718.546Zm-8.7,6.857a6.926,6.926,0,0,0,6.884-6.844,6.923,6.923,0,0,0-6.842-6.884,6.922,6.922,0,0,0-6.907,6.864A6.927,6.927,0,0,0-862.185,725.4Z" transform="translate(-98.037 -61.507)"/>
    <path id="Path_1555" data-name="Path 1555" d="M-848.794,738.947a6.927,6.927,0,0,1-6.865-6.864,6.922,6.922,0,0,1,6.907-6.864,6.922,6.922,0,0,1,6.842,6.884A6.926,6.926,0,0,1-848.794,738.947Zm-1.087-6.043c-.48-.507-.917-.975-1.361-1.436a.907.907,0,0,0-1.374-.126.9.9,0,0,0,.072,1.376c.613.651,1.234,1.294,1.855,1.938a.952.952,0,0,0,1.6.026q2.03-1.984,4.056-3.972a2.411,2.411,0,0,0,.271-.3.863.863,0,0,0-.1-1.174.856.856,0,0,0-1.14-.093,3.572,3.572,0,0,0-.4.359C-847.549,730.629-848.7,731.752-849.881,732.9Z" transform="translate(-111.428 -75.051)" fill="#33e4ba"/>
    <path id="Path_1556" data-name="Path 1556" d="M-829.558,760.561c1.182-1.153,2.332-2.276,3.484-3.4a3.567,3.567,0,0,1,.4-.359.856.856,0,0,1,1.14.093.863.863,0,0,1,.1,1.174,2.41,2.41,0,0,1-.271.3q-2.027,1.987-4.056,3.972a.952.952,0,0,1-1.6-.026c-.621-.643-1.241-1.287-1.855-1.937a.9.9,0,0,1-.072-1.376.907.907,0,0,1,1.374.126C-830.475,759.585-830.038,760.053-829.558,760.561Z" transform="translate(-131.751 -102.707)"/>
  </g>
</svg>
