<svg xmlns="http://www.w3.org/2000/svg" width="192" height="192" viewBox="0 0 192 192">
  <defs>
    <linearGradient id="linear-gradient" x1="0.5" x2="0.5" y2="0.672" gradientUnits="objectBoundingBox">
      <stop offset="0" stop-color="#3b9aac"/>
      <stop offset="0.5" stop-color="#427996"/>
      <stop offset="1" stop-color="#485871"/>
    </linearGradient>
    <linearGradient id="linear-gradient-2" x1="0.443" y1="0.754" x2="0.585" y2="0.168" gradientUnits="objectBoundingBox">
      <stop offset="0" stop-color="#fff"/>
      <stop offset="1" stop-color="#fff"/>
    </linearGradient>
    <clipPath id="clip-logo_ic">
      <rect width="192" height="192"/>
    </clipPath>
  </defs>
  <g id="logo_ic" data-name="logo ic" clip-path="url(#clip-logo_ic)">
    <rect width="192" height="192" fill="url(#linear-gradient)"/>
    <g id="Group_521" data-name="Group 521" transform="translate(25.342 36.428)">
      <g id="Group_520" data-name="Group 520" transform="translate(0.001 0)">
        <path id="Path_1494" data-name="Path 1494" d="M519.83,497.44a2.8,2.8,0,0,1-.54-1.419,3.04,3.04,0,0,1,1.5-2.321,9.272,9.272,0,0,1-.075,2.331A5.572,5.572,0,0,1,519.83,497.44Z" transform="translate(-409.804 -397.447)" fill-rule="evenodd" fill="url(#linear-gradient-2)"/>
        <path id="Path_1495" data-name="Path 1495" d="M500.079,492.8a.012.012,0,0,1-.01,0c-.55.238-1.094.338-1.738.6-1.012.413-3.271,1.794-4.684.742a3.161,3.161,0,0,1-.664-.394s0,0,0,0c.247-.046.491-.091.736-.134.264-.045.531-.091.794-.133l.8-.127c.4-.059.794-.117,1.191-.169.485-.065.97-.124,1.455-.179.264-.029.527-.055.791-.081.068-.01.137-.016.205-.023C499.327,492.862,499.705,492.829,500.079,492.8Z" transform="translate(-392.059 -396.84)" fill-rule="evenodd" fill="url(#linear-gradient-2)"/>
        <path id="Path_1496" data-name="Path 1496" d="M529.015,501.412c-11.11,18.609-28.931,15.885-42.5,8.76a4.089,4.089,0,0,0,1.92-.579,5.051,5.051,0,0,0,.417-.352,11.634,11.634,0,0,0,3.359-5.182c.156-.456.273-.85.358-1.191.635-2.513-.41-2.324-.472-3.857,1.829.153,3.379,1.807,4.45,1.208.931-.521.462-.173,1.406-.524l1.442-.612c.479-.221.918-.4,1.354-.57,2.246-.833,1.546-.625,2.62-.4.7.146,1.312-2.347-3.187-1.292.355-1.432.456.4.205-2.708-.052-.622-.133-1.237-.173-1.9v0h.329c.56,0,1.123.01,1.68.023.257.01.514.016.772.026a.31.31,0,0,0,.078,0c.267.013.531.029.794.042.547.029,1.094.068,1.637.12l.817.078c.407.046.814.091,1.217.143s.811.111,1.211.173c.27.042.537.085.8.13q.806.132,1.6.3c.267.055.531.111.794.169q.8.176,1.582.384s0,0,0,0A41.97,41.97,0,0,1,529.015,501.412Z" transform="translate(-387.701 -396.435)" fill-rule="evenodd" fill="url(#linear-gradient-2)"/>
        <path id="Path_1497" data-name="Path 1497" d="M372.968,243.288q0,.381-.01.762,0,.3-.02.605c-.007.208-.016.42-.029.628-.007.163-.02.322-.033.485s-.023.339-.036.508c0,.029-.006.062-.01.091-.02.244-.046.488-.072.729-.055.508-.12,1.012-.2,1.517-.039.251-.078.5-.12.755-.052.309-.111.622-.173.934-.036.192-.075.384-.117.579-.052.251-.107.5-.166.755s-.117.5-.179.755l-.176.684c-.01.036-.02.072-.029.111-.065.241-.134.479-.2.719s-.143.5-.218.749a.155.155,0,0,0-.01.029c-.075.244-.15.491-.231.736s-.163.508-.251.765-.173.5-.264.758-.182.511-.277.768-.192.508-.29.765v0c-.173.443-.348.889-.534,1.338-.029.072-.059.143-.091.218-.1.251-.212.5-.319.752s-.221.518-.339.775q-.513,1.167-1.084,2.347c-.127.264-.254.527-.384.791,0,.007-.006.013-.01.023-.13-.488-.283-.977-.462-1.481a7.873,7.873,0,0,0-.885-2,3.742,3.742,0,0,0-.667-.765,1.994,1.994,0,0,0-.368-.283c-.055-.039-.16-.1-.234-.153l-.153-.107-5.876-1.709h0l-5.667-1.647c-.1-5.143-.127-2.1.557-4.769a10.507,10.507,0,0,1,.293-1.484c.335-.462.726-.007,1.035-.755a15.506,15.506,0,0,0,.745-2.812,2.339,2.339,0,0,0,.247-1.4c-.361-.169-.251-.127-.775-.127-.072-3.769.856-5.224-1.081-8.108a7.4,7.4,0,0,0-2.558-2.259,6.3,6.3,0,0,0-3.922-.726,5.851,5.851,0,0,0-5.387,3.955c-.667,1.65-.433,2.109-.537,4.17l.062,2.073c.029,1.751-.648.348-.781,1.354a.508.508,0,0,0-.016.075l.342,1.25c.088.293.078.374.159.758.052.231.15.475.221.7.176.521.124,1.165.488,1.478.618.527.54-.12.8,1.025.664,2.978.794.205.937,4.837.026.791.176,1.156-.371,1.409l-1.455.469c-1.631.635-2.881,1.136-4.293,1.618a.01.01,0,0,0-.007,0c-.768.26-1.589.518-2.539.784a6.405,6.405,0,0,0-2.585,1.123l-1.338,1.735a8.231,8.231,0,0,0-.967,1.963,15.943,15.943,0,0,0-.413,2.246.6.6,0,0,1-.033-.065c-.14-.27-.28-.537-.417-.8s-.273-.534-.407-.8-.264-.531-.394-.794-.257-.527-.384-.791q-.571-1.182-1.084-2.347c-.117-.257-.228-.517-.339-.775s-.215-.5-.319-.752c-.033-.075-.062-.146-.091-.218-.182-.446-.361-.892-.534-1.338v0c-.1-.257-.2-.511-.29-.765s-.189-.514-.277-.768-.179-.5-.264-.758-.172-.511-.251-.765-.156-.491-.231-.736l-.01-.029c-.075-.251-.15-.5-.218-.749s-.137-.479-.2-.719c-.01-.039-.02-.075-.029-.111l-.176-.684c-.062-.251-.12-.5-.179-.755s-.114-.5-.166-.755c-.042-.2-.081-.387-.117-.579-.062-.312-.12-.625-.172-.934-.042-.251-.081-.5-.12-.755-.075-.5-.14-1.009-.2-1.517-.026-.241-.052-.485-.072-.729a.839.839,0,0,1-.007-.091q-.024-.254-.039-.508c-.013-.163-.026-.322-.033-.485-.013-.208-.023-.42-.029-.628s-.016-.4-.02-.605q-.01-.381-.01-.762c0-.312,0-.628.013-.941.007-.225.013-.446.026-.671v-.055c.013-.238.026-.479.042-.719.007-.068.01-.137.016-.205.016-.238.039-.475.062-.713.023-.257.052-.511.081-.765,0-.042.01-.081.013-.124.065-.531.143-1.061.231-1.6,0-.016.007-.036.01-.055.039-.228.081-.456.124-.684.007-.046.016-.094.026-.14,2.09-10.843,9.443-22.861,24.57-38.618,15.127,15.758,22.48,27.776,24.57,38.618.01.046.02.094.026.14.042.228.085.456.124.684,0,.02.007.039.01.055.088.537.166,1.068.231,1.6,0,.042.01.081.013.124.029.254.059.508.081.765.023.238.046.475.062.713.006.068.01.137.016.205.016.241.029.482.042.719v.055c.013.225.02.446.026.671C372.965,242.66,372.968,242.976,372.968,243.288Z" transform="translate(-277.099 -198)" fill-rule="evenodd" fill="url(#linear-gradient-2)"/>
        <path id="Path_1498" data-name="Path 1498" d="M451.838,474.6a86.189,86.189,0,0,0-8.274,2.809,23.8,23.8,0,0,1-.732-3.03c-.055-.729-.2-1.67-.283-2.34-.094-.723-.055-1.8-.072-2.562-.016-1-.153-1.624-.179-2.448,0-.072,0-.14-.007-.208v0c-.042-1.728.078-3.063.042-4.824.452.325.436.726.56,1.4.091.482.257,1.022.374,1.462.16.6.3,1.12.443,1.647h0c.1.4.215.8.332,1.243a5.506,5.506,0,0,0,.466,1.364,11.637,11.637,0,0,0,2.812,2.656A24.328,24.328,0,0,0,451.838,474.6Z" transform="translate(-357.863 -376.059)" fill-rule="evenodd" fill="url(#linear-gradient-2)"/>
        <path id="Path_1499" data-name="Path 1499" d="M519.83,497.44a2.8,2.8,0,0,1-.54-1.419,3.04,3.04,0,0,1,1.5-2.321,9.272,9.272,0,0,1-.075,2.331A5.572,5.572,0,0,1,519.83,497.44Z" transform="translate(-409.804 -397.447)" fill-rule="evenodd" fill="url(#linear-gradient-2)"/>
        <path id="Path_1500" data-name="Path 1500" d="M496.584,408.728s0,0,0,0q-.855.81-1.777,1.569c-.205.169-.413.339-.625.5-.6.478-1.23.941-1.875,1.387-.042.029-.081.055-.117.081-.146.1-.293.2-.439.3l-.417.273c-.107.072-.215.14-.326.205-.244.156-.492.309-.742.456-.3.179-.6.352-.9.521-.264.146-.531.293-.8.433-.134.072-.27.143-.407.208s-.287.146-.43.218-.312.153-.472.228-.319.153-.482.225c-.114.055-.225.107-.339.156q-.459.2-.928.4a28.777,28.777,0,0,1-9.886,1.911c.635-2.513-.41-2.324-.472-3.857,1.829.153,3.379,1.807,4.45,1.208.931-.521.462-.173,1.406-.524l1.442-.612c.478-.221.918-.4,1.354-.57,2.246-.833,1.546-.625,2.62-.4.7.146,1.312-2.347-3.187-1.292.355-1.432.456.4.205-2.708-.052-.622-.133-1.237-.173-1.9v0a10.356,10.356,0,0,1-.02-1.064c.023-.6.27-.876.189-1.24-.283-1.25-1.745-.433-2.572.674a5.057,5.057,0,0,1-2.1,1.826.012.012,0,0,1-.01,0c-.55.238-1.094.339-1.738.6-1.012.413-3.271,1.794-4.684.742a3.166,3.166,0,0,1-.664-.394s0,0,0,0c-.329-.238-.671-.518-.882-.674-3.167-2.34-1.908-1.576-4.456-4.271-.28-.293-.312-.417-.592-.713-1.686-1.784-2.412-1.409-3.057-3.008-.016-.042-.036-.088-.052-.133a7.9,7.9,0,0,0-.29-.876c-.055-.544-.212-.947-.29-1.559-.068-.524-.12-1.035-.215-1.621a24.462,24.462,0,0,1-.267-3.271c-.016-.983-.16-1.621-.182-2.718,0-.052,0-.107,0-.16.394-.26.788-.518,1.188-.771.16-.1.322-.205.485-.306.208-.137.423-.267.638-.4.111-.068.225-.137.339-.205q.737-.449,1.5-.882c.169-.1.339-.192.508-.286q.767-.43,1.566-.837.2-.1.4-.205c.143-.072.286-.143.433-.218.169-.081.342-.166.517-.247.091-.046.182-.088.273-.13.371-.173.745-.345,1.126-.511.159-.072.319-.14.482-.208.8-.342,1.631-.671,2.49-.98.208-.075.417-.15.628-.221l.4-.137c.156-.055.312-.107.472-.156.137-.046.277-.091.417-.134.215-.068.436-.137.657-.2.446-.133.9-.264,1.364-.387.231-.065.462-.127.7-.186s.472-.12.713-.179.485-.117.729-.173c.732-.169,1.491-.329,2.269-.475h0q1.548-.293,3.226-.527c12.4-1.722,22.239-7.064,25.738-14.225C511.85,368.2,512.384,393.856,496.584,408.728Z" transform="translate(-370.745 -311.368)" fill-rule="evenodd" fill="url(#linear-gradient-2)"/>
        <path id="Path_1501" data-name="Path 1501" d="M443.71,466.5c-.117.029-.231.059-.348.085q-.332.078-.664.146c-.134.029-.27.059-.407.085v0c-.042-1.728.078-3.063.042-4.824.452.325.436.726.56,1.4.091.482.257,1.022.374,1.462C443.427,465.45,443.567,465.974,443.71,466.5Z" transform="translate(-357.863 -376.059)" fill-rule="evenodd" fill="url(#linear-gradient-2)"/>
        <path id="Path_1502" data-name="Path 1502" d="M462.439,320.8l-.062.111c-.065.111-.13.218-.2.326-.036.068-.075.133-.117.2-.169.29-.345.576-.524.859q-.444.718-.908,1.419c-.124.189-.251.378-.378.563a54.987,54.987,0,0,1-3.978,5.2c-.134.156-.267.309-.4.459q-1.372,1.543-2.838,2.933c-.156.146-.313.293-.469.436s-.316.29-.475.43-.312.28-.472.417q-1.338,1.162-2.754,2.184c-.153.114-.309.225-.465.332s-.316.221-.475.329-.319.215-.478.319q-.723.478-1.461.911c-.283.169-.57.332-.859.492-.374.208-.755.41-1.139.6-.169.085-.339.169-.511.251a.064.064,0,0,1-.026.013c-.016-.042-.036-.088-.052-.133a7.878,7.878,0,0,0-.29-.876c-.055-.544-.212-.947-.29-1.559-.068-.524-.12-1.035-.215-1.621a24.458,24.458,0,0,1-.267-3.271c-.016-.983-.16-1.621-.182-2.718,0-.052,0-.107,0-.159q-.02-1.343-.052-2.679c-.02-1.058.016-1.846.072-2.718a21.058,21.058,0,0,0-.062-2.682,23.324,23.324,0,0,0-.589-3.1v0c-.13-.488-.283-.977-.462-1.481a7.871,7.871,0,0,0-.885-2,3.746,3.746,0,0,0-.667-.765,1.994,1.994,0,0,0-.368-.283c-.055-.039-.16-.1-.234-.153l-.153-.107-5.876-1.709h0q.073-.186.156-.371c.111-.26.225-.524.335-.784q.513-1.182,1.061-2.344t1.139-2.3c.133-.254.264-.508.4-.762.4-.755.81-1.507,1.24-2.246s.866-1.475,1.318-2.2c.15-.241.3-.478.452-.719q.918-1.435,1.9-2.812c.488-.69.99-1.367,1.51-2.031s1.035-1.318,1.576-1.956c.361-.426.723-.846,1.09-1.26q.278-.313.557-.615.561-.615,1.136-1.2c6.953-7.155,15.524-12.083,25.3-12.88C473.6,291.5,469.936,307.974,462.439,320.8Z" transform="translate(-351.515 -251.332)" fill-rule="evenodd" fill="url(#linear-gradient-2)"/>
        <path id="Path_1503" data-name="Path 1503" d="M447.391,323.31q0,.381-.01.762,0,.3-.02.605c-.006.208-.016.42-.029.628-.007.163-.02.322-.033.485s-.023.339-.036.508c0,.029-.007.062-.01.091-.02.244-.046.488-.072.729-.055.508-.12,1.012-.2,1.517-.039.251-.078.5-.12.755-.052.309-.111.622-.172.934-.036.192-.075.384-.117.579-.052.251-.107.5-.166.755s-.117.5-.179.755l-.176.684c-.01.036-.02.072-.029.111-.065.241-.134.479-.2.719s-.143.5-.218.749a.146.146,0,0,0-.01.029c-.075.244-.15.492-.231.736s-.163.508-.251.765-.173.5-.264.758-.182.511-.277.768-.192.508-.29.765v0c-.173.443-.348.889-.534,1.338-.029.072-.059.143-.091.218-.1.251-.212.5-.319.752s-.221.518-.339.775q-.513,1.167-1.084,2.347c-.127.264-.254.527-.384.791,0,.006-.007.013-.01.023-.13-.488-.283-.976-.462-1.481a7.871,7.871,0,0,0-.885-2,3.743,3.743,0,0,0-.667-.765,1.99,1.99,0,0,0-.368-.283c-.055-.039-.159-.1-.234-.153l-.153-.107-5.875-1.709c.049-.124.1-.247.153-.371.111-.26.225-.524.335-.784q.513-1.182,1.061-2.344t1.139-2.3c.134-.254.264-.508.4-.762.4-.755.814-1.507,1.24-2.246s.866-1.475,1.318-2.2c.15-.241.3-.478.452-.719q.918-1.436,1.9-2.812c.492-.687.993-1.367,1.51-2.031s1.038-1.318,1.575-1.956c.361-.426.723-.846,1.09-1.26q.278-.313.557-.615.561-.615,1.136-1.2c.01.046.02.094.026.14.042.228.084.456.124.684,0,.019.007.039.01.055.088.537.166,1.068.231,1.6,0,.042.01.081.013.124.029.254.059.508.081.765.023.238.046.475.062.713.007.068.01.137.016.205.016.241.029.482.042.719v.055c.013.225.019.446.026.671C447.388,322.681,447.391,323,447.391,323.31Z" transform="translate(-351.522 -278.022)" fill-rule="evenodd" fill="url(#linear-gradient-2)"/>
        <path id="Path_1504" data-name="Path 1504" d="M278.817,502.372a3.567,3.567,0,0,1,.508,1.061c.007.316-.387,1.862-1.253,1.937a6.487,6.487,0,0,1-.423-1.937,4.69,4.69,0,0,1,.352-1.8C278.475,501.754,278.566,501.975,278.817,502.372Z" transform="translate(-246.819 -402.796)" fill-rule="evenodd" fill="url(#linear-gradient-2)"/>
        <path id="Path_1505" data-name="Path 1505" d="M227.6,492.384a.092.092,0,0,0-.029-.007c-1.038.83-1.842,1.426-1.9,1.488a36.489,36.489,0,0,1-3.223,1.842c-2.132.833-1.976-.312-3.333-.889a10.638,10.638,0,0,1-1.794-.671l-1.836-1.943c-.964-1.172-1.025-1.436-2.2-1.436l-.358,1.038c-.361.7-.166-.01-.28,1.117-.163,1.536-1.234,3.167-.736,4.372l.892,1.859a9.383,9.383,0,0,1-2.057.387,9.126,9.126,0,0,0-1.26.137s0,0,.007,0q.332.137.674.264c.15.059.3.111.452.163.062.023.124.046.186.065.182.062.365.12.55.176s.381.114.573.169c.042.01.085.023.124.033.208.059.417.111.628.163.228.059.456.111.687.16s.452.1.68.14c.023,0,.046.01.065.013q.332.063.664.117c.189.033.381.062.573.091l.339.049.078.01c.365.049.736.091,1.107.13.2.02.391.036.586.052s.391.033.586.046h.007l.566-.078a14.869,14.869,0,0,1,1.833-.485c-.127.192-.316.407-.514.651a3.848,3.848,0,0,0-.941,1.849,6.6,6.6,0,0,0,2.288,5.726c.221.221.4.371.579.521h1.979c-13.339,6.5-30.224,8.323-40.9-9.567a45.143,45.143,0,0,1,15.234-7.845c.283-.085.57-.166.856-.244s.573-.153.859-.225.576-.143.866-.212.576-.133.866-.2c.306-.065.609-.127.915-.189q.854-.166,1.712-.3,2.28-.356,4.6-.508c.544-.039,1.09-.065,1.637-.082.6-.019,1.208-.029,1.813-.029.264,0,.531,0,.794.007q1.44.02,2.884.117c.241.016.482.033.723.052.378.029.758.065,1.139.1.225.023.446.046.671.072q.488.049.977.117c.247.029.492.062.736.1.273.039.55.078.824.124.176.026.355.055.531.085.83.133,1.663.29,2.493.459q.82.176,1.641.364c.27.065.544.13.817.2.133.033.27.068.41.1.088.02.179.046.27.068.124.029.247.062.368.094Z" transform="translate(-182.94 -395.16)" fill-rule="evenodd" fill="url(#linear-gradient-2)"/>
        <path id="Path_1506" data-name="Path 1506" d="M332.091,506.726c-.729.784-1.566,1.608-2.493,2.454-.465-.029-.951-.088-1.8-.208-.423-.062-.869-.143-1.309-.205h0a6.644,6.644,0,0,0-.934-.075l-7.3-.645c.443-.68,1.032-.524,1.829-.863a13.527,13.527,0,0,1,1.826-.814c.758-.514,2.461-1.081,3.607-1.833l.645-.469.189.078c.205.078.407.16.609.244.267.107.531.218.8.329q.874.371,1.745.765,1.3.591,2.591,1.24Z" transform="translate(-274.205 -404.441)" fill-rule="evenodd" fill="url(#linear-gradient-2)"/>
        <path id="Path_1507" data-name="Path 1507" d="M349.185,506.835q-.869-.4-1.745-.765C348.022,506.314,348.605,506.571,349.185,506.835Z" transform="translate(-293.893 -405.79)" fill-rule="evenodd" fill="url(#linear-gradient-2)"/>
        <path id="Path_1508" data-name="Path 1508" d="M278.817,502.372a3.567,3.567,0,0,1,.508,1.061c.007.316-.387,1.862-1.253,1.937a6.487,6.487,0,0,1-.423-1.937,4.69,4.69,0,0,1,.352-1.8C278.475,501.754,278.566,501.975,278.817,502.372Z" transform="translate(-246.819 -402.796)" fill-rule="evenodd" fill="url(#linear-gradient-2)"/>
        <path id="Path_1509" data-name="Path 1509" d="M291.366,523.505a14.862,14.862,0,0,1,1.833-.485c-.127.192-.316.407-.514.651-.355-.01-.706-.02-1.055-.039q-.42-.02-.83-.049Z" transform="translate(-255.69 -417.223)" fill-rule="evenodd" fill="url(#linear-gradient-2)"/>
        <path id="Path_1510" data-name="Path 1510" d="M229.392,408.585c-1.038.83-1.842,1.426-1.9,1.488a36.487,36.487,0,0,1-3.223,1.842c-2.132.833-1.976-.313-3.333-.889a10.632,10.632,0,0,1-1.794-.671l-1.836-1.943c-.964-1.172-1.025-1.435-2.2-1.435l-.358,1.038c-.361.7-.166-.01-.28,1.116-.163,1.536-1.234,3.167-.736,4.372l.892,1.859a9.388,9.388,0,0,1-2.057.387,9.1,9.1,0,0,0-1.26.137.176.176,0,0,1-.036-.016c-.267-.111-.531-.221-.791-.339q-.918-.405-1.787-.856c-.186-.091-.368-.186-.55-.283a1.19,1.19,0,0,1-.127-.068q-.352-.186-.693-.381-.757-.42-1.478-.879-.361-.225-.713-.459c-.234-.156-.469-.312-.7-.472q-.688-.474-1.348-.98-1.313-1.006-2.5-2.1c-.2-.179-.391-.361-.583-.544l-.006-.007c-15.559-14.9-15.022-40.311-13.815-42.42,3.5,7.161,13.339,12.5,25.738,14.225q1.68.234,3.226.527h0c.778.146,1.536.306,2.269.475.244.055.488.114.729.173s.479.117.713.179.469.12.7.186c.462.124.915.254,1.361.387l.661.2c.14.042.28.088.417.134.16.049.316.1.472.156l.4.137c.423.147.837.3,1.243.449.2.075.4.153.6.231.169.065.335.133.5.2.059.023.117.046.176.072.169.068.335.137.5.208q.869.366,1.7.758c.146.068.29.137.436.208.221.1.439.212.654.319.342.172.68.345,1.016.521.365.2.726.391,1.084.589.169.094.338.189.508.286q.762.435,1.5.882c.166.1.329.2.492.3.039.026.078.049.117.072.286.179.57.361.853.54.16.1.322.205.482.309.338.218.677.439,1.012.664.3.2.592.4.889.6.156.1.313.212.469.319.26.179.521.355.778.534a19.094,19.094,0,0,1-.176,3.7,21.615,21.615,0,0,1-.127,2.877,16.011,16.011,0,0,1-.28,2.822,5.886,5.886,0,0,1-.016.6v0a2.012,2.012,0,0,1-.55,1.318c-.27.273-2.6,1.969-3.942,3.346a40.093,40.093,0,0,1-3.4,2.991l.029.01A.1.1,0,0,0,229.392,408.585Z" transform="translate(-184.761 -311.368)" fill-rule="evenodd" fill="url(#linear-gradient-2)"/>
        <path id="Path_1511" data-name="Path 1511" d="M351.218,466.5a7.8,7.8,0,0,1-.27,2.093,26.129,26.129,0,0,1-1.419,8.46c-.348.169-.7.332-1.055.488h0q-1.289-.649-2.591-1.24-.869-.4-1.745-.765c-.267-.111-.531-.221-.8-.329-.2-.085-.4-.166-.609-.244l-.189-.078,5.579-4.053c.71-.645.9-2.956,1.328-3.968l.091-.521c-.036-.007-.072-.01-.107-.016.039.006.075.01.111.013l.449-2.536c.134-.918.221-2.08.42-3,.456.12.407.159.5.674A26.986,26.986,0,0,1,351.218,466.5Z" transform="translate(-290.589 -375.256)" fill-rule="evenodd" fill="url(#linear-gradient-2)"/>
        <path id="Path_1512" data-name="Path 1512" d="M285.677,312.638a.01.01,0,0,0-.007,0c-.768.26-1.588.518-2.539.784a6.407,6.407,0,0,0-2.585,1.123l-1.338,1.735a8.227,8.227,0,0,0-.967,1.963,15.922,15.922,0,0,0-.413,2.246v0a18.452,18.452,0,0,0-.212,2.962c.065.833.316,1.914.42,2.734.117.882.13,1.859.28,2.741.042.244.072,1.038.081,1.956a19.093,19.093,0,0,1-.176,3.7,21.619,21.619,0,0,1-.127,2.878,16.016,16.016,0,0,1-.28,2.822,5.893,5.893,0,0,1-.016.6v0l-.107-.039-.107-.039c-.192-.068-.381-.14-.57-.215q-.855-.327-1.689-.71-.22-.1-.44-.205c-.085-.039-.169-.078-.254-.12-.172-.081-.342-.166-.511-.251-.384-.192-.765-.394-1.139-.6-.29-.159-.576-.322-.859-.492q-.737-.435-1.462-.911c-.16-.1-.319-.211-.479-.319s-.319-.218-.475-.329-.312-.218-.466-.332q-1.416-1.02-2.754-2.184c-.16-.137-.316-.277-.472-.417s-.319-.283-.475-.43-.312-.29-.469-.436q-1.47-1.387-2.838-2.933c-.137-.15-.27-.3-.4-.459a54.961,54.961,0,0,1-3.978-5.2c-.127-.186-.254-.374-.378-.563q-.464-.7-.908-1.419c-.179-.283-.355-.57-.524-.859-.042-.065-.081-.13-.117-.2-.065-.107-.13-.215-.2-.326l-.062-.111c-7.5-12.822-11.162-29.293-9.6-43.726,9.772.8,18.343,5.726,25.3,12.88q.576.591,1.136,1.2.278.3.557.615,1.04,1.167,2.018,2.389c.215.273.433.55.648.827.514.664,1.019,1.344,1.51,2.031q.493.688.967,1.393.713,1.055,1.387,2.139c.15.238.3.478.443.719.439.719.866,1.452,1.279,2.191A77.09,77.09,0,0,1,285.677,312.638Z" transform="translate(-225.281 -251.332)" fill-rule="evenodd" fill="url(#linear-gradient-2)"/>
        <path id="Path_1513" data-name="Path 1513" d="M365.5,466.5c-.124-.006-.247-.016-.368-.026s-.212-.016-.316-.026c-.166-.016-.332-.029-.5-.049s-.332-.036-.5-.055c-.036-.007-.072-.01-.107-.016.039.006.075.01.111.013l.449-2.536c.133-.918.221-2.08.42-3,.456.12.407.159.5.674A26.965,26.965,0,0,1,365.5,466.5Z" transform="translate(-304.867 -375.256)" fill-rule="evenodd" fill="url(#linear-gradient-2)"/>
        <path id="Path_1514" data-name="Path 1514" d="M298.838,425.192a21.607,21.607,0,0,1-.127,2.878,16.01,16.01,0,0,1-.28,2.822,5.886,5.886,0,0,1-.016.6c-.072-.023-.143-.049-.215-.075-.192-.068-.381-.14-.57-.215q-.854-.327-1.689-.71-.22-.1-.439-.205c-.085-.039-.169-.078-.254-.12-.173-.081-.342-.166-.511-.251-.384-.192-.765-.394-1.139-.6-.29-.16-.576-.322-.859-.492q-.737-.435-1.461-.911c-.16-.1-.319-.212-.479-.319s-.319-.218-.475-.329-.312-.218-.466-.332q-1.416-1.02-2.754-2.184c-.159-.137-.316-.277-.472-.417s-.319-.283-.475-.43-.312-.29-.469-.436q-1.47-1.387-2.838-2.933c-.137-.15-.27-.3-.4-.459a54.965,54.965,0,0,1-3.978-5.2c-.127-.185-.254-.374-.378-.563q-.464-.7-.908-1.419c-.179-.283-.355-.57-.524-.859-.042-.065-.081-.13-.117-.2-.088-.143-.176-.29-.26-.436h0c.778.146,1.536.306,2.269.475.244.055.488.114.729.173s.478.117.713.179.469.12.7.186c.462.124.915.254,1.361.387l.661.205c.14.042.28.088.417.134.159.049.316.1.472.156l.4.137c.423.147.837.3,1.243.449.2.075.4.153.6.231.169.065.335.133.5.2.059.023.117.046.176.072.169.068.335.137.5.208q.869.366,1.7.758c.146.068.29.137.436.208.221.1.439.212.654.319.342.173.68.345,1.016.521.365.2.726.391,1.084.589.169.094.339.189.508.286q.762.435,1.5.882c.166.1.329.2.492.3.039.026.078.049.117.072.286.179.57.361.853.54.16.1.322.205.482.309.339.218.677.439,1.012.664.3.2.592.4.889.6.156.1.312.212.469.319.26.179.521.355.778.534A19.089,19.089,0,0,1,298.838,425.192Z" transform="translate(-245.897 -341.936)" fill-rule="evenodd" fill="url(#linear-gradient-2)"/>
        <path id="Path_1515" data-name="Path 1515" d="M365.726,466.5c-.124-.006-.247-.016-.368-.026s-.212-.016-.316-.026c-.332-.029-.664-.065-.993-.107l.449-2.536c.133-.918.221-2.08.42-3,.456.12.407.159.5.674A26.983,26.983,0,0,1,365.726,466.5Z" transform="translate(-305.096 -375.256)" fill-rule="evenodd" fill="url(#linear-gradient-2)"/>
        <path id="Path_1516" data-name="Path 1516" d="M443.268,464.855c.16.6.3,1.12.443,1.647-.117.029-.231.059-.348.085q-.332.078-.664.146c-.137.029-.27.055-.407.081-.042-1.728.078-3.063.042-4.824.452.325.436.726.56,1.4C442.984,463.875,443.151,464.415,443.268,464.855Z" transform="translate(-357.863 -376.059)" fill-rule="evenodd" fill="url(#linear-gradient-2)"/>
        <path id="Path_1517" data-name="Path 1517" d="M481.672,411.4c-.023.036-.042.075-.065.111-.065.111-.13.218-.2.326-.036.068-.075.133-.117.2-.169.29-.345.576-.524.859q-.444.718-.908,1.419c-.124.189-.251.378-.378.563a54.971,54.971,0,0,1-3.978,5.2c-.133.156-.267.309-.4.459q-1.372,1.543-2.839,2.933c-.156.146-.312.293-.469.436s-.316.29-.475.43-.312.28-.472.417q-1.338,1.162-2.754,2.184c-.153.114-.309.225-.465.332s-.316.221-.475.329-.319.215-.479.319q-.723.479-1.461.911c-.283.169-.57.332-.859.492-.374.208-.755.41-1.139.6-.169.085-.339.169-.511.251a.063.063,0,0,1-.026.013c-.016-.042-.036-.088-.052-.133a7.9,7.9,0,0,0-.29-.876c-.055-.544-.212-.947-.29-1.559-.068-.524-.12-1.035-.215-1.621a24.461,24.461,0,0,1-.267-3.271c-.016-.983-.16-1.621-.182-2.718,0-.052,0-.107,0-.16.394-.26.788-.518,1.188-.771.16-.1.322-.205.485-.306.208-.137.423-.267.638-.4.111-.068.225-.137.339-.205q.737-.449,1.5-.882c.169-.1.339-.192.508-.286q.767-.43,1.566-.837.2-.1.4-.205c.143-.072.286-.143.433-.218.169-.081.342-.166.517-.247.091-.046.182-.088.273-.13.371-.173.745-.345,1.126-.511.159-.072.319-.14.482-.208.8-.342,1.631-.671,2.49-.98.208-.075.417-.15.628-.221l.4-.137c.156-.055.312-.107.472-.156.137-.046.277-.091.417-.134.215-.068.436-.137.657-.205.446-.133.9-.264,1.364-.387.231-.065.462-.127.7-.186s.472-.12.713-.179.485-.117.729-.173c.732-.169,1.491-.329,2.269-.475Z" transform="translate(-370.745 -341.936)" fill-rule="evenodd" fill="url(#linear-gradient-2)"/>
        <path id="Path_1518" data-name="Path 1518" d="M278.817,502.372a3.567,3.567,0,0,1,.508,1.061c.007.316-.387,1.862-1.253,1.937a6.487,6.487,0,0,1-.423-1.937,4.69,4.69,0,0,1,.352-1.8C278.475,501.754,278.566,501.975,278.817,502.372Z" transform="translate(-246.819 -402.796)" fill-rule="evenodd" fill="url(#linear-gradient-2)"/>
        <path id="Path_1519" data-name="Path 1519" d="M291.366,523.505a14.862,14.862,0,0,1,1.833-.485c-.127.192-.316.407-.514.651-.355-.01-.706-.02-1.055-.039q-.42-.02-.83-.049Z" transform="translate(-255.69 -417.223)" fill-rule="evenodd" fill="url(#linear-gradient-2)"/>
        <path id="Path_1520" data-name="Path 1520" d="M259.137,492.377c-1.038.83-1.842,1.426-1.9,1.488a36.5,36.5,0,0,1-3.223,1.842c-2.132.833-1.976-.312-3.333-.889a10.638,10.638,0,0,1-1.794-.671l-1.836-1.943c-.964-1.172-1.025-1.436-2.2-1.436l-.358,1.038c-.361.7-.166-.01-.28,1.117-.163,1.536-1.234,3.167-.736,4.372l.892,1.859a9.383,9.383,0,0,1-2.057.387,9.127,9.127,0,0,0-1.26.137.174.174,0,0,1-.036-.016c-.267-.111-.531-.221-.791-.339q-.918-.405-1.787-.856c-.186-.091-.368-.186-.55-.283a1.2,1.2,0,0,1-.127-.068q-.352-.186-.693-.381-.757-.425-1.478-.879-.361-.225-.713-.459c-.234-.156-.469-.313-.7-.472q-.688-.479-1.348-.98-1.313-1.006-2.5-2.1c-.2-.179-.391-.361-.583-.544l-.006-.007c.283-.085.57-.166.856-.244s.573-.153.859-.225.576-.143.866-.212.576-.133.866-.2c.306-.065.609-.127.915-.189.57-.107,1.139-.208,1.712-.3q2.28-.356,4.6-.508c.544-.036,1.087-.062,1.637-.082.6-.019,1.208-.029,1.813-.029.264,0,.531,0,.794.007q1.44.02,2.884.117c.241.016.482.033.723.052.378.029.758.065,1.139.1.225.023.446.046.671.072q.488.049.977.117c.247.029.492.062.736.1.273.039.55.078.824.124.176.026.355.055.531.085.83.133,1.663.29,2.493.459q.82.176,1.641.364c.27.065.544.13.817.2.134.033.27.068.41.1.088.02.179.046.27.068Z" transform="translate(-214.506 -395.16)" fill-rule="evenodd" fill="url(#linear-gradient-2)"/>
        <path id="Path_1521" data-name="Path 1521" d="M331.407,327.239a75.737,75.737,0,0,1,6.081,12.093c-.768.26-1.589.518-2.539.785a6.406,6.406,0,0,0-2.585,1.123l-1.338,1.735a8.23,8.23,0,0,0-.967,1.963,15.939,15.939,0,0,0-.413,2.246.608.608,0,0,1-.033-.065c-.14-.27-.28-.537-.417-.8s-.273-.534-.407-.8-.264-.531-.394-.794-.257-.527-.384-.791q-.571-1.182-1.084-2.347c-.117-.257-.228-.518-.339-.775s-.215-.5-.319-.752c-.033-.075-.062-.146-.091-.218-.182-.446-.361-.892-.534-1.338v0c-.1-.257-.2-.511-.29-.765s-.189-.514-.277-.768-.179-.5-.264-.758-.172-.511-.251-.765-.156-.491-.231-.736l-.01-.029c-.075-.251-.15-.5-.218-.749s-.137-.478-.2-.719c-.01-.039-.02-.075-.029-.111l-.176-.684c-.062-.251-.12-.5-.179-.755s-.114-.5-.166-.755c-.042-.2-.081-.387-.117-.579-.062-.312-.12-.625-.172-.934-.042-.251-.081-.5-.12-.755-.075-.5-.14-1.009-.2-1.517-.026-.241-.052-.485-.072-.729a.839.839,0,0,1-.007-.091q-.024-.254-.039-.508c-.013-.163-.026-.322-.033-.485-.013-.208-.023-.42-.029-.628s-.016-.4-.02-.605q-.01-.381-.01-.762c0-.313,0-.628.013-.941.007-.225.013-.446.026-.671v-.055c.013-.238.026-.478.042-.719.007-.068.01-.137.016-.205.016-.238.039-.475.062-.713.023-.257.052-.511.081-.765,0-.042.01-.081.013-.124.065-.531.143-1.061.231-1.6,0-.016.007-.036.01-.055.039-.228.081-.456.124-.684.007-.046.016-.094.026-.14q.576.591,1.136,1.2.278.3.557.615c.918,1.035,1.81,2.109,2.666,3.216A66.825,66.825,0,0,1,331.407,327.239Z" transform="translate(-277.099 -278.022)" fill-rule="evenodd" fill="url(#linear-gradient-2)"/>
        <path id="Path_1522" data-name="Path 1522" d="M459.6,502.95c-3.33,0-1.146-.5-5.4.4a16.359,16.359,0,0,0-3.9,1.237c-.4.228-.609.4-1.019.648a8.811,8.811,0,0,0-1,.664,2.207,2.207,0,0,0-.173.159,1.211,1.211,0,0,1-.827.508,5.1,5.1,0,0,1-.391-.921v0c-.205-.576-.446-1.341-.67-2.109a86.173,86.173,0,0,1,8.274-2.809l.046.02c.5.2.765.348,1.263.55A22.27,22.27,0,0,1,459.6,502.95Z" transform="translate(-360.519 -402.182)" fill-rule="evenodd" fill="url(#linear-gradient-2)"/>
        <path id="Path_1523" data-name="Path 1523" d="M498.338,493.409c-1.012.413-3.271,1.794-4.684.742a3.161,3.161,0,0,1-.664-.394c.244-.049.488-.091.732-.137.264-.046.531-.091.794-.133l.8-.127q2.383-.361,4.762-.55C499.526,493.048,498.983,493.148,498.338,493.409Z" transform="translate(-392.065 -396.846)" fill-rule="evenodd" fill="url(#linear-gradient-2)"/>
        <path id="Path_1524" data-name="Path 1524" d="M519.83,497.44a2.8,2.8,0,0,1-.54-1.419,3.04,3.04,0,0,1,1.5-2.321,9.272,9.272,0,0,1-.075,2.331A5.572,5.572,0,0,1,519.83,497.44Z" transform="translate(-409.804 -397.447)" fill-rule="evenodd" fill="url(#linear-gradient-2)"/>
        <path id="Path_1525" data-name="Path 1525" d="M525.1,493.795q-.859.806-1.777,1.569c-.205.169-.413.338-.625.5-.6.478-1.231.941-1.875,1.387-.042.029-.081.055-.117.081-.146.1-.293.2-.439.3l-.417.273c-.107.072-.215.14-.325.205-.244.156-.492.309-.742.456-.3.179-.6.352-.9.521-.264.147-.531.293-.8.433-.134.072-.27.143-.407.208s-.287.146-.43.218-.312.153-.472.228-.319.153-.482.225c-.114.055-.225.107-.339.156q-.459.205-.928.4a28.779,28.779,0,0,1-9.886,1.911c.635-2.513-.41-2.324-.472-3.857,1.829.153,3.379,1.807,4.45,1.208.931-.521.462-.173,1.406-.524l1.442-.612c.479-.221.918-.4,1.354-.57,2.246-.833,1.546-.625,2.62-.4.7.146,1.312-2.347-3.187-1.292.355-1.432.456.4.205-2.708-.052-.622-.133-1.237-.173-1.9.111,0,.218,0,.329,0,.56,0,1.123.01,1.68.023.257.01.514.016.771.026a.311.311,0,0,0,.078,0c.267.013.531.029.794.042.547.033,1.094.075,1.637.12l.817.078c.407.046.814.091,1.217.143s.81.111,1.211.173c.27.042.537.085.8.13.537.094,1.071.192,1.6.3.267.055.531.111.794.169Q524.319,493.591,525.1,493.795Z" transform="translate(-399.269 -396.435)" fill-rule="evenodd" fill="url(#linear-gradient-2)"/>
        <path id="Path_1526" data-name="Path 1526" d="M278.807,483.922v0a.1.1,0,0,1,.029.007Zm14.212-6.142c.036.006.072.01.107.016l0,0C293.094,477.79,293.058,477.786,293.019,477.78Zm-32.291,13.45s0,0-.007,0c-.947.176-1.94.57-1.807,1.413.137.863.911.049,1.546,0,.179.358.137.251.146.775.6,0,1.068-.094,1.429-.1s.814.1,1.406.1a.962.962,0,0,0,.273.775c.9-.02,1.016-.423,1.849-.592l3.714-.524C269.084,493.056,260.949,491.321,260.728,491.23Z" transform="translate(-234.176 -386.709)" fill="#485871" fill-rule="evenodd"/>
      </g>
    </g>
  </g>
</svg>
