<svg id="meditation-icon" xmlns="http://www.w3.org/2000/svg" width="24" height="24" viewBox="0 0 24 24">
  <rect id="background" width="24" height="24" fill="none"/>
  <path id="icon" d="M21.737,67.411A13.68,13.68,0,0,0,22.758,65c.213-.626.451-1.334.681-1.444a.541.541,0,0,0,.294-.57.568.568,0,0,0-.451-.469c-2.475-.4-3.984-.156-5.556,1a12.742,12.742,0,0,0-1.8-3.818c-.192-.3-.35-.552-.451-.745a.551.551,0,0,0-.984,0c-.1.193-.257.442-.451.736a12.94,12.94,0,0,0-1.8,3.827c-1.572-1.168-3.1-1.417-5.557-1a.555.555,0,0,0-.155,1.04c.221.11.469.819.681,1.444a13.811,13.811,0,0,0,1.02,2.41c-1.978.4-4.269,1.794-4.25,2.732,0,.267.185.718.865.718a2.252,2.252,0,0,1,1.749.846,5.075,5.075,0,0,0,4.047,1.573c2.5,0,3.744-.938,4.352-1.739.6.8,1.84,1.739,4.333,1.739a5.086,5.086,0,0,0,4.058-1.573,2.247,2.247,0,0,1,1.747-.846c.681,0,.865-.451.865-.718C26.007,69.205,23.716,67.807,21.737,67.411Zm.884,3.5a4.049,4.049,0,0,1-3.3,1.27c-2.99,0-3.671-1.546-3.79-1.9-.009-.037-.018-.064-.018-.074a.514.514,0,0,0-.358-.4.257.257,0,0,0-.12-.028.018.018,0,0,0-.029,0h-.018a.591.591,0,0,0-.183.028.569.569,0,0,0-.221.147.449.449,0,0,0-.12.239c0,.009-.009.009-.009.018a.306.306,0,0,1-.019.055.083.083,0,0,0-.009.046c-.146.4-.865,1.877-3.79,1.877a4.04,4.04,0,0,1-3.294-1.27,3.483,3.483,0,0,0-1.857-1.086A7.053,7.053,0,0,1,9.162,68.4H9.2a2.733,2.733,0,0,1,.654.055,4.249,4.249,0,0,1,1.5.423.6.6,0,0,0,.247.055.548.548,0,0,0,.248-1.04A5.3,5.3,0,0,0,10,67.356a2.539,2.539,0,0,0-.524-.055,10.476,10.476,0,0,1-1.223-2.659A9.557,9.557,0,0,0,7.8,63.483a4.958,4.958,0,0,1,4.233,1.288c-.01.156-.019.313-.019.478a6.175,6.175,0,0,0,.506,2.4.54.54,0,0,0,.507.331.625.625,0,0,0,.221-.037.557.557,0,0,0,.285-.727,5.255,5.255,0,0,1-.415-1.978c0-.212.019-.414.037-.626.009-.009.009-.009,0-.018a.117.117,0,0,0,.009-.055,10.318,10.318,0,0,1,1.813-4.25v-.018a.03.03,0,0,1,.008.018A10.529,10.529,0,0,1,16.8,64.55c0,.018,0,.037.01.046v.018a.117.117,0,0,0,.009.055c.008.193.027.386.027.561a5.245,5.245,0,0,1-.414,1.987.554.554,0,0,0,.294.727.569.569,0,0,0,.719-.294,6.21,6.21,0,0,0,.505-2.42c0-.156-.009-.3-.018-.46a4.94,4.94,0,0,1,4.224-1.288,11.251,11.251,0,0,0-.442,1.159,10.414,10.414,0,0,1-1.214,2.65,3.754,3.754,0,0,0-.5.055,5.375,5.375,0,0,0-1.886.543.549.549,0,0,0-.248.736.561.561,0,0,0,.5.3.6.6,0,0,0,.247-.055,4.429,4.429,0,0,1,1.537-.432,2.777,2.777,0,0,1,.615-.046h.084a7.1,7.1,0,0,1,3.633,1.417A3.528,3.528,0,0,0,22.621,70.907Z" transform="translate(-2.973 -53.653)" fill="#fff"/>
</svg>
