<svg id="mobile_verification" xmlns="http://www.w3.org/2000/svg" width="44" height="44" viewBox="0 0 44 44">
  <rect id="back" width="44" height="44" transform="translate(0 0)" fill="none"/>
  <g id="mobile_icon" transform="translate(452.607 -224.199)">
    <path id="Path_1534" data-name="Path 1534" d="M-441.14,268.2c-.146-.051-.294-.1-.439-.153a2.855,2.855,0,0,1-1.984-2.415,4.805,4.805,0,0,1-.039-.685q0-18.751-.005-37.5a2.957,2.957,0,0,1,1.722-2.959,3.047,3.047,0,0,1,1.242-.273q10.247-.025,20.494-.009a2.9,2.9,0,0,1,2.937,2.683,4.988,4.988,0,0,1,.023.514q0,18.794,0,37.588a3,3,0,0,1-1.67,2.914,6.932,6.932,0,0,1-.8.3Zm3.417-42.5a1.089,1.089,0,0,0-.154-.035q-1.268,0-2.535,0a1.507,1.507,0,0,0-1.721,1.707c0,1.332,0,2.664,0,4q0,16.8,0,33.6c0,1.217.546,1.768,1.747,1.768q9.992,0,19.983,0a2.676,2.676,0,0,0,.6-.045c.785-.181,1.149-.749,1.149-1.767q0-18.712,0-37.424a4.533,4.533,0,0,0-.019-.515,1.32,1.32,0,0,0-1.151-1.264c-1.063-.071-2.133-.019-3.24-.019,0,.679,0,1.335,0,1.991a2.183,2.183,0,0,1-2.386,2.369q-4.942,0-9.884,0a2.184,2.184,0,0,1-2.383-2.372C-437.726,227.031-437.723,226.375-437.723,225.7Zm1.493-.02a1.713,1.713,0,0,0-.022.173c0,.587,0,1.173,0,1.76,0,.754.219.976.963.976q3.585,0,7.17,0h2.791c.409,0,.743-.176.768-.588.047-.765.013-1.534.013-2.321Z" transform="translate(0 0)"/>
    <path id="Path_1535" data-name="Path 1535" d="M-426.364,237.007c0,.671,0,1.327,0,1.982a2.184,2.184,0,0,0,2.383,2.372q4.942,0,9.884,0a2.183,2.183,0,0,0,2.386-2.369c0-.656,0-1.312,0-1.991,1.107,0,2.177-.052,3.24.019a1.32,1.32,0,0,1,1.151,1.264,4.52,4.52,0,0,1,.02.515q0,18.712,0,37.424c0,1.018-.364,1.586-1.149,1.767a2.678,2.678,0,0,1-.6.045q-9.991,0-19.983,0c-1.2,0-1.747-.551-1.747-1.768q0-16.8,0-33.6c0-1.332,0-2.664,0-4a1.507,1.507,0,0,1,1.721-1.707q1.268,0,2.535,0A1.091,1.091,0,0,1-426.364,237.007Zm13.935,16.405.074-.006a26.524,26.524,0,0,0-.266-3.243,6.54,6.54,0,0,0-6.852-5.116,6.519,6.519,0,0,0-6.09,5.8c-.136,1.507-.051,3.033-.091,4.549a1.051,1.051,0,0,1-.255.63,9.452,9.452,0,0,0-2.594,7.678,9.5,9.5,0,0,0,10.715,8.369,9.1,9.1,0,0,0,7.73-6.3,9.22,9.22,0,0,0-2.115-9.753,1.02,1.02,0,0,1-.243-.592C-412.448,254.759-412.429,254.085-412.429,253.412Zm-6.562,21.7q-2.511,0-5.022,0c-.569,0-.872.253-.879.712s.315.751.894.751q4.958,0,9.916,0c.581,0,.9-.274.9-.745s-.315-.718-.916-.718Q-416.544,275.107-418.991,275.109Zm-10.3-35.569h-.007c0,.114-.007.229,0,.343a.738.738,0,0,0,.719.755.739.739,0,0,0,.736-.741,4.184,4.184,0,0,0-.014-.812.718.718,0,0,0-.73-.647.72.72,0,0,0-.7.675A3.877,3.877,0,0,0-429.291,239.54Zm20.51.013a4.135,4.135,0,0,0,0-.428.724.724,0,0,0-.692-.688.737.737,0,0,0-.751.676,3.221,3.221,0,0,0-.014.428c0,.73.24,1.091.732,1.1S-408.772,240.282-408.781,239.553Z" transform="translate(-11.36 -11.303)" fill="#537396"/>
    <path id="Path_1536" data-name="Path 1536" d="M-379.536,237.14h11.68c0,.787.034,1.556-.013,2.321-.025.413-.359.589-.768.588h-2.791q-3.585,0-7.17,0c-.744,0-.961-.222-.963-.976,0-.587,0-1.173,0-1.76A1.712,1.712,0,0,1-379.536,237.14Z" transform="translate(-56.695 -11.456)" fill="#c6def0"/>
    <path id="Path_1537" data-name="Path 1537" d="M-395.356,315.658c0,.673-.019,1.347.011,2.019a1.02,1.02,0,0,0,.243.592,9.219,9.219,0,0,1,2.115,9.753,9.1,9.1,0,0,1-7.73,6.3,9.5,9.5,0,0,1-10.715-8.369,9.452,9.452,0,0,1,2.594-7.678,1.051,1.051,0,0,0,.255-.63c.041-1.516-.045-3.042.091-4.549a6.519,6.519,0,0,1,6.09-5.8,6.54,6.54,0,0,1,6.852,5.116,26.524,26.524,0,0,1,.266,3.243Zm-6.612,17.288a8.076,8.076,0,0,0,8.074-8.092,8.071,8.071,0,0,0-8.087-8.033,8.081,8.081,0,0,0-8.054,8.024A8.082,8.082,0,0,0-401.968,332.945Zm-5.211-16.082c.51-.263.88-.474,1.268-.645a.424.424,0,0,0,.278-.46,23.682,23.682,0,0,1,.061-2.4,3.622,3.622,0,0,1,3.617-3.142,3.62,3.62,0,0,1,3.6,3.159c.084.78.04,1.572.07,2.358.005.139.045.343.139.4.411.246.848.447,1.318.687,0-1.061.03-2.074-.006-3.086a5.149,5.149,0,0,0-4.688-4.97,5.024,5.024,0,0,0-5.407,3.972A30.658,30.658,0,0,0-407.179,316.863Zm7.378-1.33a19.166,19.166,0,0,0-.013-2,2.136,2.136,0,0,0-2.056-1.849,2.129,2.129,0,0,0-2.2,1.625,16.847,16.847,0,0,0-.132,2.237c.791-.067,1.5-.174,2.208-.174C-401.269,315.369-400.546,315.473-399.8,315.533Z" transform="translate(-28.433 -73.549)"/>
    <path id="Path_1538" data-name="Path 1538" d="M-373.619,569.25q2.447,0,4.894,0c.6,0,.912.249.916.718s-.319.744-.9.745q-4.958,0-9.916,0c-.579,0-.9-.278-.894-.751s.31-.711.879-.712Q-376.13,569.247-373.619,569.25Z" transform="translate(-56.732 -305.444)"/>
    <path id="Path_1539" data-name="Path 1539" d="M-417.919,250.866a3.877,3.877,0,0,1,0-.428.72.72,0,0,1,.7-.675.718.718,0,0,1,.73.647,4.184,4.184,0,0,1,.014.812.739.739,0,0,1-.736.741.738.738,0,0,1-.719-.755c-.008-.114,0-.228,0-.343Z" transform="translate(-22.732 -22.629)"/>
    <path id="Path_1540" data-name="Path 1540" d="M-250.421,250.875c.009.73-.236,1.09-.728,1.084s-.733-.366-.732-1.1a3.222,3.222,0,0,1,.014-.428.737.737,0,0,1,.751-.676.724.724,0,0,1,.692.688A4.118,4.118,0,0,1-250.421,250.875Z" transform="translate(-169.72 -22.626)"/>
    <path id="Path_1541" data-name="Path 1541" d="M-390.758,406.489a8.082,8.082,0,0,1-8.067-8.1,8.081,8.081,0,0,1,8.054-8.024,8.071,8.071,0,0,1,8.087,8.032A8.076,8.076,0,0,1-390.758,406.489Zm0-12.468a3.566,3.566,0,0,0-3.342,2.2,3.443,3.443,0,0,0,.657,3.94,1.608,1.608,0,0,1,.495,1.186,2.155,2.155,0,0,0,1.44,2.082,2.2,2.2,0,0,0,2.946-2.14,1.384,1.384,0,0,1,.445-1.075,3.542,3.542,0,0,0,.716-3.97A3.612,3.612,0,0,0-390.754,394.021Z" transform="translate(-39.643 -147.093)" fill="#33e4ba"/>
    <path id="Path_1542" data-name="Path 1542" d="M-373.942,328.1a30.657,30.657,0,0,1,.251-4.129A5.024,5.024,0,0,1-368.283,320a5.15,5.15,0,0,1,4.688,4.97c.036,1.011.006,2.025.006,3.086-.471-.24-.907-.442-1.318-.687-.094-.056-.133-.261-.139-.4-.029-.786.014-1.579-.07-2.358a3.62,3.62,0,0,0-3.6-3.158,3.622,3.622,0,0,0-3.617,3.142,23.674,23.674,0,0,0-.061,2.4.424.424,0,0,1-.278.46C-373.062,327.628-373.432,327.84-373.942,328.1Z" transform="translate(-61.669 -84.788)" fill="#c6def0"/>
    <path id="Path_1543" data-name="Path 1543" d="M-343.6,349.419c-.745-.06-1.468-.165-2.192-.164-.708,0-1.417.107-2.208.174a16.847,16.847,0,0,1,.132-2.237,2.129,2.129,0,0,1,2.2-1.625,2.136,2.136,0,0,1,2.056,1.849A19.166,19.166,0,0,1-343.6,349.419Z" transform="translate(-84.637 -107.434)" fill="#537396"/>
    <path id="Path_1544" data-name="Path 1544" d="M-356.953,422.215a3.612,3.612,0,0,1,3.357,2.219,3.542,3.542,0,0,1-.716,3.97,1.384,1.384,0,0,0-.445,1.075,2.2,2.2,0,0,1-2.946,2.14,2.155,2.155,0,0,1-1.44-2.082,1.608,1.608,0,0,0-.495-1.186,3.443,3.443,0,0,1-.657-3.94A3.566,3.566,0,0,1-356.953,422.215Zm-.019,1.481a2.168,2.168,0,0,0-2.064,1.521,2.118,2.118,0,0,0,.8,2.431,1.124,1.124,0,0,1,.553,1.113,5.011,5.011,0,0,0,.014.857.69.69,0,0,0,.715.655.688.688,0,0,0,.718-.65,4.985,4.985,0,0,0,.016-.857,1.116,1.116,0,0,1,.55-1.113,2.131,2.131,0,0,0,.8-2.432A2.17,2.17,0,0,0-356.972,423.7Z" transform="translate(-73.444 -175.287)"/>
    <path id="Path_1545" data-name="Path 1545" d="M-345.445,435.115a2.17,2.17,0,0,1,2.1,1.525,2.131,2.131,0,0,1-.8,2.432,1.116,1.116,0,0,0-.55,1.113,4.988,4.988,0,0,1-.016.857.688.688,0,0,1-.718.65.69.69,0,0,1-.715-.655,5.011,5.011,0,0,1-.014-.857,1.124,1.124,0,0,0-.553-1.113,2.118,2.118,0,0,1-.8-2.431A2.168,2.168,0,0,1-345.445,435.115Z" transform="translate(-84.971 -186.707)" fill="#3caf8f"/>
  </g>
</svg>
