<svg id="music_icon" data-name="music icon" xmlns="http://www.w3.org/2000/svg" width="24" height="24" viewBox="0 0 24 24">
  <rect id="background" width="24" height="24" fill="none"/>
  <path id="icon" d="M24.014,120.218a2.55,2.55,0,0,0-1.812-2.3.959.959,0,0,0-.166-.534.979.979,0,0,0-.81-.432h-6.56c-1.518,0-5.1,2.318-6.118,3a4.129,4.129,0,0,0-2.171,3.376,2.849,2.849,0,0,0,.7,2.116,3.513,3.513,0,0,0-.736,2.079A2.829,2.829,0,0,0,8.9,130.6l1.38.009,6.146-.009h.8a3.054,3.054,0,0,0,1.748-.552q.469-.331.945-.654.411-.279.827-.553.331-.217.663-.431c.23-.148.458-.3.7-.435a4.1,4.1,0,0,0,.748-.538,3.616,3.616,0,0,0,.574-.684,3.559,3.559,0,0,0,.385-.8,3.46,3.46,0,0,0,.176-.868c.006-.072,0-.148.009-.219a2.694,2.694,0,0,0-.708-2.1,3.21,3.21,0,0,0,.718-2.1A2.545,2.545,0,0,0,24.014,120.218ZM7.85,128.9a1.769,1.769,0,0,1-.4-1.316,2.381,2.381,0,0,1,.5-1.463,2.235,2.235,0,0,0,.34.147,2.68,2.68,0,0,0-.607,1.748A2.559,2.559,0,0,0,7.85,128.9Zm-.175-5.06a2.738,2.738,0,0,0,.12.736,1.771,1.771,0,0,1-.313-1.168A3.039,3.039,0,0,1,9.119,120.9c2.107-1.417,4.692-2.843,5.548-2.843h6.118l-4.352,2.907a1.134,1.134,0,0,1-.626.184H10.416a.715.715,0,0,0-.147-.018,2.655,2.655,0,0,0-2.594,2.714Zm13.892,3.183a.327.327,0,0,0-.083.037c-.009.009-1.417.874-3.146,2.079-.009.009-.018.009-.028.018a1.573,1.573,0,0,1-.212.12c.009-.009.018-.018.009-.028a1.562,1.562,0,0,0,.064-.506,1.809,1.809,0,0,0-1.8-1.757h-.046a.117.117,0,0,0-.055.009h-5.8a.548.548,0,0,0-.552.552.554.554,0,0,0,.552.552H16.35a.527.527,0,0,0,.11-.009.709.709,0,0,1,.607.681.908.908,0,0,1-.028.221.627.627,0,0,1-.092.193.6.6,0,0,1-.147.156,1.036,1.036,0,0,1-.193.11.689.689,0,0,1-.285.046H10.269a1.542,1.542,0,0,1-1.058-2.613,1.458,1.458,0,0,1,.856-.442.538.538,0,0,1,.175-.018h6.983a3.054,3.054,0,0,0,1.748-.552c1.592-1.113,2.9-1.923,3.091-2.042.009-.009.018-.018.028-.018a.668.668,0,0,0,.083-.074,1.7,1.7,0,0,0,.294-.23,1.648,1.648,0,0,1,.432,1.3A2.6,2.6,0,0,1,21.567,127.026Zm1.372-6.438a2.7,2.7,0,0,1-.217.994,2.116,2.116,0,0,1-.552.761,15.535,15.535,0,0,1-1.8,1.264l-.092.06q-.411.269-.819.542c-.325.219-.644.447-.971.664a1.557,1.557,0,0,1-.156.093.972.972,0,0,1-.1.044.894.894,0,0,0-.1.035c.015-.086.041-.167.049-.256a1.878,1.878,0,0,0,0-.259,1.9,1.9,0,0,0-.09-.48,1.809,1.809,0,0,0-.4-.675,1.765,1.765,0,0,0-.569-.4,1.729,1.729,0,0,0-.463-.127,5.143,5.143,0,0,0-.789-.03c-.075,0-.149,0-.224,0H10.472a.552.552,0,1,0,0,1.1H16.1c.124,0,.248-.012.373,0a.689.689,0,0,1,.136.029.72.72,0,0,1,.394.35.664.664,0,0,1,.076.338.709.709,0,0,1-.754.69H10.458a2.049,2.049,0,0,1-.492-.046,1.422,1.422,0,0,1-.212-.064c-.074-.028-.138-.064-.2-.092s-.12-.083-.175-.12-.11-.092-.166-.147-.092-.1-.138-.166a1.218,1.218,0,0,1-.11-.184,1.84,1.84,0,0,1-.092-.193c-.028-.074-.046-.147-.064-.212s-.018-.156-.028-.23v-.055a1.549,1.549,0,0,1,.432-1.1,1.5,1.5,0,0,1,.577-.379c.084-.03.17-.051.256-.073a1.025,1.025,0,0,1,.26-.011h.605l1.209,0,1.911,0c.4,0,.793,0,1.189,0,.2,0,.4-.008.6-.016a2.431,2.431,0,0,0,.543-.052,2.388,2.388,0,0,0,.688-.3s4.424-2.972,4.434-2.972a1.475,1.475,0,0,1,1.306.888A1.9,1.9,0,0,1,22.939,120.588Z" transform="translate(-3.328 -111.952)" fill="#fff"/>
</svg>
