<svg id="notification" xmlns="http://www.w3.org/2000/svg" width="12.259" height="12.257" viewBox="0 0 12.259 12.257">
  <path id="back" d="M325.217,96.307a6.13,6.13,0,1,0-6.13,6.128A6.129,6.129,0,0,0,325.217,96.307Z" transform="translate(-312.958 -90.177)" fill="#db453a"/>
  <g id="bell" transform="translate(0.001 0)">
    <path id="Path_39" data-name="Path 39" d="M320.487,96.357c.031-.924-1.477-1.193-1.345-2.567a1.338,1.338,0,0,0-1.328-1.428v-.331a.28.28,0,1,0-.56,0v.331a1.338,1.338,0,0,0-1.328,1.428c.131,1.375-1.377,1.643-1.345,2.567h5.906Z" transform="translate(-311.404 -88.669)" fill="#fff"/>
    <path id="Path_40" data-name="Path 40" d="M317.472,94.2a.219.219,0,0,0-.219.217.638.638,0,0,1-1.277,0,.218.218,0,0,0-.437,0,1.075,1.075,0,0,0,2.15,0A.218.218,0,0,0,317.472,94.2Z" transform="translate(-310.484 -86.32)" fill="#fff"/>
  </g>
</svg>
