<svg id="sleep-icon" xmlns="http://www.w3.org/2000/svg" width="24" height="24" viewBox="0 0 24 24">
  <rect id="background" width="24" height="24" fill="none"/>
  <path id="icon" d="M19.143,185.8v-2.245a1.279,1.279,0,0,0,.377-.248,1.344,1.344,0,0,0,.4-.994,2.165,2.165,0,0,0-2.162-2.162h-1.38v-.147A1.973,1.973,0,0,0,17.9,178.37a1.732,1.732,0,0,0,.009-.488v-.037a4.161,4.161,0,0,0-2.226-3.284l-.672-.35-.129.745a2.328,2.328,0,0,1-.359.938,3.976,3.976,0,0,0-.948,1.941,1.984,1.984,0,0,0,.451,1.6,2.026,2.026,0,0,0,1.251.589v.129H13.724a1.359,1.359,0,0,0-1.362,1.362V185.8H8.324v.552c0,1.932,1.205,3.2,3.588,3.8v1.454l.386.12a9.051,9.051,0,0,0,2.843.451c.184,0,.368,0,.561-.018h.083c.184.018.368.018.552.018a9.15,9.15,0,0,0,2.852-.451l.377-.12v-1.454c2.383-.6,3.588-1.868,3.588-3.8V185.8Zm-4.306-7.112a.973.973,0,0,1-.175-.7,3.029,3.029,0,0,1,.718-1.408,3.014,3.014,0,0,0,.359-.653,2.645,2.645,0,0,1,1.067,1.95v.074a.608.608,0,0,1,0,.258.845.845,0,0,1-.34.57l-.083.055v-.221a.552.552,0,1,0-1.1,0v.285A.768.768,0,0,1,14.838,178.692Zm-1.371,2.824a.252.252,0,0,1,.258-.258h4.039a1.058,1.058,0,0,1,.754.313,1.15,1.15,0,0,1,.313.773.348.348,0,0,1-.074.166.318.318,0,0,1-.23.064c-.083.018-.147-.037-.184-.12a1.135,1.135,0,0,0-1.03-.681h-.239A1.078,1.078,0,0,0,16,182.851v.681a.258.258,0,0,1-.515,0V181.37H14.129a.552.552,0,1,0,0,1.1h.248v1.058a1.362,1.362,0,1,0,2.723,0l-.028-.653.248-.009a1.269,1.269,0,0,0,.718.727V185.8H13.467Zm5,9.274a8,8,0,0,1-2.686.267H15.7a8,8,0,0,1-2.686-.267v-.423a18.647,18.647,0,0,0,2.723.184,18.647,18.647,0,0,0,2.723-.184Zm.469-1.619a.117.117,0,0,0-.055.009,16.017,16.017,0,0,1-3.137.258,15.98,15.98,0,0,1-3.128-.258.4.4,0,0,0-.046-.009c-2.41-.488-2.972-1.527-3.1-2.263H22.014C21.885,187.644,21.333,188.684,18.932,189.171Z" transform="translate(-3.324 -171.212)" fill="#fff"/>
</svg>
