<svg id="aecard" xmlns="http://www.w3.org/2000/svg" width="48" height="38" viewBox="0 0 48 38">
  <rect id="Rectangle_3024" data-name="Rectangle 3024" width="48" height="38" rx="8" fill="#fff"/>
  <path id="Path_1747" data-name="Path 1747" d="M0,0H17.955V9.693l-.889,1.389.889,1.236v5.638H0V8.818l.555-.639L0,7.568Z" transform="translate(15 10.021)" fill="#016fd0"/>
  <path id="Path_1748" data-name="Path 1748" d="M3.486,12.512V9.693H6.47l.32.417.331-.417H17.955v2.625a1.251,1.251,0,0,1-.611.194h-6l-.361-.444v.444H9.8v-.759a.993.993,0,0,1-.511.106h-.4v.653H7.1l-.32-.426-.325.426ZM0,7.568.673,6H1.837l.382.879V6H3.666l.227.635L4.114,6h6.5v.319a1.4,1.4,0,0,1,.9-.319l2.108.007.375.867V6h1.211l.333.5V6h1.222V8.818H15.539l-.319-.5v.5H13.441l-.179-.444h-.478l-.176.444H11.4a1.193,1.193,0,0,1-.792-.313v.313H8.79l-.361-.444v.444H1.665l-.179-.444H1.009l-.177.444H0Z" transform="translate(15 10.021)" fill="#fff"/>
  <path id="Path_1749" data-name="Path 1749" d="M.911,6.347,0,8.457H.595l.168-.423h.974l.167.423h.6L1.6,6.347Zm.336.491.3.739H.949ZM2.569,8.457V6.346l.84,0L3.9,7.71l.477-1.364h.833V8.457H4.68V6.9L4.12,8.457H3.658L3.1,6.9V8.457Zm3,0V6.346H7.29v.472H6.1v.361H7.263v.444H6.1V8H7.29v.458ZM7.6,6.347V8.457h.528v-.75h.222l.633.75h.645L8.929,7.68a.643.643,0,0,0,.579-.648.683.683,0,0,0-.738-.685Zm.528.472h.6a.242.242,0,0,1,.25.222.238.238,0,0,1-.242.222H8.124Zm2.139,1.638H9.723V6.346h.539Zm1.278,0h-.116a.93.93,0,0,1-.9-1.047.967.967,0,0,1,1.048-1.064h.583v.5h-.6a.508.508,0,0,0-.492.569.517.517,0,0,0,.569.58h.139Zm1.148-2.11L11.78,8.457h.591l.167-.423h.974l.167.423h.6l-.907-2.111Zm.336.491.3.739h-.595Zm1.321,1.619V6.346h.671l.857,1.326V6.346H16.4V8.457h-.649L14.872,7.1V8.457Zm-10.5,3.694V10.04H5.568v.472H4.38v.361H5.541v.444H4.38v.375H5.568v.458Zm8.437,0V10.04h1.722v.472H12.817v.361h1.155v.444H12.817v.375h1.189v.458Zm-6.649,0,.838-1.042L5.615,10.04H6.28l.511.66.513-.66h.639L7.1,11.1l.84,1.055H7.271l-.5-.65-.484.65ZM8,10.04v2.111H8.54v-.667H9.1a.73.73,0,0,0,.826-.734.7.7,0,0,0-.758-.71Zm.542.477h.585a.238.238,0,0,1,.26.243A.243.243,0,0,1,9.123,11H8.54Zm1.611-.478v2.111h.528V11.4H10.9l.633.75h.645l-.694-.778a.643.643,0,0,0,.579-.648.683.683,0,0,0-.738-.685Zm.528.472h.6a.242.242,0,0,1,.25.222.238.238,0,0,1-.242.222h-.611Zm3.572,1.639v-.458h1.056c.156,0,.224-.084.224-.177s-.067-.178-.224-.178h-.477a.59.59,0,0,1-.646-.632c0-.338.212-.665.828-.665h1.028l-.222.475h-.889c-.17,0-.222.089-.222.174a.184.184,0,0,0,.194.184h.5a.579.579,0,0,1,.663.606.633.633,0,0,1-.688.672Zm1.937,0v-.458h1.056c.156,0,.224-.084.224-.177s-.067-.178-.224-.178h-.477a.59.59,0,0,1-.646-.632c0-.338.212-.665.828-.665h1.028l-.222.475h-.889c-.17,0-.222.089-.222.174a.184.184,0,0,0,.194.184h.5a.579.579,0,0,1,.663.606.633.633,0,0,1-.688.672Z" transform="translate(15 10.021)" fill="#016fd0"/>
</svg>
