<svg id="app_logo" xmlns="http://www.w3.org/2000/svg" width="77.431" height="76.523" viewBox="0 0 77.431 76.523">
  <path id="Path_1634" data-name="Path 1634" d="M206.79,204.263H192.149l-20.563,44.725h55.767Z" transform="translate(-160.756 -172.465)" fill="#3e786f"/>
  <g id="Group_563" data-name="Group 563">
    <path id="Path_1635" data-name="Path 1635" d="M218.557,187.952H141.126V114.844h77.431Zm-76.542-.889h75.653v-71.33H142.015Z" transform="translate(-141.126 -114.844)" fill="#172433"/>
  </g>
  <g id="Group_568" data-name="Group 568" transform="translate(15.551 42.746)">
    <g id="Group_565" data-name="Group 565" transform="translate(0 17.379)">
      <path id="Path_1636" data-name="Path 1636" d="M201.534,288.756H185.346a.488.488,0,0,1-.487-.487v-3.86a.487.487,0,0,1,.487-.487h16.188a.487.487,0,0,1,.487.487v3.86A.487.487,0,0,1,201.534,288.756Zm-15.7-.975h15.213V284.9H185.834Z" transform="translate(-184.859 -283.921)" fill="#172433"/>
      <g id="Group_564" data-name="Group 564" transform="translate(1.275 3.86)">
        <path id="Path_1637" data-name="Path 1637" d="M190.467,303.376h-1.536a.487.487,0,0,1-.469-.618l2.125-7.626a.487.487,0,1,1,.939.262l-1.953,7.008h.524l2.026-7.27a.487.487,0,0,1,.939.262l-2.125,7.626A.487.487,0,0,1,190.467,303.376Z" transform="translate(-188.444 -294.775)" fill="#172433"/>
        <path id="Path_1638" data-name="Path 1638" d="M220.649,303.376h-1.536a.487.487,0,0,1-.469-.356l-2.125-7.626a.488.488,0,0,1,.469-.618h1.534a.487.487,0,0,1,.469.357l2.126,7.626a.487.487,0,0,1-.469.618Zm-1.166-.975h.524l-1.855-6.652h-.523Z" transform="translate(-206.523 -294.775)" fill="#172433"/>
      </g>
      <path id="Path_1639" data-name="Path 1639" d="M207.483,295.75h-1.536a.487.487,0,0,1,0-.975h1.536a.487.487,0,0,1,0,.975Z" transform="translate(-198.134 -290.915)" fill="#172433"/>
      <path id="Path_1640" data-name="Path 1640" d="M203.607,290.147H192.525a.487.487,0,1,1,0-.974h11.082a.487.487,0,1,1,0,.974Z" transform="translate(-189.484 -287.305)" fill="#172433"/>
    </g>
    <g id="Group_567" data-name="Group 567" transform="translate(4.4 0)">
      <path id="Path_1641" data-name="Path 1641" d="M203.739,272.668H198.86a.487.487,0,0,1-.48-.406l-1.142-6.748a.488.488,0,0,1,.481-.569h7.162a.488.488,0,0,1,.48.569l-1.142,6.748A.488.488,0,0,1,203.739,272.668Zm-4.466-.975h4.055l.977-5.773h-6.009Z" transform="translate(-197.231 -254.314)" fill="#172433"/>
      <g id="Group_566" data-name="Group 566" transform="translate(1.021)">
        <path id="Path_1642" data-name="Path 1642" d="M203.15,246.625c-1.709,0-3.048-2.542-3.048-5.788,0-3.1,2.605-5.555,2.716-5.658a.487.487,0,0,1,.662,0c.111.1,2.716,2.553,2.716,5.658C206.2,244.082,204.858,246.625,203.15,246.625Zm0-10.386a7.468,7.468,0,0,0-2.073,4.6c0,2.836,1.092,4.813,2.073,4.813s2.073-1.977,2.073-4.813A7.469,7.469,0,0,0,203.15,236.239Z" transform="translate(-200.102 -235.049)" fill="#172433"/>
        <path id="Path_1643" data-name="Path 1643" d="M207.789,251.766a.488.488,0,0,1-.488-.488v-7.428a.487.487,0,0,1,.975,0v7.428A.488.488,0,0,1,207.789,251.766Z" transform="translate(-204.741 -240.407)" fill="#172433"/>
      </g>
    </g>
  </g>
  <g id="Group_571" data-name="Group 571" transform="translate(30.098 0.201)">
    <g id="Group_570" data-name="Group 570" transform="translate(0)">
      <path id="Path_1644" data-name="Path 1644" d="M249.071,138.821a.488.488,0,0,1-.49-.485l-.108-22.438a.487.487,0,1,1,.974,0l.108,22.438A.488.488,0,0,1,249.071,138.821Z" transform="translate(-240.399 -115.409)" fill="#172433"/>
      <g id="Group_569" data-name="Group 569" transform="translate(0 22.438)">
        <path id="Path_1645" data-name="Path 1645" d="M248.2,182.479h-2.255a.487.487,0,0,1-.487-.487v-1.871a1.615,1.615,0,1,1,3.23,0v1.871A.487.487,0,0,1,248.2,182.479Zm-1.768-.974h1.281v-1.384a.64.64,0,1,0-1.281,0Z" transform="translate(-238.453 -178.506)" fill="#172433"/>
        <path id="Path_1646" data-name="Path 1646" d="M242.509,193.5H226.256a.487.487,0,0,1-.487-.487v-1.3c-.07-1.458,1.185-2.742,3.729-3.8a21.52,21.52,0,0,1,3.628-1.107.5.5,0,0,1,.094-.009h2a.512.512,0,0,1,.075-.038.487.487,0,0,1,.493.079,21.619,21.619,0,0,1,3.48,1.076c2.537,1.051,3.792,2.331,3.729,3.807v1.286A.487.487,0,0,1,242.509,193.5Zm-15.766-.975h15.279v-.809c0-.008,0-.015,0-.023.06-1.276-1.661-2.264-3.117-2.868a20.934,20.934,0,0,0-3.412-1.047h-2.224a20.918,20.918,0,0,0-3.41,1.047c-1.455.6-3.176,1.592-3.116,2.868Z" transform="translate(-225.766 -183.809)" fill="#172433"/>
      </g>
    </g>
  </g>
  <g id="Group_573" data-name="Group 573" transform="translate(31.963 44.896)">
    <path id="Path_1647" data-name="Path 1647" d="M288.781,287.167,286.5,273.5a3.575,3.575,0,0,0-3.537-3h-7.57a.487.487,0,0,0,0,.975h5.41l-2.622,15.69a.487.487,0,1,0,.961.161l2.649-15.851h1.172a2.6,2.6,0,0,1,2.576,2.182l2.281,13.668a.487.487,0,0,0,.48.407.473.473,0,0,0,.081-.007A.487.487,0,0,0,288.781,287.167Z" transform="translate(-259.297 -260.046)" fill="#172433"/>
    <g id="Group_572" data-name="Group 572" transform="translate(0 10.456)">
      <path id="Path_1648" data-name="Path 1648" d="M265.547,282.269" transform="translate(-253.266 -278.084)" fill="#172433"/>
      <path id="Path_1649" data-name="Path 1649" d="M240.687,306.247a.478.478,0,0,1-.081-.007.487.487,0,0,1-.4-.561l1.008-6.042a.487.487,0,0,1,.961.16l-1.008,6.042A.487.487,0,0,1,240.687,306.247Z" transform="translate(-236.932 -289.014)" fill="#172433"/>
      <path id="Path_1650" data-name="Path 1650" d="M246.586,275.168a.534.534,0,0,1-.081-.007.487.487,0,0,1-.4-.561l.617-3.692a.487.487,0,1,1,.961.161l-.617,3.692A.488.488,0,0,1,246.586,275.168Z" transform="translate(-240.733 -270.501)" fill="#172433"/>
      <path id="Path_1651" data-name="Path 1651" d="M266.054,306.758a.487.487,0,0,1-.48-.407l-.961-5.758a.487.487,0,0,1,.961-.16l.96,5.758a.487.487,0,0,1-.4.561A.48.48,0,0,1,266.054,306.758Z" transform="translate(-252.66 -289.526)" fill="#172433"/>
      <path id="Path_1652" data-name="Path 1652" d="M242.307,275.157a.487.487,0,0,1-.48-.407l-.182-1.091a2.6,2.6,0,0,0-2.576-2.182H231.5a.487.487,0,1,1,0-.974h7.57a3.575,3.575,0,0,1,3.537,3l.182,1.091a.488.488,0,0,1-.481.568Z" transform="translate(-231.012 -270.502)" fill="#172433"/>
    </g>
    <path id="Path_1653" data-name="Path 1653" d="M263.748,260.306l.026-.037a6.454,6.454,0,0,0,1.187-3.737v-9.588a5.852,5.852,0,0,0-5.846-5.846h-6.429a5.853,5.853,0,0,0-5.846,5.846v8.291h-5.557a3.972,3.972,0,0,0-4,3.7,3.9,3.9,0,0,0,3.892,4.093h17.294c.132,0,.262-.005.393-.013l.117-.009q.141-.011.28-.028l.12-.015q.159-.022.316-.053l.063-.011q.188-.038.373-.087l.085-.024c.1-.027.19-.055.284-.086l.1-.035q.144-.05.286-.107l.068-.027q.179-.074.352-.158l.025-.012q.157-.078.31-.164l.073-.042c.091-.053.181-.108.27-.165l.055-.036a6.5,6.5,0,0,0,.618-.463l.037-.032q.13-.112.254-.23l.038-.036a6.583,6.583,0,0,0,.532-.581l0-.005C263.6,260.509,263.674,260.408,263.748,260.306Zm-25.485-.893a2.925,2.925,0,0,1,2.909-3.2h6.036a.438.438,0,0,0,.243,0h6.592a.487.487,0,1,0,0-.975h-6.226v-8.291a4.877,4.877,0,0,1,4.872-4.871h6.429a4.877,4.877,0,0,1,4.871,4.871v9.588a5.526,5.526,0,0,1-5.522,5.522H241.257A2.979,2.979,0,0,1,238.263,259.413Z" transform="translate(-235.047 -241.098)" fill="#172433"/>
  </g>
  <path id="Path_1654" data-name="Path 1654" d="M244.064,171.031l-3.276,6.334h6.551Z" transform="translate(-205.348 -151.051)" fill="#172433"/>
</svg>
