<svg id="applepay" xmlns="http://www.w3.org/2000/svg" width="48" height="32" viewBox="0 0 48 32">
  <rect id="Rectangle_3024" data-name="Rectangle 3024" width="48" height="32" rx="8"/>
  <path id="apple" d="M14.844,14.027a9.786,9.786,0,0,1-.968,1.74,8.84,8.84,0,0,1-1.247,1.507,2.418,2.418,0,0,1-1.6.706,4.016,4.016,0,0,1-1.48-.353,4.247,4.247,0,0,0-1.593-.352,4.39,4.39,0,0,0-1.638.352A4.408,4.408,0,0,1,4.9,18a2.277,2.277,0,0,1-1.638-.724,9.283,9.283,0,0,1-1.3-1.56A10.789,10.789,0,0,1,.579,12.975,10.028,10.028,0,0,1,0,9.711,5.961,5.961,0,0,1,.783,6.593,4.592,4.592,0,0,1,2.422,4.934a4.41,4.41,0,0,1,2.216-.625,5.219,5.219,0,0,1,1.714.4,5.511,5.511,0,0,0,1.36.4A8.136,8.136,0,0,0,9.22,4.637a4.984,4.984,0,0,1,2.049-.364,4.351,4.351,0,0,1,3.409,1.795,3.792,3.792,0,0,0-2.011,3.445,3.8,3.8,0,0,0,1.248,2.863,4.1,4.1,0,0,0,1.247.818q-.15.435-.318.834ZM11.371.36a3.84,3.84,0,0,1-.984,2.519A3.354,3.354,0,0,1,7.6,4.254a2.8,2.8,0,0,1-.021-.341A3.945,3.945,0,0,1,8.624,1.367,4.021,4.021,0,0,1,9.9.412,3.793,3.793,0,0,1,11.352,0a3.271,3.271,0,0,1,.019.36Z" transform="translate(16.42 7)" fill="#fff"/>
</svg>
