<svg id="cart_active" xmlns="http://www.w3.org/2000/svg" width="24.05" height="24" viewBox="0 0 24.05 24">
    <defs>
        <style>
            .cls-2{fill:#f5f0ea}
        </style>
    </defs>
    <path id="Path_1777" data-name="Path 1777" d="m63.136-427.448-.6 2.346a.93.93 0 0 0-1.063.431c-.044.074-.084.151-.125.226a2.425 2.425 0 0 1-2.261 1.37H47.936l-.837-7.684h15.668c-.11.528-.221 1.039-.322 1.551a4.692 4.692 0 0 0-.144.876.912.912 0 0 0 .835.884z" transform="translate(-40.823 437.751)" style="fill:#f2b93b"/>
    <path id="Path_1779" data-name="Path 1779" class="cls-2" d="M84.644-213.338a.9.9 0 0 1 .883.9.9.9 0 0 1-.912.876.9.9 0 0 1-.871-.893.9.9 0 0 1 .9-.883z" transform="translate(-75.2 233.68)"/>
    <path id="Path_1780" data-name="Path 1780" class="cls-2" d="M235.2-212.462a.9.9 0 0 1 .91-.878.9.9 0 0 1 .873.914.9.9 0 0 1-.9.866.9.9 0 0 1-.883-.902z" transform="translate(-217.358 233.682)"/>
    <path id="Path_1767" data-name="Path 1767" d="M-31.453-1081.779c-.14.639-.283 1.278-.42 1.918-.1.465-.187.933-.292 1.4a.934.934 0 0 1-.986.759.914.914 0 0 1-.866-.888 4.741 4.741 0 0 1 .144-.875c.1-.512.212-1.022.322-1.549H-49.2l.837 7.676H-37.223a2.423 2.423 0 0 0 2.259-1.369c.041-.075.081-.152.124-.226a.928.928 0 0 1 1.222-.369.913.913 0 0 1 .438 1.213 4.2 4.2 0 0 1-3.968 2.618c-3.93.023-7.859.007-11.789.007a.957.957 0 0 0-1.039.726.951.951 0 0 0 .891 1.194h12.235a2.765 2.765 0 0 1 2.779 2.11 2.762 2.762 0 0 1-2.227 3.38.912.912 0 0 0-.132.042h-.658a.912.912 0 0 0-.132-.042 2.748 2.748 0 0 1-2.282-3.034c.023-.19.065-.377.1-.566h-4.022c.018.084.031.153.048.221a2.735 2.735 0 0 1-1.6 3.192 7.117 7.117 0 0 1-.758.23h-.658a.912.912 0 0 0-.132-.042 2.749 2.749 0 0 1-2.282-3.034c.023-.19.065-.377.1-.582h-.389a2.815 2.815 0 0 1-2.705-2.131 2.815 2.815 0 0 1 1.383-3.189.267.267 0 0 0 .168-.309c-.15-1.319-.291-2.638-.435-3.958-.215-1.971-.443-3.941-.642-5.914a3.26 3.26 0 0 0-3.056-2.962 1.083 1.083 0 0 1-1.125-.763v-.375a1.018 1.018 0 0 1 1.218-.741 5.128 5.128 0 0 1 4.755 4.195c.052.3.089.6.134.907h.3q8.225 0 16.45-.006a1.1 1.1 0 0 1 1.2.757zm-14.6 14.114a.9.9 0 0 0-.9.886.9.9 0 0 0 .871.892.9.9 0 0 0 .911-.875.9.9 0 0 0-.882-.904zm8.4.877a.9.9 0 0 0 .885.9.9.9 0 0 0 .9-.865.9.9 0 0 0-.873-.913.9.9 0 0 0-.91.877z" transform="translate(55.503 1088.01)"/>
</svg>
