<svg xmlns="http://www.w3.org/2000/svg" width="54" height="54" viewBox="0 0 54 54">
    <defs>
        <filter id="a" x="0" y="0" width="54" height="54" filterUnits="userSpaceOnUse">
            <feOffset dy="3"/>
            <feGaussianBlur stdDeviation="3" result="blur"/>
            <feFlood flood-opacity=".161"/>
            <feComposite operator="in" in2="blur"/>
            <feComposite in="SourceGraphic"/>
        </filter>
    </defs>
    <g style="filter:url(#a)">
        <circle data-name="Ellipse 125" cx="18" cy="18" r="18" transform="translate(9 6)" style="fill:#3e786f"/>
    </g>
    <path data-name="Icon material-my-location" d="M9.5 6.591A2.909 2.909 0 1 0 12.409 9.5 2.908 2.908 0 0 0 9.5 6.591zM16 8.773A6.541 6.541 0 0 0 10.227 3V1.5H8.773V3A6.541 6.541 0 0 0 3 8.773H1.5v1.455H3A6.541 6.541 0 0 0 8.773 16v1.5h1.455V16A6.541 6.541 0 0 0 16 10.227h1.5V8.773zm-6.5 5.818A5.091 5.091 0 1 1 14.591 9.5 5.087 5.087 0 0 1 9.5 14.591z" transform="translate(17.5 14.5)" style="fill:#fff"/>
</svg>
