<svg xmlns="http://www.w3.org/2000/svg" width="25.073" height="24.999" viewBox="0 0 25.073 24.999">
    <defs>
        <style>
            .cls-2{fill:#575171;stroke:transparent}
        </style>
    </defs>
    <g id="home" transform="translate(.574 .5)">
        <path id="Path_1768" data-name="Path 1768" d="M-1278.373-500.871a1.3 1.3 0 0 1-.116-.539q-.011-2.729 0-5.458a.552.552 0 0 0-.171-.431q-3.638-3.65-7.267-7.309a.953.953 0 0 0-1.539-.006q-3.672 3.665-7.347 7.328a.548.548 0 0 0-.178.426q.008 5.036 0 10.072a1.885 1.885 0 0 0 2.029 2.031h2.75v-5.316a3.512 3.512 0 0 1 3.586-3.538 3.509 3.509 0 0 1 3.436 3.427c.017 1.71 0 3.42 0 5.129v.3H-1280.414a1.872 1.872 0 0 0 1.905-1.849.942.942 0 0 1 .879-.959v-2.814a.892.892 0 0 1-.743-.494zm-6.052-5.036h-4.493a.939.939 0 0 1-1.008-.937.942.942 0 0 1 1.01-.936h4.493a.941.941 0 0 1 1.009.938.94.94 0 0 1-1.01.935z" transform="translate(1298.735 516.874)" style="fill:#f5f0ea"/>
        <path id="Path_1758" data-name="Path 1758" class="cls-2" d="M-1332.038-1077.381a1.125 1.125 0 0 1-.466.622.934.934 0 0 1-1.108-.122c-.09-.081-.176-.167-.3-.287v3.908a.924.924 0 0 1-.725.918.9.9 0 0 1-1.027-.467 1.3 1.3 0 0 1-.116-.54q-.012-2.729 0-5.458a.55.55 0 0 0-.171-.431q-3.639-3.65-7.269-7.31a.953.953 0 0 0-1.54-.006q-3.673 3.666-7.349 7.33a.546.546 0 0 0-.178.427q.008 5.037 0 10.074a1.885 1.885 0 0 0 2.03 2.031h2.751v-5.317a3.514 3.514 0 0 1 3.588-3.538 3.51 3.51 0 0 1 3.437 3.427c.017 1.71 0 3.421 0 5.131v.3h2.777a1.874 1.874 0 0 0 1.906-1.849.939.939 0 0 1 .965-.96.94.94 0 0 1 .91.991 3.75 3.75 0 0 1-3.6 3.688c-1.3.023-2.593.01-3.89 0a.927.927 0 0 1-.941-.982v-6.208a1.637 1.637 0 0 0-1.569-1.662 1.636 1.636 0 0 0-1.708 1.639c-.008 1.351 0 2.7 0 4.053v2.179a.935.935 0 0 1-.988.983h-3.772a3.743 3.743 0 0 1-3.767-3.764c-.006-2.757 0-5.513 0-8.27v-.31l-.24.229a.941.941 0 0 1-1.362.028.934.934 0 0 1 .041-1.36q2.12-2.121 4.246-4.237 2.7-2.7 5.406-5.4a2.9 2.9 0 0 1 1.664-.88.44.44 0 0 0 .088-.034h.656a.222.222 0 0 0 .062.031 2.923 2.923 0 0 1 1.7.9q4.7 4.737 9.4 9.467a4.692 4.692 0 0 1 .465.659z" transform="translate(1356.037 1088.815)"/>
        <path id="Path_1759" data-name="Path 1759" class="cls-2" d="M-1209.154-940.7h2.226a.942.942 0 0 1 1.01.938.941.941 0 0 1-1.011.937h-4.5a.941.941 0 0 1-1.01-.938.942.942 0 0 1 1.011-.937h2.274z" transform="translate(1221.248 949.793)"/>
    </g>
</svg>
