<svg id="logo" xmlns="http://www.w3.org/2000/svg" width="281.915" height="76.523" viewBox="0 0 281.915 76.523">
    <defs>
        <style>
            .cls-1{fill:#172433}
        </style>
    </defs>
    <path id="title" class="cls-1" d="M-74.854 0h7.314c5.267 0 8.878-3.174 8.878-8.05s-3.611-8.05-8.878-8.05h-7.314zm3.726-3.059v-9.982h3.4c3.2 0 5.29 1.909 5.29 4.991s-2.093 4.991-5.29 4.991zm23.575.069v-3.726h7.475v-2.9h-7.475v-3.5h8.464V-16.1h-12.166V0h12.466v-2.99zM-27.888 0h3.726v-13.064h5.152V-16.1h-14.03v3.036h5.152zm26.7 0h3.91l-7.2-16.1h-3.68L-15.329 0h3.818l1.426-3.45h7.475zm-7.7-6.279 2.553-6.164 2.553 6.164zM9 0h3.726v-16.1H9zm12.149 0h11.8v-3.036h-8.074V-16.1h-3.726zm22.2-2.99v-3.726h7.475v-2.9h-7.48v-3.5h8.464V-16.1H39.641V0h12.466v-2.99zM59.674 0h7.314c5.267 0 8.878-3.174 8.878-8.05s-3.611-8.05-8.878-8.05h-7.314zM63.4-3.059v-9.982h3.4c3.2 0 5.29 1.909 5.29 4.991S70-3.059 66.8-3.059z" transform="translate(171.199 35.197)"/>
    <path id="tagline" class="cls-1" d="M3.072 0h.612v-7.848h3.024V-8.4H.048v.552h3.024zm14.976-8.4v3.864h-5.616V-8.4h-.612V0h.612v-4h5.616v4h.612v-8.4zM25.8-.552V-4h4.476v-.54H25.8v-3.308h5V-8.4h-5.612V0h5.8v-.552zm23.316-7.3V-8.4H43.5V0h.612v-3.708h4.476v-.552h-4.476v-3.588zM57.96.06c2.088 0 3.372-1.224 3.372-3.624V-8.4h-.612v4.812c0 2.1-1 3.084-2.748 3.084s-2.76-.984-2.76-3.084V-8.4H54.6v4.836c0 2.4 1.272 3.624 3.36 3.624zM74.316 0l-2.1-2.94a2.577 2.577 0 0 0 1.968-2.628c0-1.776-1.272-2.832-3.384-2.832h-3.012V0h.612v-2.748h2.4a5.93 5.93 0 0 0 .816-.06L73.62 0zM68.4-3.288v-4.56h2.4c1.8 0 2.76.828 2.76 2.28s-.96 2.28-2.76 2.28zM86.256-8.4v7.3l-5.712-7.3h-.516V0h.612v-7.3L86.364 0h.5v-8.4zM93.4 0h.612v-8.4H93.4zm8.748 0h.612v-7.848h3.024V-8.4H99.12v.552h3.024zm11.868.06c2.088 0 3.372-1.224 3.372-3.624V-8.4h-.612v4.812c0 2.1-1 3.084-2.748 3.084s-2.76-.984-2.76-3.084V-8.4h-.612v4.836c-.004 2.4 1.268 3.624 3.356 3.624zM130.368 0l-2.1-2.94a2.577 2.577 0 0 0 1.968-2.628c0-1.776-1.272-2.832-3.384-2.832h-3.012V0h.612v-2.748h2.4a5.93 5.93 0 0 0 .816-.06l2 2.808zm-5.916-3.288v-4.56h2.4c1.8 0 2.76.828 2.76 2.28s-.96 2.28-2.76 2.28zm12.24 2.736V-4h4.476v-.54h-4.476v-3.308h5V-8.4h-5.612V0h5.8v-.552zM160.62-8.4v3.864H155V-8.4h-.612V0H155v-4h5.616v4h.612v-8.4zM171.048.06c2.088 0 3.372-1.224 3.372-3.624V-8.4h-.612v4.812c0 2.1-1 3.084-2.748 3.084s-2.76-.984-2.76-3.084V-8.4h-.612v4.836c0 2.4 1.272 3.624 3.36 3.624zm14.82-4.392a1.916 1.916 0 0 0 1.4-1.92c0-1.392-1.092-2.148-2.892-2.148h-3.5V0h3.744c2.064 0 3.1-.8 3.1-2.22a2.021 2.021 0 0 0-1.852-2.112zm-1.512-3.54c1.452 0 2.292.564 2.292 1.668s-.84 1.68-2.292 1.68h-2.868v-3.348zm.264 7.344h-3.132V-4h3.132c1.608 0 2.484.528 2.484 1.728s-.876 1.744-2.484 1.744z" transform="translate(94.199 60.324)"/>
    <g id="logo-2" data-name="logo">
        <path id="Path_1634" data-name="Path 1634" d="M206.79 204.263h-14.641l-20.563 44.725h55.767z" transform="translate(-160.754 -172.465)" style="fill:#3e786f"/>
        <g id="Group_563" data-name="Group 563">
            <path id="Path_1635" data-name="Path 1635" class="cls-1" d="M218.557 187.952h-77.431v-73.108h77.431zm-76.542-.889h75.653v-71.33h-75.653z" transform="translate(-141.126 -114.844)"/>
        </g>
        <g id="Group_568" data-name="Group 568" transform="translate(15.552 42.746)">
            <g id="Group_565" data-name="Group 565" transform="translate(0 17.379)">
                <path id="Path_1636" data-name="Path 1636" class="cls-1" d="M201.534 288.756h-16.188a.488.488 0 0 1-.487-.487v-3.86a.487.487 0 0 1 .487-.487h16.188a.487.487 0 0 1 .487.487v3.86a.487.487 0 0 1-.487.487zm-15.7-.975h15.213V284.9h-15.213z" transform="translate(-184.859 -283.921)"/>
                <g id="Group_564" data-name="Group 564" transform="translate(1.275 3.86)">
                    <path id="Path_1637" data-name="Path 1637" class="cls-1" d="M190.467 303.376h-1.536a.487.487 0 0 1-.469-.618l2.125-7.626a.487.487 0 1 1 .939.262l-1.953 7.008h.524l2.026-7.27a.487.487 0 0 1 .939.262l-2.125 7.626a.487.487 0 0 1-.47.356z" transform="translate(-188.444 -294.775)"/>
                    <path id="Path_1638" data-name="Path 1638" class="cls-1" d="M220.649 303.376h-1.536a.487.487 0 0 1-.469-.356l-2.125-7.626a.488.488 0 0 1 .469-.618h1.534a.487.487 0 0 1 .469.357l2.126 7.626a.487.487 0 0 1-.469.618zm-1.166-.975h.524l-1.855-6.652h-.523z" transform="translate(-206.523 -294.775)"/>
                </g>
                <path id="Path_1639" data-name="Path 1639" class="cls-1" d="M207.483 295.75h-1.536a.487.487 0 0 1 0-.975h1.536a.487.487 0 0 1 0 .975z" transform="translate(-198.134 -290.915)"/>
                <path id="Path_1640" data-name="Path 1640" class="cls-1" d="M203.607 290.147h-11.082a.487.487 0 1 1 0-.974h11.082a.487.487 0 1 1 0 .974z" transform="translate(-189.484 -287.305)"/>
            </g>
            <g id="Group_567" data-name="Group 567" transform="translate(4.4)">
                <path id="Path_1641" data-name="Path 1641" class="cls-1" d="M203.739 272.668h-4.879a.487.487 0 0 1-.48-.406l-1.142-6.748a.488.488 0 0 1 .481-.569h7.162a.488.488 0 0 1 .48.569l-1.142 6.748a.488.488 0 0 1-.48.406zm-4.466-.975h4.055l.977-5.773h-6.009z" transform="translate(-197.231 -254.314)"/>
                <g id="Group_566" data-name="Group 566" transform="translate(1.021)">
                    <path id="Path_1642" data-name="Path 1642" class="cls-1" d="M203.15 246.625c-1.709 0-3.048-2.542-3.048-5.788 0-3.1 2.605-5.555 2.716-5.658a.487.487 0 0 1 .662 0c.111.1 2.716 2.553 2.716 5.658.004 3.245-1.338 5.788-3.046 5.788zm0-10.386a7.468 7.468 0 0 0-2.073 4.6c0 2.836 1.092 4.813 2.073 4.813s2.073-1.977 2.073-4.813a7.469 7.469 0 0 0-2.073-4.6z" transform="translate(-200.102 -235.049)"/>
                    <path id="Path_1643" data-name="Path 1643" class="cls-1" d="M207.789 251.766a.488.488 0 0 1-.488-.488v-7.428a.487.487 0 0 1 .975 0v7.428a.488.488 0 0 1-.487.488z" transform="translate(-204.741 -240.407)"/>
                </g>
            </g>
        </g>
        <g id="Group_571" data-name="Group 571" transform="translate(30.099 .201)">
            <g id="Group_570" data-name="Group 570">
                <path id="Path_1644" data-name="Path 1644" class="cls-1" d="M249.071 138.821a.488.488 0 0 1-.49-.485l-.108-22.438a.487.487 0 1 1 .974 0l.108 22.438a.488.488 0 0 1-.484.485z" transform="translate(-240.399 -115.409)"/>
                <g id="Group_569" data-name="Group 569" transform="translate(0 22.438)">
                    <path id="Path_1645" data-name="Path 1645" class="cls-1" d="M248.2 182.479h-2.255a.487.487 0 0 1-.487-.487v-1.871a1.615 1.615 0 1 1 3.23 0v1.871a.487.487 0 0 1-.488.487zm-1.768-.974h1.281v-1.384a.64.64 0 1 0-1.281 0z" transform="translate(-238.453 -178.506)"/>
                    <path id="Path_1646" data-name="Path 1646" class="cls-1" d="M242.509 193.5h-16.253a.487.487 0 0 1-.487-.487v-1.3c-.07-1.458 1.185-2.742 3.729-3.8a21.52 21.52 0 0 1 3.628-1.107.5.5 0 0 1 .094-.009h2a.512.512 0 0 1 .075-.038.487.487 0 0 1 .493.079 21.619 21.619 0 0 1 3.48 1.076c2.537 1.051 3.792 2.331 3.729 3.807v1.286a.487.487 0 0 1-.488.493zm-15.766-.975h15.279V191.693c.06-1.276-1.661-2.264-3.117-2.868a20.934 20.934 0 0 0-3.412-1.047h-2.224a20.918 20.918 0 0 0-3.41 1.047c-1.455.6-3.176 1.592-3.116 2.868z" transform="translate(-225.766 -183.809)"/>
                </g>
            </g>
        </g>
        <g id="Group_573" data-name="Group 573" transform="translate(31.964 44.897)">
            <path id="Path_1647" data-name="Path 1647" class="cls-1" d="M288.781 287.167 286.5 273.5a3.575 3.575 0 0 0-3.537-3h-7.57a.487.487 0 0 0 0 .975h5.41l-2.622 15.69a.487.487 0 1 0 .961.161l2.649-15.851h1.172a2.6 2.6 0 0 1 2.576 2.182l2.281 13.668a.487.487 0 0 0 .48.407.473.473 0 0 0 .081-.007.487.487 0 0 0 .4-.558z" transform="translate(-259.297 -260.046)"/>
            <g id="Group_572" data-name="Group 572" transform="translate(0 10.456)">
                <path id="Path_1649" data-name="Path 1649" class="cls-1" d="M240.687 306.247a.478.478 0 0 1-.081-.007.487.487 0 0 1-.4-.561l1.008-6.042a.487.487 0 0 1 .961.16l-1.008 6.042a.487.487 0 0 1-.48.408z" transform="translate(-236.932 -289.014)"/>
                <path id="Path_1650" data-name="Path 1650" class="cls-1" d="M246.586 275.168a.534.534 0 0 1-.081-.007.487.487 0 0 1-.4-.561l.617-3.692a.487.487 0 1 1 .961.161l-.617 3.692a.488.488 0 0 1-.48.407z" transform="translate(-240.733 -270.501)"/>
                <path id="Path_1651" data-name="Path 1651" class="cls-1" d="M266.054 306.758a.487.487 0 0 1-.48-.407l-.961-5.758a.487.487 0 0 1 .961-.16l.96 5.758a.487.487 0 0 1-.4.561.48.48 0 0 1-.08.006z" transform="translate(-252.66 -289.526)"/>
                <path id="Path_1652" data-name="Path 1652" class="cls-1" d="M242.307 275.157a.487.487 0 0 1-.48-.407l-.182-1.091a2.6 2.6 0 0 0-2.576-2.182H231.5a.487.487 0 1 1 0-.974h7.57a3.575 3.575 0 0 1 3.537 3l.182 1.091a.488.488 0 0 1-.481.568z" transform="translate(-231.012 -270.502)"/>
            </g>
            <path id="Path_1653" data-name="Path 1653" class="cls-1" d="m263.748 260.306.026-.037a6.454 6.454 0 0 0 1.187-3.737v-9.588a5.852 5.852 0 0 0-5.846-5.846h-6.429a5.853 5.853 0 0 0-5.846 5.846v8.291h-5.557a3.972 3.972 0 0 0-4 3.7 3.9 3.9 0 0 0 3.892 4.093h17.294c.132 0 .262-.005.393-.013l.117-.009q.141-.011.28-.028l.12-.015q.159-.022.316-.053l.063-.011q.188-.038.373-.087l.085-.024c.1-.027.19-.055.284-.086l.1-.035q.144-.05.286-.107l.068-.027q.179-.074.352-.158l.025-.012q.157-.078.31-.164l.073-.042a7.49 7.49 0 0 0 .27-.165l.055-.036a6.5 6.5 0 0 0 .618-.463l.037-.032q.13-.112.254-.23l.038-.036a6.583 6.583 0 0 0 .532-.581v-.005c.082-.1.156-.201.23-.303zm-25.485-.893a2.925 2.925 0 0 1 2.909-3.2h6.036a.438.438 0 0 0 .243 0h6.592a.487.487 0 1 0 0-.975h-6.226v-8.291a4.877 4.877 0 0 1 4.872-4.871h6.429a4.877 4.877 0 0 1 4.871 4.871v9.588a5.526 5.526 0 0 1-5.522 5.522h-17.21a2.979 2.979 0 0 1-2.994-2.644z" transform="translate(-235.047 -241.098)"/>
        </g>
        <path id="Path_1654" data-name="Path 1654" class="cls-1" d="m244.064 171.031-3.276 6.334h6.551z" transform="translate(-205.347 -151.05)"/>
    </g>
</svg>
