<svg id="noti_discount" xmlns="http://www.w3.org/2000/svg" width="48" height="48" viewBox="0 0 48 48">
  <rect id="Rectangle_3024" data-name="Rectangle 3024" width="48" height="48" rx="24" fill="#ffddaf"/>
  <path id="Path_1753" data-name="Path 1753" d="M-145.21-505.11h6.737a.138.138,0,0,0,.031.017,1.66,1.66,0,0,1,1.408,1.8c0,2.009,0,4.019,0,6.028a1.869,1.869,0,0,1-.58,1.4q-3.993,3.99-7.974,7.992a2.348,2.348,0,0,1-1.239.772h-.456a2.408,2.408,0,0,1-1.245-.79q-2.834-2.857-5.686-5.7a2.409,2.409,0,0,1-.789-1.248v-.457a2.374,2.374,0,0,1,.783-1.253q3.892-3.885,7.769-7.784A2.366,2.366,0,0,1-145.21-505.11Zm-.791,9.528q1.665,0,3.33,0a.523.523,0,0,0,.554-.6.531.531,0,0,0-.586-.458h-6.626a.84.84,0,0,0-.123,0,.511.511,0,0,0-.435.335.5.5,0,0,0,.086.527.562.562,0,0,0,.468.191Q-147.666-495.585-146-495.582Zm1.635,2.666a1.648,1.648,0,0,0-1.649-1.651,1.647,1.647,0,0,0-1.653,1.664,1.655,1.655,0,0,0,1.658,1.645A1.654,1.654,0,0,0-144.366-492.917Zm-1.658-4.736a1.649,1.649,0,0,0,1.658-1.643A1.654,1.654,0,0,0-146-500.961a1.654,1.654,0,0,0-1.666,1.653A1.649,1.649,0,0,0-146.024-497.652Zm5.122-4.112a.52.52,0,0,0,.517.529.528.528,0,0,0,.533-.518.541.541,0,0,0-.522-.534A.527.527,0,0,0-140.9-501.764Z" transform="translate(170.016 520.109)" fill="#da902a"/>
  <path id="Path_1754" data-name="Path 1754" d="M25.056-257.1a.6.6,0,0,1-.607.593.6.6,0,0,1-.59-.61.591.591,0,0,1,.607-.59A.592.592,0,0,1,25.056-257.1Z" transform="translate(-0.459 284.305)" fill="#da902a"/>
  <path id="Path_1755" data-name="Path 1755" d="M24.465-394.106a.6.6,0,0,1,.591.608.592.592,0,0,1-.606.591.592.592,0,0,1-.591-.606A.6.6,0,0,1,24.465-394.106Z" transform="translate(-0.46 414.309)" fill="#da902a"/>
</svg>
