<svg xmlns="http://www.w3.org/2000/svg" width="48" height="48" viewBox="0 0 48 48">
    <rect data-name="Rectangle 3024" width="48" height="48" rx="24" style="fill:#ffddaf"/>
    <path data-name="Path 1752" d="M-641.515-455.109h-8a1.681 1.681 0 0 1-1.744-1.373 3.959 3.959 0 0 1 .026-1.068q.389-3.605.8-7.209l.836-7.523a.893.893 0 0 1 .883-.825H-634.5c.713 0 1.006.254 1.087.971.213 1.878.417 3.758.627 5.637l.616 5.51c.143 1.285.29 2.57.426 3.856a1.723 1.723 0 0 1-1.345 1.99 2.449 2.449 0 0 1-.5.035l-7.926-.001zm-4.5-12.563h-.02a13.807 13.807 0 0 0 .074 1.494 4.482 4.482 0 0 0 5.236 3.8 4.494 4.494 0 0 0 3.672-4.023c.044-.687.034-1.378.027-2.067a1.483 1.483 0 0 1 .244-.871 1.328 1.328 0 0 0-.294-1.747 1.349 1.349 0 0 0-1.741.037 1.327 1.327 0 0 0-.241 1.723 1.374 1.374 0 0 1 .24.83c-.015.562 0 1.125 0 1.688a2.674 2.674 0 0 1-2.7 2.7 2.675 2.675 0 0 1-2.687-2.7c0-.563.01-1.126 0-1.688a1.37 1.37 0 0 1 .238-.831 1.324 1.324 0 0 0-.145-1.636 1.347 1.347 0 0 0-1.8-.157 1.325 1.325 0 0 0-.333 1.772 1.363 1.363 0 0 1 .246.849c-.026.277-.014.552-.014.826z" transform="translate(665.513 488.109)" style="fill:#da902a"/>
</svg>
