<svg id="noti_doc" xmlns="http://www.w3.org/2000/svg" width="48" height="48" viewBox="0 0 48 48">
  <rect id="Rectangle_3024" data-name="Rectangle 3024" width="48" height="48" rx="24" fill="#ffddaf"/>
  <path id="Path_1756" data-name="Path 1756" d="M632.374-477.382c0,1.19-.008,2.346,0,3.5a5.106,5.106,0,0,0,.108,1.113,3.748,3.748,0,0,0,3.76,2.888c1.068.009,2.135,0,3.2,0h.425c.006.147.017.27.017.393q0,3.074,0,6.149a3.767,3.767,0,0,1-3.959,3.951q-3.573,0-7.145,0a3.762,3.762,0,0,1-3.93-3.908q-.011-5.095,0-10.189a3.762,3.762,0,0,1,3.937-3.9q1.6,0,3.2,0Zm-.036,14.254c.973,0,1.947.006,2.92,0,.591,0,.942-.387.85-.9-.068-.386-.387-.606-.9-.607q-2.833,0-5.665,0a1.757,1.757,0,0,0-.211.008.735.735,0,0,0-.7.738.734.734,0,0,0,.684.754,2.412,2.412,0,0,0,.316.011Zm.073-4.5v0c-1,0-1.994-.006-2.99,0a.724.724,0,0,0-.788.818.751.751,0,0,0,.838.671q2.9,0,5.805,0c.047,0,.094,0,.141,0a.738.738,0,0,0,.7-.771.7.7,0,0,0-.718-.711C634.4-467.632,633.408-467.623,632.411-467.623Zm-2.293-1.522c.269,0,.54.014.808,0a.708.708,0,0,0,.685-.706.711.711,0,0,0-.663-.766c-.549-.026-1.1-.026-1.651,0a.714.714,0,0,0-.668.762.707.707,0,0,0,.681.711C629.578-469.131,629.848-469.146,630.118-469.145Z" transform="translate(-608.373 492.383)" fill="#da902a"/>
  <path id="Path_1757" data-name="Path 1757" d="M726.283-465.957h-1.7c-.493,0-.986.007-1.479,0a2.192,2.192,0,0,1-2.256-2.1c-.059-1.1-.015-2.2-.014-3.3,0-.017.024-.034.015-.023Z" transform="translate(-695.328 486.951)" fill="#da902a"/>
</svg>
