<svg xmlns="http://www.w3.org/2000/svg" width="173.93" height="173.56" viewBox="0 0 173.93 173.56">
    <path data-name="Path 1750" d="M1500.356 825.32a19.092 19.092 0 0 0-8.448-28.518 19.092 19.092 0 0 0-18.112-23.6 19.084 19.084 0 0 0-25.356-15.539 19.092 19.092 0 0 0-29.246-5.42 19.093 19.093 0 0 0-30.441 8.118 19.092 19.092 0 0 0-27.264 15.791 19.084 19.084 0 0 0-16.845 24.508 19.093 19.093 0 0 0-6.943 28.922 19.092 19.092 0 0 0 3.883 29.489 19.092 19.092 0 0 0 14.2 26.139 19.084 19.084 0 0 0 22.613 19.315 19.092 19.092 0 0 0 28.038 9.928 19.093 19.093 0 0 0 29.733-.78 19.092 19.092 0 0 0 27.48-11.388 19.084 19.084 0 0 0 21.572-20.475 19.084 19.084 0 0 0 12.8-26.842 19.092 19.092 0 0 0 2.333-29.652z" transform="translate(-1332.421 -747.631)" style="fill:#da902a"/>
    <path data-name="Path 1751" d="m1476.16 947.606-30.536-30.52 9.651-9.656 20.583 20.57 43.764-46.522 9.944 9.355z" transform="translate(-1399.442 -826.877)" style="fill:#fff"/>
</svg>
