<svg xmlns="http://www.w3.org/2000/svg" width="48" height="32" viewBox="0 0 48 32">
    <rect data-name="Rectangle 3024" width="48" height="32" rx="8" style="fill:#fff"/>
    <path data-name="Path 8" d="M12.936 27.728c-.787-.9-2.25-1.35-4.275-1.35H3.037a.965.965 0 0 0-.787.675L0 41.789a.515.515 0 0 0 .45.562h3.487l.9-5.512v.225a.965.965 0 0 1 .787-.675h1.688c3.262 0 5.737-1.35 6.524-5.062v-.337a3.929 3.929 0 0 0-.9-3.262" transform="translate(16.467 -19.379)" style="fill:#263b80"/>
    <path data-name="Path 9" d="M13.724 30.99v.337c-.787 3.825-3.262 5.062-6.524 5.062H5.512a.965.965 0 0 0-.787.675L3.6 43.927a.412.412 0 0 0 .45.45h2.924a.63.63 0 0 0 .675-.562V43.7l.562-3.487v-.225a.63.63 0 0 1 .675-.562h.45c2.812 0 5.062-1.125 5.624-4.5a4.136 4.136 0 0 0-.562-3.375 1.152 1.152 0 0 0-.675-.562" transform="translate(16.467 -19.379)" style="fill:#139ad6"/>
    <path data-name="Path 10" d="M12.936 30.653c-.112 0-.225-.112-.337-.112a.413.413 0 0 1-.337-.112 5.943 5.943 0 0 0-1.462-.112H6.412a.413.413 0 0 0-.337.112.619.619 0 0 0-.337.562l-.9 5.849v.225a.965.965 0 0 1 .787-.675h1.687c3.262 0 5.737-1.35 6.524-5.062a.413.413 0 0 1 .112-.337c-.225-.112-.337-.225-.562-.225-.337-.112-.337-.112-.45-.112" transform="translate(16.467 -19.379)" style="fill:#232c65"/>
</svg>
