<svg id="pro_card" xmlns="http://www.w3.org/2000/svg" width="18" height="17.661" viewBox="0 0 18 17.661">
    <defs>
        <style>
            .cls-1{fill:#575171}
        </style>
    </defs>
    <path id="Path_1791" data-name="Path 1791" class="cls-1" d="M-783.034-1858.325c-.127-.119-.257-.235-.38-.358q-2.217-2.214-4.432-4.431a1.741 1.741 0 0 1 0-2.656l8.267-8.265a1.778 1.778 0 0 1 2.683 0q2.593 2.591 5.184 5.184a1.743 1.743 0 0 1 0 2.657l-7.741 7.74c-.05.05-.1.1-.173.185h8.145a.642.642 0 0 1 .664.854.624.624 0 0 1-.555.428 1.774 1.774 0 0 1-.2 0h-16.411a1.394 1.394 0 0 1-.28-.015.644.644 0 0 1-.509-.7.64.64 0 0 1 .642-.573c.623-.005 1.245 0 1.868 0h3.207zm6.784-13.307-9.169 9.167a1.267 1.267 0 0 1 .161.121q1.749 1.745 3.495 3.492c.338.338.544.339.879 0l8.251-8.249c.33-.33.329-.53 0-.863q-1.754-1.754-3.506-3.509a.849.849 0 0 1-.112-.159zm-.982-.952c-.177-.168-.373-.348-.562-.534-.346-.341-.539-.344-.877-.006l-8.263 8.261a1.539 1.539 0 0 0-.137.146.408.408 0 0 0 .006.552c.233.247.486.475.716.7z" transform="translate(788.78 1874.647)"/>
    <path id="Path_1792" data-name="Path 1792" class="cls-1" d="M-638.343-1653.109a.748.748 0 0 1-.616-.416.62.62 0 0 1 .133-.719c.421-.428.848-.85 1.272-1.274.311-.311.621-.624.934-.933a.639.639 0 0 1 .944-.028.637.637 0 0 1-.037.93c-.729.733-1.458 1.467-2.2 2.189a2.026 2.026 0 0 1-.43.251z" transform="translate(646.088 1666.96)"/>
</svg>
