<svg id="pro_logout" xmlns="http://www.w3.org/2000/svg" width="18" height="17.957" viewBox="0 0 18 17.957">
    <defs>
        <style>
            .cls-1{fill:#575171}
        </style>
    </defs>
    <path id="Path_1782" data-name="Path 1782" class="cls-1" d="M-774.089 526.482a7.312 7.312 0 0 0-2.479-5.6.942.942 0 0 1-.356-1.007.887.887 0 0 1 1.467-.412 8.9 8.9 0 0 1 2.5 3.485 9.053 9.053 0 0 1-6.061 12.127 8.9 8.9 0 0 1-9.978-4.145 8.819 8.819 0 0 1 .561-10.039 10.5 10.5 0 0 1 1.267-1.372.876.876 0 0 1 1.294.031.9.9 0 0 1-.09 1.3 7.261 7.261 0 0 0-1.942 2.685 7.223 7.223 0 0 0 5.417 9.927 7.151 7.151 0 0 0 8.28-5.9c.069-.413.093-.827.12-1.08z" transform="translate(790.298 -517.414)"/>
    <path id="Path_1783" data-name="Path 1783" class="cls-1" d="M-615.617 485.279v3.559a.893.893 0 0 1-1.187.888.876.876 0 0 1-.6-.789c-.011-.245-.005-.491-.005-.737v-6.423a1.5 1.5 0 0 1 .037-.4.883.883 0 0 1 .987-.636.872.872 0 0 1 .763.869c.008 1.221 0 2.443 0 3.664z" transform="translate(625.528 -480.738)"/>
</svg>
