<svg id="pro_fav" xmlns="http://www.w3.org/2000/svg" width="18" height="19.742" viewBox="0 0 18 19.742">
    <defs>
        <style>
            .cls-1{fill:#575171}
        </style>
    </defs>
    <path id="Path_1788" data-name="Path 1788" class="cls-1" d="M-786.027-737.677c-.137-.03-.275-.057-.411-.091a3.071 3.071 0 0 1-2.333-2.906c-.016-.668 0-1.336 0-2v-11.565a3.026 3.026 0 0 1 1.757-2.871 2.768 2.768 0 0 1 1.282-.3h11.912a3.05 3.05 0 0 1 3.029 2.961c.027 1.111.008 2.223.009 3.335v6.4a.768.768 0 0 1-.668.846.755.755 0 0 1-.854-.628 1.864 1.864 0 0 1-.019-.307v-9.426a1.537 1.537 0 0 0-1.125-1.581 1.491 1.491 0 0 0-.379-.057c-.854-.005-1.709 0-2.564 0-.031 0-.062 0-.118.007v4.067a1.309 1.309 0 0 1-.046.38.764.764 0 0 1-1.1.433q-.977-.477-1.947-.969a.332.332 0 0 0-.338 0c-.612.311-1.243.586-1.84.923a.818.818 0 0 1-1.268-.779c.029-1.272.008-2.544.008-3.816v-.245H-785.622a1.53 1.53 0 0 0-1.606 1.6q-.005 6.727 0 13.454a1.532 1.532 0 0 0 1.617 1.6h11.642a1.533 1.533 0 0 0 1.643-1.54.775.775 0 0 1 .462-.721.735.735 0 0 1 .767.08.751.751 0 0 1 .315.629 3.093 3.093 0 0 1-2.584 3.053c-.056.008-.11.026-.165.04zm4.538-18.193v2.956c.436-.215.854-.41 1.26-.626a.887.887 0 0 1 .9 0c.357.189.722.362 1.085.54.054.027.112.047.175.074v-2.944z" transform="translate(788.78 757.419)"/>
    <path id="Path_1789" data-name="Path 1789" class="cls-1" d="M-685.045-593.81c.233-.613-.1-1.027-.449-1.44a1.946 1.946 0 0 1-.518-.968 1.458 1.458 0 0 1 .922-1.6c.366-.133.747-.223 1.117-.347a.584.584 0 0 0 .266-.189c.2-.266.379-.548.569-.821a1.475 1.475 0 0 1 2.5 0c.187.267.361.545.56.8a.661.661 0 0 0 .295.209c.332.115.675.2 1.009.309a1.467 1.467 0 0 1 .752 2.264c-.21.3-.45.576-.659.874a.621.621 0 0 0-.1.329c-.006.365.02.73.015 1.1a1.464 1.464 0 0 1-1.93 1.38c-.335-.108-.66-.246-1-.347a.7.7 0 0 0-.382 0c-.336.1-.662.238-1 .344a1.46 1.46 0 0 1-1.907-1.129 4.65 4.65 0 0 1-.007-.786zm.6-2.6c.193.252.354.5.554.713a1.6 1.6 0 0 1 .452 1.4 6.512 6.512 0 0 0-.007.89c.37-.131.732-.239 1.078-.385a1.2 1.2 0 0 1 .983 0c.347.143.707.253 1.049.374 0-.436.007-.858 0-1.28a.991.991 0 0 1 .218-.677c.2-.249.391-.507.586-.761l.215-.283c-.435-.128-.838-.25-1.244-.364a.968.968 0 0 1-.578-.413c-.2-.311-.418-.614-.628-.92a2.633 2.633 0 0 0-.117-.157c-.25.364-.487.7-.711 1.04a1.038 1.038 0 0 1-.634.46c-.407.11-.8.236-1.221.361z" transform="translate(690.886 607.309)"/>
</svg>
