<svg id="pro_shipadd" xmlns="http://www.w3.org/2000/svg" width="17.999" height="17.955" viewBox="0 0 17.999 17.955">
    <defs>
        <style>
            .cls-1{fill:#575171}
        </style>
    </defs>
    <path id="Path_1784" data-name="Path 1784" class="cls-1" d="M-636.458 47.745c-.118-.03-.237-.056-.353-.091a1.917 1.917 0 0 1-1.359-1.882c-.005-.65 0-1.3 0-1.951v-.232l-.393.349-.945-1.035 5.465-4.985 1.384 1.262 4.025 3.672a.5.5 0 0 0 .057.039v.035l-.951 1.007-.388-.348v.209c0 .685.007 1.371 0 2.056a1.911 1.911 0 0 1-1.365 1.807c-.117.034-.236.059-.354.088zm2.42-7.92a.576.576 0 0 0-.053.037q-1.3 1.184-2.6 2.372a.32.32 0 0 0-.077.214q-.007 1.644 0 3.288c0 .409.194.6.608.6h4.238c.411 0 .6-.19.6-.6v-3.271a.328.328 0 0 0-.12-.271q-1.056-.955-2.106-1.918z" transform="translate(646.577 -29.79)"/>
    <path id="Path_1785" data-name="Path 1785" class="cls-1" d="m-775.968-127.558-.1-.077c-.4-.363-.8-.724-1.192-1.092a.371.371 0 0 1-.108-.2 5.736 5.736 0 0 0-1.4-3.106 5.655 5.655 0 0 0-3.5-1.912 5.6 5.6 0 0 0-3.521.591 5.625 5.625 0 0 0-2.694 2.983 5.841 5.841 0 0 0 .332 5.048 18.139 18.139 0 0 0 3.143 4.2c.569.589 1.176 1.142 1.77 1.706a.337.337 0 0 1 .121.272c-.006.537 0 1.075 0 1.66-.17-.137-.31-.245-.445-.359a27.281 27.281 0 0 1-4.785-5.118 10.368 10.368 0 0 1-1.825-3.9 6.953 6.953 0 0 1 .241-3.636 7.069 7.069 0 0 1 2.175-3.215 7.066 7.066 0 0 1 3.68-1.644 7.015 7.015 0 0 1 3.681.473 7.1 7.1 0 0 1 2.9 2.184 7.2 7.2 0 0 1 1.479 3.349 6.681 6.681 0 0 1 .048 1.793z" transform="translate(790.298 135.423)"/>
    <path id="Path_1786" data-name="Path 1786" class="cls-1" d="M-697.466-45.744a2.976 2.976 0 0 1 2.984 2.981 2.975 2.975 0 0 1-2.972 2.976 2.976 2.976 0 0 1-2.984-2.981 2.975 2.975 0 0 1 2.972-2.976zm1.579 2.984a1.574 1.574 0 0 0-1.572-1.58 1.575 1.575 0 0 0-1.576 1.559 1.577 1.577 0 0 0 1.563 1.589 1.576 1.576 0 0 0 1.585-1.568z" transform="translate(704.655 49.952)"/>
    <path id="Path_1787" data-name="Path 1787" class="cls-1" d="M-542.938 143.829h-2.079v-2.092h2.079z" transform="translate(556.532 -128.725)"/>
</svg>
