<svg xmlns="http://www.w3.org/2000/svg" width="18" height="18.002" viewBox="0 0 18 18.002">
    <path data-name="Path 1781" d="M-790.3-2356.128v-.562a.23.23 0 0 0 .028-.062l.182-1.357.549-4.09.543-4.055.194-1.439h3.99v-.962a5.5 5.5 0 0 1 .04-.666 3.527 3.527 0 0 1 3.234-2.971 3.5 3.5 0 0 1 3.607 2.522 5.481 5.481 0 0 1 .144 1.073c.023.33.005.663.005 1.012h3.979a.313.313 0 0 1 .02.051l.743 5.534c.241 1.8.475 3.6.721 5.4a2.119 2.119 0 0 1-1.54 2.333l-.266.073h-14.343c-.037-.012-.074-.028-.112-.037a2.094 2.094 0 0 1-1.628-1.476c-.034-.108-.059-.215-.09-.321zm2.723-10.152-.133 1.011-.583 4.333c-.194 1.445-.383 2.89-.581 4.334a.716.716 0 0 0 .773.9h13.622a.71.71 0 0 0 .756-.88c-.021-.133-.035-.267-.053-.4l-.541-4.038-.549-4.09c-.052-.387-.1-.774-.158-1.163h-2.766v2.125h-1.4v-2.123h-4.221v2.12h-1.409v-2.125zm8.387-1.421v-1.118a2.119 2.119 0 0 0-1.678-2.031 2.132 2.132 0 0 0-2.328 1.144 4.855 4.855 0 0 0-.215 2.005z" transform="translate(790.298 2372.301)" style="fill:#575171"/>
</svg>
