<svg xmlns="http://www.w3.org/2000/svg" width="18" height="12.375" viewBox="0 0 18 12.375">
    <path data-name="Path 1790" d="M-772.3-1231.466a1.939 1.939 0 0 1-.363.807 1.618 1.618 0 0 1-1.293.6h-12.634a1.625 1.625 0 0 1-1.739-1.732v-2.759a.56.56 0 0 1 .495-.568.564.564 0 0 1 .614.438.962.962 0 0 1 .014.209v2.707a.51.51 0 0 0 .582.58h.533v-5.13l-.643-.417c-.346.227-.694.475-1.062.688a3.251 3.251 0 0 1-.71.3 1.138 1.138 0 0 1-1.385-.542 2.943 2.943 0 0 1-.391-1.3 3.446 3.446 0 0 1 .272-1.768 1.219 1.219 0 0 1 1.684-.713 2.861 2.861 0 0 1 .526.24c.363.222.715.463 1.061.689.189-.114.393-.236.594-.362a.185.185 0 0 0 .062-.089.252.252 0 0 0 0-.087v-1.626a4.034 4.034 0 0 0-.694.011.653.653 0 0 0-.36.242.585.585 0 0 1-.819.212.57.57 0 0 1-.137-.82 1.581 1.581 0 0 1 1.412-.773h12.636a1.614 1.614 0 0 1 1.717 1.342.464.464 0 0 0 .026.064zm-12.644-4.849v5.131h10.922c.416 0 .6-.182.6-.6V-1237.362h-7.352a1.128 1.128 0 0 1-.032.143 6.18 6.18 0 0 1-.368.959 1.07 1.07 0 0 1-1.342.511 6.714 6.714 0 0 1-1.105-.521 6.437 6.437 0 0 1-.66-.473zm11.519-2.186v-2.189c0-.44-.176-.616-.617-.616h-10.909v1.75l.678.441c.035-.029.079-.068.124-.1a4.586 4.586 0 0 1 1.63-.907 1.123 1.123 0 0 1 1.348.518 3.8 3.8 0 0 1 .293.672 3.787 3.787 0 0 1 .109.436zm-8.428.738a2.883 2.883 0 0 0-.216-1.173.149.149 0 0 0-.221-.091 3.8 3.8 0 0 0-1.433.955.175.175 0 0 0 .006.283 3.819 3.819 0 0 0 1.419.946c.117.046.2.021.23-.1.091-.323.168-.65.216-.821zm-7.373-.176c.085.335.164.662.251.987.033.122.112.159.241.108a3.837 3.837 0 0 0 1.417-.949.175.175 0 0 0 0-.282 3.841 3.841 0 0 0-1.417-.948c-.13-.051-.208-.012-.241.109-.086.314-.164.638-.249.974zm4.27.008a.567.567 0 0 0-.554-.565.567.567 0 0 0-.569.55.566.566 0 0 0 .563.574.567.567 0 0 0 .561-.56z" transform="translate(790.298 1242.435)" style="fill:#575171"/>
</svg>
