<svg xmlns="http://www.w3.org/2000/svg" width="22.757" height="25" viewBox="0 0 22.757 25">
    <defs>
        <style>
            .cls-3{fill:#575171;stroke:transparent}
        </style>
    </defs>
    <g id="profile" transform="translate(.502 .5)">
        <path id="Path_1770" data-name="Path 1770" d="M-419.375-340.14a8.718 8.718 0 0 0-2.794-4.265 1.194 1.194 0 0 1-.484-1.083 1.106 1.106 0 0 1 .586-.9 7.355 7.355 0 0 0-1.821-1.841 6.687 6.687 0 0 1-2.6 1.145 6.748 6.748 0 0 1-5.491-1.3 3.711 3.711 0 0 0-1.752 1.934 1.145 1.145 0 0 1 .437.323 1.166 1.166 0 0 1-.155 1.675 8.829 8.829 0 0 0-2.836 4.3.939.939 0 0 0 .983 1.335h10.8a1.173 1.173 0 0 1 1.223.914 1.222 1.222 0 0 1 .029.259h1.874a1.167 1.167 0 0 1 1.085-1.167.928.928 0 0 0 .916-1.329z" transform="translate(438.695 360.469)" style="fill:#f6f1eb"/>
        <path id="Path_1774" data-name="Path 1774" d="M-365.042-498.444a4.418 4.418 0 0 1-4.413-4.439 4.422 4.422 0 0 1 4.427-4.4 4.426 4.426 0 0 1 4.413 4.442 4.414 4.414 0 0 1-4.427 4.397z" transform="translate(375.894 509.631)" style="fill:#f5f0ea"/>
        <path id="Path_1760" data-name="Path 1760" class="cls-3" d="M-400.427-1088.815c.328.061.659.108.983.184a6.762 6.762 0 0 1 5.2 6.751 6.78 6.78 0 0 1-5.409 6.473 6.782 6.782 0 0 1-8.03-5.617 6.778 6.778 0 0 1 5.974-7.75 1.036 1.036 0 0 0 .155-.04zm-.574 11.187a4.41 4.41 0 0 0 4.42-4.4 4.422 4.422 0 0 0-4.406-4.442 4.418 4.418 0 0 0-4.42 4.4 4.415 4.415 0 0 0 4.407 4.442z" transform="translate(411.859 1088.815)"/>
        <path id="Path_1761" data-name="Path 1761" class="cls-3" d="M-465.821-851.612h-5.349a3.213 3.213 0 0 1-3.3-2.812 3.41 3.41 0 0 1 .09-1.342 10.89 10.89 0 0 1 3.609-5.6 1.17 1.17 0 0 1 1.678.105 1.165 1.165 0 0 1-.155 1.675 8.83 8.83 0 0 0-2.84 4.3.939.939 0 0 0 .984 1.336h10.815a1.174 1.174 0 0 1 1.225.914 1.165 1.165 0 0 1-1.171 1.43c-1.525.005-3.05 0-4.575 0z" transform="translate(474.504 875.61)"/>
        <path id="Path_1762" data-name="Path 1762" class="cls-3" d="M-207.5-855.124a3.27 3.27 0 0 1-3.259 3.3 1.159 1.159 0 0 1-1.174-1.124 1.168 1.168 0 0 1 1.085-1.216.928.928 0 0 0 .918-1.33 8.717 8.717 0 0 0-2.8-4.265 1.2 1.2 0 0 1-.484-1.083 1.114 1.114 0 0 1 .741-.971 1.136 1.136 0 0 1 1.2.214 11 11 0 0 1 1.961 2.1 10.646 10.646 0 0 1 1.768 3.92 1.093 1.093 0 0 1 .023.162c.012.117.016.238.021.293z" transform="translate(229.258 875.821)"/>
    </g>
</svg>
