<svg id="trac_placed" xmlns="http://www.w3.org/2000/svg" width="45" height="45" viewBox="0 0 45 45">
  <g id="Rectangle_3014" data-name="Rectangle 3014" fill="#f47329" stroke="#f47329" stroke-width="1">
    <rect width="45" height="45" rx="22.5" stroke="none"/>
    <rect x="0.5" y="0.5" width="44" height="44" rx="22" fill="none"/>
  </g>
  <path id="Path_1793" data-name="Path 1793" d="M-466.005-585.736c.469.3.943.591,1.4.9s.9.644,1.351.958a1.43,1.43,0,0,1,.677,1.009c.007.053.134.128.206.13.469.012.938,0,1.406.006a2.131,2.131,0,0,1,2.246,2.257q0,9.1,0,18.208a2.137,2.137,0,0,1-2.255,2.252q-6.743,0-13.487,0a2.138,2.138,0,0,1-2.256-2.251q0-9.1,0-18.208a2.131,2.131,0,0,1,2.245-2.258c.469,0,.938,0,1.406,0,.139,0,.208-.027.225-.186a1.19,1.19,0,0,1,.519-.854q1.212-.872,2.432-1.734a3.485,3.485,0,0,1,.463-.234Zm6.435,14.37q0-4.583,0-9.167a1.27,1.27,0,0,0-1.339-1.34c-.511,0-1.021,0-1.532,0a.257.257,0,0,0-.274.155,1.258,1.258,0,0,1-1.186.7q-3.818,0-7.635,0a1.247,1.247,0,0,1-1.166-.693.276.276,0,0,0-.294-.164c-.477.006-.954,0-1.432,0a1.288,1.288,0,0,0-1.426,1.43q0,9.067,0,18.133a1.3,1.3,0,0,0,1.444,1.443h13.387a1.3,1.3,0,0,0,1.456-1.456Q-459.57-566.845-459.57-571.366Zm-8.156-10.508c1.246,0,2.493.007,3.739-.009a.709.709,0,0,0,.476-.2.879.879,0,0,0-.186-1.055c-.74-.531-1.478-1.066-2.228-1.584a.928.928,0,0,0-.484-.153q-1.3-.022-2.61,0a.93.93,0,0,0-.483.155c-.709.488-1.4,1.007-2.111,1.49a.783.783,0,0,0-.39.77c.027.449.14.585.587.585Z" transform="translate(490.713 595.736)" fill="#fff"/>
  <path id="Path_1794" data-name="Path 1794" d="M-444.008-399.694v3.427h3.436c0-.258,0-.515,0-.772,0-.323.161-.516.422-.519s.434.2.438.509c0,.261.007.522,0,.783a.856.856,0,0,1-.865.87q-1.718.014-3.436,0a.828.828,0,0,1-.867-.835q-.025-1.756,0-3.512a.806.806,0,0,1,.824-.821c.7-.02,1.4-.013,2.1,0a.415.415,0,0,1,.449.438.422.422,0,0,1-.47.419c-.581.008-1.162,0-1.743,0C-443.816-399.706-443.906-399.7-444.008-399.694Z" transform="translate(461.043 422.984)" fill="#fff"/>
  <path id="Path_1795" data-name="Path 1795" d="M-444.022-310.214v3.432h3.438c0-.273,0-.532,0-.791,0-.3.168-.486.426-.487a.433.433,0,0,1,.433.484c.005.269.008.539,0,.808a.845.845,0,0,1-.87.859q-1.718.011-3.435,0a.819.819,0,0,1-.865-.833q-.024-1.743,0-3.486a.831.831,0,0,1,.879-.847c.665-.005,1.33,0,2,0,.318,0,.5.171.5.441s-.188.417-.5.419c-.581,0-1.162,0-1.743,0Z" transform="translate(461.055 339.469)" fill="#fff"/>
  <path id="Path_1796" data-name="Path 1796" d="M-444.01-489.094v3.43h3.442c0-.258,0-.517,0-.775,0-.312.154-.49.414-.5s.441.178.446.5c0,.261.007.522,0,.783a.842.842,0,0,1-.858.871q-1.73.015-3.46,0a.811.811,0,0,1-.85-.819q-.025-1.768,0-3.536a.82.82,0,0,1,.861-.811c.673-.007,1.347,0,2.021,0a.429.429,0,0,1,.487.428.427.427,0,0,1-.483.431C-442.652-489.091-443.316-489.094-444.01-489.094Z" transform="translate(461.039 506.377)" fill="#fff"/>
  <path id="Path_1797" data-name="Path 1797" d="M-424.329-308.507l2.591-2.22a1.276,1.276,0,0,1,.221-.167.391.391,0,0,1,.5.091.4.4,0,0,1,.035.532.982.982,0,0,1-.177.178q-1.4,1.2-2.8,2.4c-.3.261-.485.255-.765-.022-.245-.243-.491-.486-.732-.733a.428.428,0,0,1-.042-.647.425.425,0,0,1,.647.037C-424.672-308.887-424.512-308.7-424.329-308.507Z" transform="translate(443.045 339.348)" fill="#fff"/>
  <path id="Path_1798" data-name="Path 1798" d="M-424.33-487.537l2.575-2.207c.045-.038.088-.079.134-.115a.438.438,0,0,1,.649.024.429.429,0,0,1-.083.624c-.392.344-.79.681-1.186,1.02q-.852.731-1.705,1.461c-.323.275-.5.265-.8-.039-.238-.238-.479-.473-.713-.715a.426.426,0,0,1-.028-.647.422.422,0,0,1,.629.034C-424.68-487.922-424.514-487.733-424.33-487.537Z" transform="translate(443.047 506.41)" fill="#fff"/>
  <path id="Path_1799" data-name="Path 1799" d="M-424.33-398.163l2.517-2.159c.083-.071.163-.146.252-.21a.418.418,0,0,1,.588.06.417.417,0,0,1-.034.59c-.15.146-.316.278-.475.414L-423.9-397.4c-.372.319-.529.314-.874-.031-.226-.226-.454-.45-.677-.679a.428.428,0,0,1-.044-.646.437.437,0,0,1,.648.037C-424.672-398.546-424.513-398.362-424.33-398.163Z" transform="translate(443.041 423.039)" fill="#fff"/>
  <path id="Path_1800" data-name="Path 1800" d="M-320.756-304.725c.657,0,1.313,0,1.97,0a1.129,1.129,0,0,1,.3.027.391.391,0,0,1,.3.414.389.389,0,0,1-.3.393,1.1,1.1,0,0,1-.3.029q-1.983,0-3.965,0c-.059,0-.118,0-.177,0a.422.422,0,0,1-.424-.439.416.416,0,0,1,.419-.417c.134-.011.269-.006.4-.006Z" transform="translate(347.594 333.584)" fill="#fff"/>
  <path id="Path_1801" data-name="Path 1801" d="M-320.755-457.93c.682,0,1.364,0,2.046,0,.329,0,.518.156.523.417s-.2.443-.53.444q-2.059,0-4.117,0c-.326,0-.514-.16-.519-.425s.181-.435.526-.436C-322.135-457.931-321.445-457.93-320.755-457.93Z" transform="translate(347.6 476.508)" fill="#fff"/>
  <path id="Path_1802" data-name="Path 1802" d="M-320.759-394.116c.682,0,1.364,0,2.046,0,.332,0,.536.173.529.441s-.2.419-.524.419q-2.059,0-4.118,0c-.342,0-.529-.161-.524-.44s.189-.419.519-.42C-322.14-394.117-321.45-394.116-320.759-394.116Z" transform="translate(347.598 416.975)" fill="#fff"/>
  <path id="Path_1803" data-name="Path 1803" d="M-320.781-367.748c-.682,0-1.364,0-2.046,0-.343,0-.53-.159-.525-.437s.192-.422.519-.423q2.059,0,4.118,0c.331,0,.536.175.529.443s-.2.417-.524.418C-319.4-367.746-320.091-367.748-320.781-367.748Z" transform="translate(347.6 393.18)" fill="#fff"/>
  <path id="Path_1804" data-name="Path 1804" d="M-320.833-279.094c.69,0,1.381,0,2.071,0,.341,0,.537.166.531.436s-.2.425-.523.425q-2.071,0-4.142,0a.44.44,0,0,1-.485-.319.382.382,0,0,1,.188-.476.778.778,0,0,1,.339-.065C-322.181-279.1-321.507-279.094-320.833-279.094Z" transform="translate(347.645 309.646)" fill="#fff"/>
  <path id="Path_1805" data-name="Path 1805" d="M-320.78-483.543c.69,0,1.381-.009,2.071.007a.679.679,0,0,1,.426.159.405.405,0,0,1-.194.666.958.958,0,0,1-.274.031q-2.008,0-4.016,0a1.354,1.354,0,0,1-.176-.007.418.418,0,0,1-.4-.436.406.406,0,0,1,.418-.415c.3-.013.606-.006.909-.006Z" transform="translate(347.592 500.404)" fill="#fff"/>
  <path id="Path_1806" data-name="Path 1806" d="M-321.846-432.394c.344,0,.689,0,1.033,0,.294,0,.463.157.47.412a.425.425,0,0,1-.467.446q-1.033.009-2.065,0a.425.425,0,0,1-.47-.443.418.418,0,0,1,.468-.415C-322.534-432.4-322.19-432.394-321.846-432.394Z" transform="translate(347.627 452.686)" fill="#fff"/>
  <path id="Path_1807" data-name="Path 1807" d="M-321.86-342.248c-.337,0-.674,0-1.011,0-.306,0-.482-.169-.479-.432a.424.424,0,0,1,.465-.426q1.036-.011,2.072,0a.423.423,0,0,1,.466.45c-.009.253-.18.4-.477.408C-321.169-342.244-321.514-342.248-321.86-342.248Z" transform="translate(347.631 369.395)" fill="#fff"/>
  <path id="Path_1808" data-name="Path 1808" d="M-321.846-253.536c.344,0,.688,0,1.033,0,.294,0,.464.157.471.411a.425.425,0,0,1-.466.447q-1.032.01-2.065,0a.426.426,0,0,1-.471-.442.417.417,0,0,1,.466-.416C-322.535-253.54-322.191-253.536-321.846-253.536Z" transform="translate(347.627 285.814)" fill="#fff"/>
  <path id="Path_1809" data-name="Path 1809" d="M-360.454-552.9c-.27,0-.539,0-.809,0a.445.445,0,0,1-.494-.429.432.432,0,0,1,.485-.43q.809-.007,1.617,0a.431.431,0,0,1,.48.409.437.437,0,0,1-.472.449C-359.915-552.892-360.185-552.9-360.454-552.9Z" transform="translate(383.465 565.922)" fill="#fff"/>
</svg>
