<svg id="trac_deliver_green" xmlns="http://www.w3.org/2000/svg" width="45" height="45" viewBox="0 0 45 45">
  <rect id="Rectangle_3014" data-name="Rectangle 3014" width="45" height="45" rx="22.5" fill="#0db146"/>
  <path id="Path_1838" data-name="Path 1838" d="M1587.043-535.467c.012-.033.026-.065.036-.1a1.05,1.05,0,0,1,1.044-.78c.943,0,1.886,0,2.829,0h7.082a1.065,1.065,0,0,1,1.169,1.164q0,1.072,0,2.144v.207h.2c.879,0,1.757.005,2.636,0a1.1,1.1,0,0,1,1.083.661q.871,1.752,1.752,3.5a1.42,1.42,0,0,1,.164.689c-.012.591,0,1.183,0,1.775a1.065,1.065,0,0,1-.6,1.012.2.2,0,0,0-.1.137,2.2,2.2,0,0,1-.526,1.353c.058.007.1.015.143.015.24,0,.48,0,.72,0a.35.35,0,0,1,.362.351.356.356,0,0,1-.365.35c-.035,0-.07,0-.105,0q-8.523,0-17.046,0a.48.48,0,0,1-.478-.249v-.211a.472.472,0,0,1,.477-.25c.65.011,1.3,0,1.949,0h.221a2.2,2.2,0,0,1-.544-1.406c-.359,0-.709.006-1.059,0a1.006,1.006,0,0,1-.878-.494,2.712,2.712,0,0,1-.167-.383ZM1598.5-525.8v-.184q0-4.594,0-9.188c0-.358-.113-.469-.475-.469h-9.8c-.37,0-.477.109-.477.484q0,3.171,0,6.342v.2c.345,0,.671,0,1,0a.361.361,0,0,1,.408.412c0,.351,0,.7,0,1.054,0,.594-.048.642-.636.642h-.77c0,.1,0,.179,0,.255,0,.325.121.447.444.448.3,0,.609,0,.913,0a.212.212,0,0,0,.232-.148,2.023,2.023,0,0,1,1.912-1.253,2.021,2.021,0,0,1,1.934,1.246.227.227,0,0,0,.245.156q2.442-.007,4.884,0Zm5.679-.1.068.009a1.343,1.343,0,0,0,.083-.317c.009-.527,0-1.054,0-1.582a1.034,1.034,0,0,0-.015-.123h-3.963c-.329,0-.45-.119-.45-.441q0-1.318,0-2.636c0-.315.122-.437.435-.437h2.367c-.079-.161-.149-.289-.206-.422a.437.437,0,0,0-.454-.284c-.89.007-1.781,0-2.671,0h-.165v6.327c.295,0,.581-.006.866,0a.2.2,0,0,0,.218-.142,2.1,2.1,0,0,1,3.159-.867A2.165,2.165,0,0,1,1604.18-525.9Zm-11.335,2.19h7.8a2.2,2.2,0,0,1-.532-1.376h-6.739A2.178,2.178,0,0,1,1592.846-523.709Zm7.779-7.013v2.1h3.486c-.343-.687-.676-1.357-1.015-2.023a.181.181,0,0,0-.138-.069C1602.185-530.723,1601.412-530.722,1600.625-530.722Zm-7.959,5.634a1.409,1.409,0,0,0-1.4-1.416,1.409,1.409,0,0,0-1.411,1.386,1.41,1.41,0,0,0,1.391,1.425A1.41,1.41,0,0,0,1592.666-525.088Zm8.155-.016a1.409,1.409,0,0,0,1.4,1.411,1.411,1.411,0,0,0,1.407-1.391,1.41,1.41,0,0,0-1.4-1.42A1.408,1.408,0,0,0,1600.821-525.1Zm-12.38-2.8h-.685v.682h.685Z" transform="translate(-1573.043 552.346)" fill="#fff"/>
  <path id="Path_1839" data-name="Path 1839" d="M1694.347-490.751c-.714,0-1.427,0-2.141,0a.582.582,0,0,1-.317-.109.291.291,0,0,1-.084-.351.335.335,0,0,1,.3-.235c.1-.01.21,0,.316,0h3.983c.053,0,.105,0,.158,0a.355.355,0,0,1,.352.344.348.348,0,0,1-.356.356c-.392.006-.784,0-1.176,0Z" transform="translate(-1672.863 509.564)" fill="#fff"/>
  <path id="Path_1840" data-name="Path 1840" d="M1723.663-461.485h1.438c.264,0,.429.142.424.359s-.165.343-.422.343h-2.876c-.266,0-.429-.14-.424-.359s.163-.343.422-.343Z" transform="translate(-1701.475 481)" fill="#fff"/>
  <path id="Path_1841" data-name="Path 1841" d="M1662.262-490.69a.354.354,0,0,1-.344-.365.354.354,0,0,1,.356-.335.354.354,0,0,1,.344.348A.354.354,0,0,1,1662.262-490.69Z" transform="translate(-1644.402 509.502)" fill="#fff"/>
  <path id="Path_1842" data-name="Path 1842" d="M1662.6-310.36a.7.7,0,0,1-.7-.707.7.7,0,0,1,.706-.7.7.7,0,0,1,.7.706A.705.705,0,0,1,1662.6-310.36Z" transform="translate(-1644.391 338.311)" fill="#fff"/>
  <path id="Path_1843" data-name="Path 1843" d="M1896.155-310.361a.7.7,0,0,1-.71-.695.7.7,0,0,1,.694-.71.705.705,0,0,1,.71.695A.706.706,0,0,1,1896.155-310.361Z" transform="translate(-1866.965 338.311)" fill="#fff"/>
</svg>
