<svg id="trac_ship" xmlns="http://www.w3.org/2000/svg" width="45" height="45" viewBox="0 0 45 45">
  <g id="Rectangle_3014" data-name="Rectangle 3014" fill="#dedede" stroke="#dedede" stroke-width="1">
    <rect width="45" height="45" rx="22.5" stroke="none"/>
    <rect x="0.5" y="0.5" width="44" height="44" rx="22" fill="none"/>
  </g>
  <path id="Path_1830" data-name="Path 1830" d="M1017.4-554.472a.479.479,0,0,1-.478.25c-1.3-.008-2.6,0-3.9,0-.047,0-.094,0-.141,0a.353.353,0,0,1-.33-.347.352.352,0,0,1,.326-.351c.052-.005.105,0,.158,0h3.65v-11.38H1012.9v.191c0,.973,0,1.945,0,2.918a.381.381,0,0,1-.21.407.382.382,0,0,1-.454-.129c-.365-.372-.735-.74-1.1-1.109-.04-.041-.084-.078-.135-.126l-1.023,1.023c-.087.087-.173.175-.261.261a.343.343,0,0,1-.4.079.349.349,0,0,1-.208-.355q0-.949,0-1.9v-1.274c-.3,0-.6.013-.894,0a.316.316,0,0,0-.355.213,3.231,3.231,0,0,1-2.534,1.78v9.4h4.288a1.234,1.234,0,0,1,.175,0,.352.352,0,0,1,.3.337.353.353,0,0,1-.3.356,1.047,1.047,0,0,1-.158.005h-4.552c-.361,0-.472-.111-.472-.473q0-2.083,0-4.166v-.218h-3.5a1.047,1.047,0,0,1-.193-.01.341.341,0,0,1-.29-.378.332.332,0,0,1,.34-.312c.328-.006.656,0,.984,0h2.645v-4.546a3.246,3.246,0,0,1-2.4-1.535,3.13,3.13,0,0,1-.42-2.345,3.246,3.246,0,0,1,3.694-2.569,3.27,3.27,0,0,1,2.709,3.757h.209q4.271,0,8.541,0a.48.48,0,0,1,.478.25Zm-9.9-13.1a2.55,2.55,0,0,0-2.546-2.55,2.55,2.55,0,0,0-2.549,2.547,2.551,2.551,0,0,0,2.546,2.551A2.551,2.551,0,0,0,1007.5-567.568Zm4.685,1.259h-2.373v2.334c.287-.286.555-.552.822-.82.295-.3.434-.3.729,0l.822.823Z" transform="translate(-985.398 584.82)" fill="#fff"/>
  <path id="Path_1831" data-name="Path 1831" d="M1216.625-356.827c.586,0,1.172,0,1.758,0,.294,0,.416.12.417.417q0,.7,0,1.406c0,.3-.128.426-.431.426q-1.749,0-3.5,0c-.3,0-.427-.131-.429-.431q0-.694,0-1.389c0-.313.124-.429.443-.43Zm-1.468,1.532h2.929v-.821h-2.929Z" transform="translate(-1189.178 380.877)" fill="#fff"/>
  <path id="Path_1832" data-name="Path 1832" d="M976.655-287.952h1.632c.262,0,.418.128.422.34s-.162.361-.425.362q-1.632,0-3.263,0c-.313,0-.5-.232-.4-.483a.35.35,0,0,1,.363-.22C975.544-287.951,976.1-287.952,976.655-287.952Z" transform="translate(-960.598 315.236)" fill="#fff"/>
  <path id="Path_1833" data-name="Path 1833" d="M1238.412-287.944c.422,0,.844,0,1.266,0,.246,0,.395.135.394.349a.351.351,0,0,1-.4.352q-1.257,0-2.513,0a.364.364,0,0,1-.4-.355.357.357,0,0,1,.4-.346C1237.58-287.946,1238-287.944,1238.412-287.944Z" transform="translate(-1210.453 315.229)" fill="#fff"/>
  <path id="Path_1834" data-name="Path 1834" d="M1025.814-383.794c.169,0,.339,0,.508,0a.344.344,0,0,1,.354.336.337.337,0,0,1-.316.356c-.373.014-.747.014-1.12,0a.339.339,0,0,1-.312-.36.35.35,0,0,1,.361-.331C1025.464-383.8,1025.639-383.794,1025.814-383.794Z" transform="translate(-1008.564 406.578)" fill="#fff"/>
  <path id="Path_1835" data-name="Path 1835" d="M975.287-383.786c.105,0,.21-.005.315,0a.335.335,0,0,1,.327.3.309.309,0,0,1-.247.368,4.149,4.149,0,0,1-.8,0,.319.319,0,0,1-.255-.366.342.342,0,0,1,.327-.308C975.065-383.791,975.176-383.786,975.287-383.786Z" transform="translate(-960.625 406.57)" fill="#fff"/>
  <path id="Path_1836" data-name="Path 1836" d="M1221.651-232.057a.355.355,0,0,1-.36.35.355.355,0,0,1-.341-.351.354.354,0,0,1,.359-.35A.355.355,0,0,1,1221.651-232.057Z" transform="translate(-1195.383 262.299)" fill="#fff"/>
  <path id="Path_1837" data-name="Path 1837" d="M1074.905-519.166c.245-.249.463-.476.686-.7a.358.358,0,0,1,.54-.046.36.36,0,0,1-.044.541q-.444.449-.893.893a.358.358,0,0,1-.566,0q-.221-.213-.434-.434a.353.353,0,0,1-.029-.515.359.359,0,0,1,.529.023C1074.761-519.335,1074.819-519.262,1074.905-519.166Z" transform="translate(-1055.395 536.398)" fill="#fff"/>
</svg>
