<svg id="trac_comnfirm" xmlns="http://www.w3.org/2000/svg" width="45" height="45" viewBox="0 0 45 45">
  <g id="Rectangle_3014" data-name="Rectangle 3014" fill="#f47329" stroke="#f47329" stroke-width="1">
    <rect width="45" height="45" rx="22.5" stroke="none"/>
    <rect x="0.5" y="0.5" width="44" height="44" rx="22" fill="none"/>
  </g>
  <path id="Path_1810" data-name="Path 1810" d="M-68.655-567.943a2.73,2.73,0,0,0-.057-.573,2.624,2.624,0,0,0-2.664-2.112l-5.232,0h-7.373a2.725,2.725,0,0,0-.4.02,2.585,2.585,0,0,0-2.267,2.674q0,6.692,0,13.382v2.951c0,.425.1.528.535.528h12.355c.434,0,.533-.1.533-.524v-8.653h2.541l1.558,0c.356,0,.476-.123.476-.483v-.691C-68.651-563.562-68.651-565.771-68.655-567.943Zm-4.778-1.713v.009a.281.281,0,0,1-.046.156,2.91,2.91,0,0,0-.478,1.726c0,3.927,0,7.919,0,11.78v4.179h-11.94l-.013-.209-.005-.072c0-.054-.009-.11-.009-.168v-.206q0-7.728,0-15.456a1.866,1.866,0,0,1,1.993-1.989H-73.4Zm4.056,5.716V-561H-73.2l-.012-.209c0-.023,0-.044,0-.065,0-.046-.007-.093-.007-.142v-1.641c0-1.6,0-3.252,0-4.877a1.933,1.933,0,0,1,1.887-1.971h.03a1.942,1.942,0,0,1,1.93,1.989C-69.376-566.589-69.376-565.242-69.377-563.94Z" transform="translate(100.652 583.631)" fill="#fff"/>
  <path id="Path_1811" data-name="Path 1811" d="M-68.655-567.943a2.73,2.73,0,0,0-.057-.573,2.624,2.624,0,0,0-2.664-2.112l-5.232,0h-7.373a2.725,2.725,0,0,0-.4.02,2.585,2.585,0,0,0-2.267,2.674q0,6.692,0,13.382v2.951c0,.425.1.528.535.528h12.355c.434,0,.533-.1.533-.524v-8.653h2.541l1.558,0c.356,0,.476-.123.476-.483v-.691C-68.651-563.562-68.651-565.771-68.655-567.943Zm-4.778-1.713v.009a.281.281,0,0,1-.046.156,2.91,2.91,0,0,0-.478,1.726c0,3.927,0,7.919,0,11.78v4.179h-11.94l-.013-.209-.005-.072c0-.054-.009-.11-.009-.168v-.206q0-7.728,0-15.456a1.866,1.866,0,0,1,1.993-1.989H-73.4Zm4.056,5.716V-561H-73.2l-.012-.209c0-.023,0-.044,0-.065,0-.046-.007-.093-.007-.142v-1.641c0-1.6,0-3.252,0-4.877a1.933,1.933,0,0,1,1.887-1.971h.03a1.942,1.942,0,0,1,1.93,1.989C-69.376-566.589-69.376-565.242-69.377-563.94Z" transform="translate(100.652 583.631)" fill="#fff"/>
  <path id="Path_1812" data-name="Path 1812" d="M-15.773-524.789a.331.331,0,0,0-.242-.111.483.483,0,0,0-.326.158c-.153.15-.3.307-.45.458l-.2.2-.078.081-.112-.016-.036,0a.25.25,0,0,1-.121-.042c-.042-.028-.083-.058-.124-.088a2.715,2.715,0,0,0-1.635-.557,3.01,3.01,0,0,0-.534.049,2.753,2.753,0,0,0-2.251,2.962,2.775,2.775,0,0,0,2.708,2.514h.043a2.752,2.752,0,0,0,2.3-1.24,2.764,2.764,0,0,0,.233-2.617.433.433,0,0,1,.106-.536c.206-.193.409-.4.606-.6l.053-.053A.376.376,0,0,0-15.773-524.789Zm-2.423,4.653a2.017,2.017,0,0,1-.451.167,2.024,2.024,0,0,1-.476.057,2.047,2.047,0,0,1-1.669-.87,2.024,2.024,0,0,1,.252-2.627,2.02,2.02,0,0,1,1.418-.577,1.952,1.952,0,0,1,1.194.4l.2.154L-19.143-522l-.155-.2c-.021-.027-.043-.058-.066-.091a1.409,1.409,0,0,0-.156-.2.4.4,0,0,0-.276-.12.351.351,0,0,0-.249.107.363.363,0,0,0,.011.516c.2.214.43.443.7.7a.42.42,0,0,0,.285.136.423.423,0,0,0,.291-.143c.235-.23.471-.468.7-.7l.375-.375c.036-.036.073-.07.109-.1l.05-.046.254-.234.109.328A1.994,1.994,0,0,1-18.2-520.136Z" transform="translate(39.492 540.445)" fill="#fff"/>
  <path id="Path_1813" data-name="Path 1813" d="M-15.773-524.789a.331.331,0,0,0-.242-.111.483.483,0,0,0-.326.158c-.153.15-.3.307-.45.458l-.2.2-.078.081-.112-.016-.036,0a.25.25,0,0,1-.121-.042c-.042-.028-.083-.058-.124-.088a2.715,2.715,0,0,0-1.635-.557,3.01,3.01,0,0,0-.534.049,2.753,2.753,0,0,0-2.251,2.962,2.775,2.775,0,0,0,2.708,2.514h.043a2.752,2.752,0,0,0,2.3-1.24,2.764,2.764,0,0,0,.233-2.617.433.433,0,0,1,.106-.536c.206-.193.409-.4.606-.6l.053-.053A.376.376,0,0,0-15.773-524.789Zm-2.423,4.653a2.017,2.017,0,0,1-.451.167,2.024,2.024,0,0,1-.476.057,2.047,2.047,0,0,1-1.669-.87,2.024,2.024,0,0,1,.252-2.627,2.02,2.02,0,0,1,1.418-.577,1.952,1.952,0,0,1,1.194.4l.2.154L-19.143-522l-.155-.2c-.021-.027-.043-.058-.066-.091a1.409,1.409,0,0,0-.156-.2.4.4,0,0,0-.276-.12.351.351,0,0,0-.249.107.363.363,0,0,0,.011.516c.2.214.43.443.7.7a.42.42,0,0,0,.285.136.423.423,0,0,0,.291-.143c.235-.23.471-.468.7-.7l.375-.375c.036-.036.073-.07.109-.1l.05-.046.254-.234.109.328A1.994,1.994,0,0,1-18.2-520.136Z" transform="translate(39.492 540.445)" fill="#fff"/>
  <path id="Path_1814" data-name="Path 1814" d="M4.048-372.292c-.05.12-.133.231-.4.231H3.638l-.988,0H-.378l-1.422,0a1.113,1.113,0,0,1-.272-.022.351.351,0,0,1-.24-.348.344.344,0,0,1,.249-.33.8.8,0,0,1,.209-.026l3.164,0,2.314,0a.476.476,0,0,1,.4.181A.324.324,0,0,1,4.048-372.292Z" transform="translate(21.006 396.801)" fill="#fff"/>
  <path id="Path_1815" data-name="Path 1815" d="M4.048-372.292c-.05.12-.133.231-.4.231H3.638l-.988,0H-.378l-1.422,0a1.113,1.113,0,0,1-.272-.022.351.351,0,0,1-.24-.348.344.344,0,0,1,.249-.33.8.8,0,0,1,.209-.026l3.164,0,2.314,0a.476.476,0,0,1,.4.181A.324.324,0,0,1,4.048-372.292Z" transform="translate(21.006 396.801)" fill="#fff"/>
  <path id="Path_1816" data-name="Path 1816" d="M4.063-330.217a.349.349,0,0,1-.254.34,1.055,1.055,0,0,1-.255.026l-2.719,0H-1.821a1.075,1.075,0,0,1-.239-.023.351.351,0,0,1-.265-.372.341.341,0,0,1,.3-.322,2.915,2.915,0,0,1,.3-.012H2.116l1.441,0a1.074,1.074,0,0,1,.271.025A.354.354,0,0,1,4.063-330.217Z" transform="translate(21.02 356.941)" fill="#fff"/>
  <path id="Path_1817" data-name="Path 1817" d="M4.063-330.217a.349.349,0,0,1-.254.34,1.055,1.055,0,0,1-.255.026l-2.719,0H-1.821a1.075,1.075,0,0,1-.239-.023.351.351,0,0,1-.265-.372.341.341,0,0,1,.3-.322,2.915,2.915,0,0,1,.3-.012H2.116l1.441,0a1.074,1.074,0,0,1,.271.025A.354.354,0,0,1,4.063-330.217Z" transform="translate(21.02 356.941)" fill="#fff"/>
  <path id="Path_1818" data-name="Path 1818" d="M3.935-287.9c-.055.1-.141.193-.4.193H-1.181c-.274,0-.548,0-.823,0a.414.414,0,0,1-.356-.184.326.326,0,0,1-.014-.326.357.357,0,0,1,.368-.213l1.279,0H2.427q.587,0,1.174,0a.379.379,0,0,1,.337.18A.345.345,0,0,1,3.935-287.9Z" transform="translate(21.1 317.137)" fill="#fff"/>
  <path id="Path_1819" data-name="Path 1819" d="M3.935-287.9c-.055.1-.141.193-.4.193H-1.181c-.274,0-.548,0-.823,0a.414.414,0,0,1-.356-.184.326.326,0,0,1-.014-.326.357.357,0,0,1,.368-.213l1.279,0H2.427q.587,0,1.174,0a.379.379,0,0,1,.337.18A.345.345,0,0,1,3.935-287.9Z" transform="translate(21.1 317.137)" fill="#fff"/>
  <path id="Path_1820" data-name="Path 1820" d="M-43.649-288.039a.376.376,0,0,1-.364.36h0a.36.36,0,0,1-.356-.361.349.349,0,0,1,.351-.361.37.37,0,0,1,.268.111A.35.35,0,0,1-43.649-288.039Z" transform="translate(60.723 317.109)" fill="#fff"/>
  <path id="Path_1821" data-name="Path 1821" d="M-43.649-288.039a.376.376,0,0,1-.364.36h0a.36.36,0,0,1-.356-.361.349.349,0,0,1,.351-.361.37.37,0,0,1,.268.111A.35.35,0,0,1-43.649-288.039Z" transform="translate(60.723 317.109)" fill="#fff"/>
  <path id="Path_1822" data-name="Path 1822" d="M-43.658-372.365a.363.363,0,0,1-.365.357h0a.356.356,0,0,1-.255-.1.363.363,0,0,1-.1-.257.365.365,0,0,1,.356-.362A.375.375,0,0,1-43.658-372.365Z" transform="translate(60.732 396.744)" fill="#fff"/>
  <path id="Path_1823" data-name="Path 1823" d="M-43.658-372.365a.363.363,0,0,1-.365.357h0a.356.356,0,0,1-.255-.1.363.363,0,0,1-.1-.257.365.365,0,0,1,.356-.362A.375.375,0,0,1-43.658-372.365Z" transform="translate(60.732 396.744)" fill="#fff"/>
  <path id="Path_1824" data-name="Path 1824" d="M-43.658-330.155a.374.374,0,0,1-.361.366h-.005a.359.359,0,0,1-.356-.358.364.364,0,0,1,.1-.258.355.355,0,0,1,.253-.1A.364.364,0,0,1-43.658-330.155Z" transform="translate(60.732 356.875)" fill="#fff"/>
  <path id="Path_1825" data-name="Path 1825" d="M-43.658-330.155a.374.374,0,0,1-.361.366h-.005a.359.359,0,0,1-.356-.358.364.364,0,0,1,.1-.258.355.355,0,0,1,.253-.1A.364.364,0,0,1-43.658-330.155Z" transform="translate(60.732 356.875)" fill="#fff"/>
</svg>
