<svg id="trac_processed" xmlns="http://www.w3.org/2000/svg" width="45" height="45" viewBox="0 0 45 45">
  <rect id="Rectangle_3014" data-name="Rectangle 3014" width="45" height="45" rx="22.5" fill="#0db146"/>
  <path id="Path_1826" data-name="Path 1826" d="M329.637-585.736h10.652a1.359,1.359,0,0,1,.832.72c.616,1.063,1.257,2.113,1.877,3.174a1,1,0,0,1,.131.476q.013,3.278,0,6.556a.3.3,0,0,0,.136.274,3.745,3.745,0,0,1,1.463,2.225c.035.153.062.307.093.461v.7a1.466,1.466,0,0,0-.035.153,3.786,3.786,0,0,1-3.578,3.255,3.762,3.762,0,0,1-3.817-2.945c-.036-.154-.092-.189-.239-.189q-4.429.006-8.859,0a1.363,1.363,0,0,1-1.472-1.466q0-4.517,0-9.035a.894.894,0,0,1,.118-.427c.627-1.078,1.271-2.145,1.895-3.225A1.349,1.349,0,0,1,329.637-585.736Zm2.367,4.51h-4.624c0,.064-.009.12-.009.177q0,4.359,0,8.719a.81.81,0,0,0,.91.909h8.979a3.732,3.732,0,0,1,1.694-3.205,3.712,3.712,0,0,1,3.6-.33v-6.27h-4.624v.2q0,1.187,0,2.373c0,.317-.074.39-.4.39H332.4c-.326,0-.394-.068-.394-.391q0-1.178,0-2.355Zm5.837,9.731a3.225,3.225,0,0,0,3.228,3.211,3.219,3.219,0,0,0,3.207-3.213,3.226,3.226,0,0,0-3.217-3.223A3.232,3.232,0,0,0,337.841-571.5Zm4.519-10.288c-.044-.082-.067-.128-.093-.173-.558-.961-1.121-1.918-1.67-2.884a.624.624,0,0,0-.608-.353c-.96.009-1.92,0-2.88,0H336.9c.021.085.033.146.05.206.289,1.005.583,2.009.865,3.016a.214.214,0,0,0,.251.187c1.364-.006,2.728,0,4.091,0Zm-9.324-3.392c-.053-.007-.076-.012-.1-.012h-3.091a.477.477,0,0,0-.437.27q-.874,1.491-1.755,2.979c-.025.042-.043.089-.069.142a.7.7,0,0,0,.09.014q2.134,0,4.268,0c.11,0,.134-.057.158-.144.172-.607.349-1.213.523-1.82Zm4.241,3.381a.634.634,0,0,0-.011-.084c-.306-1.068-.611-2.136-.925-3.2a.209.209,0,0,0-.162-.1c-.8-.007-1.593,0-2.389-.007a.166.166,0,0,0-.193.147c-.154.558-.319,1.113-.479,1.669-.15.522-.3,1.044-.453,1.581Zm-4.718,2.975h4.8v-2.406h-4.8Z" transform="translate(-312.824 599.736)" fill="#fff"/>
  <path id="Path_1827" data-name="Path 1827" d="M350.832-397.883c-.188,0-.351,0-.513,0a.271.271,0,0,1-.294-.175.394.394,0,0,1,.056-.3c.494-.676,1-1.344,1.5-2.011.142-.188.332-.177.493.031.319.411.633.827.949,1.241q.272.356.542.712c.075.1.145.2.076.336a.306.306,0,0,1-.32.167c-.157-.006-.315,0-.5,0v.2q0,.79,0,1.581c0,.263-.082.347-.345.349q-.641,0-1.282,0c-.288,0-.366-.08-.367-.365,0-.515,0-1.03,0-1.546Zm1.986-.583-1-1.327-1.009,1.34h.183c.324,0,.391.069.392.39s0,.656,0,.984v.733h.9V-397.9C352.278-398.42,352.278-398.42,352.818-398.466Z" transform="translate(-334.926 423.201)" fill="#fff"/>
  <path id="Path_1828" data-name="Path 1828" d="M438.036-397.81c-.184,0-.347,0-.51,0a.269.269,0,0,1-.3-.168.42.42,0,0,1,.057-.317c.483-.662.978-1.316,1.472-1.971a.288.288,0,0,1,.518,0q.749.976,1.493,1.955a.3.3,0,0,1,.07.338.305.305,0,0,1-.322.162c-.157-.005-.314,0-.495,0v.2c0,.533,0,1.066,0,1.6,0,.238-.079.321-.314.324q-.677.006-1.353,0c-.237,0-.315-.084-.316-.321C438.034-396.6,438.036-397.189,438.036-397.81Zm1.958-.577-1.008-1.332-1,1.333c.079,0,.114.006.148.007.376.005.416.047.416.431q0,.728,0,1.456v.222h.9c0-.573,0-1.134,0-1.695,0-.355.052-.408.4-.414C439.884-398.381,439.918-398.383,439.994-398.387Z" transform="translate(-418.033 423.129)" fill="#fff"/>
  <path id="Path_1829" data-name="Path 1829" d="M582.949-310.791l1.745-1.607q.491-.453.983-.9a.3.3,0,0,1,.4-.049.207.207,0,0,1,.033.34l-2.889,2.648c-.363.333-.434.324-.71-.083q-.512-.756-1.024-1.513c-.131-.194-.1-.361.067-.448a.267.267,0,0,1,.375.119c.3.444.606.891.909,1.336C582.868-310.9,582.9-310.858,582.949-310.791Z" transform="translate(-555.445 340.197)" fill="#fff"/>
</svg>
