<svg xmlns="http://www.w3.org/2000/svg" width="48" height="38" viewBox="0 0 48 38">
    <rect data-name="Rectangle 3024" width="48" height="38" rx="8" style="fill:#fff"/>
    <path data-name="Path 1746" d="M74.544-16.294c-.01.81.722 1.262 1.273 1.53.566.276.757.452.755.7 0 .377-.452.544-.871.55a3.039 3.039 0 0 1-1.493-.355l-.263 1.232a4.379 4.379 0 0 0 1.617.3c1.527 0 2.527-.754 2.532-1.923.006-1.484-2.052-1.566-2.038-2.229 0-.2.2-.416.617-.47a2.738 2.738 0 0 1 1.434.251l.256-1.192A3.9 3.9 0 0 0 77-18.152c-1.438 0-2.449.764-2.457 1.858m6.275-1.756a.663.663 0 0 0-.619.412l-2.182 5.21h1.526l.3-.839h1.865l.176.839h1.345l-1.169-5.621h-1.242m.214 1.519.441 2.111h-1.207l.766-2.111m-8.339-1.519-1.2 5.622h1.455l1.2-5.622h-1.455m-2.152 0-1.514 3.827-.612-3.254a.678.678 0 0 0-.671-.573h-2.475l-.035.163a6.055 6.055 0 0 1 1.435.478.616.616 0 0 1 .345.494l1.16 4.487h1.537l2.357-5.622h-1.527" transform="translate(-50.234 34.246)" style="fill:#254aa5"/>
</svg>
