<svg id="wallet" xmlns="http://www.w3.org/2000/svg" width="18.417" height="17.001" viewBox="0 0 18.417 17.001">
  <path id="Path_1743" data-name="Path 1743" d="M19.136,11.25H6.031a2.658,2.658,0,0,0-2.656,2.656v7.438A2.658,2.658,0,0,0,6.031,24h13.1a2.658,2.658,0,0,0,2.656-2.656V13.906A2.658,2.658,0,0,0,19.136,11.25Z" transform="translate(-3.375 -6.999)" fill="#da902a"/>
  <path id="Path_1744" data-name="Path 1744" d="M16.847,4.544,6.448,6.576c-.8.177-1.948.978-1.948,1.952a2.789,2.789,0,0,1,2.169-.841H19.375V6.78a2.542,2.542,0,0,0-.615-1.665h0A2.094,2.094,0,0,0,16.847,4.544Z" transform="translate(-3.791 -4.499)" fill="#da902a"/>
</svg>
