<svg xmlns="http://www.w3.org/2000/svg" width="24.99" height="25" viewBox="0 0 24.99 25">
    <defs>
        <style>
            .cls-2{fill:#575171;stroke:transparent}
        </style>
    </defs>
    <g id="wishlist" transform="translate(.501 .5)">
        <path id="Path_1776" data-name="Path 1776" d="M-897.267-509.21a9.837 9.837 0 0 0-9.815 9.8 9.842 9.842 0 0 0 9.81 9.829 9.837 9.837 0 0 0 9.816-9.8 9.842 9.842 0 0 0-9.811-9.829zm-4 9.852a1.806 1.806 0 0 1-1.858 1.773 1.814 1.814 0 0 1-1.773-1.86 1.837 1.837 0 0 1 1.847-1.768 1.838 1.838 0 0 1 1.78 1.855zm4.007 1.78a1.841 1.841 0 0 1-1.824-1.818 1.841 1.841 0 0 1 1.824-1.818 1.841 1.841 0 0 1 1.812 1.83 1.841 1.841 0 0 1-1.816 1.806zm5.8 0a1.837 1.837 0 0 1-1.8-1.814 1.839 1.839 0 0 1 1.819-1.822 1.841 1.841 0 0 1 1.815 1.826 1.841 1.841 0 0 1-1.841 1.81z" transform="translate(909.254 511.395)" style="fill:#f5f0ea"/>
        <path id="Path_1763" data-name="Path 1763" class="cls-2" d="M-929.823-1064.131h-1.406c-.4-.05-.805-.087-1.2-.153a11.68 11.68 0 0 1-6.487-3.293 11.721 11.721 0 0 1-3.538-9.761 11.449 11.449 0 0 1 2.929-6.706 11.747 11.747 0 0 1 8.5-4.072 11.41 11.41 0 0 1 6.618 1.672 11.824 11.824 0 0 1 5.7 8.247c.084.45.126.908.187 1.362v1.406c-.019.169-.039.337-.057.506a11.855 11.855 0 0 1-3.014 6.792 11.768 11.768 0 0 1-6.861 3.813c-.458.08-.916.126-1.371.187zm-.7-21.817a9.839 9.839 0 0 0-9.818 9.8 9.844 9.844 0 0 0 9.812 9.831 9.839 9.839 0 0 0 9.818-9.8 9.844 9.844 0 0 0-9.812-9.831z" transform="translate(942.516 1088.131)"/>
        <path id="Path_1764" data-name="Path 1764" class="cls-2" d="M-869.735-922.288a1.84 1.84 0 0 1 1.785 1.857 1.808 1.808 0 0 1-1.86 1.775 1.816 1.816 0 0 1-1.775-1.862 1.839 1.839 0 0 1 1.85-1.77z" transform="translate(875.94 932.469)"/>
        <path id="Path_1765" data-name="Path 1765" class="cls-2" d="M-678.389-920.451a1.842 1.842 0 0 1-1.834 1.812 1.838 1.838 0 0 1-1.8-1.816 1.84 1.84 0 0 1 1.82-1.824 1.843 1.843 0 0 1 1.814 1.828z" transform="translate(698.016 932.459)"/>
        <path id="Path_1766" data-name="Path 1766" class="cls-2" d="M-776.821-920.46a1.843 1.843 0 0 1 1.826-1.82 1.843 1.843 0 0 1 1.814 1.832 1.843 1.843 0 0 1-1.819 1.809 1.843 1.843 0 0 1-1.821-1.821z" transform="translate(786.99 932.459)"/>
    </g>
</svg>
