<svg xmlns="http://www.w3.org/2000/svg" width="23.989" height="24" viewBox="0 0 23.989 24">
    <path data-name="Path 1776" d="M-897.267-509.21a9.837 9.837 0 0 0-9.815 9.8 9.842 9.842 0 0 0 9.81 9.829 9.837 9.837 0 0 0 9.816-9.8 9.842 9.842 0 0 0-9.811-9.829zm-4 9.852a1.806 1.806 0 0 1-1.858 1.773 1.814 1.814 0 0 1-1.773-1.86 1.837 1.837 0 0 1 1.847-1.768 1.838 1.838 0 0 1 1.78 1.855zm4.007 1.78a1.841 1.841 0 0 1-1.824-1.818 1.841 1.841 0 0 1 1.824-1.818 1.841 1.841 0 0 1 1.812 1.83 1.841 1.841 0 0 1-1.816 1.806zm5.8 0a1.837 1.837 0 0 1-1.8-1.814 1.839 1.839 0 0 1 1.819-1.822 1.841 1.841 0 0 1 1.815 1.826 1.841 1.841 0 0 1-1.841 1.81z" transform="translate(909.254 511.395)" style="fill:#f2b93b"/>
    <path data-name="Path 1763" d="M12.693 24h-1.406c-.4-.05-.805-.087-1.2-.153A11.68 11.68 0 0 1 3.6 20.554a11.721 11.721 0 0 1-3.538-9.761 11.449 11.449 0 0 1 2.929-6.706 11.747 11.747 0 0 1 8.5-4.072 11.41 11.41 0 0 1 6.618 1.672 11.824 11.824 0 0 1 5.7 8.247c.084.45.126.908.187 1.362v1.406c-.019.169-.039.337-.057.506A11.855 11.855 0 0 1 20.925 20a11.768 11.768 0 0 1-6.861 3.813c-.458.08-.916.126-1.371.187zm-.7-21.817a9.839 9.839 0 0 0-9.818 9.8 9.844 9.844 0 0 0 9.812 9.831 9.839 9.839 0 0 0 9.818-9.8 9.844 9.844 0 0 0-9.812-9.831z"/>
    <path data-name="Path 1764" d="M6.205 10.181a1.84 1.84 0 0 1 1.785 1.857 1.808 1.808 0 0 1-1.86 1.775 1.816 1.816 0 0 1-1.775-1.862 1.839 1.839 0 0 1 1.85-1.77z"/>
    <path data-name="Path 1765" d="M19.627 12.008a1.842 1.842 0 0 1-1.834 1.812 1.838 1.838 0 0 1-1.8-1.816 1.84 1.84 0 0 1 1.82-1.824 1.843 1.843 0 0 1 1.814 1.828z"/>
    <path data-name="Path 1766" d="M10.169 11.999a1.843 1.843 0 0 1 1.826-1.82 1.843 1.843 0 0 1 1.814 1.832 1.843 1.843 0 0 1-1.819 1.809 1.843 1.843 0 0 1-1.821-1.821z"/>
</svg>
