<svg id="SvgjsSvg1001" width="288" height="288" xmlns="http://www.w3.org/2000/svg" version="1.1" xmlns:xlink="http://www.w3.org/1999/xlink" xmlns:svgjs="http://svgjs.com/svgjs"><defs id="SvgjsDefs1002"></defs><g id="SvgjsG1008"><svg xmlns="http://www.w3.org/2000/svg" width="288" height="288" viewBox="0 0 136.945 127.102"><g transform="translate(0 -.002)" fill="#ba53de" class="color000 svgShape"><path fill="#0d9d56" fill-rule="evenodd" d="M437.618,346.757l7.107-9.383-6.072-36.239H436.58l-6.072,36.239Z" data-name="Path 12103" transform="translate(-388.397 -271.677)" class="colorfafafa svgShape"></path><path fill="#0d9d56" fill-rule="evenodd" d="M378.621,244.419l1.067-3.349,8.339,6.055-4.561,6.911Z" data-name="Path 12104" transform="translate(-341.585 -217.487)" class="colorfafafa svgShape"></path><path fill="#0d9d56" fill-rule="evenodd" d="M540.993,244.419l-1.071-3.349-8.338,6.055,4.561,6.911Z" data-name="Path 12105" transform="translate(-479.586 -217.487)" class="colorfafafa svgShape"></path><path fill="#0d9d56" fill-rule="evenodd" d="M261.035,1055.036l-.006.032-.013-.012-.016.012,0-.032a259.517,259.517,0,0,1-26.5-26.457,55.64,55.64,0,0,0,53.043,0,260.057,260.057,0,0,1-26.5,26.457" data-name="Path 12106" transform="translate(-211.558 -927.964)" class="colorfafafa svgShape"></path><path fill="#0d9d56" fill-rule="evenodd" d="M403.729,0a11.045,11.045,0,1,1-11.048,11.044A11.043,11.043,0,0,1,403.729,0" data-name="Path 12107" transform="translate(-354.271)" class="colorfafafa svgShape"></path><path fill="#0d9d56" fill-rule="evenodd" d="M831.177,697.742l10.99,5.13q-.265,4.34,11.427,9.162Q876,724.154,876.005,724.151q6.06,3.2,9.17-3.237,4.016-5.907-1.781-9.56l-21.7-13.35q-10.023-7.715-13.645-5.317l-9.938-6.949c-.627,1.305-6.11,10.8-6.931,12" data-name="Path 12108" transform="translate(-749.874 -618.66)" class="colorfafafa svgShape"></path><path fill="#0d9d56" fill-rule="evenodd" d="M5.04,110.587A62.8,62.8,0,0,1,.99,98.709a49.823,49.823,0,0,1,.752-22.938q.584-1.817,1.341-3.6c6.306-13.789,15.68-23.3,26.21-28.528a49.167,49.167,0,0,1,7.22-2.568,14.738,14.738,0,0,0,2.8,17.7,28.28,28.28,0,1,0,20.3,0,14.729,14.729,0,0,0,2.793-17.7,48.831,48.831,0,0,1,7.216,2.568c10.537,5.23,19.907,14.735,26.213,28.528q.757,1.784,1.344,3.6a49.721,49.721,0,0,1,.752,22.915,63.033,63.033,0,0,1-4.053,11.9,49.472,49.472,0,0,1-88.835-.006" data-name="Path 12109" transform="translate(0 -37.056)" class="colorfafafa svgShape"></path></g></svg></g></svg>