<svg xmlns="http://www.w3.org/2000/svg" xmlns:xlink="http://www.w3.org/1999/xlink" width="445.002" height="140.492" viewBox="0 0 445.002 140.492">
  <defs>
    <linearGradient id="linear-gradient" x1="0.5" x2="0.5" y2="1" gradientUnits="objectBoundingBox">
      <stop offset="0" stop-color="#fff"/>
      <stop offset="0.469" stop-color="#eecfc4"/>
      <stop offset="1" stop-color="#fff"/>
    </linearGradient>
  </defs>
  <path id="divider" d="M17653,15209.549a74.335,74.335,0,0,1-25.395-4.533,91.748,91.748,0,0,1-23.65-12.99,128.824,128.824,0,0,1-21.4-20.562,182.081,182.081,0,0,1-18.648-27.232,244.492,244.492,0,0,1-15.385-33,305.6,305.6,0,0,1-11.617-37.883,356.965,356.965,0,0,1-7.342-41.861,392.226,392.226,0,0,1-2.561-44.939,376.543,376.543,0,0,1,8.811-82.086,314.548,314.548,0,0,1,10.377-36.268,258.1,258.1,0,0,1,13.8-32.084c21.133-40.912,49.869-66.328,80.918-71.561-63.566,12.883-111.5,108.127-111.5,221.551,0,122.967,56.523,223.008,126,223.008a73.113,73.113,0,0,0,12.092-1.016A73.018,73.018,0,0,1,17653,15209.549Z" transform="translate(-14764.547 17667.494) rotate(-90)" fill="url(#linear-gradient)"/>
</svg>
