<svg id="brain" xmlns="http://www.w3.org/2000/svg" width="24" height="24" viewBox="0 0 24 24">
  <rect id="female-mouth-lips" width="24" height="24" fill="none"/>
  <g id="icons_app_ui02" transform="translate(0 0)">
    <path id="Path_72" data-name="Path 72" d="M49.686,34.874h.7a.8.8,0,0,0,.125.045,2.634,2.634,0,0,1,2.2,2.731c-.009.38.145.531.562.551a3.22,3.22,0,0,1,3.062,3.269c-.012.592-.016.582-.562.774a3.392,3.392,0,0,0-2.167,1.828,2.47,2.47,0,0,0-.219,1.155h.859c.008-.07.017-.125.021-.177a1.942,1.942,0,0,1,.67-1.346,3.278,3.278,0,0,1,1.517-.739.365.365,0,0,1,.221.03,3.675,3.675,0,0,1,2.1,2.514c.036.141.062.285.1.427v.8a.649.649,0,0,0-.038.109,3.646,3.646,0,0,1-2,2.774c-.41.22-.46.481-.152.842a3.042,3.042,0,0,1,.741,2.407,3.277,3.277,0,0,1-3.887,2.744.351.351,0,0,1-.193-.107,3.022,3.022,0,0,1-.616-1.544,2.187,2.187,0,0,1,.317-1.335l-.735-.46a1.714,1.714,0,0,0-.117.187,3.964,3.964,0,0,0-.209.494,3.6,3.6,0,0,0,.609,3.149.679.679,0,0,1,.119.382,2.507,2.507,0,0,1-1.368,2.149,6.463,6.463,0,0,1-.957.348h-.7a1.5,1.5,0,0,0-.154-.045,2.6,2.6,0,0,1-2.2-2.4c-.042-.677-.017-1.359-.019-2.038a.261.261,0,0,1,.031-.134,2.8,2.8,0,0,1,1.731-1.406,4.043,4.043,0,0,1,.461-.049c.028-.289.054-.562.083-.854a2.924,2.924,0,0,0-2.293.911c-.006-.113-.013-.172-.013-.232V44.4a.621.621,0,0,1,.034-.228,2.38,2.38,0,0,1,2.274-1.432c.231.014.459.063.7.1l.254-.808a3.151,3.151,0,0,0-3.25.691c-.01-.078-.017-.107-.017-.137,0-1.7-.011-3.391,0-5.085a2.479,2.479,0,0,1,1.344-2.259A6.594,6.594,0,0,1,49.686,34.874Zm.25,12.418a3.2,3.2,0,0,0,4.09,1.913l-.254-.806a2.424,2.424,0,0,1-1.793-.1,2.886,2.886,0,0,1-1.25-1.34Zm.388-9.731a2.439,2.439,0,0,0-2.291,1.562l.79.322a1.714,1.714,0,0,1,1.5-1.032Z" transform="translate(-34.874 -34.874)"/>
    <path id="Path_73" data-name="Path 73" d="M44.061,58.873h-.7a1.317,1.317,0,0,0-.151-.048,2.637,2.637,0,0,1-2.171-2.4A.724.724,0,0,1,41.153,56a4.227,4.227,0,0,0,.731-1.879,2.931,2.931,0,0,0-.445-1.956l-.72.455a5.242,5.242,0,0,1,.221.556,2.682,2.682,0,0,1-.551,2.35.283.283,0,0,1-.2.092,6.264,6.264,0,0,1-1.322-.016,3.157,3.157,0,0,1-1.77-5.175c.138-.156.237-.337.116-.529a.945.945,0,0,0-.342-.3,3.694,3.694,0,0,1-1.831-2.187c-.071-.221-.111-.452-.164-.679v-.794a.891.891,0,0,0,.042-.129,3.632,3.632,0,0,1,2.112-2.79.438.438,0,0,1,.262-.049,3.451,3.451,0,0,1,1.375.617,2,2,0,0,1,.786,1.234c.027.135.036.273.053.407h.859a2.764,2.764,0,0,0-.592-1.778A3.759,3.759,0,0,0,37.9,42.222c-.47-.153-.47-.153-.495-.66v-.047A3.218,3.218,0,0,1,40.5,38.2c.4-.019.546-.178.534-.573a2.588,2.588,0,0,1,1.579-2.511,7.652,7.652,0,0,1,.75-.241h.7a.642.642,0,0,0,.108.039A2.635,2.635,0,0,1,46.436,37.6q0,2.437,0,4.875v.268a2.858,2.858,0,0,0-3.268-.707l.258.818a1.376,1.376,0,0,0,.15-.016,2.339,2.339,0,0,1,2.772,1.25.736.736,0,0,1,.085.331q.006,4.111,0,8.223c0,.062-.011.125-.018.206-.977-.745-1.7-1.014-2.285-.852.027.272.055.549.082.822a4.192,4.192,0,0,1,.459.048A2.816,2.816,0,0,1,46.4,54.271a.356.356,0,0,1,.032.18c0,.609.016,1.219,0,1.827a2.516,2.516,0,0,1-1.407,2.27A7.25,7.25,0,0,1,44.061,58.873Zm-4.34-9.665a3.177,3.177,0,0,0,4.07-1.929l-.77-.312A2.436,2.436,0,0,1,39.975,48.4ZM45.5,39.2a2.021,2.021,0,0,0-2.076-1.622v.846a1.248,1.248,0,0,1,1.237.959Z" transform="translate(-34.874 -34.874)"/>
  </g>
</svg>
