<svg id="call" xmlns="http://www.w3.org/2000/svg" width="24" height="24" viewBox="0 0 24 24">
  <rect id="Rectangle_59" data-name="Rectangle 59" width="24" height="24" transform="translate(0 0)" fill="none"/>
  <path id="phone-call_1_" data-name="phone-call(1)" d="M22.995,11a1,1,0,0,1-1-1,8.006,8.006,0,0,0-8-8,1,1,0,0,1,0-2,10.009,10.009,0,0,1,10,10A1,1,0,0,1,22.995,11Zm-3-1a6,6,0,0,0-6-6,1,1,0,1,0,0,2,4,4,0,0,1,4,4,1,1,0,1,0,2,0Zm2.183,12.161.91-1.049a3.1,3.1,0,0,0,0-4.376c-.031-.031-2.436-1.882-2.436-1.882a3.1,3.1,0,0,0-4.28.006l-1.906,1.606a12.781,12.781,0,0,1-6.93-6.942l1.6-1.9a3.1,3.1,0,0,0,.007-4.281S7.289.939,7.258.908A3.081,3.081,0,0,0,2.933.862l-1.15,1c-6.793,7.88,7.834,22.394,15.975,22.133a6.154,6.154,0,0,0,4.42-1.836Z" transform="translate(-0.015 0.002)"/>
</svg>
