<svg id="Component_468_1" data-name="Component 468 – 1" xmlns="http://www.w3.org/2000/svg" width="24.002" height="24" viewBox="0 0 24.002 24">
  <rect id="Rectangle_54" data-name="Rectangle 54" width="24" height="24" transform="translate(0.001)" fill="none"/>
  <path id="base" d="M-12343-671a11.925,11.925,0,0,1-8.487-3.515A11.92,11.92,0,0,1-12355-683a11.92,11.92,0,0,1,3.515-8.486A11.928,11.928,0,0,1-12343-695a11.93,11.93,0,0,1,8.48,3.517A11.939,11.939,0,0,1-12331-683a11.92,11.92,0,0,1-3.515,8.485A11.922,11.922,0,0,1-12343-671Zm-4.635-12.375a.463.463,0,0,0-.329.136.471.471,0,0,0-.137.332.464.464,0,0,0,.137.329l2.493,2.5a1.4,1.4,0,0,0,.992.412,1.4,1.4,0,0,0,.992-.412l6.449-6.446a.472.472,0,0,0,.137-.332.464.464,0,0,0-.137-.329.469.469,0,0,0-.332-.14.469.469,0,0,0-.331.14l-6.45,6.449a.462.462,0,0,1-.328.136.476.476,0,0,1-.332-.136l-2.493-2.5A.471.471,0,0,0-12347.634-683.375Z" transform="translate(12355.001 695)"/>
</svg>
