<svg id="child_care" xmlns="http://www.w3.org/2000/svg" width="24" height="24" viewBox="0 0 24 24">
  <rect id="heart_beat" width="24" height="24" fill="none"/>
  <g id="icons_app_ui04" transform="translate(1.331 0.003)">
    <path id="Path_74" data-name="Path 74" d="M40.99,34.958a3.592,3.592,0,0,1,1.315.563,2.845,2.845,0,0,1-1.949,5.1,2.873,2.873,0,0,1-2.509-2.363A2.817,2.817,0,0,1,40.088,35a1.468,1.468,0,0,0,.152-.048Z" transform="translate(-36.288 -34.958)"/>
    <path id="Path_75" data-name="Path 75" d="M53.643,34.958a3.531,3.531,0,0,1,1.336.58,2.846,2.846,0,0,1-1.967,5.081,2.883,2.883,0,0,1-2.553-2.686,2.828,2.828,0,0,1,2.283-2.928,1.458,1.458,0,0,0,.151-.048Z" transform="translate(-36.288 -34.958)"/>
    <path id="Path_76" data-name="Path 76" d="M46.941,43.9c.274-.376.532-.778.835-1.14a5.269,5.269,0,0,1,3.238-1.948,5.448,5.448,0,0,1,5.956,3.156,6.645,6.645,0,0,1-.6,6.762,18.54,18.54,0,0,1-2.651,3.023c-.32.313-.67.591-.969.919a1.394,1.394,0,1,1-1.9-2.039c.61-.583,1.232-1.153,1.826-1.753a9,9,0,0,0,1.761-2.265,2.9,2.9,0,0,0,.34-1.423H53.407a4.285,4.285,0,0,1-1.384,2.33c-.59.634-1.222,1.228-1.844,1.848a6.449,6.449,0,0,0-3.237-.865,6.364,6.364,0,0,0-3.213.856,17.445,17.445,0,0,1-2.814-3.027A8.234,8.234,0,0,1,40.4,47.2H39.1a2.878,2.878,0,0,0,.33,1.4,8.835,8.835,0,0,0,1.753,2.269c.6.6,1.23,1.177,1.843,1.767a1.4,1.4,0,0,1-.363,2.321,1.1,1.1,0,0,1-1.293-.183,29.219,29.219,0,0,1-3.273-3.28,7.365,7.365,0,0,1-1.718-3.538,6.076,6.076,0,0,1,2.4-6.227,5.325,5.325,0,0,1,7.325,1.036C46.41,43.128,46.665,43.523,46.941,43.9Zm.008,6.57a2.813,2.813,0,1,0-2.817-2.812,2.813,2.813,0,0,0,2.817,2.812Z" transform="translate(-36.288 -34.958)"/>
    <path id="Path_77" data-name="Path 77" d="M43.171,56.287A2.819,2.819,0,0,0,44.637,52.5a4.858,4.858,0,0,1,4.614-.02,2.82,2.82,0,0,0-.053,2.285,2.744,2.744,0,0,0,1.675,1.565c-.053.055-.09.1-.131.136q-1.031.919-2.066,1.838a2.265,2.265,0,0,1-3.157.015q-1.089-.939-2.183-1.878C43.287,56.4,43.239,56.349,43.171,56.287Z" transform="translate(-36.288 -34.958)"/>
    <path id="Path_78" data-name="Path 78" d="M48.347,47.663a1.406,1.406,0,1,1-1.389-1.408,1.406,1.406,0,0,1,1.389,1.408Z" transform="translate(-36.288 -34.958)"/>
  </g>
</svg>
