<svg id="closed_eye" xmlns="http://www.w3.org/2000/svg" width="24" height="24" viewBox="0 0 24 24">
  <rect id="Rectangle_51" data-name="Rectangle 51" width="24" height="24" transform="translate(0)" fill="none"/>
  <path id="eye-crossed" d="M23.262,9.416a15.86,15.86,0,0,0-3.37-3.908l2.8-2.8A1,1,0,1,0,21.278,1.3L18.234,4.343A12.05,12.05,0,0,0,12,2.654C5.807,2.654,2.28,6.89.729,9.416a4.906,4.906,0,0,0,0,5.16A15.86,15.86,0,0,0,4.1,18.483l-2.8,2.8A1,1,0,1,0,2.713,22.7l3.051-3.051A12.05,12.05,0,0,0,12,21.337c6.189,0,9.715-4.236,11.267-6.761A4.906,4.906,0,0,0,23.262,9.416ZM2.432,13.529a2.917,2.917,0,0,1,0-3.067C3.766,8.3,6.779,4.653,12,4.653A10.1,10.1,0,0,1,16.76,5.818L14.748,7.83A4.99,4.99,0,0,0,7.83,14.748L5.521,17.057a13.718,13.718,0,0,1-3.089-3.528ZM14.994,12a3,3,0,0,1-3,3,2.95,2.95,0,0,1-1.285-.3l3.984-3.984A2.95,2.95,0,0,1,14.994,12ZM9,12a3,3,0,0,1,3-3,2.95,2.95,0,0,1,1.285.3L9.3,13.28A2.95,2.95,0,0,1,9,12Zm12.562,1.533c-1.334,2.165-4.347,5.809-9.563,5.809a10.1,10.1,0,0,1-4.764-1.165l2.012-2.012a4.99,4.99,0,0,0,6.917-6.917L18.47,6.934a13.718,13.718,0,0,1,3.089,3.528,2.917,2.917,0,0,1,0,3.067Z" transform="translate(0.004 0.004)"/>
</svg>
