<svg id="evening" xmlns="http://www.w3.org/2000/svg" width="24" height="24" viewBox="0 0 24 24">
  <rect id="Rectangle_78" data-name="Rectangle 78" width="24" height="24" fill="none"/>
  <g id="icons_app_ui07" transform="translate(23.516 23.999) rotate(180)">
    <path id="Path_93" data-name="Path 93" d="M45.405,58.389a.94.94,0,0,1-.7-.817.564.564,0,0,0-.4-.517.938.938,0,0,1-.632-.879,6.96,6.96,0,0,1-.009-.842.642.642,0,0,1,.663-.648q2.062-.009,4.124,0a.651.651,0,0,1,.672.666c.011.265.01.531,0,.8a1.056,1.056,0,0,1-.758.968.283.283,0,0,0-.228.247c-.017.084-.046.165-.062.247a.932.932,0,0,1-.688.774Z" transform="translate(-34.873 -34.39)"/>
    <path id="Path_94" data-name="Path 94" d="M46.377,53.786h-1.71a.989.989,0,0,1-1.09-.9,5.461,5.461,0,0,0-1.395-2.811,6.211,6.211,0,0,1-1.569-2.907,5.909,5.909,0,1,1,10.225,2.621,6.077,6.077,0,0,0-1.551,2.709c-.03.129-.058.259-.082.389a1,1,0,0,1-1.092.9C47.533,53.788,46.955,53.786,46.377,53.786Zm-4.255-8.028v.14a.661.661,0,0,0,.622.689.647.647,0,0,0,.7-.6c.011-.085.017-.171.024-.257a2.874,2.874,0,0,1,1.407-2.3,3.18,3.18,0,0,1,1.558-.433.633.633,0,0,0,.614-.713.669.669,0,0,0-.7-.612A4.289,4.289,0,0,0,42.121,45.758Z" transform="translate(-34.873 -34.39)"/>
    <path id="Path_95" data-name="Path 95" d="M36.7,46.575H35.6a.678.678,0,0,1-.73-.66.667.667,0,0,1,.716-.672q1.113-.014,2.223,0a.669.669,0,1,1-.009,1.331Z" transform="translate(-34.873 -34.39)"/>
    <path id="Path_96" data-name="Path 96" d="M56.07,46.575h-1.1a.674.674,0,0,1-.732-.657.663.663,0,0,1,.709-.675q1.123-.015,2.246,0a.671.671,0,0,1,.711.677.686.686,0,0,1-.735.656Z" transform="translate(-34.873 -34.39)"/>
    <path id="Path_97" data-name="Path 97" d="M40.276,51.256a.7.7,0,0,1,.7.407.628.628,0,0,1-.139.733c-.33.343-.671.675-1.008,1.012-.21.21-.416.423-.63.627a.665.665,0,0,1-.946.02.648.648,0,0,1,0-.944q.815-.839,1.656-1.65A1.3,1.3,0,0,1,40.276,51.256Z" transform="translate(-34.873 -34.39)"/>
    <path id="Path_98" data-name="Path 98" d="M54,37.567a.684.684,0,0,1,.656.368.575.575,0,0,1-.07.7q-.86.9-1.754,1.757a.659.659,0,0,1-.9-.962c.549-.565,1.113-1.118,1.67-1.675a.241.241,0,0,1,.073-.058C53.8,37.642,53.929,37.593,54,37.567Z" transform="translate(-34.873 -34.39)"/>
    <path id="Path_99" data-name="Path 99" d="M54.029,54.283a1.9,1.9,0,0,1-.438-.24c-.557-.536-1.1-1.083-1.642-1.635a.648.648,0,0,1-.018-.944.659.659,0,0,1,.961.009q.82.8,1.621,1.624a.643.643,0,0,1,.15.753A.774.774,0,0,1,54.029,54.283Z" transform="translate(-34.873 -34.39)"/>
    <path id="Path_100" data-name="Path 100" d="M40.334,40.583a2.1,2.1,0,0,1-.451-.257c-.546-.524-1.079-1.062-1.608-1.6a.665.665,0,1,1,.93-.948q.814.8,1.618,1.623a.632.632,0,0,1,.148.752A.74.74,0,0,1,40.334,40.583Z" transform="translate(-34.873 -34.39)"/>
    <path id="Path_101" data-name="Path 101" d="M47.052,36.218c0,.382,0,.764,0,1.147a.661.661,0,1,1-1.321.006q-.009-1.146,0-2.293a.661.661,0,1,1,1.321-.009C47.057,35.454,47.052,35.836,47.052,36.218Z" transform="translate(-34.873 -34.39)"/>
  </g>
</svg>
