<svg id="google" xmlns="http://www.w3.org/2000/svg" width="48" height="48" viewBox="0 0 48 48">
  <rect id="Rectangle_2900" data-name="Rectangle 2900" width="48" height="48" rx="10" fill="#d0422a"/>
  <g id="google-2" data-name="google" transform="translate(14 14)">
    <rect id="Rectangle_2904" data-name="Rectangle 2904" width="20" height="20" fill="none"/>
    <path id="Icon_ionic-logo-google" data-name="Icon ionic-logo-google" d="M21.861,11.277l-.094-.4H13.082v3.676H18.27a5.194,5.194,0,0,1-5.081,3.9A6.076,6.076,0,0,1,9.1,16.829a5.837,5.837,0,0,1-1.741-4.12,6.021,6.021,0,0,1,1.71-4.116A5.817,5.817,0,0,1,13.131,7a5.3,5.3,0,0,1,3.456,1.347l2.612-2.6a9.243,9.243,0,0,0-6.154-2.37h0A9.513,9.513,0,0,0,6.313,6.12a9.474,9.474,0,0,0-2.657,6.593A9.379,9.379,0,0,0,6.21,19.2a9.743,9.743,0,0,0,7.024,2.85A8.665,8.665,0,0,0,19.545,19.4a9.318,9.318,0,0,0,2.424-6.454A10.747,10.747,0,0,0,21.861,11.277Z" transform="translate(-2.813 -2.716)" fill="#fff"/>
  </g>
</svg>
