<svg id="heart" xmlns="http://www.w3.org/2000/svg" width="24" height="24" viewBox="0 0 24 24">
  <rect id="Rectangle_29" data-name="Rectangle 29" width="24" height="24" transform="translate(0)" fill="none"/>
  <g id="_01_align_center" data-name="01 align center" transform="translate(0.005 -0.108)">
    <path id="Path_26" data-name="Path 26" d="M17.5.917a6.4,6.4,0,0,0-5.5,3.3A6.4,6.4,0,0,0,6.5.917,6.8,6.8,0,0,0,0,7.967c0,6.775,10.956,14.6,11.422,14.932l.578.409.578-.409C13.044,22.569,24,14.742,24,7.967A6.8,6.8,0,0,0,17.5.917ZM12,20.846c-3.253-2.43-10-8.4-10-12.879a4.8,4.8,0,0,1,4.5-5.05A4.8,4.8,0,0,1,11,7.967h2a4.8,4.8,0,0,1,4.5-5.05A4.8,4.8,0,0,1,22,7.967C22,12.448,15.253,18.416,12,20.846Z"/>
  </g>
</svg>
