<svg xmlns="http://www.w3.org/2000/svg" width="24" height="24" viewBox="0 0 24 24">
  <g id="hear_beat" transform="translate(0)">
    <rect id="heart_beat" width="24" height="24" transform="translate(0)" fill="none"/>
    <path id="icons_app_ui" d="M47.279,31.274v1.218a1.874,1.874,0,0,0-.04.2,9.511,9.511,0,0,1-.507,2.325,14.857,14.857,0,0,1-3.52,5.438,31.318,31.318,0,0,1-7.571,5.535.72.72,0,0,1-.736-.008A33.925,33.925,0,0,1,28.537,41.6a17.974,17.974,0,0,1-3.887-4.74c-.148-.271-.282-.552-.44-.867h.3c1.031,0,2.062-.008,3.093,0a.836.836,0,0,0,.852-.524c.25-.536.527-1.06.8-1.614.05.094.088.16.122.228.736,1.472,1.467,2.946,2.211,4.413a1.056,1.056,0,0,0,.4.431.678.678,0,0,0,.941-.388q1.112-2.218,2.219-4.438c.036-.072.076-.141.134-.247.282.567.554,1.084.8,1.613a.84.84,0,0,0,.851.526c1.679-.009,3.358,0,5.037,0a1.385,1.385,0,0,0,.325-.032.694.694,0,0,0-.09-1.364,2.618,2.618,0,0,0-.3-.01c-1.476,0-2.952,0-4.428,0a.352.352,0,0,1-.373-.229c-.381-.786-.775-1.565-1.169-2.345a.7.7,0,0,0-.823-.419.783.783,0,0,0-.517.47q-1.1,2.211-2.208,4.416c-.035.07-.075.137-.126.229-.787-1.572-1.557-3.1-2.319-4.642a.723.723,0,0,0-1.373,0c-.376.771-.77,1.533-1.146,2.305a.317.317,0,0,1-.334.212c-1.054-.008-2.109-.011-3.163,0-.2,0-.267-.07-.313-.248a9.133,9.133,0,0,1-.29-3.224,7.4,7.4,0,0,1,2.613-5.093,6.169,6.169,0,0,1,8.1-.071c.456.376.882.787,1.323,1.184.146-.163.357-.413.583-.647a6.124,6.124,0,0,1,7.209-1.4,7.035,7.035,0,0,1,3.89,4.855C47.152,30.38,47.2,30.831,47.279,31.274Z" transform="translate(-23.279 -23.281)"/>
  </g>
</svg>
