<svg id="history_active" xmlns="http://www.w3.org/2000/svg" width="24" height="24" viewBox="0 0 24 24">
  <rect id="Rectangle_34" data-name="Rectangle 34" width="24" height="24" fill="none"/>
  <path id="hourglass_1_" data-name="hourglass(1)" d="M17,24H7.005A4.02,4.02,0,0,1,3.96,22.6a3.945,3.945,0,0,1-.916-3.158A12.517,12.517,0,0,1,7.445,12a12.517,12.517,0,0,1-4.4-7.444A3.945,3.945,0,0,1,3.96,1.4,4.02,4.02,0,0,1,7.005,0H17a4.017,4.017,0,0,1,3.044,1.4,3.943,3.943,0,0,1,.918,3.155A12.556,12.556,0,0,1,16.551,12a12.557,12.557,0,0,1,4.406,7.448,3.944,3.944,0,0,1-.918,3.156A4.017,4.017,0,0,1,17,24Z" transform="translate(-0.003)"/>
</svg>
