<svg id="invite" xmlns="http://www.w3.org/2000/svg" width="24" height="24" viewBox="0 0 24 24">
  <rect id="Rectangle_39" data-name="Rectangle 39" width="24" height="24" fill="none"/>
  <path id="users_1_" data-name="users(1)" d="M7.5,13A4.5,4.5,0,1,1,12,8.5,4.5,4.5,0,0,1,7.5,13ZM14,24H1a1,1,0,0,1-1-1v-.5a7.5,7.5,0,0,1,15,0V23A1,1,0,0,1,14,24ZM17.5,9A4.5,4.5,0,1,1,22,4.5,4.5,4.5,0,0,1,17.5,9Zm-1.421,2.021a6.825,6.825,0,0,0-4.67,2.831A9.537,9.537,0,0,1,16.323,19H23a1,1,0,0,0,1-1v-.038a7.008,7.008,0,0,0-7.921-6.941Z"/>
</svg>
