<svg id="mouth" xmlns="http://www.w3.org/2000/svg" width="24" height="24" viewBox="0 0 24 24">
  <rect id="family" width="24" height="24" fill="none"/>
  <path id="icons_app_ui23" d="M71.223,58.568c-.214.237-.441.458-.64.705-1.248,1.562-2.466,3.148-3.743,4.686a18.08,18.08,0,0,1-1.741,1.7,4.35,4.35,0,0,1-2.464,1.026,21.8,21.8,0,0,1-4.156.237,8.789,8.789,0,0,1-6.2-2.73c-.99-1.072-1.906-2.211-2.858-3.316a9.548,9.548,0,0,0-1.625-1.647c-.133-.1-.28-.17-.416-.261-.211-.143-.194-.309,0-.465a9.419,9.419,0,0,0,1.117-.948c1.084-1.189,2.116-2.426,3.211-3.605a16.865,16.865,0,0,1,1.737-1.566,3.122,3.122,0,0,1,3.228-.415,6.153,6.153,0,0,1,2.395,1.586.457.457,0,0,1,.062.088,15.848,15.848,0,0,1,1.39-1.214,4.7,4.7,0,0,1,3.684-.846,4.116,4.116,0,0,1,1.9,1.105,21.748,21.748,0,0,1,2.506,2.843c.511.651,1.02,1.306,1.563,1.93a8.075,8.075,0,0,0,.881.76c.058.05.111.105.167.158Zm-20.641.527A17.949,17.949,0,0,0,68.406,59c-.6-.216-1.192-.407-1.768-.642-.65-.264-1.284-.568-1.926-.852a3.3,3.3,0,0,0-2.128-.213q-1.161.271-2.311.587a2.428,2.428,0,0,1-1.427-.023c-.579-.185-1.158-.372-1.746-.527a4.022,4.022,0,0,0-2.079-.158,7.077,7.077,0,0,0-1.359.553A13.757,13.757,0,0,1,50.583,59.095Z" transform="translate(-47.223 -47.222)"/>
</svg>
