<svg id="nerve" xmlns="http://www.w3.org/2000/svg" width="24" height="24" viewBox="0 0 24 24">
  <rect id="female-mouth-lips" width="24" height="24" fill="none"/>
  <g id="vector" transform="translate(1.31 0)">
    <path id="Path_80" data-name="Path 80" d="M54.221,64.282a1.941,1.941,0,0,0-.563.9c-.029.072-.043.158-.077.231a.3.3,0,0,1-.4.18.29.29,0,0,1-.206-.385,2.771,2.771,0,0,1,1-1.571.4.4,0,0,0,.145-.3c-.127-1.312-.27-2.623-.408-3.934a.9.9,0,0,0-.61-.819.923.923,0,0,0-1,.223l-3.875,3.556a.435.435,0,0,0-.12.249,4.393,4.393,0,0,0,.29,2.363c.086.2.089.374-.119.491-.177.1-.362.009-.473-.217a4.6,4.6,0,0,1-.385-1.679c-.005-.077-.007-.156-.014-.314l-.724.921c-.055.072-.1.149-.162.217a.307.307,0,0,1-.456.052A.29.29,0,0,1,46,64.015c.193-.272.393-.541.6-.8q2.139-2.644,4.283-5.283a1.324,1.324,0,0,0,.332-.866,1.151,1.151,0,0,0-.927-1.178,22.072,22.072,0,0,0-3.009-.3,8.155,8.155,0,0,0-2.1.368,3.481,3.481,0,0,0-.97.558c-.172.116-.323.175-.482.02a.315.315,0,0,1,.012-.481,3.369,3.369,0,0,1,1.685-.869c.173-.048.351-.082.545-.127-.193-.24-.388-.464-.561-.7A5.521,5.521,0,0,1,44.441,52c-.035-.208.03-.369.244-.414.23-.049.348.078.4.3.077.338.167.674.265,1.063a3.972,3.972,0,0,1,.435-.629,4.789,4.789,0,0,1,.754-.6.293.293,0,0,1,.45.145.3.3,0,0,1-.19.435,2.017,2.017,0,0,0-.955,1.258c-.024.063.014.151.029.226a.237.237,0,0,0,.043.068,1.691,1.691,0,0,0,2.032.97,22.429,22.429,0,0,1,2.52-.345,1.108,1.108,0,0,0,.776-1.764c-1.014-1.42-2.028-2.833-3.084-4.222a2.341,2.341,0,0,0-1.41-.686,3.391,3.391,0,0,0-.537-.061c-.217-.015-.379-.1-.374-.335a.3.3,0,0,1,.384-.312c.47.064.942.15,1.391.224-.072-.358-.162-.765-.225-1.177a3.187,3.187,0,0,1-.02-.675.295.295,0,0,1,.328-.29.289.289,0,0,1,.309.309,5.176,5.176,0,0,0,1.829,3.928c.755.713,1.528,1.407,2.294,2.109a.9.9,0,0,0,1.548-.6c.122-1.467.259-2.933.362-4.4a1.747,1.747,0,0,0-1.249-1.7.323.323,0,1,1,.132-.633,1.951,1.951,0,0,1,1.223.753c.035-.342.06-.631.1-.918.057-.448.122-.894.185-1.341a.391.391,0,0,1,.019-.079.306.306,0,0,1,.39-.275c.212.043.27.193.243.39-.072.519-.16,1.036-.206,1.557-.056.638-.072,1.28-.109,1.92a1.423,1.423,0,0,0,.022.186c.217-.307.4-.579.6-.846.155-.21.353-.258.507-.129.2.166.136.336.013.524-.262.4-.519.8-.755,1.218a2.239,2.239,0,0,0-.247,1.388c.072.655.133,1.314.156,1.971a1.487,1.487,0,0,0,2.39,1.207C58.8,50.775,60.208,49.9,61.6,49.01a.39.39,0,0,0,.212-.493,9.54,9.54,0,0,1-.12-1.121,1.615,1.615,0,0,1-1.175-1.159c-.08-.255-.017-.44.178-.49.243-.062.369.063.439.285a.96.96,0,0,0,.652.71c.093-.312.172-.6.269-.892.083-.247.259-.346.45-.261.217.1.234.272.162.477a4.712,4.712,0,0,0-.29,1.835c.008.145.031.285.053.482a7.094,7.094,0,0,0,1.788-1.987c.017-.032.031-.065.045-.1a.313.313,0,0,1,.456-.2.3.3,0,0,1,.13.46,5.426,5.426,0,0,1-.737,1.093c-.688.675-1.428,1.3-2.158,1.929-1.159,1-2.341,1.989-3.5,3a1.115,1.115,0,0,0,.566,1.906c.806.105,1.621.145,2.423.272a2.682,2.682,0,0,0,1.849-.317,3.817,3.817,0,0,1,1.3-.326.33.33,0,0,1,.421.341c-.029.251-.2.308-.429.3a2.773,2.773,0,0,0-1.407.445c.295.275.585.521.843.8a5.491,5.491,0,0,1,.543.706.308.308,0,0,1-.109.485c-.208.114-.344.014-.45-.163A5.478,5.478,0,0,0,62.577,55.6a.338.338,0,0,0-.225-.05c-1.267.125-2.535.24-3.8.389a1.219,1.219,0,0,0-.869,1.956c.63.9,1.285,1.79,1.919,2.691a.275.275,0,0,0,.343.112,5.372,5.372,0,0,1,3.713.435c.2.1.3.235.229.454-.062.19-.267.235-.5.145-.425-.169-.854-.33-1.359-.523a2.152,2.152,0,0,0,.584,1.328c.046.043.131.072.145.117a.745.745,0,0,1,.044.412.272.272,0,0,1-.417.1,1.638,1.638,0,0,1-.7-.834c-.139-.35-.234-.717-.368-1.138l-1.2.1c.083.145.133.234.186.324a15.9,15.9,0,0,1,1.558,3.553.35.35,0,0,1-.124.452.327.327,0,0,1-.485-.222c-.151-.435-.294-.869-.462-1.369a3.4,3.4,0,0,0-.337,1.816c.029.283-.06.458-.269.472-.253.014-.341-.145-.369-.372a4.1,4.1,0,0,1,.521-2.476.414.414,0,0,0,.01-.42A8.871,8.871,0,0,0,57.955,59.9a1.794,1.794,0,0,0-1.933-.39,1.755,1.755,0,0,0-1.136,1.636c-.033.441-.114.879-.133,1.32a5.1,5.1,0,0,0,.608,2.765c.088.159.164.306.034.473a.317.317,0,0,1-.54-.064C54.628,65.205,54.436,64.75,54.221,64.282ZM57.81,52.252a2.112,2.112,0,0,1-2.266.179,2.233,2.233,0,0,1-1.169-1.95,1.772,1.772,0,0,1-.99,1.845,1.694,1.694,0,0,1-1.99-.564,2.265,2.265,0,0,1,.639,2.1,1.864,1.864,0,0,1-1.758,1.325,1.919,1.919,0,0,1,1.1,3.179l-.435.562a6.9,6.9,0,0,0,.753-.619,1.589,1.589,0,0,1,2.668,1.039c.026.243.057.485.1.807a2.529,2.529,0,0,1,1.334-1.25,2.637,2.637,0,0,1,1.828,0c-.624-.773-1.078-1.521-.677-2.463a2.13,2.13,0,0,1,2.146-1.231c-1.6-.563-1.962-1.393-1.276-2.954Z" transform="translate(-43.627 -42.321)"/>
    <path id="Path_81" data-name="Path 81" d="M52.713,55.279a1.85,1.85,0,1,1,.522,1.327A1.857,1.857,0,0,1,52.713,55.279Zm.652.029a1.207,1.207,0,1,0,1.193-1.216,1.207,1.207,0,0,0-1.193,1.216Z" transform="translate(-43.627 -42.321)"/>
  </g>
</svg>
