<svg id="security" xmlns="http://www.w3.org/2000/svg" width="24" height="24" viewBox="0 0 24 24">
  <rect id="Rectangle_30" data-name="Rectangle 30" width="24" height="24" fill="none"/>
  <path id="shield-check_1_" data-name="shield-check(1)" d="M18.581,2.14,12.316.051a1,1,0,0,0-.632,0L5.419,2.14A4.993,4.993,0,0,0,2,6.883V12c0,7.563,9.2,11.74,9.594,11.914a1,1,0,0,0,.812,0C12.8,23.74,22,19.563,22,12V6.883A4.993,4.993,0,0,0,18.581,2.14ZM16.718,9.717l-4.272,4.272a1.873,1.873,0,0,1-1.335.553h-.033a1.872,1.872,0,0,1-1.345-.6l-2.306-2.4A1,1,0,1,1,8.868,10.16l2.244,2.34L15.3,8.3a1,1,0,1,1,1.414,1.414Z" transform="translate(0 0)"/>
</svg>
