<svg id="send" xmlns="http://www.w3.org/2000/svg" width="24" height="24" viewBox="0 0 24 24">
  <rect id="Rectangle_63" data-name="Rectangle 63" width="24" height="24" fill="none"/>
  <g id="paper-plane_1_" data-name="paper-plane(1)">
    <path id="Path_63" data-name="Path 63" d="M23.7,1.718l-18.51,18.5a2.966,2.966,0,0,0,1.284.3h3.17a.993.993,0,0,1,.707.293l1.718,1.717A4.968,4.968,0,0,0,15.589,24a5.025,5.025,0,0,0,1.605-.265,4.931,4.931,0,0,0,3.345-3.987l3.377-16.04A2.957,2.957,0,0,0,23.7,1.718Z"/>
    <path id="Path_64" data-name="Path 64" d="M20.321.077l-16,3.371a5,5,0,0,0-2.854,8.483l1.717,1.717a1,1,0,0,1,.293.708v3.17a2.966,2.966,0,0,0,.3,1.284L22.282.3A2.929,2.929,0,0,0,20.321.077Z"/>
  </g>
</svg>
