<svg id="share" xmlns="http://www.w3.org/2000/svg" width="24" height="24" viewBox="0 0 24 24">
  <rect id="Rectangle_75" data-name="Rectangle 75" width="24" height="24" fill="none"/>
  <g id="share-2" data-name="share">
    <path id="Path_85" data-name="Path 85" d="M0,11.986A4.643,4.643,0,0,0,7.809,15.4l6.919,3.124a4.728,4.728,0,0,0-.079.784,4.675,4.675,0,1,0,.826-2.639l-6.5-2.935a4.568,4.568,0,0,0,.005-3.484L15.471,7.3a4.654,4.654,0,1,0-.826-2.64,4.622,4.622,0,0,0,.08.785l-6.9,3.136A4.644,4.644,0,0,0,0,11.986Z"/>
  </g>
</svg>
