<svg id="star" xmlns="http://www.w3.org/2000/svg" width="24" height="24" viewBox="0 0 24 24">
  <rect id="Rectangle_64" data-name="Rectangle 64" width="24" height="24" fill="none"/>
  <path id="star-2" data-name="star" d="M23.84,8.8a3.18,3.18,0,0,0-3.067-2.226H16.4L15.075,2.432a3.228,3.228,0,0,0-6.147,0L7.6,6.569H3.232a3.228,3.228,0,0,0-1.9,5.833L4.888,15,3.536,19.19A3.228,3.228,0,0,0,8.52,22.785L12,20.222l3.483,2.559a3.228,3.228,0,0,0,4.984-3.592L19.116,15l3.561-2.6A3.178,3.178,0,0,0,23.84,8.8ZM21.5,10.787l-4.145,3.029a1,1,0,0,0-.362,1.116L18.565,19.8a1.227,1.227,0,0,1-1.9,1.365l-4.076-3a1,1,0,0,0-1.184,0l-4.076,3a1.227,1.227,0,0,1-1.9-1.365l1.58-4.871a1,1,0,0,0-.362-1.116L2.507,10.787a1.227,1.227,0,0,1,.724-2.217h5.1a1,1,0,0,0,.952-.694l1.55-4.832a1.227,1.227,0,0,1,2.336,0l1.55,4.832a1,1,0,0,0,.952.694h5.1a1.227,1.227,0,0,1,.724,2.217Z" transform="translate(-0.008 0.192)"/>
</svg>
