<svg id="star_active" xmlns="http://www.w3.org/2000/svg" width="24" height="24" viewBox="0 0 24 24">
  <rect id="Rectangle_65" data-name="Rectangle 65" width="24" height="24" fill="none"/>
  <path id="star_1_" data-name="star(1)" d="M1.328,12.407l3.562,2.6L3.537,19.2a3.23,3.23,0,0,0,4.987,3.6l3.483-2.563,3.484,2.56A3.229,3.229,0,0,0,20.476,19.2l-1.353-4.189,3.562-2.6a3.229,3.229,0,0,0-1.9-5.835H16.409L15.081,2.433a3.229,3.229,0,0,0-6.149,0L7.6,6.571H3.233a3.229,3.229,0,0,0-1.9,5.835Z" transform="translate(-0.008 0.188)"/>
</svg>
