<svg id="time" xmlns="http://www.w3.org/2000/svg" width="24" height="24" viewBox="0 0 24 24">
  <rect id="Rectangle_55" data-name="Rectangle 55" width="24" height="24" fill="none"/>
  <g id="alarm-clock_1_" data-name="alarm-clock(1)" transform="translate(0.002 0.004)">
    <path id="Path_69" data-name="Path 69" d="M24,4.5a1,1,0,0,1-2,0A2.59,2.59,0,0,0,19.215,2a1,1,0,0,1,0-2A4.6,4.6,0,0,1,24,4.5Z"/>
    <path id="Path_70" data-name="Path 70" d="M2,4.5A2.59,2.59,0,0,1,4.785,2a1,1,0,0,0,0-2A4.6,4.6,0,0,0,0,4.5a1,1,0,1,0,2,0Z"/>
    <path id="Path_71" data-name="Path 71" d="M20.319,20.176A10.98,10.98,0,0,0,13,2.051V1a1,1,0,1,0-2,0V2.051A10.98,10.98,0,0,0,3.681,20.176,3.024,3.024,0,0,0,2,23a1,1,0,1,0,2,0,1.2,1.2,0,0,1,1.11-1.229.932.932,0,0,0,.2-.062,10.924,10.924,0,0,0,13.39,0,1.033,1.033,0,0,0,.182.064A1.2,1.2,0,0,1,20,23a1,1,0,0,0,2,0,3.024,3.024,0,0,0-1.681-2.824Zm-4.612-4.469a1,1,0,0,1-1.414,0l-3-3A1,1,0,0,1,11,12V7a1,1,0,0,1,2,0v4.586l2.707,2.707A1,1,0,0,1,15.707,15.707Z"/>
  </g>
</svg>
