<svg xmlns="http://www.w3.org/2000/svg" width="24" height="24" viewBox="0 0 24 24">
  <g id="tooth" transform="translate(0)">
    <rect id="Rectangle_68" data-name="Rectangle 68" width="24" height="24" transform="translate(0)" fill="none"/>
    <path id="tooth-2" data-name="tooth" d="M17.994,0A12.788,12.788,0,0,0,14.08.615,7.035,7.035,0,0,1,12,1,7.035,7.035,0,0,1,9.912.615,12.8,12.8,0,0,0,6,0,5.783,5.783,0,0,0,0,6c0,6.441,3.354,12.782,5.766,16.879A2.274,2.274,0,0,0,10,21.718V15.1a2.074,2.074,0,0,1,1.663-2.079A2,2,0,0,1,14,14.995v6.724a2.274,2.274,0,0,0,4.231,1.159c2.413-4.1,5.766-10.439,5.766-16.879a5.783,5.783,0,0,0-6-6Z" transform="translate(0.004 0.006)"/>
  </g>
</svg>
