<svg id="mus_splash_logo" xmlns="http://www.w3.org/2000/svg" width="185.969" height="179.124" viewBox="0 0 185.969 179.124">
  <path id="Path_12120" data-name="Path 12120" d="M0,420.816v-20.3a10.876,10.876,0,0,1,11.013-10.63,11.2,11.2,0,0,1,8.236,3.639,11.018,11.018,0,0,1,8.188-3.639,10.876,10.876,0,0,1,11.013,10.63v20.3a2.728,2.728,0,0,1-2.777,2.682,2.686,2.686,0,0,1-2.729-2.682l-.048-20.3a5.461,5.461,0,0,0-10.918,0v20.3a2.754,2.754,0,0,1-5.506,0v-20.3a5.461,5.461,0,0,0-10.917,0l-.048,20.3A2.686,2.686,0,0,1,2.777,423.5,2.728,2.728,0,0,1,0,420.816" transform="translate(0 -244.373)" fill="#fafafa"/>
  <path id="Path_12121" data-name="Path 12121" d="M149.928,389.883a2.685,2.685,0,0,1,2.729,2.681l.048,20.3a5.461,5.461,0,0,0,10.917,0v-20.3a2.754,2.754,0,0,1,5.506,0v20.3a11,11,0,0,1-21.978,0v-20.3a2.728,2.728,0,0,1,2.777-2.681" transform="translate(-92.232 -244.373)" fill="#fafafa"/>
  <path id="Path_12122" data-name="Path 12122" d="M256.794,389.883h10.3a2.66,2.66,0,1,1,0,5.315h-10.3a4.429,4.429,0,1,0,0,8.859c1.532,0,3.113-.048,4.645,0,5.123,0,9.433,4.692,9.433,9.72a9.84,9.84,0,0,1-9.96,9.721H250.617a2.659,2.659,0,1,1,0-5.315h10.295a4.406,4.406,0,1,0,0-8.81h-4.118a9.747,9.747,0,1,1,0-19.489" transform="translate(-154.712 -244.373)" fill="#fafafa"/>
  <path id="Path_12123" data-name="Path 12123" d="M352.931,392.564a2.728,2.728,0,0,1,2.777-2.681,2.685,2.685,0,0,1,2.729,2.681v28.252a2.685,2.685,0,0,1-2.729,2.681,2.728,2.728,0,0,1-2.777-2.681Z" transform="translate(-221.212 -244.373)" fill="#fafafa"/>
  <path id="Path_12124" data-name="Path 12124" d="M426.568,389.883a17.176,17.176,0,0,1,15.9,10.534l.1.24-.1.191A2.186,2.186,0,0,1,440.981,402a5.039,5.039,0,0,1-1.581.287,3.162,3.162,0,0,1-2.777-1.341c-.239-.335-.431-.67-.671-1.005-.239-.287-.479-.623-.766-.91a11.492,11.492,0,1,0,0,15.323,4.317,4.317,0,0,0,.718-.91c.239-.335.479-.67.718-1.053A3.646,3.646,0,0,1,439.4,411.1a5.275,5.275,0,0,1,1.581.287,2.092,2.092,0,0,1,1.484,1.149l.1.24-.1.191a17.177,17.177,0,0,1-15.9,10.535,16.811,16.811,0,1,1,0-33.614" transform="translate(-256.592 -244.373)" fill="#fafafa"/>
  <path id="Path_12125" data-name="Path 12125" d="M138.2,0C99,0,71.906,31.7,71.906,64.851c0,32.858,27.093,64.563,66.292,64.563a67.468,67.468,0,0,0,34.3-9.511,16.383,16.383,0,0,0,15.276,9.511,16.165,16.165,0,0,0,16.429-16.14V64.851C204.2,31.7,177.109,0,138.2,0m34.335,80.169a1.511,1.511,0,0,1-1.551,1.467h-4.653v5.87a6.05,6.05,0,0,1-6.2,5.871h-4.653a1.51,1.51,0,0,1-1.551-1.468V65.494a1.51,1.51,0,0,1,1.551-1.468h4.653a6.05,6.05,0,0,1,6.2,5.87v-5.87c0-16.185-12.525-29.351-27.918-29.351s-27.919,13.166-27.919,29.351V69.9a6.05,6.05,0,0,1,6.2-5.87h4.653a1.51,1.51,0,0,1,1.551,1.468V91.91a1.51,1.51,0,0,1-1.551,1.468H116.7a6.05,6.05,0,0,1-6.2-5.871v-5.87h-4.653a1.511,1.511,0,0,1-1.551-1.467V64.026c0-19.421,15.307-35.221,34.123-35.221s34.123,15.8,34.123,35.221Z" transform="translate(-45.07)" fill="#fafafa"/>
</svg>
