<svg xmlns="http://www.w3.org/2000/svg" width="26" height="26" viewBox="0 0 26 26">
  <g id="audio_post" transform="translate(335 2734)">
    <rect id="Rectangle_246" data-name="Rectangle 246" width="26" height="26" transform="translate(-335 -2734)" fill="none"/>
    <path id="Path_856" data-name="Path 856" d="M12.5,3.076A5.621,5.621,0,0,0,6.885,8.691v6.1a5.624,5.624,0,0,0,4.639,5.53v1.991a11,11,0,0,0-3.157.805.977.977,0,0,0,.748,1.8,8.447,8.447,0,0,1,6.772,0,.977.977,0,1,0,.748-1.8,10.994,10.994,0,0,0-3.157-.805V20.325a5.624,5.624,0,0,0,4.639-5.53v-6.1A5.622,5.622,0,0,0,12.5,3.076Zm3.662,11.719a3.662,3.662,0,0,1-7.324,0v-6.1a3.662,3.662,0,0,1,7.324,0ZM22.021,8.7a.977.977,0,0,1-1.953,0,7.607,7.607,0,0,0-4.333-6.844A.977.977,0,0,1,16.571.094,9.554,9.554,0,0,1,22.021,8.7Zm-17.09,0a.977.977,0,0,1-1.953,0A9.554,9.554,0,0,1,8.429.094a.977.977,0,1,1,.836,1.765A7.607,7.607,0,0,0,4.932,8.7Zm8.789,5.75H11.279a.977.977,0,0,1,0-1.953h2.441A.977.977,0,0,1,13.721,14.453ZM1.88,4.351A11.463,11.463,0,0,1,3.5,1.583.977.977,0,0,0,1.971.37a13.414,13.414,0,0,0-1.9,3.24.977.977,0,1,0,1.807.741Zm22.514.533a.977.977,0,0,0,.533-1.274,13.415,13.415,0,0,0-1.9-3.24A.977.977,0,1,0,21.5,1.583,11.463,11.463,0,0,1,23.12,4.351a.975.975,0,0,0,1.274.533Z" transform="translate(-334.5 -2733.5)" fill="#345eb4"/>
  </g>
</svg>
