<svg xmlns="http://www.w3.org/2000/svg" width="206.626" height="31.025" viewBox="0 0 206.626 31.025">
  <g id="audio" transform="translate(-0.374 -0.079)">
    <path id="Union_2" data-name="Union 2" d="M481,2890.888v-28.543a1.241,1.241,0,1,1,2.481,0v28.543a1.241,1.241,0,0,1-2.481,0Zm-52.122,0v-28.543a1.241,1.241,0,1,1,2.481,0v28.543a1.241,1.241,0,0,1-2.481,0Zm17.374-1.241v-26.061a1.241,1.241,0,1,1,2.482,0v26.061a1.241,1.241,0,0,1-2.482,0Zm4.343-1.861v-22.339a1.241,1.241,0,0,1,2.482,0v22.339a1.241,1.241,0,0,1-2.482,0Zm-8.687,0v-22.339a1.241,1.241,0,0,1,2.482,0v22.339a1.241,1.241,0,0,1-2.482,0Zm-8.687,0v-22.339a1.241,1.241,0,0,1,2.481,0v22.339a1.241,1.241,0,0,1-2.481,0Zm43.435-.621v-21.1a1.241,1.241,0,1,1,2.482,0v21.1a1.241,1.241,0,0,1-2.482,0Zm-52.122,0v-21.1a1.241,1.241,0,1,1,2.481,0v21.1a1.241,1.241,0,1,1-2.481,0Zm43.435-2.482V2868.55a1.241,1.241,0,1,1,2.481,0v16.133a1.241,1.241,0,1,1-2.481,0Zm-52.123,0V2868.55a1.241,1.241,0,1,1,2.482,0v16.133a1.241,1.241,0,0,1-2.482,0Zm21.718-1.24v-13.651a1.241,1.241,0,1,1,2.481,0v13.651a1.241,1.241,0,0,1-2.481,0Zm34.748-.621v-12.41a1.241,1.241,0,0,1,2.482,0v12.41a1.241,1.241,0,1,1-2.482,0Zm-52.123,0v-12.41a1.241,1.241,0,0,1,2.482,0v12.41a1.241,1.241,0,1,1-2.482,0Zm34.748-.621v-11.169a1.241,1.241,0,0,1,2.482,0V2882.2a1.241,1.241,0,0,1-2.482,0Zm8.688-1.24v-8.688a1.241,1.241,0,1,1,2.481,0v8.688a1.241,1.241,0,0,1-2.481,0Zm-52.123,0v-8.688a1.241,1.241,0,1,1,2.482,0v8.688a1.241,1.241,0,0,1-2.482,0Zm47.779-.621v-7.446a1.241,1.241,0,1,1,2.481,0v7.446a1.241,1.241,0,1,1-2.481,0Z" transform="translate(-411.126 -2861.025)" fill="#041793"/>
    <path id="Union_1" data-name="Union 1" d="M511.4,2890.888v-28.543a1.241,1.241,0,0,1,2.482,0v28.543a1.241,1.241,0,0,1-2.482,0Zm-52.122,0v-28.543a1.241,1.241,0,0,1,2.482,0v28.543a1.241,1.241,0,0,1-2.482,0Zm69.5-1.241v-26.061a1.241,1.241,0,1,1,2.481,0v26.061a1.241,1.241,0,1,1-2.481,0Zm-52.123,0v-26.061a1.241,1.241,0,1,1,2.482,0v26.061a1.241,1.241,0,0,1-2.482,0Zm-52.122,0v-26.061a1.241,1.241,0,1,1,2.481,0v26.061a1.241,1.241,0,1,1-2.481,0Zm108.587-1.861v-22.339a1.241,1.241,0,0,1,2.482,0v22.339a1.241,1.241,0,0,1-2.482,0Zm-8.687,0v-22.339a1.241,1.241,0,0,1,2.482,0v22.339a1.241,1.241,0,0,1-2.482,0Zm-8.687,0v-22.339a1.241,1.241,0,0,1,2.482,0v22.339a1.241,1.241,0,0,1-2.482,0Zm-34.748,0v-22.339a1.241,1.241,0,0,1,2.482,0v22.339a1.241,1.241,0,0,1-2.482,0Zm-8.687,0v-22.339a1.241,1.241,0,0,1,2.481,0v22.339a1.241,1.241,0,0,1-2.481,0Zm-8.688,0v-22.339a1.241,1.241,0,0,1,2.482,0v22.339a1.241,1.241,0,0,1-2.482,0Zm-34.747,0v-22.339a1.241,1.241,0,0,1,2.482,0v22.339a1.241,1.241,0,0,1-2.482,0Zm-8.687,0v-22.339a1.241,1.241,0,0,1,2.482,0v22.339a1.241,1.241,0,0,1-2.482,0Zm-8.688,0v-22.339a1.241,1.241,0,0,1,2.482,0v22.339a1.241,1.241,0,0,1-2.482,0Zm95.557-.621v-21.1a1.241,1.241,0,1,1,2.481,0v21.1a1.241,1.241,0,1,1-2.481,0Zm-52.123,0v-21.1a1.241,1.241,0,1,1,2.482,0v21.1a1.241,1.241,0,0,1-2.482,0Zm43.435-2.482V2868.55a1.241,1.241,0,1,1,2.482,0v16.133a1.241,1.241,0,0,1-2.482,0Zm-52.122,0V2868.55a1.241,1.241,0,1,1,2.482,0v16.133a1.241,1.241,0,0,1-2.482,0Zm73.84-1.24v-13.651a1.241,1.241,0,0,1,2.482,0v13.651a1.241,1.241,0,0,1-2.482,0Zm-52.122,0v-13.651a1.241,1.241,0,0,1,2.482,0v13.651a1.241,1.241,0,0,1-2.482,0Zm-52.122,0v-13.651a1.241,1.241,0,1,1,2.481,0v13.651a1.241,1.241,0,0,1-2.481,0Zm86.87-.621v-12.41a1.241,1.241,0,0,1,2.482,0v12.41a1.241,1.241,0,1,1-2.482,0Zm-52.122,0v-12.41a1.241,1.241,0,1,1,2.481,0v12.41a1.241,1.241,0,1,1-2.481,0Zm86.87-.621v-11.169a1.241,1.241,0,0,1,2.482,0V2882.2a1.241,1.241,0,0,1-2.482,0Zm-52.122,0v-11.169a1.241,1.241,0,0,1,2.481,0V2882.2a1.241,1.241,0,1,1-2.481,0Zm-52.123,0v-11.169a1.241,1.241,0,0,1,2.482,0V2882.2a1.241,1.241,0,0,1-2.482,0Zm60.809-1.24v-8.688a1.241,1.241,0,1,1,2.482,0v8.688a1.241,1.241,0,0,1-2.482,0Zm-52.123,0v-8.688a1.241,1.241,0,1,1,2.482,0v8.688a1.241,1.241,0,0,1-2.482,0Zm99.9-.621v-7.446a1.241,1.241,0,0,1,2.482,0v7.446a1.241,1.241,0,1,1-2.482,0Zm-52.122,0v-7.446a1.241,1.241,0,0,1,2.482,0v7.446a1.241,1.241,0,1,1-2.482,0Zm-52.122,0v-7.446a1.241,1.241,0,0,1,2.482,0v7.446a1.241,1.241,0,1,1-2.482,0Z" transform="translate(-337.287 -2861.025)" fill="#c4c4c4"/>
  </g>
</svg>
