<svg xmlns="http://www.w3.org/2000/svg" width="31" height="31" viewBox="0 0 31 31">
  <path id="bt_feedback" d="M367.469,19.375a2.906,2.906,0,0,1,2.906,2.906v.969c0,3.819-3.6,7.75-9.687,7.75S351,27.069,351,23.25v-.969a2.906,2.906,0,0,1,2.906-2.906ZM360.688,6.781a5.329,5.329,0,1,1-3.768,1.561,5.327,5.327,0,0,1,3.768-1.561ZM378.125,0a3.874,3.874,0,0,1,3.863,3.584l.012.291V7.75a3.876,3.876,0,0,1-3.584,3.865l-.291.01h-2.908l-2.321,3.1A1.941,1.941,0,0,1,369.453,14l-.033-.215-.014-.219V11.5l-.151-.039a3.882,3.882,0,0,1-2.707-3.1l-.038-.322-.01-.289V3.875A3.876,3.876,0,0,1,370.084.01l.291-.01Z" transform="translate(-351)" fill="#fbfbfb"/>
</svg>
