<svg xmlns="http://www.w3.org/2000/svg" width="20" height="20" viewBox="0 0 20 20">
  <g id="comment" opacity="0.6">
    <path id="Path_860" data-name="Path 860" d="M19.928,15.788l-1.162-3.434A8.721,8.721,0,0,0,19.624,8.6,8.6,8.6,0,0,0,17.2,2.572a8.344,8.344,0,0,0-12-.059A8.579,8.579,0,0,0,2.729,8.47,6.289,6.289,0,0,0,.266,13.48a6.363,6.363,0,0,0,.594,2.674l-.8,2.365a1.122,1.122,0,0,0,.262,1.152,1.079,1.079,0,0,0,1.134.266l2.328-.813a6.1,6.1,0,0,0,2.632.6h.01a6.116,6.116,0,0,0,4.97-2.568,8.366,8.366,0,0,0,3.491-.868l3.381,1.18a1.283,1.283,0,0,0,1.348-.317A1.333,1.333,0,0,0,19.928,15.788ZM6.427,18.52H6.419a4.918,4.918,0,0,1-2.312-.583.587.587,0,0,0-.472-.037l-2.388.834.82-2.426a.613.613,0,0,0-.037-.479A5.105,5.105,0,0,1,2.84,9.982,8.576,8.576,0,0,0,5.26,14.7a8.355,8.355,0,0,0,4.649,2.369A4.911,4.911,0,0,1,6.427,18.52ZM18.775,16.3a.107.107,0,0,1-.119.028l-3.619-1.263a.587.587,0,0,0-.472.037,7.179,7.179,0,0,1-3.377.852h-.011A7.4,7.4,0,0,1,6.044,3.369a7.145,7.145,0,0,1,5.25-2.159,7.347,7.347,0,0,1,7.139,7.384,7.481,7.481,0,0,1-.838,3.431.613.613,0,0,0-.037.479L18.8,16.181A.111.111,0,0,1,18.775,16.3Z" transform="translate(0)" fill="#686868"/>
    <path id="Path_861" data-name="Path 861" d="M15.319,5.508H7.939a.619.619,0,1,0,0,1.239h7.38a.619.619,0,0,0,0-1.239Z" transform="translate(-0.487 -0.139)" fill="#686868"/>
    <path id="Path_862" data-name="Path 862" d="M15.319,8.055H7.939a.619.619,0,1,0,0,1.239h7.38a.619.619,0,0,0,0-1.239Z" transform="translate(-0.487 -0.203)" fill="#686868"/>
    <path id="Path_863" data-name="Path 863" d="M12.479,10.6H7.939a.619.619,0,1,0,0,1.239h4.539a.619.619,0,0,0,0-1.239Z" transform="translate(-0.395 -0.267)" fill="#686868"/>
  </g>
</svg>
