<svg id="dropbox" xmlns="http://www.w3.org/2000/svg" width="35.479" height="34" viewBox="0 0 35.479 34">
  <path id="Path_865" data-name="Path 865" d="M18.23,6.1,11.578.187A.739.739,0,0,0,10.721.1L.373,6.01a.739.739,0,0,0-.095,1.22L7.67,13.142a.738.738,0,0,0,.848.053l9.609-5.913a.739.739,0,0,0,.1-1.183Z" fill="#345eb4"/>
  <path id="Path_866" data-name="Path 866" d="M18.159,18.61,8.551,11.958a.739.739,0,0,0-.88.028L.28,17.84A.739.739,0,0,0,.37,19.06l10.348,5.972a.739.739,0,0,0,.825-.056L18.195,19.8a.739.739,0,0,0-.033-1.191Z" fill="#345eb4"/>
  <path id="Path_867" data-name="Path 867" d="M35.2,17.9l-7.391-5.913a.739.739,0,0,0-.887-.031l-9.609,6.652a.739.739,0,0,0-.033,1.192l6.652,5.174a.739.739,0,0,0,.82.059L35.1,19.121A.739.739,0,0,0,35.2,17.9Z" fill="#345eb4"/>
  <path id="Path_868" data-name="Path 868" d="M35.106,6.011,24.758.1a.739.739,0,0,0-.857.09L17.249,6.1a.739.739,0,0,0,.1,1.183L26.961,13.2a.745.745,0,0,0,.849-.053L35.2,7.231a.739.739,0,0,0-.095-1.22Z" fill="#345eb4"/>
  <path id="Path_869" data-name="Path 869" d="M25.491,26.313a2.217,2.217,0,0,1-2.46-.174L17.74,22.027l-5.291,4.115a2.217,2.217,0,0,1-2.469.17L7.392,24.819v2.529a.739.739,0,0,0,.352.63l9.609,5.913a.739.739,0,0,0,.773,0l9.609-5.913a.739.739,0,0,0,.353-.63V24.835Z" fill="#345eb4"/>
</svg>
