<svg id="economy" xmlns="http://www.w3.org/2000/svg" width="72" height="73.895" viewBox="0 0 72 73.895">
  <path id="Path_796" data-name="Path 796" d="M59.866,29.3a30.578,30.578,0,0,1-2.124,11.214,29.441,29.441,0,0,1-6.049,9.506,27.859,27.859,0,0,1-9.054,6.352,26.682,26.682,0,0,1-21.359,0,27.858,27.858,0,0,1-9.054-6.352,29.442,29.442,0,0,1-6.049-9.506A30.579,30.579,0,0,1,4.052,29.3q0-1.288.1-2.548a29.833,29.833,0,0,1,9.4-19.481A26.963,26.963,0,0,1,52.117,9.039,30.1,30.1,0,0,1,59.866,29.3Z" fill="#7d8ceb"/>
  <path id="Path_797" data-name="Path 797" d="M59.866,29.3a30.434,30.434,0,0,1-3.536,14.286,28.713,28.713,0,0,1-9.723,10.66L40.453,47.14V36.948H35.6L30.746,29.3,35.6,25.482h6.067l3.64-5.1-2.427-6.37,7.591-6.641a29.193,29.193,0,0,1,6.945,9.9A30.48,30.48,0,0,1,59.866,29.3Z" fill="#345eb4"/>
  <path id="Path_798" data-name="Path 798" d="M41.666,59.88h9.707V72.62H41.666Z" fill="#4367e0"/>
  <path id="Path_799" data-name="Path 799" d="M51.373,49.688H61.08V72.62H51.373Z" fill="#4976f2"/>
  <path id="Path_800" data-name="Path 800" d="M61.08,36.948h9.707V72.62H61.08Z" fill="#548aff"/>
  <path id="Path_801" data-name="Path 801" d="M43.025,2.4l-8.639,9.071v7.644l-7.28,5.1-4.854-5.1H16.186v-5.1l-5.613-3.537A27.765,27.765,0,0,1,25.524.793,26.7,26.7,0,0,1,43.025,2.4Z" fill="#345eb4"/>
  <path id="Path_802" data-name="Path 802" d="M28.319,38.222l-4.853,3.822v15.18A28.018,28.018,0,0,1,9.422,46.588,30.31,30.31,0,0,1,4.052,29.3q0-1.288.1-2.548h7.175l3.64,5.1h9.707Z" fill="#345eb4"/>
  <path id="Path_803" data-name="Path 803" d="M30.746,71.346H72v2.548H30.746Z" fill="#a6cfff"/>
  <path id="Path_804" data-name="Path 804" d="M12.546,39.5c0-1.407-2.716-2.548-6.067-2.548S.412,38.089.412,39.5V71.346c0,1.407,2.716,2.548,6.067,2.548s6.067-1.141,6.067-2.548Z" fill="#ffc431"/>
  <path id="Path_805" data-name="Path 805" d="M6.479,42.044c3.351,0,6.067-1.141,6.067-2.548s-2.716-2.548-6.067-2.548S.412,38.089.412,39.5,3.128,42.044,6.479,42.044Z" fill="#ffd873"/>
  <path id="Path_806" data-name="Path 806" d="M24.679,52.236c0-1.407-2.716-2.548-6.067-2.548s-6.067,1.141-6.067,2.548v19.11c0,1.407,2.716,2.548,6.067,2.548s6.067-1.141,6.067-2.548Z" fill="#ffc431"/>
  <path id="Path_807" data-name="Path 807" d="M18.612,54.784c3.351,0,6.067-1.141,6.067-2.548s-2.716-2.548-6.067-2.548-6.067,1.141-6.067,2.548S15.262,54.784,18.612,54.784Z" fill="#ffd873"/>
  <path id="Path_808" data-name="Path 808" d="M36.813,58.606c0-1.407-2.716-2.548-6.067-2.548s-6.067,1.141-6.067,2.548v12.74c0,1.407,2.716,2.548,6.067,2.548s6.067-1.141,6.067-2.548Z" fill="#ffc431"/>
  <path id="Path_809" data-name="Path 809" d="M30.746,61.154c3.351,0,6.067-1.141,6.067-2.548s-2.716-2.548-6.067-2.548-6.067,1.141-6.067,2.548S27.4,61.154,30.746,61.154Z" fill="#ffd873"/>
  <path id="Path_810" data-name="Path 810" d="M11.742,45.866a1.281,1.281,0,0,1,.706,2.3,5.917,5.917,0,0,1-1.228.681,12.613,12.613,0,0,1-4.741.838,12.613,12.613,0,0,1-4.741-.838A5.919,5.919,0,0,1,.51,48.17a1.281,1.281,0,0,1,.706-2.3,1.148,1.148,0,0,1,.676.217A8.4,8.4,0,0,0,6.479,47.14a8.4,8.4,0,0,0,4.587-1.057,1.148,1.148,0,0,1,.676-.217Z" fill="#ffb401"/>
  <path id="Path_811" data-name="Path 811" d="M30.746,49.688h2.427v2.548H30.746Z" fill="#ffd873"/>
  <path id="Path_812" data-name="Path 812" d="M68.36,21.66H63.507v2.548h1.924L41.164,49.688H35.6v2.548h6.067a1.185,1.185,0,0,0,.858-.373L67.147,26.009v2.02h2.427v-5.1a1.307,1.307,0,0,0-.355-.9A1.185,1.185,0,0,0,68.36,21.66Z" fill="#ffd873"/>
  <path id="Path_813" data-name="Path 813" d="M11.742,52.236a1.281,1.281,0,0,1,.706,2.3,5.917,5.917,0,0,1-1.228.681,12.613,12.613,0,0,1-4.741.838,12.613,12.613,0,0,1-4.741-.838A5.918,5.918,0,0,1,.51,54.54a1.281,1.281,0,0,1,.706-2.3,1.148,1.148,0,0,1,.676.217A8.4,8.4,0,0,0,6.479,53.51a8.4,8.4,0,0,0,4.587-1.057,1.148,1.148,0,0,1,.676-.217Z" fill="#ffb401"/>
  <path id="Path_814" data-name="Path 814" d="M11.742,58.606a1.281,1.281,0,0,1,.706,2.3,5.922,5.922,0,0,1-1.228.681,12.615,12.615,0,0,1-4.741.838,12.615,12.615,0,0,1-4.741-.838A5.924,5.924,0,0,1,.51,60.91a1.281,1.281,0,0,1,.706-2.3,1.148,1.148,0,0,1,.676.217A8.4,8.4,0,0,0,6.479,59.88a8.4,8.4,0,0,0,4.587-1.057,1.148,1.148,0,0,1,.676-.217Z" fill="#ffb401"/>
  <path id="Path_815" data-name="Path 815" d="M11.742,64.976a1.281,1.281,0,0,1,.706,2.3,5.918,5.918,0,0,1-1.228.681,12.615,12.615,0,0,1-4.741.838,12.615,12.615,0,0,1-4.741-.838A5.919,5.919,0,0,1,.51,67.28a1.281,1.281,0,0,1,.706-2.3,1.148,1.148,0,0,1,.676.217A8.4,8.4,0,0,0,6.479,66.25a8.4,8.4,0,0,0,4.587-1.057,1.148,1.148,0,0,1,.676-.217Z" fill="#ffb401"/>
  <path id="Path_816" data-name="Path 816" d="M23.875,58.606a1.281,1.281,0,0,1,.706,2.3,5.923,5.923,0,0,1-1.228.681,12.614,12.614,0,0,1-4.741.838,12.615,12.615,0,0,1-4.741-.838,5.926,5.926,0,0,1-1.228-.681,1.281,1.281,0,0,1,.706-2.3,1.148,1.148,0,0,1,.676.217,8.4,8.4,0,0,0,4.587,1.057A8.4,8.4,0,0,0,23.2,58.823a1.147,1.147,0,0,1,.676-.217Z" fill="#ffb401"/>
  <path id="Path_817" data-name="Path 817" d="M23.875,64.976a1.281,1.281,0,0,1,.706,2.3,5.918,5.918,0,0,1-1.228.681,12.614,12.614,0,0,1-4.741.838,12.615,12.615,0,0,1-4.741-.838,5.921,5.921,0,0,1-1.228-.681,1.281,1.281,0,0,1,.706-2.3,1.148,1.148,0,0,1,.676.217,8.4,8.4,0,0,0,4.587,1.057A8.4,8.4,0,0,0,23.2,65.193a1.148,1.148,0,0,1,.676-.217Z" fill="#ffb401"/>
  <path id="Path_818" data-name="Path 818" d="M36.009,64.976a1.281,1.281,0,0,1,.706,2.3,5.918,5.918,0,0,1-1.228.681,12.615,12.615,0,0,1-4.741.838A12.615,12.615,0,0,1,26,67.961a5.918,5.918,0,0,1-1.228-.681,1.281,1.281,0,0,1,.706-2.3,1.148,1.148,0,0,1,.676.217,8.4,8.4,0,0,0,4.587,1.057,8.4,8.4,0,0,0,4.587-1.057,1.148,1.148,0,0,1,.676-.217Z" fill="#ffb401"/>
  <path id="Path_819" data-name="Path 819" d="M13.759,53.51a1.215,1.215,0,1,0-2.427,0V70.072a1.215,1.215,0,1,0,2.427,0Z" fill="#ffb401"/>
  <path id="Path_820" data-name="Path 820" d="M25.892,59.88a1.215,1.215,0,1,0-2.427,0V70.072a1.215,1.215,0,1,0,2.427,0Z" fill="#ffb401"/>
</svg>
