<svg id="entertainment" xmlns="http://www.w3.org/2000/svg" width="72" height="63.115" viewBox="0 0 72 63.115">
  <defs>
    <linearGradient id="linear-gradient" x1="-0.344" y1="-0.561" x2="1.245" y2="0.775" gradientUnits="objectBoundingBox">
      <stop offset="0" stop-color="#3d64bc"/>
      <stop offset="1" stop-color="#798ae9"/>
    </linearGradient>
  </defs>
  <path id="Path_767" data-name="Path 767" d="M72,27.527a.726.726,0,0,0-1.076-.657L56.815,34.893l-1.306,5.323,1.306,5.331,7.592,5.666L72,54.18Z" fill="#7d8ceb"/>
  <path id="Path_768" data-name="Path 768" d="M56.815,48.245l14.109,8.022A.726.726,0,0,0,72,55.61V54.18L56.815,45.546,55.509,47.02Z" fill="#345eb4"/>
  <path id="Path_769" data-name="Path 769" d="M5.463,31.608,1.037,29.442A.727.727,0,0,0,0,30.119v10.07l2.732.013,2.732-2.686L6.77,34.785Z" fill="#a6aec4"/>
  <path id="Path_770" data-name="Path 770" d="M1.037,42.381l4.427-2.166L6.77,38.866,5.463,37.516,0,40.189V41.7A.727.727,0,0,0,1.037,42.381Z" fill="#959db0"/>
  <path id="Path_771" data-name="Path 771" d="M11.23,37.516,8.347,38.866,5.463,37.516V31.608H11.23l1.307,3.178Z" fill="#7d8ceb"/>
  <path id="Path_772" data-name="Path 772" d="M5.463,40.215H11.23l1.307-1.349L11.23,37.516H5.463Z" fill="#345eb4"/>
  <path id="Path_773" data-name="Path 773" d="M42.638,24.909c6.58,0,12.646-6.57,12.646-13.129a12.678,12.678,0,0,0-25.292,0C29.992,18.634,36.058,24.909,42.638,24.909Z" fill="url(#linear-gradient)"/>
  <path id="Path_774" data-name="Path 774" d="M21.356,24.909c5.733,0,8.813-4.926,8.813-9.2a9.008,9.008,0,0,0-8.813-7.852,9.008,9.008,0,0,0-8.813,7.852C12.543,20.4,15.794,24.909,21.356,24.909Z" fill="url(#linear-gradient)"/>
  <path id="Path_775" data-name="Path 775" d="M15.144,61.766H52.9c3.275,0,3.914-3.159,3.914-5.392V30.3A3.98,3.98,0,0,0,52.9,26.258H15.144A3.98,3.98,0,0,0,11.23,30.3V56.374C11.23,58.606,12.226,61.766,15.144,61.766Z" fill="url(#linear-gradient)"/>
  <path id="Path_776" data-name="Path 776" d="M23.826,47.769H44.22c1.452,0,1.452-2.021,1.452-2.848V35.353a1.476,1.476,0,0,0-1.452-1.5H23.826a1.476,1.476,0,0,0-1.452,1.5v9.568C22.374,45.749,22.374,47.769,23.826,47.769Z" fill="#7d8ceb"/>
  <path id="Path_777" data-name="Path 777" d="M42.638,16.388c3.294,0,4.267-2.631,4.267-4.608a4.423,4.423,0,0,0-8.534,0C38.371,13.822,39.483,16.388,42.638,16.388Z" fill="#a6aec4"/>
  <path id="Path_778" data-name="Path 778" d="M18.843,15.707c0,1.14.378,2.927,2.513,2.927,2.291,0,2.513-1.935,2.513-2.927a2.79,2.79,0,0,0-5.026,0Z" fill="#a6aec4"/>
  <path id="Path_779" data-name="Path 779" d="M52.9,60.416H15.144a3.98,3.98,0,0,1-3.914-4.043v2.7a3.98,3.98,0,0,0,3.914,4.043H52.9a3.98,3.98,0,0,0,3.914-4.043v-2.7A3.98,3.98,0,0,1,52.9,60.416Z" fill="#959db0"/>
  <path id="Path_780" data-name="Path 780" d="M44.219,46.42H23.826a1.476,1.476,0,0,1-1.451-1.5v2.7a1.476,1.476,0,0,0,1.451,1.5H44.219a1.476,1.476,0,0,0,1.452-1.5v-2.7A1.476,1.476,0,0,1,44.219,46.42Z" fill="#345eb4"/>
  <path id="Path_781" data-name="Path 781" d="M21.357,23.56a9.008,9.008,0,0,1-8.813-7.852,9.567,9.567,0,0,0-.1,1.349,9.059,9.059,0,0,0,8.91,9.2,9.059,9.059,0,0,0,8.91-9.2,9.582,9.582,0,0,0-.1-1.349A9.008,9.008,0,0,1,21.357,23.56Z" fill="#345eb4"/>
  <path id="Path_782" data-name="Path 782" d="M21.356,17.285a2.822,2.822,0,0,1-2.513-1.577,2.988,2.988,0,0,0-.321,1.349,2.835,2.835,0,1,0,5.668,0,2.987,2.987,0,0,0-.321-1.349A2.823,2.823,0,0,1,21.356,17.285Z" fill="#959db0"/>
  <path id="Path_783" data-name="Path 783" d="M42.638,23.56A12.875,12.875,0,0,1,29.992,11.78q-.066.665-.066,1.349a12.719,12.719,0,1,0,25.425,0q0-.683-.066-1.349A12.876,12.876,0,0,1,42.638,23.56Z" fill="#345eb4"/>
  <path id="Path_784" data-name="Path 784" d="M42.638,15.039a4.484,4.484,0,0,1-4.267-3.259,4.745,4.745,0,0,0-.195,1.349,4.464,4.464,0,1,0,8.924,0,4.748,4.748,0,0,0-.195-1.349A4.484,4.484,0,0,1,42.638,15.039Z" fill="#959db0"/>
  <path id="Path_785" data-name="Path 785" d="M39.887,54.2a1.127,1.127,0,0,0,0,2.253h2.721a1.127,1.127,0,0,0,0-2.253Z" fill="#b3e59f"/>
  <path id="Path_786" data-name="Path 786" d="M32.658,54.2a1.127,1.127,0,0,0,0,2.253h2.721a1.127,1.127,0,0,0,0-2.253Z" fill="#df667c"/>
  <path id="Path_787" data-name="Path 787" d="M25.429,54.2a1.127,1.127,0,0,0,0,2.253H28.15a1.127,1.127,0,0,0,0-2.253Z" fill="#eacc73"/>
</svg>
