<svg id="feedback" xmlns="http://www.w3.org/2000/svg" width="180" height="180" viewBox="0 0 180 180">
  <path id="Path_885" data-name="Path 885" d="M180,69.545a4.083,4.083,0,0,0-1.585-3.232s-10-7.752-22.959-17.926V32.727a16.38,16.38,0,0,0-16.364-16.364H115.264C109.436,11.6,104.376,7.394,101,4.4a15.944,15.944,0,0,0-21.992,0c-3.379,3-8.436,7.2-14.27,11.965H40.909A16.38,16.38,0,0,0,24.545,32.727v15.66C11.585,58.561,1.59,66.31,1.586,66.313A4.084,4.084,0,0,0,0,69.545H0v94.091A16.38,16.38,0,0,0,16.364,180H163.637A16.38,16.38,0,0,0,180,163.636V69.545ZM155.455,58.785c5.721,4.48,10.578,8.266,13.779,10.757-3.2,2.481-8.06,6.265-13.779,10.737ZM84.431,10.523c3.508-3.108,7.626-3.112,11.142,0,1.841,1.628,4.164,3.607,6.83,5.837H77.6C80.268,14.134,82.59,12.153,84.431,10.523Zm-51.7,22.2a8.192,8.192,0,0,1,8.182-8.182h98.182a8.192,8.192,0,0,1,8.182,8.182V86.69c-18.312,14.382-41.283,32.652-51.7,41.874a8.862,8.862,0,0,1-5.7,2.345,8.344,8.344,0,0,1-5.573-2.345c-10.48-9.279-33.336-27.489-51.572-41.837ZM24.545,58.785V80.3c-5.723-4.482-10.587-8.274-13.783-10.759C13.961,67.054,18.819,63.267,24.545,58.785ZM171.818,163.637a8.192,8.192,0,0,1-8.181,8.181H16.364a8.192,8.192,0,0,1-8.182-8.181V77.9c17.063,13.281,56.539,44.257,70.692,56.794a16.514,16.514,0,0,0,11,4.4,16.884,16.884,0,0,0,11.126-4.4c14.708-13.025,54.967-44.476,70.819-56.8Z" transform="translate(0 0)" fill="#345eb4"/>
  <path id="Path_886" data-name="Path 886" d="M81.47,68.606a4.288,4.288,0,1,0-4.288-4.288A4.288,4.288,0,0,0,81.47,68.606Z" transform="translate(-3.714 -2.889)" fill="#345eb4"/>
  <path id="Path_887" data-name="Path 887" d="M107.2,68.606a4.288,4.288,0,1,0-4.288-4.288A4.288,4.288,0,0,0,107.2,68.606Z" transform="translate(-4.953 -2.889)" fill="#345eb4"/>
  <path id="Path_888" data-name="Path 888" d="M115.321,83.387a4.255,4.255,0,0,0-1.876-5.69,4.307,4.307,0,0,0-5.766,1.8c-.139.255-3.488,6.26-13.346,6.26-9.782,0-13.157-5.917-13.341-6.256a4.289,4.289,0,0,0-7.646,3.886c.222.448,5.649,10.946,20.987,10.946S115.1,83.836,115.321,83.387Z" transform="translate(-4.333 -3.9)" fill="#345eb4"/>
</svg>
