<svg xmlns="http://www.w3.org/2000/svg" width="28.3" height="28.3" viewBox="0 0 28.3 28.3">
  <g id="female" transform="translate(-0.405 0.15)">
    <circle id="Ellipse_18" data-name="Ellipse 18" cx="14" cy="14" r="14" transform="translate(0.555)" fill="none" stroke="#fcfeff" stroke-width="0.3"/>
    <path id="Union_3" data-name="Union 3" d="M248.823,2812a.251.251,0,1,1,0-.5h11.806a3.472,3.472,0,0,0-.941-2.106,6.11,6.11,0,0,0-.548-.368.246.246,0,0,1-.079-.345.265.265,0,0,1,.358-.077,6.829,6.829,0,0,1,.595.4,4.311,4.311,0,0,1,1.163,2.731.257.257,0,0,1-.258.266Zm-4.387,0a.256.256,0,0,1-.258-.266,4.3,4.3,0,0,1,1.162-2.731,22.113,22.113,0,0,1,2.271-1.358,23.588,23.588,0,0,1-.131-7.614.257.257,0,0,1,.3-.2.251.251,0,0,1,.208.291,22.814,22.814,0,0,0,.1,7.262c1.12-.6,2.221-1.167,2.607-1.364v-1.181c-.068-.059-.135-.121-.2-.187-1.439-1.493-1.261-4.353-1.253-4.473a.251.251,0,0,1,.19-.225,7.957,7.957,0,0,0,3.758-2.114.266.266,0,0,1,.227-.088.259.259,0,0,1,.2.135,4.43,4.43,0,0,0,2.3,2.091.253.253,0,0,1,.176.223c.007.121.165,2.981-1.283,4.464-.05.052-.1.1-.156.147v1.207c.377.193,1.466.751,2.574,1.348.4-2.559.915-7.966-1.311-10.5a4.134,4.134,0,0,0-3.26-1.366,4.211,4.211,0,0,0-2.94,1.042,5.6,5.6,0,0,0-1.505,2.628.26.26,0,0,1-.319.173.249.249,0,0,1-.178-.31,6.085,6.085,0,0,1,1.647-2.856,4.724,4.724,0,0,1,3.295-1.177,4.637,4.637,0,0,1,3.653,1.542c1.076,1.225,1.672,3.162,1.773,5.758a27.586,27.586,0,0,1-.374,5.328c.28.153.555.305.814.451a.247.247,0,0,1,.093.343.263.263,0,0,1-.354.089c-1.334-.754-3.126-1.678-3.756-2L253.4,2808.6a.822.822,0,0,1-1.439,0l-1.111-2.093c-.93.476-4.387,2.26-5.181,2.882a3.482,3.482,0,0,0-.941,2.107h3.065a.251.251,0,1,1,0,.5Zm6.779-5.889,1.2,2.264a.3.3,0,0,0,.519,0l1.2-2.264v-.934a3.055,3.055,0,0,1-1.474.352h-.012a3.06,3.06,0,0,1-1.438-.337Zm-1.459-5.724c-.013.628.025,2.787,1.122,3.924a2.58,2.58,0,0,0,3.557.011c1.115-1.141,1.159-3.331,1.148-3.935a4.983,4.983,0,0,1-2.247-1.967A8.734,8.734,0,0,1,249.755,2800.386Zm1.494,2.647a.245.245,0,0,1,.075-.347.264.264,0,0,1,.358.073,1.327,1.327,0,0,0,.995.535,1.313,1.313,0,0,0,.995-.535.264.264,0,0,1,.358-.073.246.246,0,0,1,.075.347,1.717,1.717,0,0,1-2.854,0Zm.9-.974c-.287-.442.055-1.083.1-1.155a.264.264,0,0,1,.35-.1.247.247,0,0,1,.105.339c-.1.181-.2.513-.112.654.071.11.3.118.429.113a.25.25,0,1,1,.022.5l-.082,0A.888.888,0,0,1,252.147,2802.06Zm1.726-1.39a.435.435,0,1,1,.428.513A.471.471,0,0,1,253.873,2800.67Zm-3.249,0a.435.435,0,1,1,.428.513A.471.471,0,0,1,250.624,2800.67Z" transform="translate(-238.122 -2789.499)" fill="#fdfeff" stroke="#fdfeff" stroke-width="0.2"/>
  </g>
</svg>
