<svg id="helath" xmlns="http://www.w3.org/2000/svg" width="72" height="58.879" viewBox="0 0 72 58.879">
  <path id="Path_736" data-name="Path 736" d="M52.876,6.586a6.031,6.031,0,0,0-6.321.436h0a.986.986,0,0,1-1.462-.765h0A6.622,6.622,0,0,0,41.619.695a6.153,6.153,0,0,0-8.434,2.964c-4.543,9.57,4.293,20.562,4.293,20.562s13.679.792,18.222-8.779A6.761,6.761,0,0,0,52.876,6.586Z" fill="#7d8ceb"/>
  <path id="Path_737" data-name="Path 737" d="M19.073,7.508h0a.554.554,0,0,0,.821-.43h0a3.505,3.505,0,0,1,6.687-1.459c2.552,5.375-2.411,11.548-2.411,11.548s-7.682.445-10.234-4.93C12.325,8.84,16.076,5.39,19.073,7.508Z" fill="#7d8ceb"/>
  <path id="Path_738" data-name="Path 738" d="M36.178,3.659A6.34,6.34,0,0,1,40.312.192a6.2,6.2,0,0,0-7.127,3.467c-4.543,9.57,4.293,20.562,4.293,20.562a23.508,23.508,0,0,0,2.934-.076C39.65,23.165,31.854,12.769,36.178,3.659Z" fill="#345eb4"/>
  <path id="Path_739" data-name="Path 739" d="M18.594,7.225c-3.016-1.481-6.148,1.87-4.657,5.011,2.552,5.375,10.234,4.93,10.234,4.93s.052-.065.142-.185C16.3,15.724,14.727,9.122,18.594,7.225Z" fill="#345eb4"/>
  <path id="Path_740" data-name="Path 740" d="M30.778,58.879H18.518a2.083,2.083,0,0,1-1.961-1.932c-.251-2.312-.728-6.7-.893-8.217l15.94-1.8,1.079,9.93A1.736,1.736,0,0,1,30.778,58.879Z" fill="#4675d3"/>
  <path id="Path_741" data-name="Path 741" d="M18.669,48.391l-3.005.34.893,8.217a2.083,2.083,0,0,0,1.961,1.932h1.291Z" fill="#4b87dd"/>
  <path id="Path_742" data-name="Path 742" d="M1.933,12.719c2.64-.788,3.569,2.172,3.656,2.412l5.1,11.5a2.552,2.552,0,0,1,3.529-1.02c6.4,3.39,7.258,3.7,8.393,5.008h0c4.7,5.622,4.079,5,6.064,11.987l-11.513,1.38L15.5,41.873c-.913-1.075-1.7-1.375-7.127-4.249a7.14,7.14,0,0,1-3.291-4.418v0L.125,16.8C0,16.278-.486,13.53,1.933,12.719Z" fill="#7d8ceb"/>
  <path id="Path_743" data-name="Path 743" d="M11.186,35.95A7.14,7.14,0,0,1,7.9,31.532v0L2.939,15.123A4.54,4.54,0,0,1,3.062,12.6a2.823,2.823,0,0,0-1.128.118C-.486,13.53,0,16.278.125,16.8L5.08,33.2v0a7.14,7.14,0,0,0,3.291,4.418c5.477,2.9,6.225,3.187,7.127,4.249l1.664,2.109L21,43.521C17.013,38.591,18.774,39.971,11.186,35.95Z" fill="#345eb4"/>
  <path id="Path_744" data-name="Path 744" d="M17.4,32.32c-.733-.388-1.5-.818-2.249-1.234-2.164-1.207-2.613-1.322-2.783-1.937-.218-.788.29-1.517,1.439-3.731a2.5,2.5,0,0,0-3.033,1.075l-.011.021a3.819,3.819,0,0,0,1.414,5.513c3.923,2.079,4.176,2.453,4.733,2.453A1.152,1.152,0,0,0,17.4,32.32Z" fill="#345eb4"/>
  <path id="Path_745" data-name="Path 745" d="M31.188,43.107l.473,4.353L15.734,49.368l-.473-4.353a.944.944,0,0,1,.8-1.055l14.125-1.693A.919.919,0,0,1,31.188,43.107Z" fill="#e8e8e8"/>
  <path id="Path_746" data-name="Path 746" d="M18.161,43.709l-2.1.252a.944.944,0,0,0-.8,1.055l.473,4.353,3-.36C18.732,48.968,18.161,43.709,18.161,43.709Z" fill="#d1d3d3"/>
  <path id="Path_747" data-name="Path 747" d="M39.316,56.864a1.746,1.746,0,0,0,1.906,2.014H53.481a2.083,2.083,0,0,0,1.961-1.932l.893-8.217L40.4,46.93Z" fill="#4675d3"/>
  <path id="Path_748" data-name="Path 748" d="M42.214,56.864s1.044-9.607,1.045-9.611L40.4,46.93c0,.005-1.079,9.929-1.08,9.935a1.746,1.746,0,0,0,1.906,2.014h2.9A1.746,1.746,0,0,1,42.214,56.864Z" fill="#4b87dd"/>
  <path id="Path_749" data-name="Path 749" d="M70.067,12.719c-2.64-.788-3.569,2.172-3.656,2.412l-5.1,11.5a2.552,2.552,0,0,0-3.529-1.02c-6.4,3.39-7.258,3.7-8.393,5.008h0c-4.7,5.622-4.079,5-6.064,11.987l11.513,1.38C56.2,42.251,56.687,41.3,58.5,40.34l5.125-2.716a7.14,7.14,0,0,0,3.291-4.418v0L71.875,16.8C72,16.278,72.486,13.53,70.067,12.719Z" fill="#7d8ceb"/>
  <path id="Path_750" data-name="Path 750" d="M52.287,29.036h0a9.237,9.237,0,0,1,.829-.957,11.5,11.5,0,0,0-3.727,2.536h0c-4.7,5.622-4.079,5-6.064,11.987l3.02.362C48.2,35.086,47.627,35.757,52.287,29.036Z" fill="#345eb4"/>
  <path id="Path_751" data-name="Path 751" d="M54.6,32.32c1.422-.754,2.985-1.663,4.244-2.33.651-.345.754-.718.788-.84.219-.793-.27-1.48-1.438-3.731a2.5,2.5,0,0,1,3.033,1.075,4.519,4.519,0,0,1,.5,3.266,3.605,3.605,0,0,1-1.9,2.267c-3.05,1.616-4.2,2.453-4.733,2.453A1.152,1.152,0,0,1,54.6,32.32Z" fill="#345eb4"/>
  <path id="Path_752" data-name="Path 752" d="M40.812,43.107l-.473,4.353,15.928,1.909.473-4.353a.943.943,0,0,0-.8-1.055L41.816,42.268A.919.919,0,0,0,40.812,43.107Z" fill="#e8e8e8"/>
  <path id="Path_753" data-name="Path 753" d="M43.294,46.93c.449-4.129.374-4.085.688-4.4l-2.167-.26a.918.918,0,0,0-1,.839l-.473,4.353,2.86.343Z" fill="#d1d3d3"/>
</svg>
