<svg xmlns="http://www.w3.org/2000/svg" width="22.105" height="20" viewBox="0 0 22.105 20">
  <path id="like" d="M11.053,20a1.284,1.284,0,0,1-.855-.327c-.893-.794-1.754-1.54-2.514-2.2l0,0a47.082,47.082,0,0,1-5.488-5.239A8.445,8.445,0,0,1,0,6.756a7.1,7.1,0,0,1,1.754-4.8A5.9,5.9,0,0,1,6.175,0,5.5,5.5,0,0,1,9.648,1.219a7.175,7.175,0,0,1,1.4,1.491,7.177,7.177,0,0,1,1.4-1.491A5.5,5.5,0,0,1,15.93,0a5.9,5.9,0,0,1,4.422,1.957,7.1,7.1,0,0,1,1.753,4.8,8.444,8.444,0,0,1-2.192,5.477,47.063,47.063,0,0,1-5.488,5.238c-.761.659-1.623,1.407-2.518,2.2A1.285,1.285,0,0,1,11.053,20ZM6.175,1.317A4.628,4.628,0,0,0,2.705,2.85,5.772,5.772,0,0,0,1.295,6.756a7.1,7.1,0,0,0,1.895,4.637A46.325,46.325,0,0,0,8.52,16.469l0,0c.762.661,1.627,1.41,2.526,2.21.905-.8,1.771-1.552,2.535-2.214a46.335,46.335,0,0,0,5.331-5.076,7.1,7.1,0,0,0,1.894-4.637A5.773,5.773,0,0,0,19.4,2.85a4.628,4.628,0,0,0-3.47-1.533,4.249,4.249,0,0,0-2.681.944,6.363,6.363,0,0,0-1.494,1.758.81.81,0,0,1-1.4,0A6.357,6.357,0,0,0,8.856,2.261,4.249,4.249,0,0,0,6.175,1.317Z" fill="#686868" opacity="0.6"/>
</svg>
