<svg id="logo" xmlns="http://www.w3.org/2000/svg" width="247.917" height="257" viewBox="0 0 247.917 257">
  <path id="Path_918" data-name="Path 918" d="M191.01,61.058V198.306H152.969l-52.155-62.349v62.349h-45.1V61.058H93.757l52.156,62.348V61.058Z" fill="#fff"/>
  <path id="Path_919" data-name="Path 919" d="M5.284,226.651A5.284,5.284,0,0,1,0,221.367V5.284A5.284,5.284,0,0,1,5.284,0H242.64a5.284,5.284,0,0,1,5.277,5.284V119.413a5.281,5.281,0,0,1-10.561,0V10.561H10.561V221.368a5.284,5.284,0,0,1-5.277,5.283Z" fill="#fff"/>
  <path id="Path_920" data-name="Path 920" d="M242.633,257H66.386a5.281,5.281,0,1,1,0-10.561H237.35v-65.5a5.28,5.28,0,1,1,10.561,0v70.783A5.283,5.283,0,0,1,242.633,257Z" fill="#fff"/>
</svg>
