<svg xmlns="http://www.w3.org/2000/svg" width="28.3" height="28.3" viewBox="0 0 28.3 28.3">
  <g id="male" transform="translate(-0.35 -0.35)">
    <path id="Path_899" data-name="Path 899" d="M28.5,14.5a14,14,0,1,1-14-14A14,14,0,0,1,28.5,14.5Z" fill="none" stroke="#fcfeff" stroke-width="0.3"/>
    <path id="Union_4" data-name="Union 4" d="M209.663,2811.5a.251.251,0,1,1,0-.5h11.9a3.389,3.389,0,0,0-.937-2.066,20.1,20.1,0,0,0-2.291-1.34.245.245,0,0,1-.1-.342.271.271,0,0,1,.359-.1,21.709,21.709,0,0,1,2.363,1.386,4.212,4.212,0,0,1,1.163,2.691.259.259,0,0,1-.263.267Zm-4.278,0a.259.259,0,0,1-.263-.267,4.215,4.215,0,0,1,1.164-2.691c.87-.671,4.569-2.542,5.353-2.936v-1.17c-.057-.05-.115-.1-.17-.157a3.729,3.729,0,0,1-.761-1.161,1.5,1.5,0,0,1-.256.022,1.311,1.311,0,0,1-1.065-.533,2.012,2.012,0,0,1-.152-2.192c.008-.011.016-.022.026-.033a15.925,15.925,0,0,1-.19-1.652.263.263,0,0,1,.525-.027c.023.4.071.848.142,1.332a.965.965,0,0,1,.442-.04c0-.069,0-.109,0-.116a.245.245,0,0,1,.1-.185,6.615,6.615,0,0,0,1.98-2.567.26.26,0,0,1,.217-.159.267.267,0,0,1,.248.111,7.646,7.646,0,0,0,4.114,2.554.251.251,0,0,1,.191.225c0,.007,0,.056.007.139a.981.981,0,0,1,.452.035,3.71,3.71,0,0,0-.4-3.3,4.872,4.872,0,0,0-3.287-1.733,2.072,2.072,0,0,0-1.6.7.274.274,0,0,1-.369.047.961.961,0,0,0-.9-.173,2.271,2.271,0,0,0-1.245,1.588,3.127,3.127,0,0,0-.1.608.258.258,0,0,1-.281.233.253.253,0,0,1-.244-.267,3.511,3.511,0,0,1,.115-.706,2.741,2.741,0,0,1,1.585-1.931,1.463,1.463,0,0,1,1.183.121,2.533,2.533,0,0,1,1.885-.72,5.37,5.37,0,0,1,3.688,1.949,4.242,4.242,0,0,1,.425,3.894c.018.022.036.044.054.068a2.012,2.012,0,0,1-.153,2.194,1.313,1.313,0,0,1-1.063.531,1.539,1.539,0,0,1-.26-.022,3.705,3.705,0,0,1-.745,1.147c-.058.06-.119.117-.182.17v1.17c.321.162,1.154.583,2.067,1.061a.244.244,0,0,1,.1.34.272.272,0,0,1-.358.1c-.757-.4-1.459-.753-1.857-.955a2,2,0,0,1-3.878,0c-1.066.539-4.3,2.191-5.066,2.781a2.705,2.705,0,0,0-.8,1.4,5.546,5.546,0,0,0-.139.667h2.93a.251.251,0,1,1,0,.5Zm6.781-5.742a1.458,1.458,0,0,0,2.912,0v-.963a3.091,3.091,0,0,1-1.446.335h-.013a3.1,3.1,0,0,1-1.453-.334Zm-1.458-5.738c-.014.52,0,2.763,1.146,3.915a2.6,2.6,0,0,0,3.547-.01c1.095-1.118,1.134-3.241,1.121-3.859a8.459,8.459,0,0,1-3.941-2.358A7.158,7.158,0,0,1,210.707,2800.02Zm-1.045.689a1.55,1.55,0,0,0,.149,1.6.779.779,0,0,0,.717.325,7.133,7.133,0,0,1-.255-1.125,9.307,9.307,0,0,1-.09-1,.54.54,0,0,0-.139-.019A.468.468,0,0,0,209.663,2800.708Zm7.383-.2a9.008,9.008,0,0,1-.083.977,7.019,7.019,0,0,1-.254,1.145.777.777,0,0,0,.721-.324,1.55,1.55,0,0,0,.151-1.6.468.468,0,0,0-.38-.219A.566.566,0,0,0,217.046,2800.512Zm-4.854,2.161a.244.244,0,0,1,.076-.348.271.271,0,0,1,.364.072,1.195,1.195,0,0,0,1.981,0,.272.272,0,0,1,.365-.07.244.244,0,0,1,.075.347,1.737,1.737,0,0,1-2.86,0Zm.9-.958c-.287-.438.055-1.072.095-1.142a.269.269,0,0,1,.357-.1.244.244,0,0,1,.107.339c-.1.177-.2.5-.112.638.07.106.3.113.425.109a.251.251,0,1,1,.022.5l-.082,0A.9.9,0,0,1,213.088,2801.715Zm1.724-1.371a.438.438,0,1,1,.432.51A.471.471,0,0,1,214.813,2800.344Zm-3.247,0a.438.438,0,1,1,.432.51A.471.471,0,0,1,211.566,2800.344Z" transform="translate(-199.121 -2788.5)" fill="#fdfeff" stroke="#fdfeff" stroke-width="0.2"/>
  </g>
</svg>
