<svg xmlns="http://www.w3.org/2000/svg" width="133.285" height="120.066" viewBox="0 0 133.285 120.066">
  <g id="no_internet" transform="translate(-13.49 -19.972)">
    <path id="Path_922" data-name="Path 922" d="M80,133.333a6.666,6.666,0,1,0-6.667-6.666A6.666,6.666,0,0,0,80,133.333Z" fill="#c7c7c7"/>
    <path id="Path_923" data-name="Path 923" d="M82.933,73.333l-12.667-12.6-16.4-16.267L43.533,34.133,31.4,21.933A6.694,6.694,0,0,0,21.933,31.4l9.2,9.133,9.733,9.733L55.733,65.2,66.067,75.466,84.333,93.733l18.6,18.667L128.6,138.066a6.694,6.694,0,1,0,9.467-9.466ZM144.8,52.866A92.867,92.867,0,0,0,80,26.666a94,94,0,0,0-29.6,4.867l10.8,10.8a79.267,79.267,0,0,1,74.4,20,6.6,6.6,0,0,0,9.2-9.467ZM25.467,44.333A95.478,95.478,0,0,0,15.2,52.866a6.667,6.667,0,0,0,9.2,9.6,87.276,87.276,0,0,1,10.667-8.6ZM113.333,87.6a6.648,6.648,0,0,0,9.534-9.267A60,60,0,0,0,80,60H78.933L94.6,75.666A46.664,46.664,0,0,1,113.333,87.6Zm-63.8-19.2a58.664,58.664,0,0,0-12.667,9.933,6.744,6.744,0,0,0,9.8,9.267A48.665,48.665,0,0,1,60,78.2Zm7.333,34.266a6.671,6.671,0,1,0,9.267,9.6,20.4,20.4,0,0,1,25.6-1.666l-16.8-16.8A33.335,33.335,0,0,0,56.867,102.666Z" fill="#c7c7c7"/>
  </g>
</svg>
