<svg id="political" xmlns="http://www.w3.org/2000/svg" width="72" height="72.538" viewBox="0 0 72 72.538">
  <path id="Path_821" data-name="Path 821" d="M45.272,18.081l-1,5.242a2.155,2.155,0,0,1-2.528,1.772,2.255,2.255,0,0,1-1.687-2.654,2.093,2.093,0,1,1-4.076-.882c1.717-8.56,1.579-8.1,1.835-8.55l-.007-.024c.115-2-.125-.094,1.427-10.41A2.213,2.213,0,0,0,37.479.03a2.134,2.134,0,0,0-2.423,1.85c0,.017-1.565,10.4-1.568,10.42-.313,2.05-1.612,2.137-1.943-.189L30.006,1.88A2.134,2.134,0,0,0,27.584.03a2.213,2.213,0,0,0-1.762,2.544c1.878,12.48,1.469,9.677,1.994,13.63.068.513-.388.566-.568.567-1.433-.035-1.788,1.118-2.033,1.841l-1.768,5.209a1.951,1.951,0,0,0,.107,1.373l1.039,2.5a9.294,9.294,0,0,0,1.537,2.315h0c2.209,2.319,2.179,1.7,2.183,7.008V69.033S28.3,72.418,31.2,72.418h7.9c2.565,0,2.383-3.208,2.383-3.208,0-34.031,0-31.6,0-35.47a3.968,3.968,0,0,1,.775-2.343L43.61,29.85c.333-.434,1.666-1.287,1.665-2.921Z" transform="translate(1.489)" fill="#7d8ceb"/>
  <path id="Path_822" data-name="Path 822" d="M34.177,17.859c-.924-1.827-3.59-1-7-1.09a1.845,1.845,0,0,0-1.809,1.395l-.257.757a41.7,41.7,0,0,0,4.825-.015,8.112,8.112,0,0,1,2.436.051c.9,1.914-1.294,2.688-3.326,2.828a1.078,1.078,0,0,0-.972,1.163,1.061,1.061,0,0,0,1.108,1.021C34.259,23.62,35.485,20.446,34.177,17.859Z" transform="translate(1.267)" fill="#345eb4"/>
  <path id="Path_823" data-name="Path 823" d="M44.16,12.833A2.155,2.155,0,0,0,41.633,14.6l-1.572,8.273a2.255,2.255,0,0,0,1.688,2.654,2.155,2.155,0,0,0,2.528-1.772l1.571-8.273A2.255,2.255,0,0,0,44.16,12.833Z" transform="translate(1.902)" fill="#d8825d"/>
  <path id="Path_824" data-name="Path 824" d="M39.945,11.951a2.155,2.155,0,0,0-2.528,1.771L35.846,22a2.255,2.255,0,0,0,1.687,2.654,2.155,2.155,0,0,0,2.528-1.772L41.633,14.6A2.255,2.255,0,0,0,39.945,11.951Z" transform="translate(1.702)" fill="#d8825d"/>
  <path id="Path_825" data-name="Path 825" d="M44.16,12.833A2.155,2.155,0,0,0,41.633,14.6l-1.572,8.273a2.255,2.255,0,0,0,1.688,2.654,2.155,2.155,0,0,0,2.528-1.772l1.571-8.273A2.255,2.255,0,0,0,44.16,12.833Z" transform="translate(1.902)" fill="#7d8ceb"/>
  <path id="Path_826" data-name="Path 826" d="M39.945,11.951a2.155,2.155,0,0,0-2.528,1.771L35.846,22a2.255,2.255,0,0,0,1.687,2.654,2.155,2.155,0,0,0,2.528-1.772L41.633,14.6A2.255,2.255,0,0,0,39.945,11.951Z" transform="translate(1.702)" fill="#7d8ceb"/>
  <path id="Path_827" data-name="Path 827" d="M31.105,69.033V37.014c0-5.281.035-4.678-2.183-7.008h0c-1.24-1.288-1.724-2.765-2.576-4.812a1.951,1.951,0,0,1-.107-1.373l1.92-5.657a1.863,1.863,0,0,1,1.881-1.392c.18,0,.636-.054.568-.567-.522-3.926-.156-1.412-1.994-13.63a2.282,2.282,0,0,1,.7-2.018,2.127,2.127,0,0,0-3.49,2.018c1.878,12.48,1.469,9.677,1.994,13.63.056.422-.232.575-.639.565a1.845,1.845,0,0,0-1.81,1.395l-.152.449-1.768,5.209a1.952,1.952,0,0,0,.107,1.373l1.039,2.5a9.294,9.294,0,0,0,1.537,2.315h0c2.209,2.319,2.179,1.7,2.183,7.008V69.033s-.018,3.385,2.883,3.385h2.793C31.088,72.418,31.105,69.033,31.105,69.033Z" transform="translate(1.201)" fill="#345eb4"/>
  <path id="Path_828" data-name="Path 828" d="M42.853,22.878,44.425,14.6a2.27,2.27,0,0,1,.712-1.272,2.121,2.121,0,0,0-3.5,1.272l-1.572,8.273a2.162,2.162,0,0,0,3.5,2.155A2.319,2.319,0,0,1,42.853,22.878Z" transform="translate(1.879)" fill="#345eb4"/>
  <path id="Path_829" data-name="Path 829" d="M38.639,22l1.572-8.273a2.27,2.27,0,0,1,.712-1.272,2.121,2.121,0,0,0-3.5,1.272L35.846,22a2.255,2.255,0,0,0,1.687,2.654,2.071,2.071,0,0,0,1.816-.5A2.32,2.32,0,0,1,38.639,22Z" transform="translate(1.682)" fill="#345eb4"/>
  <path id="Path_830" data-name="Path 830" d="M32.826,13.924c3.354.819,3.455-1.624,3.455-1.624,0-.018,1.565-10.4,1.567-10.42A2.246,2.246,0,0,1,38.543.557a2.146,2.146,0,0,0-.221-.178C38.284.352,38.277.346,38.209.3,38.174.283,38.1.241,38.06.221A1.626,1.626,0,0,0,37.85.13c-.068-.025-.134-.046-.184-.059a2.123,2.123,0,0,0-2.61,1.808c-1.425,9.473-1.215,8.072-1.341,8.912-.146.967-.3,3.055-1.185,3.055l.294.078Z" transform="translate(1.549)" fill="#345eb4"/>
  <path id="Path_831" data-name="Path 831" d="M68.382,41.4l-1,5.241a2.155,2.155,0,0,1-2.528,1.772,2.255,2.255,0,0,1-1.687-2.654,2.093,2.093,0,1,1-4.076-.882c1.719-8.572,1.579-8.1,1.835-8.549l-.007-.024c.115-1.988-.12-.126,1.427-10.41a2.213,2.213,0,0,0-1.762-2.544,2.134,2.134,0,0,0-2.423,1.85L56.6,35.613v.009c-.312,2.05-1.612,2.138-1.943-.189L53.117,25.2a2.134,2.134,0,0,0-2.423-1.85A2.213,2.213,0,0,0,48.933,25.9c1.855,12.331,1.474,9.717,1.994,13.63.056.422-.232.575-.639.565a1.845,1.845,0,0,0-1.809,1.395l-.152.449-1.768,5.209a1.952,1.952,0,0,0,.107,1.373c.786,1.888,1.313,3.5,2.576,4.812h0c2.674,2.8,2.183.782,2.183,15.824,0,0-.018,3.385,2.883,3.385h7.9c2.565,0,2.383-3.208,2.383-3.208,0-9.947,0-8.351,0-12.267a3.968,3.968,0,0,1,.775-2.343l1.354-1.548c.333-.434,1.666-1.287,1.665-2.921Z" transform="translate(3)" fill="#7d8ceb"/>
  <path id="Path_832" data-name="Path 832" d="M57.288,41.182c-.954-1.886-4.008-.971-6.266-1.08l-.59-.011a.932.932,0,0,1-.145,0,1.845,1.845,0,0,0-1.81,1.395l-.152.449-.1.308,2.721.045c1.507.07,3.945-.3,4.54-.01.9,1.914-1.294,2.688-3.326,2.828a1.078,1.078,0,0,0-.972,1.163,1.061,1.061,0,0,0,1.108,1.021C57.45,46.938,58.564,43.705,57.288,41.182Z" transform="translate(2.433)" fill="#345eb4"/>
  <path id="Path_833" data-name="Path 833" d="M67.271,36.156a2.155,2.155,0,0,0-2.527,1.772L63.172,46.2a2.255,2.255,0,0,0,1.687,2.654,2.155,2.155,0,0,0,2.528-1.772l1.571-8.273A2.255,2.255,0,0,0,67.271,36.156Z" transform="translate(3)" fill="#d8825d"/>
  <path id="Path_834" data-name="Path 834" d="M63.056,35.274a2.155,2.155,0,0,0-2.528,1.771l-1.572,8.273a2.255,2.255,0,0,0,1.687,2.654A2.155,2.155,0,0,0,63.172,46.2l1.572-8.273A2.255,2.255,0,0,0,63.056,35.274Z" transform="translate(3)" fill="#d8825d"/>
  <path id="Path_835" data-name="Path 835" d="M67.271,36.156a2.155,2.155,0,0,0-2.527,1.772L63.172,46.2a2.255,2.255,0,0,0,1.687,2.654,2.155,2.155,0,0,0,2.528-1.772l1.571-8.273A2.255,2.255,0,0,0,67.271,36.156Z" transform="translate(3)" fill="#7d8ceb"/>
  <path id="Path_836" data-name="Path 836" d="M63.056,35.274a2.155,2.155,0,0,0-2.528,1.771l-1.572,8.273a2.255,2.255,0,0,0,1.687,2.654A2.155,2.155,0,0,0,63.172,46.2l1.572-8.273A2.255,2.255,0,0,0,63.056,35.274Z" transform="translate(3)" fill="#7d8ceb"/>
  <path id="Path_837" data-name="Path 837" d="M54.216,69.153c0-15.049.483-13.024-2.183-15.824h0c-1.24-1.288-1.724-2.764-2.576-4.812a1.952,1.952,0,0,1-.107-1.373l1.92-5.657A1.863,1.863,0,0,1,53.151,40.1c.18,0,.636-.054.568-.567l-.428-3.22c-.479-3.183-.077-.51-1.566-10.41a2.282,2.282,0,0,1,.7-2.018,2.127,2.127,0,0,0-3.49,2.018c1.855,12.331,1.474,9.717,1.994,13.63.056.422-.232.575-.639.565a1.845,1.845,0,0,0-1.809,1.395l-.152.449-1.768,5.209a1.952,1.952,0,0,0,.107,1.373c.786,1.888,1.313,3.5,2.576,4.812h0c2.674,2.8,2.183.781,2.183,15.824,0,0-.018,3.385,2.883,3.385H57.1C54.2,72.538,54.216,69.153,54.216,69.153Z" transform="translate(2.389)" fill="#345eb4"/>
  <path id="Path_838" data-name="Path 838" d="M65.964,46.2l1.572-8.273a2.269,2.269,0,0,1,.712-1.272,2.121,2.121,0,0,0-3.5,1.272L63.172,46.2a2.162,2.162,0,0,0,3.5,2.155A2.32,2.32,0,0,1,65.964,46.2Z" transform="translate(3)" fill="#345eb4"/>
  <path id="Path_839" data-name="Path 839" d="M61.749,45.319l1.572-8.273a2.271,2.271,0,0,1,.712-1.272,2.121,2.121,0,0,0-3.5,1.272l-1.572,8.273a2.162,2.162,0,0,0,3.5,2.154A2.319,2.319,0,0,1,61.749,45.319Z" transform="translate(3)" fill="#345eb4"/>
  <path id="Path_840" data-name="Path 840" d="M55.937,37.247c3.354.819,3.455-1.624,3.455-1.624,0-.018,1.565-10.4,1.567-10.42a2.246,2.246,0,0,1,.695-1.324,2.161,2.161,0,0,0-.221-.178l-.013-.009c-.033-.023-.066-.044-.1-.065l-.059-.034c-.03-.017-.059-.034-.09-.049-.049-.024-.1-.047-.149-.068l-.062-.023c-.041-.015-.083-.029-.125-.042l-.059-.017c-.061-.016-.124-.031-.187-.041a2.134,2.134,0,0,0-2.423,1.85l-1.246,8.281c-.218,1.455-.361,3.686-1.279,3.686l.294.078Z" transform="translate(3)" fill="#345eb4"/>
  <path id="Path_841" data-name="Path 841" d="M21.908,41.319l-1,5.241a2.155,2.155,0,0,1-2.528,1.772A2.255,2.255,0,0,1,16.7,45.678,2.155,2.155,0,0,1,14.17,47.45,2.17,2.17,0,0,1,12.621,44.8l1.572-7.835a2.308,2.308,0,0,1,.263-.714l-.007-.024c.115-1.988-.12-.126,1.427-10.41a2.213,2.213,0,0,0-1.762-2.544,2.134,2.134,0,0,0-2.423,1.85c-1.425,9.473-1.215,8.072-1.34,8.912,0,.014-.225,1.493-.227,1.508-.019.122-.251,1.547-.958,1.547-.861,0-1.05-2.165-1.184-3.055l-.1-.631L6.643,25.119a2.134,2.134,0,0,0-2.423-1.85,2.213,2.213,0,0,0-1.762,2.544c1.855,12.332,1.474,9.717,1.994,13.63.056.421-.232.575-.639.565A1.845,1.845,0,0,0,2,41.4l-.152.449L.083,47.06A1.951,1.951,0,0,0,.19,48.433l1.039,2.5a9.293,9.293,0,0,0,1.537,2.315h0c2.675,2.812,2.183.775,2.183,15.824,0,0-.018,3.385,2.883,3.385h7.9c2.565,0,2.383-3.208,2.383-3.208v-9c0-2.924,0-2.225,0-3.263a3.968,3.968,0,0,1,.775-2.343l1.354-1.548c.333-.434,1.666-1.287,1.665-2.922Z" fill="#7d8ceb"/>
  <path id="Path_842" data-name="Path 842" d="M10.814,41.1c-.906-1.791-3.462-1.033-6.856-1.091A1.873,1.873,0,0,0,2,41.4l-.257.757a41.715,41.715,0,0,0,4.825-.015,8.112,8.112,0,0,1,2.436.051,1.6,1.6,0,0,1,.061,1.433c-.407.766-1.642,1.275-3.387,1.395a1.078,1.078,0,0,0-.972,1.164,1.061,1.061,0,0,0,1.108,1.021C10.976,46.853,12.09,43.621,10.814,41.1Z" fill="#345eb4"/>
  <path id="Path_843" data-name="Path 843" d="M20.8,36.072a2.155,2.155,0,0,0-2.528,1.772L16.7,46.116a2.255,2.255,0,0,0,1.687,2.654A2.155,2.155,0,0,0,20.913,47l1.571-8.273A2.255,2.255,0,0,0,20.8,36.072Z" transform="translate(0.792)" fill="#d8825d"/>
  <path id="Path_844" data-name="Path 844" d="M16.582,35.189a2.155,2.155,0,0,0-2.528,1.771l-1.572,8.273a2.255,2.255,0,0,0,1.687,2.654A2.156,2.156,0,0,0,16.7,46.117l1.572-8.273A2.255,2.255,0,0,0,16.582,35.189Z" transform="translate(0.591)" fill="#d8825d"/>
  <path id="Path_845" data-name="Path 845" d="M20.8,36.072a2.155,2.155,0,0,0-2.528,1.772L16.7,46.116a2.255,2.255,0,0,0,1.687,2.654A2.155,2.155,0,0,0,20.913,47l1.571-8.273A2.255,2.255,0,0,0,20.8,36.072Z" transform="translate(0.792)" fill="#7d8ceb"/>
  <path id="Path_846" data-name="Path 846" d="M16.582,35.189a2.155,2.155,0,0,0-2.528,1.771l-1.572,8.273a2.255,2.255,0,0,0,1.687,2.654A2.156,2.156,0,0,0,16.7,46.117l1.572-8.273A2.255,2.255,0,0,0,16.582,35.189Z" transform="translate(0.591)" fill="#7d8ceb"/>
  <path id="Path_847" data-name="Path 847" d="M7.742,69.069c0-15.043.48-13.028-2.183-15.824h0a9.3,9.3,0,0,1-1.537-2.315c-1.11-2.666-1.411-3.087-1.146-3.869L4.8,41.4A1.863,1.863,0,0,1,6.677,40.01c.18,0,.636-.054.568-.567l-.428-3.22L6.5,34.094,5.251,25.813a2.282,2.282,0,0,1,.7-2.018,2.046,2.046,0,0,0-1.728-.526,2.213,2.213,0,0,0-1.762,2.544c1.855,12.332,1.474,9.717,1.994,13.63.056.421-.232.575-.639.565A1.845,1.845,0,0,0,2,41.4l-.152.449L.083,47.06A1.952,1.952,0,0,0,.19,48.433l1.039,2.5a9.293,9.293,0,0,0,1.537,2.315h0c2.675,2.812,2.183.775,2.183,15.824,0,0-.018,3.385,2.883,3.385h2.793C7.724,72.453,7.742,69.069,7.742,69.069Z" fill="#345eb4"/>
  <path id="Path_848" data-name="Path 848" d="M19.49,46.116l1.572-8.273a2.271,2.271,0,0,1,.712-1.272,2.121,2.121,0,0,0-3.5,1.272L16.7,46.116a2.255,2.255,0,0,0,1.687,2.654,2.07,2.07,0,0,0,1.816-.5A2.319,2.319,0,0,1,19.49,46.116Z" transform="translate(0.782)" fill="#345eb4"/>
  <path id="Path_849" data-name="Path 849" d="M15.275,45.234l1.572-8.273a2.27,2.27,0,0,1,.712-1.272,2.121,2.121,0,0,0-3.5,1.272l-1.572,8.273a2.162,2.162,0,0,0,3.5,2.155A2.319,2.319,0,0,1,15.275,45.234Z" transform="translate(0.584)" fill="#345eb4"/>
  <path id="Path_850" data-name="Path 850" d="M12.919,35.529l1.566-10.41A2.245,2.245,0,0,1,15.18,23.8a2.1,2.1,0,0,0-3.487,1.324c-1.425,9.473-1.215,8.072-1.34,8.912,0,.014-.225,1.493-.227,1.508-.019.122-.251,1.547-.958,1.547l.294.078C9.6,37.128,12.585,38.1,12.919,35.529Z" fill="#345eb4"/>
</svg>
