<svg xmlns="http://www.w3.org/2000/svg" width="72" height="60.553" viewBox="0 0 72 60.553">
  <defs>
    <linearGradient id="linear-gradient" y1="0.17" x2="0.885" y2="0.786" gradientUnits="objectBoundingBox">
      <stop offset="0" stop-color="#3d64bc"/>
      <stop offset="1" stop-color="#798ae9"/>
    </linearGradient>
  </defs>
  <g id="science" transform="translate(0 -0.447)">
    <path id="Path_788" data-name="Path 788" d="M59.041,18.524V4.04H41.3V18.524A22.258,22.258,0,0,0,50.171,61a22.257,22.257,0,0,0,8.87-42.476Z" fill="url(#linear-gradient)"/>
    <path id="Path_789" data-name="Path 789" d="M45.289,18.525V14.516a3.9,3.9,0,0,1,3.867-3.932h9.885v-4.3L55.523,3.031l-3.313-.9L41.3,6.285v12.24A22.258,22.258,0,0,0,50.017,61c-6.564-.154-11.859-10.03-11.859-22.19C38.158,29.761,41.088,21.981,45.289,18.525Z" fill="#345eb4"/>
    <path id="Path_790" data-name="Path 790" d="M42.683,51.35,28.507,26.387V13.471H15.035V26.387L.858,51.35A6.434,6.434,0,0,0,6.339,61H37.2A6.434,6.434,0,0,0,42.683,51.35Z" fill="url(#linear-gradient)"/>
    <path id="Path_791" data-name="Path 791" d="M28.507,13.471l-4.125-2.356-7.905.084-1.443,2.272V26.386L.858,51.35A6.433,6.433,0,0,0,6.337,61h8.426c-2.212,0-3.595-5.361-2.489-9.65l6.438-24.964V19.755a2.447,2.447,0,0,1,2.427-2.467h7.368Z" fill="#345eb4"/>
    <path id="Path_792" data-name="Path 792" d="M33.391,10.552a2.9,2.9,0,0,1-2.871,2.919H13.02a2.838,2.838,0,0,1-2.03-.855,2.936,2.936,0,0,1-.841-2.064A2.9,2.9,0,0,1,13.02,7.633h17.5a2.84,2.84,0,0,1,2.03.854A2.938,2.938,0,0,1,33.391,10.552Z" fill="#345eb4"/>
    <path id="Path_793" data-name="Path 793" d="M33.391,10.552a2.9,2.9,0,0,1-2.871,2.919H19.984a2.838,2.838,0,0,1-2.031-.855,2.935,2.935,0,0,1-.84-2.064,2.9,2.9,0,0,1,2.871-2.919H30.52a2.84,2.84,0,0,1,2.03.854A2.938,2.938,0,0,1,33.391,10.552Z" fill="#7d8ceb"/>
    <path id="Path_794" data-name="Path 794" d="M63.987,3.366a2.9,2.9,0,0,1-2.871,2.919H39.468a2.838,2.838,0,0,1-2.031-.854A2.938,2.938,0,0,1,36.6,3.366,2.9,2.9,0,0,1,39.468.447H61.116a2.838,2.838,0,0,1,2.03.855A2.933,2.933,0,0,1,63.987,3.366Z" fill="#345eb4"/>
    <path id="Path_795" data-name="Path 795" d="M63.987,3.366a2.9,2.9,0,0,1-2.871,2.919H46.178a2.842,2.842,0,0,1-2.031-.854,2.937,2.937,0,0,1-.84-2.065A2.9,2.9,0,0,1,46.178.447H61.115a2.838,2.838,0,0,1,2.03.855A2.933,2.933,0,0,1,63.987,3.366Z" fill="#7d8ceb"/>
  </g>
</svg>
