<svg xmlns="http://www.w3.org/2000/svg" width="29.76" height="31" viewBox="0 0 29.76 31">
  <path id="setting" d="M117.263,17.011a12.674,12.674,0,0,0,.1-1.511,9.617,9.617,0,0,0-.115-1.511l3.234-2.557a.808.808,0,0,0,.191-.988l-3.061-5.367a.774.774,0,0,0-.938-.349l-3.807,1.55a11.154,11.154,0,0,0-2.583-1.511L109.706.659A.766.766,0,0,0,108.941,0h-6.122a.747.747,0,0,0-.746.659L101.5,4.766a11.463,11.463,0,0,0-2.583,1.511l-3.807-1.55a.752.752,0,0,0-.937.349L91.11,10.443a.757.757,0,0,0,.191.988l3.233,2.557a9.246,9.246,0,0,0-.019,3.022l-3.233,2.558a.808.808,0,0,0-.191.988l3.061,5.367a.773.773,0,0,0,.937.349l3.807-1.55a11.162,11.162,0,0,0,2.583,1.511l.574,4.108a.78.78,0,0,0,.765.659h6.122a.734.734,0,0,0,.746-.659l.574-4.108a11.452,11.452,0,0,0,2.583-1.511l3.807,1.55a.753.753,0,0,0,.938-.349l3.061-5.367a.757.757,0,0,0-.192-.988Zm-11.383,4.3a5.813,5.813,0,1,1,5.74-5.812A5.794,5.794,0,0,1,105.88,21.313Z" transform="translate(-91)" fill="#fbfbfb"/>
</svg>
