<svg xmlns="http://www.w3.org/2000/svg" width="72" height="72" viewBox="0 0 72 72">
  <defs>
    <linearGradient id="linear-gradient" y1="0.17" x2="0.885" y2="0.786" gradientUnits="objectBoundingBox">
      <stop offset="0" stop-color="#3d64bc"/>
      <stop offset="1" stop-color="#798ae9"/>
    </linearGradient>
  </defs>
  <g id="sports" transform="translate(0 -0.273)">
    <path id="Path_729" data-name="Path 729" d="M36,.273a36,36,0,1,0,36,36A36,36,0,0,0,36,.273Z" fill="url(#linear-gradient)"/>
    <path id="Path_730" data-name="Path 730" d="M44.689,6.48a1.256,1.256,0,0,1,.4.067A34.655,34.655,0,0,1,52.815,10.4a1.241,1.241,0,1,1-1.354,2.081A32.241,32.241,0,0,0,44.29,8.9a1.241,1.241,0,0,1,.4-2.416Z" fill="#7d8ceb"/>
    <path id="Path_731" data-name="Path 731" d="M58.343,15.169a1.239,1.239,0,0,1,.97.465c.278.346.585.711.9,1.088a23.01,23.01,0,0,1,2.963,4.1,1.241,1.241,0,0,1-2.217,1.117,21.34,21.34,0,0,0-2.647-3.616c-.329-.391-.647-.771-.937-1.132a1.241,1.241,0,0,1,.967-2.018Z" fill="#7d8ceb"/>
    <path id="Path_732" data-name="Path 732" d="M61.944,61.1h.112q1.134-1.19,2.159-2.48l-2.271,0c-16.428,0-29.793-15.871-29.793-35.379,0-8.687,2.109-16.376,6.105-22.245l.407-.611C37.782.316,36.9.273,36,.273c-.073,0-.147,0-.22,0-3.989,6.182-6.113,14.09-6.113,22.961C29.667,44.116,44.146,61.1,61.944,61.1Z" fill="#345eb4"/>
    <path id="Path_733" data-name="Path 733" d="M43.739,71.43a36.053,36.053,0,0,0,3.821-1.064l-1.166-.485C29.782,63.194,18.621,42.455,18.621,18.273a72.483,72.483,0,0,1,1.2-11.434L20.5,3.775c-.991.473-1.954.993-2.891,1.552l-.212.958-.026.163a74.294,74.294,0,0,0-1.233,11.825C16.138,42.627,27.161,63.688,43.739,71.43Z" fill="#345eb4"/>
    <path id="Path_734" data-name="Path 734" d="M1.892,24.954c5.554,3.539,9.281,14.056,9.281,26.215A50.63,50.63,0,0,1,10.16,61.325q1.052,1.086,2.192,2.078l.1-.822a52.86,52.86,0,0,0,1.208-11.412c0-13.236-4.128-24.368-10.515-28.363A1.253,1.253,0,0,0,3,22.729l-.3-.135q-.471,1.147-.863,2.335Z" fill="#345eb4"/>
    <path id="Path_735" data-name="Path 735" d="M1.062,44.962c.207.838.447,1.663.713,2.478,28.327.154,51.331-7.407,68.393-22.506-.281-.844-.585-1.677-.925-2.493l-.551.489C51.978,37.807,29.286,45.214,1.241,44.962Z" fill="#345eb4"/>
  </g>
</svg>
