<svg id="take_photo" xmlns="http://www.w3.org/2000/svg" width="38.222" height="34" viewBox="0 0 38.222 34">
  <path id="Path_870" data-name="Path 870" d="M19.111,24.934A6.045,6.045,0,1,0,13,18.889,6.08,6.08,0,0,0,19.111,24.934Z" fill="#345eb4"/>
  <path id="Path_871" data-name="Path 871" d="M13.378,0,9.88,3.778H3.822A3.811,3.811,0,0,0,0,7.556V30.222A3.811,3.811,0,0,0,3.822,34H34.4a3.811,3.811,0,0,0,3.822-3.778V7.556A3.811,3.811,0,0,0,34.4,3.778H28.342L24.844,0Zm5.733,28.333a9.445,9.445,0,1,1,9.556-9.444A9.5,9.5,0,0,1,19.111,28.333Z" fill="#345eb4"/>
</svg>
