<svg id="technology" xmlns="http://www.w3.org/2000/svg" width="72" height="72" viewBox="0 0 72 72">
  <defs>
    <linearGradient id="linear-gradient" y1="0.17" x2="0.885" y2="0.786" gradientUnits="objectBoundingBox">
      <stop offset="0" stop-color="#3d64bc"/>
      <stop offset="1" stop-color="#798ae9"/>
    </linearGradient>
  </defs>
  <path id="Path_754" data-name="Path 754" d="M29.984,68.278A3.714,3.714,0,0,0,33.691,72h4.943a3.715,3.715,0,0,0,3.707-3.722V60.834H29.984Z" fill="#ebebeb"/>
  <path id="Path_755" data-name="Path 755" d="M24.16,47.381a22.326,22.326,0,0,1-3.045-2.367,6.172,6.172,0,1,1-5.961-7.753c.189,0,.37.039.551.056a22.394,22.394,0,0,1-1.775-8.741H12.358L11.5,32.654a1.235,1.235,0,0,1-1.91.767L6.179,31.057,2.472,34.779l2.348,3.428a1.242,1.242,0,0,1-.763,1.918L0,40.983v4.963l4.061.857a1.241,1.241,0,0,1,.763,1.918L2.472,52.149l3.707,3.722,3.415-2.358a1.235,1.235,0,0,1,1.912.767l.853,4.072H17.3l.853-4.078a1.235,1.235,0,0,1,1.912-.767l3.415,2.364,3.879-3.895A7.225,7.225,0,0,0,24.16,47.381Z" fill="#7d8ceb"/>
  <path id="Path_756" data-name="Path 756" d="M58.406,28.576a22.259,22.259,0,1,0-34.246,18.8,7.121,7.121,0,0,1,3.352,5.958v5.014a3.715,3.715,0,0,0,3.707,3.722h9.886a3.715,3.715,0,0,0,3.707-3.722V53.442a7.316,7.316,0,0,1,3.423-6.107A22.336,22.336,0,0,0,58.406,28.576Z" fill="url(#linear-gradient)"/>
  <path id="Path_757" data-name="Path 757" d="M66.06,15.451l3.885-2.925L65.5,6.57,61.611,9.495a2.472,2.472,0,0,1-3.929-2.336l.686-4.825-7.34-1.053-.686,4.825a2.469,2.469,0,0,1-4.424,1.139L43,3.344,37.073,7.81l2.913,3.9a2.481,2.481,0,0,1-2.327,3.944l-4.806-.689L31.8,22.336l4.807.689a2.484,2.484,0,0,1,1.133,4.442L33.86,30.392l4.449,5.955,3.884-2.924a2.472,2.472,0,0,1,3.93,2.336l-.692,4.824,7.34,1.054.692-4.826a2.469,2.469,0,0,1,4.424-1.138l2.914,3.9,5.932-4.467-2.915-3.9a2.48,2.48,0,0,1,2.327-3.945l4.806.689L72,20.581l-4.806-.689a2.484,2.484,0,0,1-1.134-4.441ZM51.9,30.143a8.685,8.685,0,1,1,8.65-8.685A8.667,8.667,0,0,1,51.9,30.143Z" fill="#7d8ceb"/>
  <path id="Path_758" data-name="Path 758" d="M29.984,64.556H42.342v2.481H29.984Z" fill="#9e9e9e"/>
  <path id="Path_759" data-name="Path 759" d="M34.927,54.63H37.4v3.722H34.927Z" fill="#f8d320"/>
  <path id="Path_760" data-name="Path 760" d="M37.4,52.149H34.927a7.922,7.922,0,0,0-5.067-7.4,17.4,17.4,0,0,1-2.918-30.875l1.311,2.1a14.914,14.914,0,0,0,2.5,26.468A10.381,10.381,0,0,1,37.4,52.149Z" fill="#f8d320"/>
  <path id="Path_761" data-name="Path 761" d="M60.878,45.946h6.179a1.241,1.241,0,0,1,0,2.481H60.878a1.241,1.241,0,0,1,0-2.481Z" fill="#f8d320"/>
  <path id="Path_762" data-name="Path 762" d="M58.407,53.39a1.232,1.232,0,0,1,1.74-.159l5.516,4.614a1.239,1.239,0,0,1-1.582,1.906l-5.516-4.614A1.244,1.244,0,0,1,58.407,53.39Z" fill="#f8d320"/>
  <path id="Path_763" data-name="Path 763" d="M53.463,55.871A1.238,1.238,0,0,1,54.7,57.112v6.2a1.236,1.236,0,1,1-2.472,0v-6.2A1.238,1.238,0,0,1,53.463,55.871Z" fill="#f8d320"/>
  <path id="Path_764" data-name="Path 764" d="M1.225,20.867l7.488-1.878a1.24,1.24,0,0,1,.6,2.406L1.823,23.273a1.24,1.24,0,0,1-.6-2.406Z" fill="#f8d320"/>
  <path id="Path_765" data-name="Path 765" d="M2.8,7.485A1.232,1.232,0,0,1,4.519,7.2l6.639,4.761a1.238,1.238,0,0,1-1.436,2.018L3.084,9.215A1.243,1.243,0,0,1,2.8,7.485Z" fill="#f8d320"/>
  <path id="Path_766" data-name="Path 766" d="M13.864.039a1.235,1.235,0,0,1,1.5.895l1.915,7.521a1.236,1.236,0,1,1-2.394.615L12.972,1.549A1.241,1.241,0,0,1,13.864.039Z" fill="#f8d320"/>
</svg>
