<svg id="Twitter" xmlns="http://www.w3.org/2000/svg" width="24.615" height="20" viewBox="0 0 24.615 20">
  <path id="Path_891" data-name="Path 891" d="M24.615,2.368a10.521,10.521,0,0,1-2.908.8A5.018,5.018,0,0,0,23.928.375a10.086,10.086,0,0,1-3.2,1.222A5.046,5.046,0,0,0,12,5.048,5.2,5.2,0,0,0,12.115,6.2,14.284,14.284,0,0,1,1.714.92,5.048,5.048,0,0,0,3.265,7.665a4.984,4.984,0,0,1-2.28-.622V7.1a5.069,5.069,0,0,0,4.043,4.958,5.036,5.036,0,0,1-1.323.166,4.461,4.461,0,0,1-.955-.086,5.094,5.094,0,0,0,4.715,3.515A10.139,10.139,0,0,1,1.208,17.8,9.442,9.442,0,0,1,0,17.735,14.206,14.206,0,0,0,7.742,20,14.264,14.264,0,0,0,22.1,5.64c0-.223-.008-.438-.019-.652A10.067,10.067,0,0,0,24.615,2.368Z" fill="#686868"/>
</svg>
