<svg xmlns="http://www.w3.org/2000/svg" width="26" height="26" viewBox="0 0 26 26">
  <g id="video_post" transform="translate(372 2734)">
    <rect id="Rectangle_247" data-name="Rectangle 247" width="26" height="26" transform="translate(-372 -2734)" fill="none"/>
    <g id="Group_174" data-name="Group 174" transform="translate(0.167 -0.5)">
      <path id="Path_873" data-name="Path 873" d="M21.186,10.092H4.781L20.538,5.456a.483.483,0,0,0,.287-.233.494.494,0,0,0,.041-.371l-.825-2.891A2.7,2.7,0,0,0,17.467,0a2.626,2.626,0,0,0-.741.107L1.932,4.459a2.666,2.666,0,0,0-1.6,1.3A2.736,2.736,0,0,0,.106,7.825l.806,2.824V22.283A2.7,2.7,0,0,0,3.588,25H9.366a.488.488,0,0,0,0-.977H3.588a1.73,1.73,0,0,1-1.714-1.741V15.638H20.7v6.645a1.73,1.73,0,0,1-1.714,1.741H13.212a.488.488,0,0,0,0,.977h5.778a2.7,2.7,0,0,0,2.676-2.717V10.58A.485.485,0,0,0,21.186,10.092Zm-8.479,4.57,2.043-3.593h2.657l-2.043,3.593Zm-3.768,0,2.043-3.593h2.657L11.6,14.661Zm-3.768,0,2.043-3.593H9.872L7.828,14.661ZM6.959,8.34,3.538,5,6.1,4.249a.483.483,0,0,0,.063.075L9.585,7.661l-2.563.754A.485.485,0,0,0,6.959,8.34ZM13.4,2.2l3.421,3.337-2.563.754a.474.474,0,0,0-.063-.075L10.776,2.874l2.563-.754A.478.478,0,0,0,13.4,2.2ZM9.783,3.26,13.2,6.6l-2.563.754a.474.474,0,0,0-.063-.075L7.157,3.939,9.72,3.185A.512.512,0,0,0,9.783,3.26Zm7.211-2.215a1.676,1.676,0,0,1,.473-.068,1.729,1.729,0,0,1,1.651,1.256l.691,2.421-1.929.567a.494.494,0,0,0-.063-.075L14.4,1.81ZM1.177,6.231A1.707,1.707,0,0,1,2.2,5.4l.283-.083a.5.5,0,0,0,.063.075L5.966,8.726,1.721,9.975,1.03,7.553A1.752,1.752,0,0,1,1.177,6.231Zm.7,4.838H6.1L4.061,14.661H1.873Zm14.6,3.593,2.043-3.593H20.7v3.593Z" transform="translate(-370 -2733)" fill="#345eb4" stroke="#345eb4" stroke-width="0.5" fill-rule="evenodd"/>
      <path id="Path_874" data-name="Path 874" d="M16.5,23.144a.49.49,0,0,0-.24-.423l-4.225-2.477a.475.475,0,0,0-.481,0,.49.49,0,0,0-.24.423v4.953a.489.489,0,0,0,.24.423.473.473,0,0,0,.481,0l4.225-2.476A.49.49,0,0,0,16.5,23.144Zm-4.225,1.631V21.513l2.782,1.631Z" transform="translate(-371.886 -2736.363)" fill="#345eb4" fill-rule="evenodd"/>
      <path id="Path_875" data-name="Path 875" d="M13.451,28.828a.488.488,0,1,0,.481.488A.486.486,0,0,0,13.451,28.828Z" transform="translate(-372.162 -2737.805)" fill="#345eb4" fill-rule="evenodd"/>
    </g>
  </g>
</svg>
