<svg id="WP" xmlns="http://www.w3.org/2000/svg" width="20" height="20" viewBox="0 0 20 20">
  <path id="Path_890" data-name="Path 890" d="M10,0H10A9.994,9.994,0,0,0,1.9,15.861L.658,19.576,4.5,18.348A10,10,0,1,0,10,0Zm5.819,14.121a2.822,2.822,0,0,1-1.963,1.411c-.522.111-1.2.2-3.5-.753a12.527,12.527,0,0,1-4.979-4.4A5.711,5.711,0,0,1,4.19,7.366,3.192,3.192,0,0,1,5.213,4.933a1.453,1.453,0,0,1,1.023-.359c.124,0,.235.006.335.011.294.013.441.03.635.494.241.581.829,2.016.9,2.164a.6.6,0,0,1,.043.541,1.728,1.728,0,0,1-.324.459c-.147.17-.287.3-.435.483-.135.159-.287.329-.118.622a8.875,8.875,0,0,0,1.623,2.016,7.353,7.353,0,0,0,2.345,1.446.632.632,0,0,0,.7-.111,12.087,12.087,0,0,0,.781-1.035.558.558,0,0,1,.718-.218c.27.094,1.7.8,1.993.946s.488.218.559.341A2.49,2.49,0,0,1,15.821,14.121Z" fill="#686868"/>
</svg>
