<svg xmlns="http://www.w3.org/2000/svg" width="20.242" height="17.519" viewBox="0 0 20.242 17.519">
    <path data-name="Path 9752" d="M58.758 10.39v2.172a.653.653 0 0 1-.643.643.644.644 0 0 1-.643-.643v-2.056A5.508 5.508 0 0 0 52.1 5.082h-5.9v2.275a1.281 1.281 0 0 1-1.272 1.3 1.323 1.323 0 0 1-.655-.18l-5.115-2.93a1.28 1.28 0 0 1-.475-1.747 1.4 1.4 0 0 1 .476-.476L44.274.391a1.3 1.3 0 0 1 1.761.476 1.231 1.231 0 0 1 .167.643V3.8h5.848a6.784 6.784 0 0 1 6.709 6.593" transform="translate(-38.515 -.223)" style="fill:#fff"/>
    <path data-name="Path 9753" d="M45.63 15.211h-.774V10.8c0-.14.005-.287.009-.429l.014-.407c.005-.129.008-.245.01-.344q-.073.079-.131.135c-.039.039-.077.076-.117.111l-.125.112c-.044.039-.1.086-.158.139l-.65.531-.422-.54 1.682-1.313h.658z" transform="translate(-37.153 2.22)" style="fill:#fff"/>
    <path data-name="Path 9754" d="M50.976 12.014a7.939 7.939 0 0 1-.112 1.392 3.236 3.236 0 0 1-.361 1.042 1.734 1.734 0 0 1-.64.649 1.863 1.863 0 0 1-.948.225 1.747 1.747 0 0 1-.9-.225 1.783 1.783 0 0 1-.636-.649A3.331 3.331 0 0 1 47 13.406a6.9 6.9 0 0 1-.126-1.392 7.818 7.818 0 0 1 .112-1.392 3.26 3.26 0 0 1 .356-1.04 1.7 1.7 0 0 1 .634-.648 1.853 1.853 0 0 1 .941-.224 1.7 1.7 0 0 1 1.551.867 3.283 3.283 0 0 1 .382 1.038 6.924 6.924 0 0 1 .129 1.4m-3.291 0a8.832 8.832 0 0 0 .067 1.152 3.038 3.038 0 0 0 .211.819 1.143 1.143 0 0 0 .38.492.975.975 0 0 0 .572.165.987.987 0 0 0 .576-.163 1.17 1.17 0 0 0 .389-.487 2.891 2.891 0 0 0 .22-.819 8.68 8.68 0 0 0 .068-1.158 8.591 8.591 0 0 0-.068-1.152 2.884 2.884 0 0 0-.22-.816 1.183 1.183 0 0 0-.389-.488 1 1 0 0 0-.576-.162.983.983 0 0 0-.572.162 1.138 1.138 0 0 0-.38.488 2.992 2.992 0 0 0-.211.816 8.832 8.832 0 0 0-.067 1.152" transform="translate(-36.132 2.197)" style="fill:#fff"/>
</svg>
