<svg xmlns="http://www.w3.org/2000/svg" width="136.747" height="69.917" viewBox="0 0 136.747 69.917">
    <defs>
        <linearGradient id="wqd4liwv8a" y1=".327" x2="1.079" y2=".691" gradientUnits="objectBoundingBox">
            <stop offset="0" stop-color="#5d15b9"/>
            <stop offset="1" stop-color="#e058f7"/>
        </linearGradient>
    </defs>
    <path data-name="Path 9742" d="M1131.878 170.211v-.256a6.823 6.823 0 0 1-4.679 2.065c-4.259 0-7.128-3.6-7.128-8.481v-6.982a1.819 1.819 0 0 1 3.637 0v7.018c.018 2.906 1.48 4.825 3.911 4.825s4.258-2.029 4.258-4.734v-7.055a1.8 1.8 0 0 1 1.809-1.809 1.829 1.829 0 0 1 1.828 1.809v13.6a1.853 1.853 0 0 1-1.864 1.828 1.787 1.787 0 0 1-1.773-1.828" transform="translate(-1042.244 -125.988)" style="fill:#fff"/>
    <path data-name="Path 9743" d="M1299.417 168.965a2.038 2.038 0 0 1-.274-1.005 1.611 1.611 0 0 1 1.663-1.608 1.963 1.963 0 0 1 1.645.859 3.428 3.428 0 0 0 3.2 1.645c1.334 0 2.632-.676 2.632-1.828 0-1.407-1.736-1.864-2.961-2.23-2.924-1.024-5.757-2.248-5.757-5.172 0-3.071 2.888-5.026 6.013-5.026 2.047 0 4.478.8 5.319 2.449a1.925 1.925 0 0 1 .2.786 1.621 1.621 0 0 1-1.59 1.554.891.891 0 0 1-.6-.128 4.819 4.819 0 0 0-3.18-1.462c-1.48 0-2.5.548-2.5 1.718 0 1.188 1.316 1.681 3.107 2.23 2.906.914 5.483 2.01 5.483 5.136 0 2.906-2.614 5.173-6.141 5.173-2.3 0-5.081-.914-6.251-3.089" transform="translate(-1201.902 -125.839)" style="fill:#fff"/>
    <path data-name="Path 9744" d="M1450.7 101.836a2.029 2.029 0 1 1 2.029 2.01 2.024 2.024 0 0 1-2.029-2.01m.219 19.356v-13.6a1.849 1.849 0 0 1 1.846-1.828 1.791 1.791 0 0 1 1.791 1.828v13.6a1.8 1.8 0 0 1-1.81 1.809 1.829 1.829 0 0 1-1.828-1.809" transform="translate(-1337.026 -76.987)" style="fill:#fff"/>
    <path data-name="Path 9745" d="M1521.433 163.427v-.073a8.768 8.768 0 0 1 8.81-8.755 8.31 8.31 0 0 1 5.94 2.34 2.149 2.149 0 0 1 .658 1.5 1.86 1.86 0 0 1-1.792 1.81 2.785 2.785 0 0 1-1.663-.786 4.981 4.981 0 0 0-3.363-1.17 5.065 5.065 0 0 0-4.862 5.026v.055a5 5 0 0 0 4.953 4.99 4.878 4.878 0 0 0 3.272-1.17 2.742 2.742 0 0 1 1.645-.749 1.844 1.844 0 0 1 1.81 1.773 2.149 2.149 0 0 1-.658 1.5 8.31 8.31 0 0 1-5.94 2.34 8.672 8.672 0 0 1-8.81-8.627" transform="translate(-1400.094 -125.839)" style="fill:#fff"/>
    <path data-name="Path 9746" d="M646.111 36.124a1.5 1.5 0 0 0 1.22-1.743l-5.162-29.206a3.374 3.374 0 0 0-3.313-2.825 3.485 3.485 0 0 0-3.4 2.744l-7.468 37.241a1.551 1.551 0 0 1-1.56 1.3h-.049a1.532 1.532 0 0 1-1.573-1.341l-5.372-31.122a3.414 3.414 0 0 0-6.707-.109l-4.648 22.52a2 2 0 0 1-3.923 0l-1.393-6.73a5.04 5.04 0 0 0-4.909-3.992 1.505 1.505 0 0 0 0 3.011 2.009 2.009 0 0 1 1.962 1.6l1.393 6.726a4.908 4.908 0 0 0 4.906 4 4.907 4.907 0 0 0 4.909-4l4.214-20.417a.812.812 0 0 1 .795-.648h.013a.812.812 0 0 1 .787.674l5.006 29a4.572 4.572 0 0 0 4.5 3.84h.067a4.58 4.58 0 0 0 4.533-3.717l7.045-35.133a.812.812 0 0 1 1.6.018l4.786 27.09a1.51 1.51 0 0 0 1.745 1.221" transform="translate(-575.298 9.905)" style="fill:none"/>
    <path data-name="Path 9755" d="M512.867 22.942a2.683 2.683 0 1 0 2.683-2.683 2.683 2.683 0 0 0-2.683 2.683M564.427 0a4.3 4.3 0 0 0-4.2 3.4l-7.469 37.243a.743.743 0 0 1-.8.646.733.733 0 0 1-.785-.671L545.8 9.495a4.175 4.175 0 0 0-4.095-3.506 4.22 4.22 0 0 0-4.205 3.372l-4.647 22.519a1.191 1.191 0 0 1-2.333 0l-1.393-6.73a5.855 5.855 0 0 0-5.7-4.639 2.317 2.317 0 0 0 0 4.634 1.2 1.2 0 0 1 1.167.948l1.393 6.727a5.7 5.7 0 0 0 5.7 4.642 5.7 5.7 0 0 0 5.7-4.646L541.6 12.4l5.006 29a5.374 5.374 0 0 0 5.287 4.513h.078a5.372 5.372 0 0 0 5.329-4.369l7.05-35.129 4.786 27.09a2.317 2.317 0 1 0 4.563-.8L568.538 3.5a4.175 4.175 0 0 0-4.111-3.5z" transform="translate(-500.867 12)" style="fill:url(#wqd4liwv8a);opacity:.8"/>
    <path data-name="Path 9756" d="M512.867 22.942a2.683 2.683 0 1 0 2.683-2.683 2.683 2.683 0 0 0-2.683 2.683M564.427 0a4.3 4.3 0 0 0-4.2 3.4l-7.469 37.243a.743.743 0 0 1-.8.646.733.733 0 0 1-.785-.671L545.8 9.495a4.175 4.175 0 0 0-4.095-3.506 4.22 4.22 0 0 0-4.205 3.372l-4.647 22.519a1.191 1.191 0 0 1-2.333 0l-1.393-6.73a5.855 5.855 0 0 0-5.7-4.639 2.317 2.317 0 0 0 0 4.634 1.2 1.2 0 0 1 1.167.948l1.393 6.727a5.7 5.7 0 0 0 5.7 4.642 5.7 5.7 0 0 0 5.7-4.646L541.6 12.4l5.006 29a5.374 5.374 0 0 0 5.287 4.513h.078a5.372 5.372 0 0 0 5.329-4.369l7.05-35.129 4.786 27.09a2.317 2.317 0 1 0 4.563-.8L568.538 3.5a4.175 4.175 0 0 0-4.111-3.5z" transform="translate(-500.867 12)" style="fill:url(#wqd4liwv8a)"/>
</svg>
