<svg xmlns="http://www.w3.org/2000/svg" width="26.942" height="23.817" viewBox="0 0 26.942 23.817">
  <g id="home01" transform="translate(-1022 -100)">
    <path id="Path_9" data-name="Path 9" d="M3.938,8.328V24.817h19V8.328l-9.5-4.987ZM14.337,23.7h-6.4V14.639h6.4Z" transform="translate(1022 99)" fill="#767676"/>
    <path id="Path_10" data-name="Path 10" d="M26.638,8.024a.1.1,0,0,1-.1-.1L13.438,1,.337,7.922a.529.529,0,0,0-.3.713.514.514,0,0,0,.7.305.1.1,0,0,0,.1-.1l12.6-6.718,12.6,6.718a.536.536,0,0,0,.8-.2C27.038,8.532,26.938,8.125,26.638,8.024Z" transform="translate(1022 99)" fill="#767676"/>
  </g>
</svg>
