<svg xmlns="http://www.w3.org/2000/svg" width="26.942" height="23.817" viewBox="0 0 26.942 23.817">
  <g id="home" transform="translate(-1022 -149)">
    <path id="Path_7" data-name="Path 7" d="M3.938,57.328V73.817h19V57.328l-9.5-4.987Zm10.4,15.37h-6.4V63.639h6.4Z" transform="translate(1022 99)" fill="#fed130"/>
    <path id="Path_8" data-name="Path 8" d="M26.638,57.023a.1.1,0,0,1-.1-.1L13.438,50,.337,56.922a.529.529,0,0,0-.3.713.514.514,0,0,0,.7.305.1.1,0,0,0,.1-.1l12.6-6.718,12.6,6.718a.536.536,0,0,0,.8-.2C27.038,57.533,26.938,57.125,26.638,57.023Z" transform="translate(1022 99)" fill="#fed130"/>
  </g>
</svg>
