<svg xmlns="http://www.w3.org/2000/svg" width="16" height="14" viewBox="0 0 16 14">
  <path id="like" d="M248.613,9.869a4.693,4.693,0,0,0-1.054-1.5,4.906,4.906,0,0,0-1.556-1,5.069,5.069,0,0,0-4.474.338,4.882,4.882,0,0,0-.528.364,4.885,4.885,0,0,0-.528-.364A5.071,5.071,0,0,0,236,7.367a4.9,4.9,0,0,0-1.555,1,4.683,4.683,0,0,0-1.054,1.5A4.537,4.537,0,0,0,233,11.712a5.129,5.129,0,0,0,.376,1.869,8.258,8.258,0,0,0,.893,1.646,15.933,15.933,0,0,0,2.48,2.742,27.538,27.538,0,0,0,3.493,2.665l.439.275a.605.605,0,0,0,.638,0l.439-.275a27.9,27.9,0,0,0,3.493-2.665,15.933,15.933,0,0,0,2.48-2.742,8.157,8.157,0,0,0,.893-1.646A5.129,5.129,0,0,0,249,11.712,4.519,4.519,0,0,0,248.613,9.869Z" transform="translate(-233 -7)" fill="#fed130"/>
</svg>
