<svg xmlns="http://www.w3.org/2000/svg" width="16" height="14" viewBox="0 0 16 14">
  <g id="like01" transform="translate(-233 -7)" fill="none" stroke-linecap="square" stroke-linejoin="round">
    <path d="M248.613,9.869a4.693,4.693,0,0,0-1.054-1.5,4.906,4.906,0,0,0-1.556-1,5.069,5.069,0,0,0-4.474.338,4.882,4.882,0,0,0-.528.364,4.885,4.885,0,0,0-.528-.364A5.071,5.071,0,0,0,236,7.367a4.9,4.9,0,0,0-1.555,1,4.683,4.683,0,0,0-1.054,1.5A4.537,4.537,0,0,0,233,11.712a5.129,5.129,0,0,0,.376,1.869,8.258,8.258,0,0,0,.893,1.646,15.933,15.933,0,0,0,2.48,2.742,27.538,27.538,0,0,0,3.493,2.665l.439.275a.605.605,0,0,0,.638,0l.439-.275a27.9,27.9,0,0,0,3.493-2.665,15.933,15.933,0,0,0,2.48-2.742,8.157,8.157,0,0,0,.893-1.646A5.129,5.129,0,0,0,249,11.712,4.519,4.519,0,0,0,248.613,9.869Z" stroke="none"/>
    <path d="M 244.1182861328125 7.999990463256836 L 244.1069946289062 8 C 243.3750305175781 8 242.6606140136719 8.195199966430664 242.041259765625 8.564319610595703 C 241.8945770263672 8.651809692382812 241.7532806396484 8.749099731445312 241.6212768554688 8.853479385375977 C 241.2577209472656 9.140945434570312 240.7443084716797 9.140966415405273 240.3807830810547 8.853519439697266 C 240.2487182617188 8.749090194702148 240.1073913574219 8.651788711547852 239.9610595703125 8.564510345458984 C 239.3413848876953 8.195199966430664 238.626953125 8 237.8950042724609 8 C 237.3663940429688 8 236.8546142578125 8.098869323730469 236.3731842041016 8.294170379638672 C 235.9095306396484 8.481828689575195 235.4927215576172 8.750860214233398 235.133056640625 9.094949722290039 C 234.7787017822266 9.432788848876953 234.4997100830078 9.829090118408203 234.3037872314453 10.27295875549316 C 234.1022033691406 10.72945976257324 234 11.21372032165527 234 11.71229934692383 C 234 12.18968963623047 234.1033630371094 12.69576930999756 234.30712890625 13.21630001068115 C 234.4887390136719 13.67994976043701 234.7532043457031 14.16595935821533 235.0935363769531 14.66129970550537 C 235.6549224853516 15.47940921783447 236.4371032714844 16.34248924255371 237.4189300537109 17.22708892822266 C 239.0812835693359 18.7271614074707 240.7169036865234 19.75203323364258 240.7576751708984 19.77731704711914 C 240.7627716064453 19.7803840637207 240.7678375244141 19.78349685668945 240.7728729248047 19.78664970397949 L 241 19.92892074584961 L 241.2271270751953 19.78664016723633 C 241.2283935546875 19.78585052490234 241.230224609375 19.78471946716309 241.2314910888672 19.7839298248291 C 241.2479400634766 19.77372932434082 242.8951416015625 18.74667930603027 244.5816497802734 17.22657012939453 C 245.5629119873047 16.34246826171875 246.3450927734375 15.47938919067383 246.9067993164062 14.66082000732422 C 247.2507934570312 14.1601390838623 247.5148620605469 13.67514991760254 247.6928100585938 13.21645927429199 C 247.8966522216797 12.69577980041504 248 12.18970966339111 248 11.70916938781738 C 248.0015411376953 11.2149600982666 247.8998107910156 10.73130035400391 247.6982727050781 10.27306938171387 C 247.5023803710938 9.829608917236328 247.2232208251953 9.433099746704102 246.8674926757812 9.093540191650391 C 246.5093536376953 8.750690460205078 246.0925140380859 8.481840133666992 245.6270294189453 8.293849945068359 C 245.1464691162109 8.098859786987305 244.6388397216797 7.999990463256836 244.1182861328125 7.999990463256836 M 244.1182861328125 6.99998664855957 C 244.7654266357422 6.999990463256836 245.4054870605469 7.124773025512695 246.0030059814453 7.367219924926758 C 246.5829925537109 7.601459503173828 247.1109924316406 7.942298889160156 247.5590057373047 8.371189117431641 C 248.0070037841797 8.798809051513672 248.3650054931641 9.307579040527344 248.6130065917969 9.869009017944336 C 248.8699951171875 10.45330047607422 249.0019989013672 11.07379913330078 249 11.71229934692383 C 249 12.31469917297363 248.8739929199219 12.9423999786377 248.6239929199219 13.58099937438965 C 248.4170074462891 14.11459922790527 248.1150054931641 14.66819953918457 247.7310028076172 15.22709941864014 C 247.1239929199219 16.11169815063477 246.2890014648438 17.03429985046387 245.2510070800781 17.9694995880127 C 243.531005859375 19.51979827880859 241.8309936523438 20.58889961242676 241.7579956054688 20.63409996032715 L 241.3190002441406 20.90909957885742 C 241.1249847412109 21.03030776977539 240.8749847412109 21.0302906036377 240.6809997558594 20.90909957885742 L 240.2420043945312 20.63409996032715 C 240.1690063476562 20.59070014953613 238.4669952392578 19.51979827880859 236.7489929199219 17.9694995880127 C 235.7109985351562 17.03429985046387 234.8760070800781 16.11169815063477 234.2689971923828 15.22709941864014 C 233.8849945068359 14.66819953918457 233.5850067138672 14.11459922790527 233.3760070800781 13.58099937438965 C 233.1260070800781 12.9423999786377 233 12.31469917297363 233 11.71229934692383 C 233 11.07379913330078 233.1309967041016 10.45330047607422 233.3890075683594 9.869009017944336 C 233.6369934082031 9.307209014892578 233.9949951171875 8.798330307006836 234.4429931640625 8.371189117431641 C 234.8930053710938 7.94066047668457 235.4170074462891 7.602378845214844 235.9980010986328 7.367219924926758 C 236.6000061035156 7.123008728027344 237.2380065917969 7 237.8950042724609 7 C 238.8079986572266 7 239.6990051269531 7.244209289550781 240.4730072021484 7.705490112304688 C 240.6580047607422 7.815839767456055 240.8339996337891 7.937040328979492 241.0010070800781 8.069089889526367 C 241.1679992675781 7.937040328979492 241.343994140625 7.815839767456055 241.5290069580078 7.705490112304688 C 242.3029937744141 7.244209289550781 243.1940002441406 7 244.1069946289062 7 C 244.1107788085938 6.999990463256836 244.1145172119141 6.99998664855957 244.1182861328125 6.99998664855957 Z" stroke="none" fill="#fed130"/>
  </g>
</svg>
