<svg xmlns="http://www.w3.org/2000/svg" width="28.076" height="28.076" viewBox="0 0 28.076 28.076">
  <g id="linkedin" transform="translate(-1435.2 113.457)">
    <g id="Group_18" data-name="Group 18" transform="translate(-0.021 -0.073)">
      <path id="Path_33" data-name="Path 33" d="M191.9,8.5a1.378,1.378,0,0,0-1.5,1.3,1.347,1.347,0,0,0,1.4,1.3,1.378,1.378,0,0,0,1.5-1.3C193.4,9.1,192.8,8.5,191.9,8.5Z" transform="translate(1252.841 -113.62)" fill="#fff"/>
      <path id="Path_34" data-name="Path 34" d="M190.6,12.3h2.6v7.8h-2.6Z" transform="translate(1252.839 -113.772)" fill="#fff"/>
      <path id="Path_35" data-name="Path 35" d="M199.6,12.1a3.136,3.136,0,0,0-2.3,1.3V12.3h-2.6v7.8h2.6V15.7c0-.2,0-.5.1-.6a1.325,1.325,0,0,1,1.3-.9c.9,0,1.3.7,1.3,1.8v4.2h2.6V15.7C202.5,13.2,201.3,12.1,199.6,12.1Z" transform="translate(1252.678 -113.771)" fill="#fff"/>
    </g>
    <path id="Path_36" data-name="Path 36" d="M209.238,14.038a13,13,0,1,1-13-13A13,13,0,0,1,209.238,14.038Z" transform="translate(1253 -113.457)" fill="none" stroke="#fff" stroke-miterlimit="10" stroke-width="2.076"/>
  </g>
</svg>
