<svg xmlns="http://www.w3.org/2000/svg" width="43.5" height="44.997" viewBox="0 0 43.5 44.997">
  <g id="lock01" transform="translate(-1577 128.997)">
    <path id="Path_147" data-name="Path 147" d="M113,68H81.5A4.5,4.5,0,0,0,77,72.5v18A4.5,4.5,0,0,0,81.5,95H113a4.5,4.5,0,0,0,4.5-4.5v-18A4.5,4.5,0,0,0,113,68Z" transform="translate(1501.5 -180.5)" fill="none" stroke="#fff" stroke-linecap="round" stroke-linejoin="round" stroke-width="3"/>
    <path id="Path_146" data-name="Path 146" d="M83.747,65V55.624a5.2,5.2,0,0,1,1.977-3.977A7.491,7.491,0,0,1,90.5,50H104a7.49,7.49,0,0,1,4.773,1.647,5.2,5.2,0,0,1,1.977,3.977v8.759" transform="translate(1501.5 -177.497)" fill="none" stroke="#fff" stroke-linecap="round" stroke-linejoin="round" stroke-width="3"/>
  </g>
</svg>
