<svg xmlns="http://www.w3.org/2000/svg" width="43.5" height="48" viewBox="0 0 43.5 48">
  <g id="lock" transform="translate(-1506.088 132)">
    <path id="Path_57" data-name="Path 57" d="M113,68H81.5A4.5,4.5,0,0,0,77,72.5v18A4.5,4.5,0,0,0,81.5,95H113a4.5,4.5,0,0,0,4.5-4.5v-18A4.5,4.5,0,0,0,113,68Z" transform="translate(1430.588 -180.5)" fill="none" stroke="#fff" stroke-linecap="round" stroke-linejoin="round" stroke-width="3"/>
    <path id="Path_58" data-name="Path 58" d="M83.747,68V56.75A6.75,6.75,0,0,1,90.5,50H104a6.75,6.75,0,0,1,6.75,6.75V59" transform="translate(1430.588 -180.5)" fill="none" stroke="#fff" stroke-linecap="round" stroke-linejoin="round" stroke-width="3"/>
  </g>
</svg>
