<svg xmlns="http://www.w3.org/2000/svg" width="133.286" height="120.066" viewBox="0 0 133.286 120.066">
  <g id="no_internet" transform="translate(-1960 -424.724)">
    <path id="Path_141" data-name="Path 141" d="M688.51,135.361a6.666,6.666,0,1,0-6.667-6.667A6.666,6.666,0,0,0,688.51,135.361Z" transform="translate(1338 402.724)" fill="#c7c7c7"/>
    <path id="Path_142" data-name="Path 142" d="M691.443,75.361l-12.667-12.6-16.4-16.267L652.043,36.161l-12.133-12.2a6.694,6.694,0,1,0-9.467,9.467l9.2,9.133,9.733,9.733,14.867,14.933,10.333,10.267,18.267,18.267,18.6,18.666,25.667,25.667a6.694,6.694,0,1,0,9.466-9.467ZM753.31,54.894a92.869,92.869,0,0,0-64.8-26.2,94,94,0,0,0-29.6,4.867l10.8,10.8a79.267,79.267,0,0,1,74.4,20,6.6,6.6,0,0,0,9.2-9.467ZM633.976,46.361a95.488,95.488,0,0,0-10.266,8.533,6.667,6.667,0,0,0,9.2,9.6,87.261,87.261,0,0,1,10.666-8.6Zm87.867,43.267a6.648,6.648,0,0,0,9.533-9.267A60,60,0,0,0,688.51,62.027h-1.067L703.11,77.694A46.664,46.664,0,0,1,721.843,89.627Zm-63.8-19.2a58.664,58.664,0,0,0-12.667,9.933,6.744,6.744,0,0,0,9.8,9.267,48.665,48.665,0,0,1,13.334-9.4Zm7.333,34.267a6.672,6.672,0,0,0,9.267,9.6,20.4,20.4,0,0,1,25.6-1.667l-16.8-16.8A33.335,33.335,0,0,0,665.376,104.694Z" transform="translate(1338 402.724)" fill="#c7c7c7"/>
  </g>
</svg>
