<svg xmlns="http://www.w3.org/2000/svg" width="262.247" height="163.503" viewBox="0 0 262.247 163.503">
  <g id="no_result_found" transform="translate(-1611 -413)">
    <g id="Group_15" data-name="Group 15" transform="translate(1323 413)" opacity="0.5">
      <path id="Path_113" data-name="Path 113" d="M550.247,82.583H492.669c.389-4.819,3.534-13.042,4.126-13.994.245-.39.447-.736.62-1.01,2.684-4.27,10.1-7.112,13.446-1.991,2.337,3.578.39,10.546,5.266,12.321,5.583,2.049,7-5.295,7.487-9.075.606-4.631.505-9.363,1.876-13.879.577-1.342,1.544-2.885,3.087-3.087a4.01,4.01,0,0,1,3.477,2.51c1.7,4.155,2.179,8.627,2.8,13.028.5,3.578,1.2,11.455,5.958,11.9,2.511.245,4.805-4.256,7.142-2.265C549.439,78.312,549.352,80.952,550.247,82.583Z" fill="#949494"/>
    </g>
    <path id="Path_114" data-name="Path 114" d="M297.8,84.776l-.895,1.861L295.178,87.7l1.8.938,1.038,1.789.9-1.861,1.731-1.068-1.8-.938Z" transform="translate(1323 413)" fill="#949494"/>
    <path id="Path_115" data-name="Path 115" d="M398.793,79.813l-1.313,2.756-2.554,1.558,2.655,1.385,1.529,2.64,1.327-2.741,2.554-1.573-2.669-1.385Z" transform="translate(1323 413)" fill="#949494"/>
    <path id="Path_116" data-name="Path 116" d="M391.06,85.742l-2.02,4.169-3.881,2.38,4.054,2.092,2.308,4.011,2.02-4.169,3.881-2.38-4.054-2.092Z" transform="translate(1323 413)" fill="#949494"/>
    <path id="Path_117" data-name="Path 117" d="M344.605,53.873l2.741,1.327,1.572,2.554,1.371-2.669,2.64-1.515-2.741-1.327-1.573-2.554-1.37,2.655Z" transform="translate(1323 413)" fill="#949494"/>
    <path id="Path_118" data-name="Path 118" d="M350.52,61.606l4.169,2.02,2.381,3.881,2.092-4.04,4.01-2.323L359,59.124l-2.38-3.867-2.092,4.04Z" transform="translate(1323 413)" fill="#949494"/>
    <path id="Path_119" data-name="Path 119" d="M527.625,98.9l-.909,1.862-1.731,1.067,1.8.938,1.039,1.789.895-1.861,1.745-1.068-1.818-.938Z" transform="translate(1323 413)" fill="#949494"/>
    <path id="Path_120" data-name="Path 120" d="M405.775,157.848l-.909,1.861-1.731,1.068,1.8.937,1.039,1.789.909-1.861,1.731-1.067-1.818-.938Z" transform="translate(1323 413)" fill="#949494"/>
    <path id="Path_121" data-name="Path 121" d="M507.341,10.073l-.909,1.861L504.7,13l1.818.938,1.024,1.789.909-1.861,1.731-1.068-1.8-.938Z" transform="translate(1323 413)" fill="#949494"/>
    <path id="Path_122" data-name="Path 122" d="M541.864,62.01a.489.489,0,0,0,.462-.346.483.483,0,0,0-.317-.591,17.353,17.353,0,0,1-4.79-2.179,7.2,7.2,0,0,0,2.222-1.63,2.536,2.536,0,0,0,.836-2.222,2.334,2.334,0,0,0-1.356-1.558,3.378,3.378,0,0,0-2.957-.029,2.765,2.765,0,0,0-1.515,2.02,3.55,3.55,0,0,0,.923,3.044,5.439,5.439,0,0,1-1.991.029,4.689,4.689,0,0,1-3.592-2.9.472.472,0,0,0-.866.375,5.635,5.635,0,0,0,4.3,3.462,6.424,6.424,0,0,0,2.957-.187,16.689,16.689,0,0,0,5.569,2.683A.272.272,0,0,0,541.864,62.01Zm-4.472-7.935a2.447,2.447,0,0,1,1.1.26c.217.115.751.418.852.895a1.781,1.781,0,0,1-.606,1.385,6.4,6.4,0,0,1-2.337,1.6,2.861,2.861,0,0,1-1.025-2.568,1.834,1.834,0,0,1,1.01-1.342A2.358,2.358,0,0,1,537.392,54.075Z" transform="translate(1323 413)" fill="#949494"/>
    <path id="Path_123" data-name="Path 123" d="M310.832,152.193c1.1.519,1.846,1.471,2.928,2.02,5.612,2.842,5.281-7.416,5.266-10.373-.043-6.233.216-14.24,7.978-15.639a9.614,9.614,0,0,1,10.878,7.3c1.515,6.1-.909,23.415,10.46,21.049,3.029-.635,5.28-3.117,7.127-5.612,2.337-3.145,4.616-6.651,8.757-7.4,6.275-1.126,12.594,2.495,16.894,6.78a29.653,29.653,0,0,1,6.535,10.287l.029.072c-4.04,0-8.079-.015-12.119-.015q-8.028,0-16.057-.028c-4.573,0-56.6-.073-56.6-.044C303.243,156.752,305.378,149.625,310.832,152.193Z" transform="translate(1323 413)" fill="#949494" opacity="0.5"/>
    <path id="Path_124" data-name="Path 124" d="M398.749,26.765s35.346-.014,35.389,0h8.469a7.906,7.906,0,0,0,.1-1.645.385.385,0,0,0-.015-.13V24.9a15.864,15.864,0,0,0-.49-2.178,11.888,11.888,0,0,0-1.284-2.871,7.628,7.628,0,0,0-2.64-2.611,10.335,10.335,0,0,0-3.463-1.269,7.864,7.864,0,0,0-5.843,1.154c-1.053.721-2.034,1.832-3.361,2.005-2.034.26-2.568-1.976-2.727-3.52-.447-4.169-.793-10.676-5.886-11.873a2.912,2.912,0,0,0-2.308.361,7.3,7.3,0,0,0-2.525,3.866c-.736,2.236-1.14,4.66-2.063,6.824a3.525,3.525,0,0,1-3.823,2.337,4.116,4.116,0,0,0-1.731.13,6.566,6.566,0,0,0-3.218,2.308,8.21,8.21,0,0,0-.793,1.2A21.24,21.24,0,0,0,398.749,26.765Z" transform="translate(1323 413)" fill="#949494" opacity="0.5"/>
    <path id="Path_125" data-name="Path 125" d="M304.787,135.847c2.5,0,4.948-1.14,5.727-3.564a6.06,6.06,0,0,0,.26-1.457,7.127,7.127,0,0,0,2.755-2.164,6.416,6.416,0,0,0,1.457-3.505.477.477,0,1,0-.952-.058,5.608,5.608,0,0,1-1.255,2.957,6.617,6.617,0,0,1-2.034,1.717,7.217,7.217,0,0,0-.173-1.067,3.17,3.17,0,0,0-1.328-2.15A2.174,2.174,0,0,0,306,128.908a2.631,2.631,0,0,0,.909,1.385,3.446,3.446,0,0,0,2.612.851,1.882,1.882,0,0,0,.274-.044,5.622,5.622,0,0,1-.188.88c-.909,2.857-4.487,3.261-6.737,2.655a1.365,1.365,0,0,1-.231-.072,5.89,5.89,0,0,1-1.7-.851.475.475,0,1,0-.563.764,6.872,6.872,0,0,0,1.976,1,1.681,1.681,0,0,0,.26.072A7.944,7.944,0,0,0,304.787,135.847Zm5.035-5.713a1.812,1.812,0,0,1-.39.058,2.485,2.485,0,0,1-1.9-.621,1.713,1.713,0,0,1-.592-.894,1.212,1.212,0,0,1,1.8-1.328,2.353,2.353,0,0,1,.895,1.559A7.918,7.918,0,0,1,309.822,130.134Z" transform="translate(1323 413)" fill="#949494"/>
    <path id="Path_126" data-name="Path 126" d="M408.834,98.625l6.376,4.833,13.273,10.056.693.534,6.737,5.093,3.347,2.539.765.577.649.49.909.693.13.1,4.876,3.693.808.62.4.3,1.24.938.65.491.779.591.49.375.866.649.058.044.533.4,1.53,1.154,2.64,2.005.836.635,1.313,1,.26.2.4.3.4.3.144.1,2.785,2.107,3.332,2.51.823.62.4.3.808.621.044.029,2.308,1.745,6.42,4.862.4.3a5.9,5.9,0,0,0,7.473-.462,6.3,6.3,0,0,0,.765-.865,5.55,5.55,0,0,0,.4-.649,5.9,5.9,0,0,0-1.27-7.214,5.6,5.6,0,0,0-.462-.375l-8.165-6.189-6.463-4.891-13.187-9.983-17.99-13.634-1.7-1.3-8.729-6.608-4.934-3.737L416.754,89.8A49.867,49.867,0,0,1,408.834,98.625Z" transform="translate(1323 413)" fill="#949494"/>
    <path id="Path_127" data-name="Path 127" d="M432.508,92.912a3.329,3.329,0,0,1,.534-.187l2.438-.692a1.8,1.8,0,0,1,1.068.014,1.9,1.9,0,0,1,1.3,1.558l.548,4.357a1.868,1.868,0,0,1-.49,1.515,1.849,1.849,0,0,1-.88.534l-1.8.49a4.066,4.066,0,0,1-3.289-.519,4,4,0,0,1-1.2-1.212,4.033,4.033,0,0,1,1.774-5.857Zm-1.341,4.1a3,3,0,0,0,1.327,2.106,3.037,3.037,0,0,0,2.467.39l1.818-.5a.866.866,0,0,0,.62-.938l-.548-4.357a.853.853,0,0,0-.375-.606.886.886,0,0,0-.707-.115l-2.438.693A3.07,3.07,0,0,0,431.167,97.01Z" transform="translate(1323 413)" fill="#949494"/>
    <path id="Path_128" data-name="Path 128" d="M524.812,126.946l-3.16,6.391a.958.958,0,0,1-1.717-.852l3.174-6.391a.958.958,0,0,1,1.284-.432A.941.941,0,0,1,524.812,126.946Z" transform="translate(1323 413)" fill="#949494"/>
    <path id="Path_129" data-name="Path 129" d="M350.419,9.063A57.94,57.94,0,0,1,427.834,35.58c.087.188.187.375.274.563A57.851,57.851,0,0,1,323.931,86.478c-.086-.188-.187-.375-.274-.563A57.905,57.905,0,0,1,350.419,9.063ZM330.726,82.525c.072.159.159.332.231.491a50.006,50.006,0,0,0,66.9,22.924,50.33,50.33,0,0,0,10.979-7.3A50.1,50.1,0,0,0,421.01,39.533c-.072-.159-.159-.332-.231-.491a50,50,0,0,0-90.053,43.483Z" transform="translate(1323 413)" fill="#949494"/>
    <path id="Path_130" data-name="Path 130" d="M349.943,32.882a.851.851,0,0,0,.591-.231,37.79,37.79,0,0,1,12.321-7.372.89.89,0,1,0-.606-1.674,39.591,39.591,0,0,0-12.9,7.718.891.891,0,0,0-.072,1.255A.917.917,0,0,0,349.943,32.882Z" transform="translate(1323 413)" fill="#949494"/>
    <path id="Path_131" data-name="Path 131" d="M408.617,40.874a.835.835,0,0,0,.476-.144.873.873,0,0,0,.26-1.226,39.816,39.816,0,0,0-36.2-18.178.89.89,0,1,0,.13,1.775,38.083,38.083,0,0,1,34.581,17.37A.907.907,0,0,0,408.617,40.874Z" transform="translate(1323 413)" fill="#949494"/>
    <path id="Path_132" data-name="Path 132" d="M469.383,81.861a.56.56,0,0,0,.534-.361.577.577,0,0,0-.317-.765l-22-9.046a.59.59,0,0,0-.765.317.577.577,0,0,0,.317.765l22.016,9.046A.576.576,0,0,0,469.383,81.861Z" transform="translate(1323 413)" fill="#949494"/>
    <path id="Path_133" data-name="Path 133" d="M484.142,55.821a.579.579,0,0,0,.577-.519.6.6,0,0,0-.519-.649l-37.28-4.083a.588.588,0,1,0-.129,1.169l37.279,4.083Z" transform="translate(1323 413)" fill="#949494"/>
    <path id="Path_134" data-name="Path 134" d="M443.9,34.252a.652.652,0,0,0,.275-.072l43.829-23.429a.587.587,0,0,0-.549-1.039L443.631,33.156a.594.594,0,0,0-.245.793A.562.562,0,0,0,443.9,34.252Z" transform="translate(1323 413)" fill="#949494"/>
    <path id="Path_135" data-name="Path 135" d="M434.1,13.463a.585.585,0,0,0,.433-.2L445.507.969a.589.589,0,0,0-.044-.822.588.588,0,0,0-.822.043L433.677,12.482a.588.588,0,0,0,.043.822A.524.524,0,0,0,434.1,13.463Z" transform="translate(1323 413)" fill="#949494"/>
    <path id="Path_136" data-name="Path 136" d="M308.812,25.135a.584.584,0,0,0,.49-.26.592.592,0,0,0-.159-.808L288.9,10.535a.582.582,0,1,0-.649.967l20.241,13.532A.52.52,0,0,0,308.812,25.135Z" transform="translate(1323 413)" fill="#949494"/>
    <path id="Path_137" data-name="Path 137" d="M324.061,13.478a.355.355,0,0,0,.115-.014.577.577,0,0,0,.462-.678l-1.847-9.8a.58.58,0,0,0-1.14.216L323.5,13A.56.56,0,0,0,324.061,13.478Z" transform="translate(1323 413)" fill="#949494"/>
    <path id="Path_138" data-name="Path 138" d="M290.98,48.088a.49.49,0,0,0,.144-.014l13.865-3.708a.59.59,0,0,0-.3-1.14l-13.865,3.708a.587.587,0,0,0,.159,1.154Z" transform="translate(1323 413)" fill="#949494"/>
  </g>
</svg>
