<svg id="no_video" xmlns="http://www.w3.org/2000/svg" xmlns:xlink="http://www.w3.org/1999/xlink" width="369.6" height="175.506" viewBox="0 0 369.6 175.506">
  <defs>
    <linearGradient id="linear-gradient" x1="0.514" y1="1" x2="0.517" gradientUnits="objectBoundingBox">
      <stop offset="0" stop-color="#fff" stop-opacity="0"/>
      <stop offset="1" stop-color="#e5e5e5"/>
    </linearGradient>
    <linearGradient id="linear-gradient-2" x1="0.5" x2="0.5" y2="1" gradientUnits="objectBoundingBox">
      <stop offset="0" stop-color="#fed130"/>
      <stop offset="1" stop-color="#fea500"/>
    </linearGradient>
    <linearGradient id="linear-gradient-3" x1="0.5" x2="0.5" y2="1" gradientUnits="objectBoundingBox">
      <stop offset="0" stop-color="#f2d7cf"/>
      <stop offset="1" stop-color="#faefec"/>
    </linearGradient>
    <linearGradient id="linear-gradient-9" x1="-1.164" y1="6.899" x2="0" y2="7.46" xlink:href="#linear-gradient-3"/>
  </defs>
  <path id="Path_66" data-name="Path 66" d="M325.5,60a2.577,2.577,0,1,0-5.091.8c.378,2.4.841,9.888-1.768,12.917a3.139,3.139,0,0,1-2.1,1.178l.253-14.264a3.7,3.7,0,1,0-7.406,0l.674,27.1a3.483,3.483,0,0,1-2.188-1.22c-2.567-3.029-2.1-10.519-1.767-12.917a2.577,2.577,0,0,0-5.092-.8c-.168,1.178-1.683,11.655,2.9,17.041a8.446,8.446,0,0,0,6.185,3.03l.294,11.782h5.6l.421-24.615A8.637,8.637,0,0,0,322.474,77C327.145,71.7,325.672,61.18,325.5,60Z" fill="#bdbdbd"/>
  <path id="Path_67" data-name="Path 67" d="M46.537,82.807a1.619,1.619,0,1,0-3.2.5c.253,1.515.547,6.312-1.094,8.2a2.08,2.08,0,0,1-1.346.757l.168-9.089a2.357,2.357,0,1,0-4.713.042l.421,17.251a2.289,2.289,0,0,1-1.389-.757c-1.641-1.936-1.346-6.69-1.094-8.2a1.619,1.619,0,1,0-3.2-.5c-.126.757-1.052,7.447,1.851,10.856A5.438,5.438,0,0,0,36.9,103.8l.168,7.532h3.576L40.9,95.64A5.57,5.57,0,0,0,44.769,93.7C47.589,90.255,46.663,83.564,46.537,82.807Z" fill="#bdbdbd"/>
  <path id="Path_68" data-name="Path 68" d="M369.6,148.4c0-36.135-82.738-65.429-184.8-65.429S0,112.269,0,148.4,369.6,184.54,369.6,148.4Z" opacity="0.1" fill="url(#linear-gradient)"/>
  <path id="Path_69" data-name="Path 69" d="M273.119,102.373H192.585a5.262,5.262,0,0,1-5.26-5.26V16.621a5.261,5.261,0,0,1,5.26-5.259h80.534a5.262,5.262,0,0,1,5.26,5.259V97.155A5.282,5.282,0,0,1,273.119,102.373Z" fill="#bdbdbd"/>
  <path id="Path_70" data-name="Path 70" d="M221.281,70.689v-27.6l23.1,14.138Z" fill="#eee"/>
  <path id="Path_71" data-name="Path 71" d="M185.1,26.929c1.6-1.094,4.124-1.136,6.48-5.217,1.22-2.1,2.482-8.626.589-12.5C189.135,3.03,181.9-1.178,178.615.295c-2.735,1.22,1.3,15.4,3.24,15.989C183.833,16.789,185.1,26.929,185.1,26.929Z" fill="#151820"/>
  <path id="Path_72" data-name="Path 72" d="M164.982,41.109s-2.314,3.45-5.133,7.279c-2.987,4.081-4.881,5.428-7.91,5.47s-6.606,0-6.606,0l-.421,7.153L160.9,62.358,169.7,48.473Z" fill="url(#linear-gradient-2)"/>
  <path id="Path_73" data-name="Path 73" d="M122.359,76.748l-4.713,9.3,8.71.421,2.525-6.606Z" fill="#f2d7cf"/>
  <path id="Path_74" data-name="Path 74" d="M157.03,71.11c1.094-1.473-11.15-21.669-15.779-24.531-4.67-2.819-8.078.379-10.393,2.735s-14.306,21.249-13.969,22.469c.379,1.22,10.435,10.1,11.487,10.183s8.5-13.717,8.878-13.717,4.8,15.316,5.807,15.695C144.07,84.364,156.231,72.162,157.03,71.11Z" fill="#192b59"/>
  <path id="Path_75" data-name="Path 75" d="M81.419,90.465c-1.3-.337-6.985-2.861-8.878-4.755s-7.405,2.1-7.658,4.292,2.23,7.49,3.492,7.868,3.661.8,3.661.8l.884-.463a24.375,24.375,0,0,1,4.544-.253c2.188.126,4.628.8,4.755.715S81.419,90.465,81.419,90.465Z" fill="url(#linear-gradient-3)"/>
  <path id="Path_76" data-name="Path 76" d="M153.58,70.479c-2.188,1.641-5.344,7.574-6.943,8.289a41.214,41.214,0,0,1-13.506,3.2c-7.237.547-29.37,6.522-34.419,7.111S81.335,89.5,80.956,90.3s.252,10.982,1.346,11.276c1.052.295,27.182-1.346,29.706-1.641s30.59,1.473,34.966.884,22.258.168,25.246-1.347c3.029-1.557,5.764-4.8,6.143-6.648.379-1.893-3.871-11.781-7.153-14.054S153.58,70.479,153.58,70.479Z" fill="#192b59"/>
  <path id="Path_77" data-name="Path 77" d="M135.192,54.826c-.462-1.052-1.094-2.861-2.44-3.661a20.406,20.406,0,0,1-3.114-2.188c-.294-.337-1.009-.21-1.514-.631s-1.263-.968-1.683-.253c-.421.757,2.566,3.661,1.893,3.619a3.823,3.823,0,0,1-1.936-.968c-.252-.295-1.093-.8-1.556-.126a1.638,1.638,0,0,0,0,1.893c.336.463,2.188,3.24,1.851,3.029s-2.987-2.356-3.492-2.146c-.5.252-.968,1.052-.674,1.515s-.042,3.156.337,3.534c.337.421,1.851,1.22,2.23,1.683s3.7,1.641,6.059,1.515a10.624,10.624,0,0,0,3.7-.547C135.529,60.843,135.192,54.826,135.192,54.826Z" fill="url(#linear-gradient-3)"/>
  <path id="Path_78" data-name="Path 78" d="M172.009,32.9c-2.4.8-6.942,7.153-7.784,9.972-.883,2.861-3.114,13.17-3.534,16.368s-4.46,9.551-5.681,9.972-2.314.8-1.514,1.809c.8.968,21.669,20.365,24.025,22.216,2.315,1.851,3.661,2.777,4.418,2.188s8.71-24.194,9.341-27.308,4.881-18.6,4.755-23.016-.295-6.9-3.2-9.046-6.269-7.237-7.027-7.995C185.011,27.308,172.009,32.9,172.009,32.9Z" fill="url(#linear-gradient-2)"/>
  <path id="Path_79" data-name="Path 79" d="M168.391,24.868a8.017,8.017,0,0,1,2.566,3.535,15.168,15.168,0,0,1,1.01,5.47c-.21,1.641-2.651,4.839-2.188,4.628s8.163-4.376,10.73-5.764,5.848-2.819,5.722-4c-.126-1.22-1.178-4-1.178-5.47s-4.25-1.978-6.816-1.346C175.67,22.6,168.391,24.868,168.391,24.868Z" fill="url(#linear-gradient-3)"/>
  <path id="Path_80" data-name="Path 80" d="M171.967,11.193c-2.02,1.262-3.871,2.146-3.745,3.072.127.968,1.347,1.683.842,2.188-.5.547-3.408,6.1-2.819,6.816.631.715,4.586,3.45,7.489,3.619s6.817-3.408,7.574-3.072,4.46.926,5.891-.631,1.935-2.988,1.6-3.955c-.253-.673-1.305-.842-2.525-.547a2.177,2.177,0,0,1-2.482-1.935,4.072,4.072,0,0,1,1.094-2.735c1.472-1.725-5.092-9.131-7.069-8.668a8.732,8.732,0,0,0-5.134,3.03C171.8,9.426,172.724,10.73,171.967,11.193Z" fill="url(#linear-gradient-3)"/>
  <path id="Path_81" data-name="Path 81" d="M133.215,58.318c-.127,2.146-.043,5.217,1.388,5.47s14.39,2.945,18.093,3.787c3.661.841,14.39-.757,18.64-2.693S190.06,53.4,191.07,52.47c2.1-1.935,1.22-11.571-2.567-14.264-3.829-2.693-10.814.421-13.843,3.534S164.309,56,160.48,56.593c-3.871.589-13.8.463-16.157-.126s-8.121-2.861-9.005-2.1A6.51,6.51,0,0,0,133.215,58.318Z" fill="url(#linear-gradient-2)"/>
  <path id="Path_82" data-name="Path 82" d="M126.651,50.955c-.211-.295.462-.673.925-.673.463-.042,1.094,1.262.968,1.431-.126.21-.926.084-1.388-.21S126.693,51.081,126.651,50.955Z" fill="url(#linear-gradient-9)"/>
  <path id="Path_83" data-name="Path 83" d="M124.631,52.133c-.421-.126-1.178.631-1.3.968s.294.926.547,1.136c.252.252,1.557,1.725,1.977,1.725.379,0,1.01-.252,1.01-.757A9.788,9.788,0,0,0,124.631,52.133Z" fill="url(#linear-gradient-9)"/>
  <path id="Path_84" data-name="Path 84" d="M122.99,55.625a1.214,1.214,0,0,0-.673,1.3c.379.926,2.524,1.809,3.029,2.02.463.21,1.389.589,1.683.126s-.42-1.515-1.052-1.851a3.567,3.567,0,0,1-1.3-.926A1.48,1.48,0,0,0,122.99,55.625Z" fill="url(#linear-gradient-9)"/>
  <path id="Path_85" data-name="Path 85" d="M123.874,58.865c-.547.126-.463,1.094-.295,1.262a7.52,7.52,0,0,0,2.1,1.262,5.8,5.8,0,0,0,1.852.084c.252-.168.168-.926-.169-1.262-.378-.337-1.767-.463-2.188-.715C124.8,59.2,124.421,58.739,123.874,58.865Z" fill="url(#linear-gradient-9)"/>
  <path id="Path_86" data-name="Path 86" d="M71.026,87.562c-1.557,1.178-2.819,2.693-3.661,2.609s-1.431-.168-1.431.421,3.2,7.153,4.8,7.616c1.6.421,2.23,0,2.23,0s-.547,1.3-4.081,1.136c-3.535-.21-4.755-1.178-5.217-2.272s-1.557-7.027-2.525-8.92-1.978-10.477-.21-13.338c1.767-2.819,2.693-3.787,3.7-3.745s2.02.042,2.314,1.178,6.185,12.371,6.017,13.17C72.793,86.173,71.026,87.562,71.026,87.562Z" fill="url(#linear-gradient-2)"/>
</svg>
