<svg xmlns="http://www.w3.org/2000/svg" width="14.408" height="18.9" viewBox="0 0 14.408 18.9">
  <path id="pass02" d="M233.5,259H223a2.006,2.006,0,0,1-2-2v-9.3a.9.9,0,0,1,.9-.9h.6v-1a5.7,5.7,0,0,1,11.4,0v1h.6a.9.9,0,0,1,.9.9V257A1.864,1.864,0,0,1,233.5,259ZM222,247.8V257a1,1,0,0,0,1,1h10.5a1,1,0,0,0,1-1v-9.2H233v-2a4.7,4.7,0,1,0-9.4,0v2Zm7,8.2h-1.5a1.08,1.08,0,0,1-.7-.3.844.844,0,0,1-.2-.7l.2-1.9a1.974,1.974,0,0,1-.6-1.4,2,2,0,0,1,4,0,1.974,1.974,0,0,1-.6,1.4l.2,1.9a1.854,1.854,0,0,1-.2.7A.713.713,0,0,1,229,256Zm-1.4-1h1.2l-.3-2.3.2-.2a.909.909,0,0,0,.4-.8,1,1,0,0,0-1-1,.945.945,0,0,0-1,1,.909.909,0,0,0,.4.8l.2.2Zm4.1-7.2h-7v-2a3.5,3.5,0,0,1,7,0Zm-5.9-1h5v-1a2.5,2.5,0,0,0-5,0Z" transform="translate(-221 -240.1)" fill="#767676"/>
</svg>
