<svg xmlns="http://www.w3.org/2000/svg" width="28.076" height="28.076" viewBox="0 0 28.076 28.076">
  <g id="twitter" transform="translate(-1350.462 112.957)">
    <path id="Path_29" data-name="Path 29" d="M117.776,9.9a7.9,7.9,0,0,1-1.636.5,2.909,2.909,0,0,0,1.251-1.6,6.306,6.306,0,0,1-1.733.7,2.577,2.577,0,0,0-2.021-.9,2.849,2.849,0,0,0-2.791,2.9,2.023,2.023,0,0,0,.1.7,7.724,7.724,0,0,1-5.679-3,3.412,3.412,0,0,0-.385,1.5,2.842,2.842,0,0,0,1.251,2.4,1.885,1.885,0,0,1-1.251-.4,2.782,2.782,0,0,0,2.214,2.8,1.811,1.811,0,0,1-.77.1h-.481a2.823,2.823,0,0,0,2.6,2,5.246,5.246,0,0,1-3.465,1.2H104.3a7.86,7.86,0,0,0,4.235,1.3,8.012,8.012,0,0,0,7.893-8.2v-.4A10.593,10.593,0,0,0,117.776,9.9Z" transform="translate(1253.462 -113.269)" fill="#fff"/>
    <path id="Path_30" data-name="Path 30" d="M124.038,14.038a13,13,0,1,1-13-13A13,13,0,0,1,124.038,14.038Z" transform="translate(1253.462 -112.957)" fill="none" stroke="#fff" stroke-miterlimit="10" stroke-width="2.076"/>
  </g>
</svg>
