<svg xmlns="http://www.w3.org/2000/svg" width="19.326" height="25" viewBox="0 0 19.326 25">
  <g id="watchlist01" transform="translate(-1104 -99)">
    <path id="Path_22" data-name="Path 22" d="M93.152,8.687H86.2a.84.84,0,1,0,0,1.679h6.949a.84.84,0,1,0,0-1.679Z" transform="translate(1022 99)" fill="#767676"/>
    <path id="Path_23" data-name="Path 23" d="M93.152,12.164H86.2a.84.84,0,0,0,0,1.679h6.949a.84.84,0,0,0,0-1.679Z" transform="translate(1022 99)" fill="#767676"/>
    <path id="Path_24" data-name="Path 24" d="M97.354,14.9V5.466a1.541,1.541,0,0,0-1.539-1.539h-.79v-.55a.7.7,0,0,0-.7-.7H92.491a2.817,2.817,0,0,0-5.628,0H85.029a.7.7,0,0,0-.7.7v.55h-.79A1.541,1.541,0,0,0,82,5.466V19.891a1.541,1.541,0,0,0,1.539,1.539h7.795a5.115,5.115,0,1,0,6.02-6.531Zm-4.2.742H86.2a.84.84,0,1,0,0,1.679h5.585a5.079,5.079,0,0,0-.674,2.152H83.959V5.886h.371v.475a.7.7,0,0,0,.7.7h9.3a.7.7,0,0,0,.7-.7V5.886h.371v8.95a4.967,4.967,0,0,0-2.041.811C93.268,15.642,93.213,15.64,93.152,15.64Zm6.018,3.5-2.037,2.386a1.555,1.555,0,0,1-1.117.545h-.059a1.557,1.557,0,0,1-1.1-.457l-1.032-1.031A.98.98,0,0,1,95.214,19.2l.717.718,1.749-2.048a.98.98,0,0,1,1.49,1.272Z" transform="translate(1022 99)" fill="#767676"/>
  </g>
</svg>
